#VRML V2.0 utf8
#Exported from Wings 3D 2.2.9
DEF cylinder2_copy5 Transform {
  children [
    Shape {
      appearance Appearance {
        material DEF pins Material {
          diffuseColor 0.6 0.6 0.6
          emissiveColor 0.0 0.0 0.0
          specularColor 0.5999999905136262 0.5999999905136262 0.5999999905136262
          ambientIntensity 1.0
          transparency 0.0
          shininess 0.5
        }
      }
      geometry IndexedFaceSet {
        normalPerVertex TRUE
        coord Coordinate { point [
          5.648999999999999 2.01 0.09999999999999998,
          5.6310355696726635 1.9196867099618387 0.09999999999999998,
          5.579877200360025 1.8431227996399746 0.09999999999999998,
          5.503313290038161 1.791964430327336 0.09999999999999998,
          5.413 1.7739999999999998 0.09999999999999998,
          5.32268670996184 1.791964430327336 0.09999999999999998,
          5.246122799639975 1.8431227996399746 0.09999999999999998,
          5.194964430327336 1.9196867099618387 0.09999999999999998,
          5.1770000000000005 2.01 0.09999999999999998,
          5.194964430327336 2.100313290038161 0.09999999999999998,
          5.246122799639975 2.176877200360025 0.09999999999999998,
          5.322686709961838 2.2280355696726635 0.09999999999999998,
          5.413 2.246 0.09999999999999998,
          5.503313290038161 2.2280355696726635 0.09999999999999998,
          5.579877200360025 2.176877200360025 0.09999999999999998,
          5.6310355696726635 2.1003132900381614 0.09999999999999998,
          5.648999999999999 2.01 -1.0,
          5.6310355696726635 1.9196867099618387 -1.0,
          5.579877200360025 1.8431227996399746 -1.0,
          5.503313290038161 1.791964430327336 -1.0,
          5.413 1.7739999999999998 -1.0,
          5.32268670996184 1.791964430327336 -1.0,
          5.246122799639975 1.8431227996399746 -1.0,
          5.194964430327336 1.9196867099618387 -1.0,
          5.1770000000000005 2.01 -1.0,
          5.194964430327336 2.100313290038161 -1.0,
          5.246122799639975 2.176877200360025 -1.0,
          5.322686709961838 2.2280355696726635 -1.0,
          5.413 2.246 -1.0,
          5.503313290038161 2.2280355696726635 -1.0,
          5.579877200360025 2.176877200360025 -1.0,
          5.6310355696726635 2.100313290038161 -1.0 ] }
        coordIndex [
          0, 1, 17, 16, -1,
          0, 15, 14, 13, 12, 11, 10, 9, 8, 7, 6, 5, 4, 3, 2, 1, -1,
          0, 16, 31, 15, -1,
          1, 2, 18, 17, -1,
          2, 3, 19, 18, -1,
          3, 4, 20, 19, -1,
          4, 5, 21, 20, -1,
          5, 6, 22, 21, -1,
          6, 7, 23, 22, -1,
          7, 8, 24, 23, -1,
          8, 9, 25, 24, -1,
          9, 10, 26, 25, -1,
          10, 11, 27, 26, -1,
          11, 12, 28, 27, -1,
          12, 13, 29, 28, -1,
          13, 14, 30, 29, -1,
          14, 15, 31, 30, -1,
          16, 17, 18, 19, 20, 21, 22, 23, 24, 25, 26, 27, 28, 29, 30, 31, -1 ]
        normal Normal { vector [
          1.0173645540132633e-17 0.0 1.0,
          1.0 -2.263947159094208e-16 -2.0190062012826834e-17,
          1.0 -2.263947159094208e-16 -2.0190062012826834e-17,
          1.0173645540132633e-17 0.0 1.0,
          0.9238795325112885 -0.3826834323650856 0.0,
          0.9238795325112885 -0.3826834323650856 0.0,
          1.0173645540132633e-17 0.0 1.0,
          0.7071067811865477 -0.7071067811865472 0.0,
          0.7071067811865477 -0.7071067811865472 0.0,
          1.0173645540132633e-17 0.0 1.0,
          0.38268343236508967 -0.9238795325112867 0.0,
          0.38268343236508967 -0.9238795325112867 0.0,
          1.0173645540132633e-17 0.0 1.0,
          0.0 -1.0 0.0,
          0.0 -1.0 0.0,
          1.0173645540132633e-17 0.0 1.0,
          -0.38268343236508967 -0.9238795325112867 0.0,
          -0.38268343236508967 -0.9238795325112867 0.0,
          1.0173645540132633e-17 0.0 1.0,
          -0.7071067811865449 -0.7071067811865501 0.0,
          -0.7071067811865449 -0.7071067811865501 0.0,
          1.0173645540132633e-17 0.0 1.0,
          -0.923879532511287 -0.38268343236508934 0.0,
          -0.923879532511287 -0.38268343236508934 0.0,
          1.0173645540132633e-17 0.0 1.0,
          -1.0 0.0 0.0,
          -1.0 0.0 0.0,
          1.0173645540132633e-17 0.0 1.0,
          -0.9238795325112873 0.3826834323650887 0.0,
          -0.9238795325112873 0.3826834323650887 0.0,
          1.0173645540132633e-17 0.0 1.0,
          -0.7071067811865485 0.7071067811865466 0.0,
          -0.7071067811865485 0.7071067811865466 0.0,
          1.0173645540132633e-17 0.0 1.0,
          -0.38268343236509306 0.9238795325112854 0.0,
          -0.38268343236509306 0.9238795325112854 0.0,
          1.0173645540132633e-17 0.0 1.0,
          1.8819060759970635e-15 1.0 0.0,
          1.8819060759970635e-15 1.0 0.0,
          1.0173645540132633e-17 0.0 1.0,
          0.38268343236508984 0.9238795325112866 0.0,
          0.38268343236508984 0.9238795325112866 0.0,
          1.0173645540132633e-17 0.0 1.0,
          0.707106781186547 0.707106781186548 -5.675044457659452e-17,
          0.707106781186547 0.707106781186548 -5.675044457659452e-17,
          1.0173645540132633e-17 0.0 1.0,
          0.9238795325112886 0.38268343236508545 -7.694050658942141e-17,
          0.9238795325112886 0.38268343236508545 -7.694050658942141e-17,
          0.0 0.0 -1.0,
          1.0 -2.263947159094208e-16 -2.0190062012826834e-17,
          1.0 -2.263947159094208e-16 -2.0190062012826834e-17,
          0.0 0.0 -1.0,
          0.9238795325112885 -0.3826834323650856 0.0,
          0.9238795325112885 -0.3826834323650856 0.0,
          0.0 0.0 -1.0,
          0.7071067811865477 -0.7071067811865472 0.0,
          0.7071067811865477 -0.7071067811865472 0.0,
          0.0 0.0 -1.0,
          0.38268343236508967 -0.9238795325112867 0.0,
          0.38268343236508967 -0.9238795325112867 0.0,
          0.0 0.0 -1.0,
          0.0 -1.0 0.0,
          0.0 -1.0 0.0,
          0.0 0.0 -1.0,
          -0.38268343236508967 -0.9238795325112867 0.0,
          -0.38268343236508967 -0.9238795325112867 0.0,
          0.0 0.0 -1.0,
          -0.7071067811865449 -0.7071067811865501 0.0,
          -0.7071067811865449 -0.7071067811865501 0.0,
          0.0 0.0 -1.0,
          -0.923879532511287 -0.38268343236508934 0.0,
          -0.923879532511287 -0.38268343236508934 0.0,
          0.0 0.0 -1.0,
          -1.0 0.0 0.0,
          -1.0 0.0 0.0,
          0.0 0.0 -1.0,
          -0.9238795325112873 0.3826834323650887 0.0,
          -0.9238795325112873 0.3826834323650887 0.0,
          0.0 0.0 -1.0,
          -0.7071067811865485 0.7071067811865466 0.0,
          -0.7071067811865485 0.7071067811865466 0.0,
          0.0 0.0 -1.0,
          -0.38268343236509306 0.9238795325112854 0.0,
          -0.38268343236509306 0.9238795325112854 0.0,
          0.0 0.0 -1.0,
          1.8819060759970635e-15 1.0 0.0,
          1.8819060759970635e-15 1.0 0.0,
          0.0 0.0 -1.0,
          0.38268343236508984 0.9238795325112866 0.0,
          0.38268343236508984 0.9238795325112866 0.0,
          0.0 0.0 -1.0,
          0.707106781186547 0.707106781186548 -5.675044457659452e-17,
          0.707106781186547 0.707106781186548 -5.675044457659452e-17,
          0.0 0.0 -1.0,
          0.9238795325112886 0.38268343236508545 -7.694050658942141e-17,
          0.9238795325112886 0.38268343236508545 -7.694050658942141e-17 ] }
        normalIndex [
          2, 5, 53, 50, -1,
          0, 45, 42, 39, 36, 33, 30, 27, 24, 21, 18, 15, 12, 9, 6, 3, -1,
          1, 49, 94, 46, -1,
          4, 8, 56, 52, -1,
          7, 11, 59, 55, -1,
          10, 14, 62, 58, -1,
          13, 17, 65, 61, -1,
          16, 20, 68, 64, -1,
          19, 23, 71, 67, -1,
          22, 26, 74, 70, -1,
          25, 29, 77, 73, -1,
          28, 32, 80, 76, -1,
          31, 35, 83, 79, -1,
          34, 38, 86, 82, -1,
          37, 41, 89, 85, -1,
          40, 44, 92, 88, -1,
          43, 47, 95, 91, -1,
          48, 51, 54, 57, 60, 63, 66, 69, 72, 75, 78, 81, 84, 87, 90, 93, -1 ]
      }
    }
  ]
}

DEF cylinder2_copy4 Transform {
  children [
    Shape {
      appearance Appearance {
        material USE pins
      }
      geometry IndexedFaceSet {
        normalPerVertex TRUE
        coord Coordinate { point [
          -5.177 2.01 0.09999999999999998,
          -5.194964430327335 1.9196867099618387 0.09999999999999998,
          -5.246122799639973 1.8431227996399746 0.09999999999999998,
          -5.322686709961837 1.791964430327336 0.09999999999999998,
          -5.412999999999998 1.7739999999999998 0.09999999999999998,
          -5.503313290038158 1.791964430327336 0.09999999999999998,
          -5.579877200360024 1.8431227996399746 0.09999999999999998,
          -5.631035569672663 1.9196867099618387 0.09999999999999998,
          -5.648999999999998 2.01 0.09999999999999998,
          -5.631035569672663 2.100313290038161 0.09999999999999998,
          -5.579877200360024 2.176877200360025 0.09999999999999998,
          -5.50331329003816 2.2280355696726635 0.09999999999999998,
          -5.412999999999998 2.246 0.09999999999999998,
          -5.322686709961837 2.2280355696726635 0.09999999999999998,
          -5.246122799639973 2.176877200360025 0.09999999999999998,
          -5.194964430327335 2.1003132900381614 0.09999999999999998,
          -5.177 2.01 -1.0,
          -5.194964430327335 1.9196867099618387 -1.0,
          -5.246122799639973 1.8431227996399746 -1.0,
          -5.322686709961837 1.791964430327336 -1.0,
          -5.412999999999998 1.7739999999999998 -1.0,
          -5.503313290038158 1.791964430327336 -1.0,
          -5.579877200360024 1.8431227996399746 -1.0,
          -5.631035569672663 1.9196867099618387 -1.0,
          -5.648999999999998 2.01 -1.0,
          -5.631035569672663 2.100313290038161 -1.0,
          -5.579877200360024 2.176877200360025 -1.0,
          -5.50331329003816 2.2280355696726635 -1.0,
          -5.412999999999998 2.246 -1.0,
          -5.322686709961837 2.2280355696726635 -1.0,
          -5.246122799639973 2.176877200360025 -1.0,
          -5.194964430327335 2.100313290038161 -1.0 ] }
        coordIndex [
          0, 1, 17, 16, -1,
          0, 15, 14, 13, 12, 11, 10, 9, 8, 7, 6, 5, 4, 3, 2, 1, -1,
          0, 16, 31, 15, -1,
          1, 2, 18, 17, -1,
          2, 3, 19, 18, -1,
          3, 4, 20, 19, -1,
          4, 5, 21, 20, -1,
          5, 6, 22, 21, -1,
          6, 7, 23, 22, -1,
          7, 8, 24, 23, -1,
          8, 9, 25, 24, -1,
          9, 10, 26, 25, -1,
          10, 11, 27, 26, -1,
          11, 12, 28, 27, -1,
          12, 13, 29, 28, -1,
          13, 14, 30, 29, -1,
          14, 15, 31, 30, -1,
          16, 17, 18, 19, 20, 21, 22, 23, 24, 25, 26, 27, 28, 29, 30, 31, -1 ]
        normal Normal { vector [
          1.0173645540132623e-17 -0.0 1.0,
          1.0 -2.263947159094208e-16 -2.0190062012826834e-17,
          1.0 -2.263947159094208e-16 -2.0190062012826834e-17,
          1.0173645540132623e-17 -0.0 1.0,
          0.92387953251129 -0.38268343236508195 0.0,
          0.92387953251129 -0.38268343236508195 0.0,
          1.0173645540132623e-17 -0.0 1.0,
          0.7071067811865507 -0.7071067811865446 0.0,
          0.7071067811865507 -0.7071067811865446 0.0,
          1.0173645540132623e-17 -0.0 1.0,
          0.38268343236508967 -0.9238795325112867 0.0,
          0.38268343236508967 -0.9238795325112867 0.0,
          1.0173645540132623e-17 -0.0 1.0,
          0.0 -1.0 0.0,
          0.0 -1.0 0.0,
          1.0173645540132623e-17 -0.0 1.0,
          -0.38268343236508473 -0.9238795325112888 0.0,
          -0.38268343236508473 -0.9238795325112888 0.0,
          1.0173645540132623e-17 -0.0 1.0,
          -0.707106781186544 -0.7071067811865511 0.0,
          -0.707106781186544 -0.7071067811865511 0.0,
          1.0173645540132623e-17 -0.0 1.0,
          -0.9238795325112885 -0.3826834323650856 0.0,
          -0.9238795325112885 -0.3826834323650856 0.0,
          1.0173645540132623e-17 -0.0 1.0,
          -1.0 0.0 0.0,
          -1.0 0.0 0.0,
          1.0173645540132623e-17 -0.0 1.0,
          -0.9238795325112887 0.38268343236508495 0.0,
          -0.9238795325112887 0.38268343236508495 0.0,
          1.0173645540132623e-17 -0.0 1.0,
          -0.7071067811865475 0.7071067811865475 0.0,
          -0.7071067811865475 0.7071067811865475 0.0,
          1.0173645540132623e-17 -0.0 1.0,
          -0.3826834323650881 0.9238795325112874 0.0,
          -0.3826834323650881 0.9238795325112874 0.0,
          1.0173645540132623e-17 -0.0 1.0,
          1.8819060759970635e-15 1.0 0.0,
          1.8819060759970635e-15 1.0 0.0,
          1.0173645540132623e-17 -0.0 1.0,
          0.38268343236508984 0.9238795325112866 0.0,
          0.38268343236508984 0.9238795325112866 0.0,
          1.0173645540132623e-17 -0.0 1.0,
          0.7071067811865499 0.7071067811865452 -5.675044457659489e-17,
          0.7071067811865499 0.7071067811865452 -5.675044457659489e-17,
          1.0173645540132623e-17 -0.0 1.0,
          0.92387953251129 0.38268343236508173 -7.694050658942166e-17,
          0.92387953251129 0.38268343236508173 -7.694050658942166e-17,
          0.0 -0.0 -1.0,
          1.0 -2.263947159094208e-16 -2.0190062012826834e-17,
          1.0 -2.263947159094208e-16 -2.0190062012826834e-17,
          0.0 -0.0 -1.0,
          0.92387953251129 -0.38268343236508195 0.0,
          0.92387953251129 -0.38268343236508195 0.0,
          0.0 -0.0 -1.0,
          0.7071067811865507 -0.7071067811865446 0.0,
          0.7071067811865507 -0.7071067811865446 0.0,
          0.0 -0.0 -1.0,
          0.38268343236508967 -0.9238795325112867 0.0,
          0.38268343236508967 -0.9238795325112867 0.0,
          0.0 -0.0 -1.0,
          0.0 -1.0 0.0,
          0.0 -1.0 0.0,
          0.0 -0.0 -1.0,
          -0.38268343236508473 -0.9238795325112888 0.0,
          -0.38268343236508473 -0.9238795325112888 0.0,
          0.0 -0.0 -1.0,
          -0.707106781186544 -0.7071067811865511 0.0,
          -0.707106781186544 -0.7071067811865511 0.0,
          0.0 -0.0 -1.0,
          -0.9238795325112885 -0.3826834323650856 0.0,
          -0.9238795325112885 -0.3826834323650856 0.0,
          0.0 -0.0 -1.0,
          -1.0 0.0 0.0,
          -1.0 0.0 0.0,
          0.0 -0.0 -1.0,
          -0.9238795325112887 0.38268343236508495 0.0,
          -0.9238795325112887 0.38268343236508495 0.0,
          0.0 -0.0 -1.0,
          -0.7071067811865475 0.7071067811865475 0.0,
          -0.7071067811865475 0.7071067811865475 0.0,
          0.0 -0.0 -1.0,
          -0.3826834323650881 0.9238795325112874 0.0,
          -0.3826834323650881 0.9238795325112874 0.0,
          0.0 -0.0 -1.0,
          1.8819060759970635e-15 1.0 0.0,
          1.8819060759970635e-15 1.0 0.0,
          0.0 -0.0 -1.0,
          0.38268343236508984 0.9238795325112866 0.0,
          0.38268343236508984 0.9238795325112866 0.0,
          0.0 -0.0 -1.0,
          0.7071067811865499 0.7071067811865452 -5.675044457659489e-17,
          0.7071067811865499 0.7071067811865452 -5.675044457659489e-17,
          0.0 -0.0 -1.0,
          0.92387953251129 0.38268343236508173 -7.694050658942166e-17,
          0.92387953251129 0.38268343236508173 -7.694050658942166e-17 ] }
        normalIndex [
          2, 5, 53, 50, -1,
          0, 45, 42, 39, 36, 33, 30, 27, 24, 21, 18, 15, 12, 9, 6, 3, -1,
          1, 49, 94, 46, -1,
          4, 8, 56, 52, -1,
          7, 11, 59, 55, -1,
          10, 14, 62, 58, -1,
          13, 17, 65, 61, -1,
          16, 20, 68, 64, -1,
          19, 23, 71, 67, -1,
          22, 26, 74, 70, -1,
          25, 29, 77, 73, -1,
          28, 32, 80, 76, -1,
          31, 35, 83, 79, -1,
          34, 38, 86, 82, -1,
          37, 41, 89, 85, -1,
          40, 44, 92, 88, -1,
          43, 47, 95, 91, -1,
          48, 51, 54, 57, 60, 63, 66, 69, 72, 75, 78, 81, 84, 87, 90, 93, -1 ]
      }
    }
  ]
}

DEF cylinder2_copy3 Transform {
  children [
    Shape {
      appearance Appearance {
        material USE pins
      }
      geometry IndexedFaceSet {
        normalPerVertex TRUE
        coord Coordinate { point [
          5.648999999999999 -2.01 0.09999999999999998,
          5.6310355696726635 -2.100313290038161 0.09999999999999998,
          5.579877200360025 -2.1768772003600247 0.09999999999999998,
          5.503313290038161 -2.2280355696726635 0.09999999999999998,
          5.413 -2.2459999999999996 0.09999999999999998,
          5.32268670996184 -2.2280355696726635 0.09999999999999998,
          5.246122799639975 -2.176877200360025 0.09999999999999998,
          5.194964430327336 -2.100313290038161 0.09999999999999998,
          5.1770000000000005 -2.01 0.09999999999999998,
          5.194964430327336 -1.9196867099618387 0.09999999999999998,
          5.246122799639975 -1.8431227996399746 0.09999999999999998,
          5.322686709961838 -1.791964430327336 0.09999999999999998,
          5.413 -1.7739999999999998 0.09999999999999998,
          5.503313290038161 -1.791964430327336 0.09999999999999998,
          5.579877200360025 -1.8431227996399744 0.09999999999999998,
          5.6310355696726635 -1.9196867099618384 0.09999999999999998,
          5.648999999999999 -2.01 -1.0,
          5.6310355696726635 -2.100313290038161 -1.0,
          5.579877200360025 -2.176877200360025 -1.0,
          5.503313290038161 -2.2280355696726635 -1.0,
          5.413 -2.2459999999999996 -1.0,
          5.32268670996184 -2.2280355696726635 -1.0,
          5.246122799639975 -2.176877200360025 -1.0,
          5.194964430327336 -2.100313290038161 -1.0,
          5.1770000000000005 -2.01 -1.0,
          5.194964430327336 -1.9196867099618387 -1.0,
          5.246122799639975 -1.8431227996399746 -1.0,
          5.322686709961838 -1.791964430327336 -1.0,
          5.413 -1.7739999999999998 -1.0,
          5.503313290038161 -1.791964430327336 -1.0,
          5.579877200360025 -1.8431227996399746 -1.0,
          5.6310355696726635 -1.9196867099618384 -1.0 ] }
        coordIndex [
          0, 1, 17, 16, -1,
          0, 15, 14, 13, 12, 11, 10, 9, 8, 7, 6, 5, 4, 3, 2, 1, -1,
          0, 16, 31, 15, -1,
          1, 2, 18, 17, -1,
          2, 3, 19, 18, -1,
          3, 4, 20, 19, -1,
          4, 5, 21, 20, -1,
          5, 6, 22, 21, -1,
          6, 7, 23, 22, -1,
          7, 8, 24, 23, -1,
          8, 9, 25, 24, -1,
          9, 10, 26, 25, -1,
          10, 11, 27, 26, -1,
          11, 12, 28, 27, -1,
          12, 13, 29, 28, -1,
          13, 14, 30, 29, -1,
          14, 15, 31, 30, -1,
          16, 17, 18, 19, 20, 21, 22, 23, 24, 25, 26, 27, 28, 29, 30, 31, -1 ]
        normal Normal { vector [
          2.0347291080265296e-17 0.0 1.0,
          1.0 -2.263947159094208e-16 0.0,
          1.0 -2.263947159094208e-16 0.0,
          2.0347291080265296e-17 0.0 1.0,
          0.9238795325112885 -0.3826834323650856 5.675044457659453e-17,
          0.9238795325112885 -0.3826834323650856 5.675044457659453e-17,
          2.0347291080265296e-17 0.0 1.0,
          0.7071067811865477 -0.7071067811865472 1.440588208482781e-16,
          0.7071067811865477 -0.7071067811865472 1.440588208482781e-16,
          2.0347291080265296e-17 0.0 1.0,
          0.38268343236508856 -0.9238795325112872 8.730837627168355e-17,
          0.38268343236508856 -0.9238795325112872 8.730837627168355e-17,
          2.0347291080265296e-17 0.0 1.0,
          0.0 -1.0 0.0,
          0.0 -1.0 0.0,
          2.0347291080265296e-17 0.0 1.0,
          -0.3826834323650877 -0.9238795325112876 0.0,
          -0.3826834323650877 -0.9238795325112876 0.0,
          2.0347291080265296e-17 0.0 1.0,
          -0.7071067811865447 -0.7071067811865503 0.0,
          -0.7071067811865447 -0.7071067811865503 0.0,
          2.0347291080265296e-17 0.0 1.0,
          -0.9238795325112873 -0.3826834323650887 0.0,
          -0.9238795325112873 -0.3826834323650887 0.0,
          2.0347291080265296e-17 0.0 1.0,
          -1.0 0.0 0.0,
          -1.0 0.0 0.0,
          2.0347291080265296e-17 0.0 1.0,
          -0.923879532511287 0.38268343236508934 0.0,
          -0.923879532511287 0.38268343236508934 0.0,
          2.0347291080265296e-17 0.0 1.0,
          -0.7071067811865487 0.7071067811865464 0.0,
          -0.7071067811865487 0.7071067811865464 0.0,
          2.0347291080265296e-17 0.0 1.0,
          -0.3826834323650929 0.9238795325112855 0.0,
          -0.3826834323650929 0.9238795325112855 0.0,
          2.0347291080265296e-17 0.0 1.0,
          1.8960557457414013e-15 1.0 0.0,
          1.8960557457414013e-15 1.0 0.0,
          2.0347291080265296e-17 0.0 1.0,
          0.38268343236508917 0.923879532511287 -4.365418813584179e-17,
          0.38268343236508917 0.923879532511287 -4.365418813584179e-17,
          2.0347291080265296e-17 0.0 1.0,
          0.7071067811865471 0.7071067811865478 -7.202941042413911e-17,
          0.7071067811865471 0.7071067811865478 -7.202941042413911e-17,
          2.0347291080265296e-17 0.0 1.0,
          0.9238795325112885 0.38268343236508573 -2.8375222288297296e-17,
          0.9238795325112885 0.38268343236508573 -2.8375222288297296e-17,
          0.0 0.0 -1.0,
          1.0 -2.263947159094208e-16 0.0,
          1.0 -2.263947159094208e-16 0.0,
          0.0 0.0 -1.0,
          0.9238795325112885 -0.3826834323650856 5.675044457659453e-17,
          0.9238795325112885 -0.3826834323650856 5.675044457659453e-17,
          0.0 0.0 -1.0,
          0.7071067811865477 -0.7071067811865472 1.440588208482781e-16,
          0.7071067811865477 -0.7071067811865472 1.440588208482781e-16,
          0.0 0.0 -1.0,
          0.38268343236508856 -0.9238795325112872 8.730837627168355e-17,
          0.38268343236508856 -0.9238795325112872 8.730837627168355e-17,
          0.0 0.0 -1.0,
          0.0 -1.0 0.0,
          0.0 -1.0 0.0,
          0.0 0.0 -1.0,
          -0.3826834323650877 -0.9238795325112876 0.0,
          -0.3826834323650877 -0.9238795325112876 0.0,
          0.0 0.0 -1.0,
          -0.7071067811865447 -0.7071067811865503 0.0,
          -0.7071067811865447 -0.7071067811865503 0.0,
          0.0 0.0 -1.0,
          -0.9238795325112873 -0.3826834323650887 0.0,
          -0.9238795325112873 -0.3826834323650887 0.0,
          0.0 0.0 -1.0,
          -1.0 0.0 0.0,
          -1.0 0.0 0.0,
          0.0 0.0 -1.0,
          -0.923879532511287 0.38268343236508934 0.0,
          -0.923879532511287 0.38268343236508934 0.0,
          0.0 0.0 -1.0,
          -0.7071067811865487 0.7071067811865464 0.0,
          -0.7071067811865487 0.7071067811865464 0.0,
          0.0 0.0 -1.0,
          -0.3826834323650929 0.9238795325112855 0.0,
          -0.3826834323650929 0.9238795325112855 0.0,
          0.0 0.0 -1.0,
          1.8960557457414013e-15 1.0 0.0,
          1.8960557457414013e-15 1.0 0.0,
          0.0 0.0 -1.0,
          0.38268343236508917 0.923879532511287 -4.365418813584179e-17,
          0.38268343236508917 0.923879532511287 -4.365418813584179e-17,
          0.0 0.0 -1.0,
          0.7071067811865471 0.7071067811865478 -7.202941042413911e-17,
          0.7071067811865471 0.7071067811865478 -7.202941042413911e-17,
          0.0 0.0 -1.0,
          0.9238795325112885 0.38268343236508573 -2.8375222288297296e-17,
          0.9238795325112885 0.38268343236508573 -2.8375222288297296e-17 ] }
        normalIndex [
          2, 5, 53, 50, -1,
          0, 45, 42, 39, 36, 33, 30, 27, 24, 21, 18, 15, 12, 9, 6, 3, -1,
          1, 49, 94, 46, -1,
          4, 8, 56, 52, -1,
          7, 11, 59, 55, -1,
          10, 14, 62, 58, -1,
          13, 17, 65, 61, -1,
          16, 20, 68, 64, -1,
          19, 23, 71, 67, -1,
          22, 26, 74, 70, -1,
          25, 29, 77, 73, -1,
          28, 32, 80, 76, -1,
          31, 35, 83, 79, -1,
          34, 38, 86, 82, -1,
          37, 41, 89, 85, -1,
          40, 44, 92, 88, -1,
          43, 47, 95, 91, -1,
          48, 51, 54, 57, 60, 63, 66, 69, 72, 75, 78, 81, 84, 87, 90, 93, -1 ]
      }
    }
  ]
}

DEF cylinder2 Transform {
  children [
    Shape {
      appearance Appearance {
        material USE pins
      }
      geometry IndexedFaceSet {
        normalPerVertex TRUE
        coord Coordinate { point [
          -5.177 -2.01 0.09999999999999998,
          -5.194964430327335 -2.100313290038161 0.09999999999999998,
          -5.246122799639973 -2.1768772003600247 0.09999999999999998,
          -5.322686709961837 -2.2280355696726635 0.09999999999999998,
          -5.412999999999998 -2.2459999999999996 0.09999999999999998,
          -5.503313290038158 -2.2280355696726635 0.09999999999999998,
          -5.579877200360024 -2.176877200360025 0.09999999999999998,
          -5.631035569672663 -2.100313290038161 0.09999999999999998,
          -5.648999999999998 -2.01 0.09999999999999998,
          -5.631035569672663 -1.9196867099618387 0.09999999999999998,
          -5.579877200360024 -1.8431227996399746 0.09999999999999998,
          -5.50331329003816 -1.791964430327336 0.09999999999999998,
          -5.412999999999998 -1.7739999999999998 0.09999999999999998,
          -5.322686709961837 -1.791964430327336 0.09999999999999998,
          -5.246122799639973 -1.8431227996399744 0.09999999999999998,
          -5.194964430327335 -1.9196867099618384 0.09999999999999998,
          -5.177 -2.01 -1.0,
          -5.194964430327335 -2.100313290038161 -1.0,
          -5.246122799639973 -2.176877200360025 -1.0,
          -5.322686709961837 -2.2280355696726635 -1.0,
          -5.412999999999998 -2.2459999999999996 -1.0,
          -5.503313290038158 -2.2280355696726635 -1.0,
          -5.579877200360024 -2.176877200360025 -1.0,
          -5.631035569672663 -2.100313290038161 -1.0,
          -5.648999999999998 -2.01 -1.0,
          -5.631035569672663 -1.9196867099618387 -1.0,
          -5.579877200360024 -1.8431227996399746 -1.0,
          -5.50331329003816 -1.791964430327336 -1.0,
          -5.412999999999998 -1.7739999999999998 -1.0,
          -5.322686709961837 -1.791964430327336 -1.0,
          -5.246122799639973 -1.8431227996399746 -1.0,
          -5.194964430327335 -1.9196867099618384 -1.0 ] }
        coordIndex [
          0, 1, 17, 16, -1,
          0, 15, 14, 13, 12, 11, 10, 9, 8, 7, 6, 5, 4, 3, 2, 1, -1,
          0, 16, 31, 15, -1,
          1, 2, 18, 17, -1,
          2, 3, 19, 18, -1,
          3, 4, 20, 19, -1,
          4, 5, 21, 20, -1,
          5, 6, 22, 21, -1,
          6, 7, 23, 22, -1,
          7, 8, 24, 23, -1,
          8, 9, 25, 24, -1,
          9, 10, 26, 25, -1,
          10, 11, 27, 26, -1,
          11, 12, 28, 27, -1,
          12, 13, 29, 28, -1,
          13, 14, 30, 29, -1,
          14, 15, 31, 30, -1,
          16, 17, 18, 19, 20, 21, 22, 23, 24, 25, 26, 27, 28, 29, 30, 31, -1 ]
        normal Normal { vector [
          2.0347291080265274e-17 -0.0 1.0,
          1.0 -2.263947159094208e-16 0.0,
          1.0 -2.263947159094208e-16 0.0,
          2.0347291080265274e-17 -0.0 1.0,
          0.92387953251129 -0.38268343236508195 5.67504445765948e-17,
          0.92387953251129 -0.38268343236508195 5.67504445765948e-17,
          2.0347291080265274e-17 -0.0 1.0,
          0.7071067811865507 -0.7071067811865446 1.4405882084827853e-16,
          0.7071067811865507 -0.7071067811865446 1.4405882084827853e-16,
          2.0347291080265274e-17 -0.0 1.0,
          0.38268343236508856 -0.9238795325112872 8.730837627168355e-17,
          0.38268343236508856 -0.9238795325112872 8.730837627168355e-17,
          2.0347291080265274e-17 -0.0 1.0,
          0.0 -1.0 0.0,
          0.0 -1.0 0.0,
          2.0347291080265274e-17 -0.0 1.0,
          -0.3826834323650827 -0.9238795325112896 0.0,
          -0.3826834323650827 -0.9238795325112896 0.0,
          2.0347291080265274e-17 -0.0 1.0,
          -0.7071067811865438 -0.7071067811865512 0.0,
          -0.7071067811865438 -0.7071067811865512 0.0,
          2.0347291080265274e-17 -0.0 1.0,
          -0.9238795325112887 -0.38268343236508495 0.0,
          -0.9238795325112887 -0.38268343236508495 0.0,
          2.0347291080265274e-17 -0.0 1.0,
          -1.0 0.0 0.0,
          -1.0 0.0 0.0,
          2.0347291080265274e-17 -0.0 1.0,
          -0.9238795325112885 0.3826834323650856 0.0,
          -0.9238795325112885 0.3826834323650856 0.0,
          2.0347291080265274e-17 -0.0 1.0,
          -0.7071067811865477 0.7071067811865472 0.0,
          -0.7071067811865477 0.7071067811865472 0.0,
          2.0347291080265274e-17 -0.0 1.0,
          -0.3826834323650879 0.9238795325112875 0.0,
          -0.3826834323650879 0.9238795325112875 0.0,
          2.0347291080265274e-17 -0.0 1.0,
          1.8960557457414013e-15 1.0 0.0,
          1.8960557457414013e-15 1.0 0.0,
          2.0347291080265274e-17 -0.0 1.0,
          0.38268343236508917 0.923879532511287 -4.365418813584179e-17,
          0.38268343236508917 0.923879532511287 -4.365418813584179e-17,
          2.0347291080265274e-17 -0.0 1.0,
          0.70710678118655 0.7071067811865451 -7.202941042413933e-17,
          0.70710678118655 0.7071067811865451 -7.202941042413933e-17,
          2.0347291080265274e-17 -0.0 1.0,
          0.9238795325112898 0.382683432365082 -2.837522228829742e-17,
          0.9238795325112898 0.382683432365082 -2.837522228829742e-17,
          0.0 -0.0 -1.0,
          1.0 -2.263947159094208e-16 0.0,
          1.0 -2.263947159094208e-16 0.0,
          0.0 -0.0 -1.0,
          0.92387953251129 -0.38268343236508195 5.67504445765948e-17,
          0.92387953251129 -0.38268343236508195 5.67504445765948e-17,
          0.0 -0.0 -1.0,
          0.7071067811865507 -0.7071067811865446 1.4405882084827853e-16,
          0.7071067811865507 -0.7071067811865446 1.4405882084827853e-16,
          0.0 -0.0 -1.0,
          0.38268343236508856 -0.9238795325112872 8.730837627168355e-17,
          0.38268343236508856 -0.9238795325112872 8.730837627168355e-17,
          0.0 -0.0 -1.0,
          0.0 -1.0 0.0,
          0.0 -1.0 0.0,
          0.0 -0.0 -1.0,
          -0.3826834323650827 -0.9238795325112896 0.0,
          -0.3826834323650827 -0.9238795325112896 0.0,
          0.0 -0.0 -1.0,
          -0.7071067811865438 -0.7071067811865512 0.0,
          -0.7071067811865438 -0.7071067811865512 0.0,
          0.0 -0.0 -1.0,
          -0.9238795325112887 -0.38268343236508495 0.0,
          -0.9238795325112887 -0.38268343236508495 0.0,
          0.0 -0.0 -1.0,
          -1.0 0.0 0.0,
          -1.0 0.0 0.0,
          0.0 -0.0 -1.0,
          -0.9238795325112885 0.3826834323650856 0.0,
          -0.9238795325112885 0.3826834323650856 0.0,
          0.0 -0.0 -1.0,
          -0.7071067811865477 0.7071067811865472 0.0,
          -0.7071067811865477 0.7071067811865472 0.0,
          0.0 -0.0 -1.0,
          -0.3826834323650879 0.9238795325112875 0.0,
          -0.3826834323650879 0.9238795325112875 0.0,
          0.0 -0.0 -1.0,
          1.8960557457414013e-15 1.0 0.0,
          1.8960557457414013e-15 1.0 0.0,
          0.0 -0.0 -1.0,
          0.38268343236508917 0.923879532511287 -4.365418813584179e-17,
          0.38268343236508917 0.923879532511287 -4.365418813584179e-17,
          0.0 -0.0 -1.0,
          0.70710678118655 0.7071067811865451 -7.202941042413933e-17,
          0.70710678118655 0.7071067811865451 -7.202941042413933e-17,
          0.0 -0.0 -1.0,
          0.9238795325112898 0.382683432365082 -2.837522228829742e-17,
          0.9238795325112898 0.382683432365082 -2.837522228829742e-17 ] }
        normalIndex [
          2, 5, 53, 50, -1,
          0, 45, 42, 39, 36, 33, 30, 27, 24, 21, 18, 15, 12, 9, 6, 3, -1,
          1, 49, 94, 46, -1,
          4, 8, 56, 52, -1,
          7, 11, 59, 55, -1,
          10, 14, 62, 58, -1,
          13, 17, 65, 61, -1,
          16, 20, 68, 64, -1,
          19, 23, 71, 67, -1,
          22, 26, 74, 70, -1,
          25, 29, 77, 73, -1,
          28, 32, 80, 76, -1,
          31, 35, 83, 79, -1,
          34, 38, 86, 82, -1,
          37, 41, 89, 85, -1,
          40, 44, 92, 88, -1,
          43, 47, 95, 91, -1,
          48, 51, 54, 57, 60, 63, 66, 69, 72, 75, 78, 81, 84, 87, 90, 93, -1 ]
      }
    }
  ]
}

DEF cube1 Transform {
  children [
    Shape {
      appearance Appearance {
        material DEF plastic Material {
          diffuseColor 0.0 0.5019607843137255 0.7529411764705882
          emissiveColor 0.0 0.0 0.0
          specularColor 0.1 0.1 0.1
          ambientIntensity 1.0
          transparency 0.0
          shininess 0.0
        }
      }
      geometry IndexedFaceSet {
        normalPerVertex TRUE
        coord Coordinate { point [
          -6.299999999999998 -3.545 12.989999999999998,
          -6.299999999999998 3.545000000000001 12.989999999999998,
          6.3 3.545000000000001 12.989999999999998,
          6.3 -3.545 12.989999999999998,
          -6.299999999999998 -3.545 0.0,
          -6.299999999999998 3.545000000000001 0.0,
          6.3 3.545000000000001 0.0,
          6.3 -3.545 0.0,
          -6.132499999999999 -3.3775 0.0,
          -6.132499999999999 3.3775000000000004 0.0,
          6.132499999999999 3.3775000000000004 0.0,
          6.132499999999999 -3.3775 0.0,
          -6.132484924999999 -3.3774849249999996 0.1,
          -6.132484924999999 3.377484925 0.1,
          6.132484925 3.377484925 0.1,
          6.132484925 -3.3774849249999996 0.1 ] }
        coordIndex [
          0, 1, 5, 4, -1,
          0, 3, 2, 1, -1,
          0, 4, 7, 3, -1,
          1, 2, 6, 5, -1,
          2, 3, 7, 6, -1,
          4, 5, 9, 8, -1,
          4, 8, 11, 7, -1,
          5, 6, 10, 9, -1,
          6, 7, 11, 10, -1,
          8, 9, 13, 12, -1,
          8, 12, 15, 11, -1,
          9, 10, 14, 13, -1,
          10, 11, 15, 14, -1 ]
        normal Normal { vector [
          0.0 0.0 1.0,
          0.0 -1.0 0.0,
          -1.0 0.0 0.0,
          0.0 0.0 1.0,
          0.0 1.0 -0.0,
          -1.0 0.0 0.0,
          0.0 0.0 1.0,
          1.0 0.0 -0.0,
          0.0 1.0 -0.0,
          0.0 0.0 1.0,
          1.0 0.0 -0.0,
          0.0 -1.0 0.0,
          0.0 -1.0 0.0,
          -1.0 0.0 0.0,
          -0.0 0.0 -1.0,
          0.0 -0.0 -1.0,
          0.0 1.0 -0.0,
          -1.0 0.0 0.0,
          -0.0 0.0 -1.0,
          0.0 0.0 -1.0,
          1.0 0.0 -0.0,
          0.0 1.0 -0.0,
          0.0 0.0 -1.0,
          0.0 0.0 -1.0,
          1.0 0.0 -0.0,
          0.0 -1.0 0.0,
          0.0 0.0 -1.0,
          0.0 -0.0 -1.0,
          -0.0 0.0 -1.0,
          0.0 -0.0 -1.0,
          0.999999988637219 0.0 -1.507499982901467e-4,
          0.0 0.999999988637219 -1.5074999829014664e-4,
          -0.0 0.0 -1.0,
          0.0 0.0 -1.0,
          0.999999988637219 0.0 -1.507499982901467e-4,
          0.0 -0.999999988637219 -1.5074999829014664e-4,
          0.0 0.0 -1.0,
          0.0 0.0 -1.0,
          0.0 -0.999999988637219 -1.5074999829014664e-4,
          -0.999999988637219 0.0 -1.5074999828126488e-4,
          0.0 0.0 -1.0,
          0.0 -0.0 -1.0,
          -0.999999988637219 0.0 -1.5074999828126488e-4,
          0.0 0.999999988637219 -1.5074999829014664e-4,
          0.999999988637219 0.0 -1.507499982901467e-4,
          0.0 0.999999988637219 -1.5074999829014664e-4,
          0.999999988637219 0.0 -1.507499982901467e-4,
          0.0 -0.999999988637219 -1.5074999829014664e-4,
          0.0 -0.999999988637219 -1.5074999829014664e-4,
          -0.999999988637219 0.0 -1.5074999828126488e-4,
          -0.999999988637219 0.0 -1.5074999828126488e-4,
          0.0 0.999999988637219 -1.5074999829014664e-4 ] }
        normalIndex [
          2, 5, 17, 13, -1,
          0, 9, 6, 3, -1,
          1, 12, 25, 11, -1,
          4, 8, 21, 16, -1,
          7, 10, 24, 20, -1,
          14, 18, 32, 28, -1,
          15, 29, 41, 27, -1,
          19, 22, 36, 33, -1,
          23, 26, 40, 37, -1,
          30, 34, 46, 44, -1,
          31, 45, 51, 43, -1,
          35, 38, 48, 47, -1,
          39, 42, 50, 49, -1 ]
      }
    },
    Shape {
      appearance Appearance {
        material DEF resin Material {
          diffuseColor 0.9450980392156862 0.9450980392156862 0.8274509803921568
          emissiveColor 0.0 0.0 0.0
          specularColor 0.1 0.1 0.1
          ambientIntensity 1.0
          transparency 0.0
          shininess 0.0
        }
      }
      geometry IndexedFaceSet {
        normalPerVertex TRUE
        coord Coordinate { point [
          -6.132484924999999 -3.3774849249999996 0.1,
          -6.132484924999999 3.377484925 0.1,
          6.132484925 3.377484925 0.1,
          6.132484925 -3.3774849249999996 0.1 ] }
        coordIndex [
          0, 1, 2, 3, -1 ]
        normal Normal { vector [
          -0.0 0.0 -1.0,
          -0.0 0.0 -1.0,
          -0.0 0.0 -1.0,
          -0.0 0.0 -1.0 ] }
        normalIndex [
          0, 1, 2, 3, -1 ]
      }
    }
  ]
}

