#VRML V2.0 utf8
#Exported from Wings 3D 2.2.9
DEF cylinder2_copy3 Transform {
  children [
    Shape {
      appearance Appearance {
        material DEF pins Material {
          diffuseColor 0.6 0.6 0.6
          emissiveColor 0.0 0.0 0.0
          specularColor 0.5999999905136262 0.5999999905136262 0.5999999905136262
          ambientIntensity 1.0
          transparency 0.0
          shininess 0.5
        }
      }
      geometry IndexedFaceSet {
        normalPerVertex TRUE
        coord Coordinate { point [
          5.648999999999999 3.138095321241172e-17 0.09999999999999998,
          5.6310355696726635 -0.09031329003816116 0.09999999999999998,
          5.579877200360025 -0.16687720036002515 0.09999999999999998,
          5.503313290038161 -0.2180355696726636 0.09999999999999998,
          5.413 -0.23599999999999996 0.09999999999999998,
          5.32268670996184 -0.2180355696726636 0.09999999999999998,
          5.246122799639975 -0.1668772003600252 0.09999999999999998,
          5.194964430327336 -0.0903132900381612 0.09999999999999998,
          5.1770000000000005 2.4802432622036175e-18 0.09999999999999998,
          5.194964430327336 0.0903132900381612 0.09999999999999998,
          5.246122799639975 0.16687720036002526 0.09999999999999998,
          5.322686709961838 0.21803556967266366 0.09999999999999998,
          5.413 0.23600000000000007 0.09999999999999998,
          5.503313290038161 0.21803556967266371 0.09999999999999998,
          5.579877200360025 0.1668772003600253 0.09999999999999998,
          5.6310355696726635 0.09031329003816137 0.09999999999999998,
          5.648999999999999 2.4802432622036175e-18 -1.0,
          5.6310355696726635 -0.0903132900381612 -1.0,
          5.579877200360025 -0.16687720036002524 -1.0,
          5.503313290038161 -0.2180355696726637 -1.0,
          5.413 -0.236 -1.0,
          5.32268670996184 -0.2180355696726637 -1.0,
          5.246122799639975 -0.16687720036002524 -1.0,
          5.194964430327336 -0.09031329003816121 -1.0,
          5.1770000000000005 -2.642046668800448e-17 -1.0,
          5.194964430327336 0.09031329003816116 -1.0,
          5.246122799639975 0.1668772003600252 -1.0,
          5.322686709961838 0.21803556967266363 -1.0,
          5.413 0.23600000000000002 -1.0,
          5.503313290038161 0.21803556967266366 -1.0,
          5.579877200360025 0.16687720036002526 -1.0,
          5.6310355696726635 0.09031329003816134 -1.0 ] }
        coordIndex [
          0, 1, 17, 16, -1,
          0, 15, 14, 13, 12, 11, 10, 9, 8, 7, 6, 5, 4, 3, 2, 1, -1,
          0, 16, 31, 15, -1,
          1, 2, 18, 17, -1,
          2, 3, 19, 18, -1,
          3, 4, 20, 19, -1,
          4, 5, 21, 20, -1,
          5, 6, 22, 21, -1,
          6, 7, 23, 22, -1,
          7, 8, 24, 23, -1,
          8, 9, 25, 24, -1,
          9, 10, 26, 25, -1,
          10, 11, 27, 26, -1,
          11, 12, 28, 27, -1,
          12, 13, 29, 28, -1,
          13, 14, 30, 29, -1,
          14, 15, 31, 30, -1,
          16, 17, 18, 19, 20, 21, 22, 23, 24, 25, 26, 27, 28, 29, 30, 31, -1 ]
        normal Normal { vector [
          -3.052093662039797e-17 0.0 1.0,
          1.0 -1.41496697443388e-16 1.0913547033960496e-18,
          1.0 -1.41496697443388e-16 1.0913547033960496e-18,
          -3.052093662039797e-17 0.0 1.0,
          0.9238795325112885 -0.38268343236508573 1.8553029957732836e-17,
          0.9238795325112885 -0.38268343236508573 1.8553029957732836e-17,
          -3.052093662039797e-17 0.0 1.0,
          0.7071067811865475 -0.7071067811865475 4.583689754263394e-17,
          0.7071067811865475 -0.7071067811865475 4.583689754263394e-17,
          -3.052093662039797e-17 0.0 1.0,
          0.38268343236508956 -0.9238795325112868 5.565908987319845e-17,
          0.38268343236508956 -0.9238795325112868 5.565908987319845e-17,
          -3.052093662039797e-17 0.0 1.0,
          0.0 -1.0 5.020231635621844e-17,
          0.0 -1.0 5.020231635621844e-17,
          -3.052093662039797e-17 0.0 1.0,
          -0.38268343236508945 -0.9238795325112868 4.6928252246030095e-17,
          -0.38268343236508945 -0.9238795325112868 4.6928252246030095e-17,
          -3.052093662039797e-17 0.0 1.0,
          -0.7071067811865446 -0.7071067811865505 2.837522228829714e-17,
          -0.7071067811865446 -0.7071067811865505 2.837522228829714e-17,
          -3.052093662039797e-17 0.0 1.0,
          -0.923879532511287 -0.38268343236508934 8.730837627168365e-18,
          -0.923879532511287 -0.38268343236508934 8.730837627168365e-18,
          -3.052093662039797e-17 0.0 1.0,
          -1.0 0.0 -1.091354703396047e-18,
          -1.0 0.0 -1.091354703396047e-18,
          -3.052093662039797e-17 0.0 1.0,
          -0.9238795325112871 0.3826834323650893 -1.6370320550940674e-17,
          -0.9238795325112871 0.3826834323650893 -1.6370320550940674e-17,
          -3.052093662039797e-17 0.0 1.0,
          -0.7071067811865485 0.7071067811865466 -2.837522228829733e-17,
          -0.7071067811865485 0.7071067811865466 -2.837522228829733e-17,
          -3.052093662039797e-17 0.0 1.0,
          -0.38268343236509295 0.9238795325112855 -3.383199580527746e-17,
          -0.38268343236509295 0.9238795325112855 -3.383199580527746e-17,
          -3.052093662039797e-17 0.0 1.0,
          1.6555113600876422e-15 1.0 -4.419986548753979e-17,
          1.6555113600876422e-15 1.0 -4.419986548753979e-17,
          -3.052093662039797e-17 0.0 1.0,
          0.3826834323650895 0.9238795325112868 -4.092580137735186e-17,
          0.3826834323650895 0.9238795325112868 -4.092580137735186e-17,
          -3.052093662039797e-17 0.0 1.0,
          0.707106781186547 0.7071067811865479 -2.400980347471303e-17,
          0.707106781186547 0.7071067811865479 -2.400980347471303e-17,
          -3.052093662039797e-17 0.0 1.0,
          0.9238795325112884 0.38268343236508584 -1.0913547033960496e-17,
          0.9238795325112884 0.38268343236508584 -1.0913547033960496e-17,
          0.0 0.0 -1.0,
          1.0 -1.41496697443388e-16 1.0913547033960496e-18,
          1.0 -1.41496697443388e-16 1.0913547033960496e-18,
          0.0 0.0 -1.0,
          0.9238795325112885 -0.38268343236508573 1.8553029957732836e-17,
          0.9238795325112885 -0.38268343236508573 1.8553029957732836e-17,
          0.0 0.0 -1.0,
          0.7071067811865475 -0.7071067811865475 4.583689754263394e-17,
          0.7071067811865475 -0.7071067811865475 4.583689754263394e-17,
          0.0 0.0 -1.0,
          0.38268343236508956 -0.9238795325112868 5.565908987319845e-17,
          0.38268343236508956 -0.9238795325112868 5.565908987319845e-17,
          0.0 0.0 -1.0,
          0.0 -1.0 5.020231635621844e-17,
          0.0 -1.0 5.020231635621844e-17,
          0.0 0.0 -1.0,
          -0.38268343236508945 -0.9238795325112868 4.6928252246030095e-17,
          -0.38268343236508945 -0.9238795325112868 4.6928252246030095e-17,
          0.0 0.0 -1.0,
          -0.7071067811865446 -0.7071067811865505 2.837522228829714e-17,
          -0.7071067811865446 -0.7071067811865505 2.837522228829714e-17,
          0.0 0.0 -1.0,
          -0.923879532511287 -0.38268343236508934 8.730837627168365e-18,
          -0.923879532511287 -0.38268343236508934 8.730837627168365e-18,
          0.0 0.0 -1.0,
          -1.0 0.0 -1.091354703396047e-18,
          -1.0 0.0 -1.091354703396047e-18,
          0.0 0.0 -1.0,
          -0.9238795325112871 0.3826834323650893 -1.6370320550940674e-17,
          -0.9238795325112871 0.3826834323650893 -1.6370320550940674e-17,
          0.0 0.0 -1.0,
          -0.7071067811865485 0.7071067811865466 -2.837522228829733e-17,
          -0.7071067811865485 0.7071067811865466 -2.837522228829733e-17,
          0.0 0.0 -1.0,
          -0.38268343236509295 0.9238795325112855 -3.383199580527746e-17,
          -0.38268343236509295 0.9238795325112855 -3.383199580527746e-17,
          0.0 0.0 -1.0,
          1.6555113600876422e-15 1.0 -4.419986548753979e-17,
          1.6555113600876422e-15 1.0 -4.419986548753979e-17,
          0.0 0.0 -1.0,
          0.3826834323650895 0.9238795325112868 -4.092580137735186e-17,
          0.3826834323650895 0.9238795325112868 -4.092580137735186e-17,
          0.0 0.0 -1.0,
          0.707106781186547 0.7071067811865479 -2.400980347471303e-17,
          0.707106781186547 0.7071067811865479 -2.400980347471303e-17,
          0.0 0.0 -1.0,
          0.9238795325112884 0.38268343236508584 -1.0913547033960496e-17,
          0.9238795325112884 0.38268343236508584 -1.0913547033960496e-17 ] }
        normalIndex [
          2, 5, 53, 50, -1,
          0, 45, 42, 39, 36, 33, 30, 27, 24, 21, 18, 15, 12, 9, 6, 3, -1,
          1, 49, 94, 46, -1,
          4, 8, 56, 52, -1,
          7, 11, 59, 55, -1,
          10, 14, 62, 58, -1,
          13, 17, 65, 61, -1,
          16, 20, 68, 64, -1,
          19, 23, 71, 67, -1,
          22, 26, 74, 70, -1,
          25, 29, 77, 73, -1,
          28, 32, 80, 76, -1,
          31, 35, 83, 79, -1,
          34, 38, 86, 82, -1,
          37, 41, 89, 85, -1,
          40, 44, 92, 88, -1,
          43, 47, 95, 91, -1,
          48, 51, 54, 57, 60, 63, 66, 69, 72, 75, 78, 81, 84, 87, 90, 93, -1 ]
      }
    }
  ]
}

DEF cylinder2 Transform {
  children [
    Shape {
      appearance Appearance {
        material USE pins
      }
      geometry IndexedFaceSet {
        normalPerVertex TRUE
        coord Coordinate { point [
          -5.177 3.138095321241172e-17 0.09999999999999998,
          -5.194964430327335 -0.09031329003816116 0.09999999999999998,
          -5.246122799639973 -0.16687720036002515 0.09999999999999998,
          -5.322686709961837 -0.2180355696726636 0.09999999999999998,
          -5.412999999999998 -0.23599999999999996 0.09999999999999998,
          -5.503313290038158 -0.2180355696726636 0.09999999999999998,
          -5.579877200360024 -0.1668772003600252 0.09999999999999998,
          -5.631035569672663 -0.0903132900381612 0.09999999999999998,
          -5.648999999999998 2.4802432622036175e-18 0.09999999999999998,
          -5.631035569672663 0.0903132900381612 0.09999999999999998,
          -5.579877200360024 0.16687720036002526 0.09999999999999998,
          -5.50331329003816 0.21803556967266366 0.09999999999999998,
          -5.412999999999998 0.23600000000000007 0.09999999999999998,
          -5.322686709961837 0.21803556967266371 0.09999999999999998,
          -5.246122799639973 0.1668772003600253 0.09999999999999998,
          -5.194964430327335 0.09031329003816137 0.09999999999999998,
          -5.177 2.4802432622036175e-18 -1.0,
          -5.194964430327335 -0.0903132900381612 -1.0,
          -5.246122799639973 -0.16687720036002524 -1.0,
          -5.322686709961837 -0.2180355696726637 -1.0,
          -5.412999999999998 -0.236 -1.0,
          -5.503313290038158 -0.2180355696726637 -1.0,
          -5.579877200360024 -0.16687720036002524 -1.0,
          -5.631035569672663 -0.09031329003816121 -1.0,
          -5.648999999999998 -2.642046668800448e-17 -1.0,
          -5.631035569672663 0.09031329003816116 -1.0,
          -5.579877200360024 0.1668772003600252 -1.0,
          -5.50331329003816 0.21803556967266363 -1.0,
          -5.412999999999998 0.23600000000000002 -1.0,
          -5.322686709961837 0.21803556967266366 -1.0,
          -5.246122799639973 0.16687720036002526 -1.0,
          -5.194964430327335 0.09031329003816134 -1.0 ] }
        coordIndex [
          0, 1, 17, 16, -1,
          0, 15, 14, 13, 12, 11, 10, 9, 8, 7, 6, 5, 4, 3, 2, 1, -1,
          0, 16, 31, 15, -1,
          1, 2, 18, 17, -1,
          2, 3, 19, 18, -1,
          3, 4, 20, 19, -1,
          4, 5, 21, 20, -1,
          5, 6, 22, 21, -1,
          6, 7, 23, 22, -1,
          7, 8, 24, 23, -1,
          8, 9, 25, 24, -1,
          9, 10, 26, 25, -1,
          10, 11, 27, 26, -1,
          11, 12, 28, 27, -1,
          12, 13, 29, 28, -1,
          13, 14, 30, 29, -1,
          14, 15, 31, 30, -1,
          16, 17, 18, 19, 20, 21, 22, 23, 24, 25, 26, 27, 28, 29, 30, 31, -1 ]
        normal Normal { vector [
          -3.0520936620397933e-17 -0.0 1.0,
          1.0 -1.41496697443388e-16 1.0913547033960496e-18,
          1.0 -1.41496697443388e-16 1.0913547033960496e-18,
          -3.0520936620397933e-17 -0.0 1.0,
          0.9238795325112898 -0.382683432365082 2.0735739364525008e-17,
          0.9238795325112898 -0.382683432365082 2.0735739364525008e-17,
          -3.0520936620397933e-17 -0.0 1.0,
          0.7071067811865505 -0.7071067811865448 4.8019606949426184e-17,
          0.7071067811865505 -0.7071067811865448 4.8019606949426184e-17,
          -3.0520936620397933e-17 -0.0 1.0,
          0.38268343236508956 -0.9238795325112868 5.565908987319845e-17,
          0.38268343236508956 -0.9238795325112868 5.565908987319845e-17,
          -3.0520936620397933e-17 -0.0 1.0,
          0.0 -1.0 5.020231635621844e-17,
          0.0 -1.0 5.020231635621844e-17,
          -3.0520936620397933e-17 -0.0 1.0,
          -0.38268343236508456 -0.923879532511289 4.6928252246029707e-17,
          -0.38268343236508456 -0.923879532511289 4.6928252246029707e-17,
          -3.0520936620397933e-17 -0.0 1.0,
          -0.7071067811865437 -0.7071067811865515 2.619251288150478e-17,
          -0.7071067811865437 -0.7071067811865515 2.619251288150478e-17,
          -3.0520936620397933e-17 -0.0 1.0,
          -0.9238795325112885 -0.38268343236508573 6.548128220376295e-18,
          -0.9238795325112885 -0.38268343236508573 6.548128220376295e-18,
          -3.0520936620397933e-17 -0.0 1.0,
          -1.0 0.0 -1.091354703396047e-18,
          -1.0 0.0 -1.091354703396047e-18,
          -3.0520936620397933e-17 -0.0 1.0,
          -0.9238795325112885 0.3826834323650856 -1.6370320550940733e-17,
          -0.9238795325112885 0.3826834323650856 -1.6370320550940733e-17,
          -3.0520936620397933e-17 -0.0 1.0,
          -0.7071067811865475 0.7071067811865476 -2.8375222288297216e-17,
          -0.7071067811865475 0.7071067811865476 -2.8375222288297216e-17,
          -3.0520936620397933e-17 -0.0 1.0,
          -0.382683432365088 0.9238795325112875 -3.383199580527718e-17,
          -0.382683432365088 0.9238795325112875 -3.383199580527718e-17,
          -3.0520936620397933e-17 -0.0 1.0,
          1.6555113600876422e-15 1.0 -4.419986548753979e-17,
          1.6555113600876422e-15 1.0 -4.419986548753979e-17,
          -3.0520936620397933e-17 -0.0 1.0,
          0.3826834323650895 0.9238795325112868 -4.092580137735186e-17,
          0.3826834323650895 0.9238795325112868 -4.092580137735186e-17,
          -3.0520936620397933e-17 -0.0 1.0,
          0.7071067811865499 0.7071067811865452 -2.1827094067920985e-17,
          0.7071067811865499 0.7071067811865452 -2.1827094067920985e-17,
          -3.0520936620397933e-17 -0.0 1.0,
          0.9238795325112898 0.3826834323650821 -8.730837627168425e-18,
          0.9238795325112898 0.3826834323650821 -8.730837627168425e-18,
          0.0 -0.0 -1.0,
          1.0 -1.41496697443388e-16 1.0913547033960496e-18,
          1.0 -1.41496697443388e-16 1.0913547033960496e-18,
          0.0 -0.0 -1.0,
          0.9238795325112898 -0.382683432365082 2.0735739364525008e-17,
          0.9238795325112898 -0.382683432365082 2.0735739364525008e-17,
          0.0 -0.0 -1.0,
          0.7071067811865505 -0.7071067811865448 4.8019606949426184e-17,
          0.7071067811865505 -0.7071067811865448 4.8019606949426184e-17,
          0.0 -0.0 -1.0,
          0.38268343236508956 -0.9238795325112868 5.565908987319845e-17,
          0.38268343236508956 -0.9238795325112868 5.565908987319845e-17,
          0.0 -0.0 -1.0,
          0.0 -1.0 5.020231635621844e-17,
          0.0 -1.0 5.020231635621844e-17,
          0.0 -0.0 -1.0,
          -0.38268343236508456 -0.923879532511289 4.6928252246029707e-17,
          -0.38268343236508456 -0.923879532511289 4.6928252246029707e-17,
          0.0 -0.0 -1.0,
          -0.7071067811865437 -0.7071067811865515 2.619251288150478e-17,
          -0.7071067811865437 -0.7071067811865515 2.619251288150478e-17,
          0.0 -0.0 -1.0,
          -0.9238795325112885 -0.38268343236508573 6.548128220376295e-18,
          -0.9238795325112885 -0.38268343236508573 6.548128220376295e-18,
          0.0 -0.0 -1.0,
          -1.0 0.0 -1.091354703396047e-18,
          -1.0 0.0 -1.091354703396047e-18,
          0.0 -0.0 -1.0,
          -0.9238795325112885 0.3826834323650856 -1.6370320550940733e-17,
          -0.9238795325112885 0.3826834323650856 -1.6370320550940733e-17,
          0.0 -0.0 -1.0,
          -0.7071067811865475 0.7071067811865476 -2.8375222288297216e-17,
          -0.7071067811865475 0.7071067811865476 -2.8375222288297216e-17,
          0.0 -0.0 -1.0,
          -0.382683432365088 0.9238795325112875 -3.383199580527718e-17,
          -0.382683432365088 0.9238795325112875 -3.383199580527718e-17,
          0.0 -0.0 -1.0,
          1.6555113600876422e-15 1.0 -4.419986548753979e-17,
          1.6555113600876422e-15 1.0 -4.419986548753979e-17,
          0.0 -0.0 -1.0,
          0.3826834323650895 0.9238795325112868 -4.092580137735186e-17,
          0.3826834323650895 0.9238795325112868 -4.092580137735186e-17,
          0.0 -0.0 -1.0,
          0.7071067811865499 0.7071067811865452 -2.1827094067920985e-17,
          0.7071067811865499 0.7071067811865452 -2.1827094067920985e-17,
          0.0 -0.0 -1.0,
          0.9238795325112898 0.3826834323650821 -8.730837627168425e-18,
          0.9238795325112898 0.3826834323650821 -8.730837627168425e-18 ] }
        normalIndex [
          2, 5, 53, 50, -1,
          0, 45, 42, 39, 36, 33, 30, 27, 24, 21, 18, 15, 12, 9, 6, 3, -1,
          1, 49, 94, 46, -1,
          4, 8, 56, 52, -1,
          7, 11, 59, 55, -1,
          10, 14, 62, 58, -1,
          13, 17, 65, 61, -1,
          16, 20, 68, 64, -1,
          19, 23, 71, 67, -1,
          22, 26, 74, 70, -1,
          25, 29, 77, 73, -1,
          28, 32, 80, 76, -1,
          31, 35, 83, 79, -1,
          34, 38, 86, 82, -1,
          37, 41, 89, 85, -1,
          40, 44, 92, 88, -1,
          43, 47, 95, 91, -1,
          48, 51, 54, 57, 60, 63, 66, 69, 72, 75, 78, 81, 84, 87, 90, 93, -1 ]
      }
    }
  ]
}

DEF cube1 Transform {
  children [
    Shape {
      appearance Appearance {
        material DEF plastic Material {
          diffuseColor 0.0 0.5019607843137255 0.7529411764705882
          emissiveColor 0.0 0.0 0.0
          specularColor 0.1 0.1 0.1
          ambientIntensity 1.0
          transparency 0.0
          shininess 0.0
        }
      }
      geometry IndexedFaceSet {
        normalPerVertex TRUE
        coord Coordinate { point [
          -6.299999999999998 -3.545 12.989999999999998,
          -6.299999999999998 3.545000000000001 12.989999999999998,
          6.3 3.545000000000001 12.989999999999998,
          6.3 -3.545 12.989999999999998,
          -6.299999999999998 -3.545 0.0,
          -6.299999999999998 3.545000000000001 0.0,
          6.3 3.545000000000001 0.0,
          6.3 -3.545 0.0,
          -6.132499999999999 -3.3775 0.0,
          -6.132499999999999 3.3775000000000004 0.0,
          6.132499999999999 3.3775000000000004 0.0,
          6.132499999999999 -3.3775 0.0,
          -6.132484924999999 -3.3774849249999996 0.1,
          -6.132484924999999 3.377484925 0.1,
          6.132484925 3.377484925 0.1,
          6.132484925 -3.3774849249999996 0.1 ] }
        coordIndex [
          0, 1, 5, 4, -1,
          0, 3, 2, 1, -1,
          0, 4, 7, 3, -1,
          1, 2, 6, 5, -1,
          2, 3, 7, 6, -1,
          4, 5, 9, 8, -1,
          4, 8, 11, 7, -1,
          5, 6, 10, 9, -1,
          6, 7, 11, 10, -1,
          8, 9, 13, 12, -1,
          8, 12, 15, 11, -1,
          9, 10, 14, 13, -1,
          10, 11, 15, 14, -1 ]
        normal Normal { vector [
          0.0 0.0 1.0,
          0.0 -1.0 0.0,
          -1.0 0.0 0.0,
          0.0 0.0 1.0,
          0.0 1.0 -0.0,
          -1.0 0.0 0.0,
          0.0 0.0 1.0,
          1.0 0.0 -0.0,
          0.0 1.0 -0.0,
          0.0 0.0 1.0,
          1.0 0.0 -0.0,
          0.0 -1.0 0.0,
          0.0 -1.0 0.0,
          -1.0 0.0 0.0,
          -0.0 0.0 -1.0,
          0.0 -0.0 -1.0,
          0.0 1.0 -0.0,
          -1.0 0.0 0.0,
          -0.0 0.0 -1.0,
          0.0 0.0 -1.0,
          1.0 0.0 -0.0,
          0.0 1.0 -0.0,
          0.0 0.0 -1.0,
          0.0 0.0 -1.0,
          1.0 0.0 -0.0,
          0.0 -1.0 0.0,
          0.0 0.0 -1.0,
          0.0 -0.0 -1.0,
          -0.0 0.0 -1.0,
          0.0 -0.0 -1.0,
          0.999999988637219 0.0 -1.507499982901467e-4,
          0.0 0.999999988637219 -1.5074999829014664e-4,
          -0.0 0.0 -1.0,
          0.0 0.0 -1.0,
          0.999999988637219 0.0 -1.507499982901467e-4,
          0.0 -0.999999988637219 -1.5074999829014664e-4,
          0.0 0.0 -1.0,
          0.0 0.0 -1.0,
          0.0 -0.999999988637219 -1.5074999829014664e-4,
          -0.999999988637219 0.0 -1.5074999828126488e-4,
          0.0 0.0 -1.0,
          0.0 -0.0 -1.0,
          -0.999999988637219 0.0 -1.5074999828126488e-4,
          0.0 0.999999988637219 -1.5074999829014664e-4,
          0.999999988637219 0.0 -1.507499982901467e-4,
          0.0 0.999999988637219 -1.5074999829014664e-4,
          0.999999988637219 0.0 -1.507499982901467e-4,
          0.0 -0.999999988637219 -1.5074999829014664e-4,
          0.0 -0.999999988637219 -1.5074999829014664e-4,
          -0.999999988637219 0.0 -1.5074999828126488e-4,
          -0.999999988637219 0.0 -1.5074999828126488e-4,
          0.0 0.999999988637219 -1.5074999829014664e-4 ] }
        normalIndex [
          2, 5, 17, 13, -1,
          0, 9, 6, 3, -1,
          1, 12, 25, 11, -1,
          4, 8, 21, 16, -1,
          7, 10, 24, 20, -1,
          14, 18, 32, 28, -1,
          15, 29, 41, 27, -1,
          19, 22, 36, 33, -1,
          23, 26, 40, 37, -1,
          30, 34, 46, 44, -1,
          31, 45, 51, 43, -1,
          35, 38, 48, 47, -1,
          39, 42, 50, 49, -1 ]
      }
    },
    Shape {
      appearance Appearance {
        material DEF resin Material {
          diffuseColor 0.9450980392156862 0.9450980392156862 0.8274509803921568
          emissiveColor 0.0 0.0 0.0
          specularColor 0.1 0.1 0.1
          ambientIntensity 1.0
          transparency 0.0
          shininess 0.0
        }
      }
      geometry IndexedFaceSet {
        normalPerVertex TRUE
        coord Coordinate { point [
          -6.132484924999999 -3.3774849249999996 0.1,
          -6.132484924999999 3.377484925 0.1,
          6.132484925 3.377484925 0.1,
          6.132484925 -3.3774849249999996 0.1 ] }
        coordIndex [
          0, 1, 2, 3, -1 ]
        normal Normal { vector [
          -0.0 0.0 -1.0,
          -0.0 0.0 -1.0,
          -0.0 0.0 -1.0,
          -0.0 0.0 -1.0 ] }
        normalIndex [
          0, 1, 2, 3, -1 ]
      }
    }
  ]
}

