%TF.GenerationSoftware,KiCad,Pcbnew,9.0.0*%
%TF.CreationDate,2025-05-10T16:34:43+02:00*%
%TF.ProjectId,pcb_pamis,7063625f-7061-46d6-9973-2e6b69636164,rev?*%
%TF.SameCoordinates,Original*%
%TF.FileFunction,Soldermask,Top*%
%TF.FilePolarity,Negative*%
%FSLAX46Y46*%
G04 Gerber Fmt 4.6, Leading zero omitted, Abs format (unit mm)*
G04 Created by KiCad (PCBNEW 9.0.0) date 2025-05-10 16:34:43*
%MOMM*%
%LPD*%
G01*
G04 APERTURE LIST*
G04 Aperture macros list*
%AMRoundRect*
0 Rectangle with rounded corners*
0 $1 Rounding radius*
0 $2 $3 $4 $5 $6 $7 $8 $9 X,Y pos of 4 corners*
0 Add a 4 corners polygon primitive as box body*
4,1,4,$2,$3,$4,$5,$6,$7,$8,$9,$2,$3,0*
0 Add four circle primitives for the rounded corners*
1,1,$1+$1,$2,$3*
1,1,$1+$1,$4,$5*
1,1,$1+$1,$6,$7*
1,1,$1+$1,$8,$9*
0 Add four rect primitives between the rounded corners*
20,1,$1+$1,$2,$3,$4,$5,0*
20,1,$1+$1,$4,$5,$6,$7,0*
20,1,$1+$1,$6,$7,$8,$9,0*
20,1,$1+$1,$8,$9,$2,$3,0*%
G04 Aperture macros list end*
%ADD10C,0.010000*%
%ADD11C,1.600000*%
%ADD12RoundRect,0.250000X-0.450000X0.350000X-0.450000X-0.350000X0.450000X-0.350000X0.450000X0.350000X0*%
%ADD13RoundRect,0.102000X-0.754000X-0.754000X0.754000X-0.754000X0.754000X0.754000X-0.754000X0.754000X0*%
%ADD14C,1.712000*%
%ADD15RoundRect,0.250000X0.350000X0.450000X-0.350000X0.450000X-0.350000X-0.450000X0.350000X-0.450000X0*%
%ADD16RoundRect,0.250000X0.337500X0.475000X-0.337500X0.475000X-0.337500X-0.475000X0.337500X-0.475000X0*%
%ADD17R,1.665000X1.665000*%
%ADD18C,1.665000*%
%ADD19RoundRect,0.250000X-0.475000X0.337500X-0.475000X-0.337500X0.475000X-0.337500X0.475000X0.337500X0*%
%ADD20C,1.980000*%
%ADD21C,1.989000*%
%ADD22C,6.400000*%
%ADD23R,1.700000X1.700000*%
%ADD24O,1.700000X1.700000*%
%ADD25RoundRect,0.250000X-0.350000X-0.450000X0.350000X-0.450000X0.350000X0.450000X-0.350000X0.450000X0*%
%ADD26RoundRect,0.162500X0.837500X0.162500X-0.837500X0.162500X-0.837500X-0.162500X0.837500X-0.162500X0*%
%ADD27RoundRect,0.200000X-0.750000X-0.200000X0.750000X-0.200000X0.750000X0.200000X-0.750000X0.200000X0*%
%ADD28R,1.200000X1.200000*%
%ADD29C,1.200000*%
%ADD30RoundRect,0.250000X0.450000X-0.350000X0.450000X0.350000X-0.450000X0.350000X-0.450000X-0.350000X0*%
%ADD31C,0.650000*%
%ADD32O,2.304000X1.204000*%
%ADD33O,2.004000X1.204000*%
%ADD34RoundRect,0.250000X-0.337500X-0.475000X0.337500X-0.475000X0.337500X0.475000X-0.337500X0.475000X0*%
%ADD35RoundRect,0.249999X-1.550001X0.790001X-1.550001X-0.790001X1.550001X-0.790001X1.550001X0.790001X0*%
%ADD36O,3.600000X2.080000*%
%ADD37RoundRect,0.250000X0.412500X0.650000X-0.412500X0.650000X-0.412500X-0.650000X0.412500X-0.650000X0*%
%ADD38C,2.000000*%
%ADD39RoundRect,0.150000X0.587500X0.150000X-0.587500X0.150000X-0.587500X-0.150000X0.587500X-0.150000X0*%
%ADD40RoundRect,0.249999X1.550001X-0.790001X1.550001X0.790001X-1.550001X0.790001X-1.550001X-0.790001X0*%
%ADD41C,1.303000*%
%ADD42R,1.500000X0.900000*%
%ADD43R,0.900000X1.500000*%
%ADD44C,0.600000*%
%ADD45R,3.800000X3.800000*%
%ADD46R,3.810000X4.240000*%
%ADD47RoundRect,0.200000X0.750000X0.200000X-0.750000X0.200000X-0.750000X-0.200000X0.750000X-0.200000X0*%
%ADD48RoundRect,0.062500X0.337500X0.062500X-0.337500X0.062500X-0.337500X-0.062500X0.337500X-0.062500X0*%
%ADD49RoundRect,0.062500X0.062500X0.337500X-0.062500X0.337500X-0.062500X-0.337500X0.062500X-0.337500X0*%
%ADD50R,3.350000X3.350000*%
%ADD51RoundRect,0.150000X-0.150000X0.587500X-0.150000X-0.587500X0.150000X-0.587500X0.150000X0.587500X0*%
G04 APERTURE END LIST*
D10*
%TO.C,J1*%
X141370000Y-77550000D02*
X140120000Y-77550000D01*
X140120000Y-76850000D01*
X141370000Y-76850000D01*
X141370000Y-77550000D01*
G36*
X141370000Y-77550000D02*
G01*
X140120000Y-77550000D01*
X140120000Y-76850000D01*
X141370000Y-76850000D01*
X141370000Y-77550000D01*
G37*
X141370000Y-78350000D02*
X140120000Y-78350000D01*
X140120000Y-77650000D01*
X141370000Y-77650000D01*
X141370000Y-78350000D01*
G36*
X141370000Y-78350000D02*
G01*
X140120000Y-78350000D01*
X140120000Y-77650000D01*
X141370000Y-77650000D01*
X141370000Y-78350000D01*
G37*
X141370000Y-78850000D02*
X140120000Y-78850000D01*
X140120000Y-78450000D01*
X141370000Y-78450000D01*
X141370000Y-78850000D01*
G36*
X141370000Y-78850000D02*
G01*
X140120000Y-78850000D01*
X140120000Y-78450000D01*
X141370000Y-78450000D01*
X141370000Y-78850000D01*
G37*
X141370000Y-79350000D02*
X140120000Y-79350000D01*
X140120000Y-78950000D01*
X141370000Y-78950000D01*
X141370000Y-79350000D01*
G36*
X141370000Y-79350000D02*
G01*
X140120000Y-79350000D01*
X140120000Y-78950000D01*
X141370000Y-78950000D01*
X141370000Y-79350000D01*
G37*
X141370000Y-79850000D02*
X140120000Y-79850000D01*
X140120000Y-79450000D01*
X141370000Y-79450000D01*
X141370000Y-79850000D01*
G36*
X141370000Y-79850000D02*
G01*
X140120000Y-79850000D01*
X140120000Y-79450000D01*
X141370000Y-79450000D01*
X141370000Y-79850000D01*
G37*
X141370000Y-80350000D02*
X140120000Y-80350000D01*
X140120000Y-79950000D01*
X141370000Y-79950000D01*
X141370000Y-80350000D01*
G36*
X141370000Y-80350000D02*
G01*
X140120000Y-80350000D01*
X140120000Y-79950000D01*
X141370000Y-79950000D01*
X141370000Y-80350000D01*
G37*
X141370000Y-80850000D02*
X140120000Y-80850000D01*
X140120000Y-80450000D01*
X141370000Y-80450000D01*
X141370000Y-80850000D01*
G36*
X141370000Y-80850000D02*
G01*
X140120000Y-80850000D01*
X140120000Y-80450000D01*
X141370000Y-80450000D01*
X141370000Y-80850000D01*
G37*
X141370000Y-81350000D02*
X140120000Y-81350000D01*
X140120000Y-80950000D01*
X141370000Y-80950000D01*
X141370000Y-81350000D01*
G36*
X141370000Y-81350000D02*
G01*
X140120000Y-81350000D01*
X140120000Y-80950000D01*
X141370000Y-80950000D01*
X141370000Y-81350000D01*
G37*
X141370000Y-81850000D02*
X140120000Y-81850000D01*
X140120000Y-81450000D01*
X141370000Y-81450000D01*
X141370000Y-81850000D01*
G36*
X141370000Y-81850000D02*
G01*
X140120000Y-81850000D01*
X140120000Y-81450000D01*
X141370000Y-81450000D01*
X141370000Y-81850000D01*
G37*
X141370000Y-82350000D02*
X140120000Y-82350000D01*
X140120000Y-81950000D01*
X141370000Y-81950000D01*
X141370000Y-82350000D01*
G36*
X141370000Y-82350000D02*
G01*
X140120000Y-82350000D01*
X140120000Y-81950000D01*
X141370000Y-81950000D01*
X141370000Y-82350000D01*
G37*
X141370000Y-83150000D02*
X140120000Y-83150000D01*
X140120000Y-82450000D01*
X141370000Y-82450000D01*
X141370000Y-83150000D01*
G36*
X141370000Y-83150000D02*
G01*
X140120000Y-83150000D01*
X140120000Y-82450000D01*
X141370000Y-82450000D01*
X141370000Y-83150000D01*
G37*
X141370000Y-83950000D02*
X140120000Y-83950000D01*
X140120000Y-83250000D01*
X141370000Y-83250000D01*
X141370000Y-83950000D01*
G36*
X141370000Y-83950000D02*
G01*
X140120000Y-83950000D01*
X140120000Y-83250000D01*
X141370000Y-83250000D01*
X141370000Y-83950000D01*
G37*
%TD*%
D11*
%TO.C,C12*%
X82900000Y-88780769D03*
X82900000Y-86280769D03*
%TD*%
D12*
%TO.C,R18*%
X71000000Y-59050000D03*
X71000000Y-61050000D03*
%TD*%
D13*
%TO.C,U4*%
X101220000Y-103180000D03*
D14*
X101220000Y-105720000D03*
X101220000Y-108260000D03*
X101220000Y-110800000D03*
X101220000Y-113340000D03*
X101220000Y-115880000D03*
X101220000Y-118420000D03*
X101220000Y-120960000D03*
X113920000Y-103180000D03*
X113920000Y-105720000D03*
X113920000Y-108260000D03*
X113920000Y-110800000D03*
X113920000Y-113340000D03*
X113920000Y-115880000D03*
X113920000Y-118420000D03*
X113920000Y-120960000D03*
X108840000Y-120960000D03*
X111380000Y-120960000D03*
%TD*%
D15*
%TO.C,R16*%
X78750000Y-35800000D03*
X76750000Y-35800000D03*
%TD*%
D16*
%TO.C,C6*%
X141287500Y-73800000D03*
X139212500Y-73800000D03*
%TD*%
D17*
%TO.C,PS2*%
X77500000Y-90220000D03*
D18*
X77500000Y-92760000D03*
X77500000Y-95300000D03*
%TD*%
D19*
%TO.C,C5*%
X141000000Y-69762500D03*
X141000000Y-71837500D03*
%TD*%
D20*
%TO.C,BT3*%
X121950000Y-69720000D03*
D21*
X130050000Y-31900000D03*
X130050000Y-69720000D03*
%TD*%
D22*
%TO.C,H3*%
X144700000Y-124500000D03*
%TD*%
D15*
%TO.C,R8*%
X108250000Y-99300000D03*
X106250000Y-99300000D03*
%TD*%
D23*
%TO.C,JP1*%
X124710000Y-124300000D03*
D24*
X127250000Y-124300000D03*
X129790000Y-124300000D03*
%TD*%
D25*
%TO.C,R6*%
X132000000Y-93800000D03*
X134000000Y-93800000D03*
%TD*%
%TO.C,R2*%
X131700000Y-85800000D03*
X133700000Y-85800000D03*
%TD*%
D22*
%TO.C,H2*%
X73300000Y-124500000D03*
%TD*%
D26*
%TO.C,D2*%
X144500000Y-115450000D03*
X144500000Y-113550000D03*
X141080000Y-114500000D03*
%TD*%
D15*
%TO.C,R12*%
X99000000Y-80300000D03*
X97000000Y-80300000D03*
%TD*%
D23*
%TO.C,J9*%
X87750000Y-98840000D03*
D24*
X87750000Y-96300000D03*
X87750000Y-93760000D03*
%TD*%
D23*
%TO.C,J10*%
X82650000Y-98855000D03*
D24*
X82650000Y-96315000D03*
X82650000Y-93775000D03*
%TD*%
D23*
%TO.C,JP2*%
X117750000Y-120825000D03*
D24*
X117750000Y-118285000D03*
X117750000Y-115745000D03*
%TD*%
D27*
%TO.C,Q2*%
X143900000Y-89300000D03*
X143900000Y-91200000D03*
X146900000Y-90250000D03*
%TD*%
D28*
%TO.C,C8*%
X127570000Y-116550250D03*
D29*
X130070000Y-116550250D03*
%TD*%
D30*
%TO.C,R15*%
X144900000Y-73600000D03*
X144900000Y-71600000D03*
%TD*%
D31*
%TO.C,J1*%
X141820000Y-83290000D03*
X141820000Y-77510000D03*
D32*
X141320000Y-84720000D03*
X141320000Y-76080000D03*
D33*
X145500000Y-84720000D03*
X145500000Y-76080000D03*
%TD*%
D34*
%TO.C,C3*%
X134062500Y-73600000D03*
X136137500Y-73600000D03*
%TD*%
D11*
%TO.C,C11*%
X89853846Y-86280769D03*
X89853846Y-88780769D03*
%TD*%
D35*
%TO.C,J2*%
X141612500Y-98560000D03*
D36*
X141612500Y-103640000D03*
%TD*%
D20*
%TO.C,BT2*%
X102150000Y-69720000D03*
D21*
X110250000Y-31900000D03*
X110250000Y-69720000D03*
%TD*%
D23*
%TO.C,J5*%
X74500000Y-111090000D03*
D24*
X74500000Y-108550000D03*
X74500000Y-106010000D03*
X74500000Y-103470000D03*
%TD*%
D37*
%TO.C,C2*%
X100162500Y-76100000D03*
X97037500Y-76100000D03*
%TD*%
D22*
%TO.C,H1*%
X73300000Y-32100000D03*
%TD*%
D15*
%TO.C,R4*%
X145600000Y-87400000D03*
X143600000Y-87400000D03*
%TD*%
D34*
%TO.C,C7*%
X136962500Y-93200000D03*
X139037500Y-93200000D03*
%TD*%
D38*
%TO.C,SW1*%
X142500000Y-65800000D03*
X142500000Y-59300000D03*
X147000000Y-65800000D03*
X147000000Y-59300000D03*
%TD*%
D13*
%TO.C,U3*%
X122470000Y-103180000D03*
D14*
X122470000Y-105720000D03*
X122470000Y-108260000D03*
X122470000Y-110800000D03*
X122470000Y-113340000D03*
X122470000Y-115880000D03*
X122470000Y-118420000D03*
X122470000Y-120960000D03*
X135170000Y-103180000D03*
X135170000Y-105720000D03*
X135170000Y-108260000D03*
X135170000Y-110800000D03*
X135170000Y-113340000D03*
X135170000Y-115880000D03*
X135170000Y-118420000D03*
X135170000Y-120960000D03*
X130090000Y-120960000D03*
X132630000Y-120960000D03*
%TD*%
D39*
%TO.C,Q5*%
X78625000Y-53250000D03*
X78625000Y-51350000D03*
X76750000Y-52300000D03*
%TD*%
D23*
%TO.C,J3*%
X117750000Y-111130000D03*
D24*
X117750000Y-108590000D03*
X117750000Y-106050000D03*
X117750000Y-103510000D03*
%TD*%
D23*
%TO.C,J11*%
X92850000Y-98880000D03*
D24*
X92850000Y-96340000D03*
X92850000Y-93800000D03*
%TD*%
D40*
%TO.C,J13*%
X75500000Y-46300000D03*
D36*
X75500000Y-41220000D03*
%TD*%
D12*
%TO.C,R17*%
X74600000Y-51487500D03*
X74600000Y-53487500D03*
%TD*%
D30*
%TO.C,R1*%
X133900000Y-91800000D03*
X133900000Y-89800000D03*
%TD*%
D15*
%TO.C,R7*%
X147200000Y-93200000D03*
X145200000Y-93200000D03*
%TD*%
D25*
%TO.C,R10*%
X112500000Y-123550000D03*
X114500000Y-123550000D03*
%TD*%
D23*
%TO.C,J12*%
X99750000Y-95920000D03*
D24*
X97210000Y-95920000D03*
X99750000Y-93380000D03*
X97210000Y-93380000D03*
X99750000Y-90840000D03*
X97210000Y-90840000D03*
X99750000Y-88300000D03*
X97210000Y-88300000D03*
X99750000Y-85760000D03*
X97210000Y-85760000D03*
X99750000Y-83220000D03*
X97210000Y-83220000D03*
%TD*%
D26*
%TO.C,D3*%
X144500000Y-118950000D03*
X144500000Y-117050000D03*
X141080000Y-118000000D03*
%TD*%
D25*
%TO.C,R5*%
X138600000Y-87400000D03*
X140600000Y-87400000D03*
%TD*%
D28*
%TO.C,C10*%
X84620000Y-116530250D03*
D29*
X87120000Y-116530250D03*
%TD*%
D41*
%TO.C,PS1*%
X73350000Y-77275000D03*
X75890000Y-77275000D03*
X78430000Y-77275000D03*
X83510000Y-77275000D03*
X86050000Y-77275000D03*
X88590000Y-77275000D03*
X91130000Y-77275000D03*
%TD*%
D20*
%TO.C,BT1*%
X82350000Y-69720000D03*
D21*
X90450000Y-31900000D03*
X90450000Y-69720000D03*
%TD*%
D15*
%TO.C,R3*%
X133700000Y-87800000D03*
X131700000Y-87800000D03*
%TD*%
D26*
%TO.C,D1*%
X144500000Y-112000000D03*
X144500000Y-110100000D03*
X141080000Y-111050000D03*
%TD*%
D16*
%TO.C,C1*%
X99037500Y-73900000D03*
X96962500Y-73900000D03*
%TD*%
D42*
%TO.C,U1*%
X104100000Y-74300000D03*
X104100000Y-75570000D03*
X104100000Y-76840000D03*
X104100000Y-78110000D03*
X104100000Y-79380000D03*
X104100000Y-80650000D03*
X104100000Y-81920000D03*
X104100000Y-83190000D03*
X104100000Y-84460000D03*
X104100000Y-85730000D03*
X104100000Y-87000000D03*
X104100000Y-88270000D03*
X104100000Y-89540000D03*
X104100000Y-90810000D03*
D43*
X107135000Y-92060000D03*
X108405000Y-92060000D03*
X109675000Y-92060000D03*
X110945000Y-92060000D03*
X112215000Y-92060000D03*
X113485000Y-92060000D03*
X114755000Y-92060000D03*
X116025000Y-92060000D03*
X117295000Y-92060000D03*
X118565000Y-92060000D03*
D42*
X121600000Y-90810000D03*
X121600000Y-89540000D03*
X121600000Y-88270000D03*
X121600000Y-87000000D03*
X121600000Y-85730000D03*
X121600000Y-84460000D03*
X121600000Y-83190000D03*
X121600000Y-81920000D03*
X121600000Y-80650000D03*
X121600000Y-79380000D03*
X121600000Y-78110000D03*
X121600000Y-76840000D03*
X121600000Y-75570000D03*
X121600000Y-74300000D03*
D44*
X109950000Y-80940000D03*
X109950000Y-82340000D03*
X110650000Y-80240000D03*
X110650000Y-81640000D03*
X110650000Y-83040000D03*
X111350000Y-80940000D03*
D45*
X111350000Y-81640000D03*
D44*
X111350000Y-82340000D03*
X112050000Y-80240000D03*
X112050000Y-81640000D03*
X112050000Y-83040000D03*
X112750000Y-80940000D03*
X112750000Y-82340000D03*
%TD*%
D23*
%TO.C,J6*%
X129275000Y-95200000D03*
D24*
X126735000Y-95200000D03*
X124195000Y-95200000D03*
X121655000Y-95200000D03*
X119115000Y-95200000D03*
%TD*%
D25*
%TO.C,R11*%
X90750000Y-123550000D03*
X92750000Y-123550000D03*
%TD*%
D46*
%TO.C,F1*%
X76500000Y-69440000D03*
X76500000Y-63060000D03*
%TD*%
D30*
%TO.C,R14*%
X147100000Y-73600000D03*
X147100000Y-71600000D03*
%TD*%
D22*
%TO.C,H4*%
X144700000Y-32100000D03*
%TD*%
D13*
%TO.C,U5*%
X79520000Y-103160000D03*
D14*
X79520000Y-105700000D03*
X79520000Y-108240000D03*
X79520000Y-110780000D03*
X79520000Y-113320000D03*
X79520000Y-115860000D03*
X79520000Y-118400000D03*
X79520000Y-120940000D03*
X92220000Y-103160000D03*
X92220000Y-105700000D03*
X92220000Y-108240000D03*
X92220000Y-110780000D03*
X92220000Y-113320000D03*
X92220000Y-115860000D03*
X92220000Y-118400000D03*
X92220000Y-120940000D03*
X87140000Y-120940000D03*
X89680000Y-120940000D03*
%TD*%
D15*
%TO.C,R19*%
X78750000Y-55300000D03*
X76750000Y-55300000D03*
%TD*%
D34*
%TO.C,C4*%
X134062500Y-75800000D03*
X136137500Y-75800000D03*
%TD*%
D23*
%TO.C,J7*%
X129000000Y-80775000D03*
D24*
X129000000Y-83315000D03*
X129000000Y-85855000D03*
X129000000Y-88395000D03*
X129000000Y-90935000D03*
%TD*%
D28*
%TO.C,C9*%
X106320000Y-116550250D03*
D29*
X108820000Y-116550250D03*
%TD*%
D47*
%TO.C,Q1*%
X140300000Y-91200000D03*
X140300000Y-89300000D03*
X137300000Y-90250000D03*
%TD*%
D25*
%TO.C,R9*%
X133500000Y-123550000D03*
X135500000Y-123550000D03*
%TD*%
D48*
%TO.C,U2*%
X137750000Y-82150000D03*
X137750000Y-81650000D03*
X137750000Y-81150000D03*
X137750000Y-80650000D03*
X137750000Y-80150000D03*
X137750000Y-79650000D03*
X137750000Y-79150000D03*
D49*
X136800000Y-78200000D03*
X136300000Y-78200000D03*
X135800000Y-78200000D03*
X135300000Y-78200000D03*
X134800000Y-78200000D03*
X134300000Y-78200000D03*
X133800000Y-78200000D03*
D48*
X132850000Y-79150000D03*
X132850000Y-79650000D03*
X132850000Y-80150000D03*
X132850000Y-80650000D03*
X132850000Y-81150000D03*
X132850000Y-81650000D03*
X132850000Y-82150000D03*
D49*
X133800000Y-83100000D03*
X134300000Y-83100000D03*
X134800000Y-83100000D03*
X135300000Y-83100000D03*
X135800000Y-83100000D03*
X136300000Y-83100000D03*
X136800000Y-83100000D03*
D50*
X135300000Y-80650000D03*
%TD*%
D25*
%TO.C,R13*%
X97000000Y-78300000D03*
X99000000Y-78300000D03*
%TD*%
D23*
%TO.C,JP3*%
X96250000Y-120880000D03*
D24*
X96250000Y-118340000D03*
X96250000Y-115800000D03*
%TD*%
D39*
%TO.C,Q4*%
X72775000Y-57250000D03*
X72775000Y-55350000D03*
X70900000Y-56300000D03*
%TD*%
D51*
%TO.C,Q3*%
X72700000Y-51612500D03*
X70800000Y-51612500D03*
X71750000Y-53487500D03*
%TD*%
D23*
%TO.C,J4*%
X96250000Y-111090000D03*
D24*
X96250000Y-108550000D03*
X96250000Y-106010000D03*
X96250000Y-103470000D03*
%TD*%
D23*
%TO.C,J8*%
X125400000Y-80770000D03*
D24*
X125400000Y-83310000D03*
X125400000Y-85850000D03*
X125400000Y-88390000D03*
X125400000Y-90930000D03*
%TD*%
M02*
