M48
; DRILL file {KiCad 9.0.0} date 2025-05-10T16:34:46+0200
; FORMAT={-:-/ absolute / inch / decimal}
; #@! TF.CreationDate,2025-05-10T16:34:46+02:00
; #@! TF.GenerationSoftware,Kicad,Pcbnew,9.0.0
; #@! TF.FileFunction,MixedPlating,1,4
FMAT,2
INCH
; #@! TA.AperFunction,Plated,PTH,ComponentDrill
T1C0.0079
; #@! TA.AperFunction,Plated,PTH,ViaDrill
T2C0.0118
; #@! TA.AperFunction,Plated,PTH,ComponentDrill
T3C0.0236
; #@! TA.AperFunction,Plated,PTH,ComponentDrill
T4C0.0256
; #@! TA.AperFunction,Plated,PTH,ComponentDrill
T5C0.0299
; #@! TA.AperFunction,Plated,PTH,ComponentDrill
T6C0.0315
; #@! TA.AperFunction,Plated,PTH,ComponentDrill
T7C0.0394
; #@! TA.AperFunction,Plated,PTH,ComponentDrill
T8C0.0433
; #@! TA.AperFunction,Plated,PTH,ComponentDrill
T9C0.0437
; #@! TA.AperFunction,Plated,PTH,ComponentDrill
T10C0.0469
; #@! TA.AperFunction,Plated,PTH,ComponentDrill
T11C0.0551
; #@! TA.AperFunction,Plated,PTH,ComponentDrill
T12C0.1260
; #@! TA.AperFunction,NonPlated,NPTH,ComponentDrill
T13C0.0256
; #@! TA.AperFunction,NonPlated,NPTH,ComponentDrill
T14C0.0780
%
G90
G05
T1
X4.3287Y-3.1866
X4.3287Y-3.2417
X4.3563Y-3.1591
X4.3563Y-3.2142
X4.3563Y-3.2693
X4.3839Y-3.1866
X4.3839Y-3.2417
X4.4114Y-3.1591
X4.4114Y-3.2142
X4.4114Y-3.2693
X4.439Y-3.1866
X4.439Y-3.2417
T2
X2.7953Y-2.4528
X2.9321Y-2.1512
X2.9882Y-2.2717
X2.9882Y-2.2992
X3.0118Y-2.2559
X3.0118Y-2.2854
X3.0118Y-2.313
X3.0354Y-2.2717
X3.0354Y-2.2992
X3.1299Y-1.2126
X3.1299Y-1.311
X3.1299Y-1.5079
X3.1299Y-1.6063
X3.1299Y-1.7047
X3.1299Y-1.8031
X3.1299Y-1.9016
X3.1299Y-2.5906
X3.1299Y-2.689
X3.1299Y-2.7874
X3.2213Y-2.3421
X3.2283Y-1.2126
X3.2283Y-1.311
X3.2283Y-1.4094
X3.2283Y-1.5079
X3.2283Y-1.6063
X3.2283Y-1.7047
X3.2283Y-1.8031
X3.2283Y-1.9016
X3.2283Y-2.0
X3.2283Y-2.0984
X3.2283Y-2.8858
X3.2579Y-2.4921
X3.3268Y-1.2126
X3.3268Y-1.311
X3.3268Y-1.4094
X3.3268Y-1.5079
X3.3268Y-1.6063
X3.3268Y-1.7047
X3.3268Y-1.8031
X3.3268Y-1.9016
X3.3268Y-2.0
X3.3268Y-2.0984
X3.3268Y-2.1969
X3.3268Y-2.7874
X3.3268Y-2.8858
X3.3268Y-3.1811
X3.4094Y-4.1614
X3.4252Y-1.2126
X3.4252Y-1.311
X3.4252Y-1.4094
X3.4252Y-1.5079
X3.4252Y-1.6063
X3.4252Y-1.7047
X3.4252Y-1.8031
X3.4252Y-1.9016
X3.4252Y-2.0
X3.4252Y-2.0984
X3.4252Y-2.1969
X3.4252Y-2.2953
X3.4252Y-2.8858
X3.4449Y-4.1614
X3.4843Y-4.1614
X3.5236Y-1.5079
X3.5236Y-1.6063
X3.5236Y-1.7047
X3.5236Y-1.8031
X3.5236Y-1.9016
X3.5236Y-2.0
X3.5236Y-2.0984
X3.5236Y-2.1969
X3.5236Y-2.2953
X3.5236Y-2.3937
X3.5236Y-2.4921
X3.6215Y-2.3932
X3.6217Y-1.8037
X3.622Y-1.7047
X3.622Y-1.9016
X3.622Y-2.0
X3.622Y-2.0984
X3.622Y-2.1969
X3.622Y-2.2953
X3.622Y-2.4921
X3.622Y-2.5906
X3.7193Y-2.5894
X3.7205Y-1.2126
X3.7205Y-1.311
X3.7205Y-1.9016
X3.7205Y-2.0
X3.7205Y-2.0984
X3.7205Y-2.1969
X3.7205Y-2.3937
X3.7205Y-2.4921
X3.7205Y-2.689
X3.7205Y-2.7874
X3.752Y-2.9094
X3.752Y-2.9882
X3.7559Y-3.0827
X3.7559Y-3.1614
X3.8189Y-1.2126
X3.8189Y-1.311
X3.8189Y-1.4094
X3.8189Y-1.5079
X3.8189Y-2.0984
X3.8189Y-2.1969
X3.8189Y-2.3937
X3.8189Y-2.4921
X3.8189Y-2.5906
X3.8189Y-2.689
X3.8189Y-2.7874
X3.8819Y-3.0157
X3.9173Y-1.2126
X3.9173Y-1.311
X3.9173Y-1.4094
X3.9173Y-1.5079
X3.9173Y-1.6063
X3.9173Y-1.7047
X3.9173Y-2.3937
X3.9173Y-2.4921
X3.9173Y-2.5906
X3.9173Y-2.689
X3.9173Y-2.7874
X3.9173Y-3.9685
X3.9606Y-2.9055
X4.0098Y-3.0827
X4.0157Y-1.2126
X4.0157Y-1.311
X4.0157Y-1.4094
X4.0157Y-1.5079
X4.0157Y-1.6063
X4.0157Y-1.7047
X4.0157Y-1.8031
X4.0157Y-2.4921
X4.0157Y-2.5906
X4.0157Y-3.9685
X4.0315Y-3.1752
X4.0315Y-3.2252
X4.0354Y-2.9252
X4.1043Y-2.7874
X4.1135Y-2.6889
X4.1142Y-1.2126
X4.1142Y-1.311
X4.1142Y-1.4094
X4.1142Y-1.5079
X4.1142Y-1.6063
X4.1142Y-1.7047
X4.1142Y-2.0984
X4.1142Y-3.7717
X4.1142Y-3.9685
X4.1142Y-4.0669
X4.1142Y-4.1654
X4.1142Y-4.2638
X4.1142Y-4.3622
X4.1535Y-3.0197
X4.1634Y-3.4862
X4.1732Y-3.2894
X4.1732Y-3.3386
X4.1732Y-3.4469
X4.2126Y-1.2126
X4.2126Y-1.311
X4.2126Y-1.4094
X4.2126Y-1.5079
X4.2126Y-1.6063
X4.2126Y-2.7874
X4.2569Y-3.8276
X4.2797Y-3.8522
X4.311Y-1.5079
X4.311Y-1.6063
X4.311Y-3.4764
X4.3209Y-2.0984
X4.3209Y-2.3937
X4.3209Y-2.4921
X4.3307Y-3.7224
X4.3701Y-3.7224
X4.4094Y-1.9016
X4.4094Y-2.0
X4.4094Y-2.0984
X4.4094Y-2.3937
X4.4094Y-2.4921
X4.4094Y-2.5906
X4.4094Y-2.689
X4.4094Y-2.7874
X4.4094Y-3.7224
X4.4449Y-3.7224
X4.4685Y-3.5256
X4.4764Y-3.7224
X4.5071Y-1.9945
X4.5079Y-1.2126
X4.5079Y-2.0984
X4.5079Y-2.3937
X4.5079Y-2.4921
X4.5079Y-2.5906
X4.5079Y-2.689
X4.5079Y-2.7874
X4.5079Y-3.7224
X4.6063Y-1.2126
X4.6063Y-1.311
X4.6063Y-1.4094
X4.6063Y-2.3937
X4.6063Y-2.4921
X4.6063Y-2.5906
X4.6063Y-2.689
X4.6161Y-3.4469
X4.6555Y-3.5059
X4.7047Y-1.2126
X4.7047Y-1.311
X4.7047Y-1.4094
X4.7047Y-1.5079
X4.7047Y-1.6063
X4.7047Y-2.3937
X4.7047Y-2.4921
X4.7047Y-2.5906
X4.7047Y-2.689
X4.7146Y-3.2106
X4.7146Y-3.2992
X4.717Y-3.4414
X4.7245Y-3.3291
X4.7252Y-3.5755
X4.8031Y-1.2126
X4.8031Y-1.311
X4.8031Y-1.4094
X4.8031Y-1.5079
X4.8031Y-1.6063
X4.8031Y-1.7047
X4.8031Y-1.8031
X4.8031Y-2.4921
X4.8031Y-2.5906
X4.9016Y-1.2126
X4.9016Y-1.311
X4.9016Y-1.4094
X4.9016Y-1.5079
X4.9016Y-1.6063
X4.9016Y-1.7047
X4.9016Y-1.8031
X4.9016Y-1.9016
X4.9016Y-2.0
X4.9016Y-2.5906
X4.9016Y-2.689
X4.9016Y-2.7874
X4.9961Y-2.0004
X5.0Y-1.4094
X5.0Y-1.5079
X5.0Y-1.6063
X5.0Y-1.7047
X5.0Y-1.8031
X5.0Y-1.9016
X5.0Y-2.0984
X5.0Y-2.1969
X5.0Y-2.7874
X5.0Y-2.8858
X5.0Y-4.0669
X5.0Y-4.1654
X5.0Y-4.2638
X5.0079Y-3.2835
X5.0984Y-1.2126
X5.0984Y-1.311
X5.0984Y-1.4094
X5.0984Y-1.5079
X5.0984Y-1.6063
X5.0984Y-1.7047
X5.0984Y-1.8031
X5.0984Y-1.9016
X5.0984Y-2.0
X5.0984Y-2.0984
X5.0984Y-2.1969
X5.0984Y-2.2953
X5.0984Y-2.8858
X5.0984Y-2.9843
X5.0984Y-4.0669
X5.0984Y-4.1654
X5.1969Y-1.2126
X5.1969Y-1.311
X5.1969Y-1.4094
X5.1969Y-1.5079
X5.1969Y-1.6063
X5.1969Y-1.7047
X5.1969Y-1.8031
X5.1969Y-1.9016
X5.1969Y-2.0
X5.1969Y-2.0984
X5.1969Y-2.1969
X5.1969Y-2.2953
X5.1969Y-2.3937
X5.1969Y-2.4921
X5.1969Y-2.5906
X5.1969Y-3.5669
X5.1969Y-3.622
X5.1969Y-3.8701
X5.2205Y-2.8937
X5.2205Y-2.9843
X5.2638Y-3.3228
X5.2953Y-1.2126
X5.2953Y-1.311
X5.2953Y-1.4094
X5.2953Y-1.5079
X5.2953Y-1.6063
X5.2953Y-1.7047
X5.2953Y-1.8031
X5.2953Y-1.9016
X5.2953Y-2.0
X5.2953Y-2.0984
X5.2953Y-2.1969
X5.2953Y-2.2953
X5.2953Y-2.3937
X5.2953Y-2.4921
X5.2953Y-2.5906
X5.2953Y-2.689
X5.2953Y-2.7874
X5.2953Y-3.8701
X5.315Y-3.4606
X5.3307Y-3.5197
X5.3317Y-3.4016
X5.3543Y-3.3504
X5.3927Y-1.6034
X5.3927Y-1.7966
X5.3935Y-1.2123
X5.3937Y-1.311
X5.3937Y-1.4094
X5.3937Y-1.5079
X5.3937Y-1.7047
X5.3937Y-1.9016
X5.3937Y-2.0
X5.3937Y-2.0984
X5.3937Y-2.1969
X5.3937Y-2.2953
X5.3937Y-2.3937
X5.3937Y-2.4921
X5.3937Y-2.5906
X5.3937Y-2.689
X5.3937Y-2.7874
X5.3937Y-3.7717
X5.4213Y-2.9331
X5.4528Y-2.8268
X5.4606Y-3.2953
X5.4823Y-2.8268
X5.4843Y-2.9961
X5.4843Y-3.1378
X5.4843Y-3.1998
X5.4867Y-2.0981
X5.4882Y-3.2559
X5.4906Y-1.411
X5.4921Y-1.2126
X5.4921Y-1.311
X5.4921Y-1.5079
X5.4921Y-1.6063
X5.4921Y-1.9016
X5.4921Y-2.0
X5.4921Y-2.1969
X5.4921Y-2.2953
X5.4921Y-3.0591
X5.4921Y-3.7717
X5.4929Y-1.8027
X5.4939Y-1.7046
X5.5315Y-3.6693
X5.59Y-1.8017
X5.5906Y-1.4094
X5.5906Y-1.5079
X5.5906Y-1.6063
X5.5906Y-1.7047
X5.5906Y-1.9016
X5.5906Y-2.0
X5.5906Y-2.0984
X5.5906Y-2.1969
X5.5906Y-3.5906
X5.5906Y-3.7717
X5.5984Y-3.4567
X5.6201Y-4.6378
X5.6299Y-4.3819
X5.6299Y-4.5098
X5.6339Y-2.815
X5.689Y-1.5079
X5.689Y-1.6063
X5.689Y-1.7047
X5.689Y-1.8031
X5.689Y-1.9016
X5.689Y-2.0
X5.689Y-2.0984
X5.689Y-2.1969
X5.689Y-3.2795
X5.689Y-3.7717
X5.7873Y-1.8058
X5.7874Y-1.5079
X5.7874Y-1.6063
X5.7874Y-1.7047
X5.7874Y-1.9016
X5.7874Y-2.0
X5.7874Y-2.0984
X5.7874Y-2.1969
X5.7874Y-3.1811
X5.7874Y-3.2795
X5.7874Y-3.7717
X5.7953Y-3.7283
T4
X3.3315Y-4.5878
X3.4299Y-4.5878
X4.1858Y-4.5886
X4.2843Y-4.5886
X5.0224Y-4.5886
X5.1209Y-4.5886
T5
X2.8878Y-3.0423
X2.9878Y-3.0423
X3.0878Y-3.0423
X3.2878Y-3.0423
X3.3878Y-3.0423
X3.4878Y-3.0423
X3.5878Y-3.0423
T6
X3.2638Y-3.3969
X3.2638Y-3.4953
X3.5376Y-3.3969
X3.5376Y-3.4953
T7
X2.9331Y-4.0736
X2.9331Y-4.1736
X2.9331Y-4.2736
X2.9331Y-4.3736
X3.1307Y-4.0614
X3.1307Y-4.1614
X3.1307Y-4.2614
X3.1307Y-4.3614
X3.1307Y-4.4614
X3.1307Y-4.5614
X3.1307Y-4.6614
X3.1307Y-4.7614
X3.2539Y-3.6919
X3.2539Y-3.7919
X3.2539Y-3.8919
X3.4307Y-4.7614
X3.4547Y-3.6913
X3.4547Y-3.7913
X3.4547Y-3.8913
X3.5307Y-4.7614
X3.6307Y-4.0614
X3.6307Y-4.1614
X3.6307Y-4.2614
X3.6307Y-4.3614
X3.6307Y-4.4614
X3.6307Y-4.5614
X3.6307Y-4.6614
X3.6307Y-4.7614
X3.6555Y-3.6929
X3.6555Y-3.7929
X3.6555Y-3.8929
X3.7894Y-4.0736
X3.7894Y-4.1736
X3.7894Y-4.2736
X3.7894Y-4.3736
X3.7894Y-4.5591
X3.7894Y-4.6591
X3.7894Y-4.7591
X3.8272Y-3.2764
X3.8272Y-3.3764
X3.8272Y-3.4764
X3.8272Y-3.5764
X3.8272Y-3.6764
X3.8272Y-3.7764
X3.9272Y-3.2764
X3.9272Y-3.3764
X3.9272Y-3.4764
X3.9272Y-3.5764
X3.9272Y-3.6764
X3.9272Y-3.7764
X3.985Y-4.0622
X3.985Y-4.1622
X3.985Y-4.2622
X3.985Y-4.3622
X3.985Y-4.4622
X3.985Y-4.5622
X3.985Y-4.6622
X3.985Y-4.7622
X4.285Y-4.7622
X4.385Y-4.7622
X4.485Y-4.0622
X4.485Y-4.1622
X4.485Y-4.2622
X4.485Y-4.3622
X4.485Y-4.4622
X4.485Y-4.5622
X4.485Y-4.6622
X4.485Y-4.7622
X4.6358Y-4.0752
X4.6358Y-4.1752
X4.6358Y-4.2752
X4.6358Y-4.3752
X4.6358Y-4.5569
X4.6358Y-4.6569
X4.6358Y-4.7569
X4.6896Y-3.748
X4.7896Y-3.748
X4.8217Y-4.0622
X4.8217Y-4.1622
X4.8217Y-4.2622
X4.8217Y-4.3622
X4.8217Y-4.4622
X4.8217Y-4.5622
X4.8217Y-4.6622
X4.8217Y-4.7622
X4.8896Y-3.748
X4.9098Y-4.8937
X4.937Y-3.1799
X4.937Y-3.2799
X4.937Y-3.3799
X4.937Y-3.4799
X4.937Y-3.5799
X4.9896Y-3.748
X5.0098Y-4.8937
X5.0787Y-3.1801
X5.0787Y-3.2801
X5.0787Y-3.3801
X5.0787Y-3.4801
X5.0787Y-3.5801
X5.0896Y-3.748
X5.1098Y-4.8937
X5.1217Y-4.7622
X5.2217Y-4.7622
X5.3217Y-4.0622
X5.3217Y-4.1622
X5.3217Y-4.2622
X5.3217Y-4.3622
X5.3217Y-4.4622
X5.3217Y-4.5622
X5.3217Y-4.6622
X5.3217Y-4.7622
T8
X5.6102Y-2.3346
X5.6102Y-2.5906
X5.7874Y-2.3346
X5.7874Y-2.5906
T9
X3.0512Y-3.552
X3.0512Y-3.652
X3.0512Y-3.752
T10
X3.561Y-1.2559
X3.561Y-2.7449
X4.3406Y-1.2559
X4.3406Y-2.7449
X5.1201Y-1.2559
X5.1201Y-2.7449
T11
X2.9724Y-1.6228
X2.9724Y-1.8228
X5.5753Y-3.8803
X5.5753Y-4.0803
T12
X2.8858Y-1.2638
X2.8858Y-4.9016
X5.6969Y-1.2638
X5.6969Y-4.9016
T13
X5.5835Y-3.0516
X5.5835Y-3.2791
T14
X3.2421Y-2.7449
X4.0217Y-2.7449
X4.8012Y-2.7449
T3
G00X5.5421Y-2.9953
M15
G01X5.5854Y-2.9953
M16
G05
G00X5.5421Y-3.3354
M15
G01X5.5854Y-3.3354
M16
G05
G00X5.7126Y-2.9953
M15
G01X5.7441Y-2.9953
M16
G05
G00X5.7126Y-3.3354
M15
G01X5.7441Y-3.3354
M16
G05
M30
