%TF.GenerationSoftware,KiCad,Pcbnew,9.0.0*%
%TF.CreationDate,2025-05-10T16:34:43+02:00*%
%TF.ProjectId,pcb_pamis,7063625f-7061-46d6-9973-2e6b69636164,rev?*%
%TF.SameCoordinates,Original*%
%TF.FileFunction,Paste,Top*%
%TF.FilePolarity,Positive*%
%FSLAX46Y46*%
G04 Gerber Fmt 4.6, Leading zero omitted, Abs format (unit mm)*
G04 Created by KiCad (PCBNEW 9.0.0) date 2025-05-10 16:34:43*
%MOMM*%
%LPD*%
G01*
G04 APERTURE LIST*
G04 Aperture macros list*
%AMRoundRect*
0 Rectangle with rounded corners*
0 $1 Rounding radius*
0 $2 $3 $4 $5 $6 $7 $8 $9 X,Y pos of 4 corners*
0 Add a 4 corners polygon primitive as box body*
4,1,4,$2,$3,$4,$5,$6,$7,$8,$9,$2,$3,0*
0 Add four circle primitives for the rounded corners*
1,1,$1+$1,$2,$3*
1,1,$1+$1,$4,$5*
1,1,$1+$1,$6,$7*
1,1,$1+$1,$8,$9*
0 Add four rect primitives between the rounded corners*
20,1,$1+$1,$2,$3,$4,$5,0*
20,1,$1+$1,$4,$5,$6,$7,0*
20,1,$1+$1,$6,$7,$8,$9,0*
20,1,$1+$1,$8,$9,$2,$3,0*%
G04 Aperture macros list end*
%ADD10RoundRect,0.250000X-0.450000X0.350000X-0.450000X-0.350000X0.450000X-0.350000X0.450000X0.350000X0*%
%ADD11RoundRect,0.250000X0.350000X0.450000X-0.350000X0.450000X-0.350000X-0.450000X0.350000X-0.450000X0*%
%ADD12RoundRect,0.250000X0.337500X0.475000X-0.337500X0.475000X-0.337500X-0.475000X0.337500X-0.475000X0*%
%ADD13RoundRect,0.250000X-0.475000X0.337500X-0.475000X-0.337500X0.475000X-0.337500X0.475000X0.337500X0*%
%ADD14RoundRect,0.250000X-0.350000X-0.450000X0.350000X-0.450000X0.350000X0.450000X-0.350000X0.450000X0*%
%ADD15RoundRect,0.162500X0.837500X0.162500X-0.837500X0.162500X-0.837500X-0.162500X0.837500X-0.162500X0*%
%ADD16RoundRect,0.200000X-0.750000X-0.200000X0.750000X-0.200000X0.750000X0.200000X-0.750000X0.200000X0*%
%ADD17RoundRect,0.250000X0.450000X-0.350000X0.450000X0.350000X-0.450000X0.350000X-0.450000X-0.350000X0*%
%ADD18R,1.150000X0.600000*%
%ADD19R,1.150000X0.300000*%
%ADD20RoundRect,0.250000X-0.337500X-0.475000X0.337500X-0.475000X0.337500X0.475000X-0.337500X0.475000X0*%
%ADD21RoundRect,0.250000X0.412500X0.650000X-0.412500X0.650000X-0.412500X-0.650000X0.412500X-0.650000X0*%
%ADD22RoundRect,0.150000X0.587500X0.150000X-0.587500X0.150000X-0.587500X-0.150000X0.587500X-0.150000X0*%
%ADD23R,1.500000X0.900000*%
%ADD24R,0.900000X1.500000*%
%ADD25R,0.900000X0.900000*%
%ADD26R,3.810000X4.240000*%
%ADD27RoundRect,0.200000X0.750000X0.200000X-0.750000X0.200000X-0.750000X-0.200000X0.750000X-0.200000X0*%
%ADD28RoundRect,0.225000X0.225000X0.225000X-0.225000X0.225000X-0.225000X-0.225000X0.225000X-0.225000X0*%
%ADD29RoundRect,0.062500X0.337500X0.062500X-0.337500X0.062500X-0.337500X-0.062500X0.337500X-0.062500X0*%
%ADD30RoundRect,0.062500X0.062500X0.337500X-0.062500X0.337500X-0.062500X-0.337500X0.062500X-0.337500X0*%
%ADD31RoundRect,0.150000X-0.150000X0.587500X-0.150000X-0.587500X0.150000X-0.587500X0.150000X0.587500X0*%
G04 APERTURE END LIST*
D10*
%TO.C,R18*%
X71000000Y-59050000D03*
X71000000Y-61050000D03*
%TD*%
D11*
%TO.C,R16*%
X78750000Y-35800000D03*
X76750000Y-35800000D03*
%TD*%
D12*
%TO.C,C6*%
X141287500Y-73800000D03*
X139212500Y-73800000D03*
%TD*%
D13*
%TO.C,C5*%
X141000000Y-69762500D03*
X141000000Y-71837500D03*
%TD*%
D11*
%TO.C,R8*%
X108250000Y-99300000D03*
X106250000Y-99300000D03*
%TD*%
D14*
%TO.C,R6*%
X132000000Y-93800000D03*
X134000000Y-93800000D03*
%TD*%
%TO.C,R2*%
X131700000Y-85800000D03*
X133700000Y-85800000D03*
%TD*%
D15*
%TO.C,D2*%
X144500000Y-115450000D03*
X144500000Y-113550000D03*
X141080000Y-114500000D03*
%TD*%
D11*
%TO.C,R12*%
X99000000Y-80300000D03*
X97000000Y-80300000D03*
%TD*%
D16*
%TO.C,Q2*%
X143900000Y-89300000D03*
X143900000Y-91200000D03*
X146900000Y-90250000D03*
%TD*%
D17*
%TO.C,R15*%
X144900000Y-73600000D03*
X144900000Y-71600000D03*
%TD*%
D18*
%TO.C,J1*%
X140745000Y-83600000D03*
X140745000Y-82800000D03*
D19*
X140745000Y-81650000D03*
X140745000Y-80650000D03*
X140745000Y-80150000D03*
X140745000Y-79150000D03*
D18*
X140745000Y-77200000D03*
X140745000Y-78000000D03*
D19*
X140745000Y-78650000D03*
X140745000Y-79650000D03*
X140745000Y-81150000D03*
X140745000Y-82150000D03*
%TD*%
D20*
%TO.C,C3*%
X134062500Y-73600000D03*
X136137500Y-73600000D03*
%TD*%
D21*
%TO.C,C2*%
X100162500Y-76100000D03*
X97037500Y-76100000D03*
%TD*%
D11*
%TO.C,R4*%
X145600000Y-87400000D03*
X143600000Y-87400000D03*
%TD*%
D20*
%TO.C,C7*%
X136962500Y-93200000D03*
X139037500Y-93200000D03*
%TD*%
D22*
%TO.C,Q5*%
X78625000Y-53250000D03*
X78625000Y-51350000D03*
X76750000Y-52300000D03*
%TD*%
D10*
%TO.C,R17*%
X74600000Y-51487500D03*
X74600000Y-53487500D03*
%TD*%
D17*
%TO.C,R1*%
X133900000Y-91800000D03*
X133900000Y-89800000D03*
%TD*%
D11*
%TO.C,R7*%
X147200000Y-93200000D03*
X145200000Y-93200000D03*
%TD*%
D14*
%TO.C,R10*%
X112500000Y-123550000D03*
X114500000Y-123550000D03*
%TD*%
D15*
%TO.C,D3*%
X144500000Y-118950000D03*
X144500000Y-117050000D03*
X141080000Y-118000000D03*
%TD*%
D14*
%TO.C,R5*%
X138600000Y-87400000D03*
X140600000Y-87400000D03*
%TD*%
D11*
%TO.C,R3*%
X133700000Y-87800000D03*
X131700000Y-87800000D03*
%TD*%
D15*
%TO.C,D1*%
X144500000Y-112000000D03*
X144500000Y-110100000D03*
X141080000Y-111050000D03*
%TD*%
D12*
%TO.C,C1*%
X99037500Y-73900000D03*
X96962500Y-73900000D03*
%TD*%
D23*
%TO.C,U1*%
X104100000Y-74300000D03*
X104100000Y-75570000D03*
X104100000Y-76840000D03*
X104100000Y-78110000D03*
X104100000Y-79380000D03*
X104100000Y-80650000D03*
X104100000Y-81920000D03*
X104100000Y-83190000D03*
X104100000Y-84460000D03*
X104100000Y-85730000D03*
X104100000Y-87000000D03*
X104100000Y-88270000D03*
X104100000Y-89540000D03*
X104100000Y-90810000D03*
D24*
X107135000Y-92060000D03*
X108405000Y-92060000D03*
X109675000Y-92060000D03*
X110945000Y-92060000D03*
X112215000Y-92060000D03*
X113485000Y-92060000D03*
X114755000Y-92060000D03*
X116025000Y-92060000D03*
X117295000Y-92060000D03*
X118565000Y-92060000D03*
D23*
X121600000Y-90810000D03*
X121600000Y-89540000D03*
X121600000Y-88270000D03*
X121600000Y-87000000D03*
X121600000Y-85730000D03*
X121600000Y-84460000D03*
X121600000Y-83190000D03*
X121600000Y-81920000D03*
X121600000Y-80650000D03*
X121600000Y-79380000D03*
X121600000Y-78110000D03*
X121600000Y-76840000D03*
X121600000Y-75570000D03*
X121600000Y-74300000D03*
D25*
X109950000Y-80240000D03*
X109950000Y-81640000D03*
X109950000Y-83040000D03*
X111350000Y-80240000D03*
X111350000Y-81640000D03*
X111350000Y-83040000D03*
X112750000Y-80240000D03*
X112750000Y-81640000D03*
X112750000Y-83040000D03*
%TD*%
D14*
%TO.C,R11*%
X90750000Y-123550000D03*
X92750000Y-123550000D03*
%TD*%
D26*
%TO.C,F1*%
X76500000Y-69440000D03*
X76500000Y-63060000D03*
%TD*%
D17*
%TO.C,R14*%
X147100000Y-73600000D03*
X147100000Y-71600000D03*
%TD*%
D11*
%TO.C,R19*%
X78750000Y-55300000D03*
X76750000Y-55300000D03*
%TD*%
D20*
%TO.C,C4*%
X134062500Y-75800000D03*
X136137500Y-75800000D03*
%TD*%
D27*
%TO.C,Q1*%
X140300000Y-91200000D03*
X140300000Y-89300000D03*
X137300000Y-90250000D03*
%TD*%
D14*
%TO.C,R9*%
X133500000Y-123550000D03*
X135500000Y-123550000D03*
%TD*%
D28*
%TO.C,U2*%
X136420000Y-81770000D03*
X136420000Y-80650000D03*
X136420000Y-79530000D03*
X135300000Y-81770000D03*
X135300000Y-80650000D03*
X135300000Y-79530000D03*
X134180000Y-81770000D03*
X134180000Y-80650000D03*
X134180000Y-79530000D03*
D29*
X137750000Y-82150000D03*
X137750000Y-81650000D03*
X137750000Y-81150000D03*
X137750000Y-80650000D03*
X137750000Y-80150000D03*
X137750000Y-79650000D03*
X137750000Y-79150000D03*
D30*
X136800000Y-78200000D03*
X136300000Y-78200000D03*
X135800000Y-78200000D03*
X135300000Y-78200000D03*
X134800000Y-78200000D03*
X134300000Y-78200000D03*
X133800000Y-78200000D03*
D29*
X132850000Y-79150000D03*
X132850000Y-79650000D03*
X132850000Y-80150000D03*
X132850000Y-80650000D03*
X132850000Y-81150000D03*
X132850000Y-81650000D03*
X132850000Y-82150000D03*
D30*
X133800000Y-83100000D03*
X134300000Y-83100000D03*
X134800000Y-83100000D03*
X135300000Y-83100000D03*
X135800000Y-83100000D03*
X136300000Y-83100000D03*
X136800000Y-83100000D03*
%TD*%
D14*
%TO.C,R13*%
X97000000Y-78300000D03*
X99000000Y-78300000D03*
%TD*%
D22*
%TO.C,Q4*%
X72775000Y-57250000D03*
X72775000Y-55350000D03*
X70900000Y-56300000D03*
%TD*%
D31*
%TO.C,Q3*%
X72700000Y-51612500D03*
X70800000Y-51612500D03*
X71750000Y-53487500D03*
%TD*%
M02*
