%TF.GenerationSoftware,KiCad,Pcbnew,9.0.0*%
%TF.CreationDate,2025-05-10T16:34:43+02:00*%
%TF.ProjectId,pcb_pamis,7063625f-7061-46d6-9973-2e6b69636164,rev?*%
%TF.SameCoordinates,Original*%
%TF.FileFunction,Legend,Bot*%
%TF.FilePolarity,Positive*%
%FSLAX46Y46*%
G04 Gerber Fmt 4.6, Leading zero omitted, Abs format (unit mm)*
G04 Created by KiCad (PCBNEW 9.0.0) date 2025-05-10 16:34:43*
%MOMM*%
%LPD*%
G01*
G04 APERTURE LIST*
%ADD10C,0.100000*%
%ADD11C,0.000000*%
G04 APERTURE END LIST*
D10*
G36*
X117763328Y-56087404D02*
G01*
X117804239Y-56316870D01*
X117835868Y-56541695D01*
X118124137Y-56578043D01*
X118361357Y-56589078D01*
X118578339Y-56574814D01*
X118774493Y-56533513D01*
X118898104Y-56488682D01*
X119014851Y-56428055D01*
X119125593Y-56350942D01*
X119223644Y-56259445D01*
X119299103Y-56160122D01*
X119354082Y-56051988D01*
X119391548Y-55935495D01*
X119414713Y-55807821D01*
X119422714Y-55667306D01*
X119411960Y-55503782D01*
X119380787Y-55355587D01*
X119330146Y-55220464D01*
X119259227Y-55095113D01*
X119170886Y-54985225D01*
X119064043Y-54889392D01*
X118944065Y-54809157D01*
X118817532Y-54746234D01*
X118683513Y-54699982D01*
X118473939Y-54657301D01*
X118256210Y-54642951D01*
X118042115Y-54653612D01*
X117752337Y-54690457D01*
X117749528Y-54806838D01*
X117741224Y-54969748D01*
X117731332Y-55128628D01*
X117994992Y-55078070D01*
X118178297Y-55065003D01*
X118298793Y-55073560D01*
X118408236Y-55098427D01*
X118508391Y-55139009D01*
X118599456Y-55195920D01*
X118675947Y-55267187D01*
X118739200Y-55354064D01*
X118785788Y-55451024D01*
X118813815Y-55554522D01*
X118823342Y-55666329D01*
X118815028Y-55768358D01*
X118791278Y-55856699D01*
X118753000Y-55933775D01*
X118700567Y-56002364D01*
X118637432Y-56059542D01*
X118562491Y-56106088D01*
X118480179Y-56138737D01*
X118382265Y-56159585D01*
X118265736Y-56167027D01*
X118167138Y-56163207D01*
X118055198Y-56151029D01*
X117933863Y-56128970D01*
X117763328Y-56087404D01*
G37*
G36*
X117400627Y-55551901D02*
G01*
X117366678Y-55360293D01*
X117344329Y-55198482D01*
X117077277Y-55147961D01*
X116852466Y-55120345D01*
X116664479Y-55111898D01*
X116506807Y-55121338D01*
X116368213Y-55148290D01*
X116281804Y-55178980D01*
X116212447Y-55218450D01*
X116157431Y-55266259D01*
X116116817Y-55325083D01*
X116090833Y-55401200D01*
X116081350Y-55499633D01*
X116101866Y-55844138D01*
X116119054Y-56133668D01*
X116133373Y-56550122D01*
X116403628Y-56547313D01*
X116681210Y-56550122D01*
X116663515Y-56358180D01*
X116638712Y-55934996D01*
X116714427Y-55967969D01*
X116817742Y-56000942D01*
X116932902Y-56037944D01*
X117004343Y-56075802D01*
X117046964Y-56122575D01*
X117059542Y-56175697D01*
X117050772Y-56217058D01*
X117023883Y-56252512D01*
X116981188Y-56275215D01*
X116909089Y-56284263D01*
X116848272Y-56279134D01*
X116750819Y-56250314D01*
X116848639Y-56573080D01*
X116967304Y-56585224D01*
X117074441Y-56589078D01*
X117236382Y-56576118D01*
X117358251Y-56541329D01*
X117428512Y-56502765D01*
X117486431Y-56451705D01*
X117533373Y-56386967D01*
X117579987Y-56278327D01*
X117594800Y-56173499D01*
X117589144Y-56109146D01*
X117572086Y-56046004D01*
X117543549Y-55985400D01*
X117501133Y-55924127D01*
X117448831Y-55869041D01*
X117388171Y-55822522D01*
X117316580Y-55783757D01*
X117211828Y-55743143D01*
X117092257Y-55708744D01*
X116928994Y-55673046D01*
X116798935Y-55643614D01*
X116714916Y-55616381D01*
X116674982Y-55589881D01*
X116653244Y-55558740D01*
X116646650Y-55524302D01*
X116657287Y-55478579D01*
X116689026Y-55444801D01*
X116737581Y-55424692D01*
X116814933Y-55416713D01*
X116969149Y-55429354D01*
X117161662Y-55471777D01*
X117400627Y-55551901D01*
G37*
G36*
X115835397Y-56550122D02*
G01*
X115792777Y-55940858D01*
X115779099Y-55593545D01*
X115777756Y-55401570D01*
X115780565Y-55150854D01*
X115514218Y-55153663D01*
X115249214Y-55150854D01*
X115254466Y-55294958D01*
X115173865Y-55213258D01*
X115095219Y-55159525D01*
X115002895Y-55123621D01*
X114902145Y-55111898D01*
X114851058Y-55115723D01*
X114788939Y-55128384D01*
X114782100Y-55371284D01*
X114772330Y-55582309D01*
X114850849Y-55563222D01*
X114917166Y-55557397D01*
X114994970Y-55563766D01*
X115057117Y-55581332D01*
X115112092Y-55611085D01*
X115160921Y-55653506D01*
X115200871Y-55706748D01*
X115233216Y-55774528D01*
X115254507Y-55858071D01*
X115271318Y-56005460D01*
X115282187Y-56368039D01*
X115276447Y-56550122D01*
X115547068Y-56547313D01*
X115835397Y-56550122D01*
G37*
G36*
X113606559Y-56149930D02*
G01*
X113650156Y-56375610D01*
X113680687Y-56541573D01*
X113894766Y-56580774D01*
X114042044Y-56589078D01*
X114155206Y-56583773D01*
X114249528Y-56569050D01*
X114334223Y-56540079D01*
X114401325Y-56495778D01*
X114453015Y-56437623D01*
X114484246Y-56373168D01*
X114500743Y-56302472D01*
X114506350Y-56226744D01*
X114505006Y-56177163D01*
X114495481Y-56019138D01*
X114465683Y-55541765D01*
X114678785Y-55541765D01*
X114666207Y-55294591D01*
X114662055Y-55166608D01*
X114434787Y-55166608D01*
X114414759Y-54893789D01*
X114178087Y-54845917D01*
X113899895Y-54782536D01*
X113913694Y-55166608D01*
X113602163Y-55166608D01*
X113613276Y-55541765D01*
X113927616Y-55541765D01*
X113943858Y-55889078D01*
X113946545Y-55990073D01*
X113942679Y-56053847D01*
X113932501Y-56100715D01*
X113912750Y-56138938D01*
X113883408Y-56163607D01*
X113846766Y-56177814D01*
X113805617Y-56182658D01*
X113737840Y-56178262D01*
X113606559Y-56149930D01*
G37*
G36*
X112827273Y-55121898D02*
G01*
X112972993Y-55151831D01*
X113065859Y-55184725D01*
X113150492Y-55229558D01*
X113227861Y-55286653D01*
X113294790Y-55355320D01*
X113355083Y-55442143D01*
X113408478Y-55550069D01*
X113447582Y-55663994D01*
X113470750Y-55778398D01*
X113478454Y-55894207D01*
X113469662Y-56017879D01*
X113443405Y-56137718D01*
X113399505Y-56249412D01*
X113340945Y-56342027D01*
X113266006Y-56420610D01*
X113173883Y-56486008D01*
X113067659Y-56534022D01*
X112937089Y-56566364D01*
X112796610Y-56583162D01*
X112637037Y-56589078D01*
X112418073Y-56578210D01*
X112148551Y-56533757D01*
X112078454Y-56134054D01*
X112247010Y-56181101D01*
X112369225Y-56208304D01*
X112481635Y-56224608D01*
X112574145Y-56229553D01*
X112672415Y-56221370D01*
X112756338Y-56198117D01*
X112828523Y-56160799D01*
X112885320Y-56107527D01*
X112919910Y-56037820D01*
X112932327Y-55946231D01*
X112931228Y-55910450D01*
X111973796Y-55909106D01*
X111959755Y-55811600D01*
X111955477Y-55730565D01*
X111961659Y-55655826D01*
X112475593Y-55655826D01*
X112476692Y-55690265D01*
X112919260Y-55690265D01*
X112901186Y-55612840D01*
X112871510Y-55552145D01*
X112821074Y-55496824D01*
X112753297Y-55460432D01*
X112675261Y-55447976D01*
X112619509Y-55453641D01*
X112571214Y-55469958D01*
X112530666Y-55498205D01*
X112500383Y-55539933D01*
X112482155Y-55591225D01*
X112475593Y-55655826D01*
X111961659Y-55655826D01*
X111966190Y-55601046D01*
X111997487Y-55482903D01*
X112052825Y-55375110D01*
X112138415Y-55276639D01*
X112208343Y-55222328D01*
X112288251Y-55179645D01*
X112379605Y-55148534D01*
X112524160Y-55121197D01*
X112678070Y-55111898D01*
X112827273Y-55121898D01*
G37*
G36*
X111062159Y-56550000D02*
G01*
X111034438Y-56195481D01*
X110999022Y-55511357D01*
X110984001Y-55026901D01*
X110982658Y-54871074D01*
X110984001Y-54674092D01*
X110690422Y-54678367D01*
X110402337Y-54672260D01*
X110092027Y-54666032D01*
X109920329Y-54672979D01*
X109819818Y-54689480D01*
X109734878Y-54719888D01*
X109659473Y-54763363D01*
X109593567Y-54818582D01*
X109541015Y-54881577D01*
X109500368Y-54953125D01*
X109470795Y-55035572D01*
X109453212Y-55122716D01*
X109447348Y-55211549D01*
X109457463Y-55332294D01*
X109487242Y-55444357D01*
X109536740Y-55549581D01*
X109604489Y-55643220D01*
X109687757Y-55719066D01*
X109788311Y-55778558D01*
X109898734Y-55820088D01*
X110019403Y-55845607D01*
X110152110Y-55854396D01*
X110326378Y-55838276D01*
X110367655Y-55646789D01*
X110418946Y-55454082D01*
X110352424Y-55467143D01*
X110287421Y-55471423D01*
X110198859Y-55462969D01*
X110133070Y-55440209D01*
X110084577Y-55405233D01*
X110047527Y-55357627D01*
X110025550Y-55304253D01*
X110018021Y-55243178D01*
X110021854Y-55198364D01*
X110032676Y-55160746D01*
X110051616Y-55128111D01*
X110079326Y-55101762D01*
X110113068Y-55082751D01*
X110150401Y-55071842D01*
X110239549Y-55065003D01*
X110341765Y-55067690D01*
X110453140Y-55075628D01*
X110480251Y-55660345D01*
X110497958Y-56367794D01*
X110497958Y-56550000D01*
X110773708Y-56547313D01*
X111062159Y-56550000D01*
G37*
G36*
X108630722Y-54865212D02*
G01*
X108705704Y-55014323D01*
X109412055Y-56347156D01*
X109528925Y-56550122D01*
X109187351Y-56547313D01*
X108873255Y-56550000D01*
X108627424Y-56018527D01*
X107944033Y-56018527D01*
X107841183Y-56313178D01*
X107770865Y-56550000D01*
X107430390Y-56547313D01*
X107137665Y-56550122D01*
X107218998Y-56344958D01*
X107489974Y-55612107D01*
X108045027Y-55612107D01*
X108458408Y-55612107D01*
X108362665Y-55412927D01*
X108213921Y-55088939D01*
X108045027Y-55612107D01*
X107489974Y-55612107D01*
X107624807Y-55247452D01*
X107825087Y-54674214D01*
X108184490Y-54676901D01*
X108538031Y-54674214D01*
X108630722Y-54865212D01*
G37*
G36*
X107035083Y-56550122D02*
G01*
X107000401Y-56269242D01*
X106915648Y-55310101D01*
X106873028Y-54674214D01*
X106474546Y-54676901D01*
X106107693Y-54674214D01*
X106077285Y-54855931D01*
X106016468Y-55093946D01*
X105938677Y-55400471D01*
X105853558Y-55826796D01*
X105748778Y-55473377D01*
X105625680Y-55121545D01*
X105532257Y-54863747D01*
X105477424Y-54674214D01*
X105072836Y-54676901D01*
X104697068Y-54674214D01*
X104731507Y-55470568D01*
X104749214Y-56362665D01*
X104746406Y-56550000D01*
X105003227Y-56547313D01*
X105265666Y-56550122D01*
X105237944Y-55959542D01*
X105221580Y-55367864D01*
X105220359Y-55211793D01*
X105395725Y-55770010D01*
X105653401Y-56550000D01*
X105900697Y-56547313D01*
X106163503Y-56550000D01*
X106332152Y-55794312D01*
X106430460Y-55393387D01*
X106442794Y-55335868D01*
X106460868Y-55214602D01*
X106491154Y-55593911D01*
X106536217Y-56371092D01*
X106540491Y-56550000D01*
X106784734Y-56547313D01*
X107035083Y-56550122D01*
G37*
G36*
X104420586Y-56550000D02*
G01*
X104358160Y-55511292D01*
X104341207Y-54854710D01*
X104342550Y-54674214D01*
X104018928Y-54676901D01*
X103720952Y-54674214D01*
X103760886Y-55261374D01*
X103788241Y-55977616D01*
X103796423Y-56550000D01*
X104080355Y-56547313D01*
X104420586Y-56550000D01*
G37*
G36*
X102273935Y-56550000D02*
G01*
X102325226Y-56380373D01*
X102658618Y-55418422D01*
X102922888Y-54674092D01*
X102586566Y-54676901D01*
X102304832Y-54674214D01*
X102254884Y-54861549D01*
X102162072Y-55158182D01*
X101961182Y-55804937D01*
X101890474Y-56057606D01*
X101831856Y-55911182D01*
X101355094Y-54866556D01*
X101327128Y-54801099D01*
X101276325Y-54674214D01*
X100955390Y-54676901D01*
X100650941Y-54674092D01*
X100969556Y-55287386D01*
X101440945Y-56223447D01*
X101594940Y-56550000D01*
X101925401Y-56547313D01*
X102273935Y-56550000D01*
G37*
G36*
X100115073Y-56550122D02*
G01*
X100069766Y-55860380D01*
X100038380Y-55190177D01*
X100130582Y-55248185D01*
X100344905Y-55397295D01*
X100329274Y-55118004D01*
X100322435Y-54886828D01*
X100162822Y-54790718D01*
X100054989Y-54721231D01*
X99994661Y-54674214D01*
X99713171Y-54676901D01*
X99401517Y-54674092D01*
X99429239Y-54983548D01*
X99487979Y-55996179D01*
X99501657Y-56368283D01*
X99501657Y-56550122D01*
X99788398Y-56547313D01*
X100115073Y-56550122D01*
G37*
G36*
X123999213Y-59910122D02*
G01*
X123964531Y-59629242D01*
X123879779Y-58670101D01*
X123837158Y-58034214D01*
X123438676Y-58036901D01*
X123071823Y-58034214D01*
X123041415Y-58215931D01*
X122980599Y-58453946D01*
X122902807Y-58760471D01*
X122817689Y-59186796D01*
X122712908Y-58833377D01*
X122589810Y-58481545D01*
X122496387Y-58223747D01*
X122441555Y-58034214D01*
X122036966Y-58036901D01*
X121661199Y-58034214D01*
X121695637Y-58830568D01*
X121713345Y-59722665D01*
X121710536Y-59910000D01*
X121967357Y-59907313D01*
X122229796Y-59910122D01*
X122202075Y-59319542D01*
X122185710Y-58727864D01*
X122184489Y-58571793D01*
X122359855Y-59130010D01*
X122617532Y-59910000D01*
X122864828Y-59907313D01*
X123127633Y-59910000D01*
X123296283Y-59154312D01*
X123394590Y-58753387D01*
X123406925Y-58695868D01*
X123424999Y-58574602D01*
X123455285Y-58953911D01*
X123500347Y-59731092D01*
X123504622Y-59910000D01*
X123748865Y-59907313D01*
X123999213Y-59910122D01*
G37*
G36*
X120483003Y-58017775D02*
G01*
X120687253Y-58060750D01*
X120873516Y-58130568D01*
X121005253Y-58202786D01*
X121116609Y-58285881D01*
X121209773Y-58379922D01*
X121286286Y-58485575D01*
X121346266Y-58601674D01*
X121389649Y-58727331D01*
X121416326Y-58864057D01*
X121425504Y-59013628D01*
X121417862Y-59148746D01*
X121395672Y-59272328D01*
X121359681Y-59385854D01*
X121306995Y-59491906D01*
X121233465Y-59593120D01*
X121136687Y-59690303D01*
X121026701Y-59772417D01*
X120904060Y-59838258D01*
X120767148Y-59888018D01*
X120624351Y-59921758D01*
X120476578Y-59942183D01*
X120323114Y-59949078D01*
X120167877Y-59942048D01*
X120017863Y-59921190D01*
X119872364Y-59886674D01*
X119732603Y-59836110D01*
X119608935Y-59770400D01*
X119499527Y-59689570D01*
X119403545Y-59593412D01*
X119324006Y-59484673D01*
X119260169Y-59362041D01*
X119214545Y-59231102D01*
X119186666Y-59090442D01*
X119178023Y-58952690D01*
X119776499Y-58952690D01*
X119783806Y-59051106D01*
X119805636Y-59146349D01*
X119842322Y-59239431D01*
X119893345Y-59324506D01*
X119956781Y-59394741D01*
X120033564Y-59451678D01*
X120119787Y-59493469D01*
X120211272Y-59518531D01*
X120309559Y-59527027D01*
X120401932Y-59519551D01*
X120490622Y-59497251D01*
X120576761Y-59459738D01*
X120654561Y-59408245D01*
X120716570Y-59346221D01*
X120764461Y-59272770D01*
X120798463Y-59191118D01*
X120819093Y-59103574D01*
X120826132Y-59008866D01*
X120818498Y-58906095D01*
X120795890Y-58808706D01*
X120758233Y-58715530D01*
X120706014Y-58630348D01*
X120641670Y-58559634D01*
X120564304Y-58501939D01*
X120477452Y-58459408D01*
X120383988Y-58433751D01*
X120282204Y-58425003D01*
X120185459Y-58432808D01*
X120097413Y-58455575D01*
X120016467Y-58493025D01*
X119944050Y-58544519D01*
X119884770Y-58607766D01*
X119837560Y-58684023D01*
X119803848Y-58767855D01*
X119783442Y-58857019D01*
X119776499Y-58952690D01*
X119178023Y-58952690D01*
X119177127Y-58938401D01*
X119186041Y-58793493D01*
X119211632Y-58664675D01*
X119252720Y-58549689D01*
X119310840Y-58442427D01*
X119386271Y-58343024D01*
X119480477Y-58250736D01*
X119586735Y-58172583D01*
X119704628Y-58109713D01*
X119835606Y-58061936D01*
X120041601Y-58017829D01*
X120257657Y-58002951D01*
X120483003Y-58017775D01*
G37*
G36*
X118302860Y-58032260D02*
G01*
X118596440Y-58038367D01*
X118876342Y-58034092D01*
X118876342Y-58198224D01*
X118888676Y-58683900D01*
X118921405Y-59406371D01*
X118962804Y-59910122D01*
X118705738Y-59905847D01*
X118153749Y-59910000D01*
X117971238Y-59905658D01*
X117818526Y-59893635D01*
X117692922Y-59874713D01*
X117608844Y-59853702D01*
X117532996Y-59824443D01*
X117456436Y-59784947D01*
X117360223Y-59719539D01*
X117275941Y-59642676D01*
X117202979Y-59552950D01*
X117137943Y-59444106D01*
X117086215Y-59323649D01*
X117046108Y-59185209D01*
X117021482Y-59039753D01*
X117014200Y-58906161D01*
X117612629Y-58906161D01*
X117622495Y-59037745D01*
X117652075Y-59166158D01*
X117703149Y-59283338D01*
X117773341Y-59373642D01*
X117862215Y-59440462D01*
X117963728Y-59478911D01*
X118076294Y-59497050D01*
X118211146Y-59503579D01*
X118364287Y-59496130D01*
X118318003Y-58448084D01*
X118089514Y-58432819D01*
X117932169Y-58445103D01*
X117825731Y-58476538D01*
X117766908Y-58512127D01*
X117715475Y-58562971D01*
X117670881Y-58631632D01*
X117639623Y-58708028D01*
X117619721Y-58798615D01*
X117612629Y-58906161D01*
X117014200Y-58906161D01*
X117013135Y-58886622D01*
X117023837Y-58730585D01*
X117055756Y-58579609D01*
X117108803Y-58438038D01*
X117179343Y-58319124D01*
X117270067Y-58218347D01*
X117380599Y-58138750D01*
X117505156Y-58081695D01*
X117639252Y-58048014D01*
X117783281Y-58031924D01*
X117961164Y-58026032D01*
X118302860Y-58032260D01*
G37*
G36*
X116801865Y-59910000D02*
G01*
X116751673Y-59314658D01*
X116720288Y-58681824D01*
X116704534Y-58158534D01*
X116705878Y-58034214D01*
X115921858Y-58036901D01*
X115173132Y-58034214D01*
X115176063Y-58083551D01*
X115182902Y-58202498D01*
X115191084Y-58351730D01*
X115193892Y-58452602D01*
X115640490Y-58441612D01*
X115906227Y-58442344D01*
X116117741Y-58448328D01*
X116133617Y-58753387D01*
X115762001Y-58757295D01*
X115350574Y-58745327D01*
X115377197Y-59167501D01*
X115744294Y-59164815D01*
X116162682Y-59175195D01*
X116178680Y-59495764D01*
X116025661Y-59495764D01*
X115737577Y-59491367D01*
X115454744Y-59484040D01*
X115239932Y-59472072D01*
X115267898Y-59910000D01*
X116002458Y-59907191D01*
X116603540Y-59908534D01*
X116801865Y-59910000D01*
G37*
G36*
X114969800Y-59910000D02*
G01*
X114920096Y-59379016D01*
X114877109Y-58639448D01*
X114862699Y-58034214D01*
X114529552Y-58036901D01*
X114246719Y-58034092D01*
X114279814Y-58534180D01*
X114320724Y-59309406D01*
X114326098Y-59495886D01*
X114024091Y-59499916D01*
X113476010Y-59490024D01*
X113506663Y-59910000D01*
X114194817Y-59907313D01*
X114969800Y-59910000D01*
G37*
G36*
X113317985Y-59910000D02*
G01*
X113267793Y-59314658D01*
X113236408Y-58681824D01*
X113220654Y-58158534D01*
X113221998Y-58034214D01*
X112437978Y-58036901D01*
X111689252Y-58034214D01*
X111692183Y-58083551D01*
X111699022Y-58202498D01*
X111707204Y-58351730D01*
X111710012Y-58452602D01*
X112156611Y-58441612D01*
X112422347Y-58442344D01*
X112633861Y-58448328D01*
X112649737Y-58753387D01*
X112278121Y-58757295D01*
X111866694Y-58745327D01*
X111893317Y-59167501D01*
X112260414Y-59164815D01*
X112678802Y-59175195D01*
X112694800Y-59495764D01*
X112541781Y-59495764D01*
X112253697Y-59491367D01*
X111970864Y-59484040D01*
X111756052Y-59472072D01*
X111784018Y-59910000D01*
X112518578Y-59907191D01*
X113119660Y-59908534D01*
X113317985Y-59910000D01*
G37*
G36*
X109847905Y-59447404D02*
G01*
X109888816Y-59676870D01*
X109920445Y-59901695D01*
X110208714Y-59938043D01*
X110445934Y-59949078D01*
X110662916Y-59934814D01*
X110859070Y-59893513D01*
X110982681Y-59848682D01*
X111099428Y-59788055D01*
X111210169Y-59710942D01*
X111308220Y-59619445D01*
X111383680Y-59520122D01*
X111438659Y-59411988D01*
X111476125Y-59295495D01*
X111499290Y-59167821D01*
X111507291Y-59027306D01*
X111496537Y-58863782D01*
X111465364Y-58715587D01*
X111414723Y-58580464D01*
X111343803Y-58455113D01*
X111255463Y-58345225D01*
X111148620Y-58249392D01*
X111028642Y-58169157D01*
X110902109Y-58106234D01*
X110768090Y-58059982D01*
X110558516Y-58017301D01*
X110340787Y-58002951D01*
X110126692Y-58013612D01*
X109836914Y-58050457D01*
X109834105Y-58166838D01*
X109825801Y-58329748D01*
X109815909Y-58488628D01*
X110079569Y-58438070D01*
X110262874Y-58425003D01*
X110383369Y-58433560D01*
X110492813Y-58458427D01*
X110592968Y-58499009D01*
X110684033Y-58555920D01*
X110760524Y-58627187D01*
X110823777Y-58714064D01*
X110870365Y-58811024D01*
X110898392Y-58914522D01*
X110907919Y-59026329D01*
X110899605Y-59128358D01*
X110875855Y-59216699D01*
X110837577Y-59293775D01*
X110785144Y-59362364D01*
X110722009Y-59419542D01*
X110647068Y-59466088D01*
X110564756Y-59498737D01*
X110466842Y-59519585D01*
X110350313Y-59527027D01*
X110251715Y-59523207D01*
X110139775Y-59511029D01*
X110018440Y-59488970D01*
X109847905Y-59447404D01*
G37*
G36*
X108891206Y-59910000D02*
G01*
X108828780Y-58871292D01*
X108811827Y-58214710D01*
X108813170Y-58034214D01*
X108489548Y-58036901D01*
X108191572Y-58034214D01*
X108231506Y-58621374D01*
X108258861Y-59337616D01*
X108267043Y-59910000D01*
X108550975Y-59907313D01*
X108891206Y-59910000D01*
G37*
G36*
X107957099Y-59885942D02*
G01*
X107977894Y-59604545D01*
X107999231Y-59407226D01*
X107843634Y-59471181D01*
X107721038Y-59507609D01*
X107604956Y-59528583D01*
X107512211Y-59534842D01*
X107401319Y-59525139D01*
X107325365Y-59500038D01*
X107285955Y-59472086D01*
X107263933Y-59438732D01*
X107256488Y-59398066D01*
X107263205Y-59354836D01*
X107288606Y-59307941D01*
X107342584Y-59250544D01*
X107599527Y-59026207D01*
X107725313Y-58915321D01*
X107792472Y-58844783D01*
X107838641Y-58784651D01*
X107874109Y-58722717D01*
X107897870Y-58661308D01*
X107911713Y-58597120D01*
X107916433Y-58528073D01*
X107909080Y-58445017D01*
X107886879Y-58363332D01*
X107850176Y-58285819D01*
X107797975Y-58212267D01*
X107730923Y-58148150D01*
X107641171Y-58091001D01*
X107540405Y-58048192D01*
X107432465Y-58021514D01*
X107320277Y-58007642D01*
X107203488Y-58002951D01*
X106967613Y-58016118D01*
X106696928Y-58058394D01*
X106687280Y-58236081D01*
X106660658Y-58520990D01*
X106789641Y-58473167D01*
X106895497Y-58445519D01*
X106995788Y-58429677D01*
X107073673Y-58425003D01*
X107173404Y-58435295D01*
X107248184Y-58463227D01*
X107288736Y-58492794D01*
X107310207Y-58523520D01*
X107317061Y-58556772D01*
X107306436Y-58608796D01*
X107266014Y-58668635D01*
X107187246Y-58744717D01*
X107032884Y-58868304D01*
X106934576Y-58946339D01*
X106840054Y-59032801D01*
X106752249Y-59133185D01*
X106695218Y-59224043D01*
X106665543Y-59307575D01*
X106655773Y-59398066D01*
X106670496Y-59518873D01*
X106715002Y-59634494D01*
X106759799Y-59704792D01*
X106815430Y-59766105D01*
X106882797Y-59819141D01*
X106996482Y-59880461D01*
X107121178Y-59920258D01*
X107252989Y-59941729D01*
X107394730Y-59949078D01*
X107630025Y-59935063D01*
X107957099Y-59885942D01*
G37*
G36*
X106395166Y-59910000D02*
G01*
X106344974Y-59314658D01*
X106313589Y-58681824D01*
X106297835Y-58158534D01*
X106299179Y-58034214D01*
X105515159Y-58036901D01*
X104766433Y-58034214D01*
X104769363Y-58083551D01*
X104776202Y-58202498D01*
X104784384Y-58351730D01*
X104787193Y-58452602D01*
X105233791Y-58441612D01*
X105499527Y-58442344D01*
X105711042Y-58448328D01*
X105726918Y-58753387D01*
X105355302Y-58757295D01*
X104943875Y-58745327D01*
X104970497Y-59167501D01*
X105337594Y-59164815D01*
X105755982Y-59175195D01*
X105771980Y-59495764D01*
X105618962Y-59495764D01*
X105330878Y-59491367D01*
X105048045Y-59484040D01*
X104833233Y-59472072D01*
X104861199Y-59910000D01*
X105595759Y-59907191D01*
X106196841Y-59908534D01*
X106395166Y-59910000D01*
G37*
G36*
X104547957Y-59910000D02*
G01*
X104520236Y-59618496D01*
X104466991Y-58644211D01*
X104451970Y-58251468D01*
X104451970Y-58034214D01*
X104073760Y-58036901D01*
X103744887Y-58034214D01*
X103158948Y-59100579D01*
X103084698Y-59244438D01*
X103055023Y-58612581D01*
X103039269Y-58034092D01*
X102766206Y-58036901D01*
X102494119Y-58034214D01*
X102527214Y-58446130D01*
X102588763Y-59579173D01*
X102597068Y-59910000D01*
X102932902Y-59907313D01*
X103290473Y-59910000D01*
X103396719Y-59713262D01*
X103626307Y-59322351D01*
X103835257Y-58954766D01*
X103958355Y-58723834D01*
X103986443Y-59358988D01*
X104000243Y-59910000D01*
X104262193Y-59907313D01*
X104547957Y-59910000D01*
G37*
G36*
X101583460Y-59910000D02*
G01*
X101574179Y-59734267D01*
X101565142Y-59513960D01*
X101303069Y-59287913D01*
X101117180Y-59112022D01*
X100961617Y-58955254D01*
X100849029Y-58832494D01*
X100762437Y-58727864D01*
X100721929Y-58668201D01*
X100701499Y-58626503D01*
X100690874Y-58569106D01*
X100695334Y-58532639D01*
X100708093Y-58502306D01*
X100729530Y-58476719D01*
X100762804Y-58453824D01*
X100854517Y-58421584D01*
X100977982Y-58409371D01*
X101074461Y-58413285D01*
X101178994Y-58425491D01*
X101473428Y-58488872D01*
X101436670Y-58290547D01*
X101400888Y-58065966D01*
X101158318Y-58030196D01*
X100933104Y-58009583D01*
X100723969Y-58002951D01*
X100581993Y-58009565D01*
X100448463Y-58028963D01*
X100322077Y-58064485D01*
X100212158Y-58117135D01*
X100118550Y-58186605D01*
X100055232Y-58262581D01*
X100015781Y-58349272D01*
X100002720Y-58442100D01*
X100017863Y-58566908D01*
X100038128Y-58627474D01*
X100074283Y-58705150D01*
X100131709Y-58801572D01*
X100202999Y-58898834D01*
X100322745Y-59041170D01*
X100465560Y-59194246D01*
X100799807Y-59511517D01*
X100659611Y-59512739D01*
X100448585Y-59510418D01*
X100229377Y-59505900D01*
X100073428Y-59495397D01*
X100086740Y-59664780D01*
X100105424Y-59910000D01*
X100820934Y-59907313D01*
X101583460Y-59910000D01*
G37*
G36*
X99021591Y-58010459D02*
G01*
X99138378Y-58032707D01*
X99250818Y-58069630D01*
X99355709Y-58122353D01*
X99447238Y-58190558D01*
X99526813Y-58275160D01*
X99591986Y-58372115D01*
X99649223Y-58490444D01*
X99697661Y-58633586D01*
X99743370Y-58855188D01*
X99758599Y-59080673D01*
X99747390Y-59264933D01*
X99714758Y-59434092D01*
X99677694Y-59540513D01*
X99626502Y-59635584D01*
X99560885Y-59720711D01*
X99482714Y-59794617D01*
X99397799Y-59852500D01*
X99305285Y-59895467D01*
X99155895Y-59935455D01*
X98993753Y-59949078D01*
X98865324Y-59940850D01*
X98743552Y-59916542D01*
X98627266Y-59876294D01*
X98518458Y-59819922D01*
X98426911Y-59751512D01*
X98350661Y-59670764D01*
X98288485Y-59577988D01*
X98232849Y-59462357D01*
X98184698Y-59319909D01*
X98138830Y-59100174D01*
X98123638Y-58879539D01*
X98124304Y-58869036D01*
X98675260Y-58869036D01*
X98690281Y-59091420D01*
X98709766Y-59199026D01*
X98737908Y-59300980D01*
X98775179Y-59393874D01*
X98813013Y-59454364D01*
X98857013Y-59500822D01*
X98893735Y-59525073D01*
X98932548Y-59538312D01*
X98971893Y-59542658D01*
X99039330Y-59529900D01*
X99098533Y-59491123D01*
X99144707Y-59431300D01*
X99180110Y-59344577D01*
X99199639Y-59242942D01*
X99207099Y-59103632D01*
X99200696Y-58940644D01*
X99182553Y-58797962D01*
X99154604Y-58676056D01*
X99117340Y-58573991D01*
X99074954Y-58500932D01*
X99021474Y-58447107D01*
X98968648Y-58418823D01*
X98909123Y-58409371D01*
X98844145Y-58421334D01*
X98788278Y-58457330D01*
X98738763Y-58522456D01*
X98706430Y-58600966D01*
X98683907Y-58713107D01*
X98675260Y-58869036D01*
X98124304Y-58869036D01*
X98135501Y-58692337D01*
X98169299Y-58528973D01*
X98223167Y-58385924D01*
X98280074Y-58285442D01*
X98345147Y-58204028D01*
X98418460Y-58139293D01*
X98500749Y-58089658D01*
X98622073Y-58042110D01*
X98754311Y-58012972D01*
X98899475Y-58002951D01*
X99021591Y-58010459D01*
G37*
G36*
X97937403Y-59910000D02*
G01*
X97928121Y-59734267D01*
X97919084Y-59513960D01*
X97657012Y-59287913D01*
X97471123Y-59112022D01*
X97315560Y-58955254D01*
X97202972Y-58832494D01*
X97116380Y-58727864D01*
X97075872Y-58668201D01*
X97055442Y-58626503D01*
X97044817Y-58569106D01*
X97049276Y-58532639D01*
X97062036Y-58502306D01*
X97083472Y-58476719D01*
X97116747Y-58453824D01*
X97208460Y-58421584D01*
X97331925Y-58409371D01*
X97428403Y-58413285D01*
X97532936Y-58425491D01*
X97827371Y-58488872D01*
X97790613Y-58290547D01*
X97754831Y-58065966D01*
X97512260Y-58030196D01*
X97287046Y-58009583D01*
X97077912Y-58002951D01*
X96935936Y-58009565D01*
X96802406Y-58028963D01*
X96676020Y-58064485D01*
X96566101Y-58117135D01*
X96472492Y-58186605D01*
X96409175Y-58262581D01*
X96369724Y-58349272D01*
X96356663Y-58442100D01*
X96371806Y-58566908D01*
X96392071Y-58627474D01*
X96428226Y-58705150D01*
X96485652Y-58801572D01*
X96556942Y-58898834D01*
X96676688Y-59041170D01*
X96819503Y-59194246D01*
X97153749Y-59511517D01*
X97013554Y-59512739D01*
X96802528Y-59510418D01*
X96583320Y-59505900D01*
X96427371Y-59495397D01*
X96440682Y-59664780D01*
X96459367Y-59910000D01*
X97174876Y-59907313D01*
X97937403Y-59910000D01*
G37*
G36*
X96001656Y-59885819D02*
G01*
X96011426Y-59747212D01*
X96020340Y-59627777D01*
X96039391Y-59447526D01*
X95844688Y-59494616D01*
X95689119Y-59519600D01*
X95566293Y-59527027D01*
X95470040Y-59518819D01*
X95384088Y-59495031D01*
X95309028Y-59455298D01*
X95256593Y-59404905D01*
X95223180Y-59343613D01*
X95212263Y-59277899D01*
X95222413Y-59216173D01*
X95251861Y-59166428D01*
X95302999Y-59125614D01*
X95366178Y-59099357D01*
X95458576Y-59080871D01*
X95589496Y-59073712D01*
X95760710Y-59079818D01*
X95992741Y-59105586D01*
X95922643Y-58219351D01*
X95914339Y-58034214D01*
X95250731Y-58036901D01*
X94576987Y-58034214D01*
X94592375Y-58260994D01*
X94599336Y-58448572D01*
X94784960Y-58442833D01*
X94869468Y-58441734D01*
X95001970Y-58441734D01*
X95212385Y-58440635D01*
X95348184Y-58440635D01*
X95374807Y-58752899D01*
X95236932Y-58745450D01*
X95095642Y-58753557D01*
X94970586Y-58776761D01*
X94859576Y-58813838D01*
X94756923Y-58867662D01*
X94678430Y-58931440D01*
X94620340Y-59005324D01*
X94578494Y-59090233D01*
X94553167Y-59182332D01*
X94544503Y-59283394D01*
X94552958Y-59381930D01*
X94578379Y-59478022D01*
X94621562Y-59572944D01*
X94679446Y-59659537D01*
X94749433Y-59732846D01*
X94832465Y-59793984D01*
X94974371Y-59863665D01*
X95142532Y-59912564D01*
X95320215Y-59939891D01*
X95503400Y-59949078D01*
X95669119Y-59940163D01*
X95830564Y-59920380D01*
X96001656Y-59885819D01*
G37*
D11*
%TO.C,G\u002A\u002A\u002A*%
G36*
X107374792Y-44860738D02*
G01*
X107374792Y-45557567D01*
X105104385Y-45557567D01*
X102833978Y-45557567D01*
X102833978Y-44860738D01*
X102833978Y-44500900D01*
X103176681Y-44500900D01*
X103176681Y-44857882D01*
X103176681Y-45214864D01*
X105107241Y-45214864D01*
X107037801Y-45214864D01*
X107037801Y-44857882D01*
X107037801Y-44500900D01*
X105107241Y-44500900D01*
X103176681Y-44500900D01*
X102833978Y-44500900D01*
X102833978Y-44163908D01*
X105104385Y-44163908D01*
X107374792Y-44163908D01*
X107374792Y-44500900D01*
X107374792Y-44860738D01*
G37*
G36*
X107374792Y-51109355D02*
G01*
X105041556Y-51109355D01*
X102708320Y-51109355D01*
X102708320Y-50412525D01*
X102708320Y-50052687D01*
X103051023Y-50052687D01*
X103051023Y-50409670D01*
X103051023Y-50766652D01*
X105044419Y-50766652D01*
X107037814Y-50766652D01*
X107036380Y-48406285D01*
X107034945Y-46045919D01*
X106546593Y-46045919D01*
X106058241Y-46045919D01*
X106056805Y-48049303D01*
X106055369Y-50052687D01*
X104553196Y-50052687D01*
X103051023Y-50052687D01*
X102708320Y-50052687D01*
X102708320Y-49715696D01*
X104210501Y-49715696D01*
X105712683Y-49715696D01*
X105712683Y-47710884D01*
X105712683Y-45706072D01*
X106543737Y-45706072D01*
X107374792Y-45706072D01*
X107374792Y-48407713D01*
X107374792Y-50766652D01*
X107374792Y-51109355D01*
G37*
G36*
X114325950Y-49435822D02*
G01*
X113534877Y-49435822D01*
X112743805Y-49435822D01*
X112743805Y-47729779D01*
X112743805Y-46111221D01*
X113086486Y-46111221D01*
X113087925Y-47600742D01*
X113089364Y-49090263D01*
X113533449Y-49091726D01*
X113977535Y-49093189D01*
X113977535Y-46744687D01*
X113977534Y-46652537D01*
X113977522Y-46491021D01*
X113977499Y-46332642D01*
X113977467Y-46177778D01*
X113977424Y-46026805D01*
X113977371Y-45880101D01*
X113977310Y-45738041D01*
X113977239Y-45601002D01*
X113977160Y-45469361D01*
X113977073Y-45343494D01*
X113976979Y-45223778D01*
X113976877Y-45110590D01*
X113976768Y-45004306D01*
X113976652Y-44905302D01*
X113976530Y-44813956D01*
X113976402Y-44730644D01*
X113976269Y-44655743D01*
X113976130Y-44589629D01*
X113975987Y-44532678D01*
X113975840Y-44485268D01*
X113975688Y-44447776D01*
X113975533Y-44420576D01*
X113975375Y-44404047D01*
X113975214Y-44398565D01*
X113973760Y-44401086D01*
X113968863Y-44410212D01*
X113960434Y-44426182D01*
X113948364Y-44449203D01*
X113932547Y-44479479D01*
X113912875Y-44517219D01*
X113889242Y-44562628D01*
X113861540Y-44615912D01*
X113829662Y-44677279D01*
X113793500Y-44746935D01*
X113752948Y-44825086D01*
X113707898Y-44911938D01*
X113658244Y-45007698D01*
X113603877Y-45112573D01*
X113544691Y-45226768D01*
X113480579Y-45350491D01*
X113411433Y-45483948D01*
X113337146Y-45627344D01*
X113086486Y-46111221D01*
X112743805Y-46111221D01*
X112743805Y-46023737D01*
X113181851Y-45178070D01*
X113194112Y-45154401D01*
X113245687Y-45054836D01*
X113297995Y-44953856D01*
X113350576Y-44852352D01*
X113402969Y-44751212D01*
X113454714Y-44651325D01*
X113505350Y-44553580D01*
X113554416Y-44458867D01*
X113601452Y-44368075D01*
X113645998Y-44282091D01*
X113687592Y-44201806D01*
X113725775Y-44128109D01*
X113760086Y-44061888D01*
X113790063Y-44004032D01*
X113815247Y-43955431D01*
X114010597Y-43578458D01*
X114168273Y-43576939D01*
X114325950Y-43575421D01*
X114325950Y-46505622D01*
X114325950Y-49093189D01*
X114325950Y-49435822D01*
G37*
G36*
X113911283Y-43507367D02*
G01*
X113884985Y-43557794D01*
X113846483Y-43631621D01*
X113803256Y-43714512D01*
X113755615Y-43805867D01*
X113703874Y-43905084D01*
X113648346Y-44011563D01*
X113589344Y-44124703D01*
X113527183Y-44243903D01*
X113462175Y-44368563D01*
X113394634Y-44498081D01*
X113324872Y-44631857D01*
X113253203Y-44769290D01*
X113179941Y-44909780D01*
X113105399Y-45052724D01*
X113029889Y-45197524D01*
X112953726Y-45343577D01*
X112877223Y-45490283D01*
X112800693Y-45637041D01*
X112724449Y-45783251D01*
X112648804Y-45928311D01*
X112574073Y-46071621D01*
X112520571Y-46174218D01*
X112451178Y-46307284D01*
X112383120Y-46437782D01*
X112316596Y-46565333D01*
X112251802Y-46689561D01*
X112188936Y-46810087D01*
X112128195Y-46926532D01*
X112069777Y-47038520D01*
X112013878Y-47145670D01*
X111960695Y-47247607D01*
X111910427Y-47343950D01*
X111863271Y-47434324D01*
X111819423Y-47518348D01*
X111779081Y-47595646D01*
X111742442Y-47665839D01*
X111709703Y-47728550D01*
X111681063Y-47783399D01*
X111656717Y-47830010D01*
X111636864Y-47868003D01*
X111621700Y-47897002D01*
X111611423Y-47916627D01*
X111606230Y-47926501D01*
X111572136Y-47990758D01*
X110755744Y-47990758D01*
X109939352Y-47990758D01*
X109939352Y-47862549D01*
X109939352Y-47734341D01*
X109987484Y-47641981D01*
X110379154Y-47641981D01*
X110381116Y-47642704D01*
X110392939Y-47643830D01*
X110414586Y-47644834D01*
X110445051Y-47645717D01*
X110483329Y-47646479D01*
X110528415Y-47647123D01*
X110579303Y-47647649D01*
X110634989Y-47648057D01*
X110694467Y-47648351D01*
X110756732Y-47648529D01*
X110820778Y-47648594D01*
X110885602Y-47648547D01*
X110950197Y-47648388D01*
X111013558Y-47648119D01*
X111074680Y-47647741D01*
X111132558Y-47647254D01*
X111186187Y-47646661D01*
X111234561Y-47645962D01*
X111276675Y-47645158D01*
X111311525Y-47644250D01*
X111338104Y-47643240D01*
X111355409Y-47642128D01*
X111362432Y-47640915D01*
X111362819Y-47640437D01*
X111367621Y-47632319D01*
X111377324Y-47614757D01*
X111391634Y-47588311D01*
X111410253Y-47553540D01*
X111432888Y-47511007D01*
X111459242Y-47461269D01*
X111489020Y-47404889D01*
X111521926Y-47342425D01*
X111557665Y-47274438D01*
X111595942Y-47201488D01*
X111636459Y-47124135D01*
X111678924Y-47042940D01*
X111723038Y-46958462D01*
X111768508Y-46871262D01*
X111796165Y-46818187D01*
X111835799Y-46742139D01*
X111880112Y-46657124D01*
X111928762Y-46563795D01*
X111981412Y-46462803D01*
X112037721Y-46354796D01*
X112097350Y-46240428D01*
X112159961Y-46120348D01*
X112225213Y-45995207D01*
X112292767Y-45865656D01*
X112362284Y-45732346D01*
X112433425Y-45595927D01*
X112505850Y-45457050D01*
X112579219Y-45316366D01*
X112653194Y-45174526D01*
X112727436Y-45032181D01*
X112801604Y-44889981D01*
X112875359Y-44748577D01*
X112948363Y-44608620D01*
X113020275Y-44470761D01*
X113080064Y-44356139D01*
X113145706Y-44230279D01*
X113209802Y-44107369D01*
X113272154Y-43987787D01*
X113332565Y-43871910D01*
X113390840Y-43760116D01*
X113446780Y-43652783D01*
X113500191Y-43550289D01*
X113550873Y-43453011D01*
X113598632Y-43361328D01*
X113643270Y-43275616D01*
X113684590Y-43196255D01*
X113722397Y-43123620D01*
X113756492Y-43058092D01*
X113786679Y-43000046D01*
X113812762Y-42949861D01*
X113834544Y-42907915D01*
X113851828Y-42874585D01*
X113864417Y-42850249D01*
X113872115Y-42835285D01*
X113874724Y-42830071D01*
X113871096Y-42829743D01*
X113856925Y-42829352D01*
X113832815Y-42828984D01*
X113799587Y-42828642D01*
X113758065Y-42828330D01*
X113709071Y-42828055D01*
X113653426Y-42827819D01*
X113591953Y-42827628D01*
X113525476Y-42827486D01*
X113454815Y-42827397D01*
X113380793Y-42827367D01*
X112886861Y-42827367D01*
X112878804Y-42840218D01*
X112877402Y-42842731D01*
X112870976Y-42854766D01*
X112859767Y-42876003D01*
X112844084Y-42905848D01*
X112824238Y-42943707D01*
X112800539Y-42988986D01*
X112773297Y-43041090D01*
X112742824Y-43099427D01*
X112709429Y-43163401D01*
X112673423Y-43232419D01*
X112635116Y-43305886D01*
X112594819Y-43383209D01*
X112552842Y-43463792D01*
X112509495Y-43547043D01*
X112482488Y-43598924D01*
X112429920Y-43699897D01*
X112373308Y-43808628D01*
X112313449Y-43923589D01*
X112251138Y-44043251D01*
X112187171Y-44166086D01*
X112122344Y-44290566D01*
X112057453Y-44415162D01*
X111993295Y-44538346D01*
X111930664Y-44658590D01*
X111870357Y-44774365D01*
X111813170Y-44884143D01*
X111759899Y-44986395D01*
X111711519Y-45079253D01*
X111619510Y-45255853D01*
X111532529Y-45422800D01*
X111450412Y-45580412D01*
X111372991Y-45729008D01*
X111300102Y-45868906D01*
X111231579Y-46000423D01*
X111167256Y-46123878D01*
X111106967Y-46239589D01*
X111050546Y-46347873D01*
X110997829Y-46449049D01*
X110948648Y-46543435D01*
X110902839Y-46631349D01*
X110860236Y-46713109D01*
X110820673Y-46789033D01*
X110783984Y-46859439D01*
X110750003Y-46924645D01*
X110718565Y-46984969D01*
X110689504Y-47040730D01*
X110662655Y-47092244D01*
X110637851Y-47139831D01*
X110614927Y-47183808D01*
X110593717Y-47224493D01*
X110574055Y-47262205D01*
X110555777Y-47297261D01*
X110538715Y-47329980D01*
X110522704Y-47360679D01*
X110507684Y-47389510D01*
X110481500Y-47439936D01*
X110457242Y-47486862D01*
X110435392Y-47529343D01*
X110416433Y-47566433D01*
X110400847Y-47597188D01*
X110389117Y-47620661D01*
X110381726Y-47635907D01*
X110379154Y-47641981D01*
X109987484Y-47641981D01*
X110284050Y-47072905D01*
X110287958Y-47065405D01*
X110322542Y-46999041D01*
X110361983Y-46923355D01*
X110405906Y-46839068D01*
X110453936Y-46746898D01*
X110505698Y-46647566D01*
X110560816Y-46541793D01*
X110618915Y-46430296D01*
X110679621Y-46313798D01*
X110742558Y-46193018D01*
X110807350Y-46068675D01*
X110873624Y-45941490D01*
X110941003Y-45812183D01*
X111009112Y-45681473D01*
X111077576Y-45550081D01*
X111146021Y-45418727D01*
X111214070Y-45288130D01*
X111281349Y-45159011D01*
X111347483Y-45032089D01*
X111363867Y-45000646D01*
X111429605Y-44874484D01*
X111496069Y-44746932D01*
X111562904Y-44618669D01*
X111629758Y-44490372D01*
X111696277Y-44362718D01*
X111762109Y-44236385D01*
X111826899Y-44112051D01*
X111890296Y-43990394D01*
X111951946Y-43872091D01*
X112011496Y-43757819D01*
X112068592Y-43648258D01*
X112122882Y-43544083D01*
X112174012Y-43445973D01*
X112221629Y-43354606D01*
X112265381Y-43270659D01*
X112304913Y-43194810D01*
X112339873Y-43127736D01*
X112369908Y-43070115D01*
X112673597Y-42487520D01*
X113492634Y-42487520D01*
X114311671Y-42487520D01*
X114313207Y-42610628D01*
X114314743Y-42733736D01*
X114264503Y-42830071D01*
X113911283Y-43507367D01*
G37*
G36*
X109027859Y-42506067D02*
G01*
X109029174Y-42508868D01*
X109031512Y-42513932D01*
X109034919Y-42521371D01*
X109039529Y-42531484D01*
X109045478Y-42544568D01*
X109052900Y-42560921D01*
X109061928Y-42580839D01*
X109072699Y-42604622D01*
X109085345Y-42632567D01*
X109100002Y-42664970D01*
X109116803Y-42702130D01*
X109135884Y-42744345D01*
X109157379Y-42791912D01*
X109181421Y-42845129D01*
X109208147Y-42904293D01*
X109237690Y-42969702D01*
X109270184Y-43041654D01*
X109305765Y-43120446D01*
X109344565Y-43206376D01*
X109386721Y-43299742D01*
X109432366Y-43400841D01*
X109481635Y-43509971D01*
X109534663Y-43627429D01*
X109591583Y-43753514D01*
X109652530Y-43888522D01*
X109717639Y-44032752D01*
X109787044Y-44186501D01*
X109860879Y-44350066D01*
X109939280Y-44523747D01*
X109963318Y-44576998D01*
X110009463Y-44679224D01*
X110055829Y-44781936D01*
X110102036Y-44884298D01*
X110147707Y-44985470D01*
X110192462Y-45084614D01*
X110235924Y-45180892D01*
X110277714Y-45273466D01*
X110317453Y-45361496D01*
X110354763Y-45444145D01*
X110389265Y-45520574D01*
X110420581Y-45589945D01*
X110448333Y-45651419D01*
X110472142Y-45704158D01*
X110491630Y-45747324D01*
X110643054Y-46082729D01*
X110281208Y-46772577D01*
X109919361Y-47462424D01*
X109793337Y-47463959D01*
X109667312Y-47465493D01*
X109485832Y-47058427D01*
X109482032Y-47049901D01*
X109454501Y-46988143D01*
X109422965Y-46917391D01*
X109387979Y-46838893D01*
X109350101Y-46753901D01*
X109309888Y-46663664D01*
X109267897Y-46569433D01*
X109224686Y-46472458D01*
X109180810Y-46373988D01*
X109136827Y-46275274D01*
X109093295Y-46177565D01*
X109050770Y-46082113D01*
X109009809Y-45990167D01*
X109006785Y-45983378D01*
X108970278Y-45901474D01*
X108935078Y-45822582D01*
X108901463Y-45747323D01*
X108869712Y-45676314D01*
X108840102Y-45610175D01*
X108812910Y-45549523D01*
X108788415Y-45494979D01*
X108766895Y-45447160D01*
X108748627Y-45406685D01*
X108733890Y-45374173D01*
X108722960Y-45350243D01*
X108716116Y-45335514D01*
X108713636Y-45330603D01*
X108713429Y-45333062D01*
X108713457Y-45345294D01*
X108713892Y-45366337D01*
X108714692Y-45394591D01*
X108715814Y-45428452D01*
X108717216Y-45466319D01*
X108717267Y-45467704D01*
X108717670Y-45485197D01*
X108718065Y-45513599D01*
X108718452Y-45552454D01*
X108718829Y-45601305D01*
X108719196Y-45659694D01*
X108719550Y-45727164D01*
X108719891Y-45803258D01*
X108720217Y-45887518D01*
X108720527Y-45979489D01*
X108720821Y-46078713D01*
X108721096Y-46184732D01*
X108721353Y-46297089D01*
X108721588Y-46415328D01*
X108721802Y-46538991D01*
X108721993Y-46667622D01*
X108722160Y-46800762D01*
X108722302Y-46937955D01*
X108722417Y-47078744D01*
X108722504Y-47222671D01*
X108722563Y-47369280D01*
X108722591Y-47518114D01*
X108722757Y-49435822D01*
X108185856Y-49435822D01*
X107648954Y-49435822D01*
X107648954Y-49264513D01*
X107648954Y-49093204D01*
X108013076Y-49091733D01*
X108377198Y-49090263D01*
X108378939Y-47416731D01*
X108379088Y-47267642D01*
X108379236Y-47101015D01*
X108379350Y-46945004D01*
X108379425Y-46799172D01*
X108379459Y-46663081D01*
X108379447Y-46536294D01*
X108379385Y-46418373D01*
X108379270Y-46308879D01*
X108379098Y-46207376D01*
X108378865Y-46113426D01*
X108378567Y-46026591D01*
X108378201Y-45946433D01*
X108377763Y-45872515D01*
X108377249Y-45804399D01*
X108376655Y-45741647D01*
X108375977Y-45683821D01*
X108375213Y-45630485D01*
X108374357Y-45581199D01*
X108373406Y-45535527D01*
X108372357Y-45493031D01*
X108371206Y-45453273D01*
X108369948Y-45415815D01*
X108368580Y-45380220D01*
X108367099Y-45346049D01*
X108365500Y-45312866D01*
X108363781Y-45280233D01*
X108361936Y-45247711D01*
X108359962Y-45214864D01*
X108359555Y-45208290D01*
X108349212Y-45060614D01*
X108336541Y-44911367D01*
X108321817Y-44763140D01*
X108305317Y-44618523D01*
X108287315Y-44480108D01*
X108268086Y-44350486D01*
X108265627Y-44334434D01*
X108262722Y-44313363D01*
X108261101Y-44298584D01*
X108261065Y-44292584D01*
X108261746Y-44292286D01*
X108270622Y-44289337D01*
X108288651Y-44283675D01*
X108314463Y-44275717D01*
X108346690Y-44265886D01*
X108383963Y-44254600D01*
X108424915Y-44242280D01*
X108586867Y-44193708D01*
X108598558Y-44220218D01*
X108599087Y-44221414D01*
X108603848Y-44232126D01*
X108612964Y-44252611D01*
X108626207Y-44282355D01*
X108643346Y-44320843D01*
X108664154Y-44367563D01*
X108688401Y-44421999D01*
X108715858Y-44483638D01*
X108746297Y-44551966D01*
X108779487Y-44626468D01*
X108815201Y-44706631D01*
X108853209Y-44791940D01*
X108893282Y-44881882D01*
X108935191Y-44975942D01*
X108978707Y-45073607D01*
X109023602Y-45174362D01*
X109069645Y-45277693D01*
X109107130Y-45361816D01*
X109155395Y-45470132D01*
X109203482Y-45578048D01*
X109251072Y-45684849D01*
X109297844Y-45789817D01*
X109343481Y-45892236D01*
X109387662Y-45991388D01*
X109430067Y-46086558D01*
X109470379Y-46177027D01*
X109508276Y-46262080D01*
X109543440Y-46340999D01*
X109575552Y-46413068D01*
X109604292Y-46477570D01*
X109629340Y-46533788D01*
X109650377Y-46581005D01*
X109667085Y-46618504D01*
X109690797Y-46671633D01*
X109714432Y-46724386D01*
X109736325Y-46773046D01*
X109756063Y-46816705D01*
X109773232Y-46854457D01*
X109787422Y-46885394D01*
X109798219Y-46908610D01*
X109805210Y-46923197D01*
X109807983Y-46928249D01*
X109809523Y-46925873D01*
X109815966Y-46914369D01*
X109827042Y-46893987D01*
X109842358Y-46865463D01*
X109861525Y-46829535D01*
X109884151Y-46786938D01*
X109909844Y-46738410D01*
X109938214Y-46684688D01*
X109968870Y-46626507D01*
X110001420Y-46564606D01*
X110035473Y-46499721D01*
X110260107Y-46071296D01*
X109773272Y-44993373D01*
X109733750Y-44905864D01*
X109681292Y-44789707D01*
X109628069Y-44671852D01*
X109574472Y-44553165D01*
X109520891Y-44434509D01*
X109467718Y-44316750D01*
X109415341Y-44200753D01*
X109364153Y-44087382D01*
X109314543Y-43977504D01*
X109266903Y-43871981D01*
X109221621Y-43771680D01*
X109179090Y-43677465D01*
X109139699Y-43590201D01*
X109103839Y-43510753D01*
X109071900Y-43439986D01*
X109044274Y-43378765D01*
X109018240Y-43321106D01*
X108985769Y-43249289D01*
X108954794Y-43180894D01*
X108925633Y-43116620D01*
X108898607Y-43057166D01*
X108874035Y-43003232D01*
X108852236Y-42955517D01*
X108833528Y-42914722D01*
X108818232Y-42881546D01*
X108806667Y-42856687D01*
X108799151Y-42840847D01*
X108796005Y-42834724D01*
X108793332Y-42833634D01*
X108786581Y-42832616D01*
X108775258Y-42831707D01*
X108758836Y-42830903D01*
X108736789Y-42830198D01*
X108708588Y-42829586D01*
X108673708Y-42829061D01*
X108631620Y-42828619D01*
X108581799Y-42828254D01*
X108523716Y-42827960D01*
X108456845Y-42827732D01*
X108380659Y-42827564D01*
X108294631Y-42827451D01*
X108198234Y-42827387D01*
X108090940Y-42827367D01*
X107391981Y-42827367D01*
X107390526Y-43408534D01*
X107389071Y-43989701D01*
X107217720Y-43989701D01*
X107046368Y-43989701D01*
X107046368Y-43238610D01*
X107046368Y-42487520D01*
X108032002Y-42486076D01*
X109017635Y-42484632D01*
X109027859Y-42506067D01*
G37*
G36*
X105486692Y-47494059D02*
G01*
X105486903Y-47535463D01*
X105487016Y-47585584D01*
X105487061Y-47645324D01*
X105487070Y-47715585D01*
X105487065Y-47788126D01*
X105487000Y-47850756D01*
X105486797Y-47903720D01*
X105486380Y-47947901D01*
X105485671Y-47984183D01*
X105484593Y-48013447D01*
X105483071Y-48036577D01*
X105481026Y-48054454D01*
X105478382Y-48067963D01*
X105475061Y-48077984D01*
X105470987Y-48085402D01*
X105466084Y-48091098D01*
X105460273Y-48095955D01*
X105453477Y-48100857D01*
X105449654Y-48103439D01*
X105440742Y-48107989D01*
X105429434Y-48111193D01*
X105413471Y-48113418D01*
X105390599Y-48115036D01*
X105358561Y-48116416D01*
X105281448Y-48119272D01*
X105279807Y-48179030D01*
X105279578Y-48186394D01*
X105277639Y-48216818D01*
X105273881Y-48237740D01*
X105267620Y-48250722D01*
X105258176Y-48257328D01*
X105244865Y-48259121D01*
X105234676Y-48258615D01*
X105224871Y-48255690D01*
X105218337Y-48248541D01*
X105214244Y-48235369D01*
X105211759Y-48214373D01*
X105210052Y-48183754D01*
X105207196Y-48119272D01*
X105118664Y-48119272D01*
X105030133Y-48119272D01*
X105027277Y-48183754D01*
X105026014Y-48208038D01*
X105023790Y-48231156D01*
X105020154Y-48246024D01*
X105014275Y-48254441D01*
X105005322Y-48258207D01*
X104992464Y-48259121D01*
X104989459Y-48259072D01*
X104976976Y-48256441D01*
X104968223Y-48248685D01*
X104962518Y-48234240D01*
X104959178Y-48211543D01*
X104957521Y-48179030D01*
X104955880Y-48119272D01*
X104875916Y-48119272D01*
X104795952Y-48119272D01*
X104793096Y-48179828D01*
X104791920Y-48200626D01*
X104789206Y-48226657D01*
X104784830Y-48243827D01*
X104777993Y-48253725D01*
X104767895Y-48257943D01*
X104753735Y-48258070D01*
X104749375Y-48257569D01*
X104736713Y-48253458D01*
X104727993Y-48244475D01*
X104722559Y-48229001D01*
X104719756Y-48205417D01*
X104718928Y-48172105D01*
X104718844Y-48116416D01*
X104647448Y-48116416D01*
X104576051Y-48116416D01*
X104575650Y-48172105D01*
X104575553Y-48181931D01*
X104574696Y-48209775D01*
X104572588Y-48229004D01*
X104568645Y-48241795D01*
X104562281Y-48250324D01*
X104552912Y-48256769D01*
X104550749Y-48257962D01*
X104538803Y-48263520D01*
X104529419Y-48263525D01*
X104516210Y-48258229D01*
X104510401Y-48255194D01*
X104504118Y-48249532D01*
X104499918Y-48240565D01*
X104497285Y-48226262D01*
X104495702Y-48204594D01*
X104494653Y-48173533D01*
X104493231Y-48119272D01*
X104410411Y-48119272D01*
X104327592Y-48119272D01*
X104324736Y-48179828D01*
X104323559Y-48200626D01*
X104320845Y-48226657D01*
X104316470Y-48243827D01*
X104309633Y-48253725D01*
X104299534Y-48257943D01*
X104285374Y-48258070D01*
X104280890Y-48257551D01*
X104268277Y-48253415D01*
X104259592Y-48244405D01*
X104254181Y-48228903D01*
X104251391Y-48205290D01*
X104250568Y-48171948D01*
X104250483Y-48116102D01*
X104169091Y-48117687D01*
X104087700Y-48119272D01*
X104084844Y-48183754D01*
X104083581Y-48208038D01*
X104081357Y-48231156D01*
X104077721Y-48246024D01*
X104071842Y-48254441D01*
X104062889Y-48258207D01*
X104050031Y-48259121D01*
X104047026Y-48259072D01*
X104034543Y-48256441D01*
X104025790Y-48248685D01*
X104020084Y-48234240D01*
X104016745Y-48211543D01*
X104015088Y-48179030D01*
X104013447Y-48119272D01*
X103938404Y-48117682D01*
X103863361Y-48116093D01*
X103861187Y-48179624D01*
X103860304Y-48199972D01*
X103857944Y-48225824D01*
X103853747Y-48242975D01*
X103846871Y-48253125D01*
X103836473Y-48257971D01*
X103821712Y-48259209D01*
X103817847Y-48259090D01*
X103806613Y-48256312D01*
X103798687Y-48248621D01*
X103793378Y-48234393D01*
X103789992Y-48212004D01*
X103787834Y-48179828D01*
X103784979Y-48119272D01*
X103705015Y-48116416D01*
X103699140Y-48116201D01*
X103664929Y-48114554D01*
X103639772Y-48112196D01*
X103621605Y-48108558D01*
X103608359Y-48103070D01*
X103597969Y-48095163D01*
X103588367Y-48084267D01*
X103587408Y-48083030D01*
X103585106Y-48079623D01*
X103583154Y-48075360D01*
X103581524Y-48069361D01*
X103580187Y-48060744D01*
X103579115Y-48048629D01*
X103578280Y-48032135D01*
X103577655Y-48010382D01*
X103577209Y-47982490D01*
X103576917Y-47947577D01*
X103576748Y-47904763D01*
X103576676Y-47853167D01*
X103576671Y-47791910D01*
X103576706Y-47720109D01*
X103576841Y-47490983D01*
X103739285Y-47490983D01*
X103739285Y-47719451D01*
X103739285Y-47947920D01*
X104528930Y-47949368D01*
X105318574Y-47950816D01*
X105318574Y-47719451D01*
X105318574Y-47488087D01*
X104528930Y-47489535D01*
X103739285Y-47490983D01*
X103576841Y-47490983D01*
X103576912Y-47371037D01*
X103589558Y-47356011D01*
X103598694Y-47346139D01*
X103611762Y-47336068D01*
X103627603Y-47329252D01*
X103648370Y-47325105D01*
X103676218Y-47323044D01*
X103713298Y-47322487D01*
X103787834Y-47322487D01*
X103787922Y-47255375D01*
X103788258Y-47229942D01*
X103789182Y-47206728D01*
X103790547Y-47189900D01*
X103792206Y-47181977D01*
X103796556Y-47176668D01*
X103812065Y-47167680D01*
X103829680Y-47166911D01*
X103845713Y-47173987D01*
X103856477Y-47188531D01*
X103858059Y-47195120D01*
X103860135Y-47212659D01*
X103861558Y-47236319D01*
X103862087Y-47262886D01*
X103862087Y-47322487D01*
X103950618Y-47322487D01*
X104039150Y-47322487D01*
X104039150Y-47255038D01*
X104039463Y-47227107D01*
X104041061Y-47201021D01*
X104044553Y-47183486D01*
X104050530Y-47172921D01*
X104059585Y-47167742D01*
X104072307Y-47166367D01*
X104074109Y-47166375D01*
X104087268Y-47167468D01*
X104096474Y-47171579D01*
X104102425Y-47180388D01*
X104105814Y-47195574D01*
X104107337Y-47218815D01*
X104107691Y-47251790D01*
X104107691Y-47322487D01*
X104190510Y-47322487D01*
X104273330Y-47322487D01*
X104273330Y-47256543D01*
X104273361Y-47240286D01*
X104273750Y-47216750D01*
X104274924Y-47200998D01*
X104277304Y-47190643D01*
X104281306Y-47183299D01*
X104287350Y-47176579D01*
X104290072Y-47173932D01*
X104303806Y-47164405D01*
X104316742Y-47164619D01*
X104332533Y-47174397D01*
X104338109Y-47179067D01*
X104342650Y-47184791D01*
X104345443Y-47192931D01*
X104346914Y-47205738D01*
X104347486Y-47225464D01*
X104347583Y-47254361D01*
X104347583Y-47322487D01*
X104421835Y-47322487D01*
X104496087Y-47322487D01*
X104496087Y-47251415D01*
X104496143Y-47228886D01*
X104496573Y-47206079D01*
X104497715Y-47191049D01*
X104499907Y-47181678D01*
X104503484Y-47175851D01*
X104508782Y-47171451D01*
X104524101Y-47164160D01*
X104543675Y-47164745D01*
X104562032Y-47176579D01*
X104565481Y-47180172D01*
X104570402Y-47186922D01*
X104573501Y-47195547D01*
X104575197Y-47208434D01*
X104575907Y-47227971D01*
X104576051Y-47256543D01*
X104576051Y-47322487D01*
X104658871Y-47322487D01*
X104741691Y-47322487D01*
X104741691Y-47256543D01*
X104741721Y-47240286D01*
X104742110Y-47216750D01*
X104743285Y-47200998D01*
X104745664Y-47190643D01*
X104749667Y-47183299D01*
X104755711Y-47176579D01*
X104758433Y-47173932D01*
X104772166Y-47164405D01*
X104785102Y-47164619D01*
X104800894Y-47174397D01*
X104806469Y-47179067D01*
X104811010Y-47184791D01*
X104813804Y-47192931D01*
X104815275Y-47205738D01*
X104815847Y-47225464D01*
X104815943Y-47254361D01*
X104815943Y-47322487D01*
X104898763Y-47322487D01*
X104981583Y-47322487D01*
X104981583Y-47255038D01*
X104981896Y-47227107D01*
X104983494Y-47201021D01*
X104986986Y-47183486D01*
X104992964Y-47172921D01*
X105002018Y-47167742D01*
X105014741Y-47166367D01*
X105016542Y-47166375D01*
X105029701Y-47167468D01*
X105038908Y-47171579D01*
X105044858Y-47180388D01*
X105048247Y-47195574D01*
X105049770Y-47218815D01*
X105050124Y-47251790D01*
X105050124Y-47322487D01*
X105130088Y-47322487D01*
X105210052Y-47322487D01*
X105210052Y-47251790D01*
X105210055Y-47247441D01*
X105210508Y-47215673D01*
X105212211Y-47193445D01*
X105215859Y-47179080D01*
X105222149Y-47170898D01*
X105231776Y-47167220D01*
X105245435Y-47166367D01*
X105255641Y-47167160D01*
X105265491Y-47171369D01*
X105272116Y-47180633D01*
X105276111Y-47196536D01*
X105278071Y-47220662D01*
X105278592Y-47254596D01*
X105278592Y-47321602D01*
X105355305Y-47323473D01*
X105363268Y-47323678D01*
X105396163Y-47325039D01*
X105420356Y-47327555D01*
X105438107Y-47331999D01*
X105451674Y-47339149D01*
X105463316Y-47349780D01*
X105475294Y-47364668D01*
X105475401Y-47364812D01*
X105477854Y-47368364D01*
X105479936Y-47372514D01*
X105481679Y-47378163D01*
X105483112Y-47386213D01*
X105484266Y-47397566D01*
X105485170Y-47413125D01*
X105485856Y-47433792D01*
X105486353Y-47460470D01*
X105486632Y-47488087D01*
X105486692Y-47494059D01*
G37*
G36*
X111547124Y-42207042D02*
G01*
X111542408Y-42227637D01*
X111542210Y-42228315D01*
X111545315Y-42236223D01*
X111557492Y-42248118D01*
X111579309Y-42264571D01*
X111583835Y-42267813D01*
X111613474Y-42291262D01*
X111643347Y-42318309D01*
X111672337Y-42347582D01*
X111699326Y-42377705D01*
X111723195Y-42407304D01*
X111742828Y-42435007D01*
X111757107Y-42459437D01*
X111764913Y-42479222D01*
X111765129Y-42492988D01*
X111759435Y-42499486D01*
X111746086Y-42501013D01*
X111727036Y-42495596D01*
X111703447Y-42484040D01*
X111676481Y-42467153D01*
X111647299Y-42445740D01*
X111617065Y-42420608D01*
X111586939Y-42392563D01*
X111558084Y-42362412D01*
X111531661Y-42330962D01*
X111527128Y-42325151D01*
X111513785Y-42308094D01*
X111503640Y-42295190D01*
X111498601Y-42288871D01*
X111498250Y-42288542D01*
X111490529Y-42288482D01*
X111478207Y-42293369D01*
X111475012Y-42294918D01*
X111453982Y-42300077D01*
X111423892Y-42300812D01*
X111386259Y-42299305D01*
X111347484Y-42333348D01*
X111314328Y-42364528D01*
X111273899Y-42406818D01*
X111231315Y-42455158D01*
X111188302Y-42507445D01*
X111146585Y-42561575D01*
X111107887Y-42615447D01*
X111073935Y-42666956D01*
X111036767Y-42726445D01*
X111050160Y-42752875D01*
X111052540Y-42757641D01*
X111067605Y-42792932D01*
X111077321Y-42828125D01*
X111082465Y-42866927D01*
X111083817Y-42913043D01*
X111083694Y-42925676D01*
X111082655Y-42955216D01*
X111080164Y-42978758D01*
X111075674Y-43000296D01*
X111068638Y-43023819D01*
X111053825Y-43068911D01*
X111073445Y-43107870D01*
X111075754Y-43112393D01*
X111099754Y-43154637D01*
X111130785Y-43202702D01*
X111167587Y-43254910D01*
X111208896Y-43309585D01*
X111253452Y-43365051D01*
X111299991Y-43419630D01*
X111347252Y-43471645D01*
X111391315Y-43518485D01*
X111424620Y-43518485D01*
X111438617Y-43518945D01*
X111459083Y-43521112D01*
X111473632Y-43524456D01*
X111477598Y-43525874D01*
X111488131Y-43527309D01*
X111494076Y-43521961D01*
X111501895Y-43510052D01*
X111520418Y-43487438D01*
X111545064Y-43461248D01*
X111573871Y-43433291D01*
X111604881Y-43405373D01*
X111636131Y-43379303D01*
X111665661Y-43356887D01*
X111691512Y-43339933D01*
X111700337Y-43334955D01*
X111728011Y-43321899D01*
X111750132Y-43315582D01*
X111765803Y-43316033D01*
X111774128Y-43323279D01*
X111774209Y-43337348D01*
X111769499Y-43349790D01*
X111755508Y-43373138D01*
X111734600Y-43400437D01*
X111708260Y-43430135D01*
X111677975Y-43460680D01*
X111645230Y-43490521D01*
X111611512Y-43518107D01*
X111578305Y-43541886D01*
X111561547Y-43553245D01*
X111545257Y-43565743D01*
X111537189Y-43574636D01*
X111536235Y-43580950D01*
X111546057Y-43617181D01*
X111545933Y-43637489D01*
X111545843Y-43652151D01*
X111536528Y-43684222D01*
X111519087Y-43711852D01*
X111494494Y-43733497D01*
X111463724Y-43747616D01*
X111427751Y-43752665D01*
X111415744Y-43752243D01*
X111395984Y-43749884D01*
X111382065Y-43746144D01*
X111381198Y-43745756D01*
X111375193Y-43743914D01*
X111369027Y-43744782D01*
X111361175Y-43749490D01*
X111350115Y-43759170D01*
X111334322Y-43774954D01*
X111312274Y-43797971D01*
X111309887Y-43800473D01*
X111286177Y-43824565D01*
X111262104Y-43847853D01*
X111240357Y-43867794D01*
X111223624Y-43881843D01*
X111222415Y-43882771D01*
X111190903Y-43905012D01*
X111161347Y-43922374D01*
X111135092Y-43934347D01*
X111113480Y-43940420D01*
X111097857Y-43940082D01*
X111089564Y-43932822D01*
X111089390Y-43923021D01*
X111096335Y-43905387D01*
X111110178Y-43883001D01*
X111129780Y-43857167D01*
X111153998Y-43829189D01*
X111181692Y-43800371D01*
X111211719Y-43772015D01*
X111242939Y-43745426D01*
X111274212Y-43721908D01*
X111280171Y-43717747D01*
X111299361Y-43704020D01*
X111310965Y-43694531D01*
X111316483Y-43687526D01*
X111317417Y-43681253D01*
X111315268Y-43673957D01*
X111313469Y-43667418D01*
X111311144Y-43649183D01*
X111311061Y-43643435D01*
X111396964Y-43643435D01*
X111406285Y-43657536D01*
X111419556Y-43665529D01*
X111433414Y-43665143D01*
X111443406Y-43655423D01*
X111447245Y-43637489D01*
X111446394Y-43629761D01*
X111438840Y-43617061D01*
X111425708Y-43612726D01*
X111409736Y-43618165D01*
X111398777Y-43629343D01*
X111396964Y-43643435D01*
X111311061Y-43643435D01*
X111310848Y-43628643D01*
X111311107Y-43622531D01*
X111310935Y-43610178D01*
X111308499Y-43600030D01*
X111302448Y-43589421D01*
X111291427Y-43575684D01*
X111274085Y-43556152D01*
X111239790Y-43520285D01*
X111194516Y-43477343D01*
X111143749Y-43432753D01*
X111089888Y-43388481D01*
X111035333Y-43346493D01*
X110982481Y-43308755D01*
X110933734Y-43277233D01*
X110931401Y-43275823D01*
X110909815Y-43263048D01*
X110895183Y-43255447D01*
X110885009Y-43252189D01*
X110876797Y-43252444D01*
X110868049Y-43255381D01*
X110848851Y-43263055D01*
X110819986Y-43273576D01*
X110795330Y-43280422D01*
X110770979Y-43284349D01*
X110743029Y-43286112D01*
X110707578Y-43286469D01*
X110691141Y-43286356D01*
X110658555Y-43285253D01*
X110631770Y-43282357D01*
X110606847Y-43276906D01*
X110579846Y-43268134D01*
X110546830Y-43255276D01*
X110539701Y-43252693D01*
X110531189Y-43251641D01*
X110521413Y-43254162D01*
X110507575Y-43261097D01*
X110486874Y-43273286D01*
X110475015Y-43280550D01*
X110422250Y-43315636D01*
X110365816Y-43357565D01*
X110304959Y-43406942D01*
X110238926Y-43464373D01*
X110166964Y-43530463D01*
X110094711Y-43598337D01*
X110094632Y-43631235D01*
X110094316Y-43640566D01*
X110094170Y-43644856D01*
X110092061Y-43664898D01*
X110088837Y-43678929D01*
X110087169Y-43683890D01*
X110087016Y-43690828D01*
X110091464Y-43698039D01*
X110102079Y-43707645D01*
X110120425Y-43721767D01*
X110148734Y-43744924D01*
X110178517Y-43772953D01*
X110207226Y-43803334D01*
X110233791Y-43834648D01*
X110257144Y-43865481D01*
X110276214Y-43894416D01*
X110289932Y-43920036D01*
X110297229Y-43940925D01*
X110297035Y-43955666D01*
X110295730Y-43958324D01*
X110287699Y-43963354D01*
X110273491Y-43961204D01*
X110251841Y-43951766D01*
X110242549Y-43946678D01*
X110211866Y-43926119D01*
X110178033Y-43898946D01*
X110143371Y-43867353D01*
X110110201Y-43833537D01*
X110080844Y-43799693D01*
X110057621Y-43768018D01*
X110054627Y-43763473D01*
X110044239Y-43749717D01*
X110036159Y-43743936D01*
X110028120Y-43744308D01*
X110019877Y-43746184D01*
X110002419Y-43748803D01*
X109981720Y-43750979D01*
X109959179Y-43751823D01*
X109941254Y-43749200D01*
X109924062Y-43742182D01*
X109897087Y-43724317D01*
X109873510Y-43697294D01*
X109859538Y-43665061D01*
X109857216Y-43643439D01*
X109948368Y-43643439D01*
X109954031Y-43654403D01*
X109959333Y-43660345D01*
X109973307Y-43666814D01*
X109987304Y-43664062D01*
X109997711Y-43652266D01*
X110001320Y-43640566D01*
X109998394Y-43627992D01*
X109993215Y-43622786D01*
X109979505Y-43618650D01*
X109964446Y-43621174D01*
X109952976Y-43630128D01*
X109950611Y-43633948D01*
X109948368Y-43643439D01*
X109857216Y-43643439D01*
X109855643Y-43628789D01*
X109862301Y-43589646D01*
X109862946Y-43586374D01*
X109860833Y-43578576D01*
X109852112Y-43569412D01*
X109835077Y-43556823D01*
X109827622Y-43551365D01*
X109805913Y-43533349D01*
X109780264Y-43509962D01*
X109753069Y-43483566D01*
X109726725Y-43456526D01*
X109703629Y-43431203D01*
X109686175Y-43409962D01*
X109680518Y-43402243D01*
X109662230Y-43373869D01*
X109649623Y-43348410D01*
X109643170Y-43327274D01*
X109643341Y-43311875D01*
X109650609Y-43303620D01*
X109661489Y-43304147D01*
X109679354Y-43311389D01*
X109702038Y-43324418D01*
X109727799Y-43342123D01*
X109754894Y-43363392D01*
X109781582Y-43387115D01*
X109797421Y-43402603D01*
X109820335Y-43426317D01*
X109843056Y-43451103D01*
X109864004Y-43475137D01*
X109881599Y-43496590D01*
X109894260Y-43513636D01*
X109900406Y-43524448D01*
X109903198Y-43527150D01*
X109912896Y-43526782D01*
X109930998Y-43521457D01*
X109953254Y-43515745D01*
X109988616Y-43515072D01*
X110017889Y-43518417D01*
X110077148Y-43457034D01*
X110079773Y-43454308D01*
X110130976Y-43398498D01*
X110180969Y-43339241D01*
X110228188Y-43278623D01*
X110271068Y-43218734D01*
X110308045Y-43161661D01*
X110337553Y-43109493D01*
X110358461Y-43068907D01*
X110344533Y-43023817D01*
X110338855Y-43004002D01*
X110334695Y-42984393D01*
X110332266Y-42963524D01*
X110331185Y-42938012D01*
X110331072Y-42904475D01*
X110331104Y-42899861D01*
X110331665Y-42868289D01*
X110333058Y-42844528D01*
X110335710Y-42825367D01*
X110340043Y-42807597D01*
X110346484Y-42788007D01*
X110361430Y-42745792D01*
X110349583Y-42722323D01*
X110339465Y-42703799D01*
X110315920Y-42666589D01*
X110285657Y-42623972D01*
X110249805Y-42577356D01*
X110209499Y-42528144D01*
X110165868Y-42477744D01*
X110120045Y-42427560D01*
X110073161Y-42378997D01*
X109993614Y-42299033D01*
X109962199Y-42298569D01*
X109952548Y-42298058D01*
X109929726Y-42294367D01*
X109911873Y-42288246D01*
X109906675Y-42285562D01*
X109896235Y-42281560D01*
X109889198Y-42284184D01*
X109880548Y-42294422D01*
X109873070Y-42303692D01*
X109845417Y-42333821D01*
X109812153Y-42365488D01*
X109775817Y-42396593D01*
X109738947Y-42425034D01*
X109704081Y-42448712D01*
X109673758Y-42465527D01*
X109664712Y-42469410D01*
X109643732Y-42476025D01*
X109625610Y-42478732D01*
X109612879Y-42477301D01*
X109608073Y-42471503D01*
X109608320Y-42468737D01*
X109614592Y-42453089D01*
X109628287Y-42432274D01*
X109648017Y-42407662D01*
X109672394Y-42380623D01*
X109700028Y-42352528D01*
X109729531Y-42324746D01*
X109759514Y-42298648D01*
X109788590Y-42275604D01*
X109815370Y-42256984D01*
X109838465Y-42244157D01*
X109840227Y-42243343D01*
X109847346Y-42239000D01*
X109850759Y-42232604D01*
X109851278Y-42221055D01*
X109849716Y-42201254D01*
X109848802Y-42188319D01*
X109848859Y-42186887D01*
X109940133Y-42186887D01*
X109948328Y-42201526D01*
X109961194Y-42209277D01*
X109975400Y-42208871D01*
X109986355Y-42200368D01*
X109990670Y-42185084D01*
X109988990Y-42173994D01*
X109980442Y-42161366D01*
X109967029Y-42157094D01*
X109951431Y-42162707D01*
X109942628Y-42172137D01*
X109940133Y-42186887D01*
X109848859Y-42186887D01*
X109849818Y-42162693D01*
X109855764Y-42140323D01*
X109863632Y-42124515D01*
X109881853Y-42100678D01*
X109904270Y-42080814D01*
X109927353Y-42068466D01*
X109936338Y-42065986D01*
X109962167Y-42062517D01*
X109988517Y-42062944D01*
X110009787Y-42067343D01*
X110013113Y-42068468D01*
X110020375Y-42068928D01*
X110028084Y-42064897D01*
X110038439Y-42054874D01*
X110053635Y-42037357D01*
X110065238Y-42024150D01*
X110093899Y-41994985D01*
X110125723Y-41966405D01*
X110159133Y-41939511D01*
X110192556Y-41915402D01*
X110224416Y-41895178D01*
X110253139Y-41879941D01*
X110277148Y-41870789D01*
X110294870Y-41868825D01*
X110302240Y-41871381D01*
X110308941Y-41881543D01*
X110307713Y-41897574D01*
X110298440Y-41917868D01*
X110294915Y-41923370D01*
X110274694Y-41949541D01*
X110247170Y-41979347D01*
X110214336Y-42010945D01*
X110178184Y-42042488D01*
X110140705Y-42072132D01*
X110103892Y-42098034D01*
X110071378Y-42119289D01*
X110080089Y-42140137D01*
X110082313Y-42146532D01*
X110086571Y-42168649D01*
X110087300Y-42185084D01*
X110087646Y-42192883D01*
X110087247Y-42206010D01*
X110086992Y-42222373D01*
X110087175Y-42231532D01*
X110087185Y-42231604D01*
X110091768Y-42238057D01*
X110103589Y-42250619D01*
X110121246Y-42268002D01*
X110143339Y-42288912D01*
X110168464Y-42312059D01*
X110195223Y-42336151D01*
X110222213Y-42359898D01*
X110248033Y-42382008D01*
X110271283Y-42401191D01*
X110286682Y-42413173D01*
X110315068Y-42434122D01*
X110348395Y-42457773D01*
X110384316Y-42482537D01*
X110420482Y-42506822D01*
X110454545Y-42529037D01*
X110484158Y-42547591D01*
X110506971Y-42560892D01*
X110534833Y-42576064D01*
X110586935Y-42557545D01*
X110599319Y-42553205D01*
X110619728Y-42546708D01*
X110637539Y-42542587D01*
X110656258Y-42540324D01*
X110679388Y-42539402D01*
X110710434Y-42539303D01*
X110730766Y-42539498D01*
X110759038Y-42540523D01*
X110780891Y-42542748D01*
X110799497Y-42546556D01*
X110818026Y-42552331D01*
X110854221Y-42565084D01*
X110897990Y-42541528D01*
X110933907Y-42521109D01*
X111001929Y-42477225D01*
X111074754Y-42424017D01*
X111151853Y-42361880D01*
X111232699Y-42291208D01*
X111310164Y-42221002D01*
X111310566Y-42185765D01*
X111310586Y-42185234D01*
X111397995Y-42185234D01*
X111404778Y-42199488D01*
X111418504Y-42208806D01*
X111432408Y-42208865D01*
X111443020Y-42200348D01*
X111447245Y-42184356D01*
X111443838Y-42171226D01*
X111432612Y-42161905D01*
X111416286Y-42161328D01*
X111413075Y-42162323D01*
X111401125Y-42171637D01*
X111397995Y-42185234D01*
X111310586Y-42185234D01*
X111311175Y-42169423D01*
X111312941Y-42150890D01*
X111315378Y-42139240D01*
X111316438Y-42134830D01*
X111314151Y-42127513D01*
X111305320Y-42118546D01*
X111288282Y-42105880D01*
X111265167Y-42088831D01*
X111232232Y-42061628D01*
X111201129Y-42032733D01*
X111172614Y-42003167D01*
X111147441Y-41973949D01*
X111126365Y-41946100D01*
X111110139Y-41920641D01*
X111099518Y-41898593D01*
X111095257Y-41880976D01*
X111098110Y-41868810D01*
X111108832Y-41863117D01*
X111122641Y-41864409D01*
X111144796Y-41873227D01*
X111171587Y-41888939D01*
X111201654Y-41910424D01*
X111233639Y-41936560D01*
X111266183Y-41966226D01*
X111297930Y-41998300D01*
X111327519Y-42031661D01*
X111353593Y-42065187D01*
X111360841Y-42074326D01*
X111367579Y-42078089D01*
X111374617Y-42074442D01*
X111382065Y-42070130D01*
X111401570Y-42065010D01*
X111425818Y-42063180D01*
X111450807Y-42064819D01*
X111472537Y-42070104D01*
X111483566Y-42075228D01*
X111509121Y-42093787D01*
X111530572Y-42118205D01*
X111544318Y-42144736D01*
X111547047Y-42156832D01*
X111548716Y-42181435D01*
X111548534Y-42184356D01*
X111547124Y-42207042D01*
G37*
%TD*%
M02*
