%TF.GenerationSoftware,KiCad,Pcbnew,9.0.0*%
%TF.CreationDate,2025-03-08T17:47:05+01:00*%
%TF.ProjectId,pcb_puissance_2025,7063625f-7075-4697-9373-616e63655f32,4*%
%TF.SameCoordinates,Original*%
%TF.FileFunction,Paste,Top*%
%TF.FilePolarity,Positive*%
%FSLAX46Y46*%
G04 Gerber Fmt 4.6, Leading zero omitted, Abs format (unit mm)*
G04 Created by KiCad (PCBNEW 9.0.0) date 2025-03-08 17:47:05*
%MOMM*%
%LPD*%
G01*
G04 APERTURE LIST*
G04 Aperture macros list*
%AMRoundRect*
0 Rectangle with rounded corners*
0 $1 Rounding radius*
0 $2 $3 $4 $5 $6 $7 $8 $9 X,Y pos of 4 corners*
0 Add a 4 corners polygon primitive as box body*
4,1,4,$2,$3,$4,$5,$6,$7,$8,$9,$2,$3,0*
0 Add four circle primitives for the rounded corners*
1,1,$1+$1,$2,$3*
1,1,$1+$1,$4,$5*
1,1,$1+$1,$6,$7*
1,1,$1+$1,$8,$9*
0 Add four rect primitives between the rounded corners*
20,1,$1+$1,$2,$3,$4,$5,0*
20,1,$1+$1,$4,$5,$6,$7,0*
20,1,$1+$1,$6,$7,$8,$9,0*
20,1,$1+$1,$8,$9,$2,$3,0*%
G04 Aperture macros list end*
%ADD10RoundRect,0.250000X0.450000X-0.350000X0.450000X0.350000X-0.450000X0.350000X-0.450000X-0.350000X0*%
%ADD11RoundRect,0.250000X0.337500X0.475000X-0.337500X0.475000X-0.337500X-0.475000X0.337500X-0.475000X0*%
%ADD12RoundRect,0.250000X-0.850000X-0.350000X0.850000X-0.350000X0.850000X0.350000X-0.850000X0.350000X0*%
%ADD13RoundRect,0.250000X-1.275000X-1.125000X1.275000X-1.125000X1.275000X1.125000X-1.275000X1.125000X0*%
%ADD14R,4.240000X3.810000*%
%ADD15RoundRect,0.250000X-0.350000X-0.450000X0.350000X-0.450000X0.350000X0.450000X-0.350000X0.450000X0*%
%ADD16RoundRect,0.250000X-0.450000X0.350000X-0.450000X-0.350000X0.450000X-0.350000X0.450000X0.350000X0*%
%ADD17RoundRect,0.125000X0.125000X0.125000X-0.125000X0.125000X-0.125000X-0.125000X0.125000X-0.125000X0*%
%ADD18RoundRect,0.250000X-0.475000X0.337500X-0.475000X-0.337500X0.475000X-0.337500X0.475000X0.337500X0*%
%ADD19RoundRect,0.250000X0.475000X-0.337500X0.475000X0.337500X-0.475000X0.337500X-0.475000X-0.337500X0*%
%ADD20R,0.812800X0.254000*%
%ADD21R,0.254000X0.812800*%
%ADD22RoundRect,0.250000X0.850000X0.350000X-0.850000X0.350000X-0.850000X-0.350000X0.850000X-0.350000X0*%
%ADD23RoundRect,0.250000X1.275000X1.125000X-1.275000X1.125000X-1.275000X-1.125000X1.275000X-1.125000X0*%
%ADD24R,0.300000X0.800000*%
%ADD25R,0.800000X0.300000*%
%ADD26R,2.240000X2.240000*%
G04 APERTURE END LIST*
D10*
%TO.C,R16*%
X146750000Y-122200000D03*
X146750000Y-120200000D03*
%TD*%
D11*
%TO.C,C6*%
X156247500Y-106245000D03*
X154172500Y-106245000D03*
%TD*%
D12*
%TO.C,Q4*%
X147460000Y-88215000D03*
D13*
X152085000Y-88970000D03*
X152085000Y-92020000D03*
X155435000Y-88970000D03*
X155435000Y-92020000D03*
D12*
X147460000Y-92775000D03*
%TD*%
D14*
%TO.C,F8*%
X161810000Y-110700000D03*
X168190000Y-110700000D03*
%TD*%
D15*
%TO.C,R2*%
X130320000Y-143820000D03*
X132320000Y-143820000D03*
%TD*%
D14*
%TO.C,F7*%
X161810000Y-103200000D03*
X168190000Y-103200000D03*
%TD*%
D16*
%TO.C,R3*%
X123000000Y-125800000D03*
X123000000Y-127800000D03*
%TD*%
D10*
%TO.C,R18*%
X142250000Y-122200000D03*
X142250000Y-120200000D03*
%TD*%
D17*
%TO.C,D2*%
X152310000Y-95245000D03*
X150110000Y-95245000D03*
%TD*%
D18*
%TO.C,C19*%
X146500000Y-142962500D03*
X146500000Y-145037500D03*
%TD*%
D10*
%TO.C,R17*%
X144500000Y-122200000D03*
X144500000Y-120200000D03*
%TD*%
D17*
%TO.C,D3*%
X152310000Y-106245000D03*
X150110000Y-106245000D03*
%TD*%
D19*
%TO.C,C21*%
X144500000Y-145037500D03*
X144500000Y-142962500D03*
%TD*%
D11*
%TO.C,C1*%
X140837500Y-74000000D03*
X138762500Y-74000000D03*
%TD*%
D19*
%TO.C,C18*%
X121250000Y-107337500D03*
X121250000Y-105262500D03*
%TD*%
D20*
%TO.C,U2*%
X134769985Y-125750441D03*
X134769985Y-125250315D03*
X134769985Y-124750189D03*
X134769985Y-124250063D03*
X134769985Y-123749937D03*
X134769985Y-123249811D03*
X134769985Y-122749685D03*
X134769985Y-122249559D03*
D21*
X134120126Y-121599700D03*
X133620000Y-121599700D03*
X133119874Y-121599700D03*
X132619748Y-121599700D03*
X132119622Y-121599700D03*
X131619496Y-121599700D03*
X131119370Y-121599700D03*
X130619244Y-121599700D03*
D20*
X129969385Y-122249559D03*
X129969385Y-122749685D03*
X129969385Y-123249811D03*
X129969385Y-123749937D03*
X129969385Y-124250063D03*
X129969385Y-124750189D03*
X129969385Y-125250315D03*
X129969385Y-125750441D03*
D21*
X130619244Y-126400300D03*
X131119370Y-126400300D03*
X131619496Y-126400300D03*
X132119622Y-126400300D03*
X132619748Y-126400300D03*
X133119874Y-126400300D03*
X133620000Y-126400300D03*
X134120126Y-126400300D03*
%TD*%
D22*
%TO.C,Q3*%
X141960000Y-92835000D03*
D23*
X137335000Y-92080000D03*
X137335000Y-89030000D03*
X133985000Y-92080000D03*
X133985000Y-89030000D03*
D22*
X141960000Y-88275000D03*
%TD*%
%TO.C,Q1*%
X141822500Y-81777500D03*
D23*
X137197500Y-81022500D03*
X137197500Y-77972500D03*
X133847500Y-81022500D03*
X133847500Y-77972500D03*
D22*
X141822500Y-77217500D03*
%TD*%
D19*
%TO.C,C20*%
X142500000Y-145037500D03*
X142500000Y-142962500D03*
%TD*%
D12*
%TO.C,Q2*%
X147422500Y-77217500D03*
D13*
X152047500Y-77972500D03*
X152047500Y-81022500D03*
X155397500Y-77972500D03*
X155397500Y-81022500D03*
D12*
X147422500Y-81777500D03*
%TD*%
D14*
%TO.C,F6*%
X161810000Y-95700000D03*
X168190000Y-95700000D03*
%TD*%
%TO.C,F5*%
X161810000Y-88200000D03*
X168190000Y-88200000D03*
%TD*%
D11*
%TO.C,C2*%
X156197500Y-84255000D03*
X154122500Y-84255000D03*
%TD*%
%TO.C,C5*%
X140957500Y-96000000D03*
X138882500Y-96000000D03*
%TD*%
D15*
%TO.C,R13*%
X146122500Y-84277500D03*
X148122500Y-84277500D03*
%TD*%
%TO.C,R14*%
X146210000Y-95245000D03*
X148210000Y-95245000D03*
%TD*%
%TO.C,R15*%
X146210000Y-106245000D03*
X148210000Y-106245000D03*
%TD*%
D22*
%TO.C,Q5*%
X141960000Y-103745000D03*
D23*
X137335000Y-102990000D03*
X137335000Y-99940000D03*
X133985000Y-102990000D03*
X133985000Y-99940000D03*
D22*
X141960000Y-99185000D03*
%TD*%
D11*
%TO.C,C4*%
X156247500Y-95245000D03*
X154172500Y-95245000D03*
%TD*%
%TO.C,C3*%
X140957500Y-85000000D03*
X138882500Y-85000000D03*
%TD*%
D24*
%TO.C,U9*%
X145550000Y-135100000D03*
X145050000Y-135100000D03*
X144550000Y-135100000D03*
X144050000Y-135100000D03*
X143550000Y-135100000D03*
D25*
X142850000Y-136050000D03*
X142850000Y-136550000D03*
X142850000Y-137050000D03*
X142850000Y-137550000D03*
D24*
X143550000Y-138500000D03*
X144050000Y-138500000D03*
X144550000Y-138500000D03*
X145050000Y-138500000D03*
X145550000Y-138500000D03*
D25*
X146250000Y-137550000D03*
X146250000Y-137050000D03*
X146250000Y-136550000D03*
X146250000Y-136050000D03*
D26*
X144550000Y-136800000D03*
%TD*%
D12*
%TO.C,Q6*%
X147460000Y-99245000D03*
D13*
X152085000Y-100000000D03*
X152085000Y-103050000D03*
X155435000Y-100000000D03*
X155435000Y-103050000D03*
D12*
X147460000Y-103805000D03*
%TD*%
D14*
%TO.C,F4*%
X161810000Y-80700000D03*
X168190000Y-80700000D03*
%TD*%
D17*
%TO.C,D1*%
X152222500Y-84277500D03*
X150022500Y-84277500D03*
%TD*%
M02*
