%TF.GenerationSoftware,KiCad,Pcbnew,9.0.0*%
%TF.CreationDate,2025-03-08T17:47:05+01:00*%
%TF.ProjectId,pcb_puissance_2025,7063625f-7075-4697-9373-616e63655f32,4*%
%TF.SameCoordinates,Original*%
%TF.FileFunction,Soldermask,Top*%
%TF.FilePolarity,Negative*%
%FSLAX46Y46*%
G04 Gerber Fmt 4.6, Leading zero omitted, Abs format (unit mm)*
G04 Created by KiCad (PCBNEW 9.0.0) date 2025-03-08 17:47:05*
%MOMM*%
%LPD*%
G01*
G04 APERTURE LIST*
G04 Aperture macros list*
%AMRoundRect*
0 Rectangle with rounded corners*
0 $1 Rounding radius*
0 $2 $3 $4 $5 $6 $7 $8 $9 X,Y pos of 4 corners*
0 Add a 4 corners polygon primitive as box body*
4,1,4,$2,$3,$4,$5,$6,$7,$8,$9,$2,$3,0*
0 Add four circle primitives for the rounded corners*
1,1,$1+$1,$2,$3*
1,1,$1+$1,$4,$5*
1,1,$1+$1,$6,$7*
1,1,$1+$1,$8,$9*
0 Add four rect primitives between the rounded corners*
20,1,$1+$1,$2,$3,$4,$5,0*
20,1,$1+$1,$4,$5,$6,$7,0*
20,1,$1+$1,$6,$7,$8,$9,0*
20,1,$1+$1,$8,$9,$2,$3,0*%
G04 Aperture macros list end*
%ADD10C,0.200000*%
%ADD11RoundRect,0.250000X0.450000X-0.350000X0.450000X0.350000X-0.450000X0.350000X-0.450000X-0.350000X0*%
%ADD12RoundRect,0.249999X-1.550001X0.790001X-1.550001X-0.790001X1.550001X-0.790001X1.550001X0.790001X0*%
%ADD13O,3.600000X2.080000*%
%ADD14C,2.780000*%
%ADD15RoundRect,0.250000X0.337500X0.475000X-0.337500X0.475000X-0.337500X-0.475000X0.337500X-0.475000X0*%
%ADD16C,7.000000*%
%ADD17RoundRect,0.250000X-0.850000X-0.350000X0.850000X-0.350000X0.850000X0.350000X-0.850000X0.350000X0*%
%ADD18RoundRect,0.249997X-2.950003X-2.650003X2.950003X-2.650003X2.950003X2.650003X-2.950003X2.650003X0*%
%ADD19R,4.240000X3.810000*%
%ADD20RoundRect,0.249999X1.550001X-0.790001X1.550001X0.790001X-1.550001X0.790001X-1.550001X-0.790001X0*%
%ADD21R,1.000000X1.000000*%
%ADD22O,1.000000X1.000000*%
%ADD23RoundRect,0.250000X-0.350000X-0.450000X0.350000X-0.450000X0.350000X0.450000X-0.350000X0.450000X0*%
%ADD24RoundRect,0.249999X-0.790001X-1.550001X0.790001X-1.550001X0.790001X1.550001X-0.790001X1.550001X0*%
%ADD25O,2.080000X3.600000*%
%ADD26RoundRect,0.250000X-0.450000X0.350000X-0.450000X-0.350000X0.450000X-0.350000X0.450000X0.350000X0*%
%ADD27RoundRect,0.125000X0.125000X0.125000X-0.125000X0.125000X-0.125000X-0.125000X0.125000X-0.125000X0*%
%ADD28RoundRect,0.250000X-0.475000X0.337500X-0.475000X-0.337500X0.475000X-0.337500X0.475000X0.337500X0*%
%ADD29RoundRect,0.250000X0.475000X-0.337500X0.475000X0.337500X-0.475000X0.337500X-0.475000X-0.337500X0*%
%ADD30R,0.812800X0.254000*%
%ADD31R,0.254000X0.812800*%
%ADD32RoundRect,0.249999X0.790001X1.550001X-0.790001X1.550001X-0.790001X-1.550001X0.790001X-1.550001X0*%
%ADD33RoundRect,0.250000X0.850000X0.350000X-0.850000X0.350000X-0.850000X-0.350000X0.850000X-0.350000X0*%
%ADD34RoundRect,0.249997X2.950003X2.650003X-2.950003X2.650003X-2.950003X-2.650003X2.950003X-2.650003X0*%
%ADD35R,1.422400X1.422400*%
%ADD36C,1.422400*%
%ADD37C,1.303000*%
%ADD38R,2.400000X2.400000*%
%ADD39C,2.400000*%
%ADD40C,1.900000*%
%ADD41C,1.800000*%
%ADD42R,0.300000X0.800000*%
%ADD43R,0.800000X0.300000*%
%ADD44R,2.240000X2.240000*%
%ADD45C,1.400000*%
%ADD46C,0.650000*%
%ADD47O,1.204000X2.304000*%
%ADD48O,1.204000X2.004000*%
G04 APERTURE END LIST*
D10*
X254700000Y-147500000D02*
X246000000Y-147500000D01*
X246000000Y-145000000D01*
X254700000Y-145000000D01*
X254700000Y-147500000D01*
G36*
X254700000Y-147500000D02*
G01*
X246000000Y-147500000D01*
X246000000Y-145000000D01*
X254700000Y-145000000D01*
X254700000Y-147500000D01*
G37*
%TO.C,REF\u002A\u002A*%
X227820000Y-84020000D02*
X227730000Y-84530000D01*
X236430000Y-81170000D02*
X235920000Y-81080000D01*
%TD*%
D11*
%TO.C,R16*%
X146750000Y-122200000D03*
X146750000Y-120200000D03*
%TD*%
D12*
%TO.C,J12*%
X228555000Y-127660000D03*
D13*
X228555000Y-132740000D03*
%TD*%
D14*
%TO.C,F2*%
X127700000Y-82040000D03*
X124300000Y-82040000D03*
X127700000Y-91960000D03*
X124300000Y-91960000D03*
%TD*%
D15*
%TO.C,C6*%
X156247500Y-106245000D03*
X154172500Y-106245000D03*
%TD*%
D16*
%TO.C,H1*%
X117000000Y-67000000D03*
%TD*%
D17*
%TO.C,Q4*%
X147460000Y-88215000D03*
D18*
X153760000Y-90495000D03*
D17*
X147460000Y-92775000D03*
%TD*%
D19*
%TO.C,F8*%
X161810000Y-110700000D03*
X168190000Y-110700000D03*
%TD*%
D20*
%TO.C,J13*%
X254445000Y-132740000D03*
D13*
X254445000Y-127660000D03*
%TD*%
D21*
%TO.C,JP1*%
X157100000Y-120750000D03*
D22*
X158370000Y-120750000D03*
%TD*%
D23*
%TO.C,R2*%
X130320000Y-143820000D03*
X132320000Y-143820000D03*
%TD*%
D20*
%TO.C,J2*%
X115847500Y-84277500D03*
D13*
X115847500Y-79197500D03*
%TD*%
D20*
%TO.C,J6*%
X115837500Y-97640000D03*
D13*
X115837500Y-92560000D03*
%TD*%
D12*
%TO.C,J15*%
X228555000Y-109790000D03*
D13*
X228555000Y-114870000D03*
%TD*%
D19*
%TO.C,F7*%
X161810000Y-103200000D03*
X168190000Y-103200000D03*
%TD*%
D24*
%TO.C,J5*%
X171960000Y-66187500D03*
D25*
X177040000Y-66187500D03*
%TD*%
D26*
%TO.C,R3*%
X123000000Y-125800000D03*
X123000000Y-127800000D03*
%TD*%
D20*
%TO.C,J22*%
X254222500Y-79170000D03*
D13*
X254222500Y-74090000D03*
%TD*%
D11*
%TO.C,R18*%
X142250000Y-122200000D03*
X142250000Y-120200000D03*
%TD*%
D27*
%TO.C,D2*%
X152310000Y-95245000D03*
X150110000Y-95245000D03*
%TD*%
D12*
%TO.C,J21*%
X228777500Y-74090000D03*
D13*
X228777500Y-79170000D03*
%TD*%
D16*
%TO.C,H4*%
X117000000Y-141000000D03*
%TD*%
D28*
%TO.C,C19*%
X146500000Y-142962500D03*
X146500000Y-145037500D03*
%TD*%
D21*
%TO.C,J17*%
X250500000Y-104000000D03*
D22*
X250500000Y-102730000D03*
X251770000Y-104000000D03*
X251770000Y-102730000D03*
X253040000Y-104000000D03*
X253040000Y-102730000D03*
X254310000Y-104000000D03*
X254310000Y-102730000D03*
X255580000Y-104000000D03*
X255580000Y-102730000D03*
X256850000Y-104000000D03*
X256850000Y-102730000D03*
%TD*%
D11*
%TO.C,R17*%
X144500000Y-122200000D03*
X144500000Y-120200000D03*
%TD*%
D12*
%TO.C,J18*%
X228555000Y-91920000D03*
D13*
X228555000Y-97000000D03*
%TD*%
D27*
%TO.C,D3*%
X152310000Y-106245000D03*
X150110000Y-106245000D03*
%TD*%
D14*
%TO.C,F1*%
X127700000Y-63080000D03*
X124300000Y-63080000D03*
X127700000Y-73000000D03*
X124300000Y-73000000D03*
%TD*%
D29*
%TO.C,C21*%
X144500000Y-145037500D03*
X144500000Y-142962500D03*
%TD*%
D15*
%TO.C,C1*%
X140837500Y-74000000D03*
X138762500Y-74000000D03*
%TD*%
D29*
%TO.C,C18*%
X121250000Y-107337500D03*
X121250000Y-105262500D03*
%TD*%
D30*
%TO.C,U2*%
X134769985Y-125750441D03*
X134769985Y-125250315D03*
X134769985Y-124750189D03*
X134769985Y-124250063D03*
X134769985Y-123749937D03*
X134769985Y-123249811D03*
X134769985Y-122749685D03*
X134769985Y-122249559D03*
D31*
X134120126Y-121599700D03*
X133620000Y-121599700D03*
X133119874Y-121599700D03*
X132619748Y-121599700D03*
X132119622Y-121599700D03*
X131619496Y-121599700D03*
X131119370Y-121599700D03*
X130619244Y-121599700D03*
D30*
X129969385Y-122249559D03*
X129969385Y-122749685D03*
X129969385Y-123249811D03*
X129969385Y-123749937D03*
X129969385Y-124250063D03*
X129969385Y-124750189D03*
X129969385Y-125250315D03*
X129969385Y-125750441D03*
D31*
X130619244Y-126400300D03*
X131119370Y-126400300D03*
X131619496Y-126400300D03*
X132119622Y-126400300D03*
X132619748Y-126400300D03*
X133119874Y-126400300D03*
X133620000Y-126400300D03*
X134120126Y-126400300D03*
%TD*%
D32*
%TO.C,J10*%
X161540000Y-141277500D03*
D25*
X156460000Y-141277500D03*
%TD*%
D33*
%TO.C,Q3*%
X141960000Y-92835000D03*
D34*
X135660000Y-90555000D03*
D33*
X141960000Y-88275000D03*
%TD*%
D35*
%TO.C,BZ1*%
X180535000Y-82250000D03*
D36*
X185535000Y-82250000D03*
%TD*%
D24*
%TO.C,J4*%
X185460000Y-66187500D03*
D25*
X190540000Y-66187500D03*
%TD*%
D33*
%TO.C,Q1*%
X141822500Y-81777500D03*
D34*
X135522500Y-79497500D03*
D33*
X141822500Y-77217500D03*
%TD*%
D29*
%TO.C,C20*%
X142500000Y-145037500D03*
X142500000Y-142962500D03*
%TD*%
D17*
%TO.C,Q2*%
X147422500Y-77217500D03*
D18*
X153722500Y-79497500D03*
D17*
X147422500Y-81777500D03*
%TD*%
D24*
%TO.C,J1*%
X141080000Y-66282500D03*
D25*
X146160000Y-66282500D03*
%TD*%
D19*
%TO.C,F6*%
X161810000Y-95700000D03*
X168190000Y-95700000D03*
%TD*%
%TO.C,F5*%
X161810000Y-88200000D03*
X168190000Y-88200000D03*
%TD*%
D20*
%TO.C,J19*%
X254445000Y-97000000D03*
D13*
X254445000Y-91920000D03*
%TD*%
D20*
%TO.C,J16*%
X254222500Y-114870000D03*
D13*
X254222500Y-109790000D03*
%TD*%
D37*
%TO.C,PS1*%
X163160000Y-130000000D03*
X160620000Y-130000000D03*
X158080000Y-130000000D03*
X153000000Y-130000000D03*
X150460000Y-130000000D03*
X147920000Y-130000000D03*
X145380000Y-130000000D03*
%TD*%
D38*
%TO.C,C7*%
X160000000Y-69000000D03*
D39*
X160000000Y-64000000D03*
%TD*%
D40*
%TO.C,PS4*%
X175030000Y-109820000D03*
X175030000Y-104740000D03*
X175030000Y-94580000D03*
X220750000Y-112360000D03*
X220750000Y-102200000D03*
X220750000Y-92040000D03*
%TD*%
D20*
%TO.C,J3*%
X115837500Y-111180000D03*
D13*
X115837500Y-106100000D03*
%TD*%
D15*
%TO.C,C2*%
X156197500Y-84255000D03*
X154122500Y-84255000D03*
%TD*%
D21*
%TO.C,JP2*%
X157145000Y-116125000D03*
D22*
X158415000Y-116125000D03*
%TD*%
D41*
%TO.C,PS5*%
X199680000Y-76590000D03*
X199680000Y-71510000D03*
X220000000Y-84210000D03*
X220000000Y-74050000D03*
X220000000Y-63890000D03*
X199680000Y-63890000D03*
%TD*%
D15*
%TO.C,C5*%
X140957500Y-96000000D03*
X138882500Y-96000000D03*
%TD*%
D16*
%TO.C,H2*%
X239000000Y-67000000D03*
%TD*%
D21*
%TO.C,J14*%
X250500000Y-121870000D03*
D22*
X250500000Y-120600000D03*
X251770000Y-121870000D03*
X251770000Y-120600000D03*
X253040000Y-121870000D03*
X253040000Y-120600000D03*
X254310000Y-121870000D03*
X254310000Y-120600000D03*
X255580000Y-121870000D03*
X255580000Y-120600000D03*
X256850000Y-121870000D03*
X256850000Y-120600000D03*
%TD*%
D23*
%TO.C,R13*%
X146122500Y-84277500D03*
X148122500Y-84277500D03*
%TD*%
%TO.C,R14*%
X146210000Y-95245000D03*
X148210000Y-95245000D03*
%TD*%
D14*
%TO.C,F3*%
X127700000Y-101140000D03*
X124300000Y-101140000D03*
X127700000Y-111060000D03*
X124300000Y-111060000D03*
%TD*%
D23*
%TO.C,R15*%
X146210000Y-106245000D03*
X148210000Y-106245000D03*
%TD*%
D21*
%TO.C,JP3*%
X161375000Y-116175000D03*
D22*
X162645000Y-116175000D03*
%TD*%
D33*
%TO.C,Q5*%
X141960000Y-103745000D03*
D34*
X135660000Y-101465000D03*
D33*
X141960000Y-99185000D03*
%TD*%
D41*
%TO.C,PS3*%
X177800000Y-121940000D03*
X182880000Y-121940000D03*
X170180000Y-142260000D03*
X180340000Y-142260000D03*
X190500000Y-142260000D03*
X190500000Y-121940000D03*
%TD*%
%TO.C,PS2*%
X199780000Y-134500000D03*
X199780000Y-129420000D03*
X220100000Y-142120000D03*
X220100000Y-131960000D03*
X220100000Y-121800000D03*
X199780000Y-121800000D03*
%TD*%
D15*
%TO.C,C4*%
X156247500Y-95245000D03*
X154172500Y-95245000D03*
%TD*%
%TO.C,C3*%
X140957500Y-85000000D03*
X138882500Y-85000000D03*
%TD*%
D21*
%TO.C,J20*%
X250500000Y-86170000D03*
D22*
X250500000Y-84900000D03*
X251770000Y-86170000D03*
X251770000Y-84900000D03*
X253040000Y-86170000D03*
X253040000Y-84900000D03*
X254310000Y-86170000D03*
X254310000Y-84900000D03*
X255580000Y-86170000D03*
X255580000Y-84900000D03*
X256850000Y-86170000D03*
X256850000Y-84900000D03*
%TD*%
D42*
%TO.C,U9*%
X145550000Y-135100000D03*
X145050000Y-135100000D03*
X144550000Y-135100000D03*
X144050000Y-135100000D03*
X143550000Y-135100000D03*
D43*
X142850000Y-136050000D03*
X142850000Y-136550000D03*
X142850000Y-137050000D03*
X142850000Y-137550000D03*
D42*
X143550000Y-138500000D03*
X144050000Y-138500000D03*
X144550000Y-138500000D03*
X145050000Y-138500000D03*
X145550000Y-138500000D03*
D43*
X146250000Y-137550000D03*
X146250000Y-137050000D03*
X146250000Y-136550000D03*
X146250000Y-136050000D03*
D44*
X144550000Y-136800000D03*
%TD*%
D21*
%TO.C,JP4*%
X161375000Y-120775000D03*
D22*
X162645000Y-120775000D03*
%TD*%
D21*
%TO.C,J8*%
X123920000Y-141000000D03*
D22*
X123920000Y-139730000D03*
X125190000Y-141000000D03*
X125190000Y-139730000D03*
X126460000Y-141000000D03*
X126460000Y-139730000D03*
X127730000Y-141000000D03*
X127730000Y-139730000D03*
X129000000Y-141000000D03*
X129000000Y-139730000D03*
X130270000Y-141000000D03*
X130270000Y-139730000D03*
X131540000Y-141000000D03*
X131540000Y-139730000D03*
%TD*%
D21*
%TO.C,J7*%
X116270000Y-132570000D03*
D22*
X115000000Y-132570000D03*
X116270000Y-131300000D03*
X115000000Y-131300000D03*
X116270000Y-130030000D03*
X115000000Y-130030000D03*
X116270000Y-128760000D03*
X115000000Y-128760000D03*
X116270000Y-127490000D03*
X115000000Y-127490000D03*
X116270000Y-126220000D03*
X115000000Y-126220000D03*
X116270000Y-124950000D03*
X115000000Y-124950000D03*
X116270000Y-123680000D03*
X115000000Y-123680000D03*
X116270000Y-122410000D03*
X115000000Y-122410000D03*
X116270000Y-121140000D03*
X115000000Y-121140000D03*
%TD*%
D16*
%TO.C,H3*%
X239000000Y-141000000D03*
%TD*%
D17*
%TO.C,Q6*%
X147460000Y-99245000D03*
D18*
X153760000Y-101525000D03*
D17*
X147460000Y-103805000D03*
%TD*%
D19*
%TO.C,F4*%
X161810000Y-80700000D03*
X168190000Y-80700000D03*
%TD*%
D27*
%TO.C,D1*%
X152222500Y-84277500D03*
X150022500Y-84277500D03*
%TD*%
D45*
%TO.C,TP9*%
X223500000Y-75750000D03*
X223500000Y-73750000D03*
%TD*%
D46*
%TO.C,J11*%
X147140000Y-141675000D03*
X141360000Y-141675000D03*
D47*
X148570000Y-141175000D03*
X139930000Y-141175000D03*
D48*
X148570000Y-145355000D03*
X139930000Y-145355000D03*
%TD*%
D45*
%TO.C,TP10*%
X223500000Y-78500000D03*
X223500000Y-80500000D03*
%TD*%
M02*
