%TF.GenerationSoftware,KiCad,Pcbnew,9.0.0*%
%TF.CreationDate,2025-03-08T17:47:05+01:00*%
%TF.ProjectId,pcb_puissance_2025,7063625f-7075-4697-9373-616e63655f32,4*%
%TF.SameCoordinates,Original*%
%TF.FileFunction,Paste,Bot*%
%TF.FilePolarity,Positive*%
%FSLAX46Y46*%
G04 Gerber Fmt 4.6, Leading zero omitted, Abs format (unit mm)*
G04 Created by KiCad (PCBNEW 9.0.0) date 2025-03-08 17:47:05*
%MOMM*%
%LPD*%
G01*
G04 APERTURE LIST*
G04 Aperture macros list*
%AMRoundRect*
0 Rectangle with rounded corners*
0 $1 Rounding radius*
0 $2 $3 $4 $5 $6 $7 $8 $9 X,Y pos of 4 corners*
0 Add a 4 corners polygon primitive as box body*
4,1,4,$2,$3,$4,$5,$6,$7,$8,$9,$2,$3,0*
0 Add four circle primitives for the rounded corners*
1,1,$1+$1,$2,$3*
1,1,$1+$1,$4,$5*
1,1,$1+$1,$6,$7*
1,1,$1+$1,$8,$9*
0 Add four rect primitives between the rounded corners*
20,1,$1+$1,$2,$3,$4,$5,0*
20,1,$1+$1,$4,$5,$6,$7,0*
20,1,$1+$1,$6,$7,$8,$9,0*
20,1,$1+$1,$8,$9,$2,$3,0*%
G04 Aperture macros list end*
%ADD10C,0.010000*%
%ADD11R,1.100000X1.800000*%
%ADD12RoundRect,0.250000X0.350000X0.450000X-0.350000X0.450000X-0.350000X-0.450000X0.350000X-0.450000X0*%
%ADD13RoundRect,0.250000X0.450000X-0.350000X0.450000X0.350000X-0.450000X0.350000X-0.450000X-0.350000X0*%
%ADD14RoundRect,0.250000X-0.475000X0.337500X-0.475000X-0.337500X0.475000X-0.337500X0.475000X0.337500X0*%
%ADD15RoundRect,0.250000X-0.450000X0.350000X-0.450000X-0.350000X0.450000X-0.350000X0.450000X0.350000X0*%
%ADD16RoundRect,0.162500X0.162500X-0.837500X0.162500X0.837500X-0.162500X0.837500X-0.162500X-0.837500X0*%
%ADD17R,1.200000X0.400000*%
%ADD18R,0.457200X1.524000*%
%ADD19RoundRect,0.249999X0.450001X1.425001X-0.450001X1.425001X-0.450001X-1.425001X0.450001X-1.425001X0*%
%ADD20R,1.003300X0.431800*%
%ADD21RoundRect,0.250000X-0.350000X-0.450000X0.350000X-0.450000X0.350000X0.450000X-0.350000X0.450000X0*%
%ADD22RoundRect,0.250000X0.475000X-0.337500X0.475000X0.337500X-0.475000X0.337500X-0.475000X-0.337500X0*%
%ADD23RoundRect,0.250000X0.337500X0.475000X-0.337500X0.475000X-0.337500X-0.475000X0.337500X-0.475000X0*%
%ADD24RoundRect,0.162500X-0.162500X0.837500X-0.162500X-0.837500X0.162500X-0.837500X0.162500X0.837500X0*%
%ADD25R,1.250000X0.650000*%
%ADD26R,0.600000X1.150000*%
%ADD27R,0.300000X1.150000*%
%ADD28R,0.838200X0.406400*%
%ADD29RoundRect,0.150000X-0.150000X0.587500X-0.150000X-0.587500X0.150000X-0.587500X0.150000X0.587500X0*%
%ADD30RoundRect,0.150000X0.150000X-0.587500X0.150000X0.587500X-0.150000X0.587500X-0.150000X-0.587500X0*%
%ADD31R,1.800000X1.100000*%
%ADD32RoundRect,0.150000X0.587500X0.150000X-0.587500X0.150000X-0.587500X-0.150000X0.587500X-0.150000X0*%
%ADD33R,0.431800X1.003300*%
G04 APERTURE END LIST*
D10*
%TO.C,Q7*%
X160515000Y-132335000D02*
X159715000Y-132335000D01*
X159715000Y-131935000D01*
X160515000Y-131935000D01*
X160515000Y-132335000D01*
G36*
X160515000Y-132335000D02*
G01*
X159715000Y-132335000D01*
X159715000Y-131935000D01*
X160515000Y-131935000D01*
X160515000Y-132335000D01*
G37*
X160515000Y-137335000D02*
X159715000Y-137335000D01*
X159715000Y-136935000D01*
X160515000Y-136935000D01*
X160515000Y-137335000D01*
G36*
X160515000Y-137335000D02*
G01*
X159715000Y-137335000D01*
X159715000Y-136935000D01*
X160515000Y-136935000D01*
X160515000Y-137335000D01*
G37*
X161375000Y-133285000D02*
X160234000Y-133285000D01*
X160234000Y-132721000D01*
X161375000Y-132721000D01*
X161375000Y-133285000D01*
G36*
X161375000Y-133285000D02*
G01*
X160234000Y-133285000D01*
X160234000Y-132721000D01*
X161375000Y-132721000D01*
X161375000Y-133285000D01*
G37*
X161375000Y-134049000D02*
X160234000Y-134049000D01*
X160234000Y-133485000D01*
X161375000Y-133485000D01*
X161375000Y-134049000D01*
G36*
X161375000Y-134049000D02*
G01*
X160234000Y-134049000D01*
X160234000Y-133485000D01*
X161375000Y-133485000D01*
X161375000Y-134049000D01*
G37*
X161086500Y-136073500D02*
X160522500Y-136073500D01*
X160522500Y-134932500D01*
X161086500Y-134932500D01*
X161086500Y-136073500D01*
G36*
X161086500Y-136073500D02*
G01*
X160522500Y-136073500D01*
X160522500Y-134932500D01*
X161086500Y-134932500D01*
X161086500Y-136073500D01*
G37*
X161086500Y-136837500D02*
X160522500Y-136837500D01*
X160522500Y-135696500D01*
X161086500Y-135696500D01*
X161086500Y-136837500D01*
G36*
X161086500Y-136837500D02*
G01*
X160522500Y-136837500D01*
X160522500Y-135696500D01*
X161086500Y-135696500D01*
X161086500Y-136837500D01*
G37*
X162716000Y-133285000D02*
X161575000Y-133285000D01*
X161575000Y-132721000D01*
X162716000Y-132721000D01*
X162716000Y-133285000D01*
G36*
X162716000Y-133285000D02*
G01*
X161575000Y-133285000D01*
X161575000Y-132721000D01*
X162716000Y-132721000D01*
X162716000Y-133285000D01*
G37*
X162716000Y-134049000D02*
X161575000Y-134049000D01*
X161575000Y-133485000D01*
X162716000Y-133485000D01*
X162716000Y-134049000D01*
G36*
X162716000Y-134049000D02*
G01*
X161575000Y-134049000D01*
X161575000Y-133485000D01*
X162716000Y-133485000D01*
X162716000Y-134049000D01*
G37*
X162427500Y-136073500D02*
X161863500Y-136073500D01*
X161863500Y-134932500D01*
X162427500Y-134932500D01*
X162427500Y-136073500D01*
G36*
X162427500Y-136073500D02*
G01*
X161863500Y-136073500D01*
X161863500Y-134932500D01*
X162427500Y-134932500D01*
X162427500Y-136073500D01*
G37*
X162427500Y-136837500D02*
X161863500Y-136837500D01*
X161863500Y-135696500D01*
X162427500Y-135696500D01*
X162427500Y-136837500D01*
G36*
X162427500Y-136837500D02*
G01*
X161863500Y-136837500D01*
X161863500Y-135696500D01*
X162427500Y-135696500D01*
X162427500Y-136837500D01*
G37*
X162965000Y-132335000D02*
X162165000Y-132335000D01*
X162165000Y-131935000D01*
X162965000Y-131935000D01*
X162965000Y-132335000D01*
G36*
X162965000Y-132335000D02*
G01*
X162165000Y-132335000D01*
X162165000Y-131935000D01*
X162965000Y-131935000D01*
X162965000Y-132335000D01*
G37*
X162965000Y-137335000D02*
X162165000Y-137335000D01*
X162165000Y-136935000D01*
X162965000Y-136935000D01*
X162965000Y-137335000D01*
G36*
X162965000Y-137335000D02*
G01*
X162165000Y-137335000D01*
X162165000Y-136935000D01*
X162965000Y-136935000D01*
X162965000Y-137335000D01*
G37*
X163975000Y-133060000D02*
X163435000Y-133060000D01*
X163435000Y-132335000D01*
X163975000Y-132335000D01*
X163975000Y-133060000D01*
G36*
X163975000Y-133060000D02*
G01*
X163435000Y-133060000D01*
X163435000Y-132335000D01*
X163975000Y-132335000D01*
X163975000Y-133060000D01*
G37*
X163975000Y-134435000D02*
X163435000Y-134435000D01*
X163435000Y-133685000D01*
X163975000Y-133685000D01*
X163975000Y-134435000D01*
G36*
X163975000Y-134435000D02*
G01*
X163435000Y-134435000D01*
X163435000Y-133685000D01*
X163975000Y-133685000D01*
X163975000Y-134435000D01*
G37*
X163975000Y-135585000D02*
X163435000Y-135585000D01*
X163435000Y-134835000D01*
X163975000Y-134835000D01*
X163975000Y-135585000D01*
G36*
X163975000Y-135585000D02*
G01*
X163435000Y-135585000D01*
X163435000Y-134835000D01*
X163975000Y-134835000D01*
X163975000Y-135585000D01*
G37*
X163975000Y-136935000D02*
X163435000Y-136935000D01*
X163435000Y-136210000D01*
X163975000Y-136210000D01*
X163975000Y-136935000D01*
G36*
X163975000Y-136935000D02*
G01*
X163435000Y-136935000D01*
X163435000Y-136210000D01*
X163975000Y-136210000D01*
X163975000Y-136935000D01*
G37*
%TD*%
D11*
%TO.C,R19*%
X212500000Y-81200000D03*
X211100000Y-81200000D03*
X211100000Y-78200000D03*
X212500000Y-78200000D03*
%TD*%
%TO.C,R22*%
X212000000Y-138200000D03*
X210600000Y-138200000D03*
X210600000Y-135200000D03*
X212000000Y-135200000D03*
%TD*%
D12*
%TO.C,R1*%
X176900000Y-142300000D03*
X174900000Y-142300000D03*
%TD*%
D13*
%TO.C,R27*%
X195000000Y-84450000D03*
X195000000Y-82450000D03*
%TD*%
D14*
%TO.C,C22*%
X150750000Y-140462500D03*
X150750000Y-142537500D03*
%TD*%
D15*
%TO.C,R34*%
X184200000Y-96400000D03*
X184200000Y-98400000D03*
%TD*%
D12*
%TO.C,R35*%
X198900000Y-119200000D03*
X196900000Y-119200000D03*
%TD*%
%TO.C,R7*%
X139235000Y-110700000D03*
X137235000Y-110700000D03*
%TD*%
D16*
%TO.C,D7*%
X203350000Y-69410000D03*
X201450000Y-69410000D03*
X202400000Y-65990000D03*
%TD*%
D17*
%TO.C,U1*%
X146635000Y-115592500D03*
X146635000Y-114957500D03*
X146635000Y-114322500D03*
X146635000Y-113687500D03*
X146635000Y-113052500D03*
X146635000Y-112417500D03*
X146635000Y-111782500D03*
X146635000Y-111147500D03*
X146635000Y-110512500D03*
X146635000Y-109877500D03*
X146635000Y-109242500D03*
X146635000Y-108607500D03*
X151835000Y-108607500D03*
X151835000Y-109242500D03*
X151835000Y-109877500D03*
X151835000Y-110512500D03*
X151835000Y-111147500D03*
X151835000Y-111782500D03*
X151835000Y-112417500D03*
X151835000Y-113052500D03*
X151835000Y-113687500D03*
X151835000Y-114322500D03*
X151835000Y-114957500D03*
X151835000Y-115592500D03*
%TD*%
D18*
%TO.C,U10*%
X144224999Y-92674700D03*
X143575001Y-92674700D03*
X142924999Y-92674700D03*
X142275001Y-92674700D03*
X142275001Y-88585300D03*
X142924999Y-88585300D03*
X143575001Y-88585300D03*
X144224999Y-88585300D03*
%TD*%
D19*
%TO.C,R24*%
X127050000Y-105300000D03*
X120950000Y-105300000D03*
%TD*%
D20*
%TO.C,U6*%
X217972850Y-108374999D03*
X217972850Y-107725001D03*
X217972850Y-107074999D03*
X217972850Y-106425001D03*
X220627150Y-106425001D03*
X220627150Y-107074999D03*
X220627150Y-107725001D03*
X220627150Y-108374999D03*
%TD*%
D21*
%TO.C,R6*%
X137235000Y-116700000D03*
X139235000Y-116700000D03*
%TD*%
%TO.C,R9*%
X137235000Y-112700000D03*
X139235000Y-112700000D03*
%TD*%
D13*
%TO.C,R11*%
X141235000Y-108700000D03*
X141235000Y-106700000D03*
%TD*%
D21*
%TO.C,R12*%
X137235000Y-108700000D03*
X139235000Y-108700000D03*
%TD*%
D22*
%TO.C,C12*%
X130800000Y-119137500D03*
X130800000Y-117062500D03*
%TD*%
D14*
%TO.C,C10*%
X137400000Y-125762500D03*
X137400000Y-127837500D03*
%TD*%
D23*
%TO.C,C9*%
X128837500Y-122200000D03*
X126762500Y-122200000D03*
%TD*%
D24*
%TO.C,D5*%
X200800000Y-115490000D03*
X202700000Y-115490000D03*
X201750000Y-118910000D03*
%TD*%
D22*
%TO.C,C14*%
X215300000Y-135600000D03*
X215300000Y-133525000D03*
%TD*%
D23*
%TO.C,C8*%
X128837500Y-120000000D03*
X126762500Y-120000000D03*
%TD*%
D25*
%TO.C,Q7*%
X158000000Y-136540000D03*
X158000000Y-135270000D03*
X158000000Y-134000000D03*
X158000000Y-132730000D03*
%TD*%
D26*
%TO.C,J11*%
X147450000Y-140600000D03*
X146650000Y-140600000D03*
D27*
X145500000Y-140600000D03*
X144500000Y-140600000D03*
X144000000Y-140600000D03*
X143000000Y-140600000D03*
D26*
X141050000Y-140600000D03*
X141850000Y-140600000D03*
D27*
X142500000Y-140600000D03*
X143500000Y-140600000D03*
X145000000Y-140600000D03*
X146000000Y-140600000D03*
%TD*%
D28*
%TO.C,D4*%
X152750000Y-140229300D03*
X152750000Y-141270700D03*
%TD*%
D13*
%TO.C,R5*%
X141235000Y-116700000D03*
X141235000Y-114700000D03*
%TD*%
D22*
%TO.C,C17*%
X118400000Y-104137500D03*
X118400000Y-102062500D03*
%TD*%
D14*
%TO.C,C11*%
X139600000Y-125762500D03*
X139600000Y-127837500D03*
%TD*%
D29*
%TO.C,Q9*%
X204950000Y-69390000D03*
X206850000Y-69390000D03*
X205900000Y-71265000D03*
%TD*%
D20*
%TO.C,U5*%
X176783200Y-137800000D03*
X176783200Y-137150002D03*
X176783200Y-136500000D03*
X176783200Y-135850002D03*
X179437500Y-135850002D03*
X179437500Y-136500000D03*
X179437500Y-137150002D03*
X179437500Y-137800000D03*
%TD*%
D12*
%TO.C,R33*%
X207150000Y-67290000D03*
X205150000Y-67290000D03*
%TD*%
D11*
%TO.C,R20*%
X171600000Y-139000000D03*
X170200000Y-139000000D03*
X170200000Y-136000000D03*
X171600000Y-136000000D03*
%TD*%
D13*
%TO.C,R31*%
X188500000Y-84250000D03*
X188500000Y-82250000D03*
%TD*%
D21*
%TO.C,R26*%
X145000000Y-132250000D03*
X147000000Y-132250000D03*
%TD*%
D14*
%TO.C,C23*%
X140200000Y-86562500D03*
X140200000Y-88637500D03*
%TD*%
D13*
%TO.C,R32*%
X134800000Y-136400000D03*
X134800000Y-134400000D03*
%TD*%
D22*
%TO.C,C15*%
X174837500Y-136037500D03*
X174837500Y-133962500D03*
%TD*%
D12*
%TO.C,R29*%
X205400000Y-141900000D03*
X203400000Y-141900000D03*
%TD*%
D19*
%TO.C,R23*%
X126900000Y-96125000D03*
X120800000Y-96125000D03*
%TD*%
D11*
%TO.C,R21*%
X212800000Y-109400000D03*
X211400000Y-109400000D03*
X211400000Y-106400000D03*
X212800000Y-106400000D03*
%TD*%
D20*
%TO.C,U7*%
X116527150Y-100225001D03*
X116527150Y-100874999D03*
X116527150Y-101525001D03*
X116527150Y-102174999D03*
X113872850Y-102174999D03*
X113872850Y-101525001D03*
X113872850Y-100874999D03*
X113872850Y-100225001D03*
%TD*%
D22*
%TO.C,C16*%
X216100000Y-106637500D03*
X216100000Y-104562500D03*
%TD*%
D30*
%TO.C,Q11*%
X198950000Y-117075000D03*
X197050000Y-117075000D03*
X198000000Y-115200000D03*
%TD*%
D13*
%TO.C,R8*%
X141235000Y-112700000D03*
X141235000Y-110700000D03*
%TD*%
D20*
%TO.C,U3*%
X218099998Y-80200000D03*
X218099998Y-79550002D03*
X218099998Y-78900000D03*
X218099998Y-78250002D03*
X220754298Y-78250002D03*
X220754298Y-78900000D03*
X220754298Y-79550002D03*
X220754298Y-80200000D03*
%TD*%
D31*
%TO.C,R25*%
X151500000Y-137750000D03*
X151500000Y-136350000D03*
X154500000Y-136350000D03*
X154500000Y-137750000D03*
%TD*%
D21*
%TO.C,R28*%
X182000000Y-134000000D03*
X184000000Y-134000000D03*
%TD*%
D12*
%TO.C,R10*%
X139235000Y-106700000D03*
X137235000Y-106700000D03*
%TD*%
D29*
%TO.C,Q10*%
X180450000Y-96362500D03*
X182350000Y-96362500D03*
X181400000Y-98237500D03*
%TD*%
D20*
%TO.C,U4*%
X217172850Y-137774999D03*
X217172850Y-137125001D03*
X217172850Y-136474999D03*
X217172850Y-135825001D03*
X219827150Y-135825001D03*
X219827150Y-136474999D03*
X219827150Y-137125001D03*
X219827150Y-137774999D03*
%TD*%
D12*
%TO.C,R30*%
X200800000Y-141900000D03*
X198800000Y-141900000D03*
%TD*%
D22*
%TO.C,C13*%
X216100000Y-78537500D03*
X216100000Y-76462500D03*
%TD*%
D32*
%TO.C,Q8*%
X192500000Y-82550000D03*
X192500000Y-84450000D03*
X190625000Y-83500000D03*
%TD*%
D33*
%TO.C,U8*%
X119125001Y-110172850D03*
X119774999Y-110172850D03*
X120425001Y-110172850D03*
X121074999Y-110172850D03*
X121074999Y-112827150D03*
X120425001Y-112827150D03*
X119774999Y-112827150D03*
X119125001Y-112827150D03*
%TD*%
D16*
%TO.C,D6*%
X178750000Y-96410000D03*
X176850000Y-96410000D03*
X177800000Y-92990000D03*
%TD*%
D12*
%TO.C,R4*%
X139235000Y-114700000D03*
X137235000Y-114700000D03*
%TD*%
M02*
