%TF.GenerationSoftware,KiCad,Pcbnew,9.0.0*%
%TF.CreationDate,2025-03-08T17:47:05+01:00*%
%TF.ProjectId,pcb_puissance_2025,7063625f-7075-4697-9373-616e63655f32,4*%
%TF.SameCoordinates,Original*%
%TF.FileFunction,Soldermask,Bot*%
%TF.FilePolarity,Negative*%
%FSLAX46Y46*%
G04 Gerber Fmt 4.6, Leading zero omitted, Abs format (unit mm)*
G04 Created by KiCad (PCBNEW 9.0.0) date 2025-03-08 17:47:05*
%MOMM*%
%LPD*%
G01*
G04 APERTURE LIST*
G04 Aperture macros list*
%AMRoundRect*
0 Rectangle with rounded corners*
0 $1 Rounding radius*
0 $2 $3 $4 $5 $6 $7 $8 $9 X,Y pos of 4 corners*
0 Add a 4 corners polygon primitive as box body*
4,1,4,$2,$3,$4,$5,$6,$7,$8,$9,$2,$3,0*
0 Add four circle primitives for the rounded corners*
1,1,$1+$1,$2,$3*
1,1,$1+$1,$4,$5*
1,1,$1+$1,$6,$7*
1,1,$1+$1,$8,$9*
0 Add four rect primitives between the rounded corners*
20,1,$1+$1,$2,$3,$4,$5,0*
20,1,$1+$1,$4,$5,$6,$7,0*
20,1,$1+$1,$6,$7,$8,$9,0*
20,1,$1+$1,$8,$9,$2,$3,0*%
G04 Aperture macros list end*
%ADD10C,0.100000*%
%ADD11C,0.200000*%
%ADD12C,0.000000*%
%ADD13C,0.010000*%
%ADD14RoundRect,0.249999X-1.550001X0.790001X-1.550001X-0.790001X1.550001X-0.790001X1.550001X0.790001X0*%
%ADD15O,3.600000X2.080000*%
%ADD16C,2.780000*%
%ADD17C,7.000000*%
%ADD18RoundRect,0.249999X1.550001X-0.790001X1.550001X0.790001X-1.550001X0.790001X-1.550001X-0.790001X0*%
%ADD19R,1.000000X1.000000*%
%ADD20O,1.000000X1.000000*%
%ADD21RoundRect,0.249999X-0.790001X-1.550001X0.790001X-1.550001X0.790001X1.550001X-0.790001X1.550001X0*%
%ADD22O,2.080000X3.600000*%
%ADD23RoundRect,0.249999X0.790001X1.550001X-0.790001X1.550001X-0.790001X-1.550001X0.790001X-1.550001X0*%
%ADD24R,1.422400X1.422400*%
%ADD25C,1.422400*%
%ADD26C,1.303000*%
%ADD27R,2.400000X2.400000*%
%ADD28C,2.400000*%
%ADD29C,1.900000*%
%ADD30C,1.800000*%
%ADD31R,1.100000X1.800000*%
%ADD32C,1.400000*%
%ADD33RoundRect,0.250000X0.350000X0.450000X-0.350000X0.450000X-0.350000X-0.450000X0.350000X-0.450000X0*%
%ADD34RoundRect,0.250000X0.450000X-0.350000X0.450000X0.350000X-0.450000X0.350000X-0.450000X-0.350000X0*%
%ADD35RoundRect,0.250000X-0.475000X0.337500X-0.475000X-0.337500X0.475000X-0.337500X0.475000X0.337500X0*%
%ADD36C,1.500000*%
%ADD37RoundRect,0.250000X-0.450000X0.350000X-0.450000X-0.350000X0.450000X-0.350000X0.450000X0.350000X0*%
%ADD38RoundRect,0.162500X0.162500X-0.837500X0.162500X0.837500X-0.162500X0.837500X-0.162500X-0.837500X0*%
%ADD39R,1.200000X0.400000*%
%ADD40R,0.457200X1.524000*%
%ADD41RoundRect,0.249999X0.450001X1.425001X-0.450001X1.425001X-0.450001X-1.425001X0.450001X-1.425001X0*%
%ADD42R,1.003300X0.431800*%
%ADD43RoundRect,0.250000X-0.350000X-0.450000X0.350000X-0.450000X0.350000X0.450000X-0.350000X0.450000X0*%
%ADD44RoundRect,0.250000X0.475000X-0.337500X0.475000X0.337500X-0.475000X0.337500X-0.475000X-0.337500X0*%
%ADD45RoundRect,0.250000X0.337500X0.475000X-0.337500X0.475000X-0.337500X-0.475000X0.337500X-0.475000X0*%
%ADD46RoundRect,0.162500X-0.162500X0.837500X-0.162500X-0.837500X0.162500X-0.837500X0.162500X0.837500X0*%
%ADD47R,1.250000X0.650000*%
%ADD48C,0.650000*%
%ADD49O,1.000000X2.100000*%
%ADD50O,1.000000X1.800000*%
%ADD51R,0.838200X0.406400*%
%ADD52RoundRect,0.150000X-0.150000X0.587500X-0.150000X-0.587500X0.150000X-0.587500X0.150000X0.587500X0*%
%ADD53RoundRect,0.150000X0.150000X-0.587500X0.150000X0.587500X-0.150000X0.587500X-0.150000X-0.587500X0*%
%ADD54R,1.800000X1.100000*%
%ADD55RoundRect,0.150000X0.587500X0.150000X-0.587500X0.150000X-0.587500X-0.150000X0.587500X-0.150000X0*%
%ADD56R,0.431800X1.003300*%
G04 APERTURE END LIST*
D10*
X119350000Y-148300000D02*
X116100000Y-148300000D01*
X116100000Y-146700000D01*
X119350000Y-146700000D01*
X119350000Y-148300000D01*
G36*
X119350000Y-148300000D02*
G01*
X116100000Y-148300000D01*
X116100000Y-146700000D01*
X119350000Y-146700000D01*
X119350000Y-148300000D01*
G37*
X233632883Y-85137677D02*
X234832883Y-86137677D01*
X234932883Y-87037677D01*
X238532883Y-87137677D01*
X238832883Y-87837677D01*
X234332883Y-92137677D01*
X233632883Y-91437677D01*
X233832883Y-88537677D01*
X232232883Y-87337677D01*
X231832883Y-85837677D01*
X232432883Y-85037677D01*
X233632883Y-85137677D01*
G36*
X233632883Y-85137677D02*
G01*
X234832883Y-86137677D01*
X234932883Y-87037677D01*
X238532883Y-87137677D01*
X238832883Y-87837677D01*
X234332883Y-92137677D01*
X233632883Y-91437677D01*
X233832883Y-88537677D01*
X232232883Y-87337677D01*
X231832883Y-85837677D01*
X232432883Y-85037677D01*
X233632883Y-85137677D01*
G37*
D11*
X254700000Y-147500000D02*
X246000000Y-147500000D01*
X246000000Y-145000000D01*
X254700000Y-145000000D01*
X254700000Y-147500000D01*
G36*
X254700000Y-147500000D02*
G01*
X246000000Y-147500000D01*
X246000000Y-145000000D01*
X254700000Y-145000000D01*
X254700000Y-147500000D01*
G37*
%TO.C,REF\u002A\u002A*%
X229455000Y-84230000D02*
X229205000Y-84430000D01*
X229700000Y-83910000D02*
X229450000Y-84110000D01*
D10*
X231417896Y-84007094D02*
X231417896Y-84720146D01*
X229424260Y-83861573D01*
X230050000Y-85025740D01*
X227663458Y-84370896D01*
X227867187Y-84705594D01*
X226979510Y-84108958D01*
X228027260Y-83890677D01*
X227707114Y-84123511D01*
X229438812Y-84400000D01*
X228842177Y-83279490D01*
X231417896Y-84007094D01*
G36*
X231417896Y-84007094D02*
G01*
X231417896Y-84720146D01*
X229424260Y-83861573D01*
X230050000Y-85025740D01*
X227663458Y-84370896D01*
X227867187Y-84705594D01*
X226979510Y-84108958D01*
X228027260Y-83890677D01*
X227707114Y-84123511D01*
X229438812Y-84400000D01*
X228842177Y-83279490D01*
X231417896Y-84007094D01*
G37*
D11*
X236220000Y-82805000D02*
X236020000Y-82555000D01*
X236540000Y-83050000D02*
X236340000Y-82800000D01*
D10*
X236559323Y-81377260D02*
X236326489Y-81057114D01*
X236050000Y-82788812D01*
X237170510Y-82192177D01*
X236442906Y-84767896D01*
X235729854Y-84767896D01*
X236588427Y-82774260D01*
X235424260Y-83400000D01*
X236079104Y-81013458D01*
X235744406Y-81217187D01*
X236341042Y-80329510D01*
X236559323Y-81377260D01*
G36*
X236559323Y-81377260D02*
G01*
X236326489Y-81057114D01*
X236050000Y-82788812D01*
X237170510Y-82192177D01*
X236442906Y-84767896D01*
X235729854Y-84767896D01*
X236588427Y-82774260D01*
X235424260Y-83400000D01*
X236079104Y-81013458D01*
X235744406Y-81217187D01*
X236341042Y-80329510D01*
X236559323Y-81377260D01*
G37*
D12*
%TO.C,G\u002A\u002A\u002A*%
G36*
X188274792Y-107960738D02*
G01*
X188274792Y-108657567D01*
X186004385Y-108657567D01*
X183733978Y-108657567D01*
X183733978Y-107960738D01*
X183733978Y-107600900D01*
X184076681Y-107600900D01*
X184076681Y-107957882D01*
X184076681Y-108314864D01*
X186007241Y-108314864D01*
X187937801Y-108314864D01*
X187937801Y-107957882D01*
X187937801Y-107600900D01*
X186007241Y-107600900D01*
X184076681Y-107600900D01*
X183733978Y-107600900D01*
X183733978Y-107263908D01*
X186004385Y-107263908D01*
X188274792Y-107263908D01*
X188274792Y-107600900D01*
X188274792Y-107960738D01*
G37*
G36*
X188274792Y-114209355D02*
G01*
X185941556Y-114209355D01*
X183608320Y-114209355D01*
X183608320Y-113512525D01*
X183608320Y-113152687D01*
X183951023Y-113152687D01*
X183951023Y-113509670D01*
X183951023Y-113866652D01*
X185944419Y-113866652D01*
X187937814Y-113866652D01*
X187936380Y-111506285D01*
X187934945Y-109145919D01*
X187446593Y-109145919D01*
X186958241Y-109145919D01*
X186956805Y-111149303D01*
X186955369Y-113152687D01*
X185453196Y-113152687D01*
X183951023Y-113152687D01*
X183608320Y-113152687D01*
X183608320Y-112815696D01*
X185110501Y-112815696D01*
X186612683Y-112815696D01*
X186612683Y-110810884D01*
X186612683Y-108806072D01*
X187443737Y-108806072D01*
X188274792Y-108806072D01*
X188274792Y-111507713D01*
X188274792Y-113866652D01*
X188274792Y-114209355D01*
G37*
G36*
X186386692Y-110594059D02*
G01*
X186386903Y-110635463D01*
X186387016Y-110685584D01*
X186387061Y-110745324D01*
X186387070Y-110815585D01*
X186387065Y-110888126D01*
X186387000Y-110950756D01*
X186386797Y-111003720D01*
X186386380Y-111047901D01*
X186385671Y-111084183D01*
X186384593Y-111113447D01*
X186383071Y-111136577D01*
X186381026Y-111154454D01*
X186378382Y-111167963D01*
X186375061Y-111177984D01*
X186370987Y-111185402D01*
X186366084Y-111191098D01*
X186360273Y-111195955D01*
X186353477Y-111200857D01*
X186349654Y-111203439D01*
X186340742Y-111207989D01*
X186329434Y-111211193D01*
X186313471Y-111213418D01*
X186290599Y-111215036D01*
X186258561Y-111216416D01*
X186181448Y-111219272D01*
X186179807Y-111279030D01*
X186179578Y-111286394D01*
X186177639Y-111316818D01*
X186173881Y-111337740D01*
X186167620Y-111350722D01*
X186158176Y-111357328D01*
X186144865Y-111359121D01*
X186134676Y-111358615D01*
X186124871Y-111355690D01*
X186118337Y-111348541D01*
X186114244Y-111335369D01*
X186111759Y-111314373D01*
X186110052Y-111283754D01*
X186107196Y-111219272D01*
X186018664Y-111219272D01*
X185930133Y-111219272D01*
X185927277Y-111283754D01*
X185926014Y-111308038D01*
X185923790Y-111331156D01*
X185920154Y-111346024D01*
X185914275Y-111354441D01*
X185905322Y-111358207D01*
X185892464Y-111359121D01*
X185889459Y-111359072D01*
X185876976Y-111356441D01*
X185868223Y-111348685D01*
X185862518Y-111334240D01*
X185859178Y-111311543D01*
X185857521Y-111279030D01*
X185855880Y-111219272D01*
X185775916Y-111219272D01*
X185695952Y-111219272D01*
X185693096Y-111279828D01*
X185691920Y-111300626D01*
X185689206Y-111326657D01*
X185684830Y-111343827D01*
X185677993Y-111353725D01*
X185667895Y-111357943D01*
X185653735Y-111358070D01*
X185649375Y-111357569D01*
X185636713Y-111353458D01*
X185627993Y-111344475D01*
X185622559Y-111329001D01*
X185619756Y-111305417D01*
X185618928Y-111272105D01*
X185618844Y-111216416D01*
X185547448Y-111216416D01*
X185476051Y-111216416D01*
X185475650Y-111272105D01*
X185475553Y-111281931D01*
X185474696Y-111309775D01*
X185472588Y-111329004D01*
X185468645Y-111341795D01*
X185462281Y-111350324D01*
X185452912Y-111356769D01*
X185450749Y-111357962D01*
X185438803Y-111363520D01*
X185429419Y-111363525D01*
X185416210Y-111358229D01*
X185410401Y-111355194D01*
X185404118Y-111349532D01*
X185399918Y-111340565D01*
X185397285Y-111326262D01*
X185395702Y-111304594D01*
X185394653Y-111273533D01*
X185393231Y-111219272D01*
X185310411Y-111219272D01*
X185227592Y-111219272D01*
X185224736Y-111279828D01*
X185223559Y-111300626D01*
X185220845Y-111326657D01*
X185216470Y-111343827D01*
X185209633Y-111353725D01*
X185199534Y-111357943D01*
X185185374Y-111358070D01*
X185180890Y-111357551D01*
X185168277Y-111353415D01*
X185159592Y-111344405D01*
X185154181Y-111328903D01*
X185151391Y-111305290D01*
X185150568Y-111271948D01*
X185150483Y-111216102D01*
X185069091Y-111217687D01*
X184987700Y-111219272D01*
X184984844Y-111283754D01*
X184983581Y-111308038D01*
X184981357Y-111331156D01*
X184977721Y-111346024D01*
X184971842Y-111354441D01*
X184962889Y-111358207D01*
X184950031Y-111359121D01*
X184947026Y-111359072D01*
X184934543Y-111356441D01*
X184925790Y-111348685D01*
X184920084Y-111334240D01*
X184916745Y-111311543D01*
X184915088Y-111279030D01*
X184913447Y-111219272D01*
X184838404Y-111217682D01*
X184763361Y-111216093D01*
X184761187Y-111279624D01*
X184760304Y-111299972D01*
X184757944Y-111325824D01*
X184753747Y-111342975D01*
X184746871Y-111353125D01*
X184736473Y-111357971D01*
X184721712Y-111359209D01*
X184717847Y-111359090D01*
X184706613Y-111356312D01*
X184698687Y-111348621D01*
X184693378Y-111334393D01*
X184689992Y-111312004D01*
X184687834Y-111279828D01*
X184684979Y-111219272D01*
X184605015Y-111216416D01*
X184599140Y-111216201D01*
X184564929Y-111214554D01*
X184539772Y-111212196D01*
X184521605Y-111208558D01*
X184508359Y-111203070D01*
X184497969Y-111195163D01*
X184488367Y-111184267D01*
X184487408Y-111183030D01*
X184485106Y-111179623D01*
X184483154Y-111175360D01*
X184481524Y-111169361D01*
X184480187Y-111160744D01*
X184479115Y-111148629D01*
X184478280Y-111132135D01*
X184477655Y-111110382D01*
X184477209Y-111082490D01*
X184476917Y-111047577D01*
X184476748Y-111004763D01*
X184476676Y-110953167D01*
X184476671Y-110891910D01*
X184476706Y-110820109D01*
X184476841Y-110590983D01*
X184639285Y-110590983D01*
X184639285Y-110819451D01*
X184639285Y-111047920D01*
X185428930Y-111049368D01*
X186218574Y-111050816D01*
X186218574Y-110819451D01*
X186218574Y-110588087D01*
X185428930Y-110589535D01*
X184639285Y-110590983D01*
X184476841Y-110590983D01*
X184476912Y-110471037D01*
X184489558Y-110456011D01*
X184498694Y-110446139D01*
X184511762Y-110436068D01*
X184527603Y-110429252D01*
X184548370Y-110425105D01*
X184576218Y-110423044D01*
X184613298Y-110422487D01*
X184687834Y-110422487D01*
X184687922Y-110355375D01*
X184688258Y-110329942D01*
X184689182Y-110306728D01*
X184690547Y-110289900D01*
X184692206Y-110281977D01*
X184696556Y-110276668D01*
X184712065Y-110267680D01*
X184729680Y-110266911D01*
X184745713Y-110273987D01*
X184756477Y-110288531D01*
X184758059Y-110295120D01*
X184760135Y-110312659D01*
X184761558Y-110336319D01*
X184762087Y-110362886D01*
X184762087Y-110422487D01*
X184850618Y-110422487D01*
X184939150Y-110422487D01*
X184939150Y-110355038D01*
X184939463Y-110327107D01*
X184941061Y-110301021D01*
X184944553Y-110283486D01*
X184950530Y-110272921D01*
X184959585Y-110267742D01*
X184972307Y-110266367D01*
X184974109Y-110266375D01*
X184987268Y-110267468D01*
X184996474Y-110271579D01*
X185002425Y-110280388D01*
X185005814Y-110295574D01*
X185007337Y-110318815D01*
X185007691Y-110351790D01*
X185007691Y-110422487D01*
X185090510Y-110422487D01*
X185173330Y-110422487D01*
X185173330Y-110356543D01*
X185173361Y-110340286D01*
X185173750Y-110316750D01*
X185174924Y-110300998D01*
X185177304Y-110290643D01*
X185181306Y-110283299D01*
X185187350Y-110276579D01*
X185190072Y-110273932D01*
X185203806Y-110264405D01*
X185216742Y-110264619D01*
X185232533Y-110274397D01*
X185238109Y-110279067D01*
X185242650Y-110284791D01*
X185245443Y-110292931D01*
X185246914Y-110305738D01*
X185247486Y-110325464D01*
X185247583Y-110354361D01*
X185247583Y-110422487D01*
X185321835Y-110422487D01*
X185396087Y-110422487D01*
X185396087Y-110351415D01*
X185396143Y-110328886D01*
X185396573Y-110306079D01*
X185397715Y-110291049D01*
X185399907Y-110281678D01*
X185403484Y-110275851D01*
X185408782Y-110271451D01*
X185424101Y-110264160D01*
X185443675Y-110264745D01*
X185462032Y-110276579D01*
X185465481Y-110280172D01*
X185470402Y-110286922D01*
X185473501Y-110295547D01*
X185475197Y-110308434D01*
X185475907Y-110327971D01*
X185476051Y-110356543D01*
X185476051Y-110422487D01*
X185558871Y-110422487D01*
X185641691Y-110422487D01*
X185641691Y-110356543D01*
X185641721Y-110340286D01*
X185642110Y-110316750D01*
X185643285Y-110300998D01*
X185645664Y-110290643D01*
X185649667Y-110283299D01*
X185655711Y-110276579D01*
X185658433Y-110273932D01*
X185672166Y-110264405D01*
X185685102Y-110264619D01*
X185700894Y-110274397D01*
X185706469Y-110279067D01*
X185711010Y-110284791D01*
X185713804Y-110292931D01*
X185715275Y-110305738D01*
X185715847Y-110325464D01*
X185715943Y-110354361D01*
X185715943Y-110422487D01*
X185798763Y-110422487D01*
X185881583Y-110422487D01*
X185881583Y-110355038D01*
X185881896Y-110327107D01*
X185883494Y-110301021D01*
X185886986Y-110283486D01*
X185892964Y-110272921D01*
X185902018Y-110267742D01*
X185914741Y-110266367D01*
X185916542Y-110266375D01*
X185929701Y-110267468D01*
X185938908Y-110271579D01*
X185944858Y-110280388D01*
X185948247Y-110295574D01*
X185949770Y-110318815D01*
X185950124Y-110351790D01*
X185950124Y-110422487D01*
X186030088Y-110422487D01*
X186110052Y-110422487D01*
X186110052Y-110351790D01*
X186110055Y-110347441D01*
X186110508Y-110315673D01*
X186112211Y-110293445D01*
X186115859Y-110279080D01*
X186122149Y-110270898D01*
X186131776Y-110267220D01*
X186145435Y-110266367D01*
X186155641Y-110267160D01*
X186165491Y-110271369D01*
X186172116Y-110280633D01*
X186176111Y-110296536D01*
X186178071Y-110320662D01*
X186178592Y-110354596D01*
X186178592Y-110421602D01*
X186255305Y-110423473D01*
X186263268Y-110423678D01*
X186296163Y-110425039D01*
X186320356Y-110427555D01*
X186338107Y-110431999D01*
X186351674Y-110439149D01*
X186363316Y-110449780D01*
X186375294Y-110464668D01*
X186375401Y-110464812D01*
X186377854Y-110468364D01*
X186379936Y-110472514D01*
X186381679Y-110478163D01*
X186383112Y-110486213D01*
X186384266Y-110497566D01*
X186385170Y-110513125D01*
X186385856Y-110533792D01*
X186386353Y-110560470D01*
X186386632Y-110588087D01*
X186386692Y-110594059D01*
G37*
D11*
%TO.C,REF\u002A\u002A*%
X240920000Y-98520000D02*
X241430000Y-98430000D01*
X241020000Y-97045000D02*
X241220000Y-96795000D01*
X241340000Y-96800000D02*
X241540000Y-96550000D01*
D10*
X242170510Y-97407823D02*
X241050000Y-96811188D01*
X241326489Y-98542886D01*
X241559323Y-98222740D01*
X241341042Y-99270490D01*
X240744406Y-98382813D01*
X241079104Y-98586542D01*
X240424260Y-96200000D01*
X241588427Y-96825740D01*
X240729854Y-94832104D01*
X241442906Y-94832104D01*
X242170510Y-97407823D01*
G36*
X242170510Y-97407823D02*
G01*
X241050000Y-96811188D01*
X241326489Y-98542886D01*
X241559323Y-98222740D01*
X241341042Y-99270490D01*
X240744406Y-98382813D01*
X241079104Y-98586542D01*
X240424260Y-96200000D01*
X241588427Y-96825740D01*
X240729854Y-94832104D01*
X241442906Y-94832104D01*
X242170510Y-97407823D01*
G37*
D11*
X226730000Y-87270000D02*
X226820000Y-87780000D01*
X228205000Y-87370000D02*
X228455000Y-87570000D01*
X228450000Y-87690000D02*
X228700000Y-87890000D01*
D10*
X228424260Y-87938427D02*
X230417896Y-87079854D01*
X230417896Y-87792906D01*
X227842177Y-88520510D01*
X228438812Y-87400000D01*
X226707114Y-87676489D01*
X227027260Y-87909323D01*
X225979510Y-87691042D01*
X226867187Y-87094406D01*
X226663458Y-87429104D01*
X229050000Y-86774260D01*
X228424260Y-87938427D01*
G36*
X228424260Y-87938427D02*
G01*
X230417896Y-87079854D01*
X230417896Y-87792906D01*
X227842177Y-88520510D01*
X228438812Y-87400000D01*
X226707114Y-87676489D01*
X227027260Y-87909323D01*
X225979510Y-87691042D01*
X226867187Y-87094406D01*
X226663458Y-87429104D01*
X229050000Y-86774260D01*
X228424260Y-87938427D01*
G37*
D13*
%TO.C,Q7*%
X160565000Y-132285000D02*
X162115000Y-132285000D01*
X162115000Y-131885000D01*
X163015000Y-131885000D01*
X163015000Y-132285000D01*
X164025000Y-132285000D01*
X164025000Y-133110000D01*
X163475000Y-133110000D01*
X163475000Y-133635000D01*
X164025000Y-133635000D01*
X164025000Y-134485000D01*
X159475000Y-134485000D01*
X159475000Y-132285000D01*
X159665000Y-132285000D01*
X159665000Y-131885000D01*
X160565000Y-131885000D01*
X160565000Y-132285000D01*
G36*
X160565000Y-132285000D02*
G01*
X162115000Y-132285000D01*
X162115000Y-131885000D01*
X163015000Y-131885000D01*
X163015000Y-132285000D01*
X164025000Y-132285000D01*
X164025000Y-133110000D01*
X163475000Y-133110000D01*
X163475000Y-133635000D01*
X164025000Y-133635000D01*
X164025000Y-134485000D01*
X159475000Y-134485000D01*
X159475000Y-132285000D01*
X159665000Y-132285000D01*
X159665000Y-131885000D01*
X160565000Y-131885000D01*
X160565000Y-132285000D01*
G37*
X164025000Y-135635000D02*
X163475000Y-135635000D01*
X163475000Y-136160000D01*
X164025000Y-136160000D01*
X164025000Y-136985000D01*
X163015000Y-136985000D01*
X163015000Y-137385000D01*
X162115000Y-137385000D01*
X162115000Y-136985000D01*
X160565000Y-136985000D01*
X160565000Y-137385000D01*
X159665000Y-137385000D01*
X159665000Y-136985000D01*
X159475000Y-136985000D01*
X159475000Y-134785000D01*
X164025000Y-134785000D01*
X164025000Y-135635000D01*
G36*
X164025000Y-135635000D02*
G01*
X163475000Y-135635000D01*
X163475000Y-136160000D01*
X164025000Y-136160000D01*
X164025000Y-136985000D01*
X163015000Y-136985000D01*
X163015000Y-137385000D01*
X162115000Y-137385000D01*
X162115000Y-136985000D01*
X160565000Y-136985000D01*
X160565000Y-137385000D01*
X159665000Y-137385000D01*
X159665000Y-136985000D01*
X159475000Y-136985000D01*
X159475000Y-134785000D01*
X164025000Y-134785000D01*
X164025000Y-135635000D01*
G37*
%TO.C,J11*%
X141400000Y-141225000D02*
X140700000Y-141225000D01*
X140700000Y-139975000D01*
X141400000Y-139975000D01*
X141400000Y-141225000D01*
G36*
X141400000Y-141225000D02*
G01*
X140700000Y-141225000D01*
X140700000Y-139975000D01*
X141400000Y-139975000D01*
X141400000Y-141225000D01*
G37*
X142200000Y-141225000D02*
X141500000Y-141225000D01*
X141500000Y-139975000D01*
X142200000Y-139975000D01*
X142200000Y-141225000D01*
G36*
X142200000Y-141225000D02*
G01*
X141500000Y-141225000D01*
X141500000Y-139975000D01*
X142200000Y-139975000D01*
X142200000Y-141225000D01*
G37*
X142700000Y-141225000D02*
X142300000Y-141225000D01*
X142300000Y-139975000D01*
X142700000Y-139975000D01*
X142700000Y-141225000D01*
G36*
X142700000Y-141225000D02*
G01*
X142300000Y-141225000D01*
X142300000Y-139975000D01*
X142700000Y-139975000D01*
X142700000Y-141225000D01*
G37*
X143200000Y-141225000D02*
X142800000Y-141225000D01*
X142800000Y-139975000D01*
X143200000Y-139975000D01*
X143200000Y-141225000D01*
G36*
X143200000Y-141225000D02*
G01*
X142800000Y-141225000D01*
X142800000Y-139975000D01*
X143200000Y-139975000D01*
X143200000Y-141225000D01*
G37*
X143700000Y-141225000D02*
X143300000Y-141225000D01*
X143300000Y-139975000D01*
X143700000Y-139975000D01*
X143700000Y-141225000D01*
G36*
X143700000Y-141225000D02*
G01*
X143300000Y-141225000D01*
X143300000Y-139975000D01*
X143700000Y-139975000D01*
X143700000Y-141225000D01*
G37*
X144200000Y-141225000D02*
X143800000Y-141225000D01*
X143800000Y-139975000D01*
X144200000Y-139975000D01*
X144200000Y-141225000D01*
G36*
X144200000Y-141225000D02*
G01*
X143800000Y-141225000D01*
X143800000Y-139975000D01*
X144200000Y-139975000D01*
X144200000Y-141225000D01*
G37*
X144700000Y-141225000D02*
X144300000Y-141225000D01*
X144300000Y-139975000D01*
X144700000Y-139975000D01*
X144700000Y-141225000D01*
G36*
X144700000Y-141225000D02*
G01*
X144300000Y-141225000D01*
X144300000Y-139975000D01*
X144700000Y-139975000D01*
X144700000Y-141225000D01*
G37*
X145200000Y-141225000D02*
X144800000Y-141225000D01*
X144800000Y-139975000D01*
X145200000Y-139975000D01*
X145200000Y-141225000D01*
G36*
X145200000Y-141225000D02*
G01*
X144800000Y-141225000D01*
X144800000Y-139975000D01*
X145200000Y-139975000D01*
X145200000Y-141225000D01*
G37*
X145700000Y-141225000D02*
X145300000Y-141225000D01*
X145300000Y-139975000D01*
X145700000Y-139975000D01*
X145700000Y-141225000D01*
G36*
X145700000Y-141225000D02*
G01*
X145300000Y-141225000D01*
X145300000Y-139975000D01*
X145700000Y-139975000D01*
X145700000Y-141225000D01*
G37*
X146200000Y-141225000D02*
X145800000Y-141225000D01*
X145800000Y-139975000D01*
X146200000Y-139975000D01*
X146200000Y-141225000D01*
G36*
X146200000Y-141225000D02*
G01*
X145800000Y-141225000D01*
X145800000Y-139975000D01*
X146200000Y-139975000D01*
X146200000Y-141225000D01*
G37*
X147000000Y-141225000D02*
X146300000Y-141225000D01*
X146300000Y-139975000D01*
X147000000Y-139975000D01*
X147000000Y-141225000D01*
G36*
X147000000Y-141225000D02*
G01*
X146300000Y-141225000D01*
X146300000Y-139975000D01*
X147000000Y-139975000D01*
X147000000Y-141225000D01*
G37*
X147800000Y-141225000D02*
X147100000Y-141225000D01*
X147100000Y-139975000D01*
X147800000Y-139975000D01*
X147800000Y-141225000D01*
G36*
X147800000Y-141225000D02*
G01*
X147100000Y-141225000D01*
X147100000Y-139975000D01*
X147800000Y-139975000D01*
X147800000Y-141225000D01*
G37*
D11*
%TO.C,REF\u002A\u002A*%
X232760000Y-81800000D02*
X232560000Y-82050000D01*
X233080000Y-81555000D02*
X232880000Y-81805000D01*
X233180000Y-80080000D02*
X232670000Y-80170000D01*
D10*
X233355594Y-80217187D02*
X233020896Y-80013458D01*
X233675740Y-82400000D01*
X232511573Y-81774260D01*
X233370146Y-83767896D01*
X232657094Y-83767896D01*
X231929490Y-81192177D01*
X233050000Y-81788812D01*
X232773511Y-80057114D01*
X232540677Y-80377260D01*
X232758958Y-79329510D01*
X233355594Y-80217187D01*
G36*
X233355594Y-80217187D02*
G01*
X233020896Y-80013458D01*
X233675740Y-82400000D01*
X232511573Y-81774260D01*
X233370146Y-83767896D01*
X232657094Y-83767896D01*
X231929490Y-81192177D01*
X233050000Y-81788812D01*
X232773511Y-80057114D01*
X232540677Y-80377260D01*
X232758958Y-79329510D01*
X233355594Y-80217187D01*
G37*
%TD*%
D14*
%TO.C,J12*%
X228555000Y-127660000D03*
D15*
X228555000Y-132740000D03*
%TD*%
D16*
%TO.C,F2*%
X127700000Y-82040000D03*
X124300000Y-82040000D03*
X127700000Y-91960000D03*
X124300000Y-91960000D03*
%TD*%
D17*
%TO.C,H1*%
X117000000Y-67000000D03*
%TD*%
D18*
%TO.C,J13*%
X254445000Y-132740000D03*
D15*
X254445000Y-127660000D03*
%TD*%
D19*
%TO.C,JP1*%
X157100000Y-120750000D03*
D20*
X158370000Y-120750000D03*
%TD*%
D18*
%TO.C,J2*%
X115847500Y-84277500D03*
D15*
X115847500Y-79197500D03*
%TD*%
D18*
%TO.C,J6*%
X115837500Y-97640000D03*
D15*
X115837500Y-92560000D03*
%TD*%
D14*
%TO.C,J15*%
X228555000Y-109790000D03*
D15*
X228555000Y-114870000D03*
%TD*%
D21*
%TO.C,J5*%
X171960000Y-66187500D03*
D22*
X177040000Y-66187500D03*
%TD*%
D18*
%TO.C,J22*%
X254222500Y-79170000D03*
D15*
X254222500Y-74090000D03*
%TD*%
D14*
%TO.C,J21*%
X228777500Y-74090000D03*
D15*
X228777500Y-79170000D03*
%TD*%
D17*
%TO.C,H4*%
X117000000Y-141000000D03*
%TD*%
D19*
%TO.C,J17*%
X250500000Y-104000000D03*
D20*
X250500000Y-102730000D03*
X251770000Y-104000000D03*
X251770000Y-102730000D03*
X253040000Y-104000000D03*
X253040000Y-102730000D03*
X254310000Y-104000000D03*
X254310000Y-102730000D03*
X255580000Y-104000000D03*
X255580000Y-102730000D03*
X256850000Y-104000000D03*
X256850000Y-102730000D03*
%TD*%
D14*
%TO.C,J18*%
X228555000Y-91920000D03*
D15*
X228555000Y-97000000D03*
%TD*%
D16*
%TO.C,F1*%
X127700000Y-63080000D03*
X124300000Y-63080000D03*
X127700000Y-73000000D03*
X124300000Y-73000000D03*
%TD*%
D23*
%TO.C,J10*%
X161540000Y-141277500D03*
D22*
X156460000Y-141277500D03*
%TD*%
D24*
%TO.C,BZ1*%
X180535000Y-82250000D03*
D25*
X185535000Y-82250000D03*
%TD*%
D21*
%TO.C,J4*%
X185460000Y-66187500D03*
D22*
X190540000Y-66187500D03*
%TD*%
D21*
%TO.C,J1*%
X141080000Y-66282500D03*
D22*
X146160000Y-66282500D03*
%TD*%
D18*
%TO.C,J19*%
X254445000Y-97000000D03*
D15*
X254445000Y-91920000D03*
%TD*%
D18*
%TO.C,J16*%
X254222500Y-114870000D03*
D15*
X254222500Y-109790000D03*
%TD*%
D26*
%TO.C,PS1*%
X163160000Y-130000000D03*
X160620000Y-130000000D03*
X158080000Y-130000000D03*
X153000000Y-130000000D03*
X150460000Y-130000000D03*
X147920000Y-130000000D03*
X145380000Y-130000000D03*
%TD*%
D27*
%TO.C,C7*%
X160000000Y-69000000D03*
D28*
X160000000Y-64000000D03*
%TD*%
D29*
%TO.C,PS4*%
X175030000Y-109820000D03*
X175030000Y-104740000D03*
X175030000Y-94580000D03*
X220750000Y-112360000D03*
X220750000Y-102200000D03*
X220750000Y-92040000D03*
%TD*%
D18*
%TO.C,J3*%
X115837500Y-111180000D03*
D15*
X115837500Y-106100000D03*
%TD*%
D19*
%TO.C,JP2*%
X157145000Y-116125000D03*
D20*
X158415000Y-116125000D03*
%TD*%
D30*
%TO.C,PS5*%
X199680000Y-76590000D03*
X199680000Y-71510000D03*
X220000000Y-84210000D03*
X220000000Y-74050000D03*
X220000000Y-63890000D03*
X199680000Y-63890000D03*
%TD*%
D17*
%TO.C,H2*%
X239000000Y-67000000D03*
%TD*%
D19*
%TO.C,J14*%
X250500000Y-121870000D03*
D20*
X250500000Y-120600000D03*
X251770000Y-121870000D03*
X251770000Y-120600000D03*
X253040000Y-121870000D03*
X253040000Y-120600000D03*
X254310000Y-121870000D03*
X254310000Y-120600000D03*
X255580000Y-121870000D03*
X255580000Y-120600000D03*
X256850000Y-121870000D03*
X256850000Y-120600000D03*
%TD*%
D16*
%TO.C,F3*%
X127700000Y-101140000D03*
X124300000Y-101140000D03*
X127700000Y-111060000D03*
X124300000Y-111060000D03*
%TD*%
D19*
%TO.C,JP3*%
X161375000Y-116175000D03*
D20*
X162645000Y-116175000D03*
%TD*%
D30*
%TO.C,PS3*%
X177800000Y-121940000D03*
X182880000Y-121940000D03*
X170180000Y-142260000D03*
X180340000Y-142260000D03*
X190500000Y-142260000D03*
X190500000Y-121940000D03*
%TD*%
%TO.C,PS2*%
X199780000Y-134500000D03*
X199780000Y-129420000D03*
X220100000Y-142120000D03*
X220100000Y-131960000D03*
X220100000Y-121800000D03*
X199780000Y-121800000D03*
%TD*%
D19*
%TO.C,J20*%
X250500000Y-86170000D03*
D20*
X250500000Y-84900000D03*
X251770000Y-86170000D03*
X251770000Y-84900000D03*
X253040000Y-86170000D03*
X253040000Y-84900000D03*
X254310000Y-86170000D03*
X254310000Y-84900000D03*
X255580000Y-86170000D03*
X255580000Y-84900000D03*
X256850000Y-86170000D03*
X256850000Y-84900000D03*
%TD*%
D19*
%TO.C,JP4*%
X161375000Y-120775000D03*
D20*
X162645000Y-120775000D03*
%TD*%
D19*
%TO.C,J8*%
X123920000Y-141000000D03*
D20*
X123920000Y-139730000D03*
X125190000Y-141000000D03*
X125190000Y-139730000D03*
X126460000Y-141000000D03*
X126460000Y-139730000D03*
X127730000Y-141000000D03*
X127730000Y-139730000D03*
X129000000Y-141000000D03*
X129000000Y-139730000D03*
X130270000Y-141000000D03*
X130270000Y-139730000D03*
X131540000Y-141000000D03*
X131540000Y-139730000D03*
%TD*%
D19*
%TO.C,J7*%
X116270000Y-132570000D03*
D20*
X115000000Y-132570000D03*
X116270000Y-131300000D03*
X115000000Y-131300000D03*
X116270000Y-130030000D03*
X115000000Y-130030000D03*
X116270000Y-128760000D03*
X115000000Y-128760000D03*
X116270000Y-127490000D03*
X115000000Y-127490000D03*
X116270000Y-126220000D03*
X115000000Y-126220000D03*
X116270000Y-124950000D03*
X115000000Y-124950000D03*
X116270000Y-123680000D03*
X115000000Y-123680000D03*
X116270000Y-122410000D03*
X115000000Y-122410000D03*
X116270000Y-121140000D03*
X115000000Y-121140000D03*
%TD*%
D17*
%TO.C,H3*%
X239000000Y-141000000D03*
%TD*%
D31*
%TO.C,R19*%
X212500000Y-81200000D03*
X211100000Y-81200000D03*
X211100000Y-78200000D03*
X212500000Y-78200000D03*
%TD*%
%TO.C,R22*%
X212000000Y-138200000D03*
X210600000Y-138200000D03*
X210600000Y-135200000D03*
X212000000Y-135200000D03*
%TD*%
D32*
%TO.C,TP9*%
X223500000Y-75750000D03*
X223500000Y-73750000D03*
%TD*%
D33*
%TO.C,R1*%
X176900000Y-142300000D03*
X174900000Y-142300000D03*
%TD*%
D34*
%TO.C,R27*%
X195000000Y-84450000D03*
X195000000Y-82450000D03*
%TD*%
D35*
%TO.C,C22*%
X150750000Y-140462500D03*
X150750000Y-142537500D03*
%TD*%
D36*
%TO.C,TP7*%
X166500000Y-100000000D03*
%TD*%
D37*
%TO.C,R34*%
X184200000Y-96400000D03*
X184200000Y-98400000D03*
%TD*%
D36*
%TO.C,TP6*%
X166500000Y-92250000D03*
%TD*%
D33*
%TO.C,R35*%
X198900000Y-119200000D03*
X196900000Y-119200000D03*
%TD*%
%TO.C,R7*%
X139235000Y-110700000D03*
X137235000Y-110700000D03*
%TD*%
D38*
%TO.C,D7*%
X203350000Y-69410000D03*
X201450000Y-69410000D03*
X202400000Y-65990000D03*
%TD*%
D39*
%TO.C,U1*%
X146635000Y-115592500D03*
X146635000Y-114957500D03*
X146635000Y-114322500D03*
X146635000Y-113687500D03*
X146635000Y-113052500D03*
X146635000Y-112417500D03*
X146635000Y-111782500D03*
X146635000Y-111147500D03*
X146635000Y-110512500D03*
X146635000Y-109877500D03*
X146635000Y-109242500D03*
X146635000Y-108607500D03*
X151835000Y-108607500D03*
X151835000Y-109242500D03*
X151835000Y-109877500D03*
X151835000Y-110512500D03*
X151835000Y-111147500D03*
X151835000Y-111782500D03*
X151835000Y-112417500D03*
X151835000Y-113052500D03*
X151835000Y-113687500D03*
X151835000Y-114322500D03*
X151835000Y-114957500D03*
X151835000Y-115592500D03*
%TD*%
D40*
%TO.C,U10*%
X144224999Y-92674700D03*
X143575001Y-92674700D03*
X142924999Y-92674700D03*
X142275001Y-92674700D03*
X142275001Y-88585300D03*
X142924999Y-88585300D03*
X143575001Y-88585300D03*
X144224999Y-88585300D03*
%TD*%
D41*
%TO.C,R24*%
X127050000Y-105300000D03*
X120950000Y-105300000D03*
%TD*%
D42*
%TO.C,U6*%
X217972850Y-108374999D03*
X217972850Y-107725001D03*
X217972850Y-107074999D03*
X217972850Y-106425001D03*
X220627150Y-106425001D03*
X220627150Y-107074999D03*
X220627150Y-107725001D03*
X220627150Y-108374999D03*
%TD*%
D43*
%TO.C,R6*%
X137235000Y-116700000D03*
X139235000Y-116700000D03*
%TD*%
%TO.C,R9*%
X137235000Y-112700000D03*
X139235000Y-112700000D03*
%TD*%
D34*
%TO.C,R11*%
X141235000Y-108700000D03*
X141235000Y-106700000D03*
%TD*%
D43*
%TO.C,R12*%
X137235000Y-108700000D03*
X139235000Y-108700000D03*
%TD*%
D44*
%TO.C,C12*%
X130800000Y-119137500D03*
X130800000Y-117062500D03*
%TD*%
D35*
%TO.C,C10*%
X137400000Y-125762500D03*
X137400000Y-127837500D03*
%TD*%
D45*
%TO.C,C9*%
X128837500Y-122200000D03*
X126762500Y-122200000D03*
%TD*%
D46*
%TO.C,D5*%
X200800000Y-115490000D03*
X202700000Y-115490000D03*
X201750000Y-118910000D03*
%TD*%
D44*
%TO.C,C14*%
X215300000Y-135600000D03*
X215300000Y-133525000D03*
%TD*%
D45*
%TO.C,C8*%
X128837500Y-120000000D03*
X126762500Y-120000000D03*
%TD*%
D47*
%TO.C,Q7*%
X158000000Y-136540000D03*
X158000000Y-135270000D03*
X158000000Y-134000000D03*
X158000000Y-132730000D03*
%TD*%
D48*
%TO.C,J11*%
X147140000Y-141675000D03*
X141360000Y-141675000D03*
D49*
X148570000Y-141175000D03*
X139930000Y-141175000D03*
D50*
X148570000Y-145355000D03*
X139930000Y-145355000D03*
%TD*%
D51*
%TO.C,D4*%
X152750000Y-140229300D03*
X152750000Y-141270700D03*
%TD*%
D34*
%TO.C,R5*%
X141235000Y-116700000D03*
X141235000Y-114700000D03*
%TD*%
D44*
%TO.C,C17*%
X118400000Y-104137500D03*
X118400000Y-102062500D03*
%TD*%
D35*
%TO.C,C11*%
X139600000Y-125762500D03*
X139600000Y-127837500D03*
%TD*%
D52*
%TO.C,Q9*%
X204950000Y-69390000D03*
X206850000Y-69390000D03*
X205900000Y-71265000D03*
%TD*%
D36*
%TO.C,TP1*%
X196200000Y-132800000D03*
%TD*%
D42*
%TO.C,U5*%
X176783200Y-137800000D03*
X176783200Y-137150002D03*
X176783200Y-136500000D03*
X176783200Y-135850002D03*
X179437500Y-135850002D03*
X179437500Y-136500000D03*
X179437500Y-137150002D03*
X179437500Y-137800000D03*
%TD*%
D36*
%TO.C,TP5*%
X166600000Y-85000000D03*
%TD*%
D33*
%TO.C,R33*%
X207150000Y-67290000D03*
X205150000Y-67290000D03*
%TD*%
D31*
%TO.C,R20*%
X171600000Y-139000000D03*
X170200000Y-139000000D03*
X170200000Y-136000000D03*
X171600000Y-136000000D03*
%TD*%
D34*
%TO.C,R31*%
X188500000Y-84250000D03*
X188500000Y-82250000D03*
%TD*%
D36*
%TO.C,TP2*%
X158200000Y-86400000D03*
%TD*%
D43*
%TO.C,R26*%
X145000000Y-132250000D03*
X147000000Y-132250000D03*
%TD*%
D35*
%TO.C,C23*%
X140200000Y-86562500D03*
X140200000Y-88637500D03*
%TD*%
D34*
%TO.C,R32*%
X134800000Y-136400000D03*
X134800000Y-134400000D03*
%TD*%
D44*
%TO.C,C15*%
X174837500Y-136037500D03*
X174837500Y-133962500D03*
%TD*%
D33*
%TO.C,R29*%
X205400000Y-141900000D03*
X203400000Y-141900000D03*
%TD*%
D41*
%TO.C,R23*%
X126900000Y-96125000D03*
X120800000Y-96125000D03*
%TD*%
D31*
%TO.C,R21*%
X212800000Y-109400000D03*
X211400000Y-109400000D03*
X211400000Y-106400000D03*
X212800000Y-106400000D03*
%TD*%
D42*
%TO.C,U7*%
X116527150Y-100225001D03*
X116527150Y-100874999D03*
X116527150Y-101525001D03*
X116527150Y-102174999D03*
X113872850Y-102174999D03*
X113872850Y-101525001D03*
X113872850Y-100874999D03*
X113872850Y-100225001D03*
%TD*%
D44*
%TO.C,C16*%
X216100000Y-106637500D03*
X216100000Y-104562500D03*
%TD*%
D53*
%TO.C,Q11*%
X198950000Y-117075000D03*
X197050000Y-117075000D03*
X198000000Y-115200000D03*
%TD*%
D34*
%TO.C,R8*%
X141235000Y-112700000D03*
X141235000Y-110700000D03*
%TD*%
D42*
%TO.C,U3*%
X218099998Y-80200000D03*
X218099998Y-79550002D03*
X218099998Y-78900000D03*
X218099998Y-78250002D03*
X220754298Y-78250002D03*
X220754298Y-78900000D03*
X220754298Y-79550002D03*
X220754298Y-80200000D03*
%TD*%
D54*
%TO.C,R25*%
X151500000Y-137750000D03*
X151500000Y-136350000D03*
X154500000Y-136350000D03*
X154500000Y-137750000D03*
%TD*%
D32*
%TO.C,TP10*%
X223500000Y-78500000D03*
X223500000Y-80500000D03*
%TD*%
D43*
%TO.C,R28*%
X182000000Y-134000000D03*
X184000000Y-134000000D03*
%TD*%
D33*
%TO.C,R10*%
X139235000Y-106700000D03*
X137235000Y-106700000D03*
%TD*%
D36*
%TO.C,TP4*%
X166500000Y-77250000D03*
%TD*%
%TO.C,TP3*%
X192800000Y-132800000D03*
%TD*%
D52*
%TO.C,Q10*%
X180450000Y-96362500D03*
X182350000Y-96362500D03*
X181400000Y-98237500D03*
%TD*%
D42*
%TO.C,U4*%
X217172850Y-137774999D03*
X217172850Y-137125001D03*
X217172850Y-136474999D03*
X217172850Y-135825001D03*
X219827150Y-135825001D03*
X219827150Y-136474999D03*
X219827150Y-137125001D03*
X219827150Y-137774999D03*
%TD*%
D33*
%TO.C,R30*%
X200800000Y-141900000D03*
X198800000Y-141900000D03*
%TD*%
D44*
%TO.C,C13*%
X216100000Y-78537500D03*
X216100000Y-76462500D03*
%TD*%
D55*
%TO.C,Q8*%
X192500000Y-82550000D03*
X192500000Y-84450000D03*
X190625000Y-83500000D03*
%TD*%
D36*
%TO.C,TP8*%
X166500000Y-107500000D03*
%TD*%
D56*
%TO.C,U8*%
X119125001Y-110172850D03*
X119774999Y-110172850D03*
X120425001Y-110172850D03*
X121074999Y-110172850D03*
X121074999Y-112827150D03*
X120425001Y-112827150D03*
X119774999Y-112827150D03*
X119125001Y-112827150D03*
%TD*%
D38*
%TO.C,D6*%
X178750000Y-96410000D03*
X176850000Y-96410000D03*
X177800000Y-92990000D03*
%TD*%
D33*
%TO.C,R4*%
X139235000Y-114700000D03*
X137235000Y-114700000D03*
%TD*%
M02*
