M48
; DRILL file {KiCad 9.0.0} date 2025-03-08T17:47:19+0100
; FORMAT={-:-/ absolute / inch / decimal}
; #@! TF.CreationDate,2025-03-08T17:47:19+01:00
; #@! TF.GenerationSoftware,Kicad,Pcbnew,9.0.0
; #@! TF.FileFunction,MixedPlating,1,4
FMAT,2
INCH
; #@! TA.AperFunction,Plated,PTH,ViaDrill
T1C0.0118
; #@! TA.AperFunction,Plated,PTH,ComponentDrill
T2C0.0236
; #@! TA.AperFunction,Plated,PTH,ComponentDrill
T3C0.0256
; #@! TA.AperFunction,Plated,PTH,ComponentDrill
T4C0.0276
; #@! TA.AperFunction,Plated,PTH,ComponentDrill
T5C0.0299
; #@! TA.AperFunction,Plated,PTH,ComponentDrill
T6C0.0360
; #@! TA.AperFunction,Plated,PTH,ComponentDrill
T7C0.0472
; #@! TA.AperFunction,Plated,PTH,ComponentDrill
T8C0.0492
; #@! TA.AperFunction,Plated,PTH,ComponentDrill
T9C0.0551
; #@! TA.AperFunction,Plated,PTH,ComponentDrill
T10C0.0701
; #@! TA.AperFunction,Plated,PTH,ComponentDrill
T11C0.1260
; #@! TA.AperFunction,NonPlated,NPTH,ComponentDrill
T12C0.0256
%
G90
G05
T1
X4.3307Y-2.6575
X4.3307Y-2.7559
X4.3307Y-2.8543
X4.3307Y-2.9528
X4.3307Y-3.0512
X4.3307Y-3.1496
X4.3307Y-3.248
X4.3307Y-3.3465
X4.3307Y-3.4449
X4.3307Y-3.5433
X4.3307Y-3.6417
X4.3307Y-3.7402
X4.3307Y-5.4134
X4.3307Y-5.5118
X4.3307Y-5.6102
X4.3603Y-4.6365
X4.3685Y-4.5306
X4.3937Y-4.5118
X4.3937Y-4.6358
X4.3976Y-3.9528
X4.4291Y-2.5591
X4.4291Y-2.6575
X4.4291Y-2.7559
X4.4291Y-2.8543
X4.4291Y-2.9528
X4.4291Y-3.0512
X4.4291Y-3.1496
X4.4291Y-3.248
X4.4291Y-3.3465
X4.4291Y-3.4449
X4.4291Y-3.5433
X4.4291Y-3.6417
X4.4291Y-3.8386
X4.4291Y-3.937
X4.4291Y-3.997
X4.4291Y-4.0285
X4.4291Y-5.4134
X4.4291Y-5.5118
X4.4291Y-5.6102
X4.4291Y-5.7087
X4.4685Y-4.0748
X4.4685Y-4.252
X4.4685Y-4.4724
X4.5276Y-2.4606
X4.5276Y-2.8543
X4.5276Y-2.9528
X4.5276Y-3.0512
X4.5276Y-3.4449
X4.5276Y-3.5433
X4.5276Y-3.7402
X4.5276Y-4.0748
X4.5276Y-4.252
X4.5276Y-4.4724
X4.5276Y-5.7087
X4.5276Y-5.8071
X4.5866Y-4.0748
X4.5866Y-4.252
X4.5866Y-4.5709
X4.626Y-2.3622
X4.626Y-2.4606
X4.626Y-2.8543
X4.626Y-2.9528
X4.626Y-3.0512
X4.626Y-3.4449
X4.626Y-3.5433
X4.626Y-3.7402
X4.6614Y-4.1496
X4.6693Y-3.9724
X4.7244Y-2.3622
X4.7244Y-2.4606
X4.7244Y-2.8543
X4.7244Y-2.9528
X4.7244Y-3.0512
X4.7244Y-3.4449
X4.7244Y-5.2165
X4.7244Y-5.7087
X4.7244Y-5.8071
X4.7323Y-4.5354
X4.7608Y-4.2717
X4.7667Y-4.5276
X4.7795Y-5.0315
X4.7992Y-4.274
X4.8228Y-2.3622
X4.8228Y-2.6575
X4.8228Y-2.7559
X4.8228Y-3.0512
X4.8228Y-3.3465
X4.8228Y-3.4449
X4.8228Y-4.5276
X4.8228Y-5.1181
X4.8228Y-5.4134
X4.8228Y-5.6102
X4.8228Y-5.7087
X4.8228Y-5.8071
X4.9213Y-2.3622
X4.9213Y-2.6575
X4.9213Y-2.7559
X4.9213Y-3.0512
X4.9213Y-3.3465
X4.9213Y-3.4449
X4.9213Y-4.5276
X4.9213Y-5.0197
X4.9213Y-5.7087
X4.9213Y-5.8071
X4.937Y-4.7244
X4.9409Y-4.8071
X5.0197Y-2.3622
X5.0197Y-2.6575
X5.0197Y-2.7559
X5.0197Y-3.0512
X5.0197Y-3.3465
X5.0197Y-3.4449
X5.0197Y-4.5276
X5.0197Y-5.6102
X5.0197Y-5.7087
X5.0197Y-5.8071
X5.0236Y-4.9685
X5.0276Y-4.937
X5.0512Y-5.0588
X5.0521Y-5.1269
X5.0551Y-4.9961
X5.0591Y-5.0276
X5.0591Y-5.0906
X5.0591Y-5.1577
X5.072Y-4.7693
X5.0984Y-3.7844
X5.1024Y-4.7693
X5.1043Y-4.1457
X5.1063Y-3.7608
X5.1063Y-3.8081
X5.1122Y-4.122
X5.1122Y-4.1693
X5.1181Y-2.3622
X5.1181Y-2.7559
X5.1181Y-3.3465
X5.1181Y-3.4449
X5.1181Y-4.4291
X5.1181Y-4.5276
X5.1181Y-5.8071
X5.1299Y-3.753
X5.1299Y-3.7844
X5.1299Y-3.8159
X5.1358Y-4.1142
X5.1358Y-4.1457
X5.1358Y-4.1772
X5.1378Y-5.126
X5.1417Y-4.748
X5.1519Y-4.8226
X5.1535Y-3.7608
X5.1535Y-3.8081
X5.1594Y-4.122
X5.1594Y-4.1693
X5.1614Y-3.7844
X5.1673Y-4.1457
X5.1846Y-4.2702
X5.1878Y-5.0178
X5.1969Y-2.9921
X5.1969Y-3.0315
X5.1969Y-3.0709
X5.1969Y-3.1102
X5.1969Y-3.3071
X5.1969Y-3.3465
X5.1969Y-4.937
X5.1976Y-4.7312
X5.1978Y-4.6142
X5.2008Y-4.8307
X5.202Y-4.2965
X5.2085Y-4.8622
X5.2154Y-5.0328
X5.2165Y-2.3622
X5.2165Y-2.4606
X5.2165Y-2.7559
X5.2165Y-2.8543
X5.2165Y-4.4291
X5.2165Y-4.5276
X5.2165Y-5.8071
X5.2293Y-4.6142
X5.2323Y-5.1535
X5.2362Y-2.9921
X5.2392Y-4.8691
X5.2402Y-4.9016
X5.2455Y-3.4213
X5.2557Y-4.734
X5.2559Y-4.4783
X5.2559Y-5.126
X5.2683Y-4.9409
X5.2685Y-5.0379
X5.2848Y-3.7441
X5.2925Y-4.4528
X5.2953Y-3.3071
X5.2953Y-3.3465
X5.2953Y-4.7303
X5.3008Y-4.1756
X5.315Y-2.3622
X5.315Y-2.4606
X5.315Y-2.7559
X5.315Y-2.8543
X5.315Y-4.626
X5.315Y-5.5118
X5.315Y-5.6102
X5.315Y-5.7087
X5.315Y-5.8071
X5.3154Y-4.7545
X5.3242Y-4.4148
X5.3248Y-4.152
X5.3346Y-5.1299
X5.3504Y-4.2362
X5.3504Y-4.3583
X5.3504Y-4.9508
X5.3511Y-4.1346
X5.3622Y-5.0315
X5.3632Y-4.5856
X5.3858Y-5.0787
X5.3956Y-5.2047
X5.4134Y-2.3622
X5.4134Y-2.4606
X5.4134Y-2.7559
X5.4134Y-2.8543
X5.4134Y-2.9134
X5.4134Y-3.3465
X5.4134Y-3.7795
X5.4134Y-5.315
X5.4134Y-5.4134
X5.4134Y-5.5118
X5.4134Y-5.6102
X5.4134Y-5.7087
X5.4134Y-5.8071
X5.4173Y-5.0787
X5.4331Y-5.2126
X5.4409Y-5.2441
X5.4488Y-5.0787
X5.4724Y-2.8543
X5.4724Y-2.9724
X5.4724Y-3.2874
X5.4724Y-3.4055
X5.4724Y-3.7205
X5.4724Y-3.8386
X5.4921Y-4.1417
X5.5118Y-2.3622
X5.5118Y-2.4606
X5.5118Y-2.7559
X5.5118Y-2.8543
X5.5118Y-3.0512
X5.5118Y-3.1496
X5.5118Y-3.6417
X5.5118Y-3.937
X5.5118Y-4.0354
X5.5118Y-5.2165
X5.5118Y-5.315
X5.5118Y-5.4134
X5.5118Y-5.8071
X5.5197Y-3.5514
X5.5413Y-4.7047
X5.5453Y-4.7776
X5.5473Y-5.3701
X5.5512Y-4.1417
X5.5512Y-5.4331
X5.5709Y-3.4252
X5.5709Y-4.9173
X5.5709Y-4.9961
X5.5768Y-5.3406
X5.5846Y-5.3996
X5.5906Y-3.3957
X5.5925Y-3.9488
X5.5945Y-3.0827
X5.6004Y-4.9173
X5.6004Y-4.9961
X5.6102Y-2.3622
X5.6102Y-2.4606
X5.6102Y-2.7559
X5.6102Y-2.8543
X5.6102Y-3.4252
X5.6102Y-4.1417
X5.6102Y-5.8071
X5.6201Y-3.9547
X5.622Y-3.0886
X5.6299Y-3.2874
X5.6299Y-3.3268
X5.6299Y-3.3957
X5.6299Y-3.7205
X5.6299Y-3.7598
X5.6299Y-3.7992
X5.6299Y-4.1929
X5.6398Y-4.2717
X5.6398Y-4.6949
X5.6417Y-5.2402
X5.6437Y-3.9409
X5.6457Y-3.0748
X5.6476Y-3.2196
X5.6483Y-4.0859
X5.6496Y-3.4252
X5.6496Y-5.4891
X5.6516Y-3.8898
X5.6535Y-3.0236
X5.6575Y-4.564
X5.6594Y-3.9173
X5.6614Y-3.0512
X5.6654Y-4.3012
X5.6693Y-4.2126
X5.6841Y-3.7077
X5.689Y-4.563
X5.6909Y-5.3858
X5.6929Y-4.3268
X5.7087Y-2.3622
X5.7087Y-2.4606
X5.7087Y-2.7559
X5.7087Y-2.8543
X5.7087Y-2.9724
X5.7087Y-4.9213
X5.7087Y-5.0197
X5.7087Y-5.8071
X5.7107Y-4.6892
X5.7205Y-4.563
X5.7244Y-4.5039
X5.7283Y-3.4252
X5.7283Y-3.8189
X5.7283Y-3.8583
X5.7283Y-5.4891
X5.7343Y-4.0709
X5.7362Y-3.2047
X5.7382Y-3.4744
X5.7421Y-4.0984
X5.7441Y-3.0413
X5.7441Y-3.2323
X5.7441Y-3.9075
X5.75Y-4.0472
X5.752Y-3.1811
X5.7657Y-3.5768
X5.7657Y-3.6063
X5.7657Y-3.6929
X5.7677Y-2.9724
X5.7677Y-3.3858
X5.7677Y-3.8189
X5.7677Y-4.5945
X5.7736Y-4.0335
X5.7756Y-3.1673
X5.7874Y-3.5236
X5.7953Y-3.6063
X5.7953Y-3.6929
X5.7972Y-3.9665
X5.8012Y-4.0394
X5.8031Y-3.1732
X5.8071Y-2.3622
X5.8071Y-2.4606
X5.8071Y-2.7559
X5.8071Y-2.8543
X5.8071Y-4.9213
X5.8071Y-5.0197
X5.8071Y-5.8071
X5.8169Y-3.5236
X5.8268Y-2.9724
X5.8268Y-3.9665
X5.8268Y-5.2461
X5.8465Y-4.5276
X5.8465Y-4.5945
X5.8504Y-5.1969
X5.8583Y-3.2677
X5.8661Y-3.6122
X5.874Y-3.3543
X5.8793Y-3.792
X5.8858Y-2.9724
X5.8858Y-3.0315
X5.8858Y-3.0906
X5.8858Y-3.1496
X5.8858Y-3.2087
X5.8898Y-5.1949
X5.9055Y-2.3622
X5.9055Y-2.4606
X5.9055Y-2.5591
X5.9055Y-2.6575
X5.9055Y-2.7559
X5.9055Y-2.8543
X5.9055Y-4.5039
X5.9055Y-4.7244
X5.9055Y-4.9213
X5.9055Y-5.0197
X5.9055Y-5.8071
X5.9055Y-5.252
X5.9065Y-4.5364
X5.9114Y-4.1299
X5.9252Y-5.1654
X5.9301Y-4.5591
X5.9344Y-4.2165
X5.9449Y-2.9724
X5.9449Y-3.3858
X5.9646Y-3.8189
X6.0039Y-2.3622
X6.0039Y-2.4606
X6.0039Y-2.5591
X6.0039Y-2.6575
X6.0039Y-2.7559
X6.0039Y-2.8543
X6.0039Y-2.9724
X6.0039Y-3.3858
X6.0039Y-4.9213
X6.0039Y-5.0197
X6.0039Y-5.1949
X6.0039Y-5.7087
X6.0039Y-5.8071
X6.0236Y-3.8189
X6.0276Y-4.3259
X6.0433Y-4.2421
X6.0433Y-4.2815
X6.0433Y-4.3701
X6.0433Y-4.4488
X6.063Y-2.9724
X6.063Y-3.3858
X6.0827Y-3.8189
X6.1024Y-2.3622
X6.1024Y-2.4606
X6.1024Y-2.5591
X6.1024Y-4.5276
X6.1024Y-4.7244
X6.1024Y-4.9213
X6.1024Y-5.0197
X6.1024Y-5.1181
X6.1024Y-5.2461
X6.1024Y-5.7087
X6.1024Y-5.8071
X6.1073Y-5.3002
X6.1299Y-5.1949
X6.1614Y-4.8819
X6.1663Y-5.31
X6.1732Y-5.2441
X6.2008Y-2.3622
X6.2008Y-2.4606
X6.2008Y-5.7087
X6.2008Y-5.8071
X6.2283Y-3.4016
X6.2496Y-4.8686
X6.2496Y-4.902
X6.2992Y-2.3622
X6.2992Y-5.7087
X6.2992Y-5.8071
X6.3976Y-2.3622
X6.3976Y-2.4606
X6.3976Y-2.5591
X6.3976Y-5.7087
X6.3976Y-5.8071
X6.4646Y-4.9685
X6.4854Y-4.9449
X6.4916Y-5.0083
X6.4961Y-2.3622
X6.4961Y-2.4606
X6.4961Y-2.5591
X6.4961Y-5.1181
X6.4961Y-5.7087
X6.4961Y-5.8071
X6.5107Y-4.9213
X6.5124Y-4.9847
X6.5236Y-5.311
X6.5315Y-5.2874
X6.5315Y-5.3346
X6.5354Y-5.1181
X6.5492Y-5.1949
X6.5512Y-4.9055
X6.5551Y-3.0413
X6.5551Y-3.6319
X6.5551Y-3.937
X6.5551Y-4.2323
X6.5551Y-5.2795
X6.5551Y-5.311
X6.5551Y-5.3425
X6.5591Y-3.3465
X6.5748Y-5.1181
X6.5787Y-5.2874
X6.5787Y-5.3346
X6.5866Y-5.311
X6.5945Y-2.3622
X6.5945Y-2.4606
X6.5945Y-2.5591
X6.5945Y-2.6575
X6.5945Y-2.7559
X6.5945Y-2.9528
X6.5945Y-5.7087
X6.5945Y-5.8071
X6.5984Y-4.4626
X6.6142Y-3.3268
X6.6142Y-3.622
X6.6142Y-3.9173
X6.6142Y-5.1181
X6.622Y-4.4547
X6.622Y-4.4843
X6.6457Y-4.4626
X6.6535Y-4.1634
X6.6535Y-4.8819
X6.6732Y-3.3268
X6.6732Y-3.622
X6.6732Y-3.9173
X6.6831Y-4.1339
X6.6929Y-2.3622
X6.6929Y-2.4606
X6.6929Y-2.7559
X6.6929Y-2.9528
X6.6929Y-4.1732
X6.6929Y-4.8425
X6.6929Y-5.2756
X6.6929Y-5.7087
X6.6929Y-5.8071
X6.7126Y-4.1043
X6.7126Y-5.1949
X6.7224Y-3.1102
X6.7224Y-4.1437
X6.7323Y-3.8189
X6.7323Y-4.1831
X6.7323Y-4.6063
X6.7323Y-4.685
X6.7323Y-4.8031
X6.7323Y-5.2756
X6.7421Y-3.435
X6.7421Y-3.4744
X6.7421Y-3.5138
X6.752Y-3.1398
X6.7618Y-3.1004
X6.7618Y-3.7894
X6.7717Y-3.4547
X6.7717Y-3.4941
X6.7717Y-3.8287
X6.7717Y-5.2756
X6.7815Y-3.1693
X6.7913Y-2.3622
X6.7913Y-2.4606
X6.7913Y-3.1299
X6.7913Y-3.7598
X6.7913Y-5.7087
X6.7913Y-5.8071
X6.8012Y-3.0906
X6.8012Y-3.4744
X6.8012Y-3.7992
X6.811Y-3.8386
X6.811Y-5.2756
X6.811Y-5.315
X6.8189Y-5.3543
X6.8898Y-2.3622
X6.8898Y-2.4606
X6.8898Y-2.7559
X6.8898Y-3.1496
X6.8898Y-3.3465
X6.8898Y-4.5276
X6.8898Y-4.7244
X6.8898Y-4.9213
X6.8898Y-5.5118
X6.8898Y-5.7087
X6.8898Y-5.8071
X6.9882Y-2.3622
X6.9882Y-2.4606
X6.9882Y-5.2741
X6.9882Y-5.7087
X6.9882Y-5.8071
X7.0079Y-3.8819
X7.0276Y-5.2953
X7.0551Y-3.8661
X7.0866Y-2.3622
X7.0866Y-2.4606
X7.0866Y-2.5591
X7.0866Y-2.7559
X7.0866Y-3.1496
X7.0866Y-3.3465
X7.0866Y-4.3307
X7.0866Y-4.5276
X7.0866Y-4.9213
X7.0866Y-5.1181
X7.0866Y-5.5118
X7.0866Y-5.7087
X7.0866Y-5.8071
X7.1093Y-4.0167
X7.1138Y-5.3915
X7.1181Y-5.311
X7.126Y-3.9449
X7.1654Y-5.3189
X7.1654Y-5.4232
X7.185Y-2.3622
X7.185Y-2.4606
X7.185Y-5.7087
X7.185Y-5.8071
X7.252Y-3.937
X7.2835Y-2.3622
X7.2835Y-2.4606
X7.2835Y-2.7559
X7.2835Y-3.1496
X7.2835Y-3.3465
X7.2835Y-3.5433
X7.2835Y-4.9213
X7.2835Y-5.1181
X7.2835Y-5.5118
X7.2835Y-5.7087
X7.2835Y-5.8071
X7.2992Y-5.2756
X7.3819Y-2.3622
X7.3819Y-2.4606
X7.3819Y-5.7087
X7.3819Y-5.8071
X7.4213Y-3.3819
X7.4803Y-2.3622
X7.4803Y-2.4606
X7.4803Y-2.7559
X7.4803Y-3.1496
X7.4803Y-3.3465
X7.4803Y-3.5433
X7.4803Y-3.7402
X7.4803Y-4.2323
X7.4803Y-4.5276
X7.4803Y-4.7244
X7.4803Y-4.9213
X7.4803Y-5.5118
X7.4803Y-5.7087
X7.4803Y-5.8071
X7.5669Y-4.5118
X7.5787Y-2.3622
X7.5787Y-2.4606
X7.5787Y-5.7087
X7.5787Y-5.8071
X7.591Y-5.2279
X7.6457Y-4.4764
X7.6535Y-4.6299
X7.6772Y-2.3622
X7.6772Y-2.4606
X7.6772Y-2.5591
X7.6772Y-2.7559
X7.6772Y-3.1496
X7.6772Y-3.5433
X7.6772Y-3.7402
X7.6772Y-3.937
X7.6772Y-4.5669
X7.6772Y-4.7244
X7.6772Y-4.9213
X7.6772Y-5.1181
X7.6772Y-5.315
X7.6772Y-5.7087
X7.6772Y-5.8071
X7.7004Y-4.4515
X7.7244Y-5.2283
X7.7325Y-4.4528
X7.748Y-4.7559
X7.7677Y-5.6181
X7.7756Y-2.3622
X7.7756Y-2.4606
X7.7756Y-5.7087
X7.7756Y-5.8071
X7.8661Y-2.7087
X7.874Y-2.3622
X7.874Y-3.1496
X7.874Y-3.3465
X7.874Y-3.5433
X7.874Y-3.7402
X7.874Y-3.937
X7.874Y-4.1339
X7.874Y-4.9213
X7.874Y-5.5118
X7.874Y-5.7087
X7.874Y-5.8071
X7.9122Y-4.2429
X7.9344Y-4.2651
X7.9567Y-4.2874
X7.9567Y-5.5886
X7.9626Y-3.376
X7.9724Y-2.3622
X7.9724Y-2.4606
X7.9724Y-5.7087
X7.9724Y-5.8071
X7.9783Y-2.8819
X7.9803Y-4.3083
X8.0709Y-2.3622
X8.0709Y-2.4606
X8.0709Y-2.9528
X8.0709Y-3.1496
X8.0709Y-3.3465
X8.0709Y-3.5433
X8.0709Y-3.7402
X8.0709Y-3.937
X8.0709Y-4.1339
X8.0709Y-4.3307
X8.0709Y-5.315
X8.0709Y-5.5118
X8.0709Y-5.7087
X8.0709Y-5.8071
X8.0748Y-2.5906
X8.1496Y-5.5591
X8.1693Y-2.3622
X8.1693Y-2.4606
X8.1693Y-5.7087
X8.1693Y-5.8071
X8.2677Y-2.3622
X8.2677Y-2.4606
X8.2677Y-2.5591
X8.2677Y-3.3465
X8.2677Y-3.5433
X8.2677Y-3.7402
X8.2677Y-4.5276
X8.2677Y-4.7244
X8.2677Y-4.9213
X8.2677Y-5.7087
X8.2677Y-5.8071
X8.2756Y-5.1614
X8.2795Y-2.9094
X8.2835Y-5.1378
X8.2835Y-5.185
X8.2874Y-2.8858
X8.2874Y-2.9331
X8.2913Y-3.9803
X8.2992Y-3.9567
X8.2992Y-4.0039
X8.3071Y-5.1299
X8.3071Y-5.1614
X8.3071Y-5.1929
X8.311Y-2.878
X8.311Y-2.9094
X8.311Y-2.9409
X8.3228Y-3.9488
X8.3228Y-3.9803
X8.3228Y-4.0118
X8.3307Y-5.1378
X8.3307Y-5.185
X8.3346Y-2.8858
X8.3346Y-2.9331
X8.3386Y-5.1614
X8.3425Y-2.9094
X8.3465Y-3.9567
X8.3465Y-4.0039
X8.3543Y-3.9803
X8.3661Y-2.3622
X8.3661Y-2.4606
X8.3661Y-5.7087
X8.3661Y-5.8071
X8.4055Y-5.0984
X8.4055Y-5.2953
X8.4055Y-5.3346
X8.4055Y-5.4724
X8.4252Y-2.8543
X8.4252Y-3.0512
X8.4252Y-3.0906
X8.4252Y-3.2087
X8.4449Y-3.9567
X8.4449Y-4.1535
X8.4449Y-4.1929
X8.4449Y-4.311
X8.4646Y-2.3622
X8.4646Y-2.4606
X8.4646Y-2.5591
X8.4646Y-3.5433
X8.4646Y-3.7402
X8.4646Y-4.5276
X8.4646Y-4.7244
X8.4646Y-5.7087
X8.4646Y-5.8071
X8.4764Y-5.2087
X8.5118Y-2.9606
X8.5166Y-5.0702
X8.5166Y-5.2213
X8.5168Y-3.9685
X8.5168Y-4.0433
X8.5168Y-4.7908
X8.5177Y-3.6737
X8.5472Y-4.0709
X8.5472Y-4.7441
X8.5472Y-4.7756
X8.5472Y-5.0906
X8.5472Y-5.122
X8.563Y-2.3622
X8.563Y-2.4606
X8.563Y-5.7087
X8.563Y-5.8071
X8.5758Y-3.9691
X8.5768Y-3.6732
X8.5768Y-4.1142
X8.5768Y-4.7912
X8.5768Y-5.0709
X8.5768Y-5.2441
X8.5945Y-3.0394
X8.6122Y-3.6831
X8.6122Y-3.9595
X8.6122Y-4.7795
X8.6122Y-5.0591
X8.653Y-3.1063
X8.6614Y-2.3622
X8.6614Y-3.5433
X8.6614Y-4.5276
X8.6614Y-4.7244
X8.6614Y-5.1181
X8.6614Y-5.7087
X8.6614Y-5.8071
X8.6732Y-3.0433
X8.7008Y-5.4232
X8.7303Y-4.2717
X8.7323Y-3.0906
X8.7323Y-3.1575
X8.7598Y-2.3622
X8.7598Y-2.4606
X8.7598Y-5.7087
X8.7598Y-5.8071
X8.8583Y-2.3622
X8.8583Y-2.4606
X8.8583Y-2.5591
X8.8583Y-2.9528
X8.8583Y-3.1496
X8.8583Y-3.3465
X8.8583Y-3.5433
X8.8583Y-4.5276
X8.8583Y-4.7244
X8.8583Y-5.1181
X8.8583Y-5.315
X8.8583Y-5.5118
X8.9567Y-2.3622
X8.9567Y-2.4606
X9.0551Y-2.3622
X9.0551Y-2.4606
X9.0551Y-2.5591
X9.0551Y-2.7559
X9.0551Y-3.3465
X9.0551Y-3.5433
X9.0551Y-3.937
X9.0551Y-4.1339
X9.0551Y-4.7244
X9.0551Y-4.9213
X9.0551Y-5.1181
X9.0551Y-5.315
X9.0551Y-5.5118
X9.1535Y-2.3622
X9.1535Y-2.4606
X9.252Y-2.3622
X9.252Y-2.4606
X9.252Y-2.5591
X9.252Y-2.7559
X9.252Y-3.1496
X9.252Y-3.3465
X9.252Y-3.5433
X9.252Y-3.7402
X9.252Y-3.937
X9.252Y-4.1339
X9.252Y-4.5276
X9.252Y-4.7244
X9.252Y-4.9213
X9.252Y-5.1181
X9.252Y-5.315
X9.3504Y-2.3622
X9.3504Y-2.4606
X9.4488Y-2.3622
X9.4488Y-2.4606
X9.4488Y-3.1496
X9.4488Y-3.3465
X9.4488Y-3.5433
X9.4488Y-3.937
X9.4488Y-4.1339
X9.4488Y-4.5276
X9.4488Y-4.7244
X9.4488Y-4.9213
X9.4488Y-5.1181
X9.4488Y-5.315
X9.5472Y-2.3622
X9.5472Y-2.4606
X9.6457Y-2.3622
X9.6457Y-2.4606
X9.6457Y-2.5591
X9.6457Y-2.7559
X9.6457Y-2.9528
X9.6457Y-3.3465
X9.6457Y-3.5433
X9.6457Y-3.7402
X9.6457Y-4.1339
X9.6457Y-4.3307
X9.6457Y-4.7244
X9.6457Y-5.315
X9.6457Y-5.5118
X9.7441Y-2.3622
X9.7441Y-2.4606
X9.8425Y-2.3622
X9.8425Y-2.4606
X9.8425Y-2.5591
X9.8425Y-2.7559
X9.8425Y-2.9528
X9.8425Y-3.5433
X9.8425Y-3.7402
X9.8425Y-4.3307
X9.8425Y-4.9213
X9.8425Y-5.1181
X9.8425Y-5.315
X9.8425Y-5.5118
X9.9409Y-2.3622
X9.9409Y-2.4606
X10.0394Y-2.4606
X10.0394Y-2.5591
X10.0394Y-2.6575
X10.0394Y-2.7559
X10.0394Y-3.248
X10.0394Y-3.4449
X10.0394Y-3.5433
X10.0394Y-3.7402
X10.0394Y-3.937
X10.0394Y-4.2323
X10.0394Y-4.4291
X10.0394Y-4.626
X10.0394Y-4.9213
X10.0394Y-5.1181
X10.0394Y-5.315
X10.0394Y-5.4134
X10.0394Y-5.5118
X10.0394Y-5.6102
X10.1378Y-2.5591
X10.1378Y-2.6575
X10.1378Y-2.7559
X10.1378Y-2.8543
X10.1378Y-2.9528
X10.1378Y-3.0512
X10.1378Y-3.248
X10.1378Y-3.4449
X10.1378Y-3.5433
X10.1378Y-3.6417
X10.1378Y-3.7402
X10.1378Y-3.937
X10.1378Y-4.2323
X10.1378Y-4.3307
X10.1378Y-4.4291
X10.1378Y-4.626
X10.1378Y-4.9213
X10.1378Y-5.1181
X10.1378Y-5.315
X10.1378Y-5.4134
X10.1378Y-5.5118
X10.1378Y-5.6102
T3
X4.5276Y-4.7693
X4.5276Y-4.8193
X4.5276Y-4.8693
X4.5276Y-4.9193
X4.5276Y-4.9693
X4.5276Y-5.0193
X4.5276Y-5.0693
X4.5276Y-5.1193
X4.5276Y-5.1693
X4.5276Y-5.2193
X4.5776Y-4.7693
X4.5776Y-4.8193
X4.5776Y-4.8693
X4.5776Y-4.9193
X4.5776Y-4.9693
X4.5776Y-5.0193
X4.5776Y-5.0693
X4.5776Y-5.1193
X4.5776Y-5.1693
X4.5776Y-5.2193
X4.8787Y-5.5012
X4.8787Y-5.5512
X4.9287Y-5.5012
X4.9287Y-5.5512
X4.9787Y-5.5012
X4.9787Y-5.5512
X5.0287Y-5.5012
X5.0287Y-5.5512
X5.0787Y-5.5012
X5.0787Y-5.5512
X5.1287Y-5.5012
X5.1287Y-5.5512
X5.1787Y-5.5012
X5.1787Y-5.5512
X6.185Y-4.7539
X6.1868Y-4.5719
X6.235Y-4.7539
X6.2368Y-4.5719
X6.3533Y-4.5738
X6.3533Y-4.7549
X6.4033Y-4.5738
X6.4033Y-4.7549
X9.8622Y-3.3425
X9.8622Y-3.3925
X9.8622Y-4.0445
X9.8622Y-4.0945
X9.8622Y-4.748
X9.8622Y-4.798
X9.9122Y-3.3425
X9.9122Y-3.3925
X9.9122Y-4.0445
X9.9122Y-4.0945
X9.9122Y-4.748
X9.9122Y-4.798
X9.9622Y-3.3425
X9.9622Y-3.3925
X9.9622Y-4.0445
X9.9622Y-4.0945
X9.9622Y-4.748
X9.9622Y-4.798
X10.0122Y-3.3425
X10.0122Y-3.3925
X10.0122Y-4.0445
X10.0122Y-4.0945
X10.0122Y-4.748
X10.0122Y-4.798
X10.0622Y-3.3425
X10.0622Y-3.3925
X10.0622Y-4.0445
X10.0622Y-4.0945
X10.0622Y-4.748
X10.0622Y-4.798
X10.1122Y-3.3425
X10.1122Y-3.3925
X10.1122Y-4.0445
X10.1122Y-4.0945
X10.1122Y-4.748
X10.1122Y-4.798
T4
X8.7992Y-2.9035
X8.7992Y-2.9823
X8.7992Y-3.0906
X8.7992Y-3.1693
T5
X5.7236Y-5.1181
X5.8236Y-5.1181
X5.9236Y-5.1181
X6.0236Y-5.1181
X6.2236Y-5.1181
X6.3236Y-5.1181
X6.4236Y-5.1181
T6
X7.1077Y-3.2382
X7.3045Y-3.2382
T7
X6.2992Y-2.5197
X6.2992Y-2.7165
X6.7Y-5.6008
X7.0Y-4.8008
X7.1Y-5.6008
X7.2Y-4.8008
X7.5Y-4.8008
X7.5Y-5.6008
X7.8614Y-2.5154
X7.8614Y-2.8154
X7.8614Y-3.0154
X7.8654Y-4.7953
X7.8654Y-5.0953
X7.8654Y-5.2953
X8.6614Y-2.5154
X8.6614Y-2.9154
X8.6614Y-3.3154
X8.6654Y-4.7953
X8.6654Y-5.1953
X8.6654Y-5.5953
T8
X6.8909Y-3.7236
X6.8909Y-4.1236
X6.8909Y-4.3236
X8.6909Y-3.6236
X8.6909Y-4.0236
X8.6909Y-4.4236
T9
X4.5605Y-3.6441
X4.5605Y-3.8441
X4.5605Y-4.1772
X4.5605Y-4.3772
X4.5609Y-3.118
X4.5609Y-3.318
X5.5543Y-2.6095
X5.7543Y-2.6095
X6.1598Y-5.5621
X6.3598Y-5.5621
X6.7701Y-2.6058
X6.9701Y-2.6058
X7.3016Y-2.6058
X7.5016Y-2.6058
X8.9982Y-3.6189
X8.9982Y-3.8189
X8.9982Y-4.3224
X8.9982Y-4.5224
X8.9982Y-5.026
X8.9982Y-5.226
X9.007Y-2.9169
X9.007Y-3.1169
X10.0088Y-2.9169
X10.0088Y-3.1169
X10.0088Y-4.3224
X10.0088Y-4.5224
X10.0175Y-3.6189
X10.0175Y-3.8189
X10.0175Y-5.026
X10.0175Y-5.226
T10
X4.8937Y-2.4835
X4.8937Y-2.874
X4.8937Y-3.2299
X4.8937Y-3.6205
X4.8937Y-3.9819
X4.8937Y-4.3724
X5.0276Y-2.4835
X5.0276Y-2.874
X5.0276Y-3.2299
X5.0276Y-3.6205
X5.0276Y-3.9819
X5.0276Y-4.3724
T11
X4.6063Y-2.6378
X4.6063Y-5.5512
X9.4094Y-2.6378
X9.4094Y-5.5512
T12
X5.5654Y-5.5778
X5.7929Y-5.5778
T2
G00X5.5091Y-5.5797
M15
G01X5.5091Y-5.5364
M16
G05
G00X5.5091Y-5.7384
M15
G01X5.5091Y-5.7069
M16
G05
G00X5.8492Y-5.5797
M15
G01X5.8492Y-5.5364
M16
G05
G00X5.8492Y-5.7384
M15
G01X5.8492Y-5.7069
M16
G05
M30
