%TF.GenerationSoftware,KiCad,Pcbnew,9.0.0*%
%TF.CreationDate,2025-05-10T16:47:32+02:00*%
%TF.ProjectId,silkscreen,73696c6b-7363-4726-9565-6e2e6b696361,rev?*%
%TF.SameCoordinates,Original*%
%TF.FileFunction,Paste,Top*%
%TF.FilePolarity,Positive*%
%FSLAX46Y46*%
G04 Gerber Fmt 4.6, Leading zero omitted, Abs format (unit mm)*
G04 Created by KiCad (PCBNEW 9.0.0) date 2025-05-10 16:47:32*
%MOMM*%
%LPD*%
G01*
G04 APERTURE LIST*
G04 Aperture macros list*
%AMRoundRect*
0 Rectangle with rounded corners*
0 $1 Rounding radius*
0 $2 $3 $4 $5 $6 $7 $8 $9 X,Y pos of 4 corners*
0 Add a 4 corners polygon primitive as box body*
4,1,4,$2,$3,$4,$5,$6,$7,$8,$9,$2,$3,0*
0 Add four circle primitives for the rounded corners*
1,1,$1+$1,$2,$3*
1,1,$1+$1,$4,$5*
1,1,$1+$1,$6,$7*
1,1,$1+$1,$8,$9*
0 Add four rect primitives between the rounded corners*
20,1,$1+$1,$2,$3,$4,$5,0*
20,1,$1+$1,$4,$5,$6,$7,0*
20,1,$1+$1,$6,$7,$8,$9,0*
20,1,$1+$1,$8,$9,$2,$3,0*%
G04 Aperture macros list end*
%ADD10RoundRect,0.250000X-0.350000X-0.450000X0.350000X-0.450000X0.350000X0.450000X-0.350000X0.450000X0*%
%ADD11RoundRect,0.150000X-0.150000X0.587500X-0.150000X-0.587500X0.150000X-0.587500X0.150000X0.587500X0*%
%ADD12RoundRect,0.150000X0.587500X0.150000X-0.587500X0.150000X-0.587500X-0.150000X0.587500X-0.150000X0*%
%ADD13RoundRect,0.225000X0.225000X0.225000X-0.225000X0.225000X-0.225000X-0.225000X0.225000X-0.225000X0*%
%ADD14RoundRect,0.062500X0.337500X0.062500X-0.337500X0.062500X-0.337500X-0.062500X0.337500X-0.062500X0*%
%ADD15RoundRect,0.062500X0.062500X0.337500X-0.062500X0.337500X-0.062500X-0.337500X0.062500X-0.337500X0*%
%ADD16RoundRect,0.250000X-0.337500X-0.475000X0.337500X-0.475000X0.337500X0.475000X-0.337500X0.475000X0*%
%ADD17RoundRect,0.250000X0.350000X0.450000X-0.350000X0.450000X-0.350000X-0.450000X0.350000X-0.450000X0*%
%ADD18RoundRect,0.200000X0.750000X0.200000X-0.750000X0.200000X-0.750000X-0.200000X0.750000X-0.200000X0*%
%ADD19RoundRect,0.250000X0.450000X-0.350000X0.450000X0.350000X-0.450000X0.350000X-0.450000X-0.350000X0*%
%ADD20RoundRect,0.250000X0.337500X0.475000X-0.337500X0.475000X-0.337500X-0.475000X0.337500X-0.475000X0*%
%ADD21RoundRect,0.162500X0.837500X0.162500X-0.837500X0.162500X-0.837500X-0.162500X0.837500X-0.162500X0*%
%ADD22R,1.500000X0.900000*%
%ADD23R,0.900000X1.500000*%
%ADD24R,0.900000X0.900000*%
%ADD25R,3.810000X4.240000*%
%ADD26RoundRect,0.250000X-0.450000X0.350000X-0.450000X-0.350000X0.450000X-0.350000X0.450000X0.350000X0*%
%ADD27R,1.150000X0.600000*%
%ADD28R,1.150000X0.300000*%
%ADD29RoundRect,0.250000X0.412500X0.650000X-0.412500X0.650000X-0.412500X-0.650000X0.412500X-0.650000X0*%
%ADD30RoundRect,0.200000X-0.750000X-0.200000X0.750000X-0.200000X0.750000X0.200000X-0.750000X0.200000X0*%
%ADD31RoundRect,0.250000X-0.475000X0.337500X-0.475000X-0.337500X0.475000X-0.337500X0.475000X0.337500X0*%
%ADD32RoundRect,0.250000X0.475000X-0.337500X0.475000X0.337500X-0.475000X0.337500X-0.475000X-0.337500X0*%
%ADD33R,0.812800X0.254000*%
%ADD34R,0.254000X0.812800*%
G04 APERTURE END LIST*
D10*
%TO.C,R13*%
X164000000Y-75250000D03*
X166000000Y-75250000D03*
%TD*%
D11*
%TO.C,Q3*%
X139700000Y-48562500D03*
X137800000Y-48562500D03*
X138750000Y-50437500D03*
%TD*%
D12*
%TO.C,Q4*%
X139775000Y-54200000D03*
X139775000Y-52300000D03*
X137900000Y-53250000D03*
%TD*%
D13*
%TO.C,U2*%
X203420000Y-78720000D03*
X203420000Y-77600000D03*
X203420000Y-76480000D03*
X202300000Y-78720000D03*
X202300000Y-77600000D03*
X202300000Y-76480000D03*
X201180000Y-78720000D03*
X201180000Y-77600000D03*
X201180000Y-76480000D03*
D14*
X204750000Y-79100000D03*
X204750000Y-78600000D03*
X204750000Y-78100000D03*
X204750000Y-77600000D03*
X204750000Y-77100000D03*
X204750000Y-76600000D03*
X204750000Y-76100000D03*
D15*
X203800000Y-75150000D03*
X203300000Y-75150000D03*
X202800000Y-75150000D03*
X202300000Y-75150000D03*
X201800000Y-75150000D03*
X201300000Y-75150000D03*
X200800000Y-75150000D03*
D14*
X199850000Y-76100000D03*
X199850000Y-76600000D03*
X199850000Y-77100000D03*
X199850000Y-77600000D03*
X199850000Y-78100000D03*
X199850000Y-78600000D03*
X199850000Y-79100000D03*
D15*
X200800000Y-80050000D03*
X201300000Y-80050000D03*
X201800000Y-80050000D03*
X202300000Y-80050000D03*
X202800000Y-80050000D03*
X203300000Y-80050000D03*
X203800000Y-80050000D03*
%TD*%
D10*
%TO.C,R9*%
X200500000Y-120500000D03*
X202500000Y-120500000D03*
%TD*%
D16*
%TO.C,C4*%
X201062500Y-72750000D03*
X203137500Y-72750000D03*
%TD*%
D17*
%TO.C,R19*%
X145750000Y-52250000D03*
X143750000Y-52250000D03*
%TD*%
D18*
%TO.C,Q1*%
X207300000Y-88150000D03*
X207300000Y-86250000D03*
X204300000Y-87200000D03*
%TD*%
D19*
%TO.C,R14*%
X214100000Y-70550000D03*
X214100000Y-68550000D03*
%TD*%
D20*
%TO.C,C1*%
X166037500Y-70850000D03*
X163962500Y-70850000D03*
%TD*%
D21*
%TO.C,D1*%
X211500000Y-108950000D03*
X211500000Y-107050000D03*
X208080000Y-108000000D03*
%TD*%
D10*
%TO.C,R11*%
X157750000Y-120500000D03*
X159750000Y-120500000D03*
%TD*%
%TO.C,R5*%
X205600000Y-84350000D03*
X207600000Y-84350000D03*
%TD*%
D22*
%TO.C,U1*%
X171100000Y-71250000D03*
X171100000Y-72520000D03*
X171100000Y-73790000D03*
X171100000Y-75060000D03*
X171100000Y-76330000D03*
X171100000Y-77600000D03*
X171100000Y-78870000D03*
X171100000Y-80140000D03*
X171100000Y-81410000D03*
X171100000Y-82680000D03*
X171100000Y-83950000D03*
X171100000Y-85220000D03*
X171100000Y-86490000D03*
X171100000Y-87760000D03*
D23*
X174135000Y-89010000D03*
X175405000Y-89010000D03*
X176675000Y-89010000D03*
X177945000Y-89010000D03*
X179215000Y-89010000D03*
X180485000Y-89010000D03*
X181755000Y-89010000D03*
X183025000Y-89010000D03*
X184295000Y-89010000D03*
X185565000Y-89010000D03*
D22*
X188600000Y-87760000D03*
X188600000Y-86490000D03*
X188600000Y-85220000D03*
X188600000Y-83950000D03*
X188600000Y-82680000D03*
X188600000Y-81410000D03*
X188600000Y-80140000D03*
X188600000Y-78870000D03*
X188600000Y-77600000D03*
X188600000Y-76330000D03*
X188600000Y-75060000D03*
X188600000Y-73790000D03*
X188600000Y-72520000D03*
X188600000Y-71250000D03*
D24*
X176950000Y-77190000D03*
X176950000Y-78590000D03*
X176950000Y-79990000D03*
X178350000Y-77190000D03*
X178350000Y-78590000D03*
X178350000Y-79990000D03*
X179750000Y-77190000D03*
X179750000Y-78590000D03*
X179750000Y-79990000D03*
%TD*%
D25*
%TO.C,F1*%
X143500000Y-66390000D03*
X143500000Y-60010000D03*
%TD*%
D17*
%TO.C,R3*%
X200700000Y-84750000D03*
X198700000Y-84750000D03*
%TD*%
%TO.C,R7*%
X214200000Y-90150000D03*
X212200000Y-90150000D03*
%TD*%
D26*
%TO.C,R17*%
X141600000Y-48437500D03*
X141600000Y-50437500D03*
%TD*%
D12*
%TO.C,Q5*%
X145625000Y-50200000D03*
X145625000Y-48300000D03*
X143750000Y-49250000D03*
%TD*%
D21*
%TO.C,D3*%
X211500000Y-115900000D03*
X211500000Y-114000000D03*
X208080000Y-114950000D03*
%TD*%
D10*
%TO.C,R10*%
X179500000Y-120500000D03*
X181500000Y-120500000D03*
%TD*%
D19*
%TO.C,R1*%
X200900000Y-88750000D03*
X200900000Y-86750000D03*
%TD*%
D16*
%TO.C,C7*%
X203962500Y-90150000D03*
X206037500Y-90150000D03*
%TD*%
D17*
%TO.C,R4*%
X212600000Y-84350000D03*
X210600000Y-84350000D03*
%TD*%
D19*
%TO.C,R15*%
X211900000Y-70550000D03*
X211900000Y-68550000D03*
%TD*%
D27*
%TO.C,J1*%
X207745000Y-80550000D03*
X207745000Y-79750000D03*
D28*
X207745000Y-78600000D03*
X207745000Y-77600000D03*
X207745000Y-77100000D03*
X207745000Y-76100000D03*
D27*
X207745000Y-74150000D03*
X207745000Y-74950000D03*
D28*
X207745000Y-75600000D03*
X207745000Y-76600000D03*
X207745000Y-78100000D03*
X207745000Y-79100000D03*
%TD*%
D29*
%TO.C,C2*%
X167162500Y-73050000D03*
X164037500Y-73050000D03*
%TD*%
D16*
%TO.C,C3*%
X201062500Y-70550000D03*
X203137500Y-70550000D03*
%TD*%
D30*
%TO.C,Q2*%
X210900000Y-86250000D03*
X210900000Y-88150000D03*
X213900000Y-87200000D03*
%TD*%
D10*
%TO.C,R2*%
X198700000Y-82750000D03*
X200700000Y-82750000D03*
%TD*%
D17*
%TO.C,R12*%
X166000000Y-77250000D03*
X164000000Y-77250000D03*
%TD*%
D21*
%TO.C,D2*%
X211500000Y-112400000D03*
X211500000Y-110500000D03*
X208080000Y-111450000D03*
%TD*%
D17*
%TO.C,R8*%
X175250000Y-96250000D03*
X173250000Y-96250000D03*
%TD*%
D31*
%TO.C,C5*%
X208000000Y-66712500D03*
X208000000Y-68787500D03*
%TD*%
D17*
%TO.C,R16*%
X145750000Y-32750000D03*
X143750000Y-32750000D03*
%TD*%
D10*
%TO.C,R6*%
X199000000Y-90750000D03*
X201000000Y-90750000D03*
%TD*%
D20*
%TO.C,C6*%
X208287500Y-70750000D03*
X206212500Y-70750000D03*
%TD*%
D26*
%TO.C,R18*%
X138000000Y-56000000D03*
X138000000Y-58000000D03*
%TD*%
D27*
%TO.C,J2*%
X52955000Y-70822500D03*
X52955000Y-71622500D03*
D28*
X52955000Y-72772500D03*
X52955000Y-73772500D03*
X52955000Y-74272500D03*
X52955000Y-75272500D03*
D27*
X52955000Y-77222500D03*
X52955000Y-76422500D03*
D28*
X52955000Y-75772500D03*
X52955000Y-74772500D03*
X52955000Y-73272500D03*
X52955000Y-72272500D03*
%TD*%
D17*
%TO.C,R4*%
X82480000Y-69700000D03*
X80480000Y-69700000D03*
%TD*%
D32*
%TO.C,C5*%
X69680000Y-69737500D03*
X69680000Y-67662500D03*
%TD*%
D10*
%TO.C,R2*%
X55262500Y-72700000D03*
X57262500Y-72700000D03*
%TD*%
%TO.C,R1*%
X77680000Y-77830000D03*
X79680000Y-77830000D03*
%TD*%
D31*
%TO.C,C3*%
X69680000Y-57192500D03*
X69680000Y-59267500D03*
%TD*%
D16*
%TO.C,C2*%
X73042500Y-60030000D03*
X75117500Y-60030000D03*
%TD*%
D10*
%TO.C,R3*%
X55262500Y-76100000D03*
X57262500Y-76100000D03*
%TD*%
D16*
%TO.C,C1*%
X73042500Y-57430000D03*
X75117500Y-57430000D03*
%TD*%
D17*
%TO.C,R6*%
X60300000Y-62900000D03*
X58300000Y-62900000D03*
%TD*%
D32*
%TO.C,C4*%
X69680000Y-63337500D03*
X69680000Y-61262500D03*
%TD*%
D33*
%TO.C,U1*%
X77430237Y-67380141D03*
X77430237Y-66880015D03*
X77430237Y-66379889D03*
X77430237Y-65879763D03*
X77430237Y-65379637D03*
X77430237Y-64879511D03*
X77430237Y-64379385D03*
X77430237Y-63879259D03*
D34*
X76780378Y-63229400D03*
X76280252Y-63229400D03*
X75780126Y-63229400D03*
X75280000Y-63229400D03*
X74779874Y-63229400D03*
X74279748Y-63229400D03*
X73779622Y-63229400D03*
X73279496Y-63229400D03*
D33*
X72629637Y-63879259D03*
X72629637Y-64379385D03*
X72629637Y-64879511D03*
X72629637Y-65379637D03*
X72629637Y-65879763D03*
X72629637Y-66379889D03*
X72629637Y-66880015D03*
X72629637Y-67380141D03*
D34*
X73279496Y-68030000D03*
X73779622Y-68030000D03*
X74279748Y-68030000D03*
X74779874Y-68030000D03*
X75280000Y-68030000D03*
X75780126Y-68030000D03*
X76280252Y-68030000D03*
X76780378Y-68030000D03*
%TD*%
D17*
%TO.C,R5*%
X60300000Y-69600000D03*
X58300000Y-69600000D03*
%TD*%
D19*
%TO.C,R7*%
X82400000Y-67200000D03*
X82400000Y-65200000D03*
%TD*%
M02*
