%TF.GenerationSoftware,KiCad,Pcbnew,9.0.0*%
%TF.CreationDate,2025-05-10T16:47:32+02:00*%
%TF.ProjectId,silkscreen,73696c6b-7363-4726-9565-6e2e6b696361,rev?*%
%TF.SameCoordinates,Original*%
%TF.FileFunction,Soldermask,Top*%
%TF.FilePolarity,Negative*%
%FSLAX46Y46*%
G04 Gerber Fmt 4.6, Leading zero omitted, Abs format (unit mm)*
G04 Created by KiCad (PCBNEW 9.0.0) date 2025-05-10 16:47:32*
%MOMM*%
%LPD*%
G01*
G04 APERTURE LIST*
G04 Aperture macros list*
%AMRoundRect*
0 Rectangle with rounded corners*
0 $1 Rounding radius*
0 $2 $3 $4 $5 $6 $7 $8 $9 X,Y pos of 4 corners*
0 Add a 4 corners polygon primitive as box body*
4,1,4,$2,$3,$4,$5,$6,$7,$8,$9,$2,$3,0*
0 Add four circle primitives for the rounded corners*
1,1,$1+$1,$2,$3*
1,1,$1+$1,$4,$5*
1,1,$1+$1,$6,$7*
1,1,$1+$1,$8,$9*
0 Add four rect primitives between the rounded corners*
20,1,$1+$1,$2,$3,$4,$5,0*
20,1,$1+$1,$4,$5,$6,$7,0*
20,1,$1+$1,$6,$7,$8,$9,0*
20,1,$1+$1,$8,$9,$2,$3,0*%
G04 Aperture macros list end*
%ADD10C,0.010000*%
%ADD11R,1.700000X1.700000*%
%ADD12O,1.700000X1.700000*%
%ADD13RoundRect,0.250000X-0.350000X-0.450000X0.350000X-0.450000X0.350000X0.450000X-0.350000X0.450000X0*%
%ADD14RoundRect,0.150000X-0.150000X0.587500X-0.150000X-0.587500X0.150000X-0.587500X0.150000X0.587500X0*%
%ADD15RoundRect,0.150000X0.587500X0.150000X-0.587500X0.150000X-0.587500X-0.150000X0.587500X-0.150000X0*%
%ADD16RoundRect,0.062500X0.337500X0.062500X-0.337500X0.062500X-0.337500X-0.062500X0.337500X-0.062500X0*%
%ADD17RoundRect,0.062500X0.062500X0.337500X-0.062500X0.337500X-0.062500X-0.337500X0.062500X-0.337500X0*%
%ADD18R,3.350000X3.350000*%
%ADD19R,1.200000X1.200000*%
%ADD20C,1.200000*%
%ADD21RoundRect,0.250000X-0.337500X-0.475000X0.337500X-0.475000X0.337500X0.475000X-0.337500X0.475000X0*%
%ADD22C,6.400000*%
%ADD23RoundRect,0.250000X0.350000X0.450000X-0.350000X0.450000X-0.350000X-0.450000X0.350000X-0.450000X0*%
%ADD24RoundRect,0.102000X-0.754000X-0.754000X0.754000X-0.754000X0.754000X0.754000X-0.754000X0.754000X0*%
%ADD25C,1.712000*%
%ADD26RoundRect,0.200000X0.750000X0.200000X-0.750000X0.200000X-0.750000X-0.200000X0.750000X-0.200000X0*%
%ADD27RoundRect,0.250000X0.450000X-0.350000X0.450000X0.350000X-0.450000X0.350000X-0.450000X-0.350000X0*%
%ADD28RoundRect,0.250000X0.337500X0.475000X-0.337500X0.475000X-0.337500X-0.475000X0.337500X-0.475000X0*%
%ADD29RoundRect,0.162500X0.837500X0.162500X-0.837500X0.162500X-0.837500X-0.162500X0.837500X-0.162500X0*%
%ADD30C,1.980000*%
%ADD31C,1.989000*%
%ADD32R,1.500000X0.900000*%
%ADD33R,0.900000X1.500000*%
%ADD34C,0.600000*%
%ADD35R,3.800000X3.800000*%
%ADD36R,3.810000X4.240000*%
%ADD37C,1.303000*%
%ADD38RoundRect,0.249999X1.550001X-0.790001X1.550001X0.790001X-1.550001X0.790001X-1.550001X-0.790001X0*%
%ADD39O,3.600000X2.080000*%
%ADD40RoundRect,0.250000X-0.450000X0.350000X-0.450000X-0.350000X0.450000X-0.350000X0.450000X0.350000X0*%
%ADD41C,2.000000*%
%ADD42C,1.600000*%
%ADD43RoundRect,0.249999X-1.550001X0.790001X-1.550001X-0.790001X1.550001X-0.790001X1.550001X0.790001X0*%
%ADD44C,0.650000*%
%ADD45O,2.304000X1.204000*%
%ADD46O,2.004000X1.204000*%
%ADD47RoundRect,0.250000X0.412500X0.650000X-0.412500X0.650000X-0.412500X-0.650000X0.412500X-0.650000X0*%
%ADD48RoundRect,0.200000X-0.750000X-0.200000X0.750000X-0.200000X0.750000X0.200000X-0.750000X0.200000X0*%
%ADD49RoundRect,0.250000X-0.475000X0.337500X-0.475000X-0.337500X0.475000X-0.337500X0.475000X0.337500X0*%
%ADD50R,1.665000X1.665000*%
%ADD51C,1.665000*%
%ADD52C,1.400000*%
%ADD53RoundRect,0.249999X0.790001X1.550001X-0.790001X1.550001X-0.790001X-1.550001X0.790001X-1.550001X0*%
%ADD54O,2.080000X3.600000*%
%ADD55C,2.400000*%
%ADD56RoundRect,0.250000X-1.000000X-1.000000X1.000000X-1.000000X1.000000X1.000000X-1.000000X1.000000X0*%
%ADD57RoundRect,0.249999X-0.790001X-1.550001X0.790001X-1.550001X0.790001X1.550001X-0.790001X1.550001X0*%
%ADD58R,1.600000X1.600000*%
%ADD59O,1.600000X1.600000*%
%ADD60RoundRect,0.250000X0.475000X-0.337500X0.475000X0.337500X-0.475000X0.337500X-0.475000X-0.337500X0*%
%ADD61C,3.600000*%
%ADD62C,5.500000*%
%ADD63RoundRect,0.102000X0.754000X-0.754000X0.754000X0.754000X-0.754000X0.754000X-0.754000X-0.754000X0*%
%ADD64C,1.168400*%
%ADD65R,0.812800X0.254000*%
%ADD66R,0.254000X0.812800*%
G04 APERTURE END LIST*
D10*
%TO.C,J1*%
X208370000Y-74500000D02*
X207120000Y-74500000D01*
X207120000Y-73800000D01*
X208370000Y-73800000D01*
X208370000Y-74500000D01*
G36*
X208370000Y-74500000D02*
G01*
X207120000Y-74500000D01*
X207120000Y-73800000D01*
X208370000Y-73800000D01*
X208370000Y-74500000D01*
G37*
X208370000Y-75300000D02*
X207120000Y-75300000D01*
X207120000Y-74600000D01*
X208370000Y-74600000D01*
X208370000Y-75300000D01*
G36*
X208370000Y-75300000D02*
G01*
X207120000Y-75300000D01*
X207120000Y-74600000D01*
X208370000Y-74600000D01*
X208370000Y-75300000D01*
G37*
X208370000Y-75800000D02*
X207120000Y-75800000D01*
X207120000Y-75400000D01*
X208370000Y-75400000D01*
X208370000Y-75800000D01*
G36*
X208370000Y-75800000D02*
G01*
X207120000Y-75800000D01*
X207120000Y-75400000D01*
X208370000Y-75400000D01*
X208370000Y-75800000D01*
G37*
X208370000Y-76300000D02*
X207120000Y-76300000D01*
X207120000Y-75900000D01*
X208370000Y-75900000D01*
X208370000Y-76300000D01*
G36*
X208370000Y-76300000D02*
G01*
X207120000Y-76300000D01*
X207120000Y-75900000D01*
X208370000Y-75900000D01*
X208370000Y-76300000D01*
G37*
X208370000Y-76800000D02*
X207120000Y-76800000D01*
X207120000Y-76400000D01*
X208370000Y-76400000D01*
X208370000Y-76800000D01*
G36*
X208370000Y-76800000D02*
G01*
X207120000Y-76800000D01*
X207120000Y-76400000D01*
X208370000Y-76400000D01*
X208370000Y-76800000D01*
G37*
X208370000Y-77300000D02*
X207120000Y-77300000D01*
X207120000Y-76900000D01*
X208370000Y-76900000D01*
X208370000Y-77300000D01*
G36*
X208370000Y-77300000D02*
G01*
X207120000Y-77300000D01*
X207120000Y-76900000D01*
X208370000Y-76900000D01*
X208370000Y-77300000D01*
G37*
X208370000Y-77800000D02*
X207120000Y-77800000D01*
X207120000Y-77400000D01*
X208370000Y-77400000D01*
X208370000Y-77800000D01*
G36*
X208370000Y-77800000D02*
G01*
X207120000Y-77800000D01*
X207120000Y-77400000D01*
X208370000Y-77400000D01*
X208370000Y-77800000D01*
G37*
X208370000Y-78300000D02*
X207120000Y-78300000D01*
X207120000Y-77900000D01*
X208370000Y-77900000D01*
X208370000Y-78300000D01*
G36*
X208370000Y-78300000D02*
G01*
X207120000Y-78300000D01*
X207120000Y-77900000D01*
X208370000Y-77900000D01*
X208370000Y-78300000D01*
G37*
X208370000Y-78800000D02*
X207120000Y-78800000D01*
X207120000Y-78400000D01*
X208370000Y-78400000D01*
X208370000Y-78800000D01*
G36*
X208370000Y-78800000D02*
G01*
X207120000Y-78800000D01*
X207120000Y-78400000D01*
X208370000Y-78400000D01*
X208370000Y-78800000D01*
G37*
X208370000Y-79300000D02*
X207120000Y-79300000D01*
X207120000Y-78900000D01*
X208370000Y-78900000D01*
X208370000Y-79300000D01*
G36*
X208370000Y-79300000D02*
G01*
X207120000Y-79300000D01*
X207120000Y-78900000D01*
X208370000Y-78900000D01*
X208370000Y-79300000D01*
G37*
X208370000Y-80100000D02*
X207120000Y-80100000D01*
X207120000Y-79400000D01*
X208370000Y-79400000D01*
X208370000Y-80100000D01*
G36*
X208370000Y-80100000D02*
G01*
X207120000Y-80100000D01*
X207120000Y-79400000D01*
X208370000Y-79400000D01*
X208370000Y-80100000D01*
G37*
X208370000Y-80900000D02*
X207120000Y-80900000D01*
X207120000Y-80200000D01*
X208370000Y-80200000D01*
X208370000Y-80900000D01*
G36*
X208370000Y-80900000D02*
G01*
X207120000Y-80900000D01*
X207120000Y-80200000D01*
X208370000Y-80200000D01*
X208370000Y-80900000D01*
G37*
%TO.C,J2*%
X53580000Y-71172500D02*
X52330000Y-71172500D01*
X52330000Y-70472500D01*
X53580000Y-70472500D01*
X53580000Y-71172500D01*
G36*
X53580000Y-71172500D02*
G01*
X52330000Y-71172500D01*
X52330000Y-70472500D01*
X53580000Y-70472500D01*
X53580000Y-71172500D01*
G37*
X53580000Y-71972500D02*
X52330000Y-71972500D01*
X52330000Y-71272500D01*
X53580000Y-71272500D01*
X53580000Y-71972500D01*
G36*
X53580000Y-71972500D02*
G01*
X52330000Y-71972500D01*
X52330000Y-71272500D01*
X53580000Y-71272500D01*
X53580000Y-71972500D01*
G37*
X53580000Y-72472500D02*
X52330000Y-72472500D01*
X52330000Y-72072500D01*
X53580000Y-72072500D01*
X53580000Y-72472500D01*
G36*
X53580000Y-72472500D02*
G01*
X52330000Y-72472500D01*
X52330000Y-72072500D01*
X53580000Y-72072500D01*
X53580000Y-72472500D01*
G37*
X53580000Y-72972500D02*
X52330000Y-72972500D01*
X52330000Y-72572500D01*
X53580000Y-72572500D01*
X53580000Y-72972500D01*
G36*
X53580000Y-72972500D02*
G01*
X52330000Y-72972500D01*
X52330000Y-72572500D01*
X53580000Y-72572500D01*
X53580000Y-72972500D01*
G37*
X53580000Y-73472500D02*
X52330000Y-73472500D01*
X52330000Y-73072500D01*
X53580000Y-73072500D01*
X53580000Y-73472500D01*
G36*
X53580000Y-73472500D02*
G01*
X52330000Y-73472500D01*
X52330000Y-73072500D01*
X53580000Y-73072500D01*
X53580000Y-73472500D01*
G37*
X53580000Y-73972500D02*
X52330000Y-73972500D01*
X52330000Y-73572500D01*
X53580000Y-73572500D01*
X53580000Y-73972500D01*
G36*
X53580000Y-73972500D02*
G01*
X52330000Y-73972500D01*
X52330000Y-73572500D01*
X53580000Y-73572500D01*
X53580000Y-73972500D01*
G37*
X53580000Y-74472500D02*
X52330000Y-74472500D01*
X52330000Y-74072500D01*
X53580000Y-74072500D01*
X53580000Y-74472500D01*
G36*
X53580000Y-74472500D02*
G01*
X52330000Y-74472500D01*
X52330000Y-74072500D01*
X53580000Y-74072500D01*
X53580000Y-74472500D01*
G37*
X53580000Y-74972500D02*
X52330000Y-74972500D01*
X52330000Y-74572500D01*
X53580000Y-74572500D01*
X53580000Y-74972500D01*
G36*
X53580000Y-74972500D02*
G01*
X52330000Y-74972500D01*
X52330000Y-74572500D01*
X53580000Y-74572500D01*
X53580000Y-74972500D01*
G37*
X53580000Y-75472500D02*
X52330000Y-75472500D01*
X52330000Y-75072500D01*
X53580000Y-75072500D01*
X53580000Y-75472500D01*
G36*
X53580000Y-75472500D02*
G01*
X52330000Y-75472500D01*
X52330000Y-75072500D01*
X53580000Y-75072500D01*
X53580000Y-75472500D01*
G37*
X53580000Y-75972500D02*
X52330000Y-75972500D01*
X52330000Y-75572500D01*
X53580000Y-75572500D01*
X53580000Y-75972500D01*
G36*
X53580000Y-75972500D02*
G01*
X52330000Y-75972500D01*
X52330000Y-75572500D01*
X53580000Y-75572500D01*
X53580000Y-75972500D01*
G37*
X53580000Y-76772500D02*
X52330000Y-76772500D01*
X52330000Y-76072500D01*
X53580000Y-76072500D01*
X53580000Y-76772500D01*
G36*
X53580000Y-76772500D02*
G01*
X52330000Y-76772500D01*
X52330000Y-76072500D01*
X53580000Y-76072500D01*
X53580000Y-76772500D01*
G37*
X53580000Y-77572500D02*
X52330000Y-77572500D01*
X52330000Y-76872500D01*
X53580000Y-76872500D01*
X53580000Y-77572500D01*
G36*
X53580000Y-77572500D02*
G01*
X52330000Y-77572500D01*
X52330000Y-76872500D01*
X53580000Y-76872500D01*
X53580000Y-77572500D01*
G37*
%TD*%
D11*
%TO.C,J8*%
X192400000Y-77720000D03*
D12*
X192400000Y-80260000D03*
X192400000Y-82800000D03*
X192400000Y-85340000D03*
X192400000Y-87880000D03*
%TD*%
D13*
%TO.C,R13*%
X164000000Y-75250000D03*
X166000000Y-75250000D03*
%TD*%
D14*
%TO.C,Q3*%
X139700000Y-48562500D03*
X137800000Y-48562500D03*
X138750000Y-50437500D03*
%TD*%
D15*
%TO.C,Q4*%
X139775000Y-54200000D03*
X139775000Y-52300000D03*
X137900000Y-53250000D03*
%TD*%
D11*
%TO.C,JP3*%
X163250000Y-117830000D03*
D12*
X163250000Y-115290000D03*
X163250000Y-112750000D03*
%TD*%
D11*
%TO.C,J4*%
X163250000Y-108040000D03*
D12*
X163250000Y-105500000D03*
X163250000Y-102960000D03*
X163250000Y-100420000D03*
%TD*%
D16*
%TO.C,U2*%
X204750000Y-79100000D03*
X204750000Y-78600000D03*
X204750000Y-78100000D03*
X204750000Y-77600000D03*
X204750000Y-77100000D03*
X204750000Y-76600000D03*
X204750000Y-76100000D03*
D17*
X203800000Y-75150000D03*
X203300000Y-75150000D03*
X202800000Y-75150000D03*
X202300000Y-75150000D03*
X201800000Y-75150000D03*
X201300000Y-75150000D03*
X200800000Y-75150000D03*
D16*
X199850000Y-76100000D03*
X199850000Y-76600000D03*
X199850000Y-77100000D03*
X199850000Y-77600000D03*
X199850000Y-78100000D03*
X199850000Y-78600000D03*
X199850000Y-79100000D03*
D17*
X200800000Y-80050000D03*
X201300000Y-80050000D03*
X201800000Y-80050000D03*
X202300000Y-80050000D03*
X202800000Y-80050000D03*
X203300000Y-80050000D03*
X203800000Y-80050000D03*
D18*
X202300000Y-77600000D03*
%TD*%
D13*
%TO.C,R9*%
X200500000Y-120500000D03*
X202500000Y-120500000D03*
%TD*%
D19*
%TO.C,C9*%
X173320000Y-113500250D03*
D20*
X175820000Y-113500250D03*
%TD*%
D21*
%TO.C,C4*%
X201062500Y-72750000D03*
X203137500Y-72750000D03*
%TD*%
D22*
%TO.C,H4*%
X211700000Y-29050000D03*
%TD*%
D23*
%TO.C,R19*%
X145750000Y-52250000D03*
X143750000Y-52250000D03*
%TD*%
D24*
%TO.C,U5*%
X146520000Y-100110000D03*
D25*
X146520000Y-102650000D03*
X146520000Y-105190000D03*
X146520000Y-107730000D03*
X146520000Y-110270000D03*
X146520000Y-112810000D03*
X146520000Y-115350000D03*
X146520000Y-117890000D03*
X159220000Y-100110000D03*
X159220000Y-102650000D03*
X159220000Y-105190000D03*
X159220000Y-107730000D03*
X159220000Y-110270000D03*
X159220000Y-112810000D03*
X159220000Y-115350000D03*
X159220000Y-117890000D03*
X154140000Y-117890000D03*
X156680000Y-117890000D03*
%TD*%
D26*
%TO.C,Q1*%
X207300000Y-88150000D03*
X207300000Y-86250000D03*
X204300000Y-87200000D03*
%TD*%
D11*
%TO.C,J7*%
X196000000Y-77725000D03*
D12*
X196000000Y-80265000D03*
X196000000Y-82805000D03*
X196000000Y-85345000D03*
X196000000Y-87885000D03*
%TD*%
D27*
%TO.C,R14*%
X214100000Y-70550000D03*
X214100000Y-68550000D03*
%TD*%
D28*
%TO.C,C1*%
X166037500Y-70850000D03*
X163962500Y-70850000D03*
%TD*%
D29*
%TO.C,D1*%
X211500000Y-108950000D03*
X211500000Y-107050000D03*
X208080000Y-108000000D03*
%TD*%
D13*
%TO.C,R11*%
X157750000Y-120500000D03*
X159750000Y-120500000D03*
%TD*%
D11*
%TO.C,J6*%
X196275000Y-92150000D03*
D12*
X193735000Y-92150000D03*
X191195000Y-92150000D03*
X188655000Y-92150000D03*
X186115000Y-92150000D03*
%TD*%
D13*
%TO.C,R5*%
X205600000Y-84350000D03*
X207600000Y-84350000D03*
%TD*%
D30*
%TO.C,BT1*%
X149350000Y-66670000D03*
D31*
X157450000Y-28850000D03*
X157450000Y-66670000D03*
%TD*%
D32*
%TO.C,U1*%
X171100000Y-71250000D03*
X171100000Y-72520000D03*
X171100000Y-73790000D03*
X171100000Y-75060000D03*
X171100000Y-76330000D03*
X171100000Y-77600000D03*
X171100000Y-78870000D03*
X171100000Y-80140000D03*
X171100000Y-81410000D03*
X171100000Y-82680000D03*
X171100000Y-83950000D03*
X171100000Y-85220000D03*
X171100000Y-86490000D03*
X171100000Y-87760000D03*
D33*
X174135000Y-89010000D03*
X175405000Y-89010000D03*
X176675000Y-89010000D03*
X177945000Y-89010000D03*
X179215000Y-89010000D03*
X180485000Y-89010000D03*
X181755000Y-89010000D03*
X183025000Y-89010000D03*
X184295000Y-89010000D03*
X185565000Y-89010000D03*
D32*
X188600000Y-87760000D03*
X188600000Y-86490000D03*
X188600000Y-85220000D03*
X188600000Y-83950000D03*
X188600000Y-82680000D03*
X188600000Y-81410000D03*
X188600000Y-80140000D03*
X188600000Y-78870000D03*
X188600000Y-77600000D03*
X188600000Y-76330000D03*
X188600000Y-75060000D03*
X188600000Y-73790000D03*
X188600000Y-72520000D03*
X188600000Y-71250000D03*
D34*
X176950000Y-77890000D03*
X176950000Y-79290000D03*
X177650000Y-77190000D03*
X177650000Y-78590000D03*
X177650000Y-79990000D03*
X178350000Y-77890000D03*
D35*
X178350000Y-78590000D03*
D34*
X178350000Y-79290000D03*
X179050000Y-77190000D03*
X179050000Y-78590000D03*
X179050000Y-79990000D03*
X179750000Y-77890000D03*
X179750000Y-79290000D03*
%TD*%
D19*
%TO.C,C10*%
X151620000Y-113480250D03*
D20*
X154120000Y-113480250D03*
%TD*%
D36*
%TO.C,F1*%
X143500000Y-66390000D03*
X143500000Y-60010000D03*
%TD*%
D23*
%TO.C,R3*%
X200700000Y-84750000D03*
X198700000Y-84750000D03*
%TD*%
D37*
%TO.C,PS1*%
X140350000Y-74225000D03*
X142890000Y-74225000D03*
X145430000Y-74225000D03*
X150510000Y-74225000D03*
X153050000Y-74225000D03*
X155590000Y-74225000D03*
X158130000Y-74225000D03*
%TD*%
D11*
%TO.C,J12*%
X166750000Y-92870000D03*
D12*
X164210000Y-92870000D03*
X166750000Y-90330000D03*
X164210000Y-90330000D03*
X166750000Y-87790000D03*
X164210000Y-87790000D03*
X166750000Y-85250000D03*
X164210000Y-85250000D03*
X166750000Y-82710000D03*
X164210000Y-82710000D03*
X166750000Y-80170000D03*
X164210000Y-80170000D03*
%TD*%
D23*
%TO.C,R7*%
X214200000Y-90150000D03*
X212200000Y-90150000D03*
%TD*%
D38*
%TO.C,J13*%
X142500000Y-43250000D03*
D39*
X142500000Y-38170000D03*
%TD*%
D40*
%TO.C,R17*%
X141600000Y-48437500D03*
X141600000Y-50437500D03*
%TD*%
D24*
%TO.C,U3*%
X189470000Y-100130000D03*
D25*
X189470000Y-102670000D03*
X189470000Y-105210000D03*
X189470000Y-107750000D03*
X189470000Y-110290000D03*
X189470000Y-112830000D03*
X189470000Y-115370000D03*
X189470000Y-117910000D03*
X202170000Y-100130000D03*
X202170000Y-102670000D03*
X202170000Y-105210000D03*
X202170000Y-107750000D03*
X202170000Y-110290000D03*
X202170000Y-112830000D03*
X202170000Y-115370000D03*
X202170000Y-117910000D03*
X197090000Y-117910000D03*
X199630000Y-117910000D03*
%TD*%
D11*
%TO.C,J11*%
X159850000Y-95830000D03*
D12*
X159850000Y-93290000D03*
X159850000Y-90750000D03*
%TD*%
D11*
%TO.C,J3*%
X184750000Y-108080000D03*
D12*
X184750000Y-105540000D03*
X184750000Y-103000000D03*
X184750000Y-100460000D03*
%TD*%
D15*
%TO.C,Q5*%
X145625000Y-50200000D03*
X145625000Y-48300000D03*
X143750000Y-49250000D03*
%TD*%
D29*
%TO.C,D3*%
X211500000Y-115900000D03*
X211500000Y-114000000D03*
X208080000Y-114950000D03*
%TD*%
D13*
%TO.C,R10*%
X179500000Y-120500000D03*
X181500000Y-120500000D03*
%TD*%
D27*
%TO.C,R1*%
X200900000Y-88750000D03*
X200900000Y-86750000D03*
%TD*%
D21*
%TO.C,C7*%
X203962500Y-90150000D03*
X206037500Y-90150000D03*
%TD*%
D22*
%TO.C,H1*%
X140300000Y-29050000D03*
%TD*%
D41*
%TO.C,SW1*%
X209500000Y-62750000D03*
X209500000Y-56250000D03*
X214000000Y-62750000D03*
X214000000Y-56250000D03*
%TD*%
D23*
%TO.C,R4*%
X212600000Y-84350000D03*
X210600000Y-84350000D03*
%TD*%
D42*
%TO.C,C11*%
X156853846Y-83230769D03*
X156853846Y-85730769D03*
%TD*%
D43*
%TO.C,J2*%
X208612500Y-95510000D03*
D39*
X208612500Y-100590000D03*
%TD*%
D11*
%TO.C,J5*%
X141500000Y-108040000D03*
D12*
X141500000Y-105500000D03*
X141500000Y-102960000D03*
X141500000Y-100420000D03*
%TD*%
D30*
%TO.C,BT2*%
X169150000Y-66670000D03*
D31*
X177250000Y-28850000D03*
X177250000Y-66670000D03*
%TD*%
D11*
%TO.C,JP2*%
X184750000Y-117775000D03*
D12*
X184750000Y-115235000D03*
X184750000Y-112695000D03*
%TD*%
D27*
%TO.C,R15*%
X211900000Y-70550000D03*
X211900000Y-68550000D03*
%TD*%
D44*
%TO.C,J1*%
X208820000Y-80240000D03*
X208820000Y-74460000D03*
D45*
X208320000Y-81670000D03*
X208320000Y-73030000D03*
D46*
X212500000Y-81670000D03*
X212500000Y-73030000D03*
%TD*%
D47*
%TO.C,C2*%
X167162500Y-73050000D03*
X164037500Y-73050000D03*
%TD*%
D21*
%TO.C,C3*%
X201062500Y-70550000D03*
X203137500Y-70550000D03*
%TD*%
D48*
%TO.C,Q2*%
X210900000Y-86250000D03*
X210900000Y-88150000D03*
X213900000Y-87200000D03*
%TD*%
D11*
%TO.C,J10*%
X149650000Y-95805000D03*
D12*
X149650000Y-93265000D03*
X149650000Y-90725000D03*
%TD*%
D22*
%TO.C,H2*%
X140300000Y-121450000D03*
%TD*%
D19*
%TO.C,C8*%
X194570000Y-113500250D03*
D20*
X197070000Y-113500250D03*
%TD*%
D11*
%TO.C,J9*%
X154750000Y-95790000D03*
D12*
X154750000Y-93250000D03*
X154750000Y-90710000D03*
%TD*%
D13*
%TO.C,R2*%
X198700000Y-82750000D03*
X200700000Y-82750000D03*
%TD*%
D23*
%TO.C,R12*%
X166000000Y-77250000D03*
X164000000Y-77250000D03*
%TD*%
D29*
%TO.C,D2*%
X211500000Y-112400000D03*
X211500000Y-110500000D03*
X208080000Y-111450000D03*
%TD*%
D42*
%TO.C,C12*%
X149900000Y-85730769D03*
X149900000Y-83230769D03*
%TD*%
D11*
%TO.C,JP1*%
X191710000Y-121250000D03*
D12*
X194250000Y-121250000D03*
X196790000Y-121250000D03*
%TD*%
D22*
%TO.C,H3*%
X211700000Y-121450000D03*
%TD*%
D23*
%TO.C,R8*%
X175250000Y-96250000D03*
X173250000Y-96250000D03*
%TD*%
D30*
%TO.C,BT3*%
X188950000Y-66670000D03*
D31*
X197050000Y-28850000D03*
X197050000Y-66670000D03*
%TD*%
D49*
%TO.C,C5*%
X208000000Y-66712500D03*
X208000000Y-68787500D03*
%TD*%
D50*
%TO.C,PS2*%
X144500000Y-87170000D03*
D51*
X144500000Y-89710000D03*
X144500000Y-92250000D03*
%TD*%
D23*
%TO.C,R16*%
X145750000Y-32750000D03*
X143750000Y-32750000D03*
%TD*%
D24*
%TO.C,U4*%
X168220000Y-100130000D03*
D25*
X168220000Y-102670000D03*
X168220000Y-105210000D03*
X168220000Y-107750000D03*
X168220000Y-110290000D03*
X168220000Y-112830000D03*
X168220000Y-115370000D03*
X168220000Y-117910000D03*
X180920000Y-100130000D03*
X180920000Y-102670000D03*
X180920000Y-105210000D03*
X180920000Y-107750000D03*
X180920000Y-110290000D03*
X180920000Y-112830000D03*
X180920000Y-115370000D03*
X180920000Y-117910000D03*
X175840000Y-117910000D03*
X178380000Y-117910000D03*
%TD*%
D13*
%TO.C,R6*%
X199000000Y-90750000D03*
X201000000Y-90750000D03*
%TD*%
D28*
%TO.C,C6*%
X208287500Y-70750000D03*
X206212500Y-70750000D03*
%TD*%
D40*
%TO.C,R18*%
X138000000Y-56000000D03*
X138000000Y-58000000D03*
%TD*%
D38*
%TO.C,J4*%
X52300000Y-90380000D03*
D39*
X52300000Y-85300000D03*
%TD*%
D44*
%TO.C,J2*%
X51880000Y-71132500D03*
X51880000Y-76912500D03*
D45*
X52380000Y-69702500D03*
X52380000Y-78342500D03*
D46*
X48200000Y-69702500D03*
X48200000Y-78342500D03*
%TD*%
D23*
%TO.C,R4*%
X82480000Y-69700000D03*
X80480000Y-69700000D03*
%TD*%
D52*
%TO.C,TP4*%
X55500000Y-60070000D03*
X55500000Y-57530000D03*
%TD*%
D53*
%TO.C,J11*%
X92240000Y-113412500D03*
D54*
X87160000Y-113412500D03*
%TD*%
D55*
%TO.C,K1*%
X65597500Y-85500000D03*
X71597500Y-99700000D03*
X59597500Y-99700000D03*
D56*
X59597500Y-87500000D03*
D55*
X71597500Y-87500000D03*
%TD*%
D57*
%TO.C,J3*%
X68920000Y-39400000D03*
D54*
X74000000Y-39400000D03*
%TD*%
D58*
%TO.C,D5*%
X90210000Y-81200000D03*
D59*
X82590000Y-81200000D03*
%TD*%
D11*
%TO.C,J6*%
X81280000Y-39570000D03*
D12*
X83820000Y-39570000D03*
X81280000Y-42110000D03*
X83820000Y-42110000D03*
X81280000Y-44650000D03*
X83820000Y-44650000D03*
X81280000Y-47190000D03*
X83820000Y-47190000D03*
X81280000Y-49730000D03*
X83820000Y-49730000D03*
X81280000Y-52270000D03*
X83820000Y-52270000D03*
X81280000Y-54810000D03*
X83820000Y-54810000D03*
X81280000Y-57350000D03*
X83820000Y-57350000D03*
X81280000Y-59890000D03*
X83820000Y-59890000D03*
X81280000Y-62430000D03*
X83820000Y-62430000D03*
%TD*%
D53*
%TO.C,J9*%
X64440000Y-113412500D03*
D54*
X59360000Y-113412500D03*
%TD*%
D11*
%TO.C,J15*%
X93820000Y-57700000D03*
D12*
X96360000Y-57700000D03*
X98900000Y-57700000D03*
X101440000Y-57700000D03*
%TD*%
D53*
%TO.C,J10*%
X78240000Y-113412500D03*
D54*
X73160000Y-113412500D03*
%TD*%
D43*
%TO.C,J13*%
X112412500Y-99360000D03*
D39*
X112412500Y-104440000D03*
%TD*%
D43*
%TO.C,J5*%
X112500000Y-85500000D03*
D39*
X112500000Y-90580000D03*
%TD*%
D19*
%TO.C,C9*%
X103070250Y-47800000D03*
D20*
X103070250Y-45300000D03*
%TD*%
D60*
%TO.C,C5*%
X69680000Y-69737500D03*
X69680000Y-67662500D03*
%TD*%
D61*
%TO.C,H4*%
X49900000Y-115700000D03*
D62*
X49900000Y-115700000D03*
%TD*%
D58*
%TO.C,D4*%
X78590000Y-106350000D03*
D59*
X86210000Y-106350000D03*
%TD*%
D13*
%TO.C,R2*%
X55262500Y-72700000D03*
X57262500Y-72700000D03*
%TD*%
D38*
%TO.C,J8*%
X52387500Y-104440000D03*
D39*
X52387500Y-99360000D03*
%TD*%
D61*
%TO.C,H1*%
X114900000Y-37200000D03*
D62*
X114900000Y-37200000D03*
%TD*%
D13*
%TO.C,R1*%
X77680000Y-77830000D03*
X79680000Y-77830000D03*
%TD*%
D55*
%TO.C,K3*%
X99367500Y-85500000D03*
X105367500Y-99700000D03*
X93367500Y-99700000D03*
D56*
X93367500Y-87500000D03*
D55*
X105367500Y-87500000D03*
%TD*%
D49*
%TO.C,C3*%
X69680000Y-57192500D03*
X69680000Y-59267500D03*
%TD*%
D61*
%TO.C,H2*%
X49900000Y-37200000D03*
D62*
X49900000Y-37200000D03*
%TD*%
D11*
%TO.C,J7*%
X50080000Y-65900000D03*
D12*
X52620000Y-65900000D03*
X55160000Y-65900000D03*
X57700000Y-65900000D03*
X60240000Y-65900000D03*
X62780000Y-65900000D03*
%TD*%
D63*
%TO.C,U2*%
X89410000Y-74745000D03*
D25*
X91950000Y-74745000D03*
X94490000Y-74745000D03*
X97030000Y-74745000D03*
X99570000Y-74745000D03*
X102110000Y-74745000D03*
X104650000Y-74745000D03*
X107190000Y-74745000D03*
X89410000Y-62045000D03*
X91950000Y-62045000D03*
X94490000Y-62045000D03*
X97030000Y-62045000D03*
X99570000Y-62045000D03*
X102110000Y-62045000D03*
X104650000Y-62045000D03*
X107190000Y-62045000D03*
X107190000Y-67125000D03*
X107190000Y-64585000D03*
%TD*%
D21*
%TO.C,C2*%
X73042500Y-60030000D03*
X75117500Y-60030000D03*
%TD*%
D52*
%TO.C,TP3*%
X52500000Y-57530000D03*
X52500000Y-60070000D03*
%TD*%
D58*
%TO.C,D6*%
X95390000Y-106350000D03*
D59*
X103010000Y-106350000D03*
%TD*%
D64*
%TO.C,J1*%
X71280000Y-74300000D03*
X71280000Y-73030000D03*
X72550000Y-74300000D03*
X72550000Y-73030000D03*
X73820000Y-74300000D03*
X73820000Y-73030000D03*
X75090000Y-74300000D03*
X75090000Y-73030000D03*
X76360000Y-74300000D03*
X76360000Y-73030000D03*
X77630000Y-74300000D03*
X77630000Y-73030000D03*
X78900000Y-74300000D03*
X78900000Y-73030000D03*
%TD*%
D55*
%TO.C,K2*%
X82482500Y-85500000D03*
X88482500Y-99700000D03*
X76482500Y-99700000D03*
D56*
X76482500Y-87500000D03*
D55*
X88482500Y-87500000D03*
%TD*%
D13*
%TO.C,R3*%
X55262500Y-76100000D03*
X57262500Y-76100000D03*
%TD*%
D21*
%TO.C,C1*%
X73042500Y-57430000D03*
X75117500Y-57430000D03*
%TD*%
D37*
%TO.C,PS1*%
X73240000Y-51230000D03*
X70700000Y-51230000D03*
X68160000Y-51230000D03*
X63080000Y-51230000D03*
X60540000Y-51230000D03*
X58000000Y-51230000D03*
X55460000Y-51230000D03*
%TD*%
D61*
%TO.C,H3*%
X114900000Y-115700000D03*
D62*
X114900000Y-115700000D03*
%TD*%
D23*
%TO.C,R6*%
X60300000Y-62900000D03*
X58300000Y-62900000D03*
%TD*%
D52*
%TO.C,TP2*%
X63450000Y-60070000D03*
X63450000Y-57530000D03*
%TD*%
D60*
%TO.C,C4*%
X69680000Y-63337500D03*
X69680000Y-61262500D03*
%TD*%
D19*
%TO.C,C10*%
X103070250Y-69800000D03*
D20*
X103070250Y-67300000D03*
%TD*%
D58*
%TO.C,D2*%
X61590000Y-106350000D03*
D59*
X69210000Y-106350000D03*
%TD*%
D52*
%TO.C,TP1*%
X60450000Y-60070000D03*
X60450000Y-57530000D03*
%TD*%
D65*
%TO.C,U1*%
X77430237Y-67380141D03*
X77430237Y-66880015D03*
X77430237Y-66379889D03*
X77430237Y-65879763D03*
X77430237Y-65379637D03*
X77430237Y-64879511D03*
X77430237Y-64379385D03*
X77430237Y-63879259D03*
D66*
X76780378Y-63229400D03*
X76280252Y-63229400D03*
X75780126Y-63229400D03*
X75280000Y-63229400D03*
X74779874Y-63229400D03*
X74279748Y-63229400D03*
X73779622Y-63229400D03*
X73279496Y-63229400D03*
D65*
X72629637Y-63879259D03*
X72629637Y-64379385D03*
X72629637Y-64879511D03*
X72629637Y-65379637D03*
X72629637Y-65879763D03*
X72629637Y-66379889D03*
X72629637Y-66880015D03*
X72629637Y-67380141D03*
D66*
X73279496Y-68030000D03*
X73779622Y-68030000D03*
X74279748Y-68030000D03*
X74779874Y-68030000D03*
X75280000Y-68030000D03*
X75780126Y-68030000D03*
X76280252Y-68030000D03*
X76780378Y-68030000D03*
%TD*%
D11*
%TO.C,J14*%
X93580000Y-79400000D03*
D12*
X96120000Y-79400000D03*
X98660000Y-79400000D03*
X101200000Y-79400000D03*
%TD*%
D63*
%TO.C,U3*%
X89410000Y-52700000D03*
D25*
X91950000Y-52700000D03*
X94490000Y-52700000D03*
X97030000Y-52700000D03*
X99570000Y-52700000D03*
X102110000Y-52700000D03*
X104650000Y-52700000D03*
X107190000Y-52700000D03*
X89410000Y-40000000D03*
X91950000Y-40000000D03*
X94490000Y-40000000D03*
X97030000Y-40000000D03*
X99570000Y-40000000D03*
X102110000Y-40000000D03*
X104650000Y-40000000D03*
X107190000Y-40000000D03*
X107190000Y-45080000D03*
X107190000Y-42540000D03*
%TD*%
D23*
%TO.C,R5*%
X60300000Y-69600000D03*
X58300000Y-69600000D03*
%TD*%
D53*
%TO.C,J12*%
X106040000Y-113412500D03*
D54*
X100960000Y-113412500D03*
%TD*%
D58*
%TO.C,D3*%
X72190000Y-81200000D03*
D59*
X79810000Y-81200000D03*
%TD*%
D58*
%TO.C,D1*%
X61790000Y-81150000D03*
D59*
X69410000Y-81150000D03*
%TD*%
D27*
%TO.C,R7*%
X82400000Y-67200000D03*
X82400000Y-65200000D03*
%TD*%
D11*
%TO.C,J17*%
X111100000Y-42120000D03*
D12*
X111100000Y-44660000D03*
X111100000Y-47200000D03*
%TD*%
D11*
%TO.C,J16*%
X111100000Y-58460000D03*
D12*
X111100000Y-61000000D03*
X111100000Y-63540000D03*
%TD*%
M02*
