%TF.GenerationSoftware,KiCad,Pcbnew,9.0.0*%
%TF.CreationDate,2025-05-10T16:47:32+02:00*%
%TF.ProjectId,silkscreen,73696c6b-7363-4726-9565-6e2e6b696361,rev?*%
%TF.SameCoordinates,Original*%
%TF.FileFunction,Legend,Bot*%
%TF.FilePolarity,Positive*%
%FSLAX46Y46*%
G04 Gerber Fmt 4.6, Leading zero omitted, Abs format (unit mm)*
G04 Created by KiCad (PCBNEW 9.0.0) date 2025-05-10 16:47:32*
%MOMM*%
%LPD*%
G01*
G04 APERTURE LIST*
%ADD10C,0.100000*%
%ADD11C,0.000000*%
G04 APERTURE END LIST*
D10*
G36*
X184763328Y-53037404D02*
G01*
X184804239Y-53266870D01*
X184835868Y-53491695D01*
X185124137Y-53528043D01*
X185361357Y-53539078D01*
X185578339Y-53524814D01*
X185774493Y-53483513D01*
X185898104Y-53438682D01*
X186014851Y-53378055D01*
X186125593Y-53300942D01*
X186223644Y-53209445D01*
X186299103Y-53110122D01*
X186354082Y-53001988D01*
X186391548Y-52885495D01*
X186414713Y-52757821D01*
X186422714Y-52617306D01*
X186411960Y-52453782D01*
X186380787Y-52305587D01*
X186330146Y-52170464D01*
X186259227Y-52045113D01*
X186170886Y-51935225D01*
X186064043Y-51839392D01*
X185944065Y-51759157D01*
X185817532Y-51696234D01*
X185683513Y-51649982D01*
X185473939Y-51607301D01*
X185256210Y-51592951D01*
X185042115Y-51603612D01*
X184752337Y-51640457D01*
X184749528Y-51756838D01*
X184741224Y-51919748D01*
X184731332Y-52078628D01*
X184994992Y-52028070D01*
X185178297Y-52015003D01*
X185298793Y-52023560D01*
X185408236Y-52048427D01*
X185508391Y-52089009D01*
X185599456Y-52145920D01*
X185675947Y-52217187D01*
X185739200Y-52304064D01*
X185785788Y-52401024D01*
X185813815Y-52504522D01*
X185823342Y-52616329D01*
X185815028Y-52718358D01*
X185791278Y-52806699D01*
X185753000Y-52883775D01*
X185700567Y-52952364D01*
X185637432Y-53009542D01*
X185562491Y-53056088D01*
X185480179Y-53088737D01*
X185382265Y-53109585D01*
X185265736Y-53117027D01*
X185167138Y-53113207D01*
X185055198Y-53101029D01*
X184933863Y-53078970D01*
X184763328Y-53037404D01*
G37*
G36*
X184400627Y-52501901D02*
G01*
X184366678Y-52310293D01*
X184344329Y-52148482D01*
X184077277Y-52097961D01*
X183852466Y-52070345D01*
X183664479Y-52061898D01*
X183506807Y-52071338D01*
X183368213Y-52098290D01*
X183281804Y-52128980D01*
X183212447Y-52168450D01*
X183157431Y-52216259D01*
X183116817Y-52275083D01*
X183090833Y-52351200D01*
X183081350Y-52449633D01*
X183101866Y-52794138D01*
X183119054Y-53083668D01*
X183133373Y-53500122D01*
X183403628Y-53497313D01*
X183681210Y-53500122D01*
X183663515Y-53308180D01*
X183638712Y-52884996D01*
X183714427Y-52917969D01*
X183817742Y-52950942D01*
X183932902Y-52987944D01*
X184004343Y-53025802D01*
X184046964Y-53072575D01*
X184059542Y-53125697D01*
X184050772Y-53167058D01*
X184023883Y-53202512D01*
X183981188Y-53225215D01*
X183909089Y-53234263D01*
X183848272Y-53229134D01*
X183750819Y-53200314D01*
X183848639Y-53523080D01*
X183967304Y-53535224D01*
X184074441Y-53539078D01*
X184236382Y-53526118D01*
X184358251Y-53491329D01*
X184428512Y-53452765D01*
X184486431Y-53401705D01*
X184533373Y-53336967D01*
X184579987Y-53228327D01*
X184594800Y-53123499D01*
X184589144Y-53059146D01*
X184572086Y-52996004D01*
X184543549Y-52935400D01*
X184501133Y-52874127D01*
X184448831Y-52819041D01*
X184388171Y-52772522D01*
X184316580Y-52733757D01*
X184211828Y-52693143D01*
X184092257Y-52658744D01*
X183928994Y-52623046D01*
X183798935Y-52593614D01*
X183714916Y-52566381D01*
X183674982Y-52539881D01*
X183653244Y-52508740D01*
X183646650Y-52474302D01*
X183657287Y-52428579D01*
X183689026Y-52394801D01*
X183737581Y-52374692D01*
X183814933Y-52366713D01*
X183969149Y-52379354D01*
X184161662Y-52421777D01*
X184400627Y-52501901D01*
G37*
G36*
X182835397Y-53500122D02*
G01*
X182792777Y-52890858D01*
X182779099Y-52543545D01*
X182777756Y-52351570D01*
X182780565Y-52100854D01*
X182514218Y-52103663D01*
X182249214Y-52100854D01*
X182254466Y-52244958D01*
X182173865Y-52163258D01*
X182095219Y-52109525D01*
X182002895Y-52073621D01*
X181902145Y-52061898D01*
X181851058Y-52065723D01*
X181788939Y-52078384D01*
X181782100Y-52321284D01*
X181772330Y-52532309D01*
X181850849Y-52513222D01*
X181917166Y-52507397D01*
X181994970Y-52513766D01*
X182057117Y-52531332D01*
X182112092Y-52561085D01*
X182160921Y-52603506D01*
X182200871Y-52656748D01*
X182233216Y-52724528D01*
X182254507Y-52808071D01*
X182271318Y-52955460D01*
X182282187Y-53318039D01*
X182276447Y-53500122D01*
X182547068Y-53497313D01*
X182835397Y-53500122D01*
G37*
G36*
X180606559Y-53099930D02*
G01*
X180650156Y-53325610D01*
X180680687Y-53491573D01*
X180894766Y-53530774D01*
X181042044Y-53539078D01*
X181155206Y-53533773D01*
X181249528Y-53519050D01*
X181334223Y-53490079D01*
X181401325Y-53445778D01*
X181453015Y-53387623D01*
X181484246Y-53323168D01*
X181500743Y-53252472D01*
X181506350Y-53176744D01*
X181505006Y-53127163D01*
X181495481Y-52969138D01*
X181465683Y-52491765D01*
X181678785Y-52491765D01*
X181666207Y-52244591D01*
X181662055Y-52116608D01*
X181434787Y-52116608D01*
X181414759Y-51843789D01*
X181178087Y-51795917D01*
X180899895Y-51732536D01*
X180913694Y-52116608D01*
X180602163Y-52116608D01*
X180613276Y-52491765D01*
X180927616Y-52491765D01*
X180943858Y-52839078D01*
X180946545Y-52940073D01*
X180942679Y-53003847D01*
X180932501Y-53050715D01*
X180912750Y-53088938D01*
X180883408Y-53113607D01*
X180846766Y-53127814D01*
X180805617Y-53132658D01*
X180737840Y-53128262D01*
X180606559Y-53099930D01*
G37*
G36*
X179827273Y-52071898D02*
G01*
X179972993Y-52101831D01*
X180065859Y-52134725D01*
X180150492Y-52179558D01*
X180227861Y-52236653D01*
X180294790Y-52305320D01*
X180355083Y-52392143D01*
X180408478Y-52500069D01*
X180447582Y-52613994D01*
X180470750Y-52728398D01*
X180478454Y-52844207D01*
X180469662Y-52967879D01*
X180443405Y-53087718D01*
X180399505Y-53199412D01*
X180340945Y-53292027D01*
X180266006Y-53370610D01*
X180173883Y-53436008D01*
X180067659Y-53484022D01*
X179937089Y-53516364D01*
X179796610Y-53533162D01*
X179637037Y-53539078D01*
X179418073Y-53528210D01*
X179148551Y-53483757D01*
X179078454Y-53084054D01*
X179247010Y-53131101D01*
X179369225Y-53158304D01*
X179481635Y-53174608D01*
X179574145Y-53179553D01*
X179672415Y-53171370D01*
X179756338Y-53148117D01*
X179828523Y-53110799D01*
X179885320Y-53057527D01*
X179919910Y-52987820D01*
X179932327Y-52896231D01*
X179931228Y-52860450D01*
X178973796Y-52859106D01*
X178959755Y-52761600D01*
X178955477Y-52680565D01*
X178961659Y-52605826D01*
X179475593Y-52605826D01*
X179476692Y-52640265D01*
X179919260Y-52640265D01*
X179901186Y-52562840D01*
X179871510Y-52502145D01*
X179821074Y-52446824D01*
X179753297Y-52410432D01*
X179675261Y-52397976D01*
X179619509Y-52403641D01*
X179571214Y-52419958D01*
X179530666Y-52448205D01*
X179500383Y-52489933D01*
X179482155Y-52541225D01*
X179475593Y-52605826D01*
X178961659Y-52605826D01*
X178966190Y-52551046D01*
X178997487Y-52432903D01*
X179052825Y-52325110D01*
X179138415Y-52226639D01*
X179208343Y-52172328D01*
X179288251Y-52129645D01*
X179379605Y-52098534D01*
X179524160Y-52071197D01*
X179678070Y-52061898D01*
X179827273Y-52071898D01*
G37*
G36*
X178062159Y-53500000D02*
G01*
X178034438Y-53145481D01*
X177999022Y-52461357D01*
X177984001Y-51976901D01*
X177982658Y-51821074D01*
X177984001Y-51624092D01*
X177690422Y-51628367D01*
X177402337Y-51622260D01*
X177092027Y-51616032D01*
X176920329Y-51622979D01*
X176819818Y-51639480D01*
X176734878Y-51669888D01*
X176659473Y-51713363D01*
X176593567Y-51768582D01*
X176541015Y-51831577D01*
X176500368Y-51903125D01*
X176470795Y-51985572D01*
X176453212Y-52072716D01*
X176447348Y-52161549D01*
X176457463Y-52282294D01*
X176487242Y-52394357D01*
X176536740Y-52499581D01*
X176604489Y-52593220D01*
X176687757Y-52669066D01*
X176788311Y-52728558D01*
X176898734Y-52770088D01*
X177019403Y-52795607D01*
X177152110Y-52804396D01*
X177326378Y-52788276D01*
X177367655Y-52596789D01*
X177418946Y-52404082D01*
X177352424Y-52417143D01*
X177287421Y-52421423D01*
X177198859Y-52412969D01*
X177133070Y-52390209D01*
X177084577Y-52355233D01*
X177047527Y-52307627D01*
X177025550Y-52254253D01*
X177018021Y-52193178D01*
X177021854Y-52148364D01*
X177032676Y-52110746D01*
X177051616Y-52078111D01*
X177079326Y-52051762D01*
X177113068Y-52032751D01*
X177150401Y-52021842D01*
X177239549Y-52015003D01*
X177341765Y-52017690D01*
X177453140Y-52025628D01*
X177480251Y-52610345D01*
X177497958Y-53317794D01*
X177497958Y-53500000D01*
X177773708Y-53497313D01*
X178062159Y-53500000D01*
G37*
G36*
X175630722Y-51815212D02*
G01*
X175705704Y-51964323D01*
X176412055Y-53297156D01*
X176528925Y-53500122D01*
X176187351Y-53497313D01*
X175873255Y-53500000D01*
X175627424Y-52968527D01*
X174944033Y-52968527D01*
X174841183Y-53263178D01*
X174770865Y-53500000D01*
X174430390Y-53497313D01*
X174137665Y-53500122D01*
X174218998Y-53294958D01*
X174489974Y-52562107D01*
X175045027Y-52562107D01*
X175458408Y-52562107D01*
X175362665Y-52362927D01*
X175213921Y-52038939D01*
X175045027Y-52562107D01*
X174489974Y-52562107D01*
X174624807Y-52197452D01*
X174825087Y-51624214D01*
X175184490Y-51626901D01*
X175538031Y-51624214D01*
X175630722Y-51815212D01*
G37*
G36*
X174035083Y-53500122D02*
G01*
X174000401Y-53219242D01*
X173915648Y-52260101D01*
X173873028Y-51624214D01*
X173474546Y-51626901D01*
X173107693Y-51624214D01*
X173077285Y-51805931D01*
X173016468Y-52043946D01*
X172938677Y-52350471D01*
X172853558Y-52776796D01*
X172748778Y-52423377D01*
X172625680Y-52071545D01*
X172532257Y-51813747D01*
X172477424Y-51624214D01*
X172072836Y-51626901D01*
X171697068Y-51624214D01*
X171731507Y-52420568D01*
X171749214Y-53312665D01*
X171746406Y-53500000D01*
X172003227Y-53497313D01*
X172265666Y-53500122D01*
X172237944Y-52909542D01*
X172221580Y-52317864D01*
X172220359Y-52161793D01*
X172395725Y-52720010D01*
X172653401Y-53500000D01*
X172900697Y-53497313D01*
X173163503Y-53500000D01*
X173332152Y-52744312D01*
X173430460Y-52343387D01*
X173442794Y-52285868D01*
X173460868Y-52164602D01*
X173491154Y-52543911D01*
X173536217Y-53321092D01*
X173540491Y-53500000D01*
X173784734Y-53497313D01*
X174035083Y-53500122D01*
G37*
G36*
X171420586Y-53500000D02*
G01*
X171358160Y-52461292D01*
X171341207Y-51804710D01*
X171342550Y-51624214D01*
X171018928Y-51626901D01*
X170720952Y-51624214D01*
X170760886Y-52211374D01*
X170788241Y-52927616D01*
X170796423Y-53500000D01*
X171080355Y-53497313D01*
X171420586Y-53500000D01*
G37*
G36*
X169273935Y-53500000D02*
G01*
X169325226Y-53330373D01*
X169658618Y-52368422D01*
X169922888Y-51624092D01*
X169586566Y-51626901D01*
X169304832Y-51624214D01*
X169254884Y-51811549D01*
X169162072Y-52108182D01*
X168961182Y-52754937D01*
X168890474Y-53007606D01*
X168831856Y-52861182D01*
X168355094Y-51816556D01*
X168327128Y-51751099D01*
X168276325Y-51624214D01*
X167955390Y-51626901D01*
X167650941Y-51624092D01*
X167969556Y-52237386D01*
X168440945Y-53173447D01*
X168594940Y-53500000D01*
X168925401Y-53497313D01*
X169273935Y-53500000D01*
G37*
G36*
X167115073Y-53500122D02*
G01*
X167069766Y-52810380D01*
X167038380Y-52140177D01*
X167130582Y-52198185D01*
X167344905Y-52347295D01*
X167329274Y-52068004D01*
X167322435Y-51836828D01*
X167162822Y-51740718D01*
X167054989Y-51671231D01*
X166994661Y-51624214D01*
X166713171Y-51626901D01*
X166401517Y-51624092D01*
X166429239Y-51933548D01*
X166487979Y-52946179D01*
X166501657Y-53318283D01*
X166501657Y-53500122D01*
X166788398Y-53497313D01*
X167115073Y-53500122D01*
G37*
G36*
X190999213Y-56860122D02*
G01*
X190964531Y-56579242D01*
X190879779Y-55620101D01*
X190837158Y-54984214D01*
X190438676Y-54986901D01*
X190071823Y-54984214D01*
X190041415Y-55165931D01*
X189980599Y-55403946D01*
X189902807Y-55710471D01*
X189817689Y-56136796D01*
X189712908Y-55783377D01*
X189589810Y-55431545D01*
X189496387Y-55173747D01*
X189441555Y-54984214D01*
X189036966Y-54986901D01*
X188661199Y-54984214D01*
X188695637Y-55780568D01*
X188713345Y-56672665D01*
X188710536Y-56860000D01*
X188967357Y-56857313D01*
X189229796Y-56860122D01*
X189202075Y-56269542D01*
X189185710Y-55677864D01*
X189184489Y-55521793D01*
X189359855Y-56080010D01*
X189617532Y-56860000D01*
X189864828Y-56857313D01*
X190127633Y-56860000D01*
X190296283Y-56104312D01*
X190394590Y-55703387D01*
X190406925Y-55645868D01*
X190424999Y-55524602D01*
X190455285Y-55903911D01*
X190500347Y-56681092D01*
X190504622Y-56860000D01*
X190748865Y-56857313D01*
X190999213Y-56860122D01*
G37*
G36*
X187483003Y-54967775D02*
G01*
X187687253Y-55010750D01*
X187873516Y-55080568D01*
X188005253Y-55152786D01*
X188116609Y-55235881D01*
X188209773Y-55329922D01*
X188286286Y-55435575D01*
X188346266Y-55551674D01*
X188389649Y-55677331D01*
X188416326Y-55814057D01*
X188425504Y-55963628D01*
X188417862Y-56098746D01*
X188395672Y-56222328D01*
X188359681Y-56335854D01*
X188306995Y-56441906D01*
X188233465Y-56543120D01*
X188136687Y-56640303D01*
X188026701Y-56722417D01*
X187904060Y-56788258D01*
X187767148Y-56838018D01*
X187624351Y-56871758D01*
X187476578Y-56892183D01*
X187323114Y-56899078D01*
X187167877Y-56892048D01*
X187017863Y-56871190D01*
X186872364Y-56836674D01*
X186732603Y-56786110D01*
X186608935Y-56720400D01*
X186499527Y-56639570D01*
X186403545Y-56543412D01*
X186324006Y-56434673D01*
X186260169Y-56312041D01*
X186214545Y-56181102D01*
X186186666Y-56040442D01*
X186178023Y-55902690D01*
X186776499Y-55902690D01*
X186783806Y-56001106D01*
X186805636Y-56096349D01*
X186842322Y-56189431D01*
X186893345Y-56274506D01*
X186956781Y-56344741D01*
X187033564Y-56401678D01*
X187119787Y-56443469D01*
X187211272Y-56468531D01*
X187309559Y-56477027D01*
X187401932Y-56469551D01*
X187490622Y-56447251D01*
X187576761Y-56409738D01*
X187654561Y-56358245D01*
X187716570Y-56296221D01*
X187764461Y-56222770D01*
X187798463Y-56141118D01*
X187819093Y-56053574D01*
X187826132Y-55958866D01*
X187818498Y-55856095D01*
X187795890Y-55758706D01*
X187758233Y-55665530D01*
X187706014Y-55580348D01*
X187641670Y-55509634D01*
X187564304Y-55451939D01*
X187477452Y-55409408D01*
X187383988Y-55383751D01*
X187282204Y-55375003D01*
X187185459Y-55382808D01*
X187097413Y-55405575D01*
X187016467Y-55443025D01*
X186944050Y-55494519D01*
X186884770Y-55557766D01*
X186837560Y-55634023D01*
X186803848Y-55717855D01*
X186783442Y-55807019D01*
X186776499Y-55902690D01*
X186178023Y-55902690D01*
X186177127Y-55888401D01*
X186186041Y-55743493D01*
X186211632Y-55614675D01*
X186252720Y-55499689D01*
X186310840Y-55392427D01*
X186386271Y-55293024D01*
X186480477Y-55200736D01*
X186586735Y-55122583D01*
X186704628Y-55059713D01*
X186835606Y-55011936D01*
X187041601Y-54967829D01*
X187257657Y-54952951D01*
X187483003Y-54967775D01*
G37*
G36*
X185302860Y-54982260D02*
G01*
X185596440Y-54988367D01*
X185876342Y-54984092D01*
X185876342Y-55148224D01*
X185888676Y-55633900D01*
X185921405Y-56356371D01*
X185962804Y-56860122D01*
X185705738Y-56855847D01*
X185153749Y-56860000D01*
X184971238Y-56855658D01*
X184818526Y-56843635D01*
X184692922Y-56824713D01*
X184608844Y-56803702D01*
X184532996Y-56774443D01*
X184456436Y-56734947D01*
X184360223Y-56669539D01*
X184275941Y-56592676D01*
X184202979Y-56502950D01*
X184137943Y-56394106D01*
X184086215Y-56273649D01*
X184046108Y-56135209D01*
X184021482Y-55989753D01*
X184014200Y-55856161D01*
X184612629Y-55856161D01*
X184622495Y-55987745D01*
X184652075Y-56116158D01*
X184703149Y-56233338D01*
X184773341Y-56323642D01*
X184862215Y-56390462D01*
X184963728Y-56428911D01*
X185076294Y-56447050D01*
X185211146Y-56453579D01*
X185364287Y-56446130D01*
X185318003Y-55398084D01*
X185089514Y-55382819D01*
X184932169Y-55395103D01*
X184825731Y-55426538D01*
X184766908Y-55462127D01*
X184715475Y-55512971D01*
X184670881Y-55581632D01*
X184639623Y-55658028D01*
X184619721Y-55748615D01*
X184612629Y-55856161D01*
X184014200Y-55856161D01*
X184013135Y-55836622D01*
X184023837Y-55680585D01*
X184055756Y-55529609D01*
X184108803Y-55388038D01*
X184179343Y-55269124D01*
X184270067Y-55168347D01*
X184380599Y-55088750D01*
X184505156Y-55031695D01*
X184639252Y-54998014D01*
X184783281Y-54981924D01*
X184961164Y-54976032D01*
X185302860Y-54982260D01*
G37*
G36*
X183801865Y-56860000D02*
G01*
X183751673Y-56264658D01*
X183720288Y-55631824D01*
X183704534Y-55108534D01*
X183705878Y-54984214D01*
X182921858Y-54986901D01*
X182173132Y-54984214D01*
X182176063Y-55033551D01*
X182182902Y-55152498D01*
X182191084Y-55301730D01*
X182193892Y-55402602D01*
X182640490Y-55391612D01*
X182906227Y-55392344D01*
X183117741Y-55398328D01*
X183133617Y-55703387D01*
X182762001Y-55707295D01*
X182350574Y-55695327D01*
X182377197Y-56117501D01*
X182744294Y-56114815D01*
X183162682Y-56125195D01*
X183178680Y-56445764D01*
X183025661Y-56445764D01*
X182737577Y-56441367D01*
X182454744Y-56434040D01*
X182239932Y-56422072D01*
X182267898Y-56860000D01*
X183002458Y-56857191D01*
X183603540Y-56858534D01*
X183801865Y-56860000D01*
G37*
G36*
X181969800Y-56860000D02*
G01*
X181920096Y-56329016D01*
X181877109Y-55589448D01*
X181862699Y-54984214D01*
X181529552Y-54986901D01*
X181246719Y-54984092D01*
X181279814Y-55484180D01*
X181320724Y-56259406D01*
X181326098Y-56445886D01*
X181024091Y-56449916D01*
X180476010Y-56440024D01*
X180506663Y-56860000D01*
X181194817Y-56857313D01*
X181969800Y-56860000D01*
G37*
G36*
X180317985Y-56860000D02*
G01*
X180267793Y-56264658D01*
X180236408Y-55631824D01*
X180220654Y-55108534D01*
X180221998Y-54984214D01*
X179437978Y-54986901D01*
X178689252Y-54984214D01*
X178692183Y-55033551D01*
X178699022Y-55152498D01*
X178707204Y-55301730D01*
X178710012Y-55402602D01*
X179156611Y-55391612D01*
X179422347Y-55392344D01*
X179633861Y-55398328D01*
X179649737Y-55703387D01*
X179278121Y-55707295D01*
X178866694Y-55695327D01*
X178893317Y-56117501D01*
X179260414Y-56114815D01*
X179678802Y-56125195D01*
X179694800Y-56445764D01*
X179541781Y-56445764D01*
X179253697Y-56441367D01*
X178970864Y-56434040D01*
X178756052Y-56422072D01*
X178784018Y-56860000D01*
X179518578Y-56857191D01*
X180119660Y-56858534D01*
X180317985Y-56860000D01*
G37*
G36*
X176847905Y-56397404D02*
G01*
X176888816Y-56626870D01*
X176920445Y-56851695D01*
X177208714Y-56888043D01*
X177445934Y-56899078D01*
X177662916Y-56884814D01*
X177859070Y-56843513D01*
X177982681Y-56798682D01*
X178099428Y-56738055D01*
X178210169Y-56660942D01*
X178308220Y-56569445D01*
X178383680Y-56470122D01*
X178438659Y-56361988D01*
X178476125Y-56245495D01*
X178499290Y-56117821D01*
X178507291Y-55977306D01*
X178496537Y-55813782D01*
X178465364Y-55665587D01*
X178414723Y-55530464D01*
X178343803Y-55405113D01*
X178255463Y-55295225D01*
X178148620Y-55199392D01*
X178028642Y-55119157D01*
X177902109Y-55056234D01*
X177768090Y-55009982D01*
X177558516Y-54967301D01*
X177340787Y-54952951D01*
X177126692Y-54963612D01*
X176836914Y-55000457D01*
X176834105Y-55116838D01*
X176825801Y-55279748D01*
X176815909Y-55438628D01*
X177079569Y-55388070D01*
X177262874Y-55375003D01*
X177383369Y-55383560D01*
X177492813Y-55408427D01*
X177592968Y-55449009D01*
X177684033Y-55505920D01*
X177760524Y-55577187D01*
X177823777Y-55664064D01*
X177870365Y-55761024D01*
X177898392Y-55864522D01*
X177907919Y-55976329D01*
X177899605Y-56078358D01*
X177875855Y-56166699D01*
X177837577Y-56243775D01*
X177785144Y-56312364D01*
X177722009Y-56369542D01*
X177647068Y-56416088D01*
X177564756Y-56448737D01*
X177466842Y-56469585D01*
X177350313Y-56477027D01*
X177251715Y-56473207D01*
X177139775Y-56461029D01*
X177018440Y-56438970D01*
X176847905Y-56397404D01*
G37*
G36*
X175891206Y-56860000D02*
G01*
X175828780Y-55821292D01*
X175811827Y-55164710D01*
X175813170Y-54984214D01*
X175489548Y-54986901D01*
X175191572Y-54984214D01*
X175231506Y-55571374D01*
X175258861Y-56287616D01*
X175267043Y-56860000D01*
X175550975Y-56857313D01*
X175891206Y-56860000D01*
G37*
G36*
X174957099Y-56835942D02*
G01*
X174977894Y-56554545D01*
X174999231Y-56357226D01*
X174843634Y-56421181D01*
X174721038Y-56457609D01*
X174604956Y-56478583D01*
X174512211Y-56484842D01*
X174401319Y-56475139D01*
X174325365Y-56450038D01*
X174285955Y-56422086D01*
X174263933Y-56388732D01*
X174256488Y-56348066D01*
X174263205Y-56304836D01*
X174288606Y-56257941D01*
X174342584Y-56200544D01*
X174599527Y-55976207D01*
X174725313Y-55865321D01*
X174792472Y-55794783D01*
X174838641Y-55734651D01*
X174874109Y-55672717D01*
X174897870Y-55611308D01*
X174911713Y-55547120D01*
X174916433Y-55478073D01*
X174909080Y-55395017D01*
X174886879Y-55313332D01*
X174850176Y-55235819D01*
X174797975Y-55162267D01*
X174730923Y-55098150D01*
X174641171Y-55041001D01*
X174540405Y-54998192D01*
X174432465Y-54971514D01*
X174320277Y-54957642D01*
X174203488Y-54952951D01*
X173967613Y-54966118D01*
X173696928Y-55008394D01*
X173687280Y-55186081D01*
X173660658Y-55470990D01*
X173789641Y-55423167D01*
X173895497Y-55395519D01*
X173995788Y-55379677D01*
X174073673Y-55375003D01*
X174173404Y-55385295D01*
X174248184Y-55413227D01*
X174288736Y-55442794D01*
X174310207Y-55473520D01*
X174317061Y-55506772D01*
X174306436Y-55558796D01*
X174266014Y-55618635D01*
X174187246Y-55694717D01*
X174032884Y-55818304D01*
X173934576Y-55896339D01*
X173840054Y-55982801D01*
X173752249Y-56083185D01*
X173695218Y-56174043D01*
X173665543Y-56257575D01*
X173655773Y-56348066D01*
X173670496Y-56468873D01*
X173715002Y-56584494D01*
X173759799Y-56654792D01*
X173815430Y-56716105D01*
X173882797Y-56769141D01*
X173996482Y-56830461D01*
X174121178Y-56870258D01*
X174252989Y-56891729D01*
X174394730Y-56899078D01*
X174630025Y-56885063D01*
X174957099Y-56835942D01*
G37*
G36*
X173395166Y-56860000D02*
G01*
X173344974Y-56264658D01*
X173313589Y-55631824D01*
X173297835Y-55108534D01*
X173299179Y-54984214D01*
X172515159Y-54986901D01*
X171766433Y-54984214D01*
X171769363Y-55033551D01*
X171776202Y-55152498D01*
X171784384Y-55301730D01*
X171787193Y-55402602D01*
X172233791Y-55391612D01*
X172499527Y-55392344D01*
X172711042Y-55398328D01*
X172726918Y-55703387D01*
X172355302Y-55707295D01*
X171943875Y-55695327D01*
X171970497Y-56117501D01*
X172337594Y-56114815D01*
X172755982Y-56125195D01*
X172771980Y-56445764D01*
X172618962Y-56445764D01*
X172330878Y-56441367D01*
X172048045Y-56434040D01*
X171833233Y-56422072D01*
X171861199Y-56860000D01*
X172595759Y-56857191D01*
X173196841Y-56858534D01*
X173395166Y-56860000D01*
G37*
G36*
X171547957Y-56860000D02*
G01*
X171520236Y-56568496D01*
X171466991Y-55594211D01*
X171451970Y-55201468D01*
X171451970Y-54984214D01*
X171073760Y-54986901D01*
X170744887Y-54984214D01*
X170158948Y-56050579D01*
X170084698Y-56194438D01*
X170055023Y-55562581D01*
X170039269Y-54984092D01*
X169766206Y-54986901D01*
X169494119Y-54984214D01*
X169527214Y-55396130D01*
X169588763Y-56529173D01*
X169597068Y-56860000D01*
X169932902Y-56857313D01*
X170290473Y-56860000D01*
X170396719Y-56663262D01*
X170626307Y-56272351D01*
X170835257Y-55904766D01*
X170958355Y-55673834D01*
X170986443Y-56308988D01*
X171000243Y-56860000D01*
X171262193Y-56857313D01*
X171547957Y-56860000D01*
G37*
G36*
X168583460Y-56860000D02*
G01*
X168574179Y-56684267D01*
X168565142Y-56463960D01*
X168303069Y-56237913D01*
X168117180Y-56062022D01*
X167961617Y-55905254D01*
X167849029Y-55782494D01*
X167762437Y-55677864D01*
X167721929Y-55618201D01*
X167701499Y-55576503D01*
X167690874Y-55519106D01*
X167695334Y-55482639D01*
X167708093Y-55452306D01*
X167729530Y-55426719D01*
X167762804Y-55403824D01*
X167854517Y-55371584D01*
X167977982Y-55359371D01*
X168074461Y-55363285D01*
X168178994Y-55375491D01*
X168473428Y-55438872D01*
X168436670Y-55240547D01*
X168400888Y-55015966D01*
X168158318Y-54980196D01*
X167933104Y-54959583D01*
X167723969Y-54952951D01*
X167581993Y-54959565D01*
X167448463Y-54978963D01*
X167322077Y-55014485D01*
X167212158Y-55067135D01*
X167118550Y-55136605D01*
X167055232Y-55212581D01*
X167015781Y-55299272D01*
X167002720Y-55392100D01*
X167017863Y-55516908D01*
X167038128Y-55577474D01*
X167074283Y-55655150D01*
X167131709Y-55751572D01*
X167202999Y-55848834D01*
X167322745Y-55991170D01*
X167465560Y-56144246D01*
X167799807Y-56461517D01*
X167659611Y-56462739D01*
X167448585Y-56460418D01*
X167229377Y-56455900D01*
X167073428Y-56445397D01*
X167086740Y-56614780D01*
X167105424Y-56860000D01*
X167820934Y-56857313D01*
X168583460Y-56860000D01*
G37*
G36*
X166021591Y-54960459D02*
G01*
X166138378Y-54982707D01*
X166250818Y-55019630D01*
X166355709Y-55072353D01*
X166447238Y-55140558D01*
X166526813Y-55225160D01*
X166591986Y-55322115D01*
X166649223Y-55440444D01*
X166697661Y-55583586D01*
X166743370Y-55805188D01*
X166758599Y-56030673D01*
X166747390Y-56214933D01*
X166714758Y-56384092D01*
X166677694Y-56490513D01*
X166626502Y-56585584D01*
X166560885Y-56670711D01*
X166482714Y-56744617D01*
X166397799Y-56802500D01*
X166305285Y-56845467D01*
X166155895Y-56885455D01*
X165993753Y-56899078D01*
X165865324Y-56890850D01*
X165743552Y-56866542D01*
X165627266Y-56826294D01*
X165518458Y-56769922D01*
X165426911Y-56701512D01*
X165350661Y-56620764D01*
X165288485Y-56527988D01*
X165232849Y-56412357D01*
X165184698Y-56269909D01*
X165138830Y-56050174D01*
X165123638Y-55829539D01*
X165124304Y-55819036D01*
X165675260Y-55819036D01*
X165690281Y-56041420D01*
X165709766Y-56149026D01*
X165737908Y-56250980D01*
X165775179Y-56343874D01*
X165813013Y-56404364D01*
X165857013Y-56450822D01*
X165893735Y-56475073D01*
X165932548Y-56488312D01*
X165971893Y-56492658D01*
X166039330Y-56479900D01*
X166098533Y-56441123D01*
X166144707Y-56381300D01*
X166180110Y-56294577D01*
X166199639Y-56192942D01*
X166207099Y-56053632D01*
X166200696Y-55890644D01*
X166182553Y-55747962D01*
X166154604Y-55626056D01*
X166117340Y-55523991D01*
X166074954Y-55450932D01*
X166021474Y-55397107D01*
X165968648Y-55368823D01*
X165909123Y-55359371D01*
X165844145Y-55371334D01*
X165788278Y-55407330D01*
X165738763Y-55472456D01*
X165706430Y-55550966D01*
X165683907Y-55663107D01*
X165675260Y-55819036D01*
X165124304Y-55819036D01*
X165135501Y-55642337D01*
X165169299Y-55478973D01*
X165223167Y-55335924D01*
X165280074Y-55235442D01*
X165345147Y-55154028D01*
X165418460Y-55089293D01*
X165500749Y-55039658D01*
X165622073Y-54992110D01*
X165754311Y-54962972D01*
X165899475Y-54952951D01*
X166021591Y-54960459D01*
G37*
G36*
X164937403Y-56860000D02*
G01*
X164928121Y-56684267D01*
X164919084Y-56463960D01*
X164657012Y-56237913D01*
X164471123Y-56062022D01*
X164315560Y-55905254D01*
X164202972Y-55782494D01*
X164116380Y-55677864D01*
X164075872Y-55618201D01*
X164055442Y-55576503D01*
X164044817Y-55519106D01*
X164049276Y-55482639D01*
X164062036Y-55452306D01*
X164083472Y-55426719D01*
X164116747Y-55403824D01*
X164208460Y-55371584D01*
X164331925Y-55359371D01*
X164428403Y-55363285D01*
X164532936Y-55375491D01*
X164827371Y-55438872D01*
X164790613Y-55240547D01*
X164754831Y-55015966D01*
X164512260Y-54980196D01*
X164287046Y-54959583D01*
X164077912Y-54952951D01*
X163935936Y-54959565D01*
X163802406Y-54978963D01*
X163676020Y-55014485D01*
X163566101Y-55067135D01*
X163472492Y-55136605D01*
X163409175Y-55212581D01*
X163369724Y-55299272D01*
X163356663Y-55392100D01*
X163371806Y-55516908D01*
X163392071Y-55577474D01*
X163428226Y-55655150D01*
X163485652Y-55751572D01*
X163556942Y-55848834D01*
X163676688Y-55991170D01*
X163819503Y-56144246D01*
X164153749Y-56461517D01*
X164013554Y-56462739D01*
X163802528Y-56460418D01*
X163583320Y-56455900D01*
X163427371Y-56445397D01*
X163440682Y-56614780D01*
X163459367Y-56860000D01*
X164174876Y-56857313D01*
X164937403Y-56860000D01*
G37*
G36*
X163001656Y-56835819D02*
G01*
X163011426Y-56697212D01*
X163020340Y-56577777D01*
X163039391Y-56397526D01*
X162844688Y-56444616D01*
X162689119Y-56469600D01*
X162566293Y-56477027D01*
X162470040Y-56468819D01*
X162384088Y-56445031D01*
X162309028Y-56405298D01*
X162256593Y-56354905D01*
X162223180Y-56293613D01*
X162212263Y-56227899D01*
X162222413Y-56166173D01*
X162251861Y-56116428D01*
X162302999Y-56075614D01*
X162366178Y-56049357D01*
X162458576Y-56030871D01*
X162589496Y-56023712D01*
X162760710Y-56029818D01*
X162992741Y-56055586D01*
X162922643Y-55169351D01*
X162914339Y-54984214D01*
X162250731Y-54986901D01*
X161576987Y-54984214D01*
X161592375Y-55210994D01*
X161599336Y-55398572D01*
X161784960Y-55392833D01*
X161869468Y-55391734D01*
X162001970Y-55391734D01*
X162212385Y-55390635D01*
X162348184Y-55390635D01*
X162374807Y-55702899D01*
X162236932Y-55695450D01*
X162095642Y-55703557D01*
X161970586Y-55726761D01*
X161859576Y-55763838D01*
X161756923Y-55817662D01*
X161678430Y-55881440D01*
X161620340Y-55955324D01*
X161578494Y-56040233D01*
X161553167Y-56132332D01*
X161544503Y-56233394D01*
X161552958Y-56331930D01*
X161578379Y-56428022D01*
X161621562Y-56522944D01*
X161679446Y-56609537D01*
X161749433Y-56682846D01*
X161832465Y-56743984D01*
X161974371Y-56813665D01*
X162142532Y-56862564D01*
X162320215Y-56889891D01*
X162503400Y-56899078D01*
X162669119Y-56890163D01*
X162830564Y-56870380D01*
X163001656Y-56835819D01*
G37*
G36*
X83379623Y-92678053D02*
G01*
X83410306Y-92850152D01*
X83434028Y-93018771D01*
X83650229Y-93046032D01*
X83828144Y-93054309D01*
X83990881Y-93043611D01*
X84137997Y-93012635D01*
X84230705Y-92979011D01*
X84318265Y-92933541D01*
X84401321Y-92875706D01*
X84474859Y-92807083D01*
X84531454Y-92732592D01*
X84572688Y-92651491D01*
X84600788Y-92564121D01*
X84618161Y-92468365D01*
X84624162Y-92362979D01*
X84616097Y-92240336D01*
X84592717Y-92129190D01*
X84554736Y-92027848D01*
X84501547Y-91933835D01*
X84435291Y-91851419D01*
X84355159Y-91779544D01*
X84265175Y-91719368D01*
X84170276Y-91672175D01*
X84069761Y-91637486D01*
X83912581Y-91605476D01*
X83749284Y-91594713D01*
X83588713Y-91602709D01*
X83371379Y-91630342D01*
X83369273Y-91717629D01*
X83363045Y-91839811D01*
X83355626Y-91958971D01*
X83553371Y-91921052D01*
X83690849Y-91911252D01*
X83781221Y-91917670D01*
X83863304Y-91936320D01*
X83938420Y-91966756D01*
X84006718Y-92009440D01*
X84064087Y-92062890D01*
X84111527Y-92128048D01*
X84146467Y-92200768D01*
X84167488Y-92278391D01*
X84174633Y-92362247D01*
X84168398Y-92438769D01*
X84150585Y-92505024D01*
X84121877Y-92562831D01*
X84082552Y-92614273D01*
X84035201Y-92657156D01*
X83978995Y-92692066D01*
X83917261Y-92716552D01*
X83843825Y-92732189D01*
X83756428Y-92737770D01*
X83682480Y-92734905D01*
X83598525Y-92725771D01*
X83507524Y-92709227D01*
X83379623Y-92678053D01*
G37*
G36*
X83107597Y-92276426D02*
G01*
X83082135Y-92132719D01*
X83065374Y-92011361D01*
X82865084Y-91973471D01*
X82696476Y-91952759D01*
X82555486Y-91946423D01*
X82437232Y-91953504D01*
X82333286Y-91973717D01*
X82268479Y-91996735D01*
X82216462Y-92026337D01*
X82175200Y-92062194D01*
X82144739Y-92106312D01*
X82125252Y-92163400D01*
X82118139Y-92237225D01*
X82133526Y-92495603D01*
X82146417Y-92712751D01*
X82157157Y-93025091D01*
X82359848Y-93022984D01*
X82568034Y-93025091D01*
X82554763Y-92881135D01*
X82536161Y-92563747D01*
X82592947Y-92588476D01*
X82670433Y-92613206D01*
X82756803Y-92640958D01*
X82810384Y-92669351D01*
X82842349Y-92704431D01*
X82851783Y-92744273D01*
X82845206Y-92775294D01*
X82825039Y-92801884D01*
X82793017Y-92818911D01*
X82738943Y-92825697D01*
X82693331Y-92821851D01*
X82620241Y-92800235D01*
X82693606Y-93042310D01*
X82782604Y-93051418D01*
X82862957Y-93054309D01*
X82984413Y-93044588D01*
X83075815Y-93018497D01*
X83128511Y-92989574D01*
X83171950Y-92951278D01*
X83207157Y-92902725D01*
X83242117Y-92821245D01*
X83253227Y-92742624D01*
X83248985Y-92694359D01*
X83236191Y-92647003D01*
X83214788Y-92601550D01*
X83182977Y-92555595D01*
X83143750Y-92514281D01*
X83098255Y-92479392D01*
X83044562Y-92450318D01*
X82965997Y-92419857D01*
X82876319Y-92394058D01*
X82753872Y-92367284D01*
X82656328Y-92345211D01*
X82593313Y-92324786D01*
X82563363Y-92304911D01*
X82547060Y-92281555D01*
X82542114Y-92255726D01*
X82550092Y-92221434D01*
X82573896Y-92196100D01*
X82610313Y-92181019D01*
X82668326Y-92175034D01*
X82783988Y-92184516D01*
X82928373Y-92216333D01*
X83107597Y-92276426D01*
G37*
G36*
X81933674Y-93025091D02*
G01*
X81901709Y-92568143D01*
X81891451Y-92307658D01*
X81890443Y-92163677D01*
X81892550Y-91975641D01*
X81692790Y-91977747D01*
X81494037Y-91975641D01*
X81497976Y-92083718D01*
X81437526Y-92022444D01*
X81378541Y-91982144D01*
X81309298Y-91955216D01*
X81233736Y-91946423D01*
X81195420Y-91949292D01*
X81148831Y-91958788D01*
X81143702Y-92140963D01*
X81136374Y-92299232D01*
X81195263Y-92284916D01*
X81245001Y-92280547D01*
X81303354Y-92285324D01*
X81349965Y-92298499D01*
X81391196Y-92320813D01*
X81427817Y-92352629D01*
X81457780Y-92392561D01*
X81482039Y-92443396D01*
X81498007Y-92506053D01*
X81510615Y-92616595D01*
X81518767Y-92888529D01*
X81514462Y-93025091D01*
X81717428Y-93022984D01*
X81933674Y-93025091D01*
G37*
G36*
X80262046Y-92724947D02*
G01*
X80294744Y-92894207D01*
X80317642Y-93018680D01*
X80478201Y-93048080D01*
X80588660Y-93054309D01*
X80673531Y-93050330D01*
X80744273Y-93039288D01*
X80807794Y-93017559D01*
X80858121Y-92984333D01*
X80896888Y-92940717D01*
X80920311Y-92892376D01*
X80932684Y-92839354D01*
X80936889Y-92782558D01*
X80935881Y-92745372D01*
X80928737Y-92626853D01*
X80906389Y-92268824D01*
X81066215Y-92268824D01*
X81056782Y-92083443D01*
X81053668Y-91987456D01*
X80883217Y-91987456D01*
X80868196Y-91782841D01*
X80690692Y-91746938D01*
X80482048Y-91699402D01*
X80492397Y-91987456D01*
X80258749Y-91987456D01*
X80267083Y-92268824D01*
X80502839Y-92268824D01*
X80515020Y-92529309D01*
X80517035Y-92605054D01*
X80514136Y-92652885D01*
X80506502Y-92688036D01*
X80491689Y-92716704D01*
X80469683Y-92735205D01*
X80442201Y-92745861D01*
X80411339Y-92749494D01*
X80360506Y-92746196D01*
X80262046Y-92724947D01*
G37*
G36*
X79677581Y-91953923D02*
G01*
X79786871Y-91976373D01*
X79856521Y-92001044D01*
X79919995Y-92034669D01*
X79978022Y-92077490D01*
X80028219Y-92128990D01*
X80073439Y-92194107D01*
X80113485Y-92275052D01*
X80142813Y-92360495D01*
X80160189Y-92446298D01*
X80165967Y-92533155D01*
X80159373Y-92625909D01*
X80139680Y-92715788D01*
X80106755Y-92799559D01*
X80062835Y-92869020D01*
X80006631Y-92927958D01*
X79937539Y-92977006D01*
X79857871Y-93013016D01*
X79759944Y-93037273D01*
X79654584Y-93049871D01*
X79534904Y-93054309D01*
X79370682Y-93046157D01*
X79168540Y-93012818D01*
X79115967Y-92713040D01*
X79242384Y-92748326D01*
X79334045Y-92768728D01*
X79418353Y-92780956D01*
X79487735Y-92784665D01*
X79561438Y-92778528D01*
X79624380Y-92761088D01*
X79678519Y-92733099D01*
X79721117Y-92693145D01*
X79747059Y-92640865D01*
X79756372Y-92572173D01*
X79755547Y-92545337D01*
X79037473Y-92544330D01*
X79026943Y-92471200D01*
X79023735Y-92410423D01*
X79028371Y-92354370D01*
X79413821Y-92354370D01*
X79414645Y-92380198D01*
X79746571Y-92380198D01*
X79733016Y-92322130D01*
X79710759Y-92276609D01*
X79672932Y-92235118D01*
X79622099Y-92207824D01*
X79563572Y-92198482D01*
X79521758Y-92202731D01*
X79485537Y-92214968D01*
X79455126Y-92236154D01*
X79432414Y-92267450D01*
X79418743Y-92305919D01*
X79413821Y-92354370D01*
X79028371Y-92354370D01*
X79031769Y-92313284D01*
X79055242Y-92224677D01*
X79096745Y-92143832D01*
X79160938Y-92069979D01*
X79213384Y-92029246D01*
X79273315Y-91997234D01*
X79341830Y-91973900D01*
X79450247Y-91953397D01*
X79565679Y-91946423D01*
X79677581Y-91953923D01*
G37*
G36*
X78274520Y-92276426D02*
G01*
X78249057Y-92132719D01*
X78232296Y-92011361D01*
X78032007Y-91973471D01*
X77863399Y-91952759D01*
X77722409Y-91946423D01*
X77604154Y-91953504D01*
X77500209Y-91973717D01*
X77435402Y-91996735D01*
X77383384Y-92026337D01*
X77342123Y-92062194D01*
X77311662Y-92106312D01*
X77292174Y-92163400D01*
X77285061Y-92237225D01*
X77300449Y-92495603D01*
X77313340Y-92712751D01*
X77324079Y-93025091D01*
X77526770Y-93022984D01*
X77734957Y-93025091D01*
X77721685Y-92881135D01*
X77703083Y-92563747D01*
X77759870Y-92588476D01*
X77837356Y-92613206D01*
X77923726Y-92640958D01*
X77977307Y-92669351D01*
X78009272Y-92704431D01*
X78018706Y-92744273D01*
X78012128Y-92775294D01*
X77991961Y-92801884D01*
X77959940Y-92818911D01*
X77905866Y-92825697D01*
X77860253Y-92821851D01*
X77787164Y-92800235D01*
X77860528Y-93042310D01*
X77949527Y-93051418D01*
X78029880Y-93054309D01*
X78151335Y-93044588D01*
X78242738Y-93018497D01*
X78295433Y-92989574D01*
X78338872Y-92951278D01*
X78374079Y-92902725D01*
X78409040Y-92821245D01*
X78420150Y-92742624D01*
X78415907Y-92694359D01*
X78403114Y-92647003D01*
X78381711Y-92601550D01*
X78349899Y-92555595D01*
X78310673Y-92514281D01*
X78265177Y-92479392D01*
X78211484Y-92450318D01*
X78132920Y-92419857D01*
X78043242Y-92394058D01*
X77920795Y-92367284D01*
X77823251Y-92345211D01*
X77760236Y-92324786D01*
X77730286Y-92304911D01*
X77713982Y-92281555D01*
X77709036Y-92255726D01*
X77717014Y-92221434D01*
X77740819Y-92196100D01*
X77777235Y-92181019D01*
X77835249Y-92175034D01*
X77950911Y-92184516D01*
X78095296Y-92216333D01*
X78274520Y-92276426D01*
G37*
G36*
X76219949Y-92695180D02*
G01*
X76245045Y-92851709D01*
X76272064Y-93018680D01*
X76434554Y-93045579D01*
X76589244Y-93054309D01*
X76697541Y-93048256D01*
X76785707Y-93031594D01*
X76880452Y-92994472D01*
X76965134Y-92936523D01*
X77014963Y-92886272D01*
X77054290Y-92830967D01*
X77083836Y-92770010D01*
X77107977Y-92693840D01*
X77122913Y-92610302D01*
X77128074Y-92518318D01*
X77117233Y-92392580D01*
X77084843Y-92271846D01*
X77050676Y-92196050D01*
X77008087Y-92131234D01*
X76956982Y-92076116D01*
X76897717Y-92029833D01*
X76835443Y-91995679D01*
X76769495Y-91972801D01*
X76663374Y-91953282D01*
X76542075Y-91946423D01*
X76395254Y-91954117D01*
X76317046Y-91965536D01*
X76210423Y-91988005D01*
X76208225Y-92013651D01*
X76203554Y-92088847D01*
X76196868Y-92209931D01*
X76190457Y-92305368D01*
X76292213Y-92273797D01*
X76378973Y-92256543D01*
X76452957Y-92251238D01*
X76529660Y-92259399D01*
X76593457Y-92282562D01*
X76645984Y-92320986D01*
X76682484Y-92372871D01*
X76703798Y-92435186D01*
X76711335Y-92510258D01*
X76704403Y-92585649D01*
X76685598Y-92642973D01*
X76652368Y-92689264D01*
X76603166Y-92722841D01*
X76544355Y-92742694D01*
X76478602Y-92749494D01*
X76396445Y-92742349D01*
X76313830Y-92726321D01*
X76219949Y-92695180D01*
G37*
G36*
X75269234Y-92724947D02*
G01*
X75301932Y-92894207D01*
X75324829Y-93018680D01*
X75485389Y-93048080D01*
X75595847Y-93054309D01*
X75680719Y-93050330D01*
X75751461Y-93039288D01*
X75814982Y-93017559D01*
X75865308Y-92984333D01*
X75904075Y-92940717D01*
X75927499Y-92892376D01*
X75939872Y-92839354D01*
X75944077Y-92782558D01*
X75943069Y-92745372D01*
X75935925Y-92626853D01*
X75913577Y-92268824D01*
X76073403Y-92268824D01*
X76063969Y-92083443D01*
X76060855Y-91987456D01*
X75890404Y-91987456D01*
X75875383Y-91782841D01*
X75697880Y-91746938D01*
X75489235Y-91699402D01*
X75499585Y-91987456D01*
X75265936Y-91987456D01*
X75274271Y-92268824D01*
X75510027Y-92268824D01*
X75522208Y-92529309D01*
X75524223Y-92605054D01*
X75521324Y-92652885D01*
X75513690Y-92688036D01*
X75498877Y-92716704D01*
X75476871Y-92735205D01*
X75449389Y-92745861D01*
X75418527Y-92749494D01*
X75367694Y-92746196D01*
X75269234Y-92724947D01*
G37*
G36*
X75086235Y-91846864D02*
G01*
X75079915Y-91652599D01*
X75081014Y-91594622D01*
X74869988Y-91596728D01*
X74663908Y-91594622D01*
X74668213Y-91650767D01*
X74674441Y-91776888D01*
X74676456Y-91846864D01*
X74874110Y-91844757D01*
X75086235Y-91846864D01*
G37*
G36*
X75150990Y-93025091D02*
G01*
X75129099Y-92816447D01*
X75115269Y-92610092D01*
X75103454Y-92332205D01*
X75095211Y-91975732D01*
X74879147Y-91977747D01*
X74666931Y-91975641D01*
X74692301Y-92318100D01*
X74702010Y-92627586D01*
X74706132Y-93025091D01*
X74919173Y-93022984D01*
X75150990Y-93025091D01*
G37*
G36*
X74011304Y-91957445D02*
G01*
X74140099Y-91990295D01*
X74221616Y-92024501D01*
X74292092Y-92066324D01*
X74352773Y-92115683D01*
X74405643Y-92173236D01*
X74447251Y-92234352D01*
X74478436Y-92299507D01*
X74508119Y-92403956D01*
X74518095Y-92514196D01*
X74507874Y-92624486D01*
X74477429Y-92729069D01*
X74445687Y-92794199D01*
X74405282Y-92852501D01*
X74355796Y-92904649D01*
X74298840Y-92948681D01*
X74232173Y-92985897D01*
X74154479Y-93016115D01*
X74031995Y-93044684D01*
X73903428Y-93054309D01*
X73764347Y-93043334D01*
X73634425Y-93010986D01*
X73553096Y-92976420D01*
X73483727Y-92932891D01*
X73424864Y-92880377D01*
X73374215Y-92819409D01*
X73335584Y-92757245D01*
X73307903Y-92693440D01*
X73282100Y-92591686D01*
X73273373Y-92483422D01*
X73273942Y-92477010D01*
X73690112Y-92477010D01*
X73696702Y-92551871D01*
X73716032Y-92620533D01*
X73748821Y-92680149D01*
X73792419Y-92721375D01*
X73845849Y-92746767D01*
X73906450Y-92755355D01*
X73959754Y-92748609D01*
X74005607Y-92729005D01*
X74045852Y-92696004D01*
X74075423Y-92653108D01*
X74094406Y-92597198D01*
X74101356Y-92524454D01*
X74094746Y-92449868D01*
X74075527Y-92382946D01*
X74042787Y-92325149D01*
X73999140Y-92284760D01*
X73945514Y-92259753D01*
X73883919Y-92251238D01*
X73825535Y-92259054D01*
X73776482Y-92281646D01*
X73736982Y-92317192D01*
X73710354Y-92362888D01*
X73695357Y-92415804D01*
X73690112Y-92477010D01*
X73273942Y-92477010D01*
X73283200Y-92372683D01*
X73312024Y-92271205D01*
X73342401Y-92208446D01*
X73382217Y-92151144D01*
X73432100Y-92098739D01*
X73489284Y-92054088D01*
X73555344Y-92016349D01*
X73631402Y-91985624D01*
X73751300Y-91956285D01*
X73876775Y-91946423D01*
X74011304Y-91957445D01*
G37*
G36*
X73138551Y-93025091D02*
G01*
X73112561Y-92784160D01*
X73092663Y-92509433D01*
X73079875Y-92232185D01*
X73073704Y-91975641D01*
X72858648Y-91977747D01*
X72656598Y-91975641D01*
X72666490Y-92109089D01*
X72613642Y-92054684D01*
X72552185Y-92010720D01*
X72474241Y-91975732D01*
X72384207Y-91954300D01*
X72281716Y-91946423D01*
X72208225Y-91950477D01*
X72137002Y-91962543D01*
X72070270Y-91982737D01*
X72018850Y-92008247D01*
X71974996Y-92041628D01*
X71939166Y-92082161D01*
X71912339Y-92128380D01*
X71896667Y-92177416D01*
X71886318Y-92282196D01*
X71894561Y-92449991D01*
X71911963Y-92819927D01*
X71917092Y-93025091D01*
X72113647Y-93022984D01*
X72339235Y-93025091D01*
X72319543Y-92745555D01*
X72309285Y-92487635D01*
X72315344Y-92410912D01*
X72330827Y-92359373D01*
X72353066Y-92325976D01*
X72384615Y-92300797D01*
X72420823Y-92285748D01*
X72463158Y-92280547D01*
X72519217Y-92289913D01*
X72573617Y-92319016D01*
X72618720Y-92364911D01*
X72654125Y-92431398D01*
X72676358Y-92517550D01*
X72694334Y-92675396D01*
X72710271Y-93025091D01*
X72912870Y-93022984D01*
X73138551Y-93025091D01*
G37*
G36*
X71711195Y-93025091D02*
G01*
X71685206Y-92784160D01*
X71665308Y-92509433D01*
X71652519Y-92232185D01*
X71646349Y-91975641D01*
X71431293Y-91977747D01*
X71229243Y-91975641D01*
X71239135Y-92109089D01*
X71186287Y-92054684D01*
X71124829Y-92010720D01*
X71046885Y-91975732D01*
X70956851Y-91954300D01*
X70854361Y-91946423D01*
X70780870Y-91950477D01*
X70709647Y-91962543D01*
X70642914Y-91982737D01*
X70591495Y-92008247D01*
X70547641Y-92041628D01*
X70511810Y-92082161D01*
X70484984Y-92128380D01*
X70469312Y-92177416D01*
X70458962Y-92282196D01*
X70467206Y-92449991D01*
X70484608Y-92819927D01*
X70489737Y-93025091D01*
X70686291Y-93022984D01*
X70911880Y-93025091D01*
X70892188Y-92745555D01*
X70881930Y-92487635D01*
X70887989Y-92410912D01*
X70903472Y-92359373D01*
X70925710Y-92325976D01*
X70957260Y-92300797D01*
X70993468Y-92285748D01*
X71035803Y-92280547D01*
X71091862Y-92289913D01*
X71146262Y-92319016D01*
X71191365Y-92364911D01*
X71226770Y-92431398D01*
X71249003Y-92517550D01*
X71266979Y-92675396D01*
X71282916Y-93025091D01*
X71485515Y-93022984D01*
X71711195Y-93025091D01*
G37*
G36*
X69813589Y-91953923D02*
G01*
X69922880Y-91976373D01*
X69992529Y-92001044D01*
X70056004Y-92034669D01*
X70114030Y-92077490D01*
X70164228Y-92128990D01*
X70209447Y-92194107D01*
X70249494Y-92275052D01*
X70278822Y-92360495D01*
X70296197Y-92446298D01*
X70301975Y-92533155D01*
X70295381Y-92625909D01*
X70275689Y-92715788D01*
X70242764Y-92799559D01*
X70198844Y-92869020D01*
X70142640Y-92927958D01*
X70073547Y-92977006D01*
X69993879Y-93013016D01*
X69895952Y-93037273D01*
X69790592Y-93049871D01*
X69670913Y-93054309D01*
X69506690Y-93046157D01*
X69304549Y-93012818D01*
X69251975Y-92713040D01*
X69378393Y-92748326D01*
X69470054Y-92768728D01*
X69554361Y-92780956D01*
X69623743Y-92784665D01*
X69697446Y-92778528D01*
X69760389Y-92761088D01*
X69814528Y-92733099D01*
X69857125Y-92693145D01*
X69883067Y-92640865D01*
X69892380Y-92572173D01*
X69891556Y-92545337D01*
X69173482Y-92544330D01*
X69162951Y-92471200D01*
X69159743Y-92410423D01*
X69164379Y-92354370D01*
X69549829Y-92354370D01*
X69550654Y-92380198D01*
X69882580Y-92380198D01*
X69869024Y-92322130D01*
X69846768Y-92276609D01*
X69808941Y-92235118D01*
X69758107Y-92207824D01*
X69699581Y-92198482D01*
X69657766Y-92202731D01*
X69621545Y-92214968D01*
X69591134Y-92236154D01*
X69568422Y-92267450D01*
X69554751Y-92305919D01*
X69549829Y-92354370D01*
X69164379Y-92354370D01*
X69167777Y-92313284D01*
X69191250Y-92224677D01*
X69232753Y-92143832D01*
X69296946Y-92069979D01*
X69349392Y-92029246D01*
X69409323Y-91997234D01*
X69477839Y-91973900D01*
X69586255Y-91953397D01*
X69701687Y-91946423D01*
X69813589Y-91953923D01*
G37*
G36*
X67878201Y-93025091D02*
G01*
X68075763Y-93022984D01*
X68272317Y-93025091D01*
X68273233Y-92890361D01*
X68330935Y-92954383D01*
X68387264Y-92995782D01*
X68455408Y-93026557D01*
X68541961Y-93046981D01*
X68641338Y-93054309D01*
X68721183Y-93049411D01*
X68795394Y-93035075D01*
X68864141Y-93009090D01*
X68923530Y-92970136D01*
X68970796Y-92920143D01*
X68999092Y-92865906D01*
X69013920Y-92804839D01*
X69019242Y-92730809D01*
X69016128Y-92673381D01*
X68999825Y-92441381D01*
X68986544Y-92158456D01*
X68982423Y-91975641D01*
X68763245Y-91977747D01*
X68561287Y-91975641D01*
X68593344Y-92368292D01*
X68601038Y-92489192D01*
X68601495Y-92532514D01*
X68595501Y-92605333D01*
X68580391Y-92652481D01*
X68558906Y-92681625D01*
X68512261Y-92710467D01*
X68456873Y-92720184D01*
X68408513Y-92712949D01*
X68362168Y-92692341D01*
X68326905Y-92661566D01*
X68296680Y-92614030D01*
X68272226Y-92540391D01*
X68254915Y-92400532D01*
X68243649Y-92192162D01*
X68235314Y-91975732D01*
X68015221Y-91977747D01*
X67820407Y-91975641D01*
X67857684Y-92472431D01*
X67878201Y-93025091D01*
G37*
G36*
X67652795Y-93025091D02*
G01*
X67620830Y-92568143D01*
X67610572Y-92307658D01*
X67609564Y-92163677D01*
X67611671Y-91975641D01*
X67411911Y-91977747D01*
X67213158Y-91975641D01*
X67217096Y-92083718D01*
X67156646Y-92022444D01*
X67097662Y-91982144D01*
X67028419Y-91955216D01*
X66952856Y-91946423D01*
X66914541Y-91949292D01*
X66867951Y-91958788D01*
X66862822Y-92140963D01*
X66855495Y-92299232D01*
X66914384Y-92284916D01*
X66964122Y-92280547D01*
X67022475Y-92285324D01*
X67069085Y-92298499D01*
X67110317Y-92320813D01*
X67146938Y-92352629D01*
X67176900Y-92392561D01*
X67201160Y-92443396D01*
X67217128Y-92506053D01*
X67229736Y-92616595D01*
X67237888Y-92888529D01*
X67233583Y-93025091D01*
X67436549Y-93022984D01*
X67652795Y-93025091D01*
G37*
G36*
X66758317Y-93006864D02*
G01*
X66766743Y-92910144D01*
X66780024Y-92773582D01*
X66788725Y-92695180D01*
X66613511Y-92754256D01*
X66543158Y-92768516D01*
X66481987Y-92772941D01*
X66434680Y-92770427D01*
X66401570Y-92763965D01*
X66373996Y-92752343D01*
X66357240Y-92738319D01*
X66346747Y-92720993D01*
X66343501Y-92704248D01*
X66353851Y-92673473D01*
X66401753Y-92630608D01*
X66549947Y-92518501D01*
X66609178Y-92468099D01*
X66646759Y-92428742D01*
X66675568Y-92387558D01*
X66696401Y-92343745D01*
X66709177Y-92297268D01*
X66713437Y-92249223D01*
X66708005Y-92193210D01*
X66691777Y-92139914D01*
X66664253Y-92088389D01*
X66627042Y-92043823D01*
X66579395Y-92007800D01*
X66519539Y-91980037D01*
X66418260Y-91955498D01*
X66287356Y-91946423D01*
X66135021Y-91954294D01*
X65920808Y-91981960D01*
X65903955Y-92276059D01*
X66031055Y-92239321D01*
X66145939Y-92227791D01*
X66220445Y-92232632D01*
X66261527Y-92243911D01*
X66288347Y-92264703D01*
X66296698Y-92292363D01*
X66292851Y-92312879D01*
X66278471Y-92333579D01*
X66252276Y-92356293D01*
X66174973Y-92411156D01*
X66078528Y-92482139D01*
X66025352Y-92528130D01*
X65990417Y-92566403D01*
X65963395Y-92606817D01*
X65943889Y-92649385D01*
X65931838Y-92694407D01*
X65927769Y-92742258D01*
X65936794Y-92813261D01*
X65963581Y-92877721D01*
X66007317Y-92933400D01*
X66071109Y-92980853D01*
X66145502Y-93015824D01*
X66226173Y-93038280D01*
X66310373Y-93050261D01*
X66397998Y-93054309D01*
X66547383Y-93043867D01*
X66758317Y-93006864D01*
G37*
G36*
X64826570Y-93025000D02*
G01*
X64865038Y-92897780D01*
X65115081Y-92176317D01*
X65313285Y-91618069D01*
X65061043Y-91620176D01*
X64849742Y-91618161D01*
X64812281Y-91758661D01*
X64742672Y-91981136D01*
X64592005Y-92466202D01*
X64538974Y-92655704D01*
X64495010Y-92545887D01*
X64137438Y-91762417D01*
X64116464Y-91713324D01*
X64078362Y-91618161D01*
X63837661Y-91620176D01*
X63609324Y-91618069D01*
X63848285Y-92078039D01*
X64201827Y-92780085D01*
X64317323Y-93025000D01*
X64565169Y-93022984D01*
X64826570Y-93025000D01*
G37*
G36*
X63207423Y-93025091D02*
G01*
X63173442Y-92507785D01*
X63149904Y-92005133D01*
X63219055Y-92048639D01*
X63379797Y-92160471D01*
X63368073Y-91951003D01*
X63362944Y-91777621D01*
X63243235Y-91705539D01*
X63162360Y-91653423D01*
X63117114Y-91618161D01*
X62905997Y-91620176D01*
X62672256Y-91618069D01*
X62693047Y-91850161D01*
X62737103Y-92609634D01*
X62747361Y-92888712D01*
X62747361Y-93025091D01*
X62962417Y-93022984D01*
X63207423Y-93025091D01*
G37*
G36*
X84621506Y-95545091D02*
G01*
X84595494Y-95334432D01*
X84531930Y-94615075D01*
X84499965Y-94138161D01*
X84201103Y-94140176D01*
X83925963Y-94138161D01*
X83903157Y-94274448D01*
X83857545Y-94452959D01*
X83799201Y-94682853D01*
X83735362Y-95002597D01*
X83656777Y-94737533D01*
X83564453Y-94473659D01*
X83494386Y-94280310D01*
X83453262Y-94138161D01*
X83149821Y-94140176D01*
X82867995Y-94138161D01*
X82893824Y-94735426D01*
X82907104Y-95404499D01*
X82904998Y-95545000D01*
X83097614Y-95542984D01*
X83294443Y-95545091D01*
X83273652Y-95102157D01*
X83261379Y-94658398D01*
X83260463Y-94541345D01*
X83391987Y-94960007D01*
X83585245Y-95545000D01*
X83770717Y-95542984D01*
X83967821Y-95545000D01*
X84094308Y-94978234D01*
X84168039Y-94677540D01*
X84177289Y-94634401D01*
X84190845Y-94543451D01*
X84213559Y-94827933D01*
X84247356Y-95410819D01*
X84250562Y-95545000D01*
X84433744Y-95542984D01*
X84621506Y-95545091D01*
G37*
G36*
X82198813Y-94477445D02*
G01*
X82327608Y-94510295D01*
X82409124Y-94544501D01*
X82479600Y-94586324D01*
X82540282Y-94635683D01*
X82593151Y-94693236D01*
X82634760Y-94754352D01*
X82665945Y-94819507D01*
X82695628Y-94923956D01*
X82705604Y-95034196D01*
X82695383Y-95144486D01*
X82664938Y-95249069D01*
X82633196Y-95314199D01*
X82592790Y-95372501D01*
X82543305Y-95424649D01*
X82486349Y-95468681D01*
X82419682Y-95505897D01*
X82341987Y-95536115D01*
X82219504Y-95564684D01*
X82090936Y-95574309D01*
X81951856Y-95563334D01*
X81821933Y-95530986D01*
X81740605Y-95496420D01*
X81671236Y-95452891D01*
X81612373Y-95400377D01*
X81561724Y-95339409D01*
X81523092Y-95277245D01*
X81495411Y-95213440D01*
X81469609Y-95111686D01*
X81460881Y-95003422D01*
X81461450Y-94997010D01*
X81877621Y-94997010D01*
X81884210Y-95071871D01*
X81903541Y-95140533D01*
X81936330Y-95200149D01*
X81979928Y-95241375D01*
X82033358Y-95266767D01*
X82093959Y-95275355D01*
X82147263Y-95268609D01*
X82193116Y-95249005D01*
X82233360Y-95216004D01*
X82262931Y-95173108D01*
X82281915Y-95117198D01*
X82288865Y-95044454D01*
X82282254Y-94969868D01*
X82263036Y-94902946D01*
X82230296Y-94845149D01*
X82186649Y-94804760D01*
X82133023Y-94779753D01*
X82071427Y-94771238D01*
X82013044Y-94779054D01*
X81963991Y-94801646D01*
X81924490Y-94837192D01*
X81897862Y-94882888D01*
X81882866Y-94935804D01*
X81877621Y-94997010D01*
X81461450Y-94997010D01*
X81470708Y-94892683D01*
X81499533Y-94791205D01*
X81529910Y-94728446D01*
X81569726Y-94671144D01*
X81619609Y-94618739D01*
X81676792Y-94574088D01*
X81742853Y-94536349D01*
X81818911Y-94505624D01*
X81938809Y-94476285D01*
X82064283Y-94466423D01*
X82198813Y-94477445D01*
G37*
G36*
X80513005Y-94483551D02*
G01*
X80620961Y-94470400D01*
X80709010Y-94466423D01*
X80834691Y-94474515D01*
X80948246Y-94497930D01*
X81019463Y-94523863D01*
X81085498Y-94559681D01*
X81146999Y-94605825D01*
X81200310Y-94660999D01*
X81247940Y-94730121D01*
X81289698Y-94815385D01*
X81320135Y-94905381D01*
X81338187Y-94995879D01*
X81344194Y-95087594D01*
X81336694Y-95184243D01*
X81314336Y-95277096D01*
X81276319Y-95362952D01*
X81223569Y-95435273D01*
X81156664Y-95494117D01*
X81076565Y-95538130D01*
X80987833Y-95565139D01*
X80891460Y-95574309D01*
X80834315Y-95571165D01*
X80779535Y-95561852D01*
X80726825Y-95546765D01*
X80678510Y-95526773D01*
X80601757Y-95479695D01*
X80537094Y-95421535D01*
X80543047Y-95545091D01*
X80341089Y-95542984D01*
X80155800Y-95545091D01*
X80151071Y-95297111D01*
X80133269Y-94885361D01*
X80125280Y-94753103D01*
X80527568Y-94753103D01*
X80542315Y-94998109D01*
X80558184Y-95079498D01*
X80581974Y-95144747D01*
X80616042Y-95199965D01*
X80656803Y-95237895D01*
X80705119Y-95261601D01*
X80758195Y-95269494D01*
X80808378Y-95262597D01*
X80853449Y-95242108D01*
X80890639Y-95209738D01*
X80916922Y-95167278D01*
X80932270Y-95117761D01*
X80937622Y-95060483D01*
X80928633Y-94982153D01*
X80900527Y-94900107D01*
X80871470Y-94849493D01*
X80836261Y-94810059D01*
X80794556Y-94780306D01*
X80720612Y-94752076D01*
X80627036Y-94741929D01*
X80527568Y-94753103D01*
X80125280Y-94753103D01*
X80107754Y-94462940D01*
X80080787Y-94138069D01*
X80293004Y-94140176D01*
X80501923Y-94138069D01*
X80513005Y-94483551D01*
G37*
G36*
X79470952Y-94473923D02*
G01*
X79580242Y-94496373D01*
X79649891Y-94521044D01*
X79713366Y-94554669D01*
X79771393Y-94597490D01*
X79821590Y-94648990D01*
X79866810Y-94714107D01*
X79906856Y-94795052D01*
X79936184Y-94880495D01*
X79953560Y-94966298D01*
X79959337Y-95053155D01*
X79952743Y-95145909D01*
X79933051Y-95235788D01*
X79900126Y-95319559D01*
X79856206Y-95389020D01*
X79800002Y-95447958D01*
X79730909Y-95497006D01*
X79651241Y-95533016D01*
X79553314Y-95557273D01*
X79447954Y-95569871D01*
X79328275Y-95574309D01*
X79164052Y-95566157D01*
X78961911Y-95532818D01*
X78909337Y-95233040D01*
X79035755Y-95268326D01*
X79127416Y-95288728D01*
X79211723Y-95300956D01*
X79281106Y-95304665D01*
X79354808Y-95298528D01*
X79417751Y-95281088D01*
X79471890Y-95253099D01*
X79514487Y-95213145D01*
X79540430Y-95160865D01*
X79549742Y-95092173D01*
X79548918Y-95065337D01*
X78830844Y-95064330D01*
X78820314Y-94991200D01*
X78817105Y-94930423D01*
X78821741Y-94874370D01*
X79207192Y-94874370D01*
X79208016Y-94900198D01*
X79539942Y-94900198D01*
X79526386Y-94842130D01*
X79504130Y-94796609D01*
X79466303Y-94755118D01*
X79415470Y-94727824D01*
X79356943Y-94718482D01*
X79315129Y-94722731D01*
X79278907Y-94734968D01*
X79248496Y-94756154D01*
X79225785Y-94787450D01*
X79212114Y-94825919D01*
X79207192Y-94874370D01*
X78821741Y-94874370D01*
X78825139Y-94833284D01*
X78848613Y-94744677D01*
X78890116Y-94663832D01*
X78954309Y-94589979D01*
X79006755Y-94549246D01*
X79066685Y-94517234D01*
X79135201Y-94493900D01*
X79243617Y-94473397D01*
X79359050Y-94466423D01*
X79470952Y-94473923D01*
G37*
G36*
X78690252Y-95545000D02*
G01*
X78671567Y-95321059D01*
X78631542Y-94553893D01*
X78620184Y-94138161D01*
X78403205Y-94140176D01*
X78194011Y-94138069D01*
X78217825Y-94456348D01*
X78255744Y-95232216D01*
X78264078Y-95545000D01*
X78464663Y-95543992D01*
X78690252Y-95545000D01*
G37*
G36*
X77579047Y-94473923D02*
G01*
X77688337Y-94496373D01*
X77757986Y-94521044D01*
X77821461Y-94554669D01*
X77879487Y-94597490D01*
X77929685Y-94648990D01*
X77974904Y-94714107D01*
X78014951Y-94795052D01*
X78044279Y-94880495D01*
X78061655Y-94966298D01*
X78067432Y-95053155D01*
X78060838Y-95145909D01*
X78041146Y-95235788D01*
X78008221Y-95319559D01*
X77964301Y-95389020D01*
X77908097Y-95447958D01*
X77839004Y-95497006D01*
X77759336Y-95533016D01*
X77661409Y-95557273D01*
X77556049Y-95569871D01*
X77436370Y-95574309D01*
X77272147Y-95566157D01*
X77070006Y-95532818D01*
X77017432Y-95233040D01*
X77143850Y-95268326D01*
X77235511Y-95288728D01*
X77319818Y-95300956D01*
X77389200Y-95304665D01*
X77462903Y-95298528D01*
X77525846Y-95281088D01*
X77579985Y-95253099D01*
X77622582Y-95213145D01*
X77648524Y-95160865D01*
X77657837Y-95092173D01*
X77657013Y-95065337D01*
X76938939Y-95064330D01*
X76928409Y-94991200D01*
X76925200Y-94930423D01*
X76929836Y-94874370D01*
X77315286Y-94874370D01*
X77316111Y-94900198D01*
X77648037Y-94900198D01*
X77634481Y-94842130D01*
X77612225Y-94796609D01*
X77574398Y-94755118D01*
X77523565Y-94727824D01*
X77465038Y-94718482D01*
X77423223Y-94722731D01*
X77387002Y-94734968D01*
X77356591Y-94756154D01*
X77333879Y-94787450D01*
X77320209Y-94825919D01*
X77315286Y-94874370D01*
X76929836Y-94874370D01*
X76933234Y-94833284D01*
X76956707Y-94744677D01*
X76998211Y-94663832D01*
X77062404Y-94589979D01*
X77114849Y-94549246D01*
X77174780Y-94517234D01*
X77243296Y-94493900D01*
X77351712Y-94473397D01*
X77467144Y-94466423D01*
X77579047Y-94473923D01*
G37*
G36*
X75916599Y-95215180D02*
G01*
X75941695Y-95371709D01*
X75968715Y-95538680D01*
X76131205Y-95565579D01*
X76285894Y-95574309D01*
X76394191Y-95568256D01*
X76482357Y-95551594D01*
X76577103Y-95514472D01*
X76661784Y-95456523D01*
X76711613Y-95406272D01*
X76750940Y-95350967D01*
X76780486Y-95290010D01*
X76804627Y-95213840D01*
X76819564Y-95130302D01*
X76824725Y-95038318D01*
X76813884Y-94912580D01*
X76781494Y-94791846D01*
X76747327Y-94716050D01*
X76704737Y-94651234D01*
X76653633Y-94596116D01*
X76594367Y-94549833D01*
X76532093Y-94515679D01*
X76466146Y-94492801D01*
X76360024Y-94473282D01*
X76238725Y-94466423D01*
X76091905Y-94474117D01*
X76013696Y-94485536D01*
X75907074Y-94508005D01*
X75904876Y-94533651D01*
X75900204Y-94608847D01*
X75893518Y-94729931D01*
X75887107Y-94825368D01*
X75988864Y-94793797D01*
X76075623Y-94776543D01*
X76149607Y-94771238D01*
X76226311Y-94779399D01*
X76290108Y-94802562D01*
X76342634Y-94840986D01*
X76379134Y-94892871D01*
X76400448Y-94955186D01*
X76407985Y-95030258D01*
X76401054Y-95105649D01*
X76382248Y-95162973D01*
X76349018Y-95209264D01*
X76299816Y-95242841D01*
X76241005Y-95262694D01*
X76175252Y-95269494D01*
X76093095Y-95262349D01*
X76010480Y-95246321D01*
X75916599Y-95215180D01*
G37*
G36*
X75194129Y-95545000D02*
G01*
X75147310Y-94765969D01*
X75134595Y-94273532D01*
X75135602Y-94138161D01*
X74892886Y-94140176D01*
X74669404Y-94138161D01*
X74699354Y-94578531D01*
X74719870Y-95115712D01*
X74726007Y-95545000D01*
X74938956Y-95542984D01*
X75194129Y-95545000D01*
G37*
G36*
X74493549Y-95526956D02*
G01*
X74509145Y-95315908D01*
X74525148Y-95167919D01*
X74408450Y-95215886D01*
X74316503Y-95243207D01*
X74229441Y-95258937D01*
X74159883Y-95263632D01*
X74076714Y-95256354D01*
X74019748Y-95237528D01*
X73990191Y-95216564D01*
X73973674Y-95191549D01*
X73968091Y-95161050D01*
X73973128Y-95128627D01*
X73992179Y-95093456D01*
X74032663Y-95050408D01*
X74225370Y-94882155D01*
X74319709Y-94798990D01*
X74370079Y-94746087D01*
X74404706Y-94700988D01*
X74431307Y-94654538D01*
X74449127Y-94608481D01*
X74459509Y-94560340D01*
X74463049Y-94508555D01*
X74457535Y-94446262D01*
X74440884Y-94384999D01*
X74413357Y-94326864D01*
X74374206Y-94271700D01*
X74323917Y-94223613D01*
X74256603Y-94180751D01*
X74181029Y-94148644D01*
X74100074Y-94128635D01*
X74015932Y-94118232D01*
X73928340Y-94114713D01*
X73751434Y-94124589D01*
X73548421Y-94156296D01*
X73541185Y-94289561D01*
X73521218Y-94503243D01*
X73617955Y-94467375D01*
X73697348Y-94446639D01*
X73772565Y-94434758D01*
X73830979Y-94431252D01*
X73905777Y-94438971D01*
X73961863Y-94459920D01*
X73992277Y-94482096D01*
X74008380Y-94505140D01*
X74013520Y-94530079D01*
X74005552Y-94569097D01*
X73975235Y-94613976D01*
X73916159Y-94671038D01*
X73800388Y-94763728D01*
X73726657Y-94822254D01*
X73655765Y-94887101D01*
X73589911Y-94962389D01*
X73547138Y-95030532D01*
X73524882Y-95093181D01*
X73517554Y-95161050D01*
X73528596Y-95251654D01*
X73561976Y-95338370D01*
X73595574Y-95391094D01*
X73637297Y-95437078D01*
X73687822Y-95476856D01*
X73773086Y-95522845D01*
X73866608Y-95552693D01*
X73965466Y-95568797D01*
X74071772Y-95574309D01*
X74248243Y-95563797D01*
X74493549Y-95526956D01*
G37*
G36*
X73322099Y-95545000D02*
G01*
X73284455Y-95098493D01*
X73260916Y-94623868D01*
X73249101Y-94231400D01*
X73250109Y-94138161D01*
X72662094Y-94140176D01*
X72100549Y-94138161D01*
X72102747Y-94175163D01*
X72107876Y-94264373D01*
X72114013Y-94376297D01*
X72116120Y-94451952D01*
X72451068Y-94443709D01*
X72650370Y-94444258D01*
X72809006Y-94448746D01*
X72820913Y-94677540D01*
X72542201Y-94680471D01*
X72233631Y-94671495D01*
X72253598Y-94988126D01*
X72528920Y-94986111D01*
X72842711Y-94993896D01*
X72854710Y-95234323D01*
X72739946Y-95234323D01*
X72523883Y-95231025D01*
X72311758Y-95225530D01*
X72150649Y-95216554D01*
X72171624Y-95545000D01*
X72722544Y-95542893D01*
X73173355Y-95543900D01*
X73322099Y-95545000D01*
G37*
G36*
X71936693Y-95545000D02*
G01*
X71915901Y-95326372D01*
X71875968Y-94595658D01*
X71864702Y-94301101D01*
X71864702Y-94138161D01*
X71581045Y-94140176D01*
X71334390Y-94138161D01*
X70894936Y-94937934D01*
X70839248Y-95045828D01*
X70816992Y-94571936D01*
X70805177Y-94138069D01*
X70600379Y-94140176D01*
X70396314Y-94138161D01*
X70421135Y-94447097D01*
X70467297Y-95296879D01*
X70473525Y-95545000D01*
X70725401Y-95542984D01*
X70993579Y-95545000D01*
X71073264Y-95397446D01*
X71245455Y-95104263D01*
X71402167Y-94828574D01*
X71494491Y-94655375D01*
X71515557Y-95131741D01*
X71525907Y-95545000D01*
X71722370Y-95542984D01*
X71936693Y-95545000D01*
G37*
G36*
X69713319Y-95545000D02*
G01*
X69706359Y-95413200D01*
X69699581Y-95247970D01*
X69503026Y-95078435D01*
X69363610Y-94946516D01*
X69246938Y-94828941D01*
X69162497Y-94736870D01*
X69097553Y-94658398D01*
X69067171Y-94613650D01*
X69051849Y-94582377D01*
X69043880Y-94539330D01*
X69047225Y-94511979D01*
X69056795Y-94489229D01*
X69072872Y-94470039D01*
X69097827Y-94452868D01*
X69166612Y-94428688D01*
X69259211Y-94419528D01*
X69331570Y-94422464D01*
X69409970Y-94431618D01*
X69630796Y-94479154D01*
X69603227Y-94330410D01*
X69576391Y-94161974D01*
X69394463Y-94135147D01*
X69225552Y-94119687D01*
X69068702Y-94114713D01*
X68962219Y-94119674D01*
X68862072Y-94134222D01*
X68767282Y-94160863D01*
X68684843Y-94200351D01*
X68614637Y-94252454D01*
X68567149Y-94309436D01*
X68537561Y-94374454D01*
X68527765Y-94444075D01*
X68539122Y-94537681D01*
X68554321Y-94583105D01*
X68581437Y-94641362D01*
X68624506Y-94713679D01*
X68677974Y-94786625D01*
X68767784Y-94893377D01*
X68874895Y-95008184D01*
X69125580Y-95246138D01*
X69020433Y-95247054D01*
X68862164Y-95245314D01*
X68697758Y-95241925D01*
X68580796Y-95234048D01*
X68590779Y-95361085D01*
X68604793Y-95545000D01*
X69141425Y-95542984D01*
X69713319Y-95545000D01*
G37*
G36*
X67791918Y-94120344D02*
G01*
X67879508Y-94137030D01*
X67963838Y-94164722D01*
X68042506Y-94204265D01*
X68111153Y-94255418D01*
X68170834Y-94318870D01*
X68219714Y-94391586D01*
X68262642Y-94480333D01*
X68298970Y-94587690D01*
X68333252Y-94753891D01*
X68344674Y-94923005D01*
X68336267Y-95061200D01*
X68311793Y-95188069D01*
X68283995Y-95267885D01*
X68245601Y-95339188D01*
X68196388Y-95403033D01*
X68137760Y-95458463D01*
X68074074Y-95501875D01*
X68004688Y-95534100D01*
X67892646Y-95564091D01*
X67771039Y-95574309D01*
X67674718Y-95568137D01*
X67583389Y-95549906D01*
X67496174Y-95519720D01*
X67414568Y-95477442D01*
X67345908Y-95426134D01*
X67288721Y-95365573D01*
X67242088Y-95295991D01*
X67200361Y-95209267D01*
X67164248Y-95102431D01*
X67129847Y-94937631D01*
X67118453Y-94772154D01*
X67118952Y-94764277D01*
X67532170Y-94764277D01*
X67543435Y-94931065D01*
X67558049Y-95011770D01*
X67579156Y-95088235D01*
X67607109Y-95157906D01*
X67635484Y-95203273D01*
X67668484Y-95238116D01*
X67696026Y-95256304D01*
X67725135Y-95266234D01*
X67754644Y-95269494D01*
X67805222Y-95259925D01*
X67849624Y-95230842D01*
X67884255Y-95185975D01*
X67910807Y-95120933D01*
X67925454Y-95044706D01*
X67931049Y-94940224D01*
X67926246Y-94817983D01*
X67912639Y-94710971D01*
X67891677Y-94619542D01*
X67863729Y-94542993D01*
X67831940Y-94488199D01*
X67791830Y-94447830D01*
X67752211Y-94426617D01*
X67707567Y-94419528D01*
X67658834Y-94428501D01*
X67616933Y-94455498D01*
X67579797Y-94504342D01*
X67555547Y-94563225D01*
X67538655Y-94647330D01*
X67532170Y-94764277D01*
X67118952Y-94764277D01*
X67127350Y-94631753D01*
X67152699Y-94509230D01*
X67193100Y-94401943D01*
X67235780Y-94326581D01*
X67284585Y-94265521D01*
X67339570Y-94216970D01*
X67401286Y-94179743D01*
X67492279Y-94144082D01*
X67591458Y-94122229D01*
X67700331Y-94114713D01*
X67791918Y-94120344D01*
G37*
G36*
X66978777Y-95545000D02*
G01*
X66971816Y-95413200D01*
X66965038Y-95247970D01*
X66768483Y-95078435D01*
X66629067Y-94946516D01*
X66512395Y-94828941D01*
X66427954Y-94736870D01*
X66363010Y-94658398D01*
X66332629Y-94613650D01*
X66317306Y-94582377D01*
X66309337Y-94539330D01*
X66312682Y-94511979D01*
X66322252Y-94489229D01*
X66338329Y-94470039D01*
X66363285Y-94452868D01*
X66432069Y-94428688D01*
X66524668Y-94419528D01*
X66597027Y-94422464D01*
X66675427Y-94431618D01*
X66896253Y-94479154D01*
X66868684Y-94330410D01*
X66841848Y-94161974D01*
X66659920Y-94135147D01*
X66491009Y-94119687D01*
X66334159Y-94114713D01*
X66227676Y-94119674D01*
X66127529Y-94134222D01*
X66032740Y-94160863D01*
X65950300Y-94200351D01*
X65880094Y-94252454D01*
X65832606Y-94309436D01*
X65803018Y-94374454D01*
X65793222Y-94444075D01*
X65804579Y-94537681D01*
X65819778Y-94583105D01*
X65846894Y-94641362D01*
X65889964Y-94713679D01*
X65943431Y-94786625D01*
X66033241Y-94893377D01*
X66140352Y-95008184D01*
X66391037Y-95246138D01*
X66285890Y-95247054D01*
X66127621Y-95245314D01*
X65963215Y-95241925D01*
X65846253Y-95234048D01*
X65856236Y-95361085D01*
X65870250Y-95545000D01*
X66406882Y-95542984D01*
X66978777Y-95545000D01*
G37*
G36*
X65526967Y-95526864D02*
G01*
X65534294Y-95422909D01*
X65540980Y-95333333D01*
X65555268Y-95198144D01*
X65409240Y-95233462D01*
X65292564Y-95252200D01*
X65200444Y-95257770D01*
X65128255Y-95251614D01*
X65063790Y-95233773D01*
X65007495Y-95203973D01*
X64968169Y-95166179D01*
X64943110Y-95120209D01*
X64934922Y-95070924D01*
X64942535Y-95024630D01*
X64964620Y-94987321D01*
X65002974Y-94956710D01*
X65050358Y-94937018D01*
X65119657Y-94923153D01*
X65217847Y-94917784D01*
X65346257Y-94922363D01*
X65520280Y-94941689D01*
X65467707Y-94277013D01*
X65461479Y-94138161D01*
X64963773Y-94140176D01*
X64458465Y-94138161D01*
X64470006Y-94308245D01*
X64475226Y-94448929D01*
X64614445Y-94444624D01*
X64677826Y-94443800D01*
X64777202Y-94443800D01*
X64935013Y-94442976D01*
X65036863Y-94442976D01*
X65056830Y-94677174D01*
X64953423Y-94671587D01*
X64847456Y-94677668D01*
X64753664Y-94695071D01*
X64670407Y-94722878D01*
X64593417Y-94763247D01*
X64534547Y-94811080D01*
X64490980Y-94866493D01*
X64459595Y-94930175D01*
X64440600Y-94999249D01*
X64434102Y-95075046D01*
X64440443Y-95148948D01*
X64459509Y-95221016D01*
X64491896Y-95292208D01*
X64535309Y-95357153D01*
X64587799Y-95412134D01*
X64650074Y-95457988D01*
X64756503Y-95510249D01*
X64882623Y-95546923D01*
X65015886Y-95567418D01*
X65153275Y-95574309D01*
X65277564Y-95567622D01*
X65398647Y-95552785D01*
X65526967Y-95526864D01*
G37*
D11*
%TO.C,G\u002A\u002A\u002A*%
G36*
X174374792Y-41810738D02*
G01*
X174374792Y-42507567D01*
X172104385Y-42507567D01*
X169833978Y-42507567D01*
X169833978Y-41810738D01*
X169833978Y-41450900D01*
X170176681Y-41450900D01*
X170176681Y-41807882D01*
X170176681Y-42164864D01*
X172107241Y-42164864D01*
X174037801Y-42164864D01*
X174037801Y-41807882D01*
X174037801Y-41450900D01*
X172107241Y-41450900D01*
X170176681Y-41450900D01*
X169833978Y-41450900D01*
X169833978Y-41113908D01*
X172104385Y-41113908D01*
X174374792Y-41113908D01*
X174374792Y-41450900D01*
X174374792Y-41810738D01*
G37*
G36*
X174374792Y-48059355D02*
G01*
X172041556Y-48059355D01*
X169708320Y-48059355D01*
X169708320Y-47362525D01*
X169708320Y-47002687D01*
X170051023Y-47002687D01*
X170051023Y-47359670D01*
X170051023Y-47716652D01*
X172044419Y-47716652D01*
X174037814Y-47716652D01*
X174036380Y-45356285D01*
X174034945Y-42995919D01*
X173546593Y-42995919D01*
X173058241Y-42995919D01*
X173056805Y-44999303D01*
X173055369Y-47002687D01*
X171553196Y-47002687D01*
X170051023Y-47002687D01*
X169708320Y-47002687D01*
X169708320Y-46665696D01*
X171210501Y-46665696D01*
X172712683Y-46665696D01*
X172712683Y-44660884D01*
X172712683Y-42656072D01*
X173543737Y-42656072D01*
X174374792Y-42656072D01*
X174374792Y-45357713D01*
X174374792Y-47716652D01*
X174374792Y-48059355D01*
G37*
G36*
X181325950Y-46385822D02*
G01*
X180534877Y-46385822D01*
X179743805Y-46385822D01*
X179743805Y-44679779D01*
X179743805Y-43061221D01*
X180086486Y-43061221D01*
X180087925Y-44550742D01*
X180089364Y-46040263D01*
X180533449Y-46041726D01*
X180977535Y-46043189D01*
X180977535Y-43694687D01*
X180977534Y-43602537D01*
X180977522Y-43441021D01*
X180977499Y-43282642D01*
X180977467Y-43127778D01*
X180977424Y-42976805D01*
X180977371Y-42830101D01*
X180977310Y-42688041D01*
X180977239Y-42551002D01*
X180977160Y-42419361D01*
X180977073Y-42293494D01*
X180976979Y-42173778D01*
X180976877Y-42060590D01*
X180976768Y-41954306D01*
X180976652Y-41855302D01*
X180976530Y-41763956D01*
X180976402Y-41680644D01*
X180976269Y-41605743D01*
X180976130Y-41539629D01*
X180975987Y-41482678D01*
X180975840Y-41435268D01*
X180975688Y-41397776D01*
X180975533Y-41370576D01*
X180975375Y-41354047D01*
X180975214Y-41348565D01*
X180973760Y-41351086D01*
X180968863Y-41360212D01*
X180960434Y-41376182D01*
X180948364Y-41399203D01*
X180932547Y-41429479D01*
X180912875Y-41467219D01*
X180889242Y-41512628D01*
X180861540Y-41565912D01*
X180829662Y-41627279D01*
X180793500Y-41696935D01*
X180752948Y-41775086D01*
X180707898Y-41861938D01*
X180658244Y-41957698D01*
X180603877Y-42062573D01*
X180544691Y-42176768D01*
X180480579Y-42300491D01*
X180411433Y-42433948D01*
X180337146Y-42577344D01*
X180086486Y-43061221D01*
X179743805Y-43061221D01*
X179743805Y-42973737D01*
X180181851Y-42128070D01*
X180194112Y-42104401D01*
X180245687Y-42004836D01*
X180297995Y-41903856D01*
X180350576Y-41802352D01*
X180402969Y-41701212D01*
X180454714Y-41601325D01*
X180505350Y-41503580D01*
X180554416Y-41408867D01*
X180601452Y-41318075D01*
X180645998Y-41232091D01*
X180687592Y-41151806D01*
X180725775Y-41078109D01*
X180760086Y-41011888D01*
X180790063Y-40954032D01*
X180815247Y-40905431D01*
X181010597Y-40528458D01*
X181168273Y-40526939D01*
X181325950Y-40525421D01*
X181325950Y-43455622D01*
X181325950Y-46043189D01*
X181325950Y-46385822D01*
G37*
G36*
X180911283Y-40457367D02*
G01*
X180884985Y-40507794D01*
X180846483Y-40581621D01*
X180803256Y-40664512D01*
X180755615Y-40755867D01*
X180703874Y-40855084D01*
X180648346Y-40961563D01*
X180589344Y-41074703D01*
X180527183Y-41193903D01*
X180462175Y-41318563D01*
X180394634Y-41448081D01*
X180324872Y-41581857D01*
X180253203Y-41719290D01*
X180179941Y-41859780D01*
X180105399Y-42002724D01*
X180029889Y-42147524D01*
X179953726Y-42293577D01*
X179877223Y-42440283D01*
X179800693Y-42587041D01*
X179724449Y-42733251D01*
X179648804Y-42878311D01*
X179574073Y-43021621D01*
X179520571Y-43124218D01*
X179451178Y-43257284D01*
X179383120Y-43387782D01*
X179316596Y-43515333D01*
X179251802Y-43639561D01*
X179188936Y-43760087D01*
X179128195Y-43876532D01*
X179069777Y-43988520D01*
X179013878Y-44095670D01*
X178960695Y-44197607D01*
X178910427Y-44293950D01*
X178863271Y-44384324D01*
X178819423Y-44468348D01*
X178779081Y-44545646D01*
X178742442Y-44615839D01*
X178709703Y-44678550D01*
X178681063Y-44733399D01*
X178656717Y-44780010D01*
X178636864Y-44818003D01*
X178621700Y-44847002D01*
X178611423Y-44866627D01*
X178606230Y-44876501D01*
X178572136Y-44940758D01*
X177755744Y-44940758D01*
X176939352Y-44940758D01*
X176939352Y-44812549D01*
X176939352Y-44684341D01*
X176987484Y-44591981D01*
X177379154Y-44591981D01*
X177381116Y-44592704D01*
X177392939Y-44593830D01*
X177414586Y-44594834D01*
X177445051Y-44595717D01*
X177483329Y-44596479D01*
X177528415Y-44597123D01*
X177579303Y-44597649D01*
X177634989Y-44598057D01*
X177694467Y-44598351D01*
X177756732Y-44598529D01*
X177820778Y-44598594D01*
X177885602Y-44598547D01*
X177950197Y-44598388D01*
X178013558Y-44598119D01*
X178074680Y-44597741D01*
X178132558Y-44597254D01*
X178186187Y-44596661D01*
X178234561Y-44595962D01*
X178276675Y-44595158D01*
X178311525Y-44594250D01*
X178338104Y-44593240D01*
X178355409Y-44592128D01*
X178362432Y-44590915D01*
X178362819Y-44590437D01*
X178367621Y-44582319D01*
X178377324Y-44564757D01*
X178391634Y-44538311D01*
X178410253Y-44503540D01*
X178432888Y-44461007D01*
X178459242Y-44411269D01*
X178489020Y-44354889D01*
X178521926Y-44292425D01*
X178557665Y-44224438D01*
X178595942Y-44151488D01*
X178636459Y-44074135D01*
X178678924Y-43992940D01*
X178723038Y-43908462D01*
X178768508Y-43821262D01*
X178796165Y-43768187D01*
X178835799Y-43692139D01*
X178880112Y-43607124D01*
X178928762Y-43513795D01*
X178981412Y-43412803D01*
X179037721Y-43304796D01*
X179097350Y-43190428D01*
X179159961Y-43070348D01*
X179225213Y-42945207D01*
X179292767Y-42815656D01*
X179362284Y-42682346D01*
X179433425Y-42545927D01*
X179505850Y-42407050D01*
X179579219Y-42266366D01*
X179653194Y-42124526D01*
X179727436Y-41982181D01*
X179801604Y-41839981D01*
X179875359Y-41698577D01*
X179948363Y-41558620D01*
X180020275Y-41420761D01*
X180080064Y-41306139D01*
X180145706Y-41180279D01*
X180209802Y-41057369D01*
X180272154Y-40937787D01*
X180332565Y-40821910D01*
X180390840Y-40710116D01*
X180446780Y-40602783D01*
X180500191Y-40500289D01*
X180550873Y-40403011D01*
X180598632Y-40311328D01*
X180643270Y-40225616D01*
X180684590Y-40146255D01*
X180722397Y-40073620D01*
X180756492Y-40008092D01*
X180786679Y-39950046D01*
X180812762Y-39899861D01*
X180834544Y-39857915D01*
X180851828Y-39824585D01*
X180864417Y-39800249D01*
X180872115Y-39785285D01*
X180874724Y-39780071D01*
X180871096Y-39779743D01*
X180856925Y-39779352D01*
X180832815Y-39778984D01*
X180799587Y-39778642D01*
X180758065Y-39778330D01*
X180709071Y-39778055D01*
X180653426Y-39777819D01*
X180591953Y-39777628D01*
X180525476Y-39777486D01*
X180454815Y-39777397D01*
X180380793Y-39777367D01*
X179886861Y-39777367D01*
X179878804Y-39790218D01*
X179877402Y-39792731D01*
X179870976Y-39804766D01*
X179859767Y-39826003D01*
X179844084Y-39855848D01*
X179824238Y-39893707D01*
X179800539Y-39938986D01*
X179773297Y-39991090D01*
X179742824Y-40049427D01*
X179709429Y-40113401D01*
X179673423Y-40182419D01*
X179635116Y-40255886D01*
X179594819Y-40333209D01*
X179552842Y-40413792D01*
X179509495Y-40497043D01*
X179482488Y-40548924D01*
X179429920Y-40649897D01*
X179373308Y-40758628D01*
X179313449Y-40873589D01*
X179251138Y-40993251D01*
X179187171Y-41116086D01*
X179122344Y-41240566D01*
X179057453Y-41365162D01*
X178993295Y-41488346D01*
X178930664Y-41608590D01*
X178870357Y-41724365D01*
X178813170Y-41834143D01*
X178759899Y-41936395D01*
X178711519Y-42029253D01*
X178619510Y-42205853D01*
X178532529Y-42372800D01*
X178450412Y-42530412D01*
X178372991Y-42679008D01*
X178300102Y-42818906D01*
X178231579Y-42950423D01*
X178167256Y-43073878D01*
X178106967Y-43189589D01*
X178050546Y-43297873D01*
X177997829Y-43399049D01*
X177948648Y-43493435D01*
X177902839Y-43581349D01*
X177860236Y-43663109D01*
X177820673Y-43739033D01*
X177783984Y-43809439D01*
X177750003Y-43874645D01*
X177718565Y-43934969D01*
X177689504Y-43990730D01*
X177662655Y-44042244D01*
X177637851Y-44089831D01*
X177614927Y-44133808D01*
X177593717Y-44174493D01*
X177574055Y-44212205D01*
X177555777Y-44247261D01*
X177538715Y-44279980D01*
X177522704Y-44310679D01*
X177507684Y-44339510D01*
X177481500Y-44389936D01*
X177457242Y-44436862D01*
X177435392Y-44479343D01*
X177416433Y-44516433D01*
X177400847Y-44547188D01*
X177389117Y-44570661D01*
X177381726Y-44585907D01*
X177379154Y-44591981D01*
X176987484Y-44591981D01*
X177284050Y-44022905D01*
X177287958Y-44015405D01*
X177322542Y-43949041D01*
X177361983Y-43873355D01*
X177405906Y-43789068D01*
X177453936Y-43696898D01*
X177505698Y-43597566D01*
X177560816Y-43491793D01*
X177618915Y-43380296D01*
X177679621Y-43263798D01*
X177742558Y-43143018D01*
X177807350Y-43018675D01*
X177873624Y-42891490D01*
X177941003Y-42762183D01*
X178009112Y-42631473D01*
X178077576Y-42500081D01*
X178146021Y-42368727D01*
X178214070Y-42238130D01*
X178281349Y-42109011D01*
X178347483Y-41982089D01*
X178363867Y-41950646D01*
X178429605Y-41824484D01*
X178496069Y-41696932D01*
X178562904Y-41568669D01*
X178629758Y-41440372D01*
X178696277Y-41312718D01*
X178762109Y-41186385D01*
X178826899Y-41062051D01*
X178890296Y-40940394D01*
X178951946Y-40822091D01*
X179011496Y-40707819D01*
X179068592Y-40598258D01*
X179122882Y-40494083D01*
X179174012Y-40395973D01*
X179221629Y-40304606D01*
X179265381Y-40220659D01*
X179304913Y-40144810D01*
X179339873Y-40077736D01*
X179369908Y-40020115D01*
X179673597Y-39437520D01*
X180492634Y-39437520D01*
X181311671Y-39437520D01*
X181313207Y-39560628D01*
X181314743Y-39683736D01*
X181264503Y-39780071D01*
X180911283Y-40457367D01*
G37*
G36*
X176027859Y-39456067D02*
G01*
X176029174Y-39458868D01*
X176031512Y-39463932D01*
X176034919Y-39471371D01*
X176039529Y-39481484D01*
X176045478Y-39494568D01*
X176052900Y-39510921D01*
X176061928Y-39530839D01*
X176072699Y-39554622D01*
X176085345Y-39582567D01*
X176100002Y-39614970D01*
X176116803Y-39652130D01*
X176135884Y-39694345D01*
X176157379Y-39741912D01*
X176181421Y-39795129D01*
X176208147Y-39854293D01*
X176237690Y-39919702D01*
X176270184Y-39991654D01*
X176305765Y-40070446D01*
X176344565Y-40156376D01*
X176386721Y-40249742D01*
X176432366Y-40350841D01*
X176481635Y-40459971D01*
X176534663Y-40577429D01*
X176591583Y-40703514D01*
X176652530Y-40838522D01*
X176717639Y-40982752D01*
X176787044Y-41136501D01*
X176860879Y-41300066D01*
X176939280Y-41473747D01*
X176963318Y-41526998D01*
X177009463Y-41629224D01*
X177055829Y-41731936D01*
X177102036Y-41834298D01*
X177147707Y-41935470D01*
X177192462Y-42034614D01*
X177235924Y-42130892D01*
X177277714Y-42223466D01*
X177317453Y-42311496D01*
X177354763Y-42394145D01*
X177389265Y-42470574D01*
X177420581Y-42539945D01*
X177448333Y-42601419D01*
X177472142Y-42654158D01*
X177491630Y-42697324D01*
X177643054Y-43032729D01*
X177281208Y-43722577D01*
X176919361Y-44412424D01*
X176793337Y-44413959D01*
X176667312Y-44415493D01*
X176485832Y-44008427D01*
X176482032Y-43999901D01*
X176454501Y-43938143D01*
X176422965Y-43867391D01*
X176387979Y-43788893D01*
X176350101Y-43703901D01*
X176309888Y-43613664D01*
X176267897Y-43519433D01*
X176224686Y-43422458D01*
X176180810Y-43323988D01*
X176136827Y-43225274D01*
X176093295Y-43127565D01*
X176050770Y-43032113D01*
X176009809Y-42940167D01*
X176006785Y-42933378D01*
X175970278Y-42851474D01*
X175935078Y-42772582D01*
X175901463Y-42697323D01*
X175869712Y-42626314D01*
X175840102Y-42560175D01*
X175812910Y-42499523D01*
X175788415Y-42444979D01*
X175766895Y-42397160D01*
X175748627Y-42356685D01*
X175733890Y-42324173D01*
X175722960Y-42300243D01*
X175716116Y-42285514D01*
X175713636Y-42280603D01*
X175713429Y-42283062D01*
X175713457Y-42295294D01*
X175713892Y-42316337D01*
X175714692Y-42344591D01*
X175715814Y-42378452D01*
X175717216Y-42416319D01*
X175717267Y-42417704D01*
X175717670Y-42435197D01*
X175718065Y-42463599D01*
X175718452Y-42502454D01*
X175718829Y-42551305D01*
X175719196Y-42609694D01*
X175719550Y-42677164D01*
X175719891Y-42753258D01*
X175720217Y-42837518D01*
X175720527Y-42929489D01*
X175720821Y-43028713D01*
X175721096Y-43134732D01*
X175721353Y-43247089D01*
X175721588Y-43365328D01*
X175721802Y-43488991D01*
X175721993Y-43617622D01*
X175722160Y-43750762D01*
X175722302Y-43887955D01*
X175722417Y-44028744D01*
X175722504Y-44172671D01*
X175722563Y-44319280D01*
X175722591Y-44468114D01*
X175722757Y-46385822D01*
X175185856Y-46385822D01*
X174648954Y-46385822D01*
X174648954Y-46214513D01*
X174648954Y-46043204D01*
X175013076Y-46041733D01*
X175377198Y-46040263D01*
X175378939Y-44366731D01*
X175379088Y-44217642D01*
X175379236Y-44051015D01*
X175379350Y-43895004D01*
X175379425Y-43749172D01*
X175379459Y-43613081D01*
X175379447Y-43486294D01*
X175379385Y-43368373D01*
X175379270Y-43258879D01*
X175379098Y-43157376D01*
X175378865Y-43063426D01*
X175378567Y-42976591D01*
X175378201Y-42896433D01*
X175377763Y-42822515D01*
X175377249Y-42754399D01*
X175376655Y-42691647D01*
X175375977Y-42633821D01*
X175375213Y-42580485D01*
X175374357Y-42531199D01*
X175373406Y-42485527D01*
X175372357Y-42443031D01*
X175371206Y-42403273D01*
X175369948Y-42365815D01*
X175368580Y-42330220D01*
X175367099Y-42296049D01*
X175365500Y-42262866D01*
X175363781Y-42230233D01*
X175361936Y-42197711D01*
X175359962Y-42164864D01*
X175359555Y-42158290D01*
X175349212Y-42010614D01*
X175336541Y-41861367D01*
X175321817Y-41713140D01*
X175305317Y-41568523D01*
X175287315Y-41430108D01*
X175268086Y-41300486D01*
X175265627Y-41284434D01*
X175262722Y-41263363D01*
X175261101Y-41248584D01*
X175261065Y-41242584D01*
X175261746Y-41242286D01*
X175270622Y-41239337D01*
X175288651Y-41233675D01*
X175314463Y-41225717D01*
X175346690Y-41215886D01*
X175383963Y-41204600D01*
X175424915Y-41192280D01*
X175586867Y-41143708D01*
X175598558Y-41170218D01*
X175599087Y-41171414D01*
X175603848Y-41182126D01*
X175612964Y-41202611D01*
X175626207Y-41232355D01*
X175643346Y-41270843D01*
X175664154Y-41317563D01*
X175688401Y-41371999D01*
X175715858Y-41433638D01*
X175746297Y-41501966D01*
X175779487Y-41576468D01*
X175815201Y-41656631D01*
X175853209Y-41741940D01*
X175893282Y-41831882D01*
X175935191Y-41925942D01*
X175978707Y-42023607D01*
X176023602Y-42124362D01*
X176069645Y-42227693D01*
X176107130Y-42311816D01*
X176155395Y-42420132D01*
X176203482Y-42528048D01*
X176251072Y-42634849D01*
X176297844Y-42739817D01*
X176343481Y-42842236D01*
X176387662Y-42941388D01*
X176430067Y-43036558D01*
X176470379Y-43127027D01*
X176508276Y-43212080D01*
X176543440Y-43290999D01*
X176575552Y-43363068D01*
X176604292Y-43427570D01*
X176629340Y-43483788D01*
X176650377Y-43531005D01*
X176667085Y-43568504D01*
X176690797Y-43621633D01*
X176714432Y-43674386D01*
X176736325Y-43723046D01*
X176756063Y-43766705D01*
X176773232Y-43804457D01*
X176787422Y-43835394D01*
X176798219Y-43858610D01*
X176805210Y-43873197D01*
X176807983Y-43878249D01*
X176809523Y-43875873D01*
X176815966Y-43864369D01*
X176827042Y-43843987D01*
X176842358Y-43815463D01*
X176861525Y-43779535D01*
X176884151Y-43736938D01*
X176909844Y-43688410D01*
X176938214Y-43634688D01*
X176968870Y-43576507D01*
X177001420Y-43514606D01*
X177035473Y-43449721D01*
X177260107Y-43021296D01*
X176773272Y-41943373D01*
X176733750Y-41855864D01*
X176681292Y-41739707D01*
X176628069Y-41621852D01*
X176574472Y-41503165D01*
X176520891Y-41384509D01*
X176467718Y-41266750D01*
X176415341Y-41150753D01*
X176364153Y-41037382D01*
X176314543Y-40927504D01*
X176266903Y-40821981D01*
X176221621Y-40721680D01*
X176179090Y-40627465D01*
X176139699Y-40540201D01*
X176103839Y-40460753D01*
X176071900Y-40389986D01*
X176044274Y-40328765D01*
X176018240Y-40271106D01*
X175985769Y-40199289D01*
X175954794Y-40130894D01*
X175925633Y-40066620D01*
X175898607Y-40007166D01*
X175874035Y-39953232D01*
X175852236Y-39905517D01*
X175833528Y-39864722D01*
X175818232Y-39831546D01*
X175806667Y-39806687D01*
X175799151Y-39790847D01*
X175796005Y-39784724D01*
X175793332Y-39783634D01*
X175786581Y-39782616D01*
X175775258Y-39781707D01*
X175758836Y-39780903D01*
X175736789Y-39780198D01*
X175708588Y-39779586D01*
X175673708Y-39779061D01*
X175631620Y-39778619D01*
X175581799Y-39778254D01*
X175523716Y-39777960D01*
X175456845Y-39777732D01*
X175380659Y-39777564D01*
X175294631Y-39777451D01*
X175198234Y-39777387D01*
X175090940Y-39777367D01*
X174391981Y-39777367D01*
X174390526Y-40358534D01*
X174389071Y-40939701D01*
X174217720Y-40939701D01*
X174046368Y-40939701D01*
X174046368Y-40188610D01*
X174046368Y-39437520D01*
X175032002Y-39436076D01*
X176017635Y-39434632D01*
X176027859Y-39456067D01*
G37*
G36*
X172486692Y-44444059D02*
G01*
X172486903Y-44485463D01*
X172487016Y-44535584D01*
X172487061Y-44595324D01*
X172487070Y-44665585D01*
X172487065Y-44738126D01*
X172487000Y-44800756D01*
X172486797Y-44853720D01*
X172486380Y-44897901D01*
X172485671Y-44934183D01*
X172484593Y-44963447D01*
X172483071Y-44986577D01*
X172481026Y-45004454D01*
X172478382Y-45017963D01*
X172475061Y-45027984D01*
X172470987Y-45035402D01*
X172466084Y-45041098D01*
X172460273Y-45045955D01*
X172453477Y-45050857D01*
X172449654Y-45053439D01*
X172440742Y-45057989D01*
X172429434Y-45061193D01*
X172413471Y-45063418D01*
X172390599Y-45065036D01*
X172358561Y-45066416D01*
X172281448Y-45069272D01*
X172279807Y-45129030D01*
X172279578Y-45136394D01*
X172277639Y-45166818D01*
X172273881Y-45187740D01*
X172267620Y-45200722D01*
X172258176Y-45207328D01*
X172244865Y-45209121D01*
X172234676Y-45208615D01*
X172224871Y-45205690D01*
X172218337Y-45198541D01*
X172214244Y-45185369D01*
X172211759Y-45164373D01*
X172210052Y-45133754D01*
X172207196Y-45069272D01*
X172118664Y-45069272D01*
X172030133Y-45069272D01*
X172027277Y-45133754D01*
X172026014Y-45158038D01*
X172023790Y-45181156D01*
X172020154Y-45196024D01*
X172014275Y-45204441D01*
X172005322Y-45208207D01*
X171992464Y-45209121D01*
X171989459Y-45209072D01*
X171976976Y-45206441D01*
X171968223Y-45198685D01*
X171962518Y-45184240D01*
X171959178Y-45161543D01*
X171957521Y-45129030D01*
X171955880Y-45069272D01*
X171875916Y-45069272D01*
X171795952Y-45069272D01*
X171793096Y-45129828D01*
X171791920Y-45150626D01*
X171789206Y-45176657D01*
X171784830Y-45193827D01*
X171777993Y-45203725D01*
X171767895Y-45207943D01*
X171753735Y-45208070D01*
X171749375Y-45207569D01*
X171736713Y-45203458D01*
X171727993Y-45194475D01*
X171722559Y-45179001D01*
X171719756Y-45155417D01*
X171718928Y-45122105D01*
X171718844Y-45066416D01*
X171647448Y-45066416D01*
X171576051Y-45066416D01*
X171575650Y-45122105D01*
X171575553Y-45131931D01*
X171574696Y-45159775D01*
X171572588Y-45179004D01*
X171568645Y-45191795D01*
X171562281Y-45200324D01*
X171552912Y-45206769D01*
X171550749Y-45207962D01*
X171538803Y-45213520D01*
X171529419Y-45213525D01*
X171516210Y-45208229D01*
X171510401Y-45205194D01*
X171504118Y-45199532D01*
X171499918Y-45190565D01*
X171497285Y-45176262D01*
X171495702Y-45154594D01*
X171494653Y-45123533D01*
X171493231Y-45069272D01*
X171410411Y-45069272D01*
X171327592Y-45069272D01*
X171324736Y-45129828D01*
X171323559Y-45150626D01*
X171320845Y-45176657D01*
X171316470Y-45193827D01*
X171309633Y-45203725D01*
X171299534Y-45207943D01*
X171285374Y-45208070D01*
X171280890Y-45207551D01*
X171268277Y-45203415D01*
X171259592Y-45194405D01*
X171254181Y-45178903D01*
X171251391Y-45155290D01*
X171250568Y-45121948D01*
X171250483Y-45066102D01*
X171169091Y-45067687D01*
X171087700Y-45069272D01*
X171084844Y-45133754D01*
X171083581Y-45158038D01*
X171081357Y-45181156D01*
X171077721Y-45196024D01*
X171071842Y-45204441D01*
X171062889Y-45208207D01*
X171050031Y-45209121D01*
X171047026Y-45209072D01*
X171034543Y-45206441D01*
X171025790Y-45198685D01*
X171020084Y-45184240D01*
X171016745Y-45161543D01*
X171015088Y-45129030D01*
X171013447Y-45069272D01*
X170938404Y-45067682D01*
X170863361Y-45066093D01*
X170861187Y-45129624D01*
X170860304Y-45149972D01*
X170857944Y-45175824D01*
X170853747Y-45192975D01*
X170846871Y-45203125D01*
X170836473Y-45207971D01*
X170821712Y-45209209D01*
X170817847Y-45209090D01*
X170806613Y-45206312D01*
X170798687Y-45198621D01*
X170793378Y-45184393D01*
X170789992Y-45162004D01*
X170787834Y-45129828D01*
X170784979Y-45069272D01*
X170705015Y-45066416D01*
X170699140Y-45066201D01*
X170664929Y-45064554D01*
X170639772Y-45062196D01*
X170621605Y-45058558D01*
X170608359Y-45053070D01*
X170597969Y-45045163D01*
X170588367Y-45034267D01*
X170587408Y-45033030D01*
X170585106Y-45029623D01*
X170583154Y-45025360D01*
X170581524Y-45019361D01*
X170580187Y-45010744D01*
X170579115Y-44998629D01*
X170578280Y-44982135D01*
X170577655Y-44960382D01*
X170577209Y-44932490D01*
X170576917Y-44897577D01*
X170576748Y-44854763D01*
X170576676Y-44803167D01*
X170576671Y-44741910D01*
X170576706Y-44670109D01*
X170576841Y-44440983D01*
X170739285Y-44440983D01*
X170739285Y-44669451D01*
X170739285Y-44897920D01*
X171528930Y-44899368D01*
X172318574Y-44900816D01*
X172318574Y-44669451D01*
X172318574Y-44438087D01*
X171528930Y-44439535D01*
X170739285Y-44440983D01*
X170576841Y-44440983D01*
X170576912Y-44321037D01*
X170589558Y-44306011D01*
X170598694Y-44296139D01*
X170611762Y-44286068D01*
X170627603Y-44279252D01*
X170648370Y-44275105D01*
X170676218Y-44273044D01*
X170713298Y-44272487D01*
X170787834Y-44272487D01*
X170787922Y-44205375D01*
X170788258Y-44179942D01*
X170789182Y-44156728D01*
X170790547Y-44139900D01*
X170792206Y-44131977D01*
X170796556Y-44126668D01*
X170812065Y-44117680D01*
X170829680Y-44116911D01*
X170845713Y-44123987D01*
X170856477Y-44138531D01*
X170858059Y-44145120D01*
X170860135Y-44162659D01*
X170861558Y-44186319D01*
X170862087Y-44212886D01*
X170862087Y-44272487D01*
X170950618Y-44272487D01*
X171039150Y-44272487D01*
X171039150Y-44205038D01*
X171039463Y-44177107D01*
X171041061Y-44151021D01*
X171044553Y-44133486D01*
X171050530Y-44122921D01*
X171059585Y-44117742D01*
X171072307Y-44116367D01*
X171074109Y-44116375D01*
X171087268Y-44117468D01*
X171096474Y-44121579D01*
X171102425Y-44130388D01*
X171105814Y-44145574D01*
X171107337Y-44168815D01*
X171107691Y-44201790D01*
X171107691Y-44272487D01*
X171190510Y-44272487D01*
X171273330Y-44272487D01*
X171273330Y-44206543D01*
X171273361Y-44190286D01*
X171273750Y-44166750D01*
X171274924Y-44150998D01*
X171277304Y-44140643D01*
X171281306Y-44133299D01*
X171287350Y-44126579D01*
X171290072Y-44123932D01*
X171303806Y-44114405D01*
X171316742Y-44114619D01*
X171332533Y-44124397D01*
X171338109Y-44129067D01*
X171342650Y-44134791D01*
X171345443Y-44142931D01*
X171346914Y-44155738D01*
X171347486Y-44175464D01*
X171347583Y-44204361D01*
X171347583Y-44272487D01*
X171421835Y-44272487D01*
X171496087Y-44272487D01*
X171496087Y-44201415D01*
X171496143Y-44178886D01*
X171496573Y-44156079D01*
X171497715Y-44141049D01*
X171499907Y-44131678D01*
X171503484Y-44125851D01*
X171508782Y-44121451D01*
X171524101Y-44114160D01*
X171543675Y-44114745D01*
X171562032Y-44126579D01*
X171565481Y-44130172D01*
X171570402Y-44136922D01*
X171573501Y-44145547D01*
X171575197Y-44158434D01*
X171575907Y-44177971D01*
X171576051Y-44206543D01*
X171576051Y-44272487D01*
X171658871Y-44272487D01*
X171741691Y-44272487D01*
X171741691Y-44206543D01*
X171741721Y-44190286D01*
X171742110Y-44166750D01*
X171743285Y-44150998D01*
X171745664Y-44140643D01*
X171749667Y-44133299D01*
X171755711Y-44126579D01*
X171758433Y-44123932D01*
X171772166Y-44114405D01*
X171785102Y-44114619D01*
X171800894Y-44124397D01*
X171806469Y-44129067D01*
X171811010Y-44134791D01*
X171813804Y-44142931D01*
X171815275Y-44155738D01*
X171815847Y-44175464D01*
X171815943Y-44204361D01*
X171815943Y-44272487D01*
X171898763Y-44272487D01*
X171981583Y-44272487D01*
X171981583Y-44205038D01*
X171981896Y-44177107D01*
X171983494Y-44151021D01*
X171986986Y-44133486D01*
X171992964Y-44122921D01*
X172002018Y-44117742D01*
X172014741Y-44116367D01*
X172016542Y-44116375D01*
X172029701Y-44117468D01*
X172038908Y-44121579D01*
X172044858Y-44130388D01*
X172048247Y-44145574D01*
X172049770Y-44168815D01*
X172050124Y-44201790D01*
X172050124Y-44272487D01*
X172130088Y-44272487D01*
X172210052Y-44272487D01*
X172210052Y-44201790D01*
X172210055Y-44197441D01*
X172210508Y-44165673D01*
X172212211Y-44143445D01*
X172215859Y-44129080D01*
X172222149Y-44120898D01*
X172231776Y-44117220D01*
X172245435Y-44116367D01*
X172255641Y-44117160D01*
X172265491Y-44121369D01*
X172272116Y-44130633D01*
X172276111Y-44146536D01*
X172278071Y-44170662D01*
X172278592Y-44204596D01*
X172278592Y-44271602D01*
X172355305Y-44273473D01*
X172363268Y-44273678D01*
X172396163Y-44275039D01*
X172420356Y-44277555D01*
X172438107Y-44281999D01*
X172451674Y-44289149D01*
X172463316Y-44299780D01*
X172475294Y-44314668D01*
X172475401Y-44314812D01*
X172477854Y-44318364D01*
X172479936Y-44322514D01*
X172481679Y-44328163D01*
X172483112Y-44336213D01*
X172484266Y-44347566D01*
X172485170Y-44363125D01*
X172485856Y-44383792D01*
X172486353Y-44410470D01*
X172486632Y-44438087D01*
X172486692Y-44444059D01*
G37*
G36*
X178547124Y-39157042D02*
G01*
X178542408Y-39177637D01*
X178542210Y-39178315D01*
X178545315Y-39186223D01*
X178557492Y-39198118D01*
X178579309Y-39214571D01*
X178583835Y-39217813D01*
X178613474Y-39241262D01*
X178643347Y-39268309D01*
X178672337Y-39297582D01*
X178699326Y-39327705D01*
X178723195Y-39357304D01*
X178742828Y-39385007D01*
X178757107Y-39409437D01*
X178764913Y-39429222D01*
X178765129Y-39442988D01*
X178759435Y-39449486D01*
X178746086Y-39451013D01*
X178727036Y-39445596D01*
X178703447Y-39434040D01*
X178676481Y-39417153D01*
X178647299Y-39395740D01*
X178617065Y-39370608D01*
X178586939Y-39342563D01*
X178558084Y-39312412D01*
X178531661Y-39280962D01*
X178527128Y-39275151D01*
X178513785Y-39258094D01*
X178503640Y-39245190D01*
X178498601Y-39238871D01*
X178498250Y-39238542D01*
X178490529Y-39238482D01*
X178478207Y-39243369D01*
X178475012Y-39244918D01*
X178453982Y-39250077D01*
X178423892Y-39250812D01*
X178386259Y-39249305D01*
X178347484Y-39283348D01*
X178314328Y-39314528D01*
X178273899Y-39356818D01*
X178231315Y-39405158D01*
X178188302Y-39457445D01*
X178146585Y-39511575D01*
X178107887Y-39565447D01*
X178073935Y-39616956D01*
X178036767Y-39676445D01*
X178050160Y-39702875D01*
X178052540Y-39707641D01*
X178067605Y-39742932D01*
X178077321Y-39778125D01*
X178082465Y-39816927D01*
X178083817Y-39863043D01*
X178083694Y-39875676D01*
X178082655Y-39905216D01*
X178080164Y-39928758D01*
X178075674Y-39950296D01*
X178068638Y-39973819D01*
X178053825Y-40018911D01*
X178073445Y-40057870D01*
X178075754Y-40062393D01*
X178099754Y-40104637D01*
X178130785Y-40152702D01*
X178167587Y-40204910D01*
X178208896Y-40259585D01*
X178253452Y-40315051D01*
X178299991Y-40369630D01*
X178347252Y-40421645D01*
X178391315Y-40468485D01*
X178424620Y-40468485D01*
X178438617Y-40468945D01*
X178459083Y-40471112D01*
X178473632Y-40474456D01*
X178477598Y-40475874D01*
X178488131Y-40477309D01*
X178494076Y-40471961D01*
X178501895Y-40460052D01*
X178520418Y-40437438D01*
X178545064Y-40411248D01*
X178573871Y-40383291D01*
X178604881Y-40355373D01*
X178636131Y-40329303D01*
X178665661Y-40306887D01*
X178691512Y-40289933D01*
X178700337Y-40284955D01*
X178728011Y-40271899D01*
X178750132Y-40265582D01*
X178765803Y-40266033D01*
X178774128Y-40273279D01*
X178774209Y-40287348D01*
X178769499Y-40299790D01*
X178755508Y-40323138D01*
X178734600Y-40350437D01*
X178708260Y-40380135D01*
X178677975Y-40410680D01*
X178645230Y-40440521D01*
X178611512Y-40468107D01*
X178578305Y-40491886D01*
X178561547Y-40503245D01*
X178545257Y-40515743D01*
X178537189Y-40524636D01*
X178536235Y-40530950D01*
X178546057Y-40567181D01*
X178545933Y-40587489D01*
X178545843Y-40602151D01*
X178536528Y-40634222D01*
X178519087Y-40661852D01*
X178494494Y-40683497D01*
X178463724Y-40697616D01*
X178427751Y-40702665D01*
X178415744Y-40702243D01*
X178395984Y-40699884D01*
X178382065Y-40696144D01*
X178381198Y-40695756D01*
X178375193Y-40693914D01*
X178369027Y-40694782D01*
X178361175Y-40699490D01*
X178350115Y-40709170D01*
X178334322Y-40724954D01*
X178312274Y-40747971D01*
X178309887Y-40750473D01*
X178286177Y-40774565D01*
X178262104Y-40797853D01*
X178240357Y-40817794D01*
X178223624Y-40831843D01*
X178222415Y-40832771D01*
X178190903Y-40855012D01*
X178161347Y-40872374D01*
X178135092Y-40884347D01*
X178113480Y-40890420D01*
X178097857Y-40890082D01*
X178089564Y-40882822D01*
X178089390Y-40873021D01*
X178096335Y-40855387D01*
X178110178Y-40833001D01*
X178129780Y-40807167D01*
X178153998Y-40779189D01*
X178181692Y-40750371D01*
X178211719Y-40722015D01*
X178242939Y-40695426D01*
X178274212Y-40671908D01*
X178280171Y-40667747D01*
X178299361Y-40654020D01*
X178310965Y-40644531D01*
X178316483Y-40637526D01*
X178317417Y-40631253D01*
X178315268Y-40623957D01*
X178313469Y-40617418D01*
X178311144Y-40599183D01*
X178311061Y-40593435D01*
X178396964Y-40593435D01*
X178406285Y-40607536D01*
X178419556Y-40615529D01*
X178433414Y-40615143D01*
X178443406Y-40605423D01*
X178447245Y-40587489D01*
X178446394Y-40579761D01*
X178438840Y-40567061D01*
X178425708Y-40562726D01*
X178409736Y-40568165D01*
X178398777Y-40579343D01*
X178396964Y-40593435D01*
X178311061Y-40593435D01*
X178310848Y-40578643D01*
X178311107Y-40572531D01*
X178310935Y-40560178D01*
X178308499Y-40550030D01*
X178302448Y-40539421D01*
X178291427Y-40525684D01*
X178274085Y-40506152D01*
X178239790Y-40470285D01*
X178194516Y-40427343D01*
X178143749Y-40382753D01*
X178089888Y-40338481D01*
X178035333Y-40296493D01*
X177982481Y-40258755D01*
X177933734Y-40227233D01*
X177931401Y-40225823D01*
X177909815Y-40213048D01*
X177895183Y-40205447D01*
X177885009Y-40202189D01*
X177876797Y-40202444D01*
X177868049Y-40205381D01*
X177848851Y-40213055D01*
X177819986Y-40223576D01*
X177795330Y-40230422D01*
X177770979Y-40234349D01*
X177743029Y-40236112D01*
X177707578Y-40236469D01*
X177691141Y-40236356D01*
X177658555Y-40235253D01*
X177631770Y-40232357D01*
X177606847Y-40226906D01*
X177579846Y-40218134D01*
X177546830Y-40205276D01*
X177539701Y-40202693D01*
X177531189Y-40201641D01*
X177521413Y-40204162D01*
X177507575Y-40211097D01*
X177486874Y-40223286D01*
X177475015Y-40230550D01*
X177422250Y-40265636D01*
X177365816Y-40307565D01*
X177304959Y-40356942D01*
X177238926Y-40414373D01*
X177166964Y-40480463D01*
X177094711Y-40548337D01*
X177094632Y-40581235D01*
X177094316Y-40590566D01*
X177094170Y-40594856D01*
X177092061Y-40614898D01*
X177088837Y-40628929D01*
X177087169Y-40633890D01*
X177087016Y-40640828D01*
X177091464Y-40648039D01*
X177102079Y-40657645D01*
X177120425Y-40671767D01*
X177148734Y-40694924D01*
X177178517Y-40722953D01*
X177207226Y-40753334D01*
X177233791Y-40784648D01*
X177257144Y-40815481D01*
X177276214Y-40844416D01*
X177289932Y-40870036D01*
X177297229Y-40890925D01*
X177297035Y-40905666D01*
X177295730Y-40908324D01*
X177287699Y-40913354D01*
X177273491Y-40911204D01*
X177251841Y-40901766D01*
X177242549Y-40896678D01*
X177211866Y-40876119D01*
X177178033Y-40848946D01*
X177143371Y-40817353D01*
X177110201Y-40783537D01*
X177080844Y-40749693D01*
X177057621Y-40718018D01*
X177054627Y-40713473D01*
X177044239Y-40699717D01*
X177036159Y-40693936D01*
X177028120Y-40694308D01*
X177019877Y-40696184D01*
X177002419Y-40698803D01*
X176981720Y-40700979D01*
X176959179Y-40701823D01*
X176941254Y-40699200D01*
X176924062Y-40692182D01*
X176897087Y-40674317D01*
X176873510Y-40647294D01*
X176859538Y-40615061D01*
X176857216Y-40593439D01*
X176948368Y-40593439D01*
X176954031Y-40604403D01*
X176959333Y-40610345D01*
X176973307Y-40616814D01*
X176987304Y-40614062D01*
X176997711Y-40602266D01*
X177001320Y-40590566D01*
X176998394Y-40577992D01*
X176993215Y-40572786D01*
X176979505Y-40568650D01*
X176964446Y-40571174D01*
X176952976Y-40580128D01*
X176950611Y-40583948D01*
X176948368Y-40593439D01*
X176857216Y-40593439D01*
X176855643Y-40578789D01*
X176862301Y-40539646D01*
X176862946Y-40536374D01*
X176860833Y-40528576D01*
X176852112Y-40519412D01*
X176835077Y-40506823D01*
X176827622Y-40501365D01*
X176805913Y-40483349D01*
X176780264Y-40459962D01*
X176753069Y-40433566D01*
X176726725Y-40406526D01*
X176703629Y-40381203D01*
X176686175Y-40359962D01*
X176680518Y-40352243D01*
X176662230Y-40323869D01*
X176649623Y-40298410D01*
X176643170Y-40277274D01*
X176643341Y-40261875D01*
X176650609Y-40253620D01*
X176661489Y-40254147D01*
X176679354Y-40261389D01*
X176702038Y-40274418D01*
X176727799Y-40292123D01*
X176754894Y-40313392D01*
X176781582Y-40337115D01*
X176797421Y-40352603D01*
X176820335Y-40376317D01*
X176843056Y-40401103D01*
X176864004Y-40425137D01*
X176881599Y-40446590D01*
X176894260Y-40463636D01*
X176900406Y-40474448D01*
X176903198Y-40477150D01*
X176912896Y-40476782D01*
X176930998Y-40471457D01*
X176953254Y-40465745D01*
X176988616Y-40465072D01*
X177017889Y-40468417D01*
X177077148Y-40407034D01*
X177079773Y-40404308D01*
X177130976Y-40348498D01*
X177180969Y-40289241D01*
X177228188Y-40228623D01*
X177271068Y-40168734D01*
X177308045Y-40111661D01*
X177337553Y-40059493D01*
X177358461Y-40018907D01*
X177344533Y-39973817D01*
X177338855Y-39954002D01*
X177334695Y-39934393D01*
X177332266Y-39913524D01*
X177331185Y-39888012D01*
X177331072Y-39854475D01*
X177331104Y-39849861D01*
X177331665Y-39818289D01*
X177333058Y-39794528D01*
X177335710Y-39775367D01*
X177340043Y-39757597D01*
X177346484Y-39738007D01*
X177361430Y-39695792D01*
X177349583Y-39672323D01*
X177339465Y-39653799D01*
X177315920Y-39616589D01*
X177285657Y-39573972D01*
X177249805Y-39527356D01*
X177209499Y-39478144D01*
X177165868Y-39427744D01*
X177120045Y-39377560D01*
X177073161Y-39328997D01*
X176993614Y-39249033D01*
X176962199Y-39248569D01*
X176952548Y-39248058D01*
X176929726Y-39244367D01*
X176911873Y-39238246D01*
X176906675Y-39235562D01*
X176896235Y-39231560D01*
X176889198Y-39234184D01*
X176880548Y-39244422D01*
X176873070Y-39253692D01*
X176845417Y-39283821D01*
X176812153Y-39315488D01*
X176775817Y-39346593D01*
X176738947Y-39375034D01*
X176704081Y-39398712D01*
X176673758Y-39415527D01*
X176664712Y-39419410D01*
X176643732Y-39426025D01*
X176625610Y-39428732D01*
X176612879Y-39427301D01*
X176608073Y-39421503D01*
X176608320Y-39418737D01*
X176614592Y-39403089D01*
X176628287Y-39382274D01*
X176648017Y-39357662D01*
X176672394Y-39330623D01*
X176700028Y-39302528D01*
X176729531Y-39274746D01*
X176759514Y-39248648D01*
X176788590Y-39225604D01*
X176815370Y-39206984D01*
X176838465Y-39194157D01*
X176840227Y-39193343D01*
X176847346Y-39189000D01*
X176850759Y-39182604D01*
X176851278Y-39171055D01*
X176849716Y-39151254D01*
X176848802Y-39138319D01*
X176848859Y-39136887D01*
X176940133Y-39136887D01*
X176948328Y-39151526D01*
X176961194Y-39159277D01*
X176975400Y-39158871D01*
X176986355Y-39150368D01*
X176990670Y-39135084D01*
X176988990Y-39123994D01*
X176980442Y-39111366D01*
X176967029Y-39107094D01*
X176951431Y-39112707D01*
X176942628Y-39122137D01*
X176940133Y-39136887D01*
X176848859Y-39136887D01*
X176849818Y-39112693D01*
X176855764Y-39090323D01*
X176863632Y-39074515D01*
X176881853Y-39050678D01*
X176904270Y-39030814D01*
X176927353Y-39018466D01*
X176936338Y-39015986D01*
X176962167Y-39012517D01*
X176988517Y-39012944D01*
X177009787Y-39017343D01*
X177013113Y-39018468D01*
X177020375Y-39018928D01*
X177028084Y-39014897D01*
X177038439Y-39004874D01*
X177053635Y-38987357D01*
X177065238Y-38974150D01*
X177093899Y-38944985D01*
X177125723Y-38916405D01*
X177159133Y-38889511D01*
X177192556Y-38865402D01*
X177224416Y-38845178D01*
X177253139Y-38829941D01*
X177277148Y-38820789D01*
X177294870Y-38818825D01*
X177302240Y-38821381D01*
X177308941Y-38831543D01*
X177307713Y-38847574D01*
X177298440Y-38867868D01*
X177294915Y-38873370D01*
X177274694Y-38899541D01*
X177247170Y-38929347D01*
X177214336Y-38960945D01*
X177178184Y-38992488D01*
X177140705Y-39022132D01*
X177103892Y-39048034D01*
X177071378Y-39069289D01*
X177080089Y-39090137D01*
X177082313Y-39096532D01*
X177086571Y-39118649D01*
X177087300Y-39135084D01*
X177087646Y-39142883D01*
X177087247Y-39156010D01*
X177086992Y-39172373D01*
X177087175Y-39181532D01*
X177087185Y-39181604D01*
X177091768Y-39188057D01*
X177103589Y-39200619D01*
X177121246Y-39218002D01*
X177143339Y-39238912D01*
X177168464Y-39262059D01*
X177195223Y-39286151D01*
X177222213Y-39309898D01*
X177248033Y-39332008D01*
X177271283Y-39351191D01*
X177286682Y-39363173D01*
X177315068Y-39384122D01*
X177348395Y-39407773D01*
X177384316Y-39432537D01*
X177420482Y-39456822D01*
X177454545Y-39479037D01*
X177484158Y-39497591D01*
X177506971Y-39510892D01*
X177534833Y-39526064D01*
X177586935Y-39507545D01*
X177599319Y-39503205D01*
X177619728Y-39496708D01*
X177637539Y-39492587D01*
X177656258Y-39490324D01*
X177679388Y-39489402D01*
X177710434Y-39489303D01*
X177730766Y-39489498D01*
X177759038Y-39490523D01*
X177780891Y-39492748D01*
X177799497Y-39496556D01*
X177818026Y-39502331D01*
X177854221Y-39515084D01*
X177897990Y-39491528D01*
X177933907Y-39471109D01*
X178001929Y-39427225D01*
X178074754Y-39374017D01*
X178151853Y-39311880D01*
X178232699Y-39241208D01*
X178310164Y-39171002D01*
X178310566Y-39135765D01*
X178310586Y-39135234D01*
X178397995Y-39135234D01*
X178404778Y-39149488D01*
X178418504Y-39158806D01*
X178432408Y-39158865D01*
X178443020Y-39150348D01*
X178447245Y-39134356D01*
X178443838Y-39121226D01*
X178432612Y-39111905D01*
X178416286Y-39111328D01*
X178413075Y-39112323D01*
X178401125Y-39121637D01*
X178397995Y-39135234D01*
X178310586Y-39135234D01*
X178311175Y-39119423D01*
X178312941Y-39100890D01*
X178315378Y-39089240D01*
X178316438Y-39084830D01*
X178314151Y-39077513D01*
X178305320Y-39068546D01*
X178288282Y-39055880D01*
X178265167Y-39038831D01*
X178232232Y-39011628D01*
X178201129Y-38982733D01*
X178172614Y-38953167D01*
X178147441Y-38923949D01*
X178126365Y-38896100D01*
X178110139Y-38870641D01*
X178099518Y-38848593D01*
X178095257Y-38830976D01*
X178098110Y-38818810D01*
X178108832Y-38813117D01*
X178122641Y-38814409D01*
X178144796Y-38823227D01*
X178171587Y-38838939D01*
X178201654Y-38860424D01*
X178233639Y-38886560D01*
X178266183Y-38916226D01*
X178297930Y-38948300D01*
X178327519Y-38981661D01*
X178353593Y-39015187D01*
X178360841Y-39024326D01*
X178367579Y-39028089D01*
X178374617Y-39024442D01*
X178382065Y-39020130D01*
X178401570Y-39015010D01*
X178425818Y-39013180D01*
X178450807Y-39014819D01*
X178472537Y-39020104D01*
X178483566Y-39025228D01*
X178509121Y-39043787D01*
X178530572Y-39068205D01*
X178544318Y-39094736D01*
X178547047Y-39106832D01*
X178548716Y-39131435D01*
X178548534Y-39134356D01*
X178547124Y-39157042D01*
G37*
G36*
X97574792Y-91660738D02*
G01*
X97574792Y-92357567D01*
X95304385Y-92357567D01*
X93033978Y-92357567D01*
X93033978Y-91660738D01*
X93033978Y-91300900D01*
X93376681Y-91300900D01*
X93376681Y-91657882D01*
X93376681Y-92014864D01*
X95307241Y-92014864D01*
X97237801Y-92014864D01*
X97237801Y-91657882D01*
X97237801Y-91300900D01*
X95307241Y-91300900D01*
X93376681Y-91300900D01*
X93033978Y-91300900D01*
X93033978Y-90963908D01*
X95304385Y-90963908D01*
X97574792Y-90963908D01*
X97574792Y-91300900D01*
X97574792Y-91660738D01*
G37*
G36*
X97574792Y-97909355D02*
G01*
X95241556Y-97909355D01*
X92908320Y-97909355D01*
X92908320Y-97212525D01*
X92908320Y-96852687D01*
X93251023Y-96852687D01*
X93251023Y-97209670D01*
X93251023Y-97566652D01*
X95244419Y-97566652D01*
X97237814Y-97566652D01*
X97236380Y-95206285D01*
X97234945Y-92845919D01*
X96746593Y-92845919D01*
X96258241Y-92845919D01*
X96256805Y-94849303D01*
X96255369Y-96852687D01*
X94753196Y-96852687D01*
X93251023Y-96852687D01*
X92908320Y-96852687D01*
X92908320Y-96515696D01*
X94410501Y-96515696D01*
X95912683Y-96515696D01*
X95912683Y-94510884D01*
X95912683Y-92506072D01*
X96743737Y-92506072D01*
X97574792Y-92506072D01*
X97574792Y-95207713D01*
X97574792Y-97566652D01*
X97574792Y-97909355D01*
G37*
G36*
X104525950Y-96235822D02*
G01*
X103734877Y-96235822D01*
X102943805Y-96235822D01*
X102943805Y-94529779D01*
X102943805Y-92911221D01*
X103286486Y-92911221D01*
X103287925Y-94400742D01*
X103289364Y-95890263D01*
X103733449Y-95891726D01*
X104177535Y-95893189D01*
X104177535Y-93544687D01*
X104177534Y-93452537D01*
X104177522Y-93291021D01*
X104177499Y-93132642D01*
X104177467Y-92977778D01*
X104177424Y-92826805D01*
X104177371Y-92680101D01*
X104177310Y-92538041D01*
X104177239Y-92401002D01*
X104177160Y-92269361D01*
X104177073Y-92143494D01*
X104176979Y-92023778D01*
X104176877Y-91910590D01*
X104176768Y-91804306D01*
X104176652Y-91705302D01*
X104176530Y-91613956D01*
X104176402Y-91530644D01*
X104176269Y-91455743D01*
X104176130Y-91389629D01*
X104175987Y-91332678D01*
X104175840Y-91285268D01*
X104175688Y-91247776D01*
X104175533Y-91220576D01*
X104175375Y-91204047D01*
X104175214Y-91198565D01*
X104173760Y-91201086D01*
X104168863Y-91210212D01*
X104160434Y-91226182D01*
X104148364Y-91249203D01*
X104132547Y-91279479D01*
X104112875Y-91317219D01*
X104089242Y-91362628D01*
X104061540Y-91415912D01*
X104029662Y-91477279D01*
X103993500Y-91546935D01*
X103952948Y-91625086D01*
X103907898Y-91711938D01*
X103858244Y-91807698D01*
X103803877Y-91912573D01*
X103744691Y-92026768D01*
X103680579Y-92150491D01*
X103611433Y-92283948D01*
X103537146Y-92427344D01*
X103286486Y-92911221D01*
X102943805Y-92911221D01*
X102943805Y-92823737D01*
X103381851Y-91978070D01*
X103394112Y-91954401D01*
X103445687Y-91854836D01*
X103497995Y-91753856D01*
X103550576Y-91652352D01*
X103602969Y-91551212D01*
X103654714Y-91451325D01*
X103705350Y-91353580D01*
X103754416Y-91258867D01*
X103801452Y-91168075D01*
X103845998Y-91082091D01*
X103887592Y-91001806D01*
X103925775Y-90928109D01*
X103960086Y-90861888D01*
X103990063Y-90804032D01*
X104015247Y-90755431D01*
X104210597Y-90378458D01*
X104368273Y-90376939D01*
X104525950Y-90375421D01*
X104525950Y-93305622D01*
X104525950Y-95893189D01*
X104525950Y-96235822D01*
G37*
G36*
X104111283Y-90307367D02*
G01*
X104084985Y-90357794D01*
X104046483Y-90431621D01*
X104003256Y-90514512D01*
X103955615Y-90605867D01*
X103903874Y-90705084D01*
X103848346Y-90811563D01*
X103789344Y-90924703D01*
X103727183Y-91043903D01*
X103662175Y-91168563D01*
X103594634Y-91298081D01*
X103524872Y-91431857D01*
X103453203Y-91569290D01*
X103379941Y-91709780D01*
X103305399Y-91852724D01*
X103229889Y-91997524D01*
X103153726Y-92143577D01*
X103077223Y-92290283D01*
X103000693Y-92437041D01*
X102924449Y-92583251D01*
X102848804Y-92728311D01*
X102774073Y-92871621D01*
X102720571Y-92974218D01*
X102651178Y-93107284D01*
X102583120Y-93237782D01*
X102516596Y-93365333D01*
X102451802Y-93489561D01*
X102388936Y-93610087D01*
X102328195Y-93726532D01*
X102269777Y-93838520D01*
X102213878Y-93945670D01*
X102160695Y-94047607D01*
X102110427Y-94143950D01*
X102063271Y-94234324D01*
X102019423Y-94318348D01*
X101979081Y-94395646D01*
X101942442Y-94465839D01*
X101909703Y-94528550D01*
X101881063Y-94583399D01*
X101856717Y-94630010D01*
X101836864Y-94668003D01*
X101821700Y-94697002D01*
X101811423Y-94716627D01*
X101806230Y-94726501D01*
X101772136Y-94790758D01*
X100955744Y-94790758D01*
X100139352Y-94790758D01*
X100139352Y-94662549D01*
X100139352Y-94534341D01*
X100187484Y-94441981D01*
X100579154Y-94441981D01*
X100581116Y-94442704D01*
X100592939Y-94443830D01*
X100614586Y-94444834D01*
X100645051Y-94445717D01*
X100683329Y-94446479D01*
X100728415Y-94447123D01*
X100779303Y-94447649D01*
X100834989Y-94448057D01*
X100894467Y-94448351D01*
X100956732Y-94448529D01*
X101020778Y-94448594D01*
X101085602Y-94448547D01*
X101150197Y-94448388D01*
X101213558Y-94448119D01*
X101274680Y-94447741D01*
X101332558Y-94447254D01*
X101386187Y-94446661D01*
X101434561Y-94445962D01*
X101476675Y-94445158D01*
X101511525Y-94444250D01*
X101538104Y-94443240D01*
X101555409Y-94442128D01*
X101562432Y-94440915D01*
X101562819Y-94440437D01*
X101567621Y-94432319D01*
X101577324Y-94414757D01*
X101591634Y-94388311D01*
X101610253Y-94353540D01*
X101632888Y-94311007D01*
X101659242Y-94261269D01*
X101689020Y-94204889D01*
X101721926Y-94142425D01*
X101757665Y-94074438D01*
X101795942Y-94001488D01*
X101836459Y-93924135D01*
X101878924Y-93842940D01*
X101923038Y-93758462D01*
X101968508Y-93671262D01*
X101996165Y-93618187D01*
X102035799Y-93542139D01*
X102080112Y-93457124D01*
X102128762Y-93363795D01*
X102181412Y-93262803D01*
X102237721Y-93154796D01*
X102297350Y-93040428D01*
X102359961Y-92920348D01*
X102425213Y-92795207D01*
X102492767Y-92665656D01*
X102562284Y-92532346D01*
X102633425Y-92395927D01*
X102705850Y-92257050D01*
X102779219Y-92116366D01*
X102853194Y-91974526D01*
X102927436Y-91832181D01*
X103001604Y-91689981D01*
X103075359Y-91548577D01*
X103148363Y-91408620D01*
X103220275Y-91270761D01*
X103280064Y-91156139D01*
X103345706Y-91030279D01*
X103409802Y-90907369D01*
X103472154Y-90787787D01*
X103532565Y-90671910D01*
X103590840Y-90560116D01*
X103646780Y-90452783D01*
X103700191Y-90350289D01*
X103750873Y-90253011D01*
X103798632Y-90161328D01*
X103843270Y-90075616D01*
X103884590Y-89996255D01*
X103922397Y-89923620D01*
X103956492Y-89858092D01*
X103986679Y-89800046D01*
X104012762Y-89749861D01*
X104034544Y-89707915D01*
X104051828Y-89674585D01*
X104064417Y-89650249D01*
X104072115Y-89635285D01*
X104074724Y-89630071D01*
X104071096Y-89629743D01*
X104056925Y-89629352D01*
X104032815Y-89628984D01*
X103999587Y-89628642D01*
X103958065Y-89628330D01*
X103909071Y-89628055D01*
X103853426Y-89627819D01*
X103791953Y-89627628D01*
X103725476Y-89627486D01*
X103654815Y-89627397D01*
X103580793Y-89627367D01*
X103086861Y-89627367D01*
X103078804Y-89640218D01*
X103077402Y-89642731D01*
X103070976Y-89654766D01*
X103059767Y-89676003D01*
X103044084Y-89705848D01*
X103024238Y-89743707D01*
X103000539Y-89788986D01*
X102973297Y-89841090D01*
X102942824Y-89899427D01*
X102909429Y-89963401D01*
X102873423Y-90032419D01*
X102835116Y-90105886D01*
X102794819Y-90183209D01*
X102752842Y-90263792D01*
X102709495Y-90347043D01*
X102682488Y-90398924D01*
X102629920Y-90499897D01*
X102573308Y-90608628D01*
X102513449Y-90723589D01*
X102451138Y-90843251D01*
X102387171Y-90966086D01*
X102322344Y-91090566D01*
X102257453Y-91215162D01*
X102193295Y-91338346D01*
X102130664Y-91458590D01*
X102070357Y-91574365D01*
X102013170Y-91684143D01*
X101959899Y-91786395D01*
X101911519Y-91879253D01*
X101819510Y-92055853D01*
X101732529Y-92222800D01*
X101650412Y-92380412D01*
X101572991Y-92529008D01*
X101500102Y-92668906D01*
X101431579Y-92800423D01*
X101367256Y-92923878D01*
X101306967Y-93039589D01*
X101250546Y-93147873D01*
X101197829Y-93249049D01*
X101148648Y-93343435D01*
X101102839Y-93431349D01*
X101060236Y-93513109D01*
X101020673Y-93589033D01*
X100983984Y-93659439D01*
X100950003Y-93724645D01*
X100918565Y-93784969D01*
X100889504Y-93840730D01*
X100862655Y-93892244D01*
X100837851Y-93939831D01*
X100814927Y-93983808D01*
X100793717Y-94024493D01*
X100774055Y-94062205D01*
X100755777Y-94097261D01*
X100738715Y-94129980D01*
X100722704Y-94160679D01*
X100707684Y-94189510D01*
X100681500Y-94239936D01*
X100657242Y-94286862D01*
X100635392Y-94329343D01*
X100616433Y-94366433D01*
X100600847Y-94397188D01*
X100589117Y-94420661D01*
X100581726Y-94435907D01*
X100579154Y-94441981D01*
X100187484Y-94441981D01*
X100484050Y-93872905D01*
X100487958Y-93865405D01*
X100522542Y-93799041D01*
X100561983Y-93723355D01*
X100605906Y-93639068D01*
X100653936Y-93546898D01*
X100705698Y-93447566D01*
X100760816Y-93341793D01*
X100818915Y-93230296D01*
X100879621Y-93113798D01*
X100942558Y-92993018D01*
X101007350Y-92868675D01*
X101073624Y-92741490D01*
X101141003Y-92612183D01*
X101209112Y-92481473D01*
X101277576Y-92350081D01*
X101346021Y-92218727D01*
X101414070Y-92088130D01*
X101481349Y-91959011D01*
X101547483Y-91832089D01*
X101563867Y-91800646D01*
X101629605Y-91674484D01*
X101696069Y-91546932D01*
X101762904Y-91418669D01*
X101829758Y-91290372D01*
X101896277Y-91162718D01*
X101962109Y-91036385D01*
X102026899Y-90912051D01*
X102090296Y-90790394D01*
X102151946Y-90672091D01*
X102211496Y-90557819D01*
X102268592Y-90448258D01*
X102322882Y-90344083D01*
X102374012Y-90245973D01*
X102421629Y-90154606D01*
X102465381Y-90070659D01*
X102504913Y-89994810D01*
X102539873Y-89927736D01*
X102569908Y-89870115D01*
X102873597Y-89287520D01*
X103692634Y-89287520D01*
X104511671Y-89287520D01*
X104513207Y-89410628D01*
X104514743Y-89533736D01*
X104464503Y-89630071D01*
X104111283Y-90307367D01*
G37*
G36*
X99227859Y-89306067D02*
G01*
X99229174Y-89308868D01*
X99231512Y-89313932D01*
X99234919Y-89321371D01*
X99239529Y-89331484D01*
X99245478Y-89344568D01*
X99252900Y-89360921D01*
X99261928Y-89380839D01*
X99272699Y-89404622D01*
X99285345Y-89432567D01*
X99300002Y-89464970D01*
X99316803Y-89502130D01*
X99335884Y-89544345D01*
X99357379Y-89591912D01*
X99381421Y-89645129D01*
X99408147Y-89704293D01*
X99437690Y-89769702D01*
X99470184Y-89841654D01*
X99505765Y-89920446D01*
X99544565Y-90006376D01*
X99586721Y-90099742D01*
X99632366Y-90200841D01*
X99681635Y-90309971D01*
X99734663Y-90427429D01*
X99791583Y-90553514D01*
X99852530Y-90688522D01*
X99917639Y-90832752D01*
X99987044Y-90986501D01*
X100060879Y-91150066D01*
X100139280Y-91323747D01*
X100163318Y-91376998D01*
X100209463Y-91479224D01*
X100255829Y-91581936D01*
X100302036Y-91684298D01*
X100347707Y-91785470D01*
X100392462Y-91884614D01*
X100435924Y-91980892D01*
X100477714Y-92073466D01*
X100517453Y-92161496D01*
X100554763Y-92244145D01*
X100589265Y-92320574D01*
X100620581Y-92389945D01*
X100648333Y-92451419D01*
X100672142Y-92504158D01*
X100691630Y-92547324D01*
X100843054Y-92882729D01*
X100481208Y-93572577D01*
X100119361Y-94262424D01*
X99993337Y-94263959D01*
X99867312Y-94265493D01*
X99685832Y-93858427D01*
X99682032Y-93849901D01*
X99654501Y-93788143D01*
X99622965Y-93717391D01*
X99587979Y-93638893D01*
X99550101Y-93553901D01*
X99509888Y-93463664D01*
X99467897Y-93369433D01*
X99424686Y-93272458D01*
X99380810Y-93173988D01*
X99336827Y-93075274D01*
X99293295Y-92977565D01*
X99250770Y-92882113D01*
X99209809Y-92790167D01*
X99206785Y-92783378D01*
X99170278Y-92701474D01*
X99135078Y-92622582D01*
X99101463Y-92547323D01*
X99069712Y-92476314D01*
X99040102Y-92410175D01*
X99012910Y-92349523D01*
X98988415Y-92294979D01*
X98966895Y-92247160D01*
X98948627Y-92206685D01*
X98933890Y-92174173D01*
X98922960Y-92150243D01*
X98916116Y-92135514D01*
X98913636Y-92130603D01*
X98913429Y-92133062D01*
X98913457Y-92145294D01*
X98913892Y-92166337D01*
X98914692Y-92194591D01*
X98915814Y-92228452D01*
X98917216Y-92266319D01*
X98917267Y-92267704D01*
X98917670Y-92285197D01*
X98918065Y-92313599D01*
X98918452Y-92352454D01*
X98918829Y-92401305D01*
X98919196Y-92459694D01*
X98919550Y-92527164D01*
X98919891Y-92603258D01*
X98920217Y-92687518D01*
X98920527Y-92779489D01*
X98920821Y-92878713D01*
X98921096Y-92984732D01*
X98921353Y-93097089D01*
X98921588Y-93215328D01*
X98921802Y-93338991D01*
X98921993Y-93467622D01*
X98922160Y-93600762D01*
X98922302Y-93737955D01*
X98922417Y-93878744D01*
X98922504Y-94022671D01*
X98922563Y-94169280D01*
X98922591Y-94318114D01*
X98922757Y-96235822D01*
X98385856Y-96235822D01*
X97848954Y-96235822D01*
X97848954Y-96064513D01*
X97848954Y-95893204D01*
X98213076Y-95891733D01*
X98577198Y-95890263D01*
X98578939Y-94216731D01*
X98579088Y-94067642D01*
X98579236Y-93901015D01*
X98579350Y-93745004D01*
X98579425Y-93599172D01*
X98579459Y-93463081D01*
X98579447Y-93336294D01*
X98579385Y-93218373D01*
X98579270Y-93108879D01*
X98579098Y-93007376D01*
X98578865Y-92913426D01*
X98578567Y-92826591D01*
X98578201Y-92746433D01*
X98577763Y-92672515D01*
X98577249Y-92604399D01*
X98576655Y-92541647D01*
X98575977Y-92483821D01*
X98575213Y-92430485D01*
X98574357Y-92381199D01*
X98573406Y-92335527D01*
X98572357Y-92293031D01*
X98571206Y-92253273D01*
X98569948Y-92215815D01*
X98568580Y-92180220D01*
X98567099Y-92146049D01*
X98565500Y-92112866D01*
X98563781Y-92080233D01*
X98561936Y-92047711D01*
X98559962Y-92014864D01*
X98559555Y-92008290D01*
X98549212Y-91860614D01*
X98536541Y-91711367D01*
X98521817Y-91563140D01*
X98505317Y-91418523D01*
X98487315Y-91280108D01*
X98468086Y-91150486D01*
X98465627Y-91134434D01*
X98462722Y-91113363D01*
X98461101Y-91098584D01*
X98461065Y-91092584D01*
X98461746Y-91092286D01*
X98470622Y-91089337D01*
X98488651Y-91083675D01*
X98514463Y-91075717D01*
X98546690Y-91065886D01*
X98583963Y-91054600D01*
X98624915Y-91042280D01*
X98786867Y-90993708D01*
X98798558Y-91020218D01*
X98799087Y-91021414D01*
X98803848Y-91032126D01*
X98812964Y-91052611D01*
X98826207Y-91082355D01*
X98843346Y-91120843D01*
X98864154Y-91167563D01*
X98888401Y-91221999D01*
X98915858Y-91283638D01*
X98946297Y-91351966D01*
X98979487Y-91426468D01*
X99015201Y-91506631D01*
X99053209Y-91591940D01*
X99093282Y-91681882D01*
X99135191Y-91775942D01*
X99178707Y-91873607D01*
X99223602Y-91974362D01*
X99269645Y-92077693D01*
X99307130Y-92161816D01*
X99355395Y-92270132D01*
X99403482Y-92378048D01*
X99451072Y-92484849D01*
X99497844Y-92589817D01*
X99543481Y-92692236D01*
X99587662Y-92791388D01*
X99630067Y-92886558D01*
X99670379Y-92977027D01*
X99708276Y-93062080D01*
X99743440Y-93140999D01*
X99775552Y-93213068D01*
X99804292Y-93277570D01*
X99829340Y-93333788D01*
X99850377Y-93381005D01*
X99867085Y-93418504D01*
X99890797Y-93471633D01*
X99914432Y-93524386D01*
X99936325Y-93573046D01*
X99956063Y-93616705D01*
X99973232Y-93654457D01*
X99987422Y-93685394D01*
X99998219Y-93708610D01*
X100005210Y-93723197D01*
X100007983Y-93728249D01*
X100009523Y-93725873D01*
X100015966Y-93714369D01*
X100027042Y-93693987D01*
X100042358Y-93665463D01*
X100061525Y-93629535D01*
X100084151Y-93586938D01*
X100109844Y-93538410D01*
X100138214Y-93484688D01*
X100168870Y-93426507D01*
X100201420Y-93364606D01*
X100235473Y-93299721D01*
X100460107Y-92871296D01*
X99973272Y-91793373D01*
X99933750Y-91705864D01*
X99881292Y-91589707D01*
X99828069Y-91471852D01*
X99774472Y-91353165D01*
X99720891Y-91234509D01*
X99667718Y-91116750D01*
X99615341Y-91000753D01*
X99564153Y-90887382D01*
X99514543Y-90777504D01*
X99466903Y-90671981D01*
X99421621Y-90571680D01*
X99379090Y-90477465D01*
X99339699Y-90390201D01*
X99303839Y-90310753D01*
X99271900Y-90239986D01*
X99244274Y-90178765D01*
X99218240Y-90121106D01*
X99185769Y-90049289D01*
X99154794Y-89980894D01*
X99125633Y-89916620D01*
X99098607Y-89857166D01*
X99074035Y-89803232D01*
X99052236Y-89755517D01*
X99033528Y-89714722D01*
X99018232Y-89681546D01*
X99006667Y-89656687D01*
X98999151Y-89640847D01*
X98996005Y-89634724D01*
X98993332Y-89633634D01*
X98986581Y-89632616D01*
X98975258Y-89631707D01*
X98958836Y-89630903D01*
X98936789Y-89630198D01*
X98908588Y-89629586D01*
X98873708Y-89629061D01*
X98831620Y-89628619D01*
X98781799Y-89628254D01*
X98723716Y-89627960D01*
X98656845Y-89627732D01*
X98580659Y-89627564D01*
X98494631Y-89627451D01*
X98398234Y-89627387D01*
X98290940Y-89627367D01*
X97591981Y-89627367D01*
X97590526Y-90208534D01*
X97589071Y-90789701D01*
X97417720Y-90789701D01*
X97246368Y-90789701D01*
X97246368Y-90038610D01*
X97246368Y-89287520D01*
X98232002Y-89286076D01*
X99217635Y-89284632D01*
X99227859Y-89306067D01*
G37*
G36*
X95686692Y-94294059D02*
G01*
X95686903Y-94335463D01*
X95687016Y-94385584D01*
X95687061Y-94445324D01*
X95687070Y-94515585D01*
X95687065Y-94588126D01*
X95687000Y-94650756D01*
X95686797Y-94703720D01*
X95686380Y-94747901D01*
X95685671Y-94784183D01*
X95684593Y-94813447D01*
X95683071Y-94836577D01*
X95681026Y-94854454D01*
X95678382Y-94867963D01*
X95675061Y-94877984D01*
X95670987Y-94885402D01*
X95666084Y-94891098D01*
X95660273Y-94895955D01*
X95653477Y-94900857D01*
X95649654Y-94903439D01*
X95640742Y-94907989D01*
X95629434Y-94911193D01*
X95613471Y-94913418D01*
X95590599Y-94915036D01*
X95558561Y-94916416D01*
X95481448Y-94919272D01*
X95479807Y-94979030D01*
X95479578Y-94986394D01*
X95477639Y-95016818D01*
X95473881Y-95037740D01*
X95467620Y-95050722D01*
X95458176Y-95057328D01*
X95444865Y-95059121D01*
X95434676Y-95058615D01*
X95424871Y-95055690D01*
X95418337Y-95048541D01*
X95414244Y-95035369D01*
X95411759Y-95014373D01*
X95410052Y-94983754D01*
X95407196Y-94919272D01*
X95318664Y-94919272D01*
X95230133Y-94919272D01*
X95227277Y-94983754D01*
X95226014Y-95008038D01*
X95223790Y-95031156D01*
X95220154Y-95046024D01*
X95214275Y-95054441D01*
X95205322Y-95058207D01*
X95192464Y-95059121D01*
X95189459Y-95059072D01*
X95176976Y-95056441D01*
X95168223Y-95048685D01*
X95162518Y-95034240D01*
X95159178Y-95011543D01*
X95157521Y-94979030D01*
X95155880Y-94919272D01*
X95075916Y-94919272D01*
X94995952Y-94919272D01*
X94993096Y-94979828D01*
X94991920Y-95000626D01*
X94989206Y-95026657D01*
X94984830Y-95043827D01*
X94977993Y-95053725D01*
X94967895Y-95057943D01*
X94953735Y-95058070D01*
X94949375Y-95057569D01*
X94936713Y-95053458D01*
X94927993Y-95044475D01*
X94922559Y-95029001D01*
X94919756Y-95005417D01*
X94918928Y-94972105D01*
X94918844Y-94916416D01*
X94847448Y-94916416D01*
X94776051Y-94916416D01*
X94775650Y-94972105D01*
X94775553Y-94981931D01*
X94774696Y-95009775D01*
X94772588Y-95029004D01*
X94768645Y-95041795D01*
X94762281Y-95050324D01*
X94752912Y-95056769D01*
X94750749Y-95057962D01*
X94738803Y-95063520D01*
X94729419Y-95063525D01*
X94716210Y-95058229D01*
X94710401Y-95055194D01*
X94704118Y-95049532D01*
X94699918Y-95040565D01*
X94697285Y-95026262D01*
X94695702Y-95004594D01*
X94694653Y-94973533D01*
X94693231Y-94919272D01*
X94610411Y-94919272D01*
X94527592Y-94919272D01*
X94524736Y-94979828D01*
X94523559Y-95000626D01*
X94520845Y-95026657D01*
X94516470Y-95043827D01*
X94509633Y-95053725D01*
X94499534Y-95057943D01*
X94485374Y-95058070D01*
X94480890Y-95057551D01*
X94468277Y-95053415D01*
X94459592Y-95044405D01*
X94454181Y-95028903D01*
X94451391Y-95005290D01*
X94450568Y-94971948D01*
X94450483Y-94916102D01*
X94369091Y-94917687D01*
X94287700Y-94919272D01*
X94284844Y-94983754D01*
X94283581Y-95008038D01*
X94281357Y-95031156D01*
X94277721Y-95046024D01*
X94271842Y-95054441D01*
X94262889Y-95058207D01*
X94250031Y-95059121D01*
X94247026Y-95059072D01*
X94234543Y-95056441D01*
X94225790Y-95048685D01*
X94220084Y-95034240D01*
X94216745Y-95011543D01*
X94215088Y-94979030D01*
X94213447Y-94919272D01*
X94138404Y-94917682D01*
X94063361Y-94916093D01*
X94061187Y-94979624D01*
X94060304Y-94999972D01*
X94057944Y-95025824D01*
X94053747Y-95042975D01*
X94046871Y-95053125D01*
X94036473Y-95057971D01*
X94021712Y-95059209D01*
X94017847Y-95059090D01*
X94006613Y-95056312D01*
X93998687Y-95048621D01*
X93993378Y-95034393D01*
X93989992Y-95012004D01*
X93987834Y-94979828D01*
X93984979Y-94919272D01*
X93905015Y-94916416D01*
X93899140Y-94916201D01*
X93864929Y-94914554D01*
X93839772Y-94912196D01*
X93821605Y-94908558D01*
X93808359Y-94903070D01*
X93797969Y-94895163D01*
X93788367Y-94884267D01*
X93787408Y-94883030D01*
X93785106Y-94879623D01*
X93783154Y-94875360D01*
X93781524Y-94869361D01*
X93780187Y-94860744D01*
X93779115Y-94848629D01*
X93778280Y-94832135D01*
X93777655Y-94810382D01*
X93777209Y-94782490D01*
X93776917Y-94747577D01*
X93776748Y-94704763D01*
X93776676Y-94653167D01*
X93776671Y-94591910D01*
X93776706Y-94520109D01*
X93776841Y-94290983D01*
X93939285Y-94290983D01*
X93939285Y-94519451D01*
X93939285Y-94747920D01*
X94728930Y-94749368D01*
X95518574Y-94750816D01*
X95518574Y-94519451D01*
X95518574Y-94288087D01*
X94728930Y-94289535D01*
X93939285Y-94290983D01*
X93776841Y-94290983D01*
X93776912Y-94171037D01*
X93789558Y-94156011D01*
X93798694Y-94146139D01*
X93811762Y-94136068D01*
X93827603Y-94129252D01*
X93848370Y-94125105D01*
X93876218Y-94123044D01*
X93913298Y-94122487D01*
X93987834Y-94122487D01*
X93987922Y-94055375D01*
X93988258Y-94029942D01*
X93989182Y-94006728D01*
X93990547Y-93989900D01*
X93992206Y-93981977D01*
X93996556Y-93976668D01*
X94012065Y-93967680D01*
X94029680Y-93966911D01*
X94045713Y-93973987D01*
X94056477Y-93988531D01*
X94058059Y-93995120D01*
X94060135Y-94012659D01*
X94061558Y-94036319D01*
X94062087Y-94062886D01*
X94062087Y-94122487D01*
X94150618Y-94122487D01*
X94239150Y-94122487D01*
X94239150Y-94055038D01*
X94239463Y-94027107D01*
X94241061Y-94001021D01*
X94244553Y-93983486D01*
X94250530Y-93972921D01*
X94259585Y-93967742D01*
X94272307Y-93966367D01*
X94274109Y-93966375D01*
X94287268Y-93967468D01*
X94296474Y-93971579D01*
X94302425Y-93980388D01*
X94305814Y-93995574D01*
X94307337Y-94018815D01*
X94307691Y-94051790D01*
X94307691Y-94122487D01*
X94390510Y-94122487D01*
X94473330Y-94122487D01*
X94473330Y-94056543D01*
X94473361Y-94040286D01*
X94473750Y-94016750D01*
X94474924Y-94000998D01*
X94477304Y-93990643D01*
X94481306Y-93983299D01*
X94487350Y-93976579D01*
X94490072Y-93973932D01*
X94503806Y-93964405D01*
X94516742Y-93964619D01*
X94532533Y-93974397D01*
X94538109Y-93979067D01*
X94542650Y-93984791D01*
X94545443Y-93992931D01*
X94546914Y-94005738D01*
X94547486Y-94025464D01*
X94547583Y-94054361D01*
X94547583Y-94122487D01*
X94621835Y-94122487D01*
X94696087Y-94122487D01*
X94696087Y-94051415D01*
X94696143Y-94028886D01*
X94696573Y-94006079D01*
X94697715Y-93991049D01*
X94699907Y-93981678D01*
X94703484Y-93975851D01*
X94708782Y-93971451D01*
X94724101Y-93964160D01*
X94743675Y-93964745D01*
X94762032Y-93976579D01*
X94765481Y-93980172D01*
X94770402Y-93986922D01*
X94773501Y-93995547D01*
X94775197Y-94008434D01*
X94775907Y-94027971D01*
X94776051Y-94056543D01*
X94776051Y-94122487D01*
X94858871Y-94122487D01*
X94941691Y-94122487D01*
X94941691Y-94056543D01*
X94941721Y-94040286D01*
X94942110Y-94016750D01*
X94943285Y-94000998D01*
X94945664Y-93990643D01*
X94949667Y-93983299D01*
X94955711Y-93976579D01*
X94958433Y-93973932D01*
X94972166Y-93964405D01*
X94985102Y-93964619D01*
X95000894Y-93974397D01*
X95006469Y-93979067D01*
X95011010Y-93984791D01*
X95013804Y-93992931D01*
X95015275Y-94005738D01*
X95015847Y-94025464D01*
X95015943Y-94054361D01*
X95015943Y-94122487D01*
X95098763Y-94122487D01*
X95181583Y-94122487D01*
X95181583Y-94055038D01*
X95181896Y-94027107D01*
X95183494Y-94001021D01*
X95186986Y-93983486D01*
X95192964Y-93972921D01*
X95202018Y-93967742D01*
X95214741Y-93966367D01*
X95216542Y-93966375D01*
X95229701Y-93967468D01*
X95238908Y-93971579D01*
X95244858Y-93980388D01*
X95248247Y-93995574D01*
X95249770Y-94018815D01*
X95250124Y-94051790D01*
X95250124Y-94122487D01*
X95330088Y-94122487D01*
X95410052Y-94122487D01*
X95410052Y-94051790D01*
X95410055Y-94047441D01*
X95410508Y-94015673D01*
X95412211Y-93993445D01*
X95415859Y-93979080D01*
X95422149Y-93970898D01*
X95431776Y-93967220D01*
X95445435Y-93966367D01*
X95455641Y-93967160D01*
X95465491Y-93971369D01*
X95472116Y-93980633D01*
X95476111Y-93996536D01*
X95478071Y-94020662D01*
X95478592Y-94054596D01*
X95478592Y-94121602D01*
X95555305Y-94123473D01*
X95563268Y-94123678D01*
X95596163Y-94125039D01*
X95620356Y-94127555D01*
X95638107Y-94131999D01*
X95651674Y-94139149D01*
X95663316Y-94149780D01*
X95675294Y-94164668D01*
X95675401Y-94164812D01*
X95677854Y-94168364D01*
X95679936Y-94172514D01*
X95681679Y-94178163D01*
X95683112Y-94186213D01*
X95684266Y-94197566D01*
X95685170Y-94213125D01*
X95685856Y-94233792D01*
X95686353Y-94260470D01*
X95686632Y-94288087D01*
X95686692Y-94294059D01*
G37*
G36*
X101747124Y-89007042D02*
G01*
X101742408Y-89027637D01*
X101742210Y-89028315D01*
X101745315Y-89036223D01*
X101757492Y-89048118D01*
X101779309Y-89064571D01*
X101783835Y-89067813D01*
X101813474Y-89091262D01*
X101843347Y-89118309D01*
X101872337Y-89147582D01*
X101899326Y-89177705D01*
X101923195Y-89207304D01*
X101942828Y-89235007D01*
X101957107Y-89259437D01*
X101964913Y-89279222D01*
X101965129Y-89292988D01*
X101959435Y-89299486D01*
X101946086Y-89301013D01*
X101927036Y-89295596D01*
X101903447Y-89284040D01*
X101876481Y-89267153D01*
X101847299Y-89245740D01*
X101817065Y-89220608D01*
X101786939Y-89192563D01*
X101758084Y-89162412D01*
X101731661Y-89130962D01*
X101727128Y-89125151D01*
X101713785Y-89108094D01*
X101703640Y-89095190D01*
X101698601Y-89088871D01*
X101698250Y-89088542D01*
X101690529Y-89088482D01*
X101678207Y-89093369D01*
X101675012Y-89094918D01*
X101653982Y-89100077D01*
X101623892Y-89100812D01*
X101586259Y-89099305D01*
X101547484Y-89133348D01*
X101514328Y-89164528D01*
X101473899Y-89206818D01*
X101431315Y-89255158D01*
X101388302Y-89307445D01*
X101346585Y-89361575D01*
X101307887Y-89415447D01*
X101273935Y-89466956D01*
X101236767Y-89526445D01*
X101250160Y-89552875D01*
X101252540Y-89557641D01*
X101267605Y-89592932D01*
X101277321Y-89628125D01*
X101282465Y-89666927D01*
X101283817Y-89713043D01*
X101283694Y-89725676D01*
X101282655Y-89755216D01*
X101280164Y-89778758D01*
X101275674Y-89800296D01*
X101268638Y-89823819D01*
X101253825Y-89868911D01*
X101273445Y-89907870D01*
X101275754Y-89912393D01*
X101299754Y-89954637D01*
X101330785Y-90002702D01*
X101367587Y-90054910D01*
X101408896Y-90109585D01*
X101453452Y-90165051D01*
X101499991Y-90219630D01*
X101547252Y-90271645D01*
X101591315Y-90318485D01*
X101624620Y-90318485D01*
X101638617Y-90318945D01*
X101659083Y-90321112D01*
X101673632Y-90324456D01*
X101677598Y-90325874D01*
X101688131Y-90327309D01*
X101694076Y-90321961D01*
X101701895Y-90310052D01*
X101720418Y-90287438D01*
X101745064Y-90261248D01*
X101773871Y-90233291D01*
X101804881Y-90205373D01*
X101836131Y-90179303D01*
X101865661Y-90156887D01*
X101891512Y-90139933D01*
X101900337Y-90134955D01*
X101928011Y-90121899D01*
X101950132Y-90115582D01*
X101965803Y-90116033D01*
X101974128Y-90123279D01*
X101974209Y-90137348D01*
X101969499Y-90149790D01*
X101955508Y-90173138D01*
X101934600Y-90200437D01*
X101908260Y-90230135D01*
X101877975Y-90260680D01*
X101845230Y-90290521D01*
X101811512Y-90318107D01*
X101778305Y-90341886D01*
X101761547Y-90353245D01*
X101745257Y-90365743D01*
X101737189Y-90374636D01*
X101736235Y-90380950D01*
X101746057Y-90417181D01*
X101745933Y-90437489D01*
X101745843Y-90452151D01*
X101736528Y-90484222D01*
X101719087Y-90511852D01*
X101694494Y-90533497D01*
X101663724Y-90547616D01*
X101627751Y-90552665D01*
X101615744Y-90552243D01*
X101595984Y-90549884D01*
X101582065Y-90546144D01*
X101581198Y-90545756D01*
X101575193Y-90543914D01*
X101569027Y-90544782D01*
X101561175Y-90549490D01*
X101550115Y-90559170D01*
X101534322Y-90574954D01*
X101512274Y-90597971D01*
X101509887Y-90600473D01*
X101486177Y-90624565D01*
X101462104Y-90647853D01*
X101440357Y-90667794D01*
X101423624Y-90681843D01*
X101422415Y-90682771D01*
X101390903Y-90705012D01*
X101361347Y-90722374D01*
X101335092Y-90734347D01*
X101313480Y-90740420D01*
X101297857Y-90740082D01*
X101289564Y-90732822D01*
X101289390Y-90723021D01*
X101296335Y-90705387D01*
X101310178Y-90683001D01*
X101329780Y-90657167D01*
X101353998Y-90629189D01*
X101381692Y-90600371D01*
X101411719Y-90572015D01*
X101442939Y-90545426D01*
X101474212Y-90521908D01*
X101480171Y-90517747D01*
X101499361Y-90504020D01*
X101510965Y-90494531D01*
X101516483Y-90487526D01*
X101517417Y-90481253D01*
X101515268Y-90473957D01*
X101513469Y-90467418D01*
X101511144Y-90449183D01*
X101511061Y-90443435D01*
X101596964Y-90443435D01*
X101606285Y-90457536D01*
X101619556Y-90465529D01*
X101633414Y-90465143D01*
X101643406Y-90455423D01*
X101647245Y-90437489D01*
X101646394Y-90429761D01*
X101638840Y-90417061D01*
X101625708Y-90412726D01*
X101609736Y-90418165D01*
X101598777Y-90429343D01*
X101596964Y-90443435D01*
X101511061Y-90443435D01*
X101510848Y-90428643D01*
X101511107Y-90422531D01*
X101510935Y-90410178D01*
X101508499Y-90400030D01*
X101502448Y-90389421D01*
X101491427Y-90375684D01*
X101474085Y-90356152D01*
X101439790Y-90320285D01*
X101394516Y-90277343D01*
X101343749Y-90232753D01*
X101289888Y-90188481D01*
X101235333Y-90146493D01*
X101182481Y-90108755D01*
X101133734Y-90077233D01*
X101131401Y-90075823D01*
X101109815Y-90063048D01*
X101095183Y-90055447D01*
X101085009Y-90052189D01*
X101076797Y-90052444D01*
X101068049Y-90055381D01*
X101048851Y-90063055D01*
X101019986Y-90073576D01*
X100995330Y-90080422D01*
X100970979Y-90084349D01*
X100943029Y-90086112D01*
X100907578Y-90086469D01*
X100891141Y-90086356D01*
X100858555Y-90085253D01*
X100831770Y-90082357D01*
X100806847Y-90076906D01*
X100779846Y-90068134D01*
X100746830Y-90055276D01*
X100739701Y-90052693D01*
X100731189Y-90051641D01*
X100721413Y-90054162D01*
X100707575Y-90061097D01*
X100686874Y-90073286D01*
X100675015Y-90080550D01*
X100622250Y-90115636D01*
X100565816Y-90157565D01*
X100504959Y-90206942D01*
X100438926Y-90264373D01*
X100366964Y-90330463D01*
X100294711Y-90398337D01*
X100294632Y-90431235D01*
X100294316Y-90440566D01*
X100294170Y-90444856D01*
X100292061Y-90464898D01*
X100288837Y-90478929D01*
X100287169Y-90483890D01*
X100287016Y-90490828D01*
X100291464Y-90498039D01*
X100302079Y-90507645D01*
X100320425Y-90521767D01*
X100348734Y-90544924D01*
X100378517Y-90572953D01*
X100407226Y-90603334D01*
X100433791Y-90634648D01*
X100457144Y-90665481D01*
X100476214Y-90694416D01*
X100489932Y-90720036D01*
X100497229Y-90740925D01*
X100497035Y-90755666D01*
X100495730Y-90758324D01*
X100487699Y-90763354D01*
X100473491Y-90761204D01*
X100451841Y-90751766D01*
X100442549Y-90746678D01*
X100411866Y-90726119D01*
X100378033Y-90698946D01*
X100343371Y-90667353D01*
X100310201Y-90633537D01*
X100280844Y-90599693D01*
X100257621Y-90568018D01*
X100254627Y-90563473D01*
X100244239Y-90549717D01*
X100236159Y-90543936D01*
X100228120Y-90544308D01*
X100219877Y-90546184D01*
X100202419Y-90548803D01*
X100181720Y-90550979D01*
X100159179Y-90551823D01*
X100141254Y-90549200D01*
X100124062Y-90542182D01*
X100097087Y-90524317D01*
X100073510Y-90497294D01*
X100059538Y-90465061D01*
X100057216Y-90443439D01*
X100148368Y-90443439D01*
X100154031Y-90454403D01*
X100159333Y-90460345D01*
X100173307Y-90466814D01*
X100187304Y-90464062D01*
X100197711Y-90452266D01*
X100201320Y-90440566D01*
X100198394Y-90427992D01*
X100193215Y-90422786D01*
X100179505Y-90418650D01*
X100164446Y-90421174D01*
X100152976Y-90430128D01*
X100150611Y-90433948D01*
X100148368Y-90443439D01*
X100057216Y-90443439D01*
X100055643Y-90428789D01*
X100062301Y-90389646D01*
X100062946Y-90386374D01*
X100060833Y-90378576D01*
X100052112Y-90369412D01*
X100035077Y-90356823D01*
X100027622Y-90351365D01*
X100005913Y-90333349D01*
X99980264Y-90309962D01*
X99953069Y-90283566D01*
X99926725Y-90256526D01*
X99903629Y-90231203D01*
X99886175Y-90209962D01*
X99880518Y-90202243D01*
X99862230Y-90173869D01*
X99849623Y-90148410D01*
X99843170Y-90127274D01*
X99843341Y-90111875D01*
X99850609Y-90103620D01*
X99861489Y-90104147D01*
X99879354Y-90111389D01*
X99902038Y-90124418D01*
X99927799Y-90142123D01*
X99954894Y-90163392D01*
X99981582Y-90187115D01*
X99997421Y-90202603D01*
X100020335Y-90226317D01*
X100043056Y-90251103D01*
X100064004Y-90275137D01*
X100081599Y-90296590D01*
X100094260Y-90313636D01*
X100100406Y-90324448D01*
X100103198Y-90327150D01*
X100112896Y-90326782D01*
X100130998Y-90321457D01*
X100153254Y-90315745D01*
X100188616Y-90315072D01*
X100217889Y-90318417D01*
X100277148Y-90257034D01*
X100279773Y-90254308D01*
X100330976Y-90198498D01*
X100380969Y-90139241D01*
X100428188Y-90078623D01*
X100471068Y-90018734D01*
X100508045Y-89961661D01*
X100537553Y-89909493D01*
X100558461Y-89868907D01*
X100544533Y-89823817D01*
X100538855Y-89804002D01*
X100534695Y-89784393D01*
X100532266Y-89763524D01*
X100531185Y-89738012D01*
X100531072Y-89704475D01*
X100531104Y-89699861D01*
X100531665Y-89668289D01*
X100533058Y-89644528D01*
X100535710Y-89625367D01*
X100540043Y-89607597D01*
X100546484Y-89588007D01*
X100561430Y-89545792D01*
X100549583Y-89522323D01*
X100539465Y-89503799D01*
X100515920Y-89466589D01*
X100485657Y-89423972D01*
X100449805Y-89377356D01*
X100409499Y-89328144D01*
X100365868Y-89277744D01*
X100320045Y-89227560D01*
X100273161Y-89178997D01*
X100193614Y-89099033D01*
X100162199Y-89098569D01*
X100152548Y-89098058D01*
X100129726Y-89094367D01*
X100111873Y-89088246D01*
X100106675Y-89085562D01*
X100096235Y-89081560D01*
X100089198Y-89084184D01*
X100080548Y-89094422D01*
X100073070Y-89103692D01*
X100045417Y-89133821D01*
X100012153Y-89165488D01*
X99975817Y-89196593D01*
X99938947Y-89225034D01*
X99904081Y-89248712D01*
X99873758Y-89265527D01*
X99864712Y-89269410D01*
X99843732Y-89276025D01*
X99825610Y-89278732D01*
X99812879Y-89277301D01*
X99808073Y-89271503D01*
X99808320Y-89268737D01*
X99814592Y-89253089D01*
X99828287Y-89232274D01*
X99848017Y-89207662D01*
X99872394Y-89180623D01*
X99900028Y-89152528D01*
X99929531Y-89124746D01*
X99959514Y-89098648D01*
X99988590Y-89075604D01*
X100015370Y-89056984D01*
X100038465Y-89044157D01*
X100040227Y-89043343D01*
X100047346Y-89039000D01*
X100050759Y-89032604D01*
X100051278Y-89021055D01*
X100049716Y-89001254D01*
X100048802Y-88988319D01*
X100048859Y-88986887D01*
X100140133Y-88986887D01*
X100148328Y-89001526D01*
X100161194Y-89009277D01*
X100175400Y-89008871D01*
X100186355Y-89000368D01*
X100190670Y-88985084D01*
X100188990Y-88973994D01*
X100180442Y-88961366D01*
X100167029Y-88957094D01*
X100151431Y-88962707D01*
X100142628Y-88972137D01*
X100140133Y-88986887D01*
X100048859Y-88986887D01*
X100049818Y-88962693D01*
X100055764Y-88940323D01*
X100063632Y-88924515D01*
X100081853Y-88900678D01*
X100104270Y-88880814D01*
X100127353Y-88868466D01*
X100136338Y-88865986D01*
X100162167Y-88862517D01*
X100188517Y-88862944D01*
X100209787Y-88867343D01*
X100213113Y-88868468D01*
X100220375Y-88868928D01*
X100228084Y-88864897D01*
X100238439Y-88854874D01*
X100253635Y-88837357D01*
X100265238Y-88824150D01*
X100293899Y-88794985D01*
X100325723Y-88766405D01*
X100359133Y-88739511D01*
X100392556Y-88715402D01*
X100424416Y-88695178D01*
X100453139Y-88679941D01*
X100477148Y-88670789D01*
X100494870Y-88668825D01*
X100502240Y-88671381D01*
X100508941Y-88681543D01*
X100507713Y-88697574D01*
X100498440Y-88717868D01*
X100494915Y-88723370D01*
X100474694Y-88749541D01*
X100447170Y-88779347D01*
X100414336Y-88810945D01*
X100378184Y-88842488D01*
X100340705Y-88872132D01*
X100303892Y-88898034D01*
X100271378Y-88919289D01*
X100280089Y-88940137D01*
X100282313Y-88946532D01*
X100286571Y-88968649D01*
X100287300Y-88985084D01*
X100287646Y-88992883D01*
X100287247Y-89006010D01*
X100286992Y-89022373D01*
X100287175Y-89031532D01*
X100287185Y-89031604D01*
X100291768Y-89038057D01*
X100303589Y-89050619D01*
X100321246Y-89068002D01*
X100343339Y-89088912D01*
X100368464Y-89112059D01*
X100395223Y-89136151D01*
X100422213Y-89159898D01*
X100448033Y-89182008D01*
X100471283Y-89201191D01*
X100486682Y-89213173D01*
X100515068Y-89234122D01*
X100548395Y-89257773D01*
X100584316Y-89282537D01*
X100620482Y-89306822D01*
X100654545Y-89329037D01*
X100684158Y-89347591D01*
X100706971Y-89360892D01*
X100734833Y-89376064D01*
X100786935Y-89357545D01*
X100799319Y-89353205D01*
X100819728Y-89346708D01*
X100837539Y-89342587D01*
X100856258Y-89340324D01*
X100879388Y-89339402D01*
X100910434Y-89339303D01*
X100930766Y-89339498D01*
X100959038Y-89340523D01*
X100980891Y-89342748D01*
X100999497Y-89346556D01*
X101018026Y-89352331D01*
X101054221Y-89365084D01*
X101097990Y-89341528D01*
X101133907Y-89321109D01*
X101201929Y-89277225D01*
X101274754Y-89224017D01*
X101351853Y-89161880D01*
X101432699Y-89091208D01*
X101510164Y-89021002D01*
X101510566Y-88985765D01*
X101510586Y-88985234D01*
X101597995Y-88985234D01*
X101604778Y-88999488D01*
X101618504Y-89008806D01*
X101632408Y-89008865D01*
X101643020Y-89000348D01*
X101647245Y-88984356D01*
X101643838Y-88971226D01*
X101632612Y-88961905D01*
X101616286Y-88961328D01*
X101613075Y-88962323D01*
X101601125Y-88971637D01*
X101597995Y-88985234D01*
X101510586Y-88985234D01*
X101511175Y-88969423D01*
X101512941Y-88950890D01*
X101515378Y-88939240D01*
X101516438Y-88934830D01*
X101514151Y-88927513D01*
X101505320Y-88918546D01*
X101488282Y-88905880D01*
X101465167Y-88888831D01*
X101432232Y-88861628D01*
X101401129Y-88832733D01*
X101372614Y-88803167D01*
X101347441Y-88773949D01*
X101326365Y-88746100D01*
X101310139Y-88720641D01*
X101299518Y-88698593D01*
X101295257Y-88680976D01*
X101298110Y-88668810D01*
X101308832Y-88663117D01*
X101322641Y-88664409D01*
X101344796Y-88673227D01*
X101371587Y-88688939D01*
X101401654Y-88710424D01*
X101433639Y-88736560D01*
X101466183Y-88766226D01*
X101497930Y-88798300D01*
X101527519Y-88831661D01*
X101553593Y-88865187D01*
X101560841Y-88874326D01*
X101567579Y-88878089D01*
X101574617Y-88874442D01*
X101582065Y-88870130D01*
X101601570Y-88865010D01*
X101625818Y-88863180D01*
X101650807Y-88864819D01*
X101672537Y-88870104D01*
X101683566Y-88875228D01*
X101709121Y-88893787D01*
X101730572Y-88918205D01*
X101744318Y-88944736D01*
X101747047Y-88956832D01*
X101748716Y-88981435D01*
X101748534Y-88984356D01*
X101747124Y-89007042D01*
G37*
%TD*%
M02*
