M48
; DRILL file {KiCad 9.0.0} date 2025-05-10T17:09:41+0200
; FORMAT={-:-/ absolute / inch / decimal}
; #@! TF.CreationDate,2025-05-10T17:09:41+02:00
; #@! TF.GenerationSoftware,Kicad,Pcbnew,9.0.0
; #@! TF.FileFunction,MixedPlating,1,2
FMAT,2
INCH
; #@! TA.AperFunction,Plated,PTH,ViaDrill
T1C0.0118
; #@! TA.AperFunction,Plated,PTH,ComponentDrill
T2C0.0236
; #@! TA.AperFunction,Plated,PTH,ComponentDrill
T3C0.0256
; #@! TA.AperFunction,Plated,PTH,ComponentDrill
T4C0.0276
; #@! TA.AperFunction,Plated,PTH,ComponentDrill
T5C0.0299
; #@! TA.AperFunction,Plated,PTH,ComponentDrill
T6C0.0300
; #@! TA.AperFunction,Plated,PTH,ComponentDrill
T7C0.0315
; #@! TA.AperFunction,Plated,PTH,ComponentDrill
T8C0.0394
; #@! TA.AperFunction,Plated,PTH,ComponentDrill
T9C0.0512
; #@! TA.AperFunction,Plated,PTH,ComponentDrill
T10C0.0551
; #@! TA.AperFunction,Plated,PTH,ComponentDrill
T11C0.1260
; #@! TA.AperFunction,NonPlated,NPTH,ComponentDrill
T12C0.0256
%
G90
G05
T1
X4.2323Y-2.4606
X4.2323Y-2.5591
X4.2323Y-2.6575
X4.2323Y-2.7559
X4.2323Y-2.8543
X4.2323Y-2.9528
X4.2323Y-3.0512
X4.2323Y-3.1496
X4.2323Y-3.248
X4.2323Y-3.6417
X4.2323Y-3.7402
X4.2323Y-3.937
X4.3307Y-2.4606
X4.3307Y-2.5591
X4.3307Y-2.6575
X4.3307Y-2.7559
X4.3307Y-2.8543
X4.3307Y-2.9528
X4.3307Y-3.0512
X4.3307Y-3.1496
X4.3307Y-3.6417
X4.3307Y-3.7402
X4.3307Y-3.937
X4.3307Y-4.5276
X4.3307Y-5.0197
X4.3307Y-5.1181
X4.4291Y-2.4606
X4.4291Y-2.5591
X4.4291Y-2.6575
X4.4291Y-2.7559
X4.4291Y-2.8543
X4.4291Y-3.937
X4.4291Y-4.5276
X4.4291Y-5.0197
X4.4291Y-5.1181
X4.5276Y-2.1654
X4.5276Y-2.2638
X4.5276Y-2.3622
X4.5276Y-2.4606
X4.5276Y-2.5591
X4.5276Y-2.6575
X4.5276Y-3.5433
X4.5276Y-3.937
X4.5276Y-5.0197
X4.5276Y-5.1181
X4.5276Y-5.2165
X4.5276Y-5.315
X4.5276Y-5.4134
X4.6063Y-3.5433
X4.626Y-2.1654
X4.626Y-2.2638
X4.626Y-2.3622
X4.626Y-2.4606
X4.626Y-2.5591
X4.626Y-2.6575
X4.626Y-2.9528
X4.626Y-3.0512
X4.626Y-3.937
X4.626Y-4.0354
X4.626Y-4.8228
X4.626Y-4.9213
X4.626Y-5.0197
X4.626Y-5.1181
X4.626Y-5.2165
X4.626Y-5.315
X4.626Y-5.4134
X4.685Y-3.5827
X4.7244Y-2.1654
X4.7244Y-3.8386
X4.7244Y-3.937
X4.7638Y-3.5827
X4.8228Y-2.1654
X4.8228Y-2.2638
X4.8228Y-2.3622
X4.8228Y-2.4606
X4.8228Y-2.5591
X4.8228Y-2.6575
X4.8228Y-3.248
X4.8228Y-3.7402
X4.8228Y-3.8386
X4.8228Y-4.0354
X4.8228Y-4.1339
X4.8228Y-4.2323
X4.8228Y-4.626
X4.8228Y-4.7244
X4.8228Y-4.8228
X4.8228Y-5.1181
X4.8228Y-5.315
X4.8228Y-5.4134
X4.8248Y-3.502
X4.9213Y-2.1654
X4.9213Y-2.2638
X4.9213Y-2.3622
X4.9213Y-2.4606
X4.9213Y-2.5591
X4.9213Y-2.6575
X4.9213Y-2.8543
X4.9213Y-3.248
X4.9213Y-3.7402
X4.9213Y-3.8386
X4.9213Y-4.0354
X4.9213Y-4.626
X4.9213Y-4.7244
X4.9213Y-4.8228
X4.9213Y-4.9213
X4.9213Y-5.0197
X4.9213Y-5.1181
X5.0197Y-2.5591
X5.0197Y-2.6575
X5.0197Y-2.8543
X5.0197Y-2.9528
X5.0197Y-3.248
X5.0197Y-3.5433
X5.0197Y-3.8386
X5.0197Y-4.0354
X5.0197Y-4.626
X5.0197Y-4.7244
X5.0197Y-4.8228
X5.0197Y-4.9213
X5.0197Y-5.1181
X5.0197Y-5.2165
X5.0197Y-5.315
X5.0197Y-5.4134
X5.0612Y-3.4294
X5.0622Y-3.5169
X5.1181Y-2.9528
X5.1181Y-3.6417
X5.1181Y-4.626
X5.1181Y-4.8228
X5.1181Y-5.1181
X5.1181Y-5.2165
X5.1181Y-5.315
X5.1181Y-5.4134
X5.122Y-3.3425
X5.1526Y-3.3317
X5.1646Y-3.0681
X5.1724Y-3.1535
X5.1724Y-3.4224
X5.1729Y-3.232
X5.1882Y-3.3213
X5.2039Y-3.0839
X5.2047Y-3.4606
X5.2165Y-2.9528
X5.2165Y-4.8228
X5.2165Y-4.9213
X5.2165Y-5.0197
X5.2402Y-3.4724
X5.2822Y-3.4933
X5.2835Y-3.3189
X5.2835Y-3.3504
X5.2906Y-3.0839
X5.315Y-2.5591
X5.315Y-2.6575
X5.315Y-5.4134
X5.3189Y-3.3006
X5.3504Y-3.3005
X5.3622Y-3.4933
X5.3819Y-3.3006
X5.3868Y-3.4134
X5.4074Y-3.1021
X5.4134Y-4.0354
X5.4803Y-3.2756
X5.4803Y-3.5197
X5.4939Y-3.304
X5.5118Y-2.1654
X5.5118Y-4.1339
X5.5118Y-4.2323
X5.5118Y-4.626
X5.5118Y-4.7244
X5.5118Y-4.8228
X5.5157Y-3.4055
X5.5187Y-3.3559
X5.6102Y-2.1654
X5.6102Y-4.626
X5.6102Y-4.7244
X5.6102Y-4.8228
X5.6102Y-4.9213
X5.6102Y-5.2165
X5.6102Y-5.315
X5.6102Y-5.4134
X5.689Y-3.3268
X5.7087Y-2.1654
X5.7087Y-3.5433
X5.7087Y-3.6417
X5.7087Y-3.7402
X5.7087Y-3.937
X5.7087Y-4.0354
X5.7087Y-4.1339
X5.7087Y-4.2323
X5.7087Y-4.626
X5.7087Y-4.7244
X5.7087Y-4.8228
X5.7087Y-4.9213
X5.7087Y-5.315
X5.7087Y-5.4134
X5.8071Y-2.1654
X5.8071Y-2.2638
X5.8071Y-2.3622
X5.8071Y-2.4606
X5.8071Y-2.5591
X5.8071Y-2.6575
X5.8071Y-2.8543
X5.8071Y-2.9528
X5.8071Y-3.3465
X5.8071Y-4.0354
X5.8071Y-4.8228
X5.8071Y-5.1181
X5.8268Y-3.5433
X5.8268Y-3.6417
X5.9055Y-2.1654
X5.9055Y-2.4606
X5.9055Y-2.5591
X5.9055Y-2.7559
X5.9055Y-3.0512
X5.9055Y-3.1496
X5.9055Y-3.5433
X5.9055Y-3.6417
X5.9055Y-4.8228
X5.9055Y-4.9213
X5.9055Y-5.0197
X5.9055Y-5.1181
X5.9055Y-5.2165
X5.9055Y-5.315
X5.9055Y-5.4134
X6.0039Y-2.1654
X6.0039Y-2.4606
X6.0039Y-2.6575
X6.0039Y-2.7559
X6.0039Y-2.9528
X6.0039Y-3.3465
X6.0039Y-5.0197
X6.0039Y-5.1181
X6.1024Y-2.1654
X6.1024Y-2.5591
X6.1024Y-2.6575
X6.1024Y-3.4449
X6.1024Y-3.5433
X6.1024Y-3.6417
X6.1024Y-5.1181
X6.1024Y-5.2165
X6.1024Y-5.315
X6.1024Y-5.4134
X6.1142Y-4.0591
X6.1614Y-3.9961
X6.2008Y-2.1654
X6.2008Y-2.4606
X6.2008Y-2.5591
X6.2008Y-2.7559
X6.2008Y-3.3465
X6.2008Y-3.4449
X6.2008Y-3.5433
X6.2008Y-3.6417
X6.2008Y-4.5276
X6.2008Y-4.626
X6.2008Y-4.7244
X6.2008Y-5.2165
X6.2008Y-5.315
X6.2008Y-5.4134
X6.2992Y-2.1654
X6.2992Y-2.4606
X6.2992Y-2.6575
X6.2992Y-2.7559
X6.2992Y-3.3465
X6.2992Y-3.4449
X6.2992Y-3.5433
X6.2992Y-3.6417
X6.2992Y-3.9961
X6.2992Y-4.4291
X6.2992Y-4.5276
X6.2992Y-4.626
X6.2992Y-4.7244
X6.3976Y-2.1654
X6.3976Y-2.7559
X6.3976Y-3.3465
X6.3976Y-4.3307
X6.3976Y-4.4291
X6.3976Y-4.5276
X6.3976Y-4.626
X6.3976Y-4.7244
X6.4764Y-3.8189
X6.4961Y-2.1654
X6.4961Y-2.4606
X6.4961Y-2.5591
X6.4961Y-2.9528
X6.4961Y-3.0512
X6.4961Y-3.3465
X6.4961Y-4.3307
X6.4961Y-4.4291
X6.4961Y-4.5276
X6.4961Y-4.9213
X6.4961Y-5.0197
X6.4961Y-5.1181
X6.5945Y-2.1654
X6.5945Y-2.9528
X6.5945Y-3.0512
X6.5945Y-4.3307
X6.5945Y-4.4291
X6.5945Y-4.5276
X6.5945Y-4.626
X6.5945Y-4.9213
X6.5945Y-5.0197
X6.6457Y-4.1417
X6.6929Y-3.4449
X6.6929Y-3.5433
X6.6929Y-4.0354
X6.6929Y-4.2323
X6.6929Y-4.4291
X6.6929Y-4.9213
X6.6929Y-5.0197
X6.6929Y-5.1181
X6.6929Y-5.2165
X6.6929Y-5.315
X6.6929Y-5.4134
X6.7913Y-3.4449
X6.7913Y-3.5433
X6.7913Y-4.0354
X6.7913Y-4.4291
X6.7913Y-5.0197
X6.7913Y-5.1181
X6.8898Y-2.4606
X6.8898Y-2.5591
X6.8898Y-2.6575
X6.8898Y-2.7559
X6.8898Y-3.8386
X6.8898Y-4.0354
X6.8898Y-4.4291
X6.8898Y-4.8228
X6.8898Y-5.0197
X6.8898Y-5.1181
X6.9882Y-2.4606
X6.9882Y-2.5591
X6.9882Y-2.6575
X6.9882Y-2.7559
X6.9882Y-2.8543
X6.9882Y-3.7402
X6.9882Y-3.8386
X6.9882Y-4.0354
X6.9882Y-4.4291
X6.9882Y-4.5276
X6.9882Y-5.0197
X6.9882Y-5.1181
T3
X6.4319Y-2.5591
X6.4319Y-2.6575
X6.4319Y-3.4252
X6.4319Y-3.5236
T4
X4.4409Y-3.0406
X4.4409Y-3.1406
X4.5591Y-3.0406
X4.5591Y-3.1406
X4.7539Y-3.0406
X4.7539Y-3.1406
X4.872Y-3.0406
X4.872Y-3.1406
T5
X4.5575Y-2.7925
X4.6575Y-2.7925
X4.7575Y-2.7925
X4.8575Y-2.7925
X5.0575Y-2.7925
X5.1575Y-2.7925
X5.2575Y-2.7925
T6
X5.1803Y-3.6508
X5.1803Y-3.7008
X5.2303Y-3.6508
X5.2303Y-3.7008
X5.2803Y-3.6508
X5.2803Y-3.7008
X5.3303Y-3.6508
X5.3303Y-3.7008
X5.3803Y-3.6508
X5.3803Y-3.7008
X5.4303Y-3.6508
X5.4303Y-3.7008
X5.4803Y-3.6508
X5.4803Y-3.7008
T7
X4.6555Y-2.3228
X4.7539Y-2.3228
X4.7988Y-4.9626
X4.8067Y-3.9705
X5.0988Y-4.9626
X5.1067Y-3.9705
X5.2161Y-3.9724
X5.4681Y-4.9626
X5.5161Y-3.9724
X5.6256Y-3.9724
X5.7681Y-4.9626
X5.9256Y-3.9724
X6.1295Y-4.9626
X6.4295Y-4.9626
T8
X4.3457Y-3.3701
X4.4457Y-3.3701
X4.5457Y-3.3701
X4.6457Y-3.3701
X4.7457Y-3.3701
X4.8457Y-3.3701
X5.574Y-2.3335
X5.574Y-2.4335
X5.574Y-2.5335
X5.574Y-2.6335
X5.574Y-2.7335
X5.574Y-2.8335
X5.574Y-2.9335
X5.574Y-3.0335
X5.574Y-3.1335
X5.574Y-3.2335
X5.674Y-2.3335
X5.674Y-2.4335
X5.674Y-2.5335
X5.674Y-2.6335
X5.674Y-2.7335
X5.674Y-2.8335
X5.674Y-2.9335
X5.674Y-3.0335
X5.674Y-3.1335
X5.674Y-3.2335
X5.8941Y-2.3504
X5.8941Y-2.8504
X5.8941Y-3.2183
X5.8941Y-3.7183
X5.9941Y-2.3504
X5.9941Y-2.8504
X5.9941Y-3.2183
X5.9941Y-3.7183
X6.0583Y-3.9016
X6.0677Y-3.0472
X6.0941Y-2.3504
X6.0941Y-2.8504
X6.0941Y-3.2183
X6.0941Y-3.7183
X6.1583Y-3.9016
X6.1677Y-3.0472
X6.1941Y-2.3504
X6.1941Y-2.8504
X6.1941Y-3.2183
X6.1941Y-3.7183
X6.2583Y-3.9016
X6.2677Y-3.0472
X6.2941Y-2.3504
X6.2941Y-2.8504
X6.2941Y-3.2183
X6.2941Y-3.7183
X6.3583Y-3.9016
X6.3677Y-3.0472
X6.3941Y-2.3504
X6.3941Y-2.8504
X6.3941Y-3.2183
X6.3941Y-3.7183
X6.4941Y-2.3504
X6.4941Y-2.8504
X6.4941Y-3.2183
X6.4941Y-3.7183
X6.5941Y-2.3504
X6.5941Y-2.4504
X6.5941Y-2.5504
X6.5941Y-2.8504
X6.5941Y-3.2183
X6.5941Y-3.3183
X6.5941Y-3.4183
X6.5941Y-3.7183
X6.748Y-2.4339
X6.748Y-2.5339
X6.748Y-2.6339
X6.748Y-3.0772
X6.748Y-3.1772
X6.748Y-3.2772
T9
X4.7204Y-4.2205
X4.7204Y-4.7008
X4.9566Y-4.1417
X5.1928Y-4.2205
X5.1928Y-4.7008
X5.3851Y-4.2205
X5.3851Y-4.7008
X5.6214Y-4.1417
X5.8576Y-4.2205
X5.8576Y-4.7008
X6.0499Y-4.2205
X6.0499Y-4.7008
X6.2861Y-4.1417
X6.5223Y-4.2205
X6.5223Y-4.7008
T10
X4.4331Y-4.1339
X4.4331Y-4.3339
X4.4365Y-4.6874
X4.4365Y-4.8874
X4.711Y-5.2406
X4.911Y-5.2406
X5.0874Y-2.3268
X5.2543Y-5.2406
X5.2874Y-2.3268
X5.4543Y-5.2406
X5.8055Y-5.2406
X6.0055Y-5.2406
X6.3488Y-5.2406
X6.5488Y-5.2406
X6.7997Y-4.6874
X6.7997Y-4.8874
X6.8031Y-4.1417
X6.8031Y-4.3417
T11
X4.3386Y-2.2402
X4.3386Y-5.3307
X6.8976Y-2.2402
X6.8976Y-5.3307
T12
X4.4165Y-3.5761
X4.4165Y-3.8036
T2
G00X4.2874Y-3.5198
M15
G01X4.2559Y-3.5198
M16
G05
G00X4.2874Y-3.8599
M15
G01X4.2559Y-3.8599
M16
G05
G00X4.4579Y-3.5198
M15
G01X4.4146Y-3.5198
M16
G05
G00X4.4579Y-3.8599
M15
G01X4.4146Y-3.8599
M16
G05
M30
