%TF.GenerationSoftware,KiCad,Pcbnew,9.0.0*%
%TF.CreationDate,2025-05-10T17:09:40+02:00*%
%TF.ProjectId,pcb_actionneurs,7063625f-6163-4746-996f-6e6e65757273,rev?*%
%TF.SameCoordinates,Original*%
%TF.FileFunction,Legend,Bot*%
%TF.FilePolarity,Positive*%
%FSLAX46Y46*%
G04 Gerber Fmt 4.6, Leading zero omitted, Abs format (unit mm)*
G04 Created by KiCad (PCBNEW 9.0.0) date 2025-05-10 17:09:40*
%MOMM*%
%LPD*%
G01*
G04 APERTURE LIST*
%ADD10C,0.100000*%
%ADD11C,0.000000*%
%TA.AperFunction,Profile*%
%ADD12C,0.050000*%
%TD*%
G04 APERTURE END LIST*
D10*
G36*
X143679623Y-112378053D02*
G01*
X143710306Y-112550152D01*
X143734028Y-112718771D01*
X143950229Y-112746032D01*
X144128144Y-112754309D01*
X144290881Y-112743611D01*
X144437997Y-112712635D01*
X144530705Y-112679011D01*
X144618265Y-112633541D01*
X144701321Y-112575706D01*
X144774859Y-112507083D01*
X144831454Y-112432592D01*
X144872688Y-112351491D01*
X144900788Y-112264121D01*
X144918161Y-112168365D01*
X144924162Y-112062979D01*
X144916097Y-111940336D01*
X144892717Y-111829190D01*
X144854736Y-111727848D01*
X144801547Y-111633835D01*
X144735291Y-111551419D01*
X144655159Y-111479544D01*
X144565175Y-111419368D01*
X144470276Y-111372175D01*
X144369761Y-111337486D01*
X144212581Y-111305476D01*
X144049284Y-111294713D01*
X143888713Y-111302709D01*
X143671379Y-111330342D01*
X143669273Y-111417629D01*
X143663045Y-111539811D01*
X143655626Y-111658971D01*
X143853371Y-111621052D01*
X143990849Y-111611252D01*
X144081221Y-111617670D01*
X144163304Y-111636320D01*
X144238420Y-111666756D01*
X144306718Y-111709440D01*
X144364087Y-111762890D01*
X144411527Y-111828048D01*
X144446467Y-111900768D01*
X144467488Y-111978391D01*
X144474633Y-112062247D01*
X144468398Y-112138769D01*
X144450585Y-112205024D01*
X144421877Y-112262831D01*
X144382552Y-112314273D01*
X144335201Y-112357156D01*
X144278995Y-112392066D01*
X144217261Y-112416552D01*
X144143825Y-112432189D01*
X144056428Y-112437770D01*
X143982480Y-112434905D01*
X143898525Y-112425771D01*
X143807524Y-112409227D01*
X143679623Y-112378053D01*
G37*
G36*
X143407597Y-111976426D02*
G01*
X143382135Y-111832719D01*
X143365374Y-111711361D01*
X143165084Y-111673471D01*
X142996476Y-111652759D01*
X142855486Y-111646423D01*
X142737232Y-111653504D01*
X142633286Y-111673717D01*
X142568479Y-111696735D01*
X142516462Y-111726337D01*
X142475200Y-111762194D01*
X142444739Y-111806312D01*
X142425252Y-111863400D01*
X142418139Y-111937225D01*
X142433526Y-112195603D01*
X142446417Y-112412751D01*
X142457157Y-112725091D01*
X142659848Y-112722984D01*
X142868034Y-112725091D01*
X142854763Y-112581135D01*
X142836161Y-112263747D01*
X142892947Y-112288476D01*
X142970433Y-112313206D01*
X143056803Y-112340958D01*
X143110384Y-112369351D01*
X143142349Y-112404431D01*
X143151783Y-112444273D01*
X143145206Y-112475294D01*
X143125039Y-112501884D01*
X143093017Y-112518911D01*
X143038943Y-112525697D01*
X142993331Y-112521851D01*
X142920241Y-112500235D01*
X142993606Y-112742310D01*
X143082604Y-112751418D01*
X143162957Y-112754309D01*
X143284413Y-112744588D01*
X143375815Y-112718497D01*
X143428511Y-112689574D01*
X143471950Y-112651278D01*
X143507157Y-112602725D01*
X143542117Y-112521245D01*
X143553227Y-112442624D01*
X143548985Y-112394359D01*
X143536191Y-112347003D01*
X143514788Y-112301550D01*
X143482977Y-112255595D01*
X143443750Y-112214281D01*
X143398255Y-112179392D01*
X143344562Y-112150318D01*
X143265997Y-112119857D01*
X143176319Y-112094058D01*
X143053872Y-112067284D01*
X142956328Y-112045211D01*
X142893313Y-112024786D01*
X142863363Y-112004911D01*
X142847060Y-111981555D01*
X142842114Y-111955726D01*
X142850092Y-111921434D01*
X142873896Y-111896100D01*
X142910313Y-111881019D01*
X142968326Y-111875034D01*
X143083988Y-111884516D01*
X143228373Y-111916333D01*
X143407597Y-111976426D01*
G37*
G36*
X142233674Y-112725091D02*
G01*
X142201709Y-112268143D01*
X142191451Y-112007658D01*
X142190443Y-111863677D01*
X142192550Y-111675641D01*
X141992790Y-111677747D01*
X141794037Y-111675641D01*
X141797976Y-111783718D01*
X141737526Y-111722444D01*
X141678541Y-111682144D01*
X141609298Y-111655216D01*
X141533736Y-111646423D01*
X141495420Y-111649292D01*
X141448831Y-111658788D01*
X141443702Y-111840963D01*
X141436374Y-111999232D01*
X141495263Y-111984916D01*
X141545001Y-111980547D01*
X141603354Y-111985324D01*
X141649965Y-111998499D01*
X141691196Y-112020813D01*
X141727817Y-112052629D01*
X141757780Y-112092561D01*
X141782039Y-112143396D01*
X141798007Y-112206053D01*
X141810615Y-112316595D01*
X141818767Y-112588529D01*
X141814462Y-112725091D01*
X142017428Y-112722984D01*
X142233674Y-112725091D01*
G37*
G36*
X140562046Y-112424947D02*
G01*
X140594744Y-112594207D01*
X140617642Y-112718680D01*
X140778201Y-112748080D01*
X140888660Y-112754309D01*
X140973531Y-112750330D01*
X141044273Y-112739288D01*
X141107794Y-112717559D01*
X141158121Y-112684333D01*
X141196888Y-112640717D01*
X141220311Y-112592376D01*
X141232684Y-112539354D01*
X141236889Y-112482558D01*
X141235881Y-112445372D01*
X141228737Y-112326853D01*
X141206389Y-111968824D01*
X141366215Y-111968824D01*
X141356782Y-111783443D01*
X141353668Y-111687456D01*
X141183217Y-111687456D01*
X141168196Y-111482841D01*
X140990692Y-111446938D01*
X140782048Y-111399402D01*
X140792397Y-111687456D01*
X140558749Y-111687456D01*
X140567083Y-111968824D01*
X140802839Y-111968824D01*
X140815020Y-112229309D01*
X140817035Y-112305054D01*
X140814136Y-112352885D01*
X140806502Y-112388036D01*
X140791689Y-112416704D01*
X140769683Y-112435205D01*
X140742201Y-112445861D01*
X140711339Y-112449494D01*
X140660506Y-112446196D01*
X140562046Y-112424947D01*
G37*
G36*
X139977581Y-111653923D02*
G01*
X140086871Y-111676373D01*
X140156521Y-111701044D01*
X140219995Y-111734669D01*
X140278022Y-111777490D01*
X140328219Y-111828990D01*
X140373439Y-111894107D01*
X140413485Y-111975052D01*
X140442813Y-112060495D01*
X140460189Y-112146298D01*
X140465967Y-112233155D01*
X140459373Y-112325909D01*
X140439680Y-112415788D01*
X140406755Y-112499559D01*
X140362835Y-112569020D01*
X140306631Y-112627958D01*
X140237539Y-112677006D01*
X140157871Y-112713016D01*
X140059944Y-112737273D01*
X139954584Y-112749871D01*
X139834904Y-112754309D01*
X139670682Y-112746157D01*
X139468540Y-112712818D01*
X139415967Y-112413040D01*
X139542384Y-112448326D01*
X139634045Y-112468728D01*
X139718353Y-112480956D01*
X139787735Y-112484665D01*
X139861438Y-112478528D01*
X139924380Y-112461088D01*
X139978519Y-112433099D01*
X140021117Y-112393145D01*
X140047059Y-112340865D01*
X140056372Y-112272173D01*
X140055547Y-112245337D01*
X139337473Y-112244330D01*
X139326943Y-112171200D01*
X139323735Y-112110423D01*
X139328371Y-112054370D01*
X139713821Y-112054370D01*
X139714645Y-112080198D01*
X140046571Y-112080198D01*
X140033016Y-112022130D01*
X140010759Y-111976609D01*
X139972932Y-111935118D01*
X139922099Y-111907824D01*
X139863572Y-111898482D01*
X139821758Y-111902731D01*
X139785537Y-111914968D01*
X139755126Y-111936154D01*
X139732414Y-111967450D01*
X139718743Y-112005919D01*
X139713821Y-112054370D01*
X139328371Y-112054370D01*
X139331769Y-112013284D01*
X139355242Y-111924677D01*
X139396745Y-111843832D01*
X139460938Y-111769979D01*
X139513384Y-111729246D01*
X139573315Y-111697234D01*
X139641830Y-111673900D01*
X139750247Y-111653397D01*
X139865679Y-111646423D01*
X139977581Y-111653923D01*
G37*
G36*
X138574520Y-111976426D02*
G01*
X138549057Y-111832719D01*
X138532296Y-111711361D01*
X138332007Y-111673471D01*
X138163399Y-111652759D01*
X138022409Y-111646423D01*
X137904154Y-111653504D01*
X137800209Y-111673717D01*
X137735402Y-111696735D01*
X137683384Y-111726337D01*
X137642123Y-111762194D01*
X137611662Y-111806312D01*
X137592174Y-111863400D01*
X137585061Y-111937225D01*
X137600449Y-112195603D01*
X137613340Y-112412751D01*
X137624079Y-112725091D01*
X137826770Y-112722984D01*
X138034957Y-112725091D01*
X138021685Y-112581135D01*
X138003083Y-112263747D01*
X138059870Y-112288476D01*
X138137356Y-112313206D01*
X138223726Y-112340958D01*
X138277307Y-112369351D01*
X138309272Y-112404431D01*
X138318706Y-112444273D01*
X138312128Y-112475294D01*
X138291961Y-112501884D01*
X138259940Y-112518911D01*
X138205866Y-112525697D01*
X138160253Y-112521851D01*
X138087164Y-112500235D01*
X138160528Y-112742310D01*
X138249527Y-112751418D01*
X138329880Y-112754309D01*
X138451335Y-112744588D01*
X138542738Y-112718497D01*
X138595433Y-112689574D01*
X138638872Y-112651278D01*
X138674079Y-112602725D01*
X138709040Y-112521245D01*
X138720150Y-112442624D01*
X138715907Y-112394359D01*
X138703114Y-112347003D01*
X138681711Y-112301550D01*
X138649899Y-112255595D01*
X138610673Y-112214281D01*
X138565177Y-112179392D01*
X138511484Y-112150318D01*
X138432920Y-112119857D01*
X138343242Y-112094058D01*
X138220795Y-112067284D01*
X138123251Y-112045211D01*
X138060236Y-112024786D01*
X138030286Y-112004911D01*
X138013982Y-111981555D01*
X138009036Y-111955726D01*
X138017014Y-111921434D01*
X138040819Y-111896100D01*
X138077235Y-111881019D01*
X138135249Y-111875034D01*
X138250911Y-111884516D01*
X138395296Y-111916333D01*
X138574520Y-111976426D01*
G37*
G36*
X136519949Y-112395180D02*
G01*
X136545045Y-112551709D01*
X136572064Y-112718680D01*
X136734554Y-112745579D01*
X136889244Y-112754309D01*
X136997541Y-112748256D01*
X137085707Y-112731594D01*
X137180452Y-112694472D01*
X137265134Y-112636523D01*
X137314963Y-112586272D01*
X137354290Y-112530967D01*
X137383836Y-112470010D01*
X137407977Y-112393840D01*
X137422913Y-112310302D01*
X137428074Y-112218318D01*
X137417233Y-112092580D01*
X137384843Y-111971846D01*
X137350676Y-111896050D01*
X137308087Y-111831234D01*
X137256982Y-111776116D01*
X137197717Y-111729833D01*
X137135443Y-111695679D01*
X137069495Y-111672801D01*
X136963374Y-111653282D01*
X136842075Y-111646423D01*
X136695254Y-111654117D01*
X136617046Y-111665536D01*
X136510423Y-111688005D01*
X136508225Y-111713651D01*
X136503554Y-111788847D01*
X136496868Y-111909931D01*
X136490457Y-112005368D01*
X136592213Y-111973797D01*
X136678973Y-111956543D01*
X136752957Y-111951238D01*
X136829660Y-111959399D01*
X136893457Y-111982562D01*
X136945984Y-112020986D01*
X136982484Y-112072871D01*
X137003798Y-112135186D01*
X137011335Y-112210258D01*
X137004403Y-112285649D01*
X136985598Y-112342973D01*
X136952368Y-112389264D01*
X136903166Y-112422841D01*
X136844355Y-112442694D01*
X136778602Y-112449494D01*
X136696445Y-112442349D01*
X136613830Y-112426321D01*
X136519949Y-112395180D01*
G37*
G36*
X135569234Y-112424947D02*
G01*
X135601932Y-112594207D01*
X135624829Y-112718680D01*
X135785389Y-112748080D01*
X135895847Y-112754309D01*
X135980719Y-112750330D01*
X136051461Y-112739288D01*
X136114982Y-112717559D01*
X136165308Y-112684333D01*
X136204075Y-112640717D01*
X136227499Y-112592376D01*
X136239872Y-112539354D01*
X136244077Y-112482558D01*
X136243069Y-112445372D01*
X136235925Y-112326853D01*
X136213577Y-111968824D01*
X136373403Y-111968824D01*
X136363969Y-111783443D01*
X136360855Y-111687456D01*
X136190404Y-111687456D01*
X136175383Y-111482841D01*
X135997880Y-111446938D01*
X135789235Y-111399402D01*
X135799585Y-111687456D01*
X135565936Y-111687456D01*
X135574271Y-111968824D01*
X135810027Y-111968824D01*
X135822208Y-112229309D01*
X135824223Y-112305054D01*
X135821324Y-112352885D01*
X135813690Y-112388036D01*
X135798877Y-112416704D01*
X135776871Y-112435205D01*
X135749389Y-112445861D01*
X135718527Y-112449494D01*
X135667694Y-112446196D01*
X135569234Y-112424947D01*
G37*
G36*
X135386235Y-111546864D02*
G01*
X135379915Y-111352599D01*
X135381014Y-111294622D01*
X135169988Y-111296728D01*
X134963908Y-111294622D01*
X134968213Y-111350767D01*
X134974441Y-111476888D01*
X134976456Y-111546864D01*
X135174110Y-111544757D01*
X135386235Y-111546864D01*
G37*
G36*
X135450990Y-112725091D02*
G01*
X135429099Y-112516447D01*
X135415269Y-112310092D01*
X135403454Y-112032205D01*
X135395211Y-111675732D01*
X135179147Y-111677747D01*
X134966931Y-111675641D01*
X134992301Y-112018100D01*
X135002010Y-112327586D01*
X135006132Y-112725091D01*
X135219173Y-112722984D01*
X135450990Y-112725091D01*
G37*
G36*
X134311304Y-111657445D02*
G01*
X134440099Y-111690295D01*
X134521616Y-111724501D01*
X134592092Y-111766324D01*
X134652773Y-111815683D01*
X134705643Y-111873236D01*
X134747251Y-111934352D01*
X134778436Y-111999507D01*
X134808119Y-112103956D01*
X134818095Y-112214196D01*
X134807874Y-112324486D01*
X134777429Y-112429069D01*
X134745687Y-112494199D01*
X134705282Y-112552501D01*
X134655796Y-112604649D01*
X134598840Y-112648681D01*
X134532173Y-112685897D01*
X134454479Y-112716115D01*
X134331995Y-112744684D01*
X134203428Y-112754309D01*
X134064347Y-112743334D01*
X133934425Y-112710986D01*
X133853096Y-112676420D01*
X133783727Y-112632891D01*
X133724864Y-112580377D01*
X133674215Y-112519409D01*
X133635584Y-112457245D01*
X133607903Y-112393440D01*
X133582100Y-112291686D01*
X133573373Y-112183422D01*
X133573942Y-112177010D01*
X133990112Y-112177010D01*
X133996702Y-112251871D01*
X134016032Y-112320533D01*
X134048821Y-112380149D01*
X134092419Y-112421375D01*
X134145849Y-112446767D01*
X134206450Y-112455355D01*
X134259754Y-112448609D01*
X134305607Y-112429005D01*
X134345852Y-112396004D01*
X134375423Y-112353108D01*
X134394406Y-112297198D01*
X134401356Y-112224454D01*
X134394746Y-112149868D01*
X134375527Y-112082946D01*
X134342787Y-112025149D01*
X134299140Y-111984760D01*
X134245514Y-111959753D01*
X134183919Y-111951238D01*
X134125535Y-111959054D01*
X134076482Y-111981646D01*
X134036982Y-112017192D01*
X134010354Y-112062888D01*
X133995357Y-112115804D01*
X133990112Y-112177010D01*
X133573942Y-112177010D01*
X133583200Y-112072683D01*
X133612024Y-111971205D01*
X133642401Y-111908446D01*
X133682217Y-111851144D01*
X133732100Y-111798739D01*
X133789284Y-111754088D01*
X133855344Y-111716349D01*
X133931402Y-111685624D01*
X134051300Y-111656285D01*
X134176775Y-111646423D01*
X134311304Y-111657445D01*
G37*
G36*
X133438551Y-112725091D02*
G01*
X133412561Y-112484160D01*
X133392663Y-112209433D01*
X133379875Y-111932185D01*
X133373704Y-111675641D01*
X133158648Y-111677747D01*
X132956598Y-111675641D01*
X132966490Y-111809089D01*
X132913642Y-111754684D01*
X132852185Y-111710720D01*
X132774241Y-111675732D01*
X132684207Y-111654300D01*
X132581716Y-111646423D01*
X132508225Y-111650477D01*
X132437002Y-111662543D01*
X132370270Y-111682737D01*
X132318850Y-111708247D01*
X132274996Y-111741628D01*
X132239166Y-111782161D01*
X132212339Y-111828380D01*
X132196667Y-111877416D01*
X132186318Y-111982196D01*
X132194561Y-112149991D01*
X132211963Y-112519927D01*
X132217092Y-112725091D01*
X132413647Y-112722984D01*
X132639235Y-112725091D01*
X132619543Y-112445555D01*
X132609285Y-112187635D01*
X132615344Y-112110912D01*
X132630827Y-112059373D01*
X132653066Y-112025976D01*
X132684615Y-112000797D01*
X132720823Y-111985748D01*
X132763158Y-111980547D01*
X132819217Y-111989913D01*
X132873617Y-112019016D01*
X132918720Y-112064911D01*
X132954125Y-112131398D01*
X132976358Y-112217550D01*
X132994334Y-112375396D01*
X133010271Y-112725091D01*
X133212870Y-112722984D01*
X133438551Y-112725091D01*
G37*
G36*
X132011195Y-112725091D02*
G01*
X131985206Y-112484160D01*
X131965308Y-112209433D01*
X131952519Y-111932185D01*
X131946349Y-111675641D01*
X131731293Y-111677747D01*
X131529243Y-111675641D01*
X131539135Y-111809089D01*
X131486287Y-111754684D01*
X131424829Y-111710720D01*
X131346885Y-111675732D01*
X131256851Y-111654300D01*
X131154361Y-111646423D01*
X131080870Y-111650477D01*
X131009647Y-111662543D01*
X130942914Y-111682737D01*
X130891495Y-111708247D01*
X130847641Y-111741628D01*
X130811810Y-111782161D01*
X130784984Y-111828380D01*
X130769312Y-111877416D01*
X130758962Y-111982196D01*
X130767206Y-112149991D01*
X130784608Y-112519927D01*
X130789737Y-112725091D01*
X130986291Y-112722984D01*
X131211880Y-112725091D01*
X131192188Y-112445555D01*
X131181930Y-112187635D01*
X131187989Y-112110912D01*
X131203472Y-112059373D01*
X131225710Y-112025976D01*
X131257260Y-112000797D01*
X131293468Y-111985748D01*
X131335803Y-111980547D01*
X131391862Y-111989913D01*
X131446262Y-112019016D01*
X131491365Y-112064911D01*
X131526770Y-112131398D01*
X131549003Y-112217550D01*
X131566979Y-112375396D01*
X131582916Y-112725091D01*
X131785515Y-112722984D01*
X132011195Y-112725091D01*
G37*
G36*
X130113589Y-111653923D02*
G01*
X130222880Y-111676373D01*
X130292529Y-111701044D01*
X130356004Y-111734669D01*
X130414030Y-111777490D01*
X130464228Y-111828990D01*
X130509447Y-111894107D01*
X130549494Y-111975052D01*
X130578822Y-112060495D01*
X130596197Y-112146298D01*
X130601975Y-112233155D01*
X130595381Y-112325909D01*
X130575689Y-112415788D01*
X130542764Y-112499559D01*
X130498844Y-112569020D01*
X130442640Y-112627958D01*
X130373547Y-112677006D01*
X130293879Y-112713016D01*
X130195952Y-112737273D01*
X130090592Y-112749871D01*
X129970913Y-112754309D01*
X129806690Y-112746157D01*
X129604549Y-112712818D01*
X129551975Y-112413040D01*
X129678393Y-112448326D01*
X129770054Y-112468728D01*
X129854361Y-112480956D01*
X129923743Y-112484665D01*
X129997446Y-112478528D01*
X130060389Y-112461088D01*
X130114528Y-112433099D01*
X130157125Y-112393145D01*
X130183067Y-112340865D01*
X130192380Y-112272173D01*
X130191556Y-112245337D01*
X129473482Y-112244330D01*
X129462951Y-112171200D01*
X129459743Y-112110423D01*
X129464379Y-112054370D01*
X129849829Y-112054370D01*
X129850654Y-112080198D01*
X130182580Y-112080198D01*
X130169024Y-112022130D01*
X130146768Y-111976609D01*
X130108941Y-111935118D01*
X130058107Y-111907824D01*
X129999581Y-111898482D01*
X129957766Y-111902731D01*
X129921545Y-111914968D01*
X129891134Y-111936154D01*
X129868422Y-111967450D01*
X129854751Y-112005919D01*
X129849829Y-112054370D01*
X129464379Y-112054370D01*
X129467777Y-112013284D01*
X129491250Y-111924677D01*
X129532753Y-111843832D01*
X129596946Y-111769979D01*
X129649392Y-111729246D01*
X129709323Y-111697234D01*
X129777839Y-111673900D01*
X129886255Y-111653397D01*
X130001687Y-111646423D01*
X130113589Y-111653923D01*
G37*
G36*
X128178201Y-112725091D02*
G01*
X128375763Y-112722984D01*
X128572317Y-112725091D01*
X128573233Y-112590361D01*
X128630935Y-112654383D01*
X128687264Y-112695782D01*
X128755408Y-112726557D01*
X128841961Y-112746981D01*
X128941338Y-112754309D01*
X129021183Y-112749411D01*
X129095394Y-112735075D01*
X129164141Y-112709090D01*
X129223530Y-112670136D01*
X129270796Y-112620143D01*
X129299092Y-112565906D01*
X129313920Y-112504839D01*
X129319242Y-112430809D01*
X129316128Y-112373381D01*
X129299825Y-112141381D01*
X129286544Y-111858456D01*
X129282423Y-111675641D01*
X129063245Y-111677747D01*
X128861287Y-111675641D01*
X128893344Y-112068292D01*
X128901038Y-112189192D01*
X128901495Y-112232514D01*
X128895501Y-112305333D01*
X128880391Y-112352481D01*
X128858906Y-112381625D01*
X128812261Y-112410467D01*
X128756873Y-112420184D01*
X128708513Y-112412949D01*
X128662168Y-112392341D01*
X128626905Y-112361566D01*
X128596680Y-112314030D01*
X128572226Y-112240391D01*
X128554915Y-112100532D01*
X128543649Y-111892162D01*
X128535314Y-111675732D01*
X128315221Y-111677747D01*
X128120407Y-111675641D01*
X128157684Y-112172431D01*
X128178201Y-112725091D01*
G37*
G36*
X127952795Y-112725091D02*
G01*
X127920830Y-112268143D01*
X127910572Y-112007658D01*
X127909564Y-111863677D01*
X127911671Y-111675641D01*
X127711911Y-111677747D01*
X127513158Y-111675641D01*
X127517096Y-111783718D01*
X127456646Y-111722444D01*
X127397662Y-111682144D01*
X127328419Y-111655216D01*
X127252856Y-111646423D01*
X127214541Y-111649292D01*
X127167951Y-111658788D01*
X127162822Y-111840963D01*
X127155495Y-111999232D01*
X127214384Y-111984916D01*
X127264122Y-111980547D01*
X127322475Y-111985324D01*
X127369085Y-111998499D01*
X127410317Y-112020813D01*
X127446938Y-112052629D01*
X127476900Y-112092561D01*
X127501160Y-112143396D01*
X127517128Y-112206053D01*
X127529736Y-112316595D01*
X127537888Y-112588529D01*
X127533583Y-112725091D01*
X127736549Y-112722984D01*
X127952795Y-112725091D01*
G37*
G36*
X127058317Y-112706864D02*
G01*
X127066743Y-112610144D01*
X127080024Y-112473582D01*
X127088725Y-112395180D01*
X126913511Y-112454256D01*
X126843158Y-112468516D01*
X126781987Y-112472941D01*
X126734680Y-112470427D01*
X126701570Y-112463965D01*
X126673996Y-112452343D01*
X126657240Y-112438319D01*
X126646747Y-112420993D01*
X126643501Y-112404248D01*
X126653851Y-112373473D01*
X126701753Y-112330608D01*
X126849947Y-112218501D01*
X126909178Y-112168099D01*
X126946759Y-112128742D01*
X126975568Y-112087558D01*
X126996401Y-112043745D01*
X127009177Y-111997268D01*
X127013437Y-111949223D01*
X127008005Y-111893210D01*
X126991777Y-111839914D01*
X126964253Y-111788389D01*
X126927042Y-111743823D01*
X126879395Y-111707800D01*
X126819539Y-111680037D01*
X126718260Y-111655498D01*
X126587356Y-111646423D01*
X126435021Y-111654294D01*
X126220808Y-111681960D01*
X126203955Y-111976059D01*
X126331055Y-111939321D01*
X126445939Y-111927791D01*
X126520445Y-111932632D01*
X126561527Y-111943911D01*
X126588347Y-111964703D01*
X126596698Y-111992363D01*
X126592851Y-112012879D01*
X126578471Y-112033579D01*
X126552276Y-112056293D01*
X126474973Y-112111156D01*
X126378528Y-112182139D01*
X126325352Y-112228130D01*
X126290417Y-112266403D01*
X126263395Y-112306817D01*
X126243889Y-112349385D01*
X126231838Y-112394407D01*
X126227769Y-112442258D01*
X126236794Y-112513261D01*
X126263581Y-112577721D01*
X126307317Y-112633400D01*
X126371109Y-112680853D01*
X126445502Y-112715824D01*
X126526173Y-112738280D01*
X126610373Y-112750261D01*
X126697998Y-112754309D01*
X126847383Y-112743867D01*
X127058317Y-112706864D01*
G37*
G36*
X125126570Y-112725000D02*
G01*
X125165038Y-112597780D01*
X125415081Y-111876317D01*
X125613285Y-111318069D01*
X125361043Y-111320176D01*
X125149742Y-111318161D01*
X125112281Y-111458661D01*
X125042672Y-111681136D01*
X124892005Y-112166202D01*
X124838974Y-112355704D01*
X124795010Y-112245887D01*
X124437438Y-111462417D01*
X124416464Y-111413324D01*
X124378362Y-111318161D01*
X124137661Y-111320176D01*
X123909324Y-111318069D01*
X124148285Y-111778039D01*
X124501827Y-112480085D01*
X124617323Y-112725000D01*
X124865169Y-112722984D01*
X125126570Y-112725000D01*
G37*
G36*
X123507423Y-112725091D02*
G01*
X123473442Y-112207785D01*
X123449904Y-111705133D01*
X123519055Y-111748639D01*
X123679797Y-111860471D01*
X123668073Y-111651003D01*
X123662944Y-111477621D01*
X123543235Y-111405539D01*
X123462360Y-111353423D01*
X123417114Y-111318161D01*
X123205997Y-111320176D01*
X122972256Y-111318069D01*
X122993047Y-111550161D01*
X123037103Y-112309634D01*
X123047361Y-112588712D01*
X123047361Y-112725091D01*
X123262417Y-112722984D01*
X123507423Y-112725091D01*
G37*
G36*
X144921506Y-115245091D02*
G01*
X144895494Y-115034432D01*
X144831930Y-114315075D01*
X144799965Y-113838161D01*
X144501103Y-113840176D01*
X144225963Y-113838161D01*
X144203157Y-113974448D01*
X144157545Y-114152959D01*
X144099201Y-114382853D01*
X144035362Y-114702597D01*
X143956777Y-114437533D01*
X143864453Y-114173659D01*
X143794386Y-113980310D01*
X143753262Y-113838161D01*
X143449821Y-113840176D01*
X143167995Y-113838161D01*
X143193824Y-114435426D01*
X143207104Y-115104499D01*
X143204998Y-115245000D01*
X143397614Y-115242984D01*
X143594443Y-115245091D01*
X143573652Y-114802157D01*
X143561379Y-114358398D01*
X143560463Y-114241345D01*
X143691987Y-114660007D01*
X143885245Y-115245000D01*
X144070717Y-115242984D01*
X144267821Y-115245000D01*
X144394308Y-114678234D01*
X144468039Y-114377540D01*
X144477289Y-114334401D01*
X144490845Y-114243451D01*
X144513559Y-114527933D01*
X144547356Y-115110819D01*
X144550562Y-115245000D01*
X144733744Y-115242984D01*
X144921506Y-115245091D01*
G37*
G36*
X142498813Y-114177445D02*
G01*
X142627608Y-114210295D01*
X142709124Y-114244501D01*
X142779600Y-114286324D01*
X142840282Y-114335683D01*
X142893151Y-114393236D01*
X142934760Y-114454352D01*
X142965945Y-114519507D01*
X142995628Y-114623956D01*
X143005604Y-114734196D01*
X142995383Y-114844486D01*
X142964938Y-114949069D01*
X142933196Y-115014199D01*
X142892790Y-115072501D01*
X142843305Y-115124649D01*
X142786349Y-115168681D01*
X142719682Y-115205897D01*
X142641987Y-115236115D01*
X142519504Y-115264684D01*
X142390936Y-115274309D01*
X142251856Y-115263334D01*
X142121933Y-115230986D01*
X142040605Y-115196420D01*
X141971236Y-115152891D01*
X141912373Y-115100377D01*
X141861724Y-115039409D01*
X141823092Y-114977245D01*
X141795411Y-114913440D01*
X141769609Y-114811686D01*
X141760881Y-114703422D01*
X141761450Y-114697010D01*
X142177621Y-114697010D01*
X142184210Y-114771871D01*
X142203541Y-114840533D01*
X142236330Y-114900149D01*
X142279928Y-114941375D01*
X142333358Y-114966767D01*
X142393959Y-114975355D01*
X142447263Y-114968609D01*
X142493116Y-114949005D01*
X142533360Y-114916004D01*
X142562931Y-114873108D01*
X142581915Y-114817198D01*
X142588865Y-114744454D01*
X142582254Y-114669868D01*
X142563036Y-114602946D01*
X142530296Y-114545149D01*
X142486649Y-114504760D01*
X142433023Y-114479753D01*
X142371427Y-114471238D01*
X142313044Y-114479054D01*
X142263991Y-114501646D01*
X142224490Y-114537192D01*
X142197862Y-114582888D01*
X142182866Y-114635804D01*
X142177621Y-114697010D01*
X141761450Y-114697010D01*
X141770708Y-114592683D01*
X141799533Y-114491205D01*
X141829910Y-114428446D01*
X141869726Y-114371144D01*
X141919609Y-114318739D01*
X141976792Y-114274088D01*
X142042853Y-114236349D01*
X142118911Y-114205624D01*
X142238809Y-114176285D01*
X142364283Y-114166423D01*
X142498813Y-114177445D01*
G37*
G36*
X140813005Y-114183551D02*
G01*
X140920961Y-114170400D01*
X141009010Y-114166423D01*
X141134691Y-114174515D01*
X141248246Y-114197930D01*
X141319463Y-114223863D01*
X141385498Y-114259681D01*
X141446999Y-114305825D01*
X141500310Y-114360999D01*
X141547940Y-114430121D01*
X141589698Y-114515385D01*
X141620135Y-114605381D01*
X141638187Y-114695879D01*
X141644194Y-114787594D01*
X141636694Y-114884243D01*
X141614336Y-114977096D01*
X141576319Y-115062952D01*
X141523569Y-115135273D01*
X141456664Y-115194117D01*
X141376565Y-115238130D01*
X141287833Y-115265139D01*
X141191460Y-115274309D01*
X141134315Y-115271165D01*
X141079535Y-115261852D01*
X141026825Y-115246765D01*
X140978510Y-115226773D01*
X140901757Y-115179695D01*
X140837094Y-115121535D01*
X140843047Y-115245091D01*
X140641089Y-115242984D01*
X140455800Y-115245091D01*
X140451071Y-114997111D01*
X140433269Y-114585361D01*
X140425280Y-114453103D01*
X140827568Y-114453103D01*
X140842315Y-114698109D01*
X140858184Y-114779498D01*
X140881974Y-114844747D01*
X140916042Y-114899965D01*
X140956803Y-114937895D01*
X141005119Y-114961601D01*
X141058195Y-114969494D01*
X141108378Y-114962597D01*
X141153449Y-114942108D01*
X141190639Y-114909738D01*
X141216922Y-114867278D01*
X141232270Y-114817761D01*
X141237622Y-114760483D01*
X141228633Y-114682153D01*
X141200527Y-114600107D01*
X141171470Y-114549493D01*
X141136261Y-114510059D01*
X141094556Y-114480306D01*
X141020612Y-114452076D01*
X140927036Y-114441929D01*
X140827568Y-114453103D01*
X140425280Y-114453103D01*
X140407754Y-114162940D01*
X140380787Y-113838069D01*
X140593004Y-113840176D01*
X140801923Y-113838069D01*
X140813005Y-114183551D01*
G37*
G36*
X139770952Y-114173923D02*
G01*
X139880242Y-114196373D01*
X139949891Y-114221044D01*
X140013366Y-114254669D01*
X140071393Y-114297490D01*
X140121590Y-114348990D01*
X140166810Y-114414107D01*
X140206856Y-114495052D01*
X140236184Y-114580495D01*
X140253560Y-114666298D01*
X140259337Y-114753155D01*
X140252743Y-114845909D01*
X140233051Y-114935788D01*
X140200126Y-115019559D01*
X140156206Y-115089020D01*
X140100002Y-115147958D01*
X140030909Y-115197006D01*
X139951241Y-115233016D01*
X139853314Y-115257273D01*
X139747954Y-115269871D01*
X139628275Y-115274309D01*
X139464052Y-115266157D01*
X139261911Y-115232818D01*
X139209337Y-114933040D01*
X139335755Y-114968326D01*
X139427416Y-114988728D01*
X139511723Y-115000956D01*
X139581106Y-115004665D01*
X139654808Y-114998528D01*
X139717751Y-114981088D01*
X139771890Y-114953099D01*
X139814487Y-114913145D01*
X139840430Y-114860865D01*
X139849742Y-114792173D01*
X139848918Y-114765337D01*
X139130844Y-114764330D01*
X139120314Y-114691200D01*
X139117105Y-114630423D01*
X139121741Y-114574370D01*
X139507192Y-114574370D01*
X139508016Y-114600198D01*
X139839942Y-114600198D01*
X139826386Y-114542130D01*
X139804130Y-114496609D01*
X139766303Y-114455118D01*
X139715470Y-114427824D01*
X139656943Y-114418482D01*
X139615129Y-114422731D01*
X139578907Y-114434968D01*
X139548496Y-114456154D01*
X139525785Y-114487450D01*
X139512114Y-114525919D01*
X139507192Y-114574370D01*
X139121741Y-114574370D01*
X139125139Y-114533284D01*
X139148613Y-114444677D01*
X139190116Y-114363832D01*
X139254309Y-114289979D01*
X139306755Y-114249246D01*
X139366685Y-114217234D01*
X139435201Y-114193900D01*
X139543617Y-114173397D01*
X139659050Y-114166423D01*
X139770952Y-114173923D01*
G37*
G36*
X138990252Y-115245000D02*
G01*
X138971567Y-115021059D01*
X138931542Y-114253893D01*
X138920184Y-113838161D01*
X138703205Y-113840176D01*
X138494011Y-113838069D01*
X138517825Y-114156348D01*
X138555744Y-114932216D01*
X138564078Y-115245000D01*
X138764663Y-115243992D01*
X138990252Y-115245000D01*
G37*
G36*
X137879047Y-114173923D02*
G01*
X137988337Y-114196373D01*
X138057986Y-114221044D01*
X138121461Y-114254669D01*
X138179487Y-114297490D01*
X138229685Y-114348990D01*
X138274904Y-114414107D01*
X138314951Y-114495052D01*
X138344279Y-114580495D01*
X138361655Y-114666298D01*
X138367432Y-114753155D01*
X138360838Y-114845909D01*
X138341146Y-114935788D01*
X138308221Y-115019559D01*
X138264301Y-115089020D01*
X138208097Y-115147958D01*
X138139004Y-115197006D01*
X138059336Y-115233016D01*
X137961409Y-115257273D01*
X137856049Y-115269871D01*
X137736370Y-115274309D01*
X137572147Y-115266157D01*
X137370006Y-115232818D01*
X137317432Y-114933040D01*
X137443850Y-114968326D01*
X137535511Y-114988728D01*
X137619818Y-115000956D01*
X137689200Y-115004665D01*
X137762903Y-114998528D01*
X137825846Y-114981088D01*
X137879985Y-114953099D01*
X137922582Y-114913145D01*
X137948524Y-114860865D01*
X137957837Y-114792173D01*
X137957013Y-114765337D01*
X137238939Y-114764330D01*
X137228409Y-114691200D01*
X137225200Y-114630423D01*
X137229836Y-114574370D01*
X137615286Y-114574370D01*
X137616111Y-114600198D01*
X137948037Y-114600198D01*
X137934481Y-114542130D01*
X137912225Y-114496609D01*
X137874398Y-114455118D01*
X137823565Y-114427824D01*
X137765038Y-114418482D01*
X137723223Y-114422731D01*
X137687002Y-114434968D01*
X137656591Y-114456154D01*
X137633879Y-114487450D01*
X137620209Y-114525919D01*
X137615286Y-114574370D01*
X137229836Y-114574370D01*
X137233234Y-114533284D01*
X137256707Y-114444677D01*
X137298211Y-114363832D01*
X137362404Y-114289979D01*
X137414849Y-114249246D01*
X137474780Y-114217234D01*
X137543296Y-114193900D01*
X137651712Y-114173397D01*
X137767144Y-114166423D01*
X137879047Y-114173923D01*
G37*
G36*
X136216599Y-114915180D02*
G01*
X136241695Y-115071709D01*
X136268715Y-115238680D01*
X136431205Y-115265579D01*
X136585894Y-115274309D01*
X136694191Y-115268256D01*
X136782357Y-115251594D01*
X136877103Y-115214472D01*
X136961784Y-115156523D01*
X137011613Y-115106272D01*
X137050940Y-115050967D01*
X137080486Y-114990010D01*
X137104627Y-114913840D01*
X137119564Y-114830302D01*
X137124725Y-114738318D01*
X137113884Y-114612580D01*
X137081494Y-114491846D01*
X137047327Y-114416050D01*
X137004737Y-114351234D01*
X136953633Y-114296116D01*
X136894367Y-114249833D01*
X136832093Y-114215679D01*
X136766146Y-114192801D01*
X136660024Y-114173282D01*
X136538725Y-114166423D01*
X136391905Y-114174117D01*
X136313696Y-114185536D01*
X136207074Y-114208005D01*
X136204876Y-114233651D01*
X136200204Y-114308847D01*
X136193518Y-114429931D01*
X136187107Y-114525368D01*
X136288864Y-114493797D01*
X136375623Y-114476543D01*
X136449607Y-114471238D01*
X136526311Y-114479399D01*
X136590108Y-114502562D01*
X136642634Y-114540986D01*
X136679134Y-114592871D01*
X136700448Y-114655186D01*
X136707985Y-114730258D01*
X136701054Y-114805649D01*
X136682248Y-114862973D01*
X136649018Y-114909264D01*
X136599816Y-114942841D01*
X136541005Y-114962694D01*
X136475252Y-114969494D01*
X136393095Y-114962349D01*
X136310480Y-114946321D01*
X136216599Y-114915180D01*
G37*
G36*
X135494129Y-115245000D02*
G01*
X135447310Y-114465969D01*
X135434595Y-113973532D01*
X135435602Y-113838161D01*
X135192886Y-113840176D01*
X134969404Y-113838161D01*
X134999354Y-114278531D01*
X135019870Y-114815712D01*
X135026007Y-115245000D01*
X135238956Y-115242984D01*
X135494129Y-115245000D01*
G37*
G36*
X134793549Y-115226956D02*
G01*
X134809145Y-115015908D01*
X134825148Y-114867919D01*
X134708450Y-114915886D01*
X134616503Y-114943207D01*
X134529441Y-114958937D01*
X134459883Y-114963632D01*
X134376714Y-114956354D01*
X134319748Y-114937528D01*
X134290191Y-114916564D01*
X134273674Y-114891549D01*
X134268091Y-114861050D01*
X134273128Y-114828627D01*
X134292179Y-114793456D01*
X134332663Y-114750408D01*
X134525370Y-114582155D01*
X134619709Y-114498990D01*
X134670079Y-114446087D01*
X134704706Y-114400988D01*
X134731307Y-114354538D01*
X134749127Y-114308481D01*
X134759509Y-114260340D01*
X134763049Y-114208555D01*
X134757535Y-114146262D01*
X134740884Y-114084999D01*
X134713357Y-114026864D01*
X134674206Y-113971700D01*
X134623917Y-113923613D01*
X134556603Y-113880751D01*
X134481029Y-113848644D01*
X134400074Y-113828635D01*
X134315932Y-113818232D01*
X134228340Y-113814713D01*
X134051434Y-113824589D01*
X133848421Y-113856296D01*
X133841185Y-113989561D01*
X133821218Y-114203243D01*
X133917955Y-114167375D01*
X133997348Y-114146639D01*
X134072565Y-114134758D01*
X134130979Y-114131252D01*
X134205777Y-114138971D01*
X134261863Y-114159920D01*
X134292277Y-114182096D01*
X134308380Y-114205140D01*
X134313520Y-114230079D01*
X134305552Y-114269097D01*
X134275235Y-114313976D01*
X134216159Y-114371038D01*
X134100388Y-114463728D01*
X134026657Y-114522254D01*
X133955765Y-114587101D01*
X133889911Y-114662389D01*
X133847138Y-114730532D01*
X133824882Y-114793181D01*
X133817554Y-114861050D01*
X133828596Y-114951654D01*
X133861976Y-115038370D01*
X133895574Y-115091094D01*
X133937297Y-115137078D01*
X133987822Y-115176856D01*
X134073086Y-115222845D01*
X134166608Y-115252693D01*
X134265466Y-115268797D01*
X134371772Y-115274309D01*
X134548243Y-115263797D01*
X134793549Y-115226956D01*
G37*
G36*
X133622099Y-115245000D02*
G01*
X133584455Y-114798493D01*
X133560916Y-114323868D01*
X133549101Y-113931400D01*
X133550109Y-113838161D01*
X132962094Y-113840176D01*
X132400549Y-113838161D01*
X132402747Y-113875163D01*
X132407876Y-113964373D01*
X132414013Y-114076297D01*
X132416120Y-114151952D01*
X132751068Y-114143709D01*
X132950370Y-114144258D01*
X133109006Y-114148746D01*
X133120913Y-114377540D01*
X132842201Y-114380471D01*
X132533631Y-114371495D01*
X132553598Y-114688126D01*
X132828920Y-114686111D01*
X133142711Y-114693896D01*
X133154710Y-114934323D01*
X133039946Y-114934323D01*
X132823883Y-114931025D01*
X132611758Y-114925530D01*
X132450649Y-114916554D01*
X132471624Y-115245000D01*
X133022544Y-115242893D01*
X133473355Y-115243900D01*
X133622099Y-115245000D01*
G37*
G36*
X132236693Y-115245000D02*
G01*
X132215901Y-115026372D01*
X132175968Y-114295658D01*
X132164702Y-114001101D01*
X132164702Y-113838161D01*
X131881045Y-113840176D01*
X131634390Y-113838161D01*
X131194936Y-114637934D01*
X131139248Y-114745828D01*
X131116992Y-114271936D01*
X131105177Y-113838069D01*
X130900379Y-113840176D01*
X130696314Y-113838161D01*
X130721135Y-114147097D01*
X130767297Y-114996879D01*
X130773525Y-115245000D01*
X131025401Y-115242984D01*
X131293579Y-115245000D01*
X131373264Y-115097446D01*
X131545455Y-114804263D01*
X131702167Y-114528574D01*
X131794491Y-114355375D01*
X131815557Y-114831741D01*
X131825907Y-115245000D01*
X132022370Y-115242984D01*
X132236693Y-115245000D01*
G37*
G36*
X130013319Y-115245000D02*
G01*
X130006359Y-115113200D01*
X129999581Y-114947970D01*
X129803026Y-114778435D01*
X129663610Y-114646516D01*
X129546938Y-114528941D01*
X129462497Y-114436870D01*
X129397553Y-114358398D01*
X129367171Y-114313650D01*
X129351849Y-114282377D01*
X129343880Y-114239330D01*
X129347225Y-114211979D01*
X129356795Y-114189229D01*
X129372872Y-114170039D01*
X129397827Y-114152868D01*
X129466612Y-114128688D01*
X129559211Y-114119528D01*
X129631570Y-114122464D01*
X129709970Y-114131618D01*
X129930796Y-114179154D01*
X129903227Y-114030410D01*
X129876391Y-113861974D01*
X129694463Y-113835147D01*
X129525552Y-113819687D01*
X129368702Y-113814713D01*
X129262219Y-113819674D01*
X129162072Y-113834222D01*
X129067282Y-113860863D01*
X128984843Y-113900351D01*
X128914637Y-113952454D01*
X128867149Y-114009436D01*
X128837561Y-114074454D01*
X128827765Y-114144075D01*
X128839122Y-114237681D01*
X128854321Y-114283105D01*
X128881437Y-114341362D01*
X128924506Y-114413679D01*
X128977974Y-114486625D01*
X129067784Y-114593377D01*
X129174895Y-114708184D01*
X129425580Y-114946138D01*
X129320433Y-114947054D01*
X129162164Y-114945314D01*
X128997758Y-114941925D01*
X128880796Y-114934048D01*
X128890779Y-115061085D01*
X128904793Y-115245000D01*
X129441425Y-115242984D01*
X130013319Y-115245000D01*
G37*
G36*
X128091918Y-113820344D02*
G01*
X128179508Y-113837030D01*
X128263838Y-113864722D01*
X128342506Y-113904265D01*
X128411153Y-113955418D01*
X128470834Y-114018870D01*
X128519714Y-114091586D01*
X128562642Y-114180333D01*
X128598970Y-114287690D01*
X128633252Y-114453891D01*
X128644674Y-114623005D01*
X128636267Y-114761200D01*
X128611793Y-114888069D01*
X128583995Y-114967885D01*
X128545601Y-115039188D01*
X128496388Y-115103033D01*
X128437760Y-115158463D01*
X128374074Y-115201875D01*
X128304688Y-115234100D01*
X128192646Y-115264091D01*
X128071039Y-115274309D01*
X127974718Y-115268137D01*
X127883389Y-115249906D01*
X127796174Y-115219720D01*
X127714568Y-115177442D01*
X127645908Y-115126134D01*
X127588721Y-115065573D01*
X127542088Y-114995991D01*
X127500361Y-114909267D01*
X127464248Y-114802431D01*
X127429847Y-114637631D01*
X127418453Y-114472154D01*
X127418952Y-114464277D01*
X127832170Y-114464277D01*
X127843435Y-114631065D01*
X127858049Y-114711770D01*
X127879156Y-114788235D01*
X127907109Y-114857906D01*
X127935484Y-114903273D01*
X127968484Y-114938116D01*
X127996026Y-114956304D01*
X128025135Y-114966234D01*
X128054644Y-114969494D01*
X128105222Y-114959925D01*
X128149624Y-114930842D01*
X128184255Y-114885975D01*
X128210807Y-114820933D01*
X128225454Y-114744706D01*
X128231049Y-114640224D01*
X128226246Y-114517983D01*
X128212639Y-114410971D01*
X128191677Y-114319542D01*
X128163729Y-114242993D01*
X128131940Y-114188199D01*
X128091830Y-114147830D01*
X128052211Y-114126617D01*
X128007567Y-114119528D01*
X127958834Y-114128501D01*
X127916933Y-114155498D01*
X127879797Y-114204342D01*
X127855547Y-114263225D01*
X127838655Y-114347330D01*
X127832170Y-114464277D01*
X127418952Y-114464277D01*
X127427350Y-114331753D01*
X127452699Y-114209230D01*
X127493100Y-114101943D01*
X127535780Y-114026581D01*
X127584585Y-113965521D01*
X127639570Y-113916970D01*
X127701286Y-113879743D01*
X127792279Y-113844082D01*
X127891458Y-113822229D01*
X128000331Y-113814713D01*
X128091918Y-113820344D01*
G37*
G36*
X127278777Y-115245000D02*
G01*
X127271816Y-115113200D01*
X127265038Y-114947970D01*
X127068483Y-114778435D01*
X126929067Y-114646516D01*
X126812395Y-114528941D01*
X126727954Y-114436870D01*
X126663010Y-114358398D01*
X126632629Y-114313650D01*
X126617306Y-114282377D01*
X126609337Y-114239330D01*
X126612682Y-114211979D01*
X126622252Y-114189229D01*
X126638329Y-114170039D01*
X126663285Y-114152868D01*
X126732069Y-114128688D01*
X126824668Y-114119528D01*
X126897027Y-114122464D01*
X126975427Y-114131618D01*
X127196253Y-114179154D01*
X127168684Y-114030410D01*
X127141848Y-113861974D01*
X126959920Y-113835147D01*
X126791009Y-113819687D01*
X126634159Y-113814713D01*
X126527676Y-113819674D01*
X126427529Y-113834222D01*
X126332740Y-113860863D01*
X126250300Y-113900351D01*
X126180094Y-113952454D01*
X126132606Y-114009436D01*
X126103018Y-114074454D01*
X126093222Y-114144075D01*
X126104579Y-114237681D01*
X126119778Y-114283105D01*
X126146894Y-114341362D01*
X126189964Y-114413679D01*
X126243431Y-114486625D01*
X126333241Y-114593377D01*
X126440352Y-114708184D01*
X126691037Y-114946138D01*
X126585890Y-114947054D01*
X126427621Y-114945314D01*
X126263215Y-114941925D01*
X126146253Y-114934048D01*
X126156236Y-115061085D01*
X126170250Y-115245000D01*
X126706882Y-115242984D01*
X127278777Y-115245000D01*
G37*
G36*
X125826967Y-115226864D02*
G01*
X125834294Y-115122909D01*
X125840980Y-115033333D01*
X125855268Y-114898144D01*
X125709240Y-114933462D01*
X125592564Y-114952200D01*
X125500444Y-114957770D01*
X125428255Y-114951614D01*
X125363790Y-114933773D01*
X125307495Y-114903973D01*
X125268169Y-114866179D01*
X125243110Y-114820209D01*
X125234922Y-114770924D01*
X125242535Y-114724630D01*
X125264620Y-114687321D01*
X125302974Y-114656710D01*
X125350358Y-114637018D01*
X125419657Y-114623153D01*
X125517847Y-114617784D01*
X125646257Y-114622363D01*
X125820280Y-114641689D01*
X125767707Y-113977013D01*
X125761479Y-113838161D01*
X125263773Y-113840176D01*
X124758465Y-113838161D01*
X124770006Y-114008245D01*
X124775226Y-114148929D01*
X124914445Y-114144624D01*
X124977826Y-114143800D01*
X125077202Y-114143800D01*
X125235013Y-114142976D01*
X125336863Y-114142976D01*
X125356830Y-114377174D01*
X125253423Y-114371587D01*
X125147456Y-114377668D01*
X125053664Y-114395071D01*
X124970407Y-114422878D01*
X124893417Y-114463247D01*
X124834547Y-114511080D01*
X124790980Y-114566493D01*
X124759595Y-114630175D01*
X124740600Y-114699249D01*
X124734102Y-114775046D01*
X124740443Y-114848948D01*
X124759509Y-114921016D01*
X124791896Y-114992208D01*
X124835309Y-115057153D01*
X124887799Y-115112134D01*
X124950074Y-115157988D01*
X125056503Y-115210249D01*
X125182623Y-115246923D01*
X125315886Y-115267418D01*
X125453275Y-115274309D01*
X125577564Y-115267622D01*
X125698647Y-115252785D01*
X125826967Y-115226864D01*
G37*
D11*
%TO.C,G\u002A\u002A\u002A*%
G36*
X157874792Y-111360738D02*
G01*
X157874792Y-112057567D01*
X155604385Y-112057567D01*
X153333978Y-112057567D01*
X153333978Y-111360738D01*
X153333978Y-111000900D01*
X153676681Y-111000900D01*
X153676681Y-111357882D01*
X153676681Y-111714864D01*
X155607241Y-111714864D01*
X157537801Y-111714864D01*
X157537801Y-111357882D01*
X157537801Y-111000900D01*
X155607241Y-111000900D01*
X153676681Y-111000900D01*
X153333978Y-111000900D01*
X153333978Y-110663908D01*
X155604385Y-110663908D01*
X157874792Y-110663908D01*
X157874792Y-111000900D01*
X157874792Y-111360738D01*
G37*
G36*
X157874792Y-117609355D02*
G01*
X155541556Y-117609355D01*
X153208320Y-117609355D01*
X153208320Y-116912525D01*
X153208320Y-116552687D01*
X153551023Y-116552687D01*
X153551023Y-116909670D01*
X153551023Y-117266652D01*
X155544419Y-117266652D01*
X157537814Y-117266652D01*
X157536380Y-114906285D01*
X157534945Y-112545919D01*
X157046593Y-112545919D01*
X156558241Y-112545919D01*
X156556805Y-114549303D01*
X156555369Y-116552687D01*
X155053196Y-116552687D01*
X153551023Y-116552687D01*
X153208320Y-116552687D01*
X153208320Y-116215696D01*
X154710501Y-116215696D01*
X156212683Y-116215696D01*
X156212683Y-114210884D01*
X156212683Y-112206072D01*
X157043737Y-112206072D01*
X157874792Y-112206072D01*
X157874792Y-114907713D01*
X157874792Y-117266652D01*
X157874792Y-117609355D01*
G37*
G36*
X164825950Y-115935822D02*
G01*
X164034877Y-115935822D01*
X163243805Y-115935822D01*
X163243805Y-114229779D01*
X163243805Y-112611221D01*
X163586486Y-112611221D01*
X163587925Y-114100742D01*
X163589364Y-115590263D01*
X164033449Y-115591726D01*
X164477535Y-115593189D01*
X164477535Y-113244687D01*
X164477534Y-113152537D01*
X164477522Y-112991021D01*
X164477499Y-112832642D01*
X164477467Y-112677778D01*
X164477424Y-112526805D01*
X164477371Y-112380101D01*
X164477310Y-112238041D01*
X164477239Y-112101002D01*
X164477160Y-111969361D01*
X164477073Y-111843494D01*
X164476979Y-111723778D01*
X164476877Y-111610590D01*
X164476768Y-111504306D01*
X164476652Y-111405302D01*
X164476530Y-111313956D01*
X164476402Y-111230644D01*
X164476269Y-111155743D01*
X164476130Y-111089629D01*
X164475987Y-111032678D01*
X164475840Y-110985268D01*
X164475688Y-110947776D01*
X164475533Y-110920576D01*
X164475375Y-110904047D01*
X164475214Y-110898565D01*
X164473760Y-110901086D01*
X164468863Y-110910212D01*
X164460434Y-110926182D01*
X164448364Y-110949203D01*
X164432547Y-110979479D01*
X164412875Y-111017219D01*
X164389242Y-111062628D01*
X164361540Y-111115912D01*
X164329662Y-111177279D01*
X164293500Y-111246935D01*
X164252948Y-111325086D01*
X164207898Y-111411938D01*
X164158244Y-111507698D01*
X164103877Y-111612573D01*
X164044691Y-111726768D01*
X163980579Y-111850491D01*
X163911433Y-111983948D01*
X163837146Y-112127344D01*
X163586486Y-112611221D01*
X163243805Y-112611221D01*
X163243805Y-112523737D01*
X163681851Y-111678070D01*
X163694112Y-111654401D01*
X163745687Y-111554836D01*
X163797995Y-111453856D01*
X163850576Y-111352352D01*
X163902969Y-111251212D01*
X163954714Y-111151325D01*
X164005350Y-111053580D01*
X164054416Y-110958867D01*
X164101452Y-110868075D01*
X164145998Y-110782091D01*
X164187592Y-110701806D01*
X164225775Y-110628109D01*
X164260086Y-110561888D01*
X164290063Y-110504032D01*
X164315247Y-110455431D01*
X164510597Y-110078458D01*
X164668273Y-110076939D01*
X164825950Y-110075421D01*
X164825950Y-113005622D01*
X164825950Y-115593189D01*
X164825950Y-115935822D01*
G37*
G36*
X164411283Y-110007367D02*
G01*
X164384985Y-110057794D01*
X164346483Y-110131621D01*
X164303256Y-110214512D01*
X164255615Y-110305867D01*
X164203874Y-110405084D01*
X164148346Y-110511563D01*
X164089344Y-110624703D01*
X164027183Y-110743903D01*
X163962175Y-110868563D01*
X163894634Y-110998081D01*
X163824872Y-111131857D01*
X163753203Y-111269290D01*
X163679941Y-111409780D01*
X163605399Y-111552724D01*
X163529889Y-111697524D01*
X163453726Y-111843577D01*
X163377223Y-111990283D01*
X163300693Y-112137041D01*
X163224449Y-112283251D01*
X163148804Y-112428311D01*
X163074073Y-112571621D01*
X163020571Y-112674218D01*
X162951178Y-112807284D01*
X162883120Y-112937782D01*
X162816596Y-113065333D01*
X162751802Y-113189561D01*
X162688936Y-113310087D01*
X162628195Y-113426532D01*
X162569777Y-113538520D01*
X162513878Y-113645670D01*
X162460695Y-113747607D01*
X162410427Y-113843950D01*
X162363271Y-113934324D01*
X162319423Y-114018348D01*
X162279081Y-114095646D01*
X162242442Y-114165839D01*
X162209703Y-114228550D01*
X162181063Y-114283399D01*
X162156717Y-114330010D01*
X162136864Y-114368003D01*
X162121700Y-114397002D01*
X162111423Y-114416627D01*
X162106230Y-114426501D01*
X162072136Y-114490758D01*
X161255744Y-114490758D01*
X160439352Y-114490758D01*
X160439352Y-114362549D01*
X160439352Y-114234341D01*
X160487484Y-114141981D01*
X160879154Y-114141981D01*
X160881116Y-114142704D01*
X160892939Y-114143830D01*
X160914586Y-114144834D01*
X160945051Y-114145717D01*
X160983329Y-114146479D01*
X161028415Y-114147123D01*
X161079303Y-114147649D01*
X161134989Y-114148057D01*
X161194467Y-114148351D01*
X161256732Y-114148529D01*
X161320778Y-114148594D01*
X161385602Y-114148547D01*
X161450197Y-114148388D01*
X161513558Y-114148119D01*
X161574680Y-114147741D01*
X161632558Y-114147254D01*
X161686187Y-114146661D01*
X161734561Y-114145962D01*
X161776675Y-114145158D01*
X161811525Y-114144250D01*
X161838104Y-114143240D01*
X161855409Y-114142128D01*
X161862432Y-114140915D01*
X161862819Y-114140437D01*
X161867621Y-114132319D01*
X161877324Y-114114757D01*
X161891634Y-114088311D01*
X161910253Y-114053540D01*
X161932888Y-114011007D01*
X161959242Y-113961269D01*
X161989020Y-113904889D01*
X162021926Y-113842425D01*
X162057665Y-113774438D01*
X162095942Y-113701488D01*
X162136459Y-113624135D01*
X162178924Y-113542940D01*
X162223038Y-113458462D01*
X162268508Y-113371262D01*
X162296165Y-113318187D01*
X162335799Y-113242139D01*
X162380112Y-113157124D01*
X162428762Y-113063795D01*
X162481412Y-112962803D01*
X162537721Y-112854796D01*
X162597350Y-112740428D01*
X162659961Y-112620348D01*
X162725213Y-112495207D01*
X162792767Y-112365656D01*
X162862284Y-112232346D01*
X162933425Y-112095927D01*
X163005850Y-111957050D01*
X163079219Y-111816366D01*
X163153194Y-111674526D01*
X163227436Y-111532181D01*
X163301604Y-111389981D01*
X163375359Y-111248577D01*
X163448363Y-111108620D01*
X163520275Y-110970761D01*
X163580064Y-110856139D01*
X163645706Y-110730279D01*
X163709802Y-110607369D01*
X163772154Y-110487787D01*
X163832565Y-110371910D01*
X163890840Y-110260116D01*
X163946780Y-110152783D01*
X164000191Y-110050289D01*
X164050873Y-109953011D01*
X164098632Y-109861328D01*
X164143270Y-109775616D01*
X164184590Y-109696255D01*
X164222397Y-109623620D01*
X164256492Y-109558092D01*
X164286679Y-109500046D01*
X164312762Y-109449861D01*
X164334544Y-109407915D01*
X164351828Y-109374585D01*
X164364417Y-109350249D01*
X164372115Y-109335285D01*
X164374724Y-109330071D01*
X164371096Y-109329743D01*
X164356925Y-109329352D01*
X164332815Y-109328984D01*
X164299587Y-109328642D01*
X164258065Y-109328330D01*
X164209071Y-109328055D01*
X164153426Y-109327819D01*
X164091953Y-109327628D01*
X164025476Y-109327486D01*
X163954815Y-109327397D01*
X163880793Y-109327367D01*
X163386861Y-109327367D01*
X163378804Y-109340218D01*
X163377402Y-109342731D01*
X163370976Y-109354766D01*
X163359767Y-109376003D01*
X163344084Y-109405848D01*
X163324238Y-109443707D01*
X163300539Y-109488986D01*
X163273297Y-109541090D01*
X163242824Y-109599427D01*
X163209429Y-109663401D01*
X163173423Y-109732419D01*
X163135116Y-109805886D01*
X163094819Y-109883209D01*
X163052842Y-109963792D01*
X163009495Y-110047043D01*
X162982488Y-110098924D01*
X162929920Y-110199897D01*
X162873308Y-110308628D01*
X162813449Y-110423589D01*
X162751138Y-110543251D01*
X162687171Y-110666086D01*
X162622344Y-110790566D01*
X162557453Y-110915162D01*
X162493295Y-111038346D01*
X162430664Y-111158590D01*
X162370357Y-111274365D01*
X162313170Y-111384143D01*
X162259899Y-111486395D01*
X162211519Y-111579253D01*
X162119510Y-111755853D01*
X162032529Y-111922800D01*
X161950412Y-112080412D01*
X161872991Y-112229008D01*
X161800102Y-112368906D01*
X161731579Y-112500423D01*
X161667256Y-112623878D01*
X161606967Y-112739589D01*
X161550546Y-112847873D01*
X161497829Y-112949049D01*
X161448648Y-113043435D01*
X161402839Y-113131349D01*
X161360236Y-113213109D01*
X161320673Y-113289033D01*
X161283984Y-113359439D01*
X161250003Y-113424645D01*
X161218565Y-113484969D01*
X161189504Y-113540730D01*
X161162655Y-113592244D01*
X161137851Y-113639831D01*
X161114927Y-113683808D01*
X161093717Y-113724493D01*
X161074055Y-113762205D01*
X161055777Y-113797261D01*
X161038715Y-113829980D01*
X161022704Y-113860679D01*
X161007684Y-113889510D01*
X160981500Y-113939936D01*
X160957242Y-113986862D01*
X160935392Y-114029343D01*
X160916433Y-114066433D01*
X160900847Y-114097188D01*
X160889117Y-114120661D01*
X160881726Y-114135907D01*
X160879154Y-114141981D01*
X160487484Y-114141981D01*
X160784050Y-113572905D01*
X160787958Y-113565405D01*
X160822542Y-113499041D01*
X160861983Y-113423355D01*
X160905906Y-113339068D01*
X160953936Y-113246898D01*
X161005698Y-113147566D01*
X161060816Y-113041793D01*
X161118915Y-112930296D01*
X161179621Y-112813798D01*
X161242558Y-112693018D01*
X161307350Y-112568675D01*
X161373624Y-112441490D01*
X161441003Y-112312183D01*
X161509112Y-112181473D01*
X161577576Y-112050081D01*
X161646021Y-111918727D01*
X161714070Y-111788130D01*
X161781349Y-111659011D01*
X161847483Y-111532089D01*
X161863867Y-111500646D01*
X161929605Y-111374484D01*
X161996069Y-111246932D01*
X162062904Y-111118669D01*
X162129758Y-110990372D01*
X162196277Y-110862718D01*
X162262109Y-110736385D01*
X162326899Y-110612051D01*
X162390296Y-110490394D01*
X162451946Y-110372091D01*
X162511496Y-110257819D01*
X162568592Y-110148258D01*
X162622882Y-110044083D01*
X162674012Y-109945973D01*
X162721629Y-109854606D01*
X162765381Y-109770659D01*
X162804913Y-109694810D01*
X162839873Y-109627736D01*
X162869908Y-109570115D01*
X163173597Y-108987520D01*
X163992634Y-108987520D01*
X164811671Y-108987520D01*
X164813207Y-109110628D01*
X164814743Y-109233736D01*
X164764503Y-109330071D01*
X164411283Y-110007367D01*
G37*
G36*
X159527859Y-109006067D02*
G01*
X159529174Y-109008868D01*
X159531512Y-109013932D01*
X159534919Y-109021371D01*
X159539529Y-109031484D01*
X159545478Y-109044568D01*
X159552900Y-109060921D01*
X159561928Y-109080839D01*
X159572699Y-109104622D01*
X159585345Y-109132567D01*
X159600002Y-109164970D01*
X159616803Y-109202130D01*
X159635884Y-109244345D01*
X159657379Y-109291912D01*
X159681421Y-109345129D01*
X159708147Y-109404293D01*
X159737690Y-109469702D01*
X159770184Y-109541654D01*
X159805765Y-109620446D01*
X159844565Y-109706376D01*
X159886721Y-109799742D01*
X159932366Y-109900841D01*
X159981635Y-110009971D01*
X160034663Y-110127429D01*
X160091583Y-110253514D01*
X160152530Y-110388522D01*
X160217639Y-110532752D01*
X160287044Y-110686501D01*
X160360879Y-110850066D01*
X160439280Y-111023747D01*
X160463318Y-111076998D01*
X160509463Y-111179224D01*
X160555829Y-111281936D01*
X160602036Y-111384298D01*
X160647707Y-111485470D01*
X160692462Y-111584614D01*
X160735924Y-111680892D01*
X160777714Y-111773466D01*
X160817453Y-111861496D01*
X160854763Y-111944145D01*
X160889265Y-112020574D01*
X160920581Y-112089945D01*
X160948333Y-112151419D01*
X160972142Y-112204158D01*
X160991630Y-112247324D01*
X161143054Y-112582729D01*
X160781208Y-113272577D01*
X160419361Y-113962424D01*
X160293337Y-113963959D01*
X160167312Y-113965493D01*
X159985832Y-113558427D01*
X159982032Y-113549901D01*
X159954501Y-113488143D01*
X159922965Y-113417391D01*
X159887979Y-113338893D01*
X159850101Y-113253901D01*
X159809888Y-113163664D01*
X159767897Y-113069433D01*
X159724686Y-112972458D01*
X159680810Y-112873988D01*
X159636827Y-112775274D01*
X159593295Y-112677565D01*
X159550770Y-112582113D01*
X159509809Y-112490167D01*
X159506785Y-112483378D01*
X159470278Y-112401474D01*
X159435078Y-112322582D01*
X159401463Y-112247323D01*
X159369712Y-112176314D01*
X159340102Y-112110175D01*
X159312910Y-112049523D01*
X159288415Y-111994979D01*
X159266895Y-111947160D01*
X159248627Y-111906685D01*
X159233890Y-111874173D01*
X159222960Y-111850243D01*
X159216116Y-111835514D01*
X159213636Y-111830603D01*
X159213429Y-111833062D01*
X159213457Y-111845294D01*
X159213892Y-111866337D01*
X159214692Y-111894591D01*
X159215814Y-111928452D01*
X159217216Y-111966319D01*
X159217267Y-111967704D01*
X159217670Y-111985197D01*
X159218065Y-112013599D01*
X159218452Y-112052454D01*
X159218829Y-112101305D01*
X159219196Y-112159694D01*
X159219550Y-112227164D01*
X159219891Y-112303258D01*
X159220217Y-112387518D01*
X159220527Y-112479489D01*
X159220821Y-112578713D01*
X159221096Y-112684732D01*
X159221353Y-112797089D01*
X159221588Y-112915328D01*
X159221802Y-113038991D01*
X159221993Y-113167622D01*
X159222160Y-113300762D01*
X159222302Y-113437955D01*
X159222417Y-113578744D01*
X159222504Y-113722671D01*
X159222563Y-113869280D01*
X159222591Y-114018114D01*
X159222757Y-115935822D01*
X158685856Y-115935822D01*
X158148954Y-115935822D01*
X158148954Y-115764513D01*
X158148954Y-115593204D01*
X158513076Y-115591733D01*
X158877198Y-115590263D01*
X158878939Y-113916731D01*
X158879088Y-113767642D01*
X158879236Y-113601015D01*
X158879350Y-113445004D01*
X158879425Y-113299172D01*
X158879459Y-113163081D01*
X158879447Y-113036294D01*
X158879385Y-112918373D01*
X158879270Y-112808879D01*
X158879098Y-112707376D01*
X158878865Y-112613426D01*
X158878567Y-112526591D01*
X158878201Y-112446433D01*
X158877763Y-112372515D01*
X158877249Y-112304399D01*
X158876655Y-112241647D01*
X158875977Y-112183821D01*
X158875213Y-112130485D01*
X158874357Y-112081199D01*
X158873406Y-112035527D01*
X158872357Y-111993031D01*
X158871206Y-111953273D01*
X158869948Y-111915815D01*
X158868580Y-111880220D01*
X158867099Y-111846049D01*
X158865500Y-111812866D01*
X158863781Y-111780233D01*
X158861936Y-111747711D01*
X158859962Y-111714864D01*
X158859555Y-111708290D01*
X158849212Y-111560614D01*
X158836541Y-111411367D01*
X158821817Y-111263140D01*
X158805317Y-111118523D01*
X158787315Y-110980108D01*
X158768086Y-110850486D01*
X158765627Y-110834434D01*
X158762722Y-110813363D01*
X158761101Y-110798584D01*
X158761065Y-110792584D01*
X158761746Y-110792286D01*
X158770622Y-110789337D01*
X158788651Y-110783675D01*
X158814463Y-110775717D01*
X158846690Y-110765886D01*
X158883963Y-110754600D01*
X158924915Y-110742280D01*
X159086867Y-110693708D01*
X159098558Y-110720218D01*
X159099087Y-110721414D01*
X159103848Y-110732126D01*
X159112964Y-110752611D01*
X159126207Y-110782355D01*
X159143346Y-110820843D01*
X159164154Y-110867563D01*
X159188401Y-110921999D01*
X159215858Y-110983638D01*
X159246297Y-111051966D01*
X159279487Y-111126468D01*
X159315201Y-111206631D01*
X159353209Y-111291940D01*
X159393282Y-111381882D01*
X159435191Y-111475942D01*
X159478707Y-111573607D01*
X159523602Y-111674362D01*
X159569645Y-111777693D01*
X159607130Y-111861816D01*
X159655395Y-111970132D01*
X159703482Y-112078048D01*
X159751072Y-112184849D01*
X159797844Y-112289817D01*
X159843481Y-112392236D01*
X159887662Y-112491388D01*
X159930067Y-112586558D01*
X159970379Y-112677027D01*
X160008276Y-112762080D01*
X160043440Y-112840999D01*
X160075552Y-112913068D01*
X160104292Y-112977570D01*
X160129340Y-113033788D01*
X160150377Y-113081005D01*
X160167085Y-113118504D01*
X160190797Y-113171633D01*
X160214432Y-113224386D01*
X160236325Y-113273046D01*
X160256063Y-113316705D01*
X160273232Y-113354457D01*
X160287422Y-113385394D01*
X160298219Y-113408610D01*
X160305210Y-113423197D01*
X160307983Y-113428249D01*
X160309523Y-113425873D01*
X160315966Y-113414369D01*
X160327042Y-113393987D01*
X160342358Y-113365463D01*
X160361525Y-113329535D01*
X160384151Y-113286938D01*
X160409844Y-113238410D01*
X160438214Y-113184688D01*
X160468870Y-113126507D01*
X160501420Y-113064606D01*
X160535473Y-112999721D01*
X160760107Y-112571296D01*
X160273272Y-111493373D01*
X160233750Y-111405864D01*
X160181292Y-111289707D01*
X160128069Y-111171852D01*
X160074472Y-111053165D01*
X160020891Y-110934509D01*
X159967718Y-110816750D01*
X159915341Y-110700753D01*
X159864153Y-110587382D01*
X159814543Y-110477504D01*
X159766903Y-110371981D01*
X159721621Y-110271680D01*
X159679090Y-110177465D01*
X159639699Y-110090201D01*
X159603839Y-110010753D01*
X159571900Y-109939986D01*
X159544274Y-109878765D01*
X159518240Y-109821106D01*
X159485769Y-109749289D01*
X159454794Y-109680894D01*
X159425633Y-109616620D01*
X159398607Y-109557166D01*
X159374035Y-109503232D01*
X159352236Y-109455517D01*
X159333528Y-109414722D01*
X159318232Y-109381546D01*
X159306667Y-109356687D01*
X159299151Y-109340847D01*
X159296005Y-109334724D01*
X159293332Y-109333634D01*
X159286581Y-109332616D01*
X159275258Y-109331707D01*
X159258836Y-109330903D01*
X159236789Y-109330198D01*
X159208588Y-109329586D01*
X159173708Y-109329061D01*
X159131620Y-109328619D01*
X159081799Y-109328254D01*
X159023716Y-109327960D01*
X158956845Y-109327732D01*
X158880659Y-109327564D01*
X158794631Y-109327451D01*
X158698234Y-109327387D01*
X158590940Y-109327367D01*
X157891981Y-109327367D01*
X157890526Y-109908534D01*
X157889071Y-110489701D01*
X157717720Y-110489701D01*
X157546368Y-110489701D01*
X157546368Y-109738610D01*
X157546368Y-108987520D01*
X158532002Y-108986076D01*
X159517635Y-108984632D01*
X159527859Y-109006067D01*
G37*
G36*
X155986692Y-113994059D02*
G01*
X155986903Y-114035463D01*
X155987016Y-114085584D01*
X155987061Y-114145324D01*
X155987070Y-114215585D01*
X155987065Y-114288126D01*
X155987000Y-114350756D01*
X155986797Y-114403720D01*
X155986380Y-114447901D01*
X155985671Y-114484183D01*
X155984593Y-114513447D01*
X155983071Y-114536577D01*
X155981026Y-114554454D01*
X155978382Y-114567963D01*
X155975061Y-114577984D01*
X155970987Y-114585402D01*
X155966084Y-114591098D01*
X155960273Y-114595955D01*
X155953477Y-114600857D01*
X155949654Y-114603439D01*
X155940742Y-114607989D01*
X155929434Y-114611193D01*
X155913471Y-114613418D01*
X155890599Y-114615036D01*
X155858561Y-114616416D01*
X155781448Y-114619272D01*
X155779807Y-114679030D01*
X155779578Y-114686394D01*
X155777639Y-114716818D01*
X155773881Y-114737740D01*
X155767620Y-114750722D01*
X155758176Y-114757328D01*
X155744865Y-114759121D01*
X155734676Y-114758615D01*
X155724871Y-114755690D01*
X155718337Y-114748541D01*
X155714244Y-114735369D01*
X155711759Y-114714373D01*
X155710052Y-114683754D01*
X155707196Y-114619272D01*
X155618664Y-114619272D01*
X155530133Y-114619272D01*
X155527277Y-114683754D01*
X155526014Y-114708038D01*
X155523790Y-114731156D01*
X155520154Y-114746024D01*
X155514275Y-114754441D01*
X155505322Y-114758207D01*
X155492464Y-114759121D01*
X155489459Y-114759072D01*
X155476976Y-114756441D01*
X155468223Y-114748685D01*
X155462518Y-114734240D01*
X155459178Y-114711543D01*
X155457521Y-114679030D01*
X155455880Y-114619272D01*
X155375916Y-114619272D01*
X155295952Y-114619272D01*
X155293096Y-114679828D01*
X155291920Y-114700626D01*
X155289206Y-114726657D01*
X155284830Y-114743827D01*
X155277993Y-114753725D01*
X155267895Y-114757943D01*
X155253735Y-114758070D01*
X155249375Y-114757569D01*
X155236713Y-114753458D01*
X155227993Y-114744475D01*
X155222559Y-114729001D01*
X155219756Y-114705417D01*
X155218928Y-114672105D01*
X155218844Y-114616416D01*
X155147448Y-114616416D01*
X155076051Y-114616416D01*
X155075650Y-114672105D01*
X155075553Y-114681931D01*
X155074696Y-114709775D01*
X155072588Y-114729004D01*
X155068645Y-114741795D01*
X155062281Y-114750324D01*
X155052912Y-114756769D01*
X155050749Y-114757962D01*
X155038803Y-114763520D01*
X155029419Y-114763525D01*
X155016210Y-114758229D01*
X155010401Y-114755194D01*
X155004118Y-114749532D01*
X154999918Y-114740565D01*
X154997285Y-114726262D01*
X154995702Y-114704594D01*
X154994653Y-114673533D01*
X154993231Y-114619272D01*
X154910411Y-114619272D01*
X154827592Y-114619272D01*
X154824736Y-114679828D01*
X154823559Y-114700626D01*
X154820845Y-114726657D01*
X154816470Y-114743827D01*
X154809633Y-114753725D01*
X154799534Y-114757943D01*
X154785374Y-114758070D01*
X154780890Y-114757551D01*
X154768277Y-114753415D01*
X154759592Y-114744405D01*
X154754181Y-114728903D01*
X154751391Y-114705290D01*
X154750568Y-114671948D01*
X154750483Y-114616102D01*
X154669091Y-114617687D01*
X154587700Y-114619272D01*
X154584844Y-114683754D01*
X154583581Y-114708038D01*
X154581357Y-114731156D01*
X154577721Y-114746024D01*
X154571842Y-114754441D01*
X154562889Y-114758207D01*
X154550031Y-114759121D01*
X154547026Y-114759072D01*
X154534543Y-114756441D01*
X154525790Y-114748685D01*
X154520084Y-114734240D01*
X154516745Y-114711543D01*
X154515088Y-114679030D01*
X154513447Y-114619272D01*
X154438404Y-114617682D01*
X154363361Y-114616093D01*
X154361187Y-114679624D01*
X154360304Y-114699972D01*
X154357944Y-114725824D01*
X154353747Y-114742975D01*
X154346871Y-114753125D01*
X154336473Y-114757971D01*
X154321712Y-114759209D01*
X154317847Y-114759090D01*
X154306613Y-114756312D01*
X154298687Y-114748621D01*
X154293378Y-114734393D01*
X154289992Y-114712004D01*
X154287834Y-114679828D01*
X154284979Y-114619272D01*
X154205015Y-114616416D01*
X154199140Y-114616201D01*
X154164929Y-114614554D01*
X154139772Y-114612196D01*
X154121605Y-114608558D01*
X154108359Y-114603070D01*
X154097969Y-114595163D01*
X154088367Y-114584267D01*
X154087408Y-114583030D01*
X154085106Y-114579623D01*
X154083154Y-114575360D01*
X154081524Y-114569361D01*
X154080187Y-114560744D01*
X154079115Y-114548629D01*
X154078280Y-114532135D01*
X154077655Y-114510382D01*
X154077209Y-114482490D01*
X154076917Y-114447577D01*
X154076748Y-114404763D01*
X154076676Y-114353167D01*
X154076671Y-114291910D01*
X154076706Y-114220109D01*
X154076841Y-113990983D01*
X154239285Y-113990983D01*
X154239285Y-114219451D01*
X154239285Y-114447920D01*
X155028930Y-114449368D01*
X155818574Y-114450816D01*
X155818574Y-114219451D01*
X155818574Y-113988087D01*
X155028930Y-113989535D01*
X154239285Y-113990983D01*
X154076841Y-113990983D01*
X154076912Y-113871037D01*
X154089558Y-113856011D01*
X154098694Y-113846139D01*
X154111762Y-113836068D01*
X154127603Y-113829252D01*
X154148370Y-113825105D01*
X154176218Y-113823044D01*
X154213298Y-113822487D01*
X154287834Y-113822487D01*
X154287922Y-113755375D01*
X154288258Y-113729942D01*
X154289182Y-113706728D01*
X154290547Y-113689900D01*
X154292206Y-113681977D01*
X154296556Y-113676668D01*
X154312065Y-113667680D01*
X154329680Y-113666911D01*
X154345713Y-113673987D01*
X154356477Y-113688531D01*
X154358059Y-113695120D01*
X154360135Y-113712659D01*
X154361558Y-113736319D01*
X154362087Y-113762886D01*
X154362087Y-113822487D01*
X154450618Y-113822487D01*
X154539150Y-113822487D01*
X154539150Y-113755038D01*
X154539463Y-113727107D01*
X154541061Y-113701021D01*
X154544553Y-113683486D01*
X154550530Y-113672921D01*
X154559585Y-113667742D01*
X154572307Y-113666367D01*
X154574109Y-113666375D01*
X154587268Y-113667468D01*
X154596474Y-113671579D01*
X154602425Y-113680388D01*
X154605814Y-113695574D01*
X154607337Y-113718815D01*
X154607691Y-113751790D01*
X154607691Y-113822487D01*
X154690510Y-113822487D01*
X154773330Y-113822487D01*
X154773330Y-113756543D01*
X154773361Y-113740286D01*
X154773750Y-113716750D01*
X154774924Y-113700998D01*
X154777304Y-113690643D01*
X154781306Y-113683299D01*
X154787350Y-113676579D01*
X154790072Y-113673932D01*
X154803806Y-113664405D01*
X154816742Y-113664619D01*
X154832533Y-113674397D01*
X154838109Y-113679067D01*
X154842650Y-113684791D01*
X154845443Y-113692931D01*
X154846914Y-113705738D01*
X154847486Y-113725464D01*
X154847583Y-113754361D01*
X154847583Y-113822487D01*
X154921835Y-113822487D01*
X154996087Y-113822487D01*
X154996087Y-113751415D01*
X154996143Y-113728886D01*
X154996573Y-113706079D01*
X154997715Y-113691049D01*
X154999907Y-113681678D01*
X155003484Y-113675851D01*
X155008782Y-113671451D01*
X155024101Y-113664160D01*
X155043675Y-113664745D01*
X155062032Y-113676579D01*
X155065481Y-113680172D01*
X155070402Y-113686922D01*
X155073501Y-113695547D01*
X155075197Y-113708434D01*
X155075907Y-113727971D01*
X155076051Y-113756543D01*
X155076051Y-113822487D01*
X155158871Y-113822487D01*
X155241691Y-113822487D01*
X155241691Y-113756543D01*
X155241721Y-113740286D01*
X155242110Y-113716750D01*
X155243285Y-113700998D01*
X155245664Y-113690643D01*
X155249667Y-113683299D01*
X155255711Y-113676579D01*
X155258433Y-113673932D01*
X155272166Y-113664405D01*
X155285102Y-113664619D01*
X155300894Y-113674397D01*
X155306469Y-113679067D01*
X155311010Y-113684791D01*
X155313804Y-113692931D01*
X155315275Y-113705738D01*
X155315847Y-113725464D01*
X155315943Y-113754361D01*
X155315943Y-113822487D01*
X155398763Y-113822487D01*
X155481583Y-113822487D01*
X155481583Y-113755038D01*
X155481896Y-113727107D01*
X155483494Y-113701021D01*
X155486986Y-113683486D01*
X155492964Y-113672921D01*
X155502018Y-113667742D01*
X155514741Y-113666367D01*
X155516542Y-113666375D01*
X155529701Y-113667468D01*
X155538908Y-113671579D01*
X155544858Y-113680388D01*
X155548247Y-113695574D01*
X155549770Y-113718815D01*
X155550124Y-113751790D01*
X155550124Y-113822487D01*
X155630088Y-113822487D01*
X155710052Y-113822487D01*
X155710052Y-113751790D01*
X155710055Y-113747441D01*
X155710508Y-113715673D01*
X155712211Y-113693445D01*
X155715859Y-113679080D01*
X155722149Y-113670898D01*
X155731776Y-113667220D01*
X155745435Y-113666367D01*
X155755641Y-113667160D01*
X155765491Y-113671369D01*
X155772116Y-113680633D01*
X155776111Y-113696536D01*
X155778071Y-113720662D01*
X155778592Y-113754596D01*
X155778592Y-113821602D01*
X155855305Y-113823473D01*
X155863268Y-113823678D01*
X155896163Y-113825039D01*
X155920356Y-113827555D01*
X155938107Y-113831999D01*
X155951674Y-113839149D01*
X155963316Y-113849780D01*
X155975294Y-113864668D01*
X155975401Y-113864812D01*
X155977854Y-113868364D01*
X155979936Y-113872514D01*
X155981679Y-113878163D01*
X155983112Y-113886213D01*
X155984266Y-113897566D01*
X155985170Y-113913125D01*
X155985856Y-113933792D01*
X155986353Y-113960470D01*
X155986632Y-113988087D01*
X155986692Y-113994059D01*
G37*
G36*
X162047124Y-108707042D02*
G01*
X162042408Y-108727637D01*
X162042210Y-108728315D01*
X162045315Y-108736223D01*
X162057492Y-108748118D01*
X162079309Y-108764571D01*
X162083835Y-108767813D01*
X162113474Y-108791262D01*
X162143347Y-108818309D01*
X162172337Y-108847582D01*
X162199326Y-108877705D01*
X162223195Y-108907304D01*
X162242828Y-108935007D01*
X162257107Y-108959437D01*
X162264913Y-108979222D01*
X162265129Y-108992988D01*
X162259435Y-108999486D01*
X162246086Y-109001013D01*
X162227036Y-108995596D01*
X162203447Y-108984040D01*
X162176481Y-108967153D01*
X162147299Y-108945740D01*
X162117065Y-108920608D01*
X162086939Y-108892563D01*
X162058084Y-108862412D01*
X162031661Y-108830962D01*
X162027128Y-108825151D01*
X162013785Y-108808094D01*
X162003640Y-108795190D01*
X161998601Y-108788871D01*
X161998250Y-108788542D01*
X161990529Y-108788482D01*
X161978207Y-108793369D01*
X161975012Y-108794918D01*
X161953982Y-108800077D01*
X161923892Y-108800812D01*
X161886259Y-108799305D01*
X161847484Y-108833348D01*
X161814328Y-108864528D01*
X161773899Y-108906818D01*
X161731315Y-108955158D01*
X161688302Y-109007445D01*
X161646585Y-109061575D01*
X161607887Y-109115447D01*
X161573935Y-109166956D01*
X161536767Y-109226445D01*
X161550160Y-109252875D01*
X161552540Y-109257641D01*
X161567605Y-109292932D01*
X161577321Y-109328125D01*
X161582465Y-109366927D01*
X161583817Y-109413043D01*
X161583694Y-109425676D01*
X161582655Y-109455216D01*
X161580164Y-109478758D01*
X161575674Y-109500296D01*
X161568638Y-109523819D01*
X161553825Y-109568911D01*
X161573445Y-109607870D01*
X161575754Y-109612393D01*
X161599754Y-109654637D01*
X161630785Y-109702702D01*
X161667587Y-109754910D01*
X161708896Y-109809585D01*
X161753452Y-109865051D01*
X161799991Y-109919630D01*
X161847252Y-109971645D01*
X161891315Y-110018485D01*
X161924620Y-110018485D01*
X161938617Y-110018945D01*
X161959083Y-110021112D01*
X161973632Y-110024456D01*
X161977598Y-110025874D01*
X161988131Y-110027309D01*
X161994076Y-110021961D01*
X162001895Y-110010052D01*
X162020418Y-109987438D01*
X162045064Y-109961248D01*
X162073871Y-109933291D01*
X162104881Y-109905373D01*
X162136131Y-109879303D01*
X162165661Y-109856887D01*
X162191512Y-109839933D01*
X162200337Y-109834955D01*
X162228011Y-109821899D01*
X162250132Y-109815582D01*
X162265803Y-109816033D01*
X162274128Y-109823279D01*
X162274209Y-109837348D01*
X162269499Y-109849790D01*
X162255508Y-109873138D01*
X162234600Y-109900437D01*
X162208260Y-109930135D01*
X162177975Y-109960680D01*
X162145230Y-109990521D01*
X162111512Y-110018107D01*
X162078305Y-110041886D01*
X162061547Y-110053245D01*
X162045257Y-110065743D01*
X162037189Y-110074636D01*
X162036235Y-110080950D01*
X162046057Y-110117181D01*
X162045933Y-110137489D01*
X162045843Y-110152151D01*
X162036528Y-110184222D01*
X162019087Y-110211852D01*
X161994494Y-110233497D01*
X161963724Y-110247616D01*
X161927751Y-110252665D01*
X161915744Y-110252243D01*
X161895984Y-110249884D01*
X161882065Y-110246144D01*
X161881198Y-110245756D01*
X161875193Y-110243914D01*
X161869027Y-110244782D01*
X161861175Y-110249490D01*
X161850115Y-110259170D01*
X161834322Y-110274954D01*
X161812274Y-110297971D01*
X161809887Y-110300473D01*
X161786177Y-110324565D01*
X161762104Y-110347853D01*
X161740357Y-110367794D01*
X161723624Y-110381843D01*
X161722415Y-110382771D01*
X161690903Y-110405012D01*
X161661347Y-110422374D01*
X161635092Y-110434347D01*
X161613480Y-110440420D01*
X161597857Y-110440082D01*
X161589564Y-110432822D01*
X161589390Y-110423021D01*
X161596335Y-110405387D01*
X161610178Y-110383001D01*
X161629780Y-110357167D01*
X161653998Y-110329189D01*
X161681692Y-110300371D01*
X161711719Y-110272015D01*
X161742939Y-110245426D01*
X161774212Y-110221908D01*
X161780171Y-110217747D01*
X161799361Y-110204020D01*
X161810965Y-110194531D01*
X161816483Y-110187526D01*
X161817417Y-110181253D01*
X161815268Y-110173957D01*
X161813469Y-110167418D01*
X161811144Y-110149183D01*
X161811061Y-110143435D01*
X161896964Y-110143435D01*
X161906285Y-110157536D01*
X161919556Y-110165529D01*
X161933414Y-110165143D01*
X161943406Y-110155423D01*
X161947245Y-110137489D01*
X161946394Y-110129761D01*
X161938840Y-110117061D01*
X161925708Y-110112726D01*
X161909736Y-110118165D01*
X161898777Y-110129343D01*
X161896964Y-110143435D01*
X161811061Y-110143435D01*
X161810848Y-110128643D01*
X161811107Y-110122531D01*
X161810935Y-110110178D01*
X161808499Y-110100030D01*
X161802448Y-110089421D01*
X161791427Y-110075684D01*
X161774085Y-110056152D01*
X161739790Y-110020285D01*
X161694516Y-109977343D01*
X161643749Y-109932753D01*
X161589888Y-109888481D01*
X161535333Y-109846493D01*
X161482481Y-109808755D01*
X161433734Y-109777233D01*
X161431401Y-109775823D01*
X161409815Y-109763048D01*
X161395183Y-109755447D01*
X161385009Y-109752189D01*
X161376797Y-109752444D01*
X161368049Y-109755381D01*
X161348851Y-109763055D01*
X161319986Y-109773576D01*
X161295330Y-109780422D01*
X161270979Y-109784349D01*
X161243029Y-109786112D01*
X161207578Y-109786469D01*
X161191141Y-109786356D01*
X161158555Y-109785253D01*
X161131770Y-109782357D01*
X161106847Y-109776906D01*
X161079846Y-109768134D01*
X161046830Y-109755276D01*
X161039701Y-109752693D01*
X161031189Y-109751641D01*
X161021413Y-109754162D01*
X161007575Y-109761097D01*
X160986874Y-109773286D01*
X160975015Y-109780550D01*
X160922250Y-109815636D01*
X160865816Y-109857565D01*
X160804959Y-109906942D01*
X160738926Y-109964373D01*
X160666964Y-110030463D01*
X160594711Y-110098337D01*
X160594632Y-110131235D01*
X160594316Y-110140566D01*
X160594170Y-110144856D01*
X160592061Y-110164898D01*
X160588837Y-110178929D01*
X160587169Y-110183890D01*
X160587016Y-110190828D01*
X160591464Y-110198039D01*
X160602079Y-110207645D01*
X160620425Y-110221767D01*
X160648734Y-110244924D01*
X160678517Y-110272953D01*
X160707226Y-110303334D01*
X160733791Y-110334648D01*
X160757144Y-110365481D01*
X160776214Y-110394416D01*
X160789932Y-110420036D01*
X160797229Y-110440925D01*
X160797035Y-110455666D01*
X160795730Y-110458324D01*
X160787699Y-110463354D01*
X160773491Y-110461204D01*
X160751841Y-110451766D01*
X160742549Y-110446678D01*
X160711866Y-110426119D01*
X160678033Y-110398946D01*
X160643371Y-110367353D01*
X160610201Y-110333537D01*
X160580844Y-110299693D01*
X160557621Y-110268018D01*
X160554627Y-110263473D01*
X160544239Y-110249717D01*
X160536159Y-110243936D01*
X160528120Y-110244308D01*
X160519877Y-110246184D01*
X160502419Y-110248803D01*
X160481720Y-110250979D01*
X160459179Y-110251823D01*
X160441254Y-110249200D01*
X160424062Y-110242182D01*
X160397087Y-110224317D01*
X160373510Y-110197294D01*
X160359538Y-110165061D01*
X160357216Y-110143439D01*
X160448368Y-110143439D01*
X160454031Y-110154403D01*
X160459333Y-110160345D01*
X160473307Y-110166814D01*
X160487304Y-110164062D01*
X160497711Y-110152266D01*
X160501320Y-110140566D01*
X160498394Y-110127992D01*
X160493215Y-110122786D01*
X160479505Y-110118650D01*
X160464446Y-110121174D01*
X160452976Y-110130128D01*
X160450611Y-110133948D01*
X160448368Y-110143439D01*
X160357216Y-110143439D01*
X160355643Y-110128789D01*
X160362301Y-110089646D01*
X160362946Y-110086374D01*
X160360833Y-110078576D01*
X160352112Y-110069412D01*
X160335077Y-110056823D01*
X160327622Y-110051365D01*
X160305913Y-110033349D01*
X160280264Y-110009962D01*
X160253069Y-109983566D01*
X160226725Y-109956526D01*
X160203629Y-109931203D01*
X160186175Y-109909962D01*
X160180518Y-109902243D01*
X160162230Y-109873869D01*
X160149623Y-109848410D01*
X160143170Y-109827274D01*
X160143341Y-109811875D01*
X160150609Y-109803620D01*
X160161489Y-109804147D01*
X160179354Y-109811389D01*
X160202038Y-109824418D01*
X160227799Y-109842123D01*
X160254894Y-109863392D01*
X160281582Y-109887115D01*
X160297421Y-109902603D01*
X160320335Y-109926317D01*
X160343056Y-109951103D01*
X160364004Y-109975137D01*
X160381599Y-109996590D01*
X160394260Y-110013636D01*
X160400406Y-110024448D01*
X160403198Y-110027150D01*
X160412896Y-110026782D01*
X160430998Y-110021457D01*
X160453254Y-110015745D01*
X160488616Y-110015072D01*
X160517889Y-110018417D01*
X160577148Y-109957034D01*
X160579773Y-109954308D01*
X160630976Y-109898498D01*
X160680969Y-109839241D01*
X160728188Y-109778623D01*
X160771068Y-109718734D01*
X160808045Y-109661661D01*
X160837553Y-109609493D01*
X160858461Y-109568907D01*
X160844533Y-109523817D01*
X160838855Y-109504002D01*
X160834695Y-109484393D01*
X160832266Y-109463524D01*
X160831185Y-109438012D01*
X160831072Y-109404475D01*
X160831104Y-109399861D01*
X160831665Y-109368289D01*
X160833058Y-109344528D01*
X160835710Y-109325367D01*
X160840043Y-109307597D01*
X160846484Y-109288007D01*
X160861430Y-109245792D01*
X160849583Y-109222323D01*
X160839465Y-109203799D01*
X160815920Y-109166589D01*
X160785657Y-109123972D01*
X160749805Y-109077356D01*
X160709499Y-109028144D01*
X160665868Y-108977744D01*
X160620045Y-108927560D01*
X160573161Y-108878997D01*
X160493614Y-108799033D01*
X160462199Y-108798569D01*
X160452548Y-108798058D01*
X160429726Y-108794367D01*
X160411873Y-108788246D01*
X160406675Y-108785562D01*
X160396235Y-108781560D01*
X160389198Y-108784184D01*
X160380548Y-108794422D01*
X160373070Y-108803692D01*
X160345417Y-108833821D01*
X160312153Y-108865488D01*
X160275817Y-108896593D01*
X160238947Y-108925034D01*
X160204081Y-108948712D01*
X160173758Y-108965527D01*
X160164712Y-108969410D01*
X160143732Y-108976025D01*
X160125610Y-108978732D01*
X160112879Y-108977301D01*
X160108073Y-108971503D01*
X160108320Y-108968737D01*
X160114592Y-108953089D01*
X160128287Y-108932274D01*
X160148017Y-108907662D01*
X160172394Y-108880623D01*
X160200028Y-108852528D01*
X160229531Y-108824746D01*
X160259514Y-108798648D01*
X160288590Y-108775604D01*
X160315370Y-108756984D01*
X160338465Y-108744157D01*
X160340227Y-108743343D01*
X160347346Y-108739000D01*
X160350759Y-108732604D01*
X160351278Y-108721055D01*
X160349716Y-108701254D01*
X160348802Y-108688319D01*
X160348859Y-108686887D01*
X160440133Y-108686887D01*
X160448328Y-108701526D01*
X160461194Y-108709277D01*
X160475400Y-108708871D01*
X160486355Y-108700368D01*
X160490670Y-108685084D01*
X160488990Y-108673994D01*
X160480442Y-108661366D01*
X160467029Y-108657094D01*
X160451431Y-108662707D01*
X160442628Y-108672137D01*
X160440133Y-108686887D01*
X160348859Y-108686887D01*
X160349818Y-108662693D01*
X160355764Y-108640323D01*
X160363632Y-108624515D01*
X160381853Y-108600678D01*
X160404270Y-108580814D01*
X160427353Y-108568466D01*
X160436338Y-108565986D01*
X160462167Y-108562517D01*
X160488517Y-108562944D01*
X160509787Y-108567343D01*
X160513113Y-108568468D01*
X160520375Y-108568928D01*
X160528084Y-108564897D01*
X160538439Y-108554874D01*
X160553635Y-108537357D01*
X160565238Y-108524150D01*
X160593899Y-108494985D01*
X160625723Y-108466405D01*
X160659133Y-108439511D01*
X160692556Y-108415402D01*
X160724416Y-108395178D01*
X160753139Y-108379941D01*
X160777148Y-108370789D01*
X160794870Y-108368825D01*
X160802240Y-108371381D01*
X160808941Y-108381543D01*
X160807713Y-108397574D01*
X160798440Y-108417868D01*
X160794915Y-108423370D01*
X160774694Y-108449541D01*
X160747170Y-108479347D01*
X160714336Y-108510945D01*
X160678184Y-108542488D01*
X160640705Y-108572132D01*
X160603892Y-108598034D01*
X160571378Y-108619289D01*
X160580089Y-108640137D01*
X160582313Y-108646532D01*
X160586571Y-108668649D01*
X160587300Y-108685084D01*
X160587646Y-108692883D01*
X160587247Y-108706010D01*
X160586992Y-108722373D01*
X160587175Y-108731532D01*
X160587185Y-108731604D01*
X160591768Y-108738057D01*
X160603589Y-108750619D01*
X160621246Y-108768002D01*
X160643339Y-108788912D01*
X160668464Y-108812059D01*
X160695223Y-108836151D01*
X160722213Y-108859898D01*
X160748033Y-108882008D01*
X160771283Y-108901191D01*
X160786682Y-108913173D01*
X160815068Y-108934122D01*
X160848395Y-108957773D01*
X160884316Y-108982537D01*
X160920482Y-109006822D01*
X160954545Y-109029037D01*
X160984158Y-109047591D01*
X161006971Y-109060892D01*
X161034833Y-109076064D01*
X161086935Y-109057545D01*
X161099319Y-109053205D01*
X161119728Y-109046708D01*
X161137539Y-109042587D01*
X161156258Y-109040324D01*
X161179388Y-109039402D01*
X161210434Y-109039303D01*
X161230766Y-109039498D01*
X161259038Y-109040523D01*
X161280891Y-109042748D01*
X161299497Y-109046556D01*
X161318026Y-109052331D01*
X161354221Y-109065084D01*
X161397990Y-109041528D01*
X161433907Y-109021109D01*
X161501929Y-108977225D01*
X161574754Y-108924017D01*
X161651853Y-108861880D01*
X161732699Y-108791208D01*
X161810164Y-108721002D01*
X161810566Y-108685765D01*
X161810586Y-108685234D01*
X161897995Y-108685234D01*
X161904778Y-108699488D01*
X161918504Y-108708806D01*
X161932408Y-108708865D01*
X161943020Y-108700348D01*
X161947245Y-108684356D01*
X161943838Y-108671226D01*
X161932612Y-108661905D01*
X161916286Y-108661328D01*
X161913075Y-108662323D01*
X161901125Y-108671637D01*
X161897995Y-108685234D01*
X161810586Y-108685234D01*
X161811175Y-108669423D01*
X161812941Y-108650890D01*
X161815378Y-108639240D01*
X161816438Y-108634830D01*
X161814151Y-108627513D01*
X161805320Y-108618546D01*
X161788282Y-108605880D01*
X161765167Y-108588831D01*
X161732232Y-108561628D01*
X161701129Y-108532733D01*
X161672614Y-108503167D01*
X161647441Y-108473949D01*
X161626365Y-108446100D01*
X161610139Y-108420641D01*
X161599518Y-108398593D01*
X161595257Y-108380976D01*
X161598110Y-108368810D01*
X161608832Y-108363117D01*
X161622641Y-108364409D01*
X161644796Y-108373227D01*
X161671587Y-108388939D01*
X161701654Y-108410424D01*
X161733639Y-108436560D01*
X161766183Y-108466226D01*
X161797930Y-108498300D01*
X161827519Y-108531661D01*
X161853593Y-108565187D01*
X161860841Y-108574326D01*
X161867579Y-108578089D01*
X161874617Y-108574442D01*
X161882065Y-108570130D01*
X161901570Y-108565010D01*
X161925818Y-108563180D01*
X161950807Y-108564819D01*
X161972537Y-108570104D01*
X161983566Y-108575228D01*
X162009121Y-108593787D01*
X162030572Y-108618205D01*
X162044318Y-108644736D01*
X162047047Y-108656832D01*
X162048716Y-108681435D01*
X162048534Y-108684356D01*
X162047124Y-108707042D01*
G37*
%TD*%
D12*
X108700000Y-52400000D02*
X129700000Y-52400000D01*
X105700000Y-117900000D02*
X105700000Y-97900000D01*
X171200000Y-52400000D02*
X176700000Y-52400000D01*
X149200000Y-139900000D02*
X130700000Y-139900000D01*
X130700000Y-139900000D02*
X108700000Y-139900000D01*
X176700000Y-139900000D02*
X165700000Y-139900000D01*
X176700000Y-52400000D02*
G75*
G02*
X179700000Y-55400000I0J-3000000D01*
G01*
X129700000Y-52400000D02*
X171200000Y-52400000D01*
X179700000Y-55400000D02*
X179700000Y-136900000D01*
X105700000Y-126900000D02*
X105700000Y-117900000D01*
X105700000Y-76400000D02*
X105700000Y-55400000D01*
X179700000Y-136900000D02*
G75*
G02*
X176700000Y-139900000I-3000000J0D01*
G01*
X108700000Y-139900000D02*
G75*
G02*
X105700000Y-136900000I0J3000000D01*
G01*
X105700000Y-55400000D02*
G75*
G02*
X108700000Y-52400000I3000000J0D01*
G01*
X105700000Y-136900000D02*
X105700000Y-126900000D01*
X165700000Y-139900000D02*
X149200000Y-139900000D01*
X105700000Y-97900000D02*
X105700000Y-76400000D01*
M02*
