%TF.GenerationSoftware,KiCad,Pcbnew,9.0.0*%
%TF.CreationDate,2025-03-28T01:16:57+01:00*%
%TF.ProjectId,pcb_odometrie,7063625f-6f64-46f6-9d65-747269652e6b,rev?*%
%TF.SameCoordinates,Original*%
%TF.FileFunction,Legend,Bot*%
%TF.FilePolarity,Positive*%
%FSLAX46Y46*%
G04 Gerber Fmt 4.6, Leading zero omitted, Abs format (unit mm)*
G04 Created by KiCad (PCBNEW 9.0.0) date 2025-03-28 01:16:57*
%MOMM*%
%LPD*%
G01*
G04 APERTURE LIST*
%ADD10C,0.150000*%
%ADD11C,0.000000*%
G04 APERTURE END LIST*
D10*
G36*
X190263549Y-78864313D02*
G01*
X190296261Y-78873293D01*
X190326659Y-78888178D01*
X190353737Y-78908372D01*
X190376258Y-78933122D01*
X190394534Y-78962935D01*
X190407714Y-78995547D01*
X190415627Y-79029633D01*
X190418299Y-79065603D01*
X190415835Y-79098751D01*
X190408615Y-79129391D01*
X190396714Y-79157969D01*
X190379952Y-79183677D01*
X190358249Y-79205386D01*
X190331019Y-79223408D01*
X190300871Y-79236538D01*
X190269829Y-79244343D01*
X190237498Y-79246959D01*
X190203098Y-79243985D01*
X190171078Y-79235214D01*
X190140900Y-79220587D01*
X190114026Y-79200659D01*
X190091824Y-79176077D01*
X190073966Y-79146300D01*
X190061126Y-79113722D01*
X190053485Y-79080387D01*
X190050927Y-79045941D01*
X190053357Y-79012456D01*
X190060500Y-78981249D01*
X190072299Y-78951908D01*
X190088822Y-78925218D01*
X190109570Y-78903081D01*
X190134916Y-78885058D01*
X190163247Y-78871951D01*
X190194064Y-78863982D01*
X190227924Y-78861251D01*
X190263549Y-78864313D01*
G37*
G36*
X193680863Y-79472455D02*
G01*
X189122189Y-79472455D01*
X189122189Y-78912542D01*
X189199967Y-78912542D01*
X189203507Y-78954802D01*
X189213930Y-78994025D01*
X189231255Y-79030853D01*
X189254966Y-79063627D01*
X189284110Y-79090173D01*
X189319304Y-79110995D01*
X189357952Y-79125531D01*
X189400187Y-79134462D01*
X189446634Y-79137538D01*
X189507628Y-79131896D01*
X189522074Y-79064876D01*
X189540026Y-78997428D01*
X189516744Y-79002000D01*
X189493993Y-79003498D01*
X189462996Y-79000539D01*
X189439970Y-78992573D01*
X189422997Y-78980331D01*
X189410030Y-78963669D01*
X189402338Y-78944988D01*
X189399703Y-78923612D01*
X189401044Y-78907927D01*
X189404832Y-78894761D01*
X189411461Y-78883339D01*
X189421159Y-78874116D01*
X189432969Y-78867463D01*
X189446036Y-78863644D01*
X189477238Y-78861251D01*
X189513013Y-78862191D01*
X189551994Y-78864969D01*
X189561483Y-79069620D01*
X189567681Y-79317228D01*
X189567681Y-79381000D01*
X189664193Y-79380059D01*
X189765151Y-79381000D01*
X189755449Y-79256918D01*
X189744268Y-79040940D01*
X189841147Y-79040940D01*
X189841461Y-79045941D01*
X189844486Y-79094154D01*
X189854244Y-79143385D01*
X189870212Y-79189214D01*
X189892555Y-79232135D01*
X189920393Y-79270194D01*
X189953987Y-79303849D01*
X189992280Y-79332140D01*
X190035564Y-79355138D01*
X190084480Y-79372836D01*
X190135405Y-79384916D01*
X190187910Y-79392217D01*
X190242243Y-79394677D01*
X190295955Y-79392264D01*
X190347676Y-79385115D01*
X190397655Y-79373306D01*
X190445574Y-79355890D01*
X190488498Y-79332846D01*
X190526993Y-79304106D01*
X190560865Y-79270092D01*
X190586601Y-79234667D01*
X190605041Y-79197549D01*
X190617638Y-79157815D01*
X190625404Y-79114561D01*
X190628079Y-79067270D01*
X190624867Y-79014920D01*
X190615530Y-78967066D01*
X190600346Y-78923085D01*
X190579353Y-78882451D01*
X190552573Y-78845472D01*
X190519966Y-78812558D01*
X190480991Y-78783475D01*
X190434883Y-78758199D01*
X190369691Y-78733762D01*
X190325552Y-78724475D01*
X190647271Y-78724475D01*
X190650220Y-78772346D01*
X190652870Y-78834024D01*
X190653554Y-78872278D01*
X190823755Y-78866722D01*
X190855982Y-78866722D01*
X190866839Y-79022304D01*
X190874960Y-79222553D01*
X190877824Y-79381000D01*
X190980577Y-79380059D01*
X191092049Y-79381000D01*
X191078521Y-79224251D01*
X191077248Y-79201823D01*
X191329099Y-79201823D01*
X191334252Y-79244105D01*
X191349829Y-79284572D01*
X191365508Y-79309177D01*
X191384979Y-79330636D01*
X191408557Y-79349199D01*
X191448347Y-79370661D01*
X191491991Y-79384590D01*
X191538125Y-79392105D01*
X191587734Y-79394677D01*
X191670087Y-79389772D01*
X191784563Y-79372579D01*
X191791841Y-79274090D01*
X191799309Y-79205029D01*
X191744851Y-79227413D01*
X191701942Y-79240163D01*
X191661313Y-79247504D01*
X191628852Y-79249695D01*
X191590040Y-79246298D01*
X191563456Y-79237513D01*
X191549663Y-79227730D01*
X191541955Y-79216056D01*
X191539349Y-79201823D01*
X191541700Y-79186692D01*
X191550591Y-79170279D01*
X191569483Y-79150190D01*
X191659413Y-79071672D01*
X191703438Y-79032862D01*
X191726944Y-79008174D01*
X191743103Y-78987127D01*
X191755517Y-78965451D01*
X191763833Y-78943957D01*
X191768678Y-78921492D01*
X191770330Y-78897325D01*
X191767756Y-78868256D01*
X191759986Y-78839666D01*
X191747140Y-78812536D01*
X191728870Y-78786793D01*
X191705402Y-78764352D01*
X191673988Y-78744350D01*
X191638720Y-78729367D01*
X191618926Y-78724475D01*
X192055380Y-78724475D01*
X192058329Y-78772346D01*
X192060979Y-78834024D01*
X192061663Y-78872278D01*
X192231863Y-78866722D01*
X192264091Y-78866722D01*
X192274948Y-79022304D01*
X192283069Y-79222553D01*
X192285933Y-79381000D01*
X192388686Y-79380059D01*
X192500158Y-79381000D01*
X192486630Y-79224251D01*
X192476917Y-79053150D01*
X192471392Y-78866765D01*
X192675146Y-78872236D01*
X192672667Y-78818209D01*
X192669760Y-78724475D01*
X192733105Y-78724475D01*
X192747081Y-78929981D01*
X192756656Y-79180665D01*
X192759520Y-79381000D01*
X192858896Y-79380059D01*
X192977976Y-79381000D01*
X192956128Y-79017452D01*
X192953419Y-78912542D01*
X193037901Y-78912542D01*
X193041442Y-78954802D01*
X193051865Y-78994025D01*
X193069189Y-79030853D01*
X193092901Y-79063627D01*
X193122045Y-79090173D01*
X193157238Y-79110995D01*
X193195887Y-79125531D01*
X193238121Y-79134462D01*
X193284568Y-79137538D01*
X193345562Y-79131896D01*
X193360009Y-79064876D01*
X193377961Y-78997428D01*
X193354678Y-79002000D01*
X193331927Y-79003498D01*
X193300930Y-79000539D01*
X193277904Y-78992573D01*
X193260932Y-78980331D01*
X193247964Y-78963669D01*
X193240272Y-78944988D01*
X193237637Y-78923612D01*
X193238979Y-78907927D01*
X193242766Y-78894761D01*
X193249395Y-78883339D01*
X193259094Y-78874116D01*
X193270904Y-78867463D01*
X193283970Y-78863644D01*
X193315172Y-78861251D01*
X193350947Y-78862191D01*
X193389929Y-78864969D01*
X193399417Y-79069620D01*
X193405615Y-79317228D01*
X193405615Y-79381000D01*
X193502128Y-79380059D01*
X193603085Y-79381000D01*
X193593383Y-79256918D01*
X193580988Y-79017475D01*
X193575730Y-78847915D01*
X193575260Y-78793376D01*
X193575730Y-78724432D01*
X193472977Y-78725928D01*
X193372148Y-78723791D01*
X193263539Y-78721611D01*
X193203445Y-78724042D01*
X193168266Y-78729818D01*
X193138537Y-78740460D01*
X193112145Y-78755677D01*
X193089078Y-78775004D01*
X193070685Y-78797051D01*
X193056459Y-78822093D01*
X193046108Y-78850950D01*
X193039954Y-78881450D01*
X193037901Y-78912542D01*
X192953419Y-78912542D01*
X192950194Y-78787648D01*
X192950664Y-78724475D01*
X192837396Y-78725415D01*
X192733105Y-78724475D01*
X192669760Y-78724475D01*
X192351884Y-78725415D01*
X192233744Y-78724945D01*
X192118980Y-78724945D01*
X192055380Y-78724475D01*
X191618926Y-78724475D01*
X191600941Y-78720030D01*
X191561675Y-78715175D01*
X191520799Y-78713533D01*
X191438243Y-78718141D01*
X191343503Y-78732938D01*
X191340127Y-78795128D01*
X191330809Y-78894846D01*
X191375953Y-78878108D01*
X191413003Y-78868431D01*
X191448104Y-78862887D01*
X191475364Y-78861251D01*
X191510270Y-78864853D01*
X191536443Y-78874629D01*
X191550636Y-78884978D01*
X191558151Y-78895732D01*
X191560550Y-78907370D01*
X191556831Y-78925578D01*
X191542683Y-78946522D01*
X191515114Y-78973151D01*
X191461088Y-79016406D01*
X191426680Y-79043718D01*
X191393597Y-79073980D01*
X191362866Y-79109114D01*
X191342905Y-79140915D01*
X191332518Y-79170151D01*
X191329099Y-79201823D01*
X191077248Y-79201823D01*
X191068808Y-79053150D01*
X191063283Y-78866765D01*
X191267037Y-78872236D01*
X191264558Y-78818209D01*
X191261651Y-78724475D01*
X190943775Y-78725415D01*
X190825635Y-78724945D01*
X190710872Y-78724945D01*
X190647271Y-78724475D01*
X190325552Y-78724475D01*
X190298204Y-78718721D01*
X190219333Y-78713533D01*
X190143713Y-78718740D01*
X190071615Y-78734177D01*
X190025773Y-78750899D01*
X189984510Y-78772904D01*
X189947320Y-78800257D01*
X189914348Y-78832558D01*
X189887947Y-78867349D01*
X189867605Y-78904891D01*
X189853224Y-78945136D01*
X189844267Y-78990222D01*
X189841147Y-79040940D01*
X189744268Y-79040940D01*
X189743053Y-79017475D01*
X189737796Y-78847915D01*
X189737326Y-78793376D01*
X189737796Y-78724432D01*
X189635043Y-78725928D01*
X189534213Y-78723791D01*
X189425605Y-78721611D01*
X189365511Y-78724042D01*
X189330332Y-78729818D01*
X189300603Y-78740460D01*
X189274211Y-78755677D01*
X189251144Y-78775004D01*
X189232750Y-78797051D01*
X189218524Y-78822093D01*
X189208174Y-78850950D01*
X189202020Y-78881450D01*
X189199967Y-78912542D01*
X189122189Y-78912542D01*
X189122189Y-78635755D01*
X193680863Y-78635755D01*
X193680863Y-79472455D01*
G37*
D11*
%TO.C,G\u002A\u002A\u002A*%
G36*
X190374792Y-54610738D02*
G01*
X190374792Y-55307567D01*
X188104385Y-55307567D01*
X185833978Y-55307567D01*
X185833978Y-54610738D01*
X185833978Y-54250900D01*
X186176681Y-54250900D01*
X186176681Y-54607882D01*
X186176681Y-54964864D01*
X188107241Y-54964864D01*
X190037801Y-54964864D01*
X190037801Y-54607882D01*
X190037801Y-54250900D01*
X188107241Y-54250900D01*
X186176681Y-54250900D01*
X185833978Y-54250900D01*
X185833978Y-53913908D01*
X188104385Y-53913908D01*
X190374792Y-53913908D01*
X190374792Y-54250900D01*
X190374792Y-54610738D01*
G37*
G36*
X190374792Y-60859355D02*
G01*
X188041556Y-60859355D01*
X185708320Y-60859355D01*
X185708320Y-60162525D01*
X185708320Y-59802687D01*
X186051023Y-59802687D01*
X186051023Y-60159670D01*
X186051023Y-60516652D01*
X188044419Y-60516652D01*
X190037814Y-60516652D01*
X190036380Y-58156285D01*
X190034945Y-55795919D01*
X189546593Y-55795919D01*
X189058241Y-55795919D01*
X189056805Y-57799303D01*
X189055369Y-59802687D01*
X187553196Y-59802687D01*
X186051023Y-59802687D01*
X185708320Y-59802687D01*
X185708320Y-59465696D01*
X187210501Y-59465696D01*
X188712683Y-59465696D01*
X188712683Y-57460884D01*
X188712683Y-55456072D01*
X189543737Y-55456072D01*
X190374792Y-55456072D01*
X190374792Y-58157713D01*
X190374792Y-60516652D01*
X190374792Y-60859355D01*
G37*
G36*
X197325950Y-59185822D02*
G01*
X196534877Y-59185822D01*
X195743805Y-59185822D01*
X195743805Y-57479779D01*
X195743805Y-55861221D01*
X196086486Y-55861221D01*
X196087925Y-57350742D01*
X196089364Y-58840263D01*
X196533449Y-58841726D01*
X196977535Y-58843189D01*
X196977535Y-56494687D01*
X196977534Y-56402537D01*
X196977522Y-56241021D01*
X196977499Y-56082642D01*
X196977467Y-55927778D01*
X196977424Y-55776805D01*
X196977371Y-55630101D01*
X196977310Y-55488041D01*
X196977239Y-55351002D01*
X196977160Y-55219361D01*
X196977073Y-55093494D01*
X196976979Y-54973778D01*
X196976877Y-54860590D01*
X196976768Y-54754306D01*
X196976652Y-54655302D01*
X196976530Y-54563956D01*
X196976402Y-54480644D01*
X196976269Y-54405743D01*
X196976130Y-54339629D01*
X196975987Y-54282678D01*
X196975840Y-54235268D01*
X196975688Y-54197776D01*
X196975533Y-54170576D01*
X196975375Y-54154047D01*
X196975214Y-54148565D01*
X196973760Y-54151086D01*
X196968863Y-54160212D01*
X196960434Y-54176182D01*
X196948364Y-54199203D01*
X196932547Y-54229479D01*
X196912875Y-54267219D01*
X196889242Y-54312628D01*
X196861540Y-54365912D01*
X196829662Y-54427279D01*
X196793500Y-54496935D01*
X196752948Y-54575086D01*
X196707898Y-54661938D01*
X196658244Y-54757698D01*
X196603877Y-54862573D01*
X196544691Y-54976768D01*
X196480579Y-55100491D01*
X196411433Y-55233948D01*
X196337146Y-55377344D01*
X196086486Y-55861221D01*
X195743805Y-55861221D01*
X195743805Y-55773737D01*
X196181851Y-54928070D01*
X196194112Y-54904401D01*
X196245687Y-54804836D01*
X196297995Y-54703856D01*
X196350576Y-54602352D01*
X196402969Y-54501212D01*
X196454714Y-54401325D01*
X196505350Y-54303580D01*
X196554416Y-54208867D01*
X196601452Y-54118075D01*
X196645998Y-54032091D01*
X196687592Y-53951806D01*
X196725775Y-53878109D01*
X196760086Y-53811888D01*
X196790063Y-53754032D01*
X196815247Y-53705431D01*
X197010597Y-53328458D01*
X197168273Y-53326939D01*
X197325950Y-53325421D01*
X197325950Y-56255622D01*
X197325950Y-58843189D01*
X197325950Y-59185822D01*
G37*
G36*
X196911283Y-53257367D02*
G01*
X196884985Y-53307794D01*
X196846483Y-53381621D01*
X196803256Y-53464512D01*
X196755615Y-53555867D01*
X196703874Y-53655084D01*
X196648346Y-53761563D01*
X196589344Y-53874703D01*
X196527183Y-53993903D01*
X196462175Y-54118563D01*
X196394634Y-54248081D01*
X196324872Y-54381857D01*
X196253203Y-54519290D01*
X196179941Y-54659780D01*
X196105399Y-54802724D01*
X196029889Y-54947524D01*
X195953726Y-55093577D01*
X195877223Y-55240283D01*
X195800693Y-55387041D01*
X195724449Y-55533251D01*
X195648804Y-55678311D01*
X195574073Y-55821621D01*
X195520571Y-55924218D01*
X195451178Y-56057284D01*
X195383120Y-56187782D01*
X195316596Y-56315333D01*
X195251802Y-56439561D01*
X195188936Y-56560087D01*
X195128195Y-56676532D01*
X195069777Y-56788520D01*
X195013878Y-56895670D01*
X194960695Y-56997607D01*
X194910427Y-57093950D01*
X194863271Y-57184324D01*
X194819423Y-57268348D01*
X194779081Y-57345646D01*
X194742442Y-57415839D01*
X194709703Y-57478550D01*
X194681063Y-57533399D01*
X194656717Y-57580010D01*
X194636864Y-57618003D01*
X194621700Y-57647002D01*
X194611423Y-57666627D01*
X194606230Y-57676501D01*
X194572136Y-57740758D01*
X193755744Y-57740758D01*
X192939352Y-57740758D01*
X192939352Y-57612549D01*
X192939352Y-57484341D01*
X192987484Y-57391981D01*
X193379154Y-57391981D01*
X193381116Y-57392704D01*
X193392939Y-57393830D01*
X193414586Y-57394834D01*
X193445051Y-57395717D01*
X193483329Y-57396479D01*
X193528415Y-57397123D01*
X193579303Y-57397649D01*
X193634989Y-57398057D01*
X193694467Y-57398351D01*
X193756732Y-57398529D01*
X193820778Y-57398594D01*
X193885602Y-57398547D01*
X193950197Y-57398388D01*
X194013558Y-57398119D01*
X194074680Y-57397741D01*
X194132558Y-57397254D01*
X194186187Y-57396661D01*
X194234561Y-57395962D01*
X194276675Y-57395158D01*
X194311525Y-57394250D01*
X194338104Y-57393240D01*
X194355409Y-57392128D01*
X194362432Y-57390915D01*
X194362819Y-57390437D01*
X194367621Y-57382319D01*
X194377324Y-57364757D01*
X194391634Y-57338311D01*
X194410253Y-57303540D01*
X194432888Y-57261007D01*
X194459242Y-57211269D01*
X194489020Y-57154889D01*
X194521926Y-57092425D01*
X194557665Y-57024438D01*
X194595942Y-56951488D01*
X194636459Y-56874135D01*
X194678924Y-56792940D01*
X194723038Y-56708462D01*
X194768508Y-56621262D01*
X194796165Y-56568187D01*
X194835799Y-56492139D01*
X194880112Y-56407124D01*
X194928762Y-56313795D01*
X194981412Y-56212803D01*
X195037721Y-56104796D01*
X195097350Y-55990428D01*
X195159961Y-55870348D01*
X195225213Y-55745207D01*
X195292767Y-55615656D01*
X195362284Y-55482346D01*
X195433425Y-55345927D01*
X195505850Y-55207050D01*
X195579219Y-55066366D01*
X195653194Y-54924526D01*
X195727436Y-54782181D01*
X195801604Y-54639981D01*
X195875359Y-54498577D01*
X195948363Y-54358620D01*
X196020275Y-54220761D01*
X196080064Y-54106139D01*
X196145706Y-53980279D01*
X196209802Y-53857369D01*
X196272154Y-53737787D01*
X196332565Y-53621910D01*
X196390840Y-53510116D01*
X196446780Y-53402783D01*
X196500191Y-53300289D01*
X196550873Y-53203011D01*
X196598632Y-53111328D01*
X196643270Y-53025616D01*
X196684590Y-52946255D01*
X196722397Y-52873620D01*
X196756492Y-52808092D01*
X196786679Y-52750046D01*
X196812762Y-52699861D01*
X196834544Y-52657915D01*
X196851828Y-52624585D01*
X196864417Y-52600249D01*
X196872115Y-52585285D01*
X196874724Y-52580071D01*
X196871096Y-52579743D01*
X196856925Y-52579352D01*
X196832815Y-52578984D01*
X196799587Y-52578642D01*
X196758065Y-52578330D01*
X196709071Y-52578055D01*
X196653426Y-52577819D01*
X196591953Y-52577628D01*
X196525476Y-52577486D01*
X196454815Y-52577397D01*
X196380793Y-52577367D01*
X195886861Y-52577367D01*
X195878804Y-52590218D01*
X195877402Y-52592731D01*
X195870976Y-52604766D01*
X195859767Y-52626003D01*
X195844084Y-52655848D01*
X195824238Y-52693707D01*
X195800539Y-52738986D01*
X195773297Y-52791090D01*
X195742824Y-52849427D01*
X195709429Y-52913401D01*
X195673423Y-52982419D01*
X195635116Y-53055886D01*
X195594819Y-53133209D01*
X195552842Y-53213792D01*
X195509495Y-53297043D01*
X195482488Y-53348924D01*
X195429920Y-53449897D01*
X195373308Y-53558628D01*
X195313449Y-53673589D01*
X195251138Y-53793251D01*
X195187171Y-53916086D01*
X195122344Y-54040566D01*
X195057453Y-54165162D01*
X194993295Y-54288346D01*
X194930664Y-54408590D01*
X194870357Y-54524365D01*
X194813170Y-54634143D01*
X194759899Y-54736395D01*
X194711519Y-54829253D01*
X194619510Y-55005853D01*
X194532529Y-55172800D01*
X194450412Y-55330412D01*
X194372991Y-55479008D01*
X194300102Y-55618906D01*
X194231579Y-55750423D01*
X194167256Y-55873878D01*
X194106967Y-55989589D01*
X194050546Y-56097873D01*
X193997829Y-56199049D01*
X193948648Y-56293435D01*
X193902839Y-56381349D01*
X193860236Y-56463109D01*
X193820673Y-56539033D01*
X193783984Y-56609439D01*
X193750003Y-56674645D01*
X193718565Y-56734969D01*
X193689504Y-56790730D01*
X193662655Y-56842244D01*
X193637851Y-56889831D01*
X193614927Y-56933808D01*
X193593717Y-56974493D01*
X193574055Y-57012205D01*
X193555777Y-57047261D01*
X193538715Y-57079980D01*
X193522704Y-57110679D01*
X193507684Y-57139510D01*
X193481500Y-57189936D01*
X193457242Y-57236862D01*
X193435392Y-57279343D01*
X193416433Y-57316433D01*
X193400847Y-57347188D01*
X193389117Y-57370661D01*
X193381726Y-57385907D01*
X193379154Y-57391981D01*
X192987484Y-57391981D01*
X193284050Y-56822905D01*
X193287958Y-56815405D01*
X193322542Y-56749041D01*
X193361983Y-56673355D01*
X193405906Y-56589068D01*
X193453936Y-56496898D01*
X193505698Y-56397566D01*
X193560816Y-56291793D01*
X193618915Y-56180296D01*
X193679621Y-56063798D01*
X193742558Y-55943018D01*
X193807350Y-55818675D01*
X193873624Y-55691490D01*
X193941003Y-55562183D01*
X194009112Y-55431473D01*
X194077576Y-55300081D01*
X194146021Y-55168727D01*
X194214070Y-55038130D01*
X194281349Y-54909011D01*
X194347483Y-54782089D01*
X194363867Y-54750646D01*
X194429605Y-54624484D01*
X194496069Y-54496932D01*
X194562904Y-54368669D01*
X194629758Y-54240372D01*
X194696277Y-54112718D01*
X194762109Y-53986385D01*
X194826899Y-53862051D01*
X194890296Y-53740394D01*
X194951946Y-53622091D01*
X195011496Y-53507819D01*
X195068592Y-53398258D01*
X195122882Y-53294083D01*
X195174012Y-53195973D01*
X195221629Y-53104606D01*
X195265381Y-53020659D01*
X195304913Y-52944810D01*
X195339873Y-52877736D01*
X195369908Y-52820115D01*
X195673597Y-52237520D01*
X196492634Y-52237520D01*
X197311671Y-52237520D01*
X197313207Y-52360628D01*
X197314743Y-52483736D01*
X197264503Y-52580071D01*
X196911283Y-53257367D01*
G37*
G36*
X192027859Y-52256067D02*
G01*
X192029174Y-52258868D01*
X192031512Y-52263932D01*
X192034919Y-52271371D01*
X192039529Y-52281484D01*
X192045478Y-52294568D01*
X192052900Y-52310921D01*
X192061928Y-52330839D01*
X192072699Y-52354622D01*
X192085345Y-52382567D01*
X192100002Y-52414970D01*
X192116803Y-52452130D01*
X192135884Y-52494345D01*
X192157379Y-52541912D01*
X192181421Y-52595129D01*
X192208147Y-52654293D01*
X192237690Y-52719702D01*
X192270184Y-52791654D01*
X192305765Y-52870446D01*
X192344565Y-52956376D01*
X192386721Y-53049742D01*
X192432366Y-53150841D01*
X192481635Y-53259971D01*
X192534663Y-53377429D01*
X192591583Y-53503514D01*
X192652530Y-53638522D01*
X192717639Y-53782752D01*
X192787044Y-53936501D01*
X192860879Y-54100066D01*
X192939280Y-54273747D01*
X192963318Y-54326998D01*
X193009463Y-54429224D01*
X193055829Y-54531936D01*
X193102036Y-54634298D01*
X193147707Y-54735470D01*
X193192462Y-54834614D01*
X193235924Y-54930892D01*
X193277714Y-55023466D01*
X193317453Y-55111496D01*
X193354763Y-55194145D01*
X193389265Y-55270574D01*
X193420581Y-55339945D01*
X193448333Y-55401419D01*
X193472142Y-55454158D01*
X193491630Y-55497324D01*
X193643054Y-55832729D01*
X193281208Y-56522577D01*
X192919361Y-57212424D01*
X192793337Y-57213959D01*
X192667312Y-57215493D01*
X192485832Y-56808427D01*
X192482032Y-56799901D01*
X192454501Y-56738143D01*
X192422965Y-56667391D01*
X192387979Y-56588893D01*
X192350101Y-56503901D01*
X192309888Y-56413664D01*
X192267897Y-56319433D01*
X192224686Y-56222458D01*
X192180810Y-56123988D01*
X192136827Y-56025274D01*
X192093295Y-55927565D01*
X192050770Y-55832113D01*
X192009809Y-55740167D01*
X192006785Y-55733378D01*
X191970278Y-55651474D01*
X191935078Y-55572582D01*
X191901463Y-55497323D01*
X191869712Y-55426314D01*
X191840102Y-55360175D01*
X191812910Y-55299523D01*
X191788415Y-55244979D01*
X191766895Y-55197160D01*
X191748627Y-55156685D01*
X191733890Y-55124173D01*
X191722960Y-55100243D01*
X191716116Y-55085514D01*
X191713636Y-55080603D01*
X191713429Y-55083062D01*
X191713457Y-55095294D01*
X191713892Y-55116337D01*
X191714692Y-55144591D01*
X191715814Y-55178452D01*
X191717216Y-55216319D01*
X191717267Y-55217704D01*
X191717670Y-55235197D01*
X191718065Y-55263599D01*
X191718452Y-55302454D01*
X191718829Y-55351305D01*
X191719196Y-55409694D01*
X191719550Y-55477164D01*
X191719891Y-55553258D01*
X191720217Y-55637518D01*
X191720527Y-55729489D01*
X191720821Y-55828713D01*
X191721096Y-55934732D01*
X191721353Y-56047089D01*
X191721588Y-56165328D01*
X191721802Y-56288991D01*
X191721993Y-56417622D01*
X191722160Y-56550762D01*
X191722302Y-56687955D01*
X191722417Y-56828744D01*
X191722504Y-56972671D01*
X191722563Y-57119280D01*
X191722591Y-57268114D01*
X191722757Y-59185822D01*
X191185856Y-59185822D01*
X190648954Y-59185822D01*
X190648954Y-59014513D01*
X190648954Y-58843204D01*
X191013076Y-58841733D01*
X191377198Y-58840263D01*
X191378939Y-57166731D01*
X191379088Y-57017642D01*
X191379236Y-56851015D01*
X191379350Y-56695004D01*
X191379425Y-56549172D01*
X191379459Y-56413081D01*
X191379447Y-56286294D01*
X191379385Y-56168373D01*
X191379270Y-56058879D01*
X191379098Y-55957376D01*
X191378865Y-55863426D01*
X191378567Y-55776591D01*
X191378201Y-55696433D01*
X191377763Y-55622515D01*
X191377249Y-55554399D01*
X191376655Y-55491647D01*
X191375977Y-55433821D01*
X191375213Y-55380485D01*
X191374357Y-55331199D01*
X191373406Y-55285527D01*
X191372357Y-55243031D01*
X191371206Y-55203273D01*
X191369948Y-55165815D01*
X191368580Y-55130220D01*
X191367099Y-55096049D01*
X191365500Y-55062866D01*
X191363781Y-55030233D01*
X191361936Y-54997711D01*
X191359962Y-54964864D01*
X191359555Y-54958290D01*
X191349212Y-54810614D01*
X191336541Y-54661367D01*
X191321817Y-54513140D01*
X191305317Y-54368523D01*
X191287315Y-54230108D01*
X191268086Y-54100486D01*
X191265627Y-54084434D01*
X191262722Y-54063363D01*
X191261101Y-54048584D01*
X191261065Y-54042584D01*
X191261746Y-54042286D01*
X191270622Y-54039337D01*
X191288651Y-54033675D01*
X191314463Y-54025717D01*
X191346690Y-54015886D01*
X191383963Y-54004600D01*
X191424915Y-53992280D01*
X191586867Y-53943708D01*
X191598558Y-53970218D01*
X191599087Y-53971414D01*
X191603848Y-53982126D01*
X191612964Y-54002611D01*
X191626207Y-54032355D01*
X191643346Y-54070843D01*
X191664154Y-54117563D01*
X191688401Y-54171999D01*
X191715858Y-54233638D01*
X191746297Y-54301966D01*
X191779487Y-54376468D01*
X191815201Y-54456631D01*
X191853209Y-54541940D01*
X191893282Y-54631882D01*
X191935191Y-54725942D01*
X191978707Y-54823607D01*
X192023602Y-54924362D01*
X192069645Y-55027693D01*
X192107130Y-55111816D01*
X192155395Y-55220132D01*
X192203482Y-55328048D01*
X192251072Y-55434849D01*
X192297844Y-55539817D01*
X192343481Y-55642236D01*
X192387662Y-55741388D01*
X192430067Y-55836558D01*
X192470379Y-55927027D01*
X192508276Y-56012080D01*
X192543440Y-56090999D01*
X192575552Y-56163068D01*
X192604292Y-56227570D01*
X192629340Y-56283788D01*
X192650377Y-56331005D01*
X192667085Y-56368504D01*
X192690797Y-56421633D01*
X192714432Y-56474386D01*
X192736325Y-56523046D01*
X192756063Y-56566705D01*
X192773232Y-56604457D01*
X192787422Y-56635394D01*
X192798219Y-56658610D01*
X192805210Y-56673197D01*
X192807983Y-56678249D01*
X192809523Y-56675873D01*
X192815966Y-56664369D01*
X192827042Y-56643987D01*
X192842358Y-56615463D01*
X192861525Y-56579535D01*
X192884151Y-56536938D01*
X192909844Y-56488410D01*
X192938214Y-56434688D01*
X192968870Y-56376507D01*
X193001420Y-56314606D01*
X193035473Y-56249721D01*
X193260107Y-55821296D01*
X192773272Y-54743373D01*
X192733750Y-54655864D01*
X192681292Y-54539707D01*
X192628069Y-54421852D01*
X192574472Y-54303165D01*
X192520891Y-54184509D01*
X192467718Y-54066750D01*
X192415341Y-53950753D01*
X192364153Y-53837382D01*
X192314543Y-53727504D01*
X192266903Y-53621981D01*
X192221621Y-53521680D01*
X192179090Y-53427465D01*
X192139699Y-53340201D01*
X192103839Y-53260753D01*
X192071900Y-53189986D01*
X192044274Y-53128765D01*
X192018240Y-53071106D01*
X191985769Y-52999289D01*
X191954794Y-52930894D01*
X191925633Y-52866620D01*
X191898607Y-52807166D01*
X191874035Y-52753232D01*
X191852236Y-52705517D01*
X191833528Y-52664722D01*
X191818232Y-52631546D01*
X191806667Y-52606687D01*
X191799151Y-52590847D01*
X191796005Y-52584724D01*
X191793332Y-52583634D01*
X191786581Y-52582616D01*
X191775258Y-52581707D01*
X191758836Y-52580903D01*
X191736789Y-52580198D01*
X191708588Y-52579586D01*
X191673708Y-52579061D01*
X191631620Y-52578619D01*
X191581799Y-52578254D01*
X191523716Y-52577960D01*
X191456845Y-52577732D01*
X191380659Y-52577564D01*
X191294631Y-52577451D01*
X191198234Y-52577387D01*
X191090940Y-52577367D01*
X190391981Y-52577367D01*
X190390526Y-53158534D01*
X190389071Y-53739701D01*
X190217720Y-53739701D01*
X190046368Y-53739701D01*
X190046368Y-52988610D01*
X190046368Y-52237520D01*
X191032002Y-52236076D01*
X192017635Y-52234632D01*
X192027859Y-52256067D01*
G37*
G36*
X188486692Y-57244059D02*
G01*
X188486903Y-57285463D01*
X188487016Y-57335584D01*
X188487061Y-57395324D01*
X188487070Y-57465585D01*
X188487065Y-57538126D01*
X188487000Y-57600756D01*
X188486797Y-57653720D01*
X188486380Y-57697901D01*
X188485671Y-57734183D01*
X188484593Y-57763447D01*
X188483071Y-57786577D01*
X188481026Y-57804454D01*
X188478382Y-57817963D01*
X188475061Y-57827984D01*
X188470987Y-57835402D01*
X188466084Y-57841098D01*
X188460273Y-57845955D01*
X188453477Y-57850857D01*
X188449654Y-57853439D01*
X188440742Y-57857989D01*
X188429434Y-57861193D01*
X188413471Y-57863418D01*
X188390599Y-57865036D01*
X188358561Y-57866416D01*
X188281448Y-57869272D01*
X188279807Y-57929030D01*
X188279578Y-57936394D01*
X188277639Y-57966818D01*
X188273881Y-57987740D01*
X188267620Y-58000722D01*
X188258176Y-58007328D01*
X188244865Y-58009121D01*
X188234676Y-58008615D01*
X188224871Y-58005690D01*
X188218337Y-57998541D01*
X188214244Y-57985369D01*
X188211759Y-57964373D01*
X188210052Y-57933754D01*
X188207196Y-57869272D01*
X188118664Y-57869272D01*
X188030133Y-57869272D01*
X188027277Y-57933754D01*
X188026014Y-57958038D01*
X188023790Y-57981156D01*
X188020154Y-57996024D01*
X188014275Y-58004441D01*
X188005322Y-58008207D01*
X187992464Y-58009121D01*
X187989459Y-58009072D01*
X187976976Y-58006441D01*
X187968223Y-57998685D01*
X187962518Y-57984240D01*
X187959178Y-57961543D01*
X187957521Y-57929030D01*
X187955880Y-57869272D01*
X187875916Y-57869272D01*
X187795952Y-57869272D01*
X187793096Y-57929828D01*
X187791920Y-57950626D01*
X187789206Y-57976657D01*
X187784830Y-57993827D01*
X187777993Y-58003725D01*
X187767895Y-58007943D01*
X187753735Y-58008070D01*
X187749375Y-58007569D01*
X187736713Y-58003458D01*
X187727993Y-57994475D01*
X187722559Y-57979001D01*
X187719756Y-57955417D01*
X187718928Y-57922105D01*
X187718844Y-57866416D01*
X187647448Y-57866416D01*
X187576051Y-57866416D01*
X187575650Y-57922105D01*
X187575553Y-57931931D01*
X187574696Y-57959775D01*
X187572588Y-57979004D01*
X187568645Y-57991795D01*
X187562281Y-58000324D01*
X187552912Y-58006769D01*
X187550749Y-58007962D01*
X187538803Y-58013520D01*
X187529419Y-58013525D01*
X187516210Y-58008229D01*
X187510401Y-58005194D01*
X187504118Y-57999532D01*
X187499918Y-57990565D01*
X187497285Y-57976262D01*
X187495702Y-57954594D01*
X187494653Y-57923533D01*
X187493231Y-57869272D01*
X187410411Y-57869272D01*
X187327592Y-57869272D01*
X187324736Y-57929828D01*
X187323559Y-57950626D01*
X187320845Y-57976657D01*
X187316470Y-57993827D01*
X187309633Y-58003725D01*
X187299534Y-58007943D01*
X187285374Y-58008070D01*
X187280890Y-58007551D01*
X187268277Y-58003415D01*
X187259592Y-57994405D01*
X187254181Y-57978903D01*
X187251391Y-57955290D01*
X187250568Y-57921948D01*
X187250483Y-57866102D01*
X187169091Y-57867687D01*
X187087700Y-57869272D01*
X187084844Y-57933754D01*
X187083581Y-57958038D01*
X187081357Y-57981156D01*
X187077721Y-57996024D01*
X187071842Y-58004441D01*
X187062889Y-58008207D01*
X187050031Y-58009121D01*
X187047026Y-58009072D01*
X187034543Y-58006441D01*
X187025790Y-57998685D01*
X187020084Y-57984240D01*
X187016745Y-57961543D01*
X187015088Y-57929030D01*
X187013447Y-57869272D01*
X186938404Y-57867682D01*
X186863361Y-57866093D01*
X186861187Y-57929624D01*
X186860304Y-57949972D01*
X186857944Y-57975824D01*
X186853747Y-57992975D01*
X186846871Y-58003125D01*
X186836473Y-58007971D01*
X186821712Y-58009209D01*
X186817847Y-58009090D01*
X186806613Y-58006312D01*
X186798687Y-57998621D01*
X186793378Y-57984393D01*
X186789992Y-57962004D01*
X186787834Y-57929828D01*
X186784979Y-57869272D01*
X186705015Y-57866416D01*
X186699140Y-57866201D01*
X186664929Y-57864554D01*
X186639772Y-57862196D01*
X186621605Y-57858558D01*
X186608359Y-57853070D01*
X186597969Y-57845163D01*
X186588367Y-57834267D01*
X186587408Y-57833030D01*
X186585106Y-57829623D01*
X186583154Y-57825360D01*
X186581524Y-57819361D01*
X186580187Y-57810744D01*
X186579115Y-57798629D01*
X186578280Y-57782135D01*
X186577655Y-57760382D01*
X186577209Y-57732490D01*
X186576917Y-57697577D01*
X186576748Y-57654763D01*
X186576676Y-57603167D01*
X186576671Y-57541910D01*
X186576706Y-57470109D01*
X186576841Y-57240983D01*
X186739285Y-57240983D01*
X186739285Y-57469451D01*
X186739285Y-57697920D01*
X187528930Y-57699368D01*
X188318574Y-57700816D01*
X188318574Y-57469451D01*
X188318574Y-57238087D01*
X187528930Y-57239535D01*
X186739285Y-57240983D01*
X186576841Y-57240983D01*
X186576912Y-57121037D01*
X186589558Y-57106011D01*
X186598694Y-57096139D01*
X186611762Y-57086068D01*
X186627603Y-57079252D01*
X186648370Y-57075105D01*
X186676218Y-57073044D01*
X186713298Y-57072487D01*
X186787834Y-57072487D01*
X186787922Y-57005375D01*
X186788258Y-56979942D01*
X186789182Y-56956728D01*
X186790547Y-56939900D01*
X186792206Y-56931977D01*
X186796556Y-56926668D01*
X186812065Y-56917680D01*
X186829680Y-56916911D01*
X186845713Y-56923987D01*
X186856477Y-56938531D01*
X186858059Y-56945120D01*
X186860135Y-56962659D01*
X186861558Y-56986319D01*
X186862087Y-57012886D01*
X186862087Y-57072487D01*
X186950618Y-57072487D01*
X187039150Y-57072487D01*
X187039150Y-57005038D01*
X187039463Y-56977107D01*
X187041061Y-56951021D01*
X187044553Y-56933486D01*
X187050530Y-56922921D01*
X187059585Y-56917742D01*
X187072307Y-56916367D01*
X187074109Y-56916375D01*
X187087268Y-56917468D01*
X187096474Y-56921579D01*
X187102425Y-56930388D01*
X187105814Y-56945574D01*
X187107337Y-56968815D01*
X187107691Y-57001790D01*
X187107691Y-57072487D01*
X187190510Y-57072487D01*
X187273330Y-57072487D01*
X187273330Y-57006543D01*
X187273361Y-56990286D01*
X187273750Y-56966750D01*
X187274924Y-56950998D01*
X187277304Y-56940643D01*
X187281306Y-56933299D01*
X187287350Y-56926579D01*
X187290072Y-56923932D01*
X187303806Y-56914405D01*
X187316742Y-56914619D01*
X187332533Y-56924397D01*
X187338109Y-56929067D01*
X187342650Y-56934791D01*
X187345443Y-56942931D01*
X187346914Y-56955738D01*
X187347486Y-56975464D01*
X187347583Y-57004361D01*
X187347583Y-57072487D01*
X187421835Y-57072487D01*
X187496087Y-57072487D01*
X187496087Y-57001415D01*
X187496143Y-56978886D01*
X187496573Y-56956079D01*
X187497715Y-56941049D01*
X187499907Y-56931678D01*
X187503484Y-56925851D01*
X187508782Y-56921451D01*
X187524101Y-56914160D01*
X187543675Y-56914745D01*
X187562032Y-56926579D01*
X187565481Y-56930172D01*
X187570402Y-56936922D01*
X187573501Y-56945547D01*
X187575197Y-56958434D01*
X187575907Y-56977971D01*
X187576051Y-57006543D01*
X187576051Y-57072487D01*
X187658871Y-57072487D01*
X187741691Y-57072487D01*
X187741691Y-57006543D01*
X187741721Y-56990286D01*
X187742110Y-56966750D01*
X187743285Y-56950998D01*
X187745664Y-56940643D01*
X187749667Y-56933299D01*
X187755711Y-56926579D01*
X187758433Y-56923932D01*
X187772166Y-56914405D01*
X187785102Y-56914619D01*
X187800894Y-56924397D01*
X187806469Y-56929067D01*
X187811010Y-56934791D01*
X187813804Y-56942931D01*
X187815275Y-56955738D01*
X187815847Y-56975464D01*
X187815943Y-57004361D01*
X187815943Y-57072487D01*
X187898763Y-57072487D01*
X187981583Y-57072487D01*
X187981583Y-57005038D01*
X187981896Y-56977107D01*
X187983494Y-56951021D01*
X187986986Y-56933486D01*
X187992964Y-56922921D01*
X188002018Y-56917742D01*
X188014741Y-56916367D01*
X188016542Y-56916375D01*
X188029701Y-56917468D01*
X188038908Y-56921579D01*
X188044858Y-56930388D01*
X188048247Y-56945574D01*
X188049770Y-56968815D01*
X188050124Y-57001790D01*
X188050124Y-57072487D01*
X188130088Y-57072487D01*
X188210052Y-57072487D01*
X188210052Y-57001790D01*
X188210055Y-56997441D01*
X188210508Y-56965673D01*
X188212211Y-56943445D01*
X188215859Y-56929080D01*
X188222149Y-56920898D01*
X188231776Y-56917220D01*
X188245435Y-56916367D01*
X188255641Y-56917160D01*
X188265491Y-56921369D01*
X188272116Y-56930633D01*
X188276111Y-56946536D01*
X188278071Y-56970662D01*
X188278592Y-57004596D01*
X188278592Y-57071602D01*
X188355305Y-57073473D01*
X188363268Y-57073678D01*
X188396163Y-57075039D01*
X188420356Y-57077555D01*
X188438107Y-57081999D01*
X188451674Y-57089149D01*
X188463316Y-57099780D01*
X188475294Y-57114668D01*
X188475401Y-57114812D01*
X188477854Y-57118364D01*
X188479936Y-57122514D01*
X188481679Y-57128163D01*
X188483112Y-57136213D01*
X188484266Y-57147566D01*
X188485170Y-57163125D01*
X188485856Y-57183792D01*
X188486353Y-57210470D01*
X188486632Y-57238087D01*
X188486692Y-57244059D01*
G37*
G36*
X194547124Y-51957042D02*
G01*
X194542408Y-51977637D01*
X194542210Y-51978315D01*
X194545315Y-51986223D01*
X194557492Y-51998118D01*
X194579309Y-52014571D01*
X194583835Y-52017813D01*
X194613474Y-52041262D01*
X194643347Y-52068309D01*
X194672337Y-52097582D01*
X194699326Y-52127705D01*
X194723195Y-52157304D01*
X194742828Y-52185007D01*
X194757107Y-52209437D01*
X194764913Y-52229222D01*
X194765129Y-52242988D01*
X194759435Y-52249486D01*
X194746086Y-52251013D01*
X194727036Y-52245596D01*
X194703447Y-52234040D01*
X194676481Y-52217153D01*
X194647299Y-52195740D01*
X194617065Y-52170608D01*
X194586939Y-52142563D01*
X194558084Y-52112412D01*
X194531661Y-52080962D01*
X194527128Y-52075151D01*
X194513785Y-52058094D01*
X194503640Y-52045190D01*
X194498601Y-52038871D01*
X194498250Y-52038542D01*
X194490529Y-52038482D01*
X194478207Y-52043369D01*
X194475012Y-52044918D01*
X194453982Y-52050077D01*
X194423892Y-52050812D01*
X194386259Y-52049305D01*
X194347484Y-52083348D01*
X194314328Y-52114528D01*
X194273899Y-52156818D01*
X194231315Y-52205158D01*
X194188302Y-52257445D01*
X194146585Y-52311575D01*
X194107887Y-52365447D01*
X194073935Y-52416956D01*
X194036767Y-52476445D01*
X194050160Y-52502875D01*
X194052540Y-52507641D01*
X194067605Y-52542932D01*
X194077321Y-52578125D01*
X194082465Y-52616927D01*
X194083817Y-52663043D01*
X194083694Y-52675676D01*
X194082655Y-52705216D01*
X194080164Y-52728758D01*
X194075674Y-52750296D01*
X194068638Y-52773819D01*
X194053825Y-52818911D01*
X194073445Y-52857870D01*
X194075754Y-52862393D01*
X194099754Y-52904637D01*
X194130785Y-52952702D01*
X194167587Y-53004910D01*
X194208896Y-53059585D01*
X194253452Y-53115051D01*
X194299991Y-53169630D01*
X194347252Y-53221645D01*
X194391315Y-53268485D01*
X194424620Y-53268485D01*
X194438617Y-53268945D01*
X194459083Y-53271112D01*
X194473632Y-53274456D01*
X194477598Y-53275874D01*
X194488131Y-53277309D01*
X194494076Y-53271961D01*
X194501895Y-53260052D01*
X194520418Y-53237438D01*
X194545064Y-53211248D01*
X194573871Y-53183291D01*
X194604881Y-53155373D01*
X194636131Y-53129303D01*
X194665661Y-53106887D01*
X194691512Y-53089933D01*
X194700337Y-53084955D01*
X194728011Y-53071899D01*
X194750132Y-53065582D01*
X194765803Y-53066033D01*
X194774128Y-53073279D01*
X194774209Y-53087348D01*
X194769499Y-53099790D01*
X194755508Y-53123138D01*
X194734600Y-53150437D01*
X194708260Y-53180135D01*
X194677975Y-53210680D01*
X194645230Y-53240521D01*
X194611512Y-53268107D01*
X194578305Y-53291886D01*
X194561547Y-53303245D01*
X194545257Y-53315743D01*
X194537189Y-53324636D01*
X194536235Y-53330950D01*
X194546057Y-53367181D01*
X194545933Y-53387489D01*
X194545843Y-53402151D01*
X194536528Y-53434222D01*
X194519087Y-53461852D01*
X194494494Y-53483497D01*
X194463724Y-53497616D01*
X194427751Y-53502665D01*
X194415744Y-53502243D01*
X194395984Y-53499884D01*
X194382065Y-53496144D01*
X194381198Y-53495756D01*
X194375193Y-53493914D01*
X194369027Y-53494782D01*
X194361175Y-53499490D01*
X194350115Y-53509170D01*
X194334322Y-53524954D01*
X194312274Y-53547971D01*
X194309887Y-53550473D01*
X194286177Y-53574565D01*
X194262104Y-53597853D01*
X194240357Y-53617794D01*
X194223624Y-53631843D01*
X194222415Y-53632771D01*
X194190903Y-53655012D01*
X194161347Y-53672374D01*
X194135092Y-53684347D01*
X194113480Y-53690420D01*
X194097857Y-53690082D01*
X194089564Y-53682822D01*
X194089390Y-53673021D01*
X194096335Y-53655387D01*
X194110178Y-53633001D01*
X194129780Y-53607167D01*
X194153998Y-53579189D01*
X194181692Y-53550371D01*
X194211719Y-53522015D01*
X194242939Y-53495426D01*
X194274212Y-53471908D01*
X194280171Y-53467747D01*
X194299361Y-53454020D01*
X194310965Y-53444531D01*
X194316483Y-53437526D01*
X194317417Y-53431253D01*
X194315268Y-53423957D01*
X194313469Y-53417418D01*
X194311144Y-53399183D01*
X194311061Y-53393435D01*
X194396964Y-53393435D01*
X194406285Y-53407536D01*
X194419556Y-53415529D01*
X194433414Y-53415143D01*
X194443406Y-53405423D01*
X194447245Y-53387489D01*
X194446394Y-53379761D01*
X194438840Y-53367061D01*
X194425708Y-53362726D01*
X194409736Y-53368165D01*
X194398777Y-53379343D01*
X194396964Y-53393435D01*
X194311061Y-53393435D01*
X194310848Y-53378643D01*
X194311107Y-53372531D01*
X194310935Y-53360178D01*
X194308499Y-53350030D01*
X194302448Y-53339421D01*
X194291427Y-53325684D01*
X194274085Y-53306152D01*
X194239790Y-53270285D01*
X194194516Y-53227343D01*
X194143749Y-53182753D01*
X194089888Y-53138481D01*
X194035333Y-53096493D01*
X193982481Y-53058755D01*
X193933734Y-53027233D01*
X193931401Y-53025823D01*
X193909815Y-53013048D01*
X193895183Y-53005447D01*
X193885009Y-53002189D01*
X193876797Y-53002444D01*
X193868049Y-53005381D01*
X193848851Y-53013055D01*
X193819986Y-53023576D01*
X193795330Y-53030422D01*
X193770979Y-53034349D01*
X193743029Y-53036112D01*
X193707578Y-53036469D01*
X193691141Y-53036356D01*
X193658555Y-53035253D01*
X193631770Y-53032357D01*
X193606847Y-53026906D01*
X193579846Y-53018134D01*
X193546830Y-53005276D01*
X193539701Y-53002693D01*
X193531189Y-53001641D01*
X193521413Y-53004162D01*
X193507575Y-53011097D01*
X193486874Y-53023286D01*
X193475015Y-53030550D01*
X193422250Y-53065636D01*
X193365816Y-53107565D01*
X193304959Y-53156942D01*
X193238926Y-53214373D01*
X193166964Y-53280463D01*
X193094711Y-53348337D01*
X193094632Y-53381235D01*
X193094316Y-53390566D01*
X193094170Y-53394856D01*
X193092061Y-53414898D01*
X193088837Y-53428929D01*
X193087169Y-53433890D01*
X193087016Y-53440828D01*
X193091464Y-53448039D01*
X193102079Y-53457645D01*
X193120425Y-53471767D01*
X193148734Y-53494924D01*
X193178517Y-53522953D01*
X193207226Y-53553334D01*
X193233791Y-53584648D01*
X193257144Y-53615481D01*
X193276214Y-53644416D01*
X193289932Y-53670036D01*
X193297229Y-53690925D01*
X193297035Y-53705666D01*
X193295730Y-53708324D01*
X193287699Y-53713354D01*
X193273491Y-53711204D01*
X193251841Y-53701766D01*
X193242549Y-53696678D01*
X193211866Y-53676119D01*
X193178033Y-53648946D01*
X193143371Y-53617353D01*
X193110201Y-53583537D01*
X193080844Y-53549693D01*
X193057621Y-53518018D01*
X193054627Y-53513473D01*
X193044239Y-53499717D01*
X193036159Y-53493936D01*
X193028120Y-53494308D01*
X193019877Y-53496184D01*
X193002419Y-53498803D01*
X192981720Y-53500979D01*
X192959179Y-53501823D01*
X192941254Y-53499200D01*
X192924062Y-53492182D01*
X192897087Y-53474317D01*
X192873510Y-53447294D01*
X192859538Y-53415061D01*
X192857216Y-53393439D01*
X192948368Y-53393439D01*
X192954031Y-53404403D01*
X192959333Y-53410345D01*
X192973307Y-53416814D01*
X192987304Y-53414062D01*
X192997711Y-53402266D01*
X193001320Y-53390566D01*
X192998394Y-53377992D01*
X192993215Y-53372786D01*
X192979505Y-53368650D01*
X192964446Y-53371174D01*
X192952976Y-53380128D01*
X192950611Y-53383948D01*
X192948368Y-53393439D01*
X192857216Y-53393439D01*
X192855643Y-53378789D01*
X192862301Y-53339646D01*
X192862946Y-53336374D01*
X192860833Y-53328576D01*
X192852112Y-53319412D01*
X192835077Y-53306823D01*
X192827622Y-53301365D01*
X192805913Y-53283349D01*
X192780264Y-53259962D01*
X192753069Y-53233566D01*
X192726725Y-53206526D01*
X192703629Y-53181203D01*
X192686175Y-53159962D01*
X192680518Y-53152243D01*
X192662230Y-53123869D01*
X192649623Y-53098410D01*
X192643170Y-53077274D01*
X192643341Y-53061875D01*
X192650609Y-53053620D01*
X192661489Y-53054147D01*
X192679354Y-53061389D01*
X192702038Y-53074418D01*
X192727799Y-53092123D01*
X192754894Y-53113392D01*
X192781582Y-53137115D01*
X192797421Y-53152603D01*
X192820335Y-53176317D01*
X192843056Y-53201103D01*
X192864004Y-53225137D01*
X192881599Y-53246590D01*
X192894260Y-53263636D01*
X192900406Y-53274448D01*
X192903198Y-53277150D01*
X192912896Y-53276782D01*
X192930998Y-53271457D01*
X192953254Y-53265745D01*
X192988616Y-53265072D01*
X193017889Y-53268417D01*
X193077148Y-53207034D01*
X193079773Y-53204308D01*
X193130976Y-53148498D01*
X193180969Y-53089241D01*
X193228188Y-53028623D01*
X193271068Y-52968734D01*
X193308045Y-52911661D01*
X193337553Y-52859493D01*
X193358461Y-52818907D01*
X193344533Y-52773817D01*
X193338855Y-52754002D01*
X193334695Y-52734393D01*
X193332266Y-52713524D01*
X193331185Y-52688012D01*
X193331072Y-52654475D01*
X193331104Y-52649861D01*
X193331665Y-52618289D01*
X193333058Y-52594528D01*
X193335710Y-52575367D01*
X193340043Y-52557597D01*
X193346484Y-52538007D01*
X193361430Y-52495792D01*
X193349583Y-52472323D01*
X193339465Y-52453799D01*
X193315920Y-52416589D01*
X193285657Y-52373972D01*
X193249805Y-52327356D01*
X193209499Y-52278144D01*
X193165868Y-52227744D01*
X193120045Y-52177560D01*
X193073161Y-52128997D01*
X192993614Y-52049033D01*
X192962199Y-52048569D01*
X192952548Y-52048058D01*
X192929726Y-52044367D01*
X192911873Y-52038246D01*
X192906675Y-52035562D01*
X192896235Y-52031560D01*
X192889198Y-52034184D01*
X192880548Y-52044422D01*
X192873070Y-52053692D01*
X192845417Y-52083821D01*
X192812153Y-52115488D01*
X192775817Y-52146593D01*
X192738947Y-52175034D01*
X192704081Y-52198712D01*
X192673758Y-52215527D01*
X192664712Y-52219410D01*
X192643732Y-52226025D01*
X192625610Y-52228732D01*
X192612879Y-52227301D01*
X192608073Y-52221503D01*
X192608320Y-52218737D01*
X192614592Y-52203089D01*
X192628287Y-52182274D01*
X192648017Y-52157662D01*
X192672394Y-52130623D01*
X192700028Y-52102528D01*
X192729531Y-52074746D01*
X192759514Y-52048648D01*
X192788590Y-52025604D01*
X192815370Y-52006984D01*
X192838465Y-51994157D01*
X192840227Y-51993343D01*
X192847346Y-51989000D01*
X192850759Y-51982604D01*
X192851278Y-51971055D01*
X192849716Y-51951254D01*
X192848802Y-51938319D01*
X192848859Y-51936887D01*
X192940133Y-51936887D01*
X192948328Y-51951526D01*
X192961194Y-51959277D01*
X192975400Y-51958871D01*
X192986355Y-51950368D01*
X192990670Y-51935084D01*
X192988990Y-51923994D01*
X192980442Y-51911366D01*
X192967029Y-51907094D01*
X192951431Y-51912707D01*
X192942628Y-51922137D01*
X192940133Y-51936887D01*
X192848859Y-51936887D01*
X192849818Y-51912693D01*
X192855764Y-51890323D01*
X192863632Y-51874515D01*
X192881853Y-51850678D01*
X192904270Y-51830814D01*
X192927353Y-51818466D01*
X192936338Y-51815986D01*
X192962167Y-51812517D01*
X192988517Y-51812944D01*
X193009787Y-51817343D01*
X193013113Y-51818468D01*
X193020375Y-51818928D01*
X193028084Y-51814897D01*
X193038439Y-51804874D01*
X193053635Y-51787357D01*
X193065238Y-51774150D01*
X193093899Y-51744985D01*
X193125723Y-51716405D01*
X193159133Y-51689511D01*
X193192556Y-51665402D01*
X193224416Y-51645178D01*
X193253139Y-51629941D01*
X193277148Y-51620789D01*
X193294870Y-51618825D01*
X193302240Y-51621381D01*
X193308941Y-51631543D01*
X193307713Y-51647574D01*
X193298440Y-51667868D01*
X193294915Y-51673370D01*
X193274694Y-51699541D01*
X193247170Y-51729347D01*
X193214336Y-51760945D01*
X193178184Y-51792488D01*
X193140705Y-51822132D01*
X193103892Y-51848034D01*
X193071378Y-51869289D01*
X193080089Y-51890137D01*
X193082313Y-51896532D01*
X193086571Y-51918649D01*
X193087300Y-51935084D01*
X193087646Y-51942883D01*
X193087247Y-51956010D01*
X193086992Y-51972373D01*
X193087175Y-51981532D01*
X193087185Y-51981604D01*
X193091768Y-51988057D01*
X193103589Y-52000619D01*
X193121246Y-52018002D01*
X193143339Y-52038912D01*
X193168464Y-52062059D01*
X193195223Y-52086151D01*
X193222213Y-52109898D01*
X193248033Y-52132008D01*
X193271283Y-52151191D01*
X193286682Y-52163173D01*
X193315068Y-52184122D01*
X193348395Y-52207773D01*
X193384316Y-52232537D01*
X193420482Y-52256822D01*
X193454545Y-52279037D01*
X193484158Y-52297591D01*
X193506971Y-52310892D01*
X193534833Y-52326064D01*
X193586935Y-52307545D01*
X193599319Y-52303205D01*
X193619728Y-52296708D01*
X193637539Y-52292587D01*
X193656258Y-52290324D01*
X193679388Y-52289402D01*
X193710434Y-52289303D01*
X193730766Y-52289498D01*
X193759038Y-52290523D01*
X193780891Y-52292748D01*
X193799497Y-52296556D01*
X193818026Y-52302331D01*
X193854221Y-52315084D01*
X193897990Y-52291528D01*
X193933907Y-52271109D01*
X194001929Y-52227225D01*
X194074754Y-52174017D01*
X194151853Y-52111880D01*
X194232699Y-52041208D01*
X194310164Y-51971002D01*
X194310566Y-51935765D01*
X194310586Y-51935234D01*
X194397995Y-51935234D01*
X194404778Y-51949488D01*
X194418504Y-51958806D01*
X194432408Y-51958865D01*
X194443020Y-51950348D01*
X194447245Y-51934356D01*
X194443838Y-51921226D01*
X194432612Y-51911905D01*
X194416286Y-51911328D01*
X194413075Y-51912323D01*
X194401125Y-51921637D01*
X194397995Y-51935234D01*
X194310586Y-51935234D01*
X194311175Y-51919423D01*
X194312941Y-51900890D01*
X194315378Y-51889240D01*
X194316438Y-51884830D01*
X194314151Y-51877513D01*
X194305320Y-51868546D01*
X194288282Y-51855880D01*
X194265167Y-51838831D01*
X194232232Y-51811628D01*
X194201129Y-51782733D01*
X194172614Y-51753167D01*
X194147441Y-51723949D01*
X194126365Y-51696100D01*
X194110139Y-51670641D01*
X194099518Y-51648593D01*
X194095257Y-51630976D01*
X194098110Y-51618810D01*
X194108832Y-51613117D01*
X194122641Y-51614409D01*
X194144796Y-51623227D01*
X194171587Y-51638939D01*
X194201654Y-51660424D01*
X194233639Y-51686560D01*
X194266183Y-51716226D01*
X194297930Y-51748300D01*
X194327519Y-51781661D01*
X194353593Y-51815187D01*
X194360841Y-51824326D01*
X194367579Y-51828089D01*
X194374617Y-51824442D01*
X194382065Y-51820130D01*
X194401570Y-51815010D01*
X194425818Y-51813180D01*
X194450807Y-51814819D01*
X194472537Y-51820104D01*
X194483566Y-51825228D01*
X194509121Y-51843787D01*
X194530572Y-51868205D01*
X194544318Y-51894736D01*
X194547047Y-51906832D01*
X194548716Y-51931435D01*
X194548534Y-51934356D01*
X194547124Y-51957042D01*
G37*
G36*
X195153138Y-75203366D02*
G01*
X195250157Y-75236008D01*
X195298818Y-75267857D01*
X195369770Y-75345463D01*
X195419214Y-75444973D01*
X195444477Y-75560167D01*
X195442887Y-75684821D01*
X195442760Y-75685835D01*
X195431739Y-75748293D01*
X195420070Y-75775791D01*
X195409498Y-75769353D01*
X195401763Y-75730005D01*
X195398610Y-75658771D01*
X195396203Y-75605454D01*
X195371466Y-75487347D01*
X195321220Y-75391513D01*
X195247014Y-75320342D01*
X195150399Y-75276220D01*
X195131309Y-75271141D01*
X195069897Y-75259217D01*
X195012589Y-75257697D01*
X194955074Y-75268658D01*
X194893044Y-75294181D01*
X194822192Y-75336344D01*
X194738208Y-75397225D01*
X194636784Y-75478904D01*
X194513611Y-75583459D01*
X194494949Y-75599527D01*
X194335070Y-75736798D01*
X194189318Y-75861240D01*
X194059862Y-75971027D01*
X193948870Y-76064335D01*
X193858511Y-76139342D01*
X193790954Y-76194221D01*
X193748367Y-76227150D01*
X193723530Y-76243586D01*
X193683091Y-76262979D01*
X193656638Y-76266307D01*
X193652154Y-76251546D01*
X193652287Y-76251240D01*
X193668933Y-76233319D01*
X193707781Y-76197942D01*
X193763197Y-76150093D01*
X193829545Y-76094751D01*
X193837274Y-76088383D01*
X193898644Y-76036882D01*
X193976150Y-75970669D01*
X194064347Y-75894516D01*
X194157789Y-75813191D01*
X194251032Y-75731464D01*
X194338632Y-75654105D01*
X194415143Y-75585884D01*
X194475121Y-75531569D01*
X194513121Y-75495931D01*
X194534367Y-75476038D01*
X194597800Y-75422486D01*
X194672993Y-75364454D01*
X194750238Y-75309022D01*
X194819822Y-75263270D01*
X194872034Y-75234277D01*
X194931819Y-75212762D01*
X195042750Y-75195598D01*
X195153138Y-75203366D01*
G37*
G36*
X195017630Y-70147689D02*
G01*
X195018010Y-70249589D01*
X195016707Y-70321196D01*
X195008431Y-70431736D01*
X194988529Y-70529396D01*
X194952737Y-70606704D01*
X194896241Y-70670792D01*
X194814229Y-70728794D01*
X194701890Y-70787843D01*
X194653614Y-70809814D01*
X194518687Y-70857948D01*
X194366819Y-70892251D01*
X194324566Y-70899194D01*
X194224562Y-70912662D01*
X194127651Y-70922298D01*
X194049953Y-70926365D01*
X194033101Y-70926433D01*
X193933534Y-70919917D01*
X193854864Y-70899207D01*
X193795619Y-70861402D01*
X193754326Y-70803604D01*
X193729514Y-70722913D01*
X193721624Y-70637231D01*
X193819425Y-70637231D01*
X193824090Y-70689466D01*
X193838483Y-70725578D01*
X193863826Y-70751789D01*
X193901344Y-70774316D01*
X193904846Y-70776054D01*
X193972402Y-70794147D01*
X194066958Y-70799230D01*
X194182537Y-70791928D01*
X194313161Y-70772864D01*
X194452853Y-70742659D01*
X194595636Y-70701939D01*
X194627737Y-70691513D01*
X194711599Y-70661885D01*
X194777641Y-70631553D01*
X194827988Y-70596096D01*
X194864765Y-70551094D01*
X194890096Y-70492125D01*
X194906107Y-70414769D01*
X194914921Y-70314605D01*
X194918663Y-70187212D01*
X194919458Y-70028170D01*
X194919309Y-69985884D01*
X194916364Y-69815142D01*
X194909924Y-69615412D01*
X194900344Y-69392051D01*
X194887982Y-69150419D01*
X194873194Y-68895875D01*
X194856335Y-68633776D01*
X194837761Y-68369482D01*
X194817830Y-68108350D01*
X194796897Y-67855741D01*
X194775318Y-67617011D01*
X194753449Y-67397521D01*
X194731647Y-67202628D01*
X194723568Y-67128508D01*
X194713999Y-67030062D01*
X194704261Y-66921187D01*
X194695552Y-66814773D01*
X194692400Y-66774814D01*
X194680269Y-66633266D01*
X194666824Y-66492019D01*
X194652734Y-66357020D01*
X194638672Y-66234215D01*
X194625308Y-66129548D01*
X194613316Y-66048968D01*
X194603364Y-65998418D01*
X194579945Y-65948669D01*
X194532711Y-65909160D01*
X194458576Y-65881988D01*
X194353388Y-65864935D01*
X194347591Y-65864343D01*
X194285756Y-65861169D01*
X194245347Y-65868401D01*
X194213584Y-65888160D01*
X194207037Y-65893982D01*
X194198066Y-65904677D01*
X194190565Y-65920196D01*
X194184218Y-65944007D01*
X194178708Y-65979582D01*
X194173719Y-66030389D01*
X194168933Y-66099900D01*
X194164035Y-66191584D01*
X194158707Y-66308911D01*
X194152634Y-66455351D01*
X194145498Y-66634375D01*
X194138682Y-66800545D01*
X194120086Y-67203141D01*
X194099336Y-67587505D01*
X194076666Y-67950071D01*
X194052306Y-68287271D01*
X194026492Y-68595538D01*
X193999455Y-68871307D01*
X193994387Y-68918948D01*
X193980217Y-69053676D01*
X193966515Y-69185970D01*
X193954137Y-69307471D01*
X193943936Y-69409821D01*
X193936767Y-69484659D01*
X193934155Y-69512885D01*
X193915331Y-69709637D01*
X193895064Y-69911308D01*
X193874424Y-70107676D01*
X193854482Y-70288520D01*
X193836310Y-70443618D01*
X193834386Y-70459514D01*
X193823265Y-70562653D01*
X193819425Y-70637231D01*
X193721624Y-70637231D01*
X193719709Y-70616429D01*
X193723440Y-70481254D01*
X193739234Y-70314489D01*
X193749334Y-70227554D01*
X193782767Y-69938978D01*
X193812256Y-69682944D01*
X193838081Y-69456892D01*
X193860523Y-69258258D01*
X193879862Y-69084480D01*
X193896379Y-68932996D01*
X193910353Y-68801244D01*
X193922065Y-68686662D01*
X193931795Y-68586688D01*
X193939823Y-68498758D01*
X193946430Y-68420312D01*
X193954019Y-68325892D01*
X193963015Y-68214035D01*
X193971124Y-68113304D01*
X193977678Y-68031979D01*
X193982011Y-67978338D01*
X193992578Y-67840872D01*
X194005459Y-67649288D01*
X194017061Y-67445142D01*
X194027602Y-67223732D01*
X194037301Y-66980354D01*
X194046378Y-66710303D01*
X194055051Y-66408878D01*
X194055726Y-66384267D01*
X194061425Y-66215544D01*
X194068243Y-66079829D01*
X194076438Y-65974417D01*
X194086268Y-65896599D01*
X194097991Y-65843669D01*
X194111865Y-65812919D01*
X194125127Y-65798972D01*
X194154007Y-65784984D01*
X194201921Y-65776487D01*
X194277381Y-65771343D01*
X194362168Y-65770431D01*
X194473304Y-65782826D01*
X194562045Y-65813567D01*
X194634563Y-65864260D01*
X194660387Y-65889692D01*
X194681983Y-65919208D01*
X194697138Y-65956791D01*
X194709400Y-66011697D01*
X194722318Y-66093182D01*
X194724397Y-66107788D01*
X194733886Y-66182028D01*
X194745946Y-66285045D01*
X194760001Y-66411229D01*
X194775475Y-66554969D01*
X194791792Y-66710655D01*
X194808375Y-66872677D01*
X194824650Y-67035424D01*
X194840039Y-67193287D01*
X194853967Y-67340654D01*
X194865858Y-67471916D01*
X194875135Y-67581463D01*
X194881488Y-67661559D01*
X194890291Y-67774309D01*
X194900247Y-67903178D01*
X194910553Y-68037787D01*
X194920408Y-68167756D01*
X194929197Y-68284134D01*
X194939591Y-68421354D01*
X194949739Y-68554953D01*
X194958823Y-68674145D01*
X194966022Y-68768144D01*
X194969357Y-68814438D01*
X194976459Y-68930698D01*
X194983564Y-69068319D01*
X194990484Y-69221563D01*
X194997032Y-69384689D01*
X195003020Y-69551959D01*
X195008261Y-69717633D01*
X195012568Y-69875972D01*
X195015753Y-70021237D01*
X195015856Y-70028170D01*
X195017630Y-70147689D01*
G37*
G36*
X190942362Y-74456049D02*
G01*
X190926260Y-74483050D01*
X190818882Y-74625694D01*
X190681674Y-74758746D01*
X190519532Y-74878940D01*
X190337347Y-74983013D01*
X190140013Y-75067701D01*
X189932425Y-75129739D01*
X189876462Y-75141722D01*
X189776847Y-75159951D01*
X189667320Y-75177316D01*
X189563139Y-75191275D01*
X189459663Y-75202778D01*
X189335417Y-75213217D01*
X189237781Y-75215719D01*
X189161554Y-75209762D01*
X189101538Y-75194829D01*
X189052532Y-75170399D01*
X189009336Y-75135953D01*
X188998838Y-75125003D01*
X188955738Y-75059211D01*
X188912494Y-74961562D01*
X188870140Y-74835422D01*
X188829708Y-74684155D01*
X188792231Y-74511125D01*
X188761515Y-74335549D01*
X189016795Y-74335549D01*
X189021788Y-74377947D01*
X189024340Y-74392824D01*
X189060345Y-74503490D01*
X189123454Y-74592172D01*
X189214486Y-74659498D01*
X189334255Y-74706093D01*
X189483580Y-74732586D01*
X189578109Y-74741653D01*
X189736622Y-74753646D01*
X189874425Y-74758880D01*
X190001134Y-74757619D01*
X190126367Y-74750125D01*
X190172893Y-74746066D01*
X190329872Y-74727759D01*
X190456995Y-74703716D01*
X190559062Y-74672165D01*
X190640872Y-74631329D01*
X190707226Y-74579432D01*
X190762923Y-74514701D01*
X190787860Y-74478865D01*
X190813349Y-74432964D01*
X190812784Y-74410558D01*
X190785596Y-74410128D01*
X190731215Y-74430154D01*
X190619959Y-74472984D01*
X190402801Y-74527304D01*
X190172972Y-74549021D01*
X189932955Y-74537801D01*
X189840206Y-74524909D01*
X189702127Y-74499575D01*
X189557006Y-74467296D01*
X189415581Y-74430701D01*
X189288586Y-74392419D01*
X189186758Y-74355079D01*
X189145610Y-74337937D01*
X189080684Y-74312985D01*
X189041041Y-74303789D01*
X189021478Y-74311070D01*
X189016795Y-74335549D01*
X188761515Y-74335549D01*
X188758742Y-74319697D01*
X188748133Y-74259379D01*
X188732661Y-74203605D01*
X188710709Y-74162605D01*
X188677267Y-74124369D01*
X188648790Y-74098005D01*
X188607509Y-74073491D01*
X188574818Y-74079444D01*
X188546386Y-74117646D01*
X188517879Y-74189875D01*
X188512642Y-74205357D01*
X188488318Y-74268615D01*
X188468376Y-74300242D01*
X188449888Y-74303259D01*
X188429928Y-74280689D01*
X188424985Y-74267524D01*
X188421982Y-74224088D01*
X188426876Y-74152569D01*
X188439818Y-74049442D01*
X188440565Y-74044204D01*
X188458625Y-73936662D01*
X188478444Y-73860662D01*
X188502101Y-73811854D01*
X188531673Y-73785885D01*
X188569238Y-73778401D01*
X188570063Y-73778408D01*
X188622321Y-73788179D01*
X188646265Y-73818673D01*
X188644972Y-73873765D01*
X188644792Y-73874728D01*
X188640331Y-73905811D01*
X188644557Y-73929093D01*
X188662971Y-73951268D01*
X188701073Y-73979029D01*
X188764363Y-74019069D01*
X188983615Y-74140441D01*
X189245475Y-74252670D01*
X189519017Y-74338882D01*
X189796017Y-74396529D01*
X190068253Y-74423063D01*
X190194986Y-74425213D01*
X190316741Y-74418893D01*
X190424165Y-74401360D01*
X190528432Y-74370699D01*
X190640720Y-74324995D01*
X190689039Y-74301257D01*
X190747024Y-74260928D01*
X190773518Y-74219399D01*
X190771307Y-74173435D01*
X190770249Y-74140128D01*
X190788764Y-74092938D01*
X190821463Y-74061919D01*
X190879089Y-74047128D01*
X190950755Y-74058082D01*
X191031908Y-74093274D01*
X191117998Y-74151202D01*
X191204473Y-74230360D01*
X191211390Y-74237653D01*
X191265653Y-74299798D01*
X191294450Y-74345050D01*
X191300725Y-74377926D01*
X191291049Y-74403859D01*
X191256367Y-74422760D01*
X191199348Y-74415911D01*
X191121826Y-74383257D01*
X191083251Y-74364738D01*
X191039275Y-74348438D01*
X191015666Y-74346177D01*
X191001392Y-74362574D01*
X190974516Y-74402540D01*
X190956234Y-74432964D01*
X190942362Y-74456049D01*
G37*
G36*
X195399287Y-65155114D02*
G01*
X195390864Y-65190079D01*
X195363723Y-65264736D01*
X195330554Y-65326491D01*
X195295173Y-65368255D01*
X195213758Y-65432441D01*
X195116484Y-65481707D01*
X195015990Y-65508731D01*
X194992427Y-65511912D01*
X194949365Y-65518841D01*
X194918374Y-65529319D01*
X194898579Y-65547923D01*
X194889110Y-65579229D01*
X194889094Y-65627813D01*
X194897660Y-65698251D01*
X194913934Y-65795120D01*
X194937046Y-65922996D01*
X194957415Y-66037493D01*
X194979432Y-66165367D01*
X194999662Y-66286881D01*
X195016493Y-66392331D01*
X195028312Y-66472017D01*
X195047623Y-66612076D01*
X195070891Y-66781573D01*
X195090331Y-66924395D01*
X195106635Y-67045831D01*
X195120497Y-67151165D01*
X195132611Y-67245685D01*
X195143669Y-67334676D01*
X195154366Y-67423425D01*
X195165393Y-67517218D01*
X195170225Y-67558974D01*
X195184435Y-67684162D01*
X195200185Y-67825701D01*
X195216672Y-67976133D01*
X195233093Y-68128003D01*
X195248646Y-68273852D01*
X195262527Y-68406224D01*
X195273934Y-68517663D01*
X195282062Y-68600710D01*
X195283161Y-68613206D01*
X195287443Y-68667332D01*
X195293485Y-68748373D01*
X195300813Y-68849807D01*
X195308955Y-68965118D01*
X195317436Y-69087784D01*
X195326527Y-69220587D01*
X195338234Y-69391352D01*
X195350467Y-69569596D01*
X195362233Y-69740827D01*
X195372536Y-69890554D01*
X195378828Y-69990127D01*
X195387003Y-70140932D01*
X195394983Y-70309750D01*
X195402327Y-70486481D01*
X195408593Y-70661025D01*
X195413338Y-70823283D01*
X195416808Y-70975310D01*
X195418096Y-71026339D01*
X195420124Y-71106728D01*
X195424968Y-71211044D01*
X195433302Y-71292851D01*
X195447091Y-71356744D01*
X195468297Y-71407317D01*
X195498883Y-71449165D01*
X195540814Y-71486881D01*
X195596052Y-71525060D01*
X195666561Y-71568297D01*
X195754303Y-71621186D01*
X195834592Y-71675136D01*
X195985023Y-71802122D01*
X196133790Y-71960974D01*
X196278222Y-72149004D01*
X196301702Y-72185844D01*
X196343747Y-72260908D01*
X196391661Y-72353872D01*
X196441015Y-72455538D01*
X196487383Y-72556710D01*
X196526338Y-72648191D01*
X196553452Y-72720783D01*
X196557784Y-72733494D01*
X196598178Y-72824344D01*
X196648901Y-72903406D01*
X196704096Y-72962828D01*
X196757902Y-72994758D01*
X196804219Y-73016496D01*
X196844430Y-73052612D01*
X196860170Y-73090900D01*
X196860136Y-73091804D01*
X196853883Y-73109520D01*
X196849575Y-73121726D01*
X196823783Y-73170457D01*
X196788068Y-73227912D01*
X196747919Y-73295138D01*
X196720182Y-73369933D01*
X196722722Y-73430507D01*
X196755942Y-73480551D01*
X196820241Y-73523754D01*
X196828810Y-73528327D01*
X196884485Y-73564641D01*
X196929579Y-73603457D01*
X196948462Y-73626916D01*
X196960998Y-73661123D01*
X196957608Y-73678462D01*
X196953302Y-73700484D01*
X196923538Y-73751708D01*
X196869869Y-73821504D01*
X196859916Y-73833755D01*
X196807697Y-73900348D01*
X196776360Y-73947615D01*
X196763200Y-73982161D01*
X196765511Y-74010593D01*
X196780587Y-74039518D01*
X196805273Y-74071293D01*
X196823628Y-74084801D01*
X196830826Y-74088032D01*
X196837598Y-74091072D01*
X196873504Y-74114295D01*
X196920772Y-74148767D01*
X196925846Y-74152673D01*
X196977023Y-74199374D01*
X197001858Y-74243942D01*
X197000625Y-74282097D01*
X197000273Y-74292990D01*
X196972194Y-74353134D01*
X196917545Y-74430988D01*
X196869830Y-74494888D01*
X196811741Y-74580187D01*
X196765813Y-74661321D01*
X196728714Y-74746280D01*
X196697114Y-74843059D01*
X196667682Y-74959651D01*
X196637087Y-75104048D01*
X196616672Y-75198313D01*
X196589758Y-75294636D01*
X196557126Y-75376036D01*
X196513883Y-75454267D01*
X196455136Y-75541083D01*
X196438061Y-75569553D01*
X196419787Y-75618754D01*
X196405095Y-75687725D01*
X196391870Y-75784620D01*
X196371742Y-75935871D01*
X196326194Y-76181396D01*
X196268402Y-76396487D01*
X196198707Y-76580153D01*
X196117451Y-76731401D01*
X196024977Y-76849240D01*
X195996300Y-76876555D01*
X195935991Y-76919326D01*
X195866002Y-76947970D01*
X195779968Y-76963975D01*
X195671524Y-76968832D01*
X195534304Y-76964030D01*
X195455830Y-76957793D01*
X195339407Y-76939486D01*
X195250351Y-76910426D01*
X195183606Y-76868699D01*
X195134118Y-76812389D01*
X195133836Y-76811963D01*
X195099114Y-76745936D01*
X195063633Y-76656177D01*
X195031213Y-76554639D01*
X195005672Y-76453272D01*
X194990831Y-76364027D01*
X194984237Y-76312073D01*
X194974692Y-76259731D01*
X194965676Y-76230928D01*
X194948497Y-76215211D01*
X194930193Y-76225619D01*
X194917000Y-76262740D01*
X194913282Y-76305839D01*
X194911932Y-76321492D01*
X194910584Y-76371311D01*
X194900811Y-76481741D01*
X194881226Y-76618180D01*
X194851402Y-76783403D01*
X194810916Y-76980185D01*
X194804002Y-77012077D01*
X194766564Y-77175166D01*
X194731065Y-77310184D01*
X194695250Y-77423700D01*
X194656863Y-77522279D01*
X194613647Y-77612491D01*
X194563348Y-77700901D01*
X194491084Y-77812831D01*
X194385072Y-77950673D01*
X194275656Y-78059950D01*
X194158288Y-78144993D01*
X194028419Y-78210131D01*
X194027441Y-78210532D01*
X193979509Y-78228145D01*
X193931625Y-78239922D01*
X193874762Y-78246996D01*
X193799894Y-78250498D01*
X193697997Y-78251560D01*
X193572400Y-78249270D01*
X193389732Y-78234006D01*
X193236431Y-78203776D01*
X193110006Y-78157817D01*
X193007969Y-78095367D01*
X192927828Y-78015663D01*
X192922200Y-78008471D01*
X192828659Y-77866474D01*
X192748266Y-77702839D01*
X192686551Y-77530523D01*
X192649043Y-77362479D01*
X192643708Y-77333620D01*
X192629844Y-77288772D01*
X192614852Y-77267473D01*
X192598445Y-77268515D01*
X192553433Y-77280120D01*
X192489028Y-77301100D01*
X192413167Y-77329031D01*
X192287214Y-77374958D01*
X191984259Y-77463028D01*
X191664529Y-77525353D01*
X191324643Y-77562506D01*
X190961222Y-77575060D01*
X190927418Y-77575079D01*
X190721306Y-77573996D01*
X190542832Y-77570340D01*
X190384695Y-77563464D01*
X190239595Y-77552718D01*
X190100234Y-77537456D01*
X189959311Y-77517029D01*
X189809527Y-77490789D01*
X189643582Y-77458088D01*
X189600723Y-77449370D01*
X189510832Y-77431510D01*
X189435695Y-77417154D01*
X189382167Y-77407593D01*
X189357101Y-77404119D01*
X189339014Y-77414429D01*
X189301117Y-77446479D01*
X189250037Y-77495076D01*
X189191603Y-77554910D01*
X189088548Y-77655272D01*
X188980397Y-77737955D01*
X188865505Y-77800242D01*
X188733310Y-77848907D01*
X188729758Y-77849982D01*
X188677738Y-77863085D01*
X188618767Y-77872252D01*
X188545573Y-77878076D01*
X188450880Y-77881153D01*
X188327415Y-77882077D01*
X188221100Y-77881658D01*
X188130475Y-77879654D01*
X188060654Y-77875276D01*
X188003612Y-77867743D01*
X187951327Y-77856276D01*
X187895775Y-77840094D01*
X187843709Y-77822452D01*
X187692885Y-77752256D01*
X187568272Y-77660027D01*
X187465713Y-77542173D01*
X187381051Y-77395099D01*
X187334871Y-77282409D01*
X187286918Y-77129510D01*
X187248095Y-76965925D01*
X187221555Y-76805223D01*
X187210452Y-76660972D01*
X187208892Y-76626994D01*
X187199583Y-76585238D01*
X187175860Y-76548492D01*
X187130803Y-76503032D01*
X187119749Y-76492185D01*
X187058370Y-76416229D01*
X187001297Y-76322554D01*
X186956124Y-76225013D01*
X186930442Y-76137458D01*
X186928466Y-76126949D01*
X186916323Y-76083427D01*
X186903386Y-76060844D01*
X186901697Y-76060043D01*
X186872569Y-76054120D01*
X186819137Y-76047768D01*
X186751550Y-76042230D01*
X186703574Y-76037513D01*
X187053704Y-76037513D01*
X187060077Y-76081909D01*
X187082025Y-76141893D01*
X187120329Y-76225547D01*
X187171053Y-76312534D01*
X187253635Y-76406460D01*
X187363327Y-76491079D01*
X187504602Y-76570405D01*
X187541589Y-76588191D01*
X187614494Y-76620983D01*
X187676172Y-76645901D01*
X187716208Y-76658604D01*
X187770727Y-76669508D01*
X187759450Y-76500130D01*
X187756626Y-76453339D01*
X187750170Y-76299089D01*
X187745844Y-76115506D01*
X187743546Y-75907514D01*
X187743174Y-75680040D01*
X187743316Y-75656405D01*
X187807565Y-75656405D01*
X187808739Y-75730086D01*
X187811797Y-75771520D01*
X187813245Y-75783758D01*
X187816714Y-75832616D01*
X187820666Y-75908672D01*
X187824835Y-76005978D01*
X187828955Y-76118588D01*
X187832761Y-76240554D01*
X187834782Y-76304797D01*
X187839378Y-76420037D01*
X187844663Y-76521432D01*
X187850283Y-76603425D01*
X187855886Y-76660460D01*
X187861119Y-76686979D01*
X187864962Y-76693095D01*
X187890415Y-76717027D01*
X187936238Y-76745525D01*
X188004772Y-76779625D01*
X188098364Y-76820363D01*
X188219355Y-76868775D01*
X188370090Y-76925896D01*
X188552912Y-76992763D01*
X188641231Y-77023102D01*
X188765647Y-77062700D01*
X188905396Y-77104692D01*
X189052220Y-77146773D01*
X189197861Y-77186635D01*
X189334060Y-77221973D01*
X189452559Y-77250479D01*
X189545099Y-77269849D01*
X189565721Y-77273614D01*
X189737414Y-77304642D01*
X189880772Y-77329653D01*
X190002182Y-77349422D01*
X190108033Y-77364727D01*
X190204713Y-77376344D01*
X190298610Y-77385050D01*
X190396112Y-77391622D01*
X190503608Y-77396837D01*
X190627486Y-77401472D01*
X190744477Y-77405378D01*
X190901518Y-77410125D01*
X191028316Y-77413189D01*
X191128417Y-77414612D01*
X191205364Y-77414435D01*
X191262703Y-77412700D01*
X191303977Y-77409450D01*
X191389244Y-77399367D01*
X191551998Y-77378676D01*
X191682010Y-77359741D01*
X191781519Y-77342136D01*
X191852768Y-77325439D01*
X191897997Y-77309225D01*
X191919447Y-77293072D01*
X191919599Y-77292821D01*
X191925537Y-77265388D01*
X191930434Y-77209998D01*
X191933788Y-77134580D01*
X191935093Y-77047061D01*
X191935177Y-76979361D01*
X192028779Y-76979361D01*
X192029459Y-77062668D01*
X192031197Y-77121068D01*
X192035068Y-77194020D01*
X192040862Y-77239772D01*
X192049437Y-77263891D01*
X192061648Y-77271948D01*
X192084467Y-77270114D01*
X192140529Y-77255707D01*
X192219469Y-77229469D01*
X192315645Y-77193612D01*
X192423412Y-77150348D01*
X192537128Y-77101890D01*
X192651151Y-77050449D01*
X192759838Y-76998238D01*
X192986582Y-76876640D01*
X193052839Y-76836439D01*
X194028475Y-76836439D01*
X194033472Y-76921011D01*
X194045576Y-76979010D01*
X194068155Y-77009825D01*
X194116061Y-77025197D01*
X194182152Y-77014813D01*
X194262500Y-76978678D01*
X194273186Y-76972432D01*
X194356542Y-76909132D01*
X194427084Y-76825062D01*
X194488347Y-76715141D01*
X194543866Y-76574290D01*
X194563382Y-76496688D01*
X194575164Y-76404712D01*
X194579349Y-76305839D01*
X194576537Y-76206187D01*
X194567330Y-76111871D01*
X194552330Y-76029008D01*
X194532137Y-75963716D01*
X194507354Y-75922110D01*
X194478581Y-75910308D01*
X194459661Y-75919001D01*
X194416879Y-75949377D01*
X194360673Y-75995584D01*
X194297597Y-76051576D01*
X194234204Y-76111308D01*
X194177047Y-76168735D01*
X194132679Y-76217810D01*
X194107654Y-76252490D01*
X194106389Y-76254992D01*
X194084251Y-76317495D01*
X194064789Y-76405285D01*
X194048742Y-76509717D01*
X194036848Y-76622149D01*
X194029846Y-76733937D01*
X194028475Y-76836439D01*
X193052839Y-76836439D01*
X193223865Y-76732671D01*
X193452148Y-76577973D01*
X193658168Y-76421065D01*
X193688962Y-76395646D01*
X193756929Y-76338493D01*
X193844495Y-76264005D01*
X193947052Y-76176134D01*
X194059991Y-76078833D01*
X194178703Y-75976057D01*
X194298580Y-75871757D01*
X194389923Y-75792582D01*
X194500273Y-75698304D01*
X194602075Y-75612805D01*
X194691638Y-75539115D01*
X194765270Y-75480263D01*
X194819281Y-75439279D01*
X194849978Y-75419193D01*
X194853902Y-75417333D01*
X194938793Y-75391282D01*
X195033439Y-75383100D01*
X195124118Y-75392747D01*
X195197107Y-75420184D01*
X195225142Y-75440584D01*
X195280829Y-75511882D01*
X195314675Y-75610609D01*
X195326138Y-75735440D01*
X195325594Y-75781432D01*
X195317847Y-75926961D01*
X195302196Y-76077317D01*
X195280276Y-76218907D01*
X195253720Y-76338137D01*
X195250276Y-76350864D01*
X195232571Y-76427782D01*
X195230578Y-76474779D01*
X195246411Y-76495038D01*
X195282187Y-76491746D01*
X195340019Y-76468087D01*
X195381284Y-76446919D01*
X195495709Y-76364076D01*
X195581734Y-76259095D01*
X195639058Y-76132315D01*
X195645365Y-76110283D01*
X195665646Y-76012417D01*
X195683152Y-75886201D01*
X195697665Y-75737572D01*
X195708964Y-75572468D01*
X195716830Y-75396826D01*
X195721041Y-75216584D01*
X195721380Y-75037679D01*
X195717626Y-74866048D01*
X195709559Y-74707630D01*
X195696959Y-74568362D01*
X195668314Y-74371917D01*
X195620209Y-74138103D01*
X195559261Y-73913150D01*
X195487938Y-73705993D01*
X195408713Y-73525568D01*
X195345223Y-73408666D01*
X195203069Y-73199422D01*
X195038708Y-73017674D01*
X194853431Y-72864415D01*
X194648534Y-72740640D01*
X194425309Y-72647343D01*
X194185050Y-72585516D01*
X194181288Y-72584830D01*
X194100012Y-72574863D01*
X194047209Y-72581083D01*
X194018510Y-72605053D01*
X194009547Y-72648338D01*
X194009239Y-72654688D01*
X193995580Y-72710461D01*
X193966374Y-72778847D01*
X193928068Y-72846574D01*
X193887111Y-72900368D01*
X193873257Y-72914222D01*
X193778117Y-72982213D01*
X193659235Y-73030951D01*
X193524148Y-73057181D01*
X193457542Y-73065737D01*
X193398133Y-73080660D01*
X193368021Y-73100648D01*
X193367583Y-73101269D01*
X193354886Y-73134789D01*
X193342699Y-73191891D01*
X193333602Y-73260576D01*
X193330436Y-73293019D01*
X193322375Y-73372394D01*
X193311942Y-73472558D01*
X193300139Y-73583935D01*
X193287967Y-73696946D01*
X193285451Y-73720254D01*
X193273523Y-73840255D01*
X193267571Y-73930138D01*
X193268417Y-73994712D01*
X193276883Y-74038786D01*
X193293792Y-74067169D01*
X193319967Y-74084669D01*
X193356230Y-74096094D01*
X193447258Y-74129774D01*
X193551090Y-74198917D01*
X193640165Y-74293147D01*
X193707682Y-74406456D01*
X193711404Y-74414935D01*
X193731838Y-74476585D01*
X193742782Y-74548760D01*
X193746278Y-74644034D01*
X193746279Y-74644185D01*
X193745533Y-74688775D01*
X193744899Y-74726659D01*
X193738315Y-74786100D01*
X193724053Y-74835429D01*
X193699636Y-74887571D01*
X193645582Y-74972581D01*
X193549582Y-75069017D01*
X193431558Y-75137100D01*
X193292627Y-75176039D01*
X193276420Y-75179212D01*
X193227359Y-75196451D01*
X193200203Y-75218422D01*
X193194284Y-75235203D01*
X193186444Y-75277073D01*
X193179088Y-75342157D01*
X193172079Y-75432600D01*
X193165281Y-75550545D01*
X193158557Y-75698137D01*
X193151773Y-75877519D01*
X193144790Y-76090835D01*
X193140504Y-76219368D01*
X193134366Y-76368162D01*
X193127876Y-76484403D01*
X193120890Y-76570141D01*
X193113265Y-76627425D01*
X193104856Y-76658306D01*
X193077839Y-76698321D01*
X193009507Y-76755855D01*
X192912782Y-76806082D01*
X192792259Y-76846241D01*
X192730704Y-76861130D01*
X192668635Y-76871867D01*
X192603976Y-76876877D01*
X192525617Y-76876959D01*
X192422443Y-76872916D01*
X192331803Y-76867326D01*
X192244066Y-76859734D01*
X192172481Y-76851307D01*
X192127002Y-76843050D01*
X192119794Y-76841193D01*
X192069234Y-76833871D01*
X192040694Y-76840584D01*
X192035181Y-76860129D01*
X192030819Y-76909208D01*
X192028779Y-76979361D01*
X191935177Y-76979361D01*
X191935369Y-76825301D01*
X191856158Y-76740385D01*
X191832291Y-76713432D01*
X191777443Y-76630152D01*
X191753294Y-76544702D01*
X191754448Y-76512516D01*
X191864406Y-76512516D01*
X191868365Y-76570472D01*
X191886806Y-76619566D01*
X191925063Y-76659292D01*
X191988365Y-76694918D01*
X192081938Y-76731713D01*
X192114052Y-76742674D01*
X192179577Y-76761163D01*
X192246655Y-76773031D01*
X192326784Y-76779988D01*
X192431463Y-76783748D01*
X192515250Y-76784913D01*
X192593232Y-76784550D01*
X192652355Y-76782701D01*
X192684020Y-76779509D01*
X192734306Y-76767128D01*
X192777522Y-76755267D01*
X192812536Y-76741077D01*
X192840278Y-76721183D01*
X192861673Y-76692213D01*
X192877652Y-76650793D01*
X192889142Y-76593549D01*
X192897072Y-76517110D01*
X192902369Y-76418100D01*
X192905963Y-76293147D01*
X192908780Y-76138877D01*
X192911750Y-75951918D01*
X192913250Y-75867645D01*
X192932512Y-75214516D01*
X192965768Y-74538118D01*
X193013182Y-73836024D01*
X193074913Y-73105808D01*
X193151123Y-72345044D01*
X193154262Y-72315345D01*
X193163485Y-72212321D01*
X193165605Y-72137521D01*
X193159343Y-72084956D01*
X193143415Y-72048636D01*
X193116540Y-72022572D01*
X193077435Y-72000775D01*
X193054223Y-71989966D01*
X192917118Y-71936494D01*
X192781575Y-71904389D01*
X192629901Y-71889240D01*
X192626886Y-71889092D01*
X192543974Y-71885725D01*
X192487622Y-71886193D01*
X192448673Y-71891782D01*
X192417972Y-71903778D01*
X192386364Y-71923469D01*
X192365982Y-71938398D01*
X192332623Y-71975764D01*
X192323224Y-72019172D01*
X192323225Y-72020188D01*
X192324687Y-72045413D01*
X192333727Y-72062052D01*
X192357370Y-72073598D01*
X192402640Y-72083541D01*
X192476563Y-72095372D01*
X192571393Y-72112103D01*
X192721999Y-72150555D01*
X192838932Y-72198410D01*
X192921551Y-72255438D01*
X192986853Y-72317026D01*
X192976257Y-72450433D01*
X192975037Y-72465793D01*
X192974773Y-72469065D01*
X192969192Y-72528849D01*
X192960005Y-72617674D01*
X192947903Y-72729256D01*
X192933579Y-72857312D01*
X192917724Y-72995559D01*
X192901031Y-73137713D01*
X192899475Y-73150803D01*
X192861487Y-73474420D01*
X192828182Y-73766849D01*
X192799156Y-74032451D01*
X192774006Y-74275586D01*
X192752329Y-74500617D01*
X192733721Y-74711904D01*
X192717778Y-74913808D01*
X192704099Y-75110691D01*
X192692278Y-75306915D01*
X192681914Y-75506839D01*
X192678242Y-75576250D01*
X192671472Y-75668891D01*
X192663437Y-75733604D01*
X192653412Y-75775528D01*
X192640674Y-75799801D01*
X192631815Y-75807473D01*
X192591996Y-75827265D01*
X192522665Y-75851505D01*
X192421826Y-75880852D01*
X192287481Y-75915962D01*
X192188024Y-75941967D01*
X192093634Y-75968614D01*
X192016052Y-75992597D01*
X191961377Y-76012023D01*
X191935706Y-76025003D01*
X191929350Y-76035090D01*
X191915151Y-76079174D01*
X191900785Y-76147822D01*
X191887390Y-76233257D01*
X191876104Y-76327701D01*
X191868063Y-76423380D01*
X191864406Y-76512516D01*
X191754448Y-76512516D01*
X191756760Y-76448011D01*
X191763489Y-76391080D01*
X191769828Y-76312627D01*
X191774023Y-76232470D01*
X191775110Y-76188353D01*
X191773239Y-76131072D01*
X191765339Y-76097580D01*
X191750189Y-76080082D01*
X191735971Y-76076220D01*
X191694763Y-76077066D01*
X191626859Y-76085970D01*
X191529530Y-76103314D01*
X191400046Y-76129486D01*
X191378650Y-76133964D01*
X191202595Y-76169873D01*
X191048508Y-76199102D01*
X190904799Y-76223505D01*
X190759877Y-76244936D01*
X190602150Y-76265252D01*
X190420028Y-76286306D01*
X190293428Y-76299455D01*
X190117401Y-76313276D01*
X189957267Y-76318946D01*
X189801293Y-76316476D01*
X189637749Y-76305875D01*
X189454901Y-76287154D01*
X189291347Y-76264147D01*
X189119027Y-76229536D01*
X188970501Y-76187660D01*
X188848806Y-76139556D01*
X188756981Y-76086260D01*
X188698062Y-76028809D01*
X188676275Y-75986316D01*
X188671632Y-75930699D01*
X188741984Y-75930699D01*
X188758732Y-75975317D01*
X188809979Y-76012685D01*
X188837518Y-76025914D01*
X188935645Y-76065595D01*
X189053560Y-76105238D01*
X189179465Y-76141084D01*
X189301563Y-76169372D01*
X189411127Y-76186305D01*
X189547152Y-76199505D01*
X189701658Y-76208860D01*
X189866888Y-76214304D01*
X190035084Y-76215768D01*
X190198489Y-76213186D01*
X190349347Y-76206490D01*
X190479898Y-76195613D01*
X190582386Y-76180488D01*
X190590303Y-76178927D01*
X190661216Y-76166440D01*
X190748446Y-76152854D01*
X190834943Y-76140845D01*
X190847501Y-76139198D01*
X190953154Y-76123292D01*
X191078262Y-76101530D01*
X191218604Y-76074892D01*
X191369961Y-76044357D01*
X191528109Y-76010905D01*
X191688830Y-75975517D01*
X191847900Y-75939172D01*
X192001101Y-75902850D01*
X192144210Y-75867530D01*
X192273007Y-75834192D01*
X192383270Y-75803817D01*
X192470779Y-75777384D01*
X192531313Y-75755873D01*
X192560650Y-75740263D01*
X192563848Y-75735991D01*
X192571945Y-75714174D01*
X192579992Y-75674487D01*
X192588321Y-75613904D01*
X192597267Y-75529398D01*
X192607165Y-75417945D01*
X192618348Y-75276517D01*
X192631152Y-75102088D01*
X192636080Y-75033856D01*
X192648117Y-74872095D01*
X192660517Y-74711500D01*
X192672715Y-74559037D01*
X192684149Y-74421672D01*
X192694255Y-74306370D01*
X192702470Y-74220099D01*
X192709130Y-74154765D01*
X192722173Y-74026713D01*
X192736706Y-73883932D01*
X192751392Y-73739563D01*
X192764893Y-73606747D01*
X192772776Y-73530564D01*
X192790128Y-73370708D01*
X192808674Y-73208720D01*
X192827625Y-73050941D01*
X192846191Y-72903710D01*
X192863582Y-72773366D01*
X192879010Y-72666248D01*
X192891685Y-72588697D01*
X192898271Y-72550242D01*
X192908868Y-72450433D01*
X192902622Y-72375423D01*
X192877082Y-72318690D01*
X192829797Y-72273712D01*
X192758314Y-72233970D01*
X192702804Y-72210770D01*
X192646910Y-72194555D01*
X192611878Y-72192767D01*
X192601155Y-72204314D01*
X192618186Y-72228107D01*
X192666418Y-72263054D01*
X192710973Y-72294615D01*
X192748333Y-72337293D01*
X192768219Y-72391178D01*
X192773229Y-72464119D01*
X192765958Y-72563966D01*
X192741555Y-72789971D01*
X192719470Y-72995806D01*
X192700559Y-73173791D01*
X192684400Y-73328024D01*
X192670573Y-73462604D01*
X192658656Y-73581630D01*
X192648230Y-73689199D01*
X192638872Y-73789411D01*
X192630162Y-73886364D01*
X192624115Y-73954952D01*
X192606555Y-74154528D01*
X192591752Y-74323542D01*
X192579366Y-74466099D01*
X192569053Y-74586303D01*
X192560470Y-74688258D01*
X192553275Y-74776070D01*
X192547126Y-74853842D01*
X192541679Y-74925680D01*
X192536592Y-74995687D01*
X192531523Y-75067969D01*
X192527365Y-75127779D01*
X192517980Y-75258545D01*
X192510008Y-75358868D01*
X192502823Y-75432758D01*
X192495798Y-75484224D01*
X192488305Y-75517274D01*
X192479718Y-75535918D01*
X192469409Y-75544165D01*
X192456752Y-75546023D01*
X192437510Y-75543629D01*
X192422443Y-75532206D01*
X192422833Y-75525766D01*
X192425785Y-75488571D01*
X192431257Y-75423380D01*
X192438797Y-75335487D01*
X192447953Y-75230189D01*
X192458272Y-75112782D01*
X192485157Y-74808762D01*
X192509257Y-74536991D01*
X192530564Y-74297624D01*
X192549237Y-74088885D01*
X192565440Y-73908999D01*
X192579333Y-73756190D01*
X192591077Y-73628682D01*
X192600835Y-73524700D01*
X192608767Y-73442468D01*
X192615036Y-73380210D01*
X192619802Y-73336150D01*
X192629016Y-73249990D01*
X192639319Y-73143156D01*
X192647511Y-73047514D01*
X192653867Y-72973662D01*
X192663244Y-72875431D01*
X192674278Y-72766863D01*
X192685699Y-72660834D01*
X192696082Y-72561709D01*
X192702163Y-72472270D01*
X192699795Y-72407510D01*
X192687178Y-72361447D01*
X192662512Y-72328099D01*
X192623998Y-72301481D01*
X192569836Y-72275611D01*
X192551394Y-72267591D01*
X192446231Y-72226289D01*
X192352725Y-72199298D01*
X192254874Y-72181855D01*
X192206412Y-72177528D01*
X192122346Y-72178287D01*
X192042194Y-72187577D01*
X191976598Y-72203929D01*
X191936204Y-72225870D01*
X191926439Y-72240111D01*
X191909434Y-72288280D01*
X191892564Y-72367613D01*
X191875241Y-72480562D01*
X191871628Y-72508059D01*
X191858270Y-72622331D01*
X191843410Y-72765934D01*
X191827464Y-72933707D01*
X191810846Y-73120490D01*
X191793972Y-73321122D01*
X191777257Y-73530444D01*
X191761117Y-73743294D01*
X191745965Y-73954513D01*
X191732219Y-74158939D01*
X191720292Y-74351414D01*
X191710600Y-74526775D01*
X191709087Y-74556369D01*
X191701792Y-74698685D01*
X191694821Y-74834133D01*
X191688474Y-74956880D01*
X191683055Y-75061093D01*
X191678865Y-75140939D01*
X191676207Y-75190585D01*
X191675645Y-75200246D01*
X191667996Y-75272455D01*
X191653867Y-75320472D01*
X191630296Y-75354899D01*
X191591124Y-75396596D01*
X191675565Y-75408170D01*
X191687239Y-75409602D01*
X191752298Y-75414763D01*
X191834760Y-75418381D01*
X191919654Y-75419744D01*
X191984396Y-75421062D01*
X192085799Y-75431332D01*
X192165183Y-75452729D01*
X192219351Y-75476727D01*
X192284343Y-75511013D01*
X192348673Y-75549245D01*
X192404423Y-75586431D01*
X192443678Y-75617578D01*
X192458523Y-75637696D01*
X192458179Y-75640582D01*
X192443910Y-75657194D01*
X192406478Y-75676570D01*
X192342841Y-75699849D01*
X192249958Y-75728169D01*
X192124787Y-75762669D01*
X191912630Y-75816835D01*
X191626288Y-75883107D01*
X191343285Y-75941326D01*
X191078480Y-75988290D01*
X191038584Y-75994723D01*
X190920980Y-76013933D01*
X190803972Y-76033360D01*
X190699240Y-76051054D01*
X190618466Y-76065067D01*
X190613351Y-76065966D01*
X190553553Y-76075000D01*
X190486799Y-76082104D01*
X190408235Y-76087478D01*
X190313009Y-76091323D01*
X190196269Y-76093839D01*
X190053162Y-76095229D01*
X189878835Y-76095692D01*
X189844220Y-76095701D01*
X189691729Y-76095585D01*
X189569956Y-76095009D01*
X189474432Y-76093711D01*
X189400691Y-76091430D01*
X189344263Y-76087906D01*
X189300682Y-76082877D01*
X189265481Y-76076082D01*
X189234190Y-76067259D01*
X189202344Y-76056149D01*
X189094105Y-76016407D01*
X189184304Y-76024354D01*
X189202142Y-76025640D01*
X189261715Y-76028716D01*
X189347627Y-76032257D01*
X189453381Y-76036023D01*
X189572483Y-76039775D01*
X189698438Y-76043273D01*
X189904474Y-76045836D01*
X190334010Y-76032050D01*
X190740705Y-75991895D01*
X191123580Y-75925452D01*
X191167352Y-75916051D01*
X191240260Y-75900383D01*
X191328408Y-75881435D01*
X191421236Y-75861476D01*
X191503424Y-75843294D01*
X191627155Y-75814337D01*
X191753978Y-75783071D01*
X191879118Y-75750819D01*
X191997798Y-75718902D01*
X192105241Y-75688644D01*
X192196671Y-75661367D01*
X192267312Y-75638393D01*
X192312388Y-75621046D01*
X192327121Y-75610646D01*
X192326459Y-75608984D01*
X192300919Y-75588690D01*
X192246115Y-75565912D01*
X192168063Y-75542282D01*
X192072781Y-75519431D01*
X191966284Y-75498987D01*
X191854590Y-75482583D01*
X191843153Y-75481184D01*
X191670704Y-75463173D01*
X191525246Y-75454973D01*
X191399467Y-75456666D01*
X191286055Y-75468332D01*
X191177699Y-75490051D01*
X191059016Y-75517556D01*
X190857491Y-75556965D01*
X190633972Y-75592305D01*
X190385658Y-75623918D01*
X190109745Y-75652147D01*
X189803433Y-75677335D01*
X189463920Y-75699825D01*
X189342783Y-75709393D01*
X189198949Y-75727021D01*
X189067499Y-75749899D01*
X188953169Y-75776875D01*
X188860700Y-75806798D01*
X188794829Y-75838516D01*
X188760296Y-75870876D01*
X188758289Y-75874704D01*
X188741984Y-75930699D01*
X188671632Y-75930699D01*
X188670526Y-75917454D01*
X188697737Y-75848394D01*
X188756291Y-75782515D01*
X188844566Y-75723195D01*
X188856883Y-75716874D01*
X188908512Y-75695553D01*
X188972410Y-75677324D01*
X189053337Y-75661359D01*
X189156052Y-75646833D01*
X189285314Y-75632918D01*
X189445881Y-75618790D01*
X189465434Y-75617194D01*
X189675306Y-75599939D01*
X189853532Y-75584992D01*
X190004098Y-75571951D01*
X190130990Y-75560410D01*
X190238196Y-75549967D01*
X190329702Y-75540219D01*
X190409495Y-75530761D01*
X190481562Y-75521189D01*
X190549890Y-75511102D01*
X190618466Y-75500094D01*
X190661094Y-75492797D01*
X190771377Y-75472266D01*
X190891400Y-75448038D01*
X191015518Y-75421438D01*
X191138087Y-75393790D01*
X191253462Y-75366419D01*
X191356000Y-75340649D01*
X191440056Y-75317803D01*
X191499986Y-75299207D01*
X191530147Y-75286185D01*
X191534027Y-75282738D01*
X191543909Y-75266727D01*
X191552941Y-75238731D01*
X191561446Y-75195744D01*
X191569747Y-75134757D01*
X191578168Y-75052765D01*
X191587031Y-74946762D01*
X191596660Y-74813740D01*
X191607378Y-74650694D01*
X191619508Y-74454616D01*
X191622390Y-74407621D01*
X191632177Y-74254429D01*
X191642917Y-74094196D01*
X191653863Y-73937687D01*
X191664266Y-73795669D01*
X191673379Y-73678906D01*
X191681994Y-73571432D01*
X191693404Y-73424813D01*
X191705442Y-73266433D01*
X191717123Y-73109279D01*
X191727461Y-72966335D01*
X191728335Y-72954113D01*
X191738238Y-72824347D01*
X191749190Y-72694165D01*
X191760357Y-72572673D01*
X191770905Y-72468977D01*
X191780002Y-72392183D01*
X191788376Y-72332748D01*
X191800591Y-72263497D01*
X191814025Y-72216208D01*
X191831371Y-72182344D01*
X191855323Y-72153363D01*
X191857611Y-72150985D01*
X191896314Y-72115783D01*
X191936940Y-72093033D01*
X191990864Y-72078117D01*
X192069464Y-72066416D01*
X192119578Y-72058974D01*
X192151430Y-72045725D01*
X192171827Y-72017648D01*
X192192445Y-71965128D01*
X192213953Y-71914258D01*
X192257969Y-71849849D01*
X192261413Y-71847178D01*
X192926026Y-71847178D01*
X192934414Y-71855058D01*
X192958548Y-71868619D01*
X193003983Y-71891249D01*
X193076275Y-71926337D01*
X193124053Y-71950319D01*
X193180684Y-71983552D01*
X193213149Y-72012016D01*
X193227591Y-72040338D01*
X193229778Y-72052456D01*
X193231127Y-72071605D01*
X193231162Y-72099484D01*
X193229717Y-72137521D01*
X193229668Y-72138814D01*
X193226432Y-72192312D01*
X193221241Y-72262695D01*
X193213880Y-72352684D01*
X193204136Y-72464995D01*
X193191795Y-72602347D01*
X193176644Y-72767459D01*
X193158468Y-72963048D01*
X193137054Y-73191832D01*
X193112493Y-73467818D01*
X193082545Y-73845637D01*
X193055108Y-74238911D01*
X193030659Y-74639117D01*
X193009674Y-75037735D01*
X192992629Y-75426241D01*
X192980002Y-75796113D01*
X192972269Y-76138830D01*
X192970082Y-76257556D01*
X192967192Y-76376910D01*
X192963951Y-76480840D01*
X192960545Y-76564183D01*
X192957160Y-76621775D01*
X192953980Y-76648454D01*
X192953092Y-76674522D01*
X192970535Y-76682662D01*
X192998442Y-76670291D01*
X193027646Y-76638633D01*
X193032838Y-76630089D01*
X193047873Y-76581427D01*
X193044443Y-76514952D01*
X193042412Y-76482763D01*
X193042154Y-76416849D01*
X193043986Y-76325727D01*
X193047742Y-76215189D01*
X193053256Y-76091024D01*
X193060362Y-75959025D01*
X193064923Y-75879631D01*
X193073340Y-75725933D01*
X193081405Y-75570110D01*
X193088645Y-75421696D01*
X193094588Y-75290223D01*
X193098761Y-75185227D01*
X193102440Y-75100786D01*
X193109068Y-74979632D01*
X193194371Y-74979632D01*
X193194856Y-75034693D01*
X193197617Y-75071460D01*
X193202814Y-75094385D01*
X193210605Y-75107919D01*
X193221150Y-75116513D01*
X193229394Y-75121375D01*
X193250979Y-75127972D01*
X193282542Y-75125545D01*
X193336483Y-75113802D01*
X193440400Y-75074433D01*
X193536000Y-75005272D01*
X193609736Y-74914212D01*
X193658241Y-74806849D01*
X193678154Y-74688775D01*
X193666111Y-74565585D01*
X193637473Y-74472615D01*
X193574992Y-74354519D01*
X193490277Y-74262878D01*
X193384953Y-74199803D01*
X193357926Y-74189245D01*
X193317719Y-74178877D01*
X193286064Y-74181867D01*
X193261695Y-74201459D01*
X193243349Y-74240901D01*
X193229762Y-74303437D01*
X193219669Y-74392314D01*
X193211806Y-74510778D01*
X193204908Y-74662074D01*
X193199595Y-74796829D01*
X193196004Y-74901828D01*
X193194371Y-74979632D01*
X193109068Y-74979632D01*
X193109246Y-74976384D01*
X193118232Y-74831980D01*
X193128837Y-74676140D01*
X193140498Y-74517430D01*
X193152653Y-74364418D01*
X193164409Y-74222649D01*
X193176746Y-74073917D01*
X193188567Y-73931437D01*
X193199257Y-73802634D01*
X193208198Y-73694935D01*
X193214775Y-73615767D01*
X193218515Y-73572530D01*
X193228966Y-73461024D01*
X193241832Y-73332404D01*
X193255828Y-73199357D01*
X193269666Y-73074574D01*
X193277688Y-73004498D01*
X193291218Y-72886276D01*
X193295393Y-72849784D01*
X193378551Y-72849784D01*
X193380159Y-72882404D01*
X193391388Y-72906467D01*
X193419141Y-72912188D01*
X193437349Y-72910881D01*
X193505959Y-72887943D01*
X193570258Y-72843361D01*
X193616048Y-72786219D01*
X193621734Y-72774203D01*
X193640753Y-72706225D01*
X193648737Y-72626344D01*
X193645022Y-72549743D01*
X193628943Y-72491605D01*
X193617038Y-72471471D01*
X193582005Y-72425636D01*
X193540336Y-72381427D01*
X193501204Y-72348108D01*
X193473785Y-72334943D01*
X193455133Y-72344149D01*
X193434374Y-72375563D01*
X193426736Y-72406553D01*
X193416634Y-72466724D01*
X193405882Y-72544939D01*
X193395589Y-72631776D01*
X193386863Y-72717811D01*
X193380814Y-72793621D01*
X193378551Y-72849784D01*
X193295393Y-72849784D01*
X193304102Y-72773654D01*
X193315187Y-72676715D01*
X193323320Y-72605540D01*
X193326518Y-72577608D01*
X193337868Y-72479213D01*
X193350520Y-72370331D01*
X193362283Y-72269835D01*
X193367658Y-72219104D01*
X193368962Y-72201978D01*
X193484545Y-72201978D01*
X193488422Y-72226322D01*
X193518414Y-72267388D01*
X193575623Y-72327991D01*
X193635086Y-72392354D01*
X193678950Y-72454978D01*
X193703163Y-72514583D01*
X193713562Y-72570988D01*
X193711301Y-72626344D01*
X193708927Y-72684484D01*
X193672932Y-72793708D01*
X193607880Y-72889595D01*
X193583711Y-72919851D01*
X193577761Y-72938519D01*
X193592640Y-72938118D01*
X193623380Y-72919260D01*
X193665012Y-72882557D01*
X193703733Y-72835843D01*
X193751662Y-72737838D01*
X193772716Y-72626920D01*
X193765785Y-72511363D01*
X193729762Y-72399440D01*
X193729249Y-72398366D01*
X193696579Y-72345214D01*
X193651420Y-72289751D01*
X193601853Y-72240090D01*
X193555957Y-72204343D01*
X193521812Y-72190625D01*
X193505680Y-72191540D01*
X193484545Y-72201978D01*
X193368962Y-72201978D01*
X193373544Y-72141785D01*
X193373917Y-72129582D01*
X193565989Y-72129582D01*
X193576999Y-72142264D01*
X193616611Y-72166896D01*
X193679476Y-72214225D01*
X193752965Y-72302977D01*
X193806648Y-72410218D01*
X193837640Y-72527548D01*
X193842161Y-72626920D01*
X193843055Y-72646568D01*
X193820005Y-72758878D01*
X193813798Y-72776477D01*
X193799556Y-72820488D01*
X193793738Y-72844567D01*
X193797640Y-72858823D01*
X193815330Y-72854424D01*
X193843194Y-72825225D01*
X193876716Y-72775011D01*
X193921117Y-72668419D01*
X193933840Y-72547654D01*
X193911860Y-72417359D01*
X193903258Y-72391062D01*
X193859629Y-72302066D01*
X193800484Y-72224847D01*
X193732052Y-72165170D01*
X193660558Y-72128798D01*
X193592231Y-72121497D01*
X193580616Y-72123329D01*
X193565989Y-72129582D01*
X193373917Y-72129582D01*
X193375430Y-72080090D01*
X193372848Y-72044077D01*
X193371316Y-72039214D01*
X193342398Y-72000099D01*
X193290330Y-71959143D01*
X193580448Y-71959143D01*
X193601860Y-71975953D01*
X193658766Y-71994220D01*
X193668148Y-71996810D01*
X193749285Y-72034900D01*
X193808876Y-72080090D01*
X193829869Y-72096010D01*
X193898797Y-72170298D01*
X193944966Y-72247923D01*
X193979338Y-72327736D01*
X194014779Y-72392033D01*
X194054836Y-72436584D01*
X194107294Y-72467546D01*
X194179934Y-72491073D01*
X194280540Y-72513320D01*
X194410861Y-72547654D01*
X194526288Y-72578064D01*
X194751087Y-72669917D01*
X194953610Y-72789230D01*
X195135442Y-72936935D01*
X195298163Y-73113968D01*
X195381507Y-73228496D01*
X195495969Y-73424102D01*
X195596801Y-73644289D01*
X195681640Y-73882972D01*
X195748126Y-74134064D01*
X195793895Y-74391477D01*
X195794027Y-74392468D01*
X195833791Y-74813080D01*
X195838344Y-75037679D01*
X195842644Y-75249780D01*
X195820611Y-75703871D01*
X195819504Y-75717827D01*
X195815534Y-75792867D01*
X195820035Y-75836526D01*
X195836236Y-75852623D01*
X195867370Y-75844979D01*
X195916669Y-75817413D01*
X195943777Y-75799985D01*
X195975245Y-75774380D01*
X195999445Y-75743427D01*
X196017945Y-75702015D01*
X196032312Y-75645032D01*
X196044115Y-75567367D01*
X196054920Y-75463909D01*
X196066296Y-75329545D01*
X196077271Y-75189831D01*
X196091340Y-74994904D01*
X196101623Y-74825456D01*
X196108315Y-74675143D01*
X196111612Y-74537622D01*
X196111711Y-74406549D01*
X196108806Y-74275581D01*
X196103094Y-74138374D01*
X196098259Y-74044385D01*
X196086908Y-73853501D01*
X196074604Y-73690413D01*
X196060736Y-73549361D01*
X196044694Y-73424590D01*
X196025867Y-73310339D01*
X196003643Y-73200852D01*
X195993884Y-73155554D01*
X195973052Y-73052050D01*
X195954230Y-72950353D01*
X195940564Y-72867116D01*
X195940142Y-72864255D01*
X195925750Y-72778672D01*
X195908482Y-72692356D01*
X195891982Y-72623579D01*
X195842790Y-72451817D01*
X195758896Y-72187506D01*
X195672234Y-71950155D01*
X195660424Y-71920262D01*
X195624638Y-71834104D01*
X195592861Y-71769015D01*
X195567267Y-71728100D01*
X195675120Y-71728100D01*
X195675236Y-71738264D01*
X195685102Y-71777619D01*
X195704860Y-71840746D01*
X195732631Y-71921760D01*
X195766538Y-72014775D01*
X195793015Y-72086471D01*
X195864033Y-72292193D01*
X195924122Y-72490846D01*
X195976134Y-72693215D01*
X196022923Y-72910087D01*
X196067340Y-73152249D01*
X196080545Y-73230157D01*
X196102420Y-73364584D01*
X196120065Y-73484021D01*
X196133972Y-73594851D01*
X196144634Y-73703458D01*
X196152544Y-73816226D01*
X196158196Y-73939539D01*
X196162082Y-74079779D01*
X196164695Y-74243330D01*
X196166243Y-74406549D01*
X196166528Y-74436577D01*
X196167006Y-74502886D01*
X196167839Y-74673481D01*
X196167709Y-74815037D01*
X196166449Y-74932786D01*
X196163890Y-75031961D01*
X196159865Y-75117796D01*
X196154207Y-75195523D01*
X196146747Y-75270375D01*
X196137318Y-75347585D01*
X196132340Y-75386626D01*
X196121802Y-75477029D01*
X196114357Y-75552671D01*
X196110644Y-75606562D01*
X196111303Y-75631712D01*
X196119800Y-75647151D01*
X196137464Y-75651089D01*
X196168712Y-75634981D01*
X196220101Y-75596718D01*
X196333159Y-75485725D01*
X196426407Y-75344929D01*
X196497277Y-75176840D01*
X196545318Y-74982313D01*
X196549183Y-74959592D01*
X196558631Y-74894789D01*
X196563154Y-74847495D01*
X196561804Y-74826671D01*
X196545714Y-74824913D01*
X196503071Y-74829329D01*
X196444911Y-74839652D01*
X196363124Y-74851200D01*
X196306360Y-74844881D01*
X196274726Y-74818734D01*
X196264915Y-74771510D01*
X196269885Y-74743068D01*
X196341111Y-74743068D01*
X196345583Y-74758871D01*
X196372443Y-74780740D01*
X196418263Y-74779433D01*
X196478664Y-74756902D01*
X196549266Y-74715099D01*
X196625691Y-74655976D01*
X196703560Y-74581485D01*
X196705590Y-74579326D01*
X196746181Y-74532224D01*
X196791875Y-74473605D01*
X196837106Y-74411376D01*
X196876306Y-74353443D01*
X196903909Y-74307715D01*
X196914347Y-74282097D01*
X196905552Y-74264805D01*
X196876732Y-74232489D01*
X196838275Y-74197186D01*
X196801079Y-74168752D01*
X196776045Y-74157044D01*
X196762879Y-74164104D01*
X196728606Y-74193020D01*
X196680809Y-74239103D01*
X196625505Y-74296768D01*
X196604219Y-74320294D01*
X196537383Y-74400784D01*
X196474403Y-74485640D01*
X196419281Y-74568581D01*
X196376023Y-74643321D01*
X196348632Y-74703578D01*
X196341111Y-74743068D01*
X196269885Y-74743068D01*
X196271415Y-74734310D01*
X196296944Y-74666908D01*
X196337831Y-74584575D01*
X196389803Y-74494607D01*
X196448585Y-74404298D01*
X196509901Y-74320941D01*
X196569477Y-74251833D01*
X196608412Y-74200451D01*
X196625710Y-74140700D01*
X196625710Y-74088032D01*
X196480777Y-74135546D01*
X196426860Y-74152152D01*
X196355571Y-74167614D01*
X196308625Y-74165438D01*
X196281120Y-74144929D01*
X196268155Y-74105393D01*
X196273725Y-74060117D01*
X196282772Y-74034997D01*
X196348752Y-74034997D01*
X196352627Y-74075966D01*
X196364714Y-74096602D01*
X196382549Y-74097973D01*
X196431502Y-74082252D01*
X196496350Y-74046043D01*
X196571412Y-73993152D01*
X196651002Y-73927381D01*
X196729439Y-73852533D01*
X196785838Y-73792958D01*
X196833847Y-73739088D01*
X196866327Y-73698969D01*
X196878267Y-73678462D01*
X196866865Y-73652382D01*
X196829156Y-73615992D01*
X196772902Y-73580495D01*
X196763266Y-73576022D01*
X196717980Y-73569623D01*
X196668816Y-73588589D01*
X196611716Y-73635235D01*
X196542621Y-73711877D01*
X196524580Y-73733845D01*
X196446200Y-73834738D01*
X196392199Y-73915772D01*
X196360460Y-73980451D01*
X196348861Y-74032280D01*
X196348752Y-74034997D01*
X196282772Y-74034997D01*
X196297557Y-73993942D01*
X196335435Y-73914631D01*
X196383116Y-73829740D01*
X196436354Y-73746824D01*
X196490905Y-73673436D01*
X196542522Y-73617132D01*
X196545370Y-73614407D01*
X196573542Y-73575934D01*
X196588250Y-73535100D01*
X196587300Y-73502689D01*
X196568496Y-73489489D01*
X196542716Y-73495593D01*
X196493940Y-73512034D01*
X196433133Y-73535188D01*
X196402501Y-73547116D01*
X196346538Y-73565251D01*
X196309244Y-73569228D01*
X196281081Y-73560645D01*
X196277473Y-73558663D01*
X196256356Y-73540631D01*
X196250002Y-73511838D01*
X196255296Y-73460137D01*
X196261521Y-73425221D01*
X196263157Y-73420156D01*
X196312184Y-73420156D01*
X196312305Y-73461893D01*
X196323083Y-73478883D01*
X196353668Y-73487413D01*
X196402731Y-73470806D01*
X196473326Y-73428427D01*
X196542270Y-73371891D01*
X196615892Y-73295346D01*
X196682961Y-73211528D01*
X196732387Y-73133082D01*
X196741872Y-73109520D01*
X196737477Y-73081838D01*
X196708409Y-73047393D01*
X196689868Y-73030768D01*
X196635833Y-73005375D01*
X196581122Y-73015414D01*
X196523626Y-73061044D01*
X196470039Y-73124304D01*
X196414470Y-73203099D01*
X196367090Y-73283507D01*
X196331720Y-73358277D01*
X196312184Y-73420156D01*
X196263157Y-73420156D01*
X196302832Y-73297286D01*
X196375138Y-73168350D01*
X196419550Y-73099739D01*
X196457591Y-73027849D01*
X196475489Y-72964340D01*
X196474223Y-72899061D01*
X196454770Y-72821860D01*
X196418111Y-72722587D01*
X196353771Y-72571121D01*
X196233234Y-72336140D01*
X196099423Y-72130174D01*
X195954066Y-71956075D01*
X195918774Y-71920091D01*
X195851833Y-71856067D01*
X195788659Y-71800493D01*
X195734590Y-71757733D01*
X195694965Y-71732147D01*
X195675120Y-71728100D01*
X195567267Y-71728100D01*
X195558993Y-71714874D01*
X195516937Y-71661560D01*
X195460593Y-71598954D01*
X195332762Y-71461165D01*
X195271175Y-71481874D01*
X195266013Y-71483623D01*
X195220723Y-71499316D01*
X195151515Y-71523619D01*
X195066849Y-71553553D01*
X194975185Y-71586138D01*
X194880169Y-71618732D01*
X194711412Y-71672108D01*
X194526040Y-71726281D01*
X194332473Y-71779059D01*
X194139131Y-71828252D01*
X193954431Y-71871669D01*
X193786794Y-71907118D01*
X193644638Y-71932409D01*
X193594674Y-71944417D01*
X193580448Y-71959143D01*
X193290330Y-71959143D01*
X193287828Y-71957175D01*
X193215697Y-71915236D01*
X193134096Y-71879075D01*
X193051118Y-71853485D01*
X192998647Y-71842782D01*
X192952801Y-71836590D01*
X192931421Y-71837992D01*
X192927826Y-71841589D01*
X192926026Y-71847178D01*
X192261413Y-71847178D01*
X192320680Y-71801219D01*
X192410777Y-71760210D01*
X192426722Y-71754499D01*
X192571612Y-71721331D01*
X192735740Y-71712876D01*
X192913271Y-71728661D01*
X193098371Y-71768215D01*
X193285205Y-71831063D01*
X193293666Y-71834401D01*
X193365675Y-71859491D01*
X193431256Y-71877225D01*
X193477141Y-71883949D01*
X193490497Y-71883326D01*
X193547991Y-71875858D01*
X193631832Y-71861047D01*
X193735800Y-71840290D01*
X193853673Y-71814984D01*
X193979230Y-71786527D01*
X194106251Y-71756314D01*
X194228513Y-71725744D01*
X194339795Y-71696212D01*
X194433878Y-71669116D01*
X194461721Y-71660605D01*
X194651077Y-71601103D01*
X194820649Y-71544940D01*
X194967914Y-71493069D01*
X195090350Y-71446445D01*
X195185432Y-71406023D01*
X195250638Y-71372759D01*
X195283446Y-71347606D01*
X195285339Y-71344502D01*
X195294644Y-71306941D01*
X195301569Y-71238494D01*
X195306080Y-71143511D01*
X195308140Y-71026339D01*
X195307712Y-70891326D01*
X195304760Y-70742821D01*
X195299249Y-70585172D01*
X195291142Y-70422727D01*
X195286970Y-70349717D01*
X195279243Y-70212285D01*
X195270870Y-70061222D01*
X195262612Y-69910302D01*
X195255231Y-69773295D01*
X195246493Y-69617397D01*
X195227310Y-69317337D01*
X195204258Y-69005525D01*
X195176932Y-68677192D01*
X195144924Y-68327569D01*
X195107829Y-67951889D01*
X195065239Y-67545383D01*
X195059988Y-67497741D01*
X195041652Y-67343672D01*
X195019313Y-67169640D01*
X194994117Y-66983619D01*
X194967208Y-66793583D01*
X194939730Y-66607506D01*
X194912828Y-66433362D01*
X194887647Y-66279127D01*
X194865332Y-66152773D01*
X194844957Y-66042913D01*
X194823232Y-65924454D01*
X194803001Y-65812951D01*
X194786863Y-65722652D01*
X194777431Y-65672068D01*
X194761410Y-65596586D01*
X194746449Y-65537358D01*
X194734854Y-65504073D01*
X194714443Y-65473904D01*
X194658597Y-65413869D01*
X194579085Y-65343510D01*
X194481048Y-65266772D01*
X194369627Y-65187600D01*
X194249965Y-65109941D01*
X194127202Y-65037741D01*
X194062195Y-65003606D01*
X193916743Y-64936755D01*
X193749506Y-64869569D01*
X193569589Y-64805218D01*
X193386098Y-64746872D01*
X193208139Y-64697702D01*
X193044815Y-64660878D01*
X193040883Y-64660118D01*
X192895884Y-64633775D01*
X192759964Y-64613013D01*
X192625605Y-64597215D01*
X192485288Y-64585764D01*
X192331495Y-64578042D01*
X192156708Y-64573433D01*
X191953409Y-64571321D01*
X191887035Y-64571089D01*
X191724181Y-64571640D01*
X191579508Y-64574373D01*
X191445342Y-64579870D01*
X191314012Y-64588714D01*
X191177842Y-64601486D01*
X191029160Y-64618770D01*
X190860292Y-64641147D01*
X190663565Y-64669199D01*
X190532472Y-64690007D01*
X190320158Y-64730922D01*
X190118566Y-64778540D01*
X189932765Y-64831365D01*
X189767824Y-64887902D01*
X189628815Y-64946657D01*
X189520808Y-65006134D01*
X189484551Y-65032613D01*
X189396912Y-65122850D01*
X189327542Y-65233190D01*
X189281909Y-65353609D01*
X189265483Y-65474084D01*
X189266040Y-65500052D01*
X189271060Y-65518934D01*
X189285657Y-65528878D01*
X189314942Y-65530037D01*
X189364029Y-65522561D01*
X189438030Y-65506604D01*
X189542060Y-65482318D01*
X189625049Y-65463254D01*
X189726333Y-65441001D01*
X189818209Y-65421817D01*
X189887855Y-65408442D01*
X189908646Y-65404753D01*
X189993876Y-65389312D01*
X190091936Y-65371200D01*
X190185511Y-65353607D01*
X190216662Y-65347790D01*
X190406267Y-65316134D01*
X190613819Y-65286945D01*
X190830456Y-65261118D01*
X191047318Y-65239552D01*
X191255545Y-65223142D01*
X191446277Y-65212785D01*
X191610653Y-65209378D01*
X191683057Y-65210365D01*
X191885778Y-65220475D01*
X192098431Y-65240518D01*
X192314447Y-65269294D01*
X192527259Y-65305606D01*
X192730297Y-65348255D01*
X192916994Y-65396040D01*
X193080781Y-65447764D01*
X193215089Y-65502228D01*
X193284101Y-65540383D01*
X193364204Y-65597888D01*
X193433687Y-65661330D01*
X193485129Y-65723787D01*
X193511104Y-65778334D01*
X193519720Y-65835178D01*
X193527124Y-65925254D01*
X193532442Y-66038519D01*
X193535579Y-66168298D01*
X193535794Y-66203199D01*
X193536441Y-66307918D01*
X193534932Y-66450705D01*
X193530960Y-66589986D01*
X193524428Y-66719087D01*
X193514731Y-66853379D01*
X193500462Y-67023176D01*
X193483115Y-67210128D01*
X193463496Y-67406645D01*
X193442416Y-67605134D01*
X193420681Y-67798003D01*
X193399100Y-67977661D01*
X193378482Y-68136515D01*
X193359634Y-68266974D01*
X193341007Y-68386241D01*
X193276820Y-68789462D01*
X193239485Y-69016217D01*
X193216268Y-69157223D01*
X193159282Y-69489858D01*
X193105797Y-69787699D01*
X193055743Y-70051082D01*
X193009056Y-70280339D01*
X192965666Y-70475804D01*
X192925507Y-70637811D01*
X192888512Y-70766693D01*
X192854613Y-70862784D01*
X192823744Y-70926419D01*
X192749006Y-71019234D01*
X192644769Y-71099264D01*
X192524982Y-71151597D01*
X192490380Y-71160632D01*
X192371682Y-71181933D01*
X192219732Y-71198031D01*
X192036335Y-71208871D01*
X191823294Y-71214394D01*
X191582415Y-71214546D01*
X191315503Y-71209269D01*
X191024361Y-71198508D01*
X190946968Y-71195005D01*
X190552687Y-71175619D01*
X190193642Y-71155199D01*
X189869132Y-71133674D01*
X189578456Y-71110974D01*
X189320915Y-71087030D01*
X189095806Y-71061770D01*
X188902429Y-71035125D01*
X188740085Y-71007024D01*
X188608071Y-70977398D01*
X188505688Y-70946176D01*
X188462932Y-70930765D01*
X188408854Y-70913106D01*
X188375732Y-70906954D01*
X188355472Y-70911278D01*
X188339981Y-70925045D01*
X188338141Y-70927644D01*
X188324388Y-70960815D01*
X188304571Y-71023258D01*
X188279968Y-71109940D01*
X188251856Y-71215828D01*
X188221514Y-71335887D01*
X188190218Y-71465085D01*
X188159248Y-71598386D01*
X188129879Y-71730759D01*
X188103390Y-71857169D01*
X188102368Y-71862244D01*
X188078727Y-71990051D01*
X188055452Y-72131653D01*
X188053057Y-72146224D01*
X188026340Y-72323516D01*
X187999558Y-72514676D01*
X187973695Y-72712454D01*
X187957906Y-72842357D01*
X187949732Y-72909603D01*
X187928654Y-73098872D01*
X187911443Y-73273011D01*
X187904667Y-73353353D01*
X187895270Y-73482043D01*
X187885649Y-73631345D01*
X187875956Y-73797483D01*
X187866339Y-73976683D01*
X187856951Y-74165168D01*
X187847941Y-74359164D01*
X187839461Y-74554893D01*
X187831660Y-74748581D01*
X187824690Y-74936452D01*
X187818701Y-75114731D01*
X187813843Y-75279641D01*
X187810267Y-75427407D01*
X187808124Y-75554254D01*
X187807565Y-75656405D01*
X187743316Y-75656405D01*
X187744627Y-75438008D01*
X187747802Y-75186345D01*
X187752600Y-74929974D01*
X187758917Y-74673823D01*
X187766652Y-74422815D01*
X187775704Y-74181877D01*
X187785971Y-73955934D01*
X187797352Y-73749912D01*
X187809744Y-73568735D01*
X187823047Y-73417329D01*
X187826030Y-73387956D01*
X187842696Y-73221353D01*
X187855574Y-73086788D01*
X187864879Y-72980964D01*
X187870824Y-72900586D01*
X187873625Y-72842357D01*
X187873496Y-72802982D01*
X187870651Y-72779163D01*
X187865305Y-72767606D01*
X187845478Y-72757343D01*
X187798430Y-72743004D01*
X187737433Y-72729928D01*
X187732685Y-72729101D01*
X187658001Y-72720136D01*
X187591767Y-72723445D01*
X187513161Y-72739956D01*
X187430093Y-72764179D01*
X187333425Y-72801862D01*
X187260613Y-72842453D01*
X187217709Y-72883021D01*
X187209413Y-72905715D01*
X187199471Y-72960798D01*
X187190825Y-73037980D01*
X187183757Y-73130009D01*
X187178551Y-73229635D01*
X187175486Y-73329608D01*
X187174846Y-73422677D01*
X187176913Y-73501594D01*
X187181968Y-73559106D01*
X187190293Y-73587965D01*
X187190414Y-73588109D01*
X187217879Y-73609830D01*
X187267396Y-73640051D01*
X187328329Y-73672277D01*
X187341071Y-73678730D01*
X187459766Y-73757837D01*
X187558598Y-73858674D01*
X187629711Y-73973393D01*
X187637198Y-73991025D01*
X187664482Y-74098332D01*
X187667571Y-74155808D01*
X187670962Y-74218886D01*
X187656849Y-74339180D01*
X187622352Y-74445706D01*
X187570784Y-74535818D01*
X187482276Y-74634799D01*
X187374989Y-74704266D01*
X187251202Y-74742395D01*
X187191495Y-74754859D01*
X187150221Y-74774155D01*
X187127297Y-74806946D01*
X187117697Y-74860711D01*
X187116394Y-74942928D01*
X187116781Y-74963670D01*
X187119631Y-75044025D01*
X187124601Y-75145669D01*
X187131121Y-75257682D01*
X187138621Y-75369145D01*
X187142065Y-75420919D01*
X187147043Y-75495765D01*
X187152879Y-75623633D01*
X187153319Y-75724343D01*
X187147997Y-75802653D01*
X187136545Y-75863323D01*
X187118596Y-75911111D01*
X187093784Y-75950776D01*
X187084564Y-75963167D01*
X187062127Y-76000626D01*
X187053704Y-76037513D01*
X186703574Y-76037513D01*
X186670387Y-76034250D01*
X186563265Y-76012966D01*
X186454562Y-75976628D01*
X186331032Y-75921431D01*
X186326848Y-75919394D01*
X186257310Y-75884198D01*
X186207053Y-75852441D01*
X186172863Y-75817534D01*
X186151524Y-75772892D01*
X186139821Y-75711930D01*
X186134537Y-75628060D01*
X186132973Y-75542725D01*
X186222910Y-75542725D01*
X186223450Y-75616825D01*
X186230169Y-75680837D01*
X186243753Y-75726289D01*
X186264699Y-75753470D01*
X186321342Y-75797163D01*
X186401956Y-75840949D01*
X186499571Y-75881222D01*
X186607220Y-75914376D01*
X186692552Y-75934200D01*
X186773786Y-75944230D01*
X186832409Y-75935243D01*
X186872268Y-75903859D01*
X186897211Y-75846696D01*
X186911086Y-75760374D01*
X186915056Y-75689446D01*
X186977156Y-75689446D01*
X186977180Y-75773878D01*
X186979137Y-75831275D01*
X186983366Y-75866389D01*
X186990205Y-75883973D01*
X186999991Y-75888778D01*
X187011523Y-75887359D01*
X187036702Y-75872145D01*
X187038889Y-75862498D01*
X187042451Y-75821287D01*
X187045612Y-75754429D01*
X187048090Y-75668476D01*
X187049608Y-75569978D01*
X187050092Y-75512201D01*
X187050323Y-75420919D01*
X187049083Y-75357907D01*
X187045794Y-75317959D01*
X187039877Y-75295870D01*
X187030753Y-75286434D01*
X187017842Y-75284446D01*
X187009365Y-75285177D01*
X186998943Y-75291540D01*
X186991509Y-75308716D01*
X186986407Y-75341758D01*
X186982977Y-75395719D01*
X186980563Y-75475653D01*
X186978795Y-75571033D01*
X186978506Y-75586612D01*
X186977156Y-75689446D01*
X186915056Y-75689446D01*
X186917739Y-75641511D01*
X186919217Y-75571033D01*
X186918986Y-75490831D01*
X186916657Y-75427572D01*
X186912432Y-75390803D01*
X186900656Y-75343883D01*
X186743616Y-75355820D01*
X186719609Y-75357464D01*
X186578963Y-75357786D01*
X186442259Y-75339634D01*
X186422994Y-75335916D01*
X186355642Y-75323487D01*
X186303779Y-75314787D01*
X186277346Y-75311509D01*
X186268816Y-75314872D01*
X186251502Y-75344610D01*
X186237622Y-75398146D01*
X186227863Y-75467008D01*
X186222910Y-75542725D01*
X186132973Y-75542725D01*
X186132459Y-75514697D01*
X186129336Y-75251739D01*
X186051280Y-75184553D01*
X185973224Y-75117368D01*
X185967010Y-74813052D01*
X185966906Y-74806392D01*
X186054876Y-74806392D01*
X186055905Y-74859828D01*
X186062311Y-74951444D01*
X186077209Y-75018094D01*
X186103956Y-75067231D01*
X186145911Y-75106312D01*
X186206433Y-75142790D01*
X186259639Y-75168092D01*
X186340770Y-75199298D01*
X186412389Y-75219459D01*
X186416347Y-75220241D01*
X186489675Y-75231064D01*
X186567945Y-75237200D01*
X186641006Y-75238454D01*
X186698707Y-75234632D01*
X186730895Y-75225540D01*
X186742040Y-75217251D01*
X186747393Y-75212532D01*
X186855845Y-75212532D01*
X186858814Y-75234966D01*
X186881865Y-75239548D01*
X186915682Y-75227178D01*
X186950944Y-75198757D01*
X186951630Y-75198000D01*
X186962693Y-75184143D01*
X186972219Y-75167028D01*
X186980458Y-75143675D01*
X186987661Y-75111100D01*
X186994076Y-75066321D01*
X186999955Y-75006358D01*
X187005546Y-74928227D01*
X187011099Y-74828947D01*
X187016866Y-74705536D01*
X187023095Y-74555011D01*
X187027157Y-74449314D01*
X187115685Y-74449314D01*
X187118750Y-74553835D01*
X187119404Y-74563487D01*
X187125221Y-74629656D01*
X187132928Y-74668182D01*
X187144985Y-74686626D01*
X187163849Y-74692553D01*
X187214454Y-74688713D01*
X187292605Y-74661093D01*
X187375085Y-74612118D01*
X187452616Y-74546482D01*
X187483414Y-74513012D01*
X187556276Y-74401812D01*
X187595541Y-74281464D01*
X187600877Y-74155808D01*
X187571950Y-74028681D01*
X187508427Y-73903920D01*
X187455499Y-73841265D01*
X187381451Y-73780369D01*
X187301350Y-73734167D01*
X187227251Y-73710929D01*
X187158424Y-73701697D01*
X187146145Y-73852660D01*
X187138552Y-73950058D01*
X187125696Y-74144603D01*
X187118037Y-74311962D01*
X187115685Y-74449314D01*
X187027157Y-74449314D01*
X187030036Y-74374392D01*
X187037939Y-74160695D01*
X187042780Y-74033655D01*
X187054814Y-73756132D01*
X187068798Y-73484703D01*
X187085159Y-73213391D01*
X187104325Y-72936221D01*
X187126723Y-72647216D01*
X187152207Y-72347162D01*
X187221357Y-72347162D01*
X187223591Y-72394799D01*
X187230911Y-72426125D01*
X187244890Y-72449526D01*
X187267103Y-72473389D01*
X187281575Y-72487035D01*
X187316442Y-72510003D01*
X187361420Y-72522145D01*
X187429461Y-72527803D01*
X187452389Y-72528709D01*
X187526864Y-72527039D01*
X187581506Y-72513103D01*
X187628929Y-72481938D01*
X187681745Y-72428586D01*
X187708270Y-72395074D01*
X187753642Y-72300162D01*
X187768407Y-72195744D01*
X187752179Y-72089282D01*
X187704571Y-71988239D01*
X187648966Y-71926400D01*
X187564755Y-71881129D01*
X187461189Y-71865909D01*
X187393886Y-71871670D01*
X187330608Y-71895572D01*
X187284064Y-71941177D01*
X187252134Y-72011839D01*
X187232696Y-72110914D01*
X187223629Y-72241757D01*
X187222633Y-72274825D01*
X187221357Y-72347162D01*
X187152207Y-72347162D01*
X187152781Y-72340401D01*
X187182927Y-72009798D01*
X187203818Y-71792602D01*
X187335227Y-71792602D01*
X187350394Y-71800883D01*
X187392455Y-71809951D01*
X187451977Y-71817475D01*
X187508880Y-71825063D01*
X187574793Y-71839205D01*
X187620677Y-71855241D01*
X187675078Y-71891082D01*
X187745809Y-71968982D01*
X187793542Y-72064926D01*
X187814569Y-72170430D01*
X187812338Y-72195744D01*
X187805176Y-72277010D01*
X187798700Y-72300922D01*
X187749961Y-72411771D01*
X187677181Y-72495738D01*
X187580667Y-72552550D01*
X187460727Y-72581935D01*
X187429163Y-72586827D01*
X187392186Y-72597264D01*
X187381846Y-72607999D01*
X187387220Y-72612073D01*
X187421355Y-72619157D01*
X187476191Y-72621603D01*
X187540915Y-72619604D01*
X187604713Y-72613355D01*
X187656770Y-72603050D01*
X187708328Y-72581153D01*
X187783992Y-72521912D01*
X187847839Y-72439558D01*
X187895453Y-72341875D01*
X187922415Y-72236645D01*
X187924308Y-72131653D01*
X187913026Y-72068035D01*
X187869038Y-71954222D01*
X187798292Y-71863818D01*
X187702387Y-71798559D01*
X187582919Y-71760185D01*
X187573893Y-71758675D01*
X187515104Y-71754567D01*
X187451670Y-71757237D01*
X187393762Y-71765354D01*
X187351557Y-71777586D01*
X187335227Y-71792602D01*
X187203818Y-71792602D01*
X187217588Y-71649432D01*
X187225467Y-71569408D01*
X187242619Y-71395873D01*
X187256548Y-71253595D01*
X187267284Y-71139247D01*
X187274861Y-71049503D01*
X187279308Y-70981037D01*
X187280659Y-70930523D01*
X187278944Y-70894635D01*
X187274195Y-70870046D01*
X187266444Y-70853430D01*
X187255723Y-70841461D01*
X187242063Y-70830813D01*
X187225496Y-70818159D01*
X187210312Y-70806190D01*
X187165454Y-70775532D01*
X187132248Y-70759212D01*
X187114822Y-70757693D01*
X187117362Y-70771764D01*
X187141268Y-70807753D01*
X187155846Y-70830098D01*
X187169371Y-70861324D01*
X187176832Y-70901560D01*
X187178405Y-70933813D01*
X187179673Y-70959815D01*
X187179340Y-71045099D01*
X187178782Y-71072220D01*
X187174196Y-71179712D01*
X187166515Y-71291683D01*
X187157056Y-71387855D01*
X187150259Y-71446161D01*
X187135883Y-71581302D01*
X187119766Y-71745634D01*
X187102263Y-71934704D01*
X187083729Y-72144058D01*
X187064517Y-72369243D01*
X187044981Y-72605805D01*
X187025476Y-72849291D01*
X187006356Y-73095246D01*
X186987976Y-73339217D01*
X186970690Y-73576750D01*
X186954851Y-73803393D01*
X186940814Y-74014691D01*
X186928935Y-74206190D01*
X186919565Y-74373437D01*
X186918196Y-74399669D01*
X186906815Y-74610524D01*
X186896532Y-74787025D01*
X186887234Y-74930701D01*
X186878808Y-75043084D01*
X186871139Y-75125704D01*
X186864115Y-75180092D01*
X186857621Y-75207777D01*
X186855845Y-75212532D01*
X186747393Y-75212532D01*
X186754635Y-75206148D01*
X186765432Y-75191918D01*
X186774808Y-75171572D01*
X186783136Y-75142122D01*
X186790793Y-75100579D01*
X186798153Y-75043954D01*
X186805592Y-74969257D01*
X186813485Y-74873501D01*
X186822206Y-74753696D01*
X186832132Y-74606853D01*
X186843636Y-74429984D01*
X186857095Y-74220099D01*
X186860890Y-74161646D01*
X186869942Y-74027717D01*
X186879138Y-73898285D01*
X186887896Y-73781230D01*
X186895635Y-73684431D01*
X186901770Y-73615767D01*
X186903476Y-73598241D01*
X186912947Y-73492908D01*
X186922055Y-73380317D01*
X186929040Y-73282031D01*
X186930106Y-73265481D01*
X186936956Y-73164716D01*
X186946016Y-73037894D01*
X186956662Y-72893246D01*
X186968269Y-72738999D01*
X186980213Y-72583384D01*
X186991870Y-72434631D01*
X187002616Y-72300968D01*
X187011826Y-72190625D01*
X187016983Y-72130110D01*
X187027265Y-72007769D01*
X187037849Y-71880142D01*
X187047115Y-71766690D01*
X187050930Y-71720119D01*
X187060094Y-71611209D01*
X187070951Y-71484954D01*
X187082452Y-71353499D01*
X187093548Y-71228988D01*
X187102481Y-71128210D01*
X187109630Y-71039437D01*
X187113226Y-70976455D01*
X187113238Y-70933813D01*
X187109633Y-70906064D01*
X187102378Y-70887758D01*
X187091442Y-70873447D01*
X187065710Y-70853431D01*
X187005674Y-70824095D01*
X186926833Y-70796936D01*
X186839134Y-70775805D01*
X186827800Y-70773688D01*
X186800157Y-70770062D01*
X186778350Y-70772842D01*
X186761435Y-70785732D01*
X186748465Y-70812437D01*
X186738496Y-70856659D01*
X186730582Y-70922104D01*
X186723777Y-71012474D01*
X186717136Y-71131475D01*
X186709714Y-71282811D01*
X186707083Y-71335832D01*
X186697723Y-71508416D01*
X186686514Y-71697103D01*
X186674280Y-71888853D01*
X186661841Y-72070630D01*
X186650020Y-72229393D01*
X186642196Y-72330857D01*
X186632973Y-72456022D01*
X186625108Y-72569071D01*
X186619000Y-72664044D01*
X186615043Y-72734979D01*
X186613636Y-72775916D01*
X186612345Y-72810647D01*
X186599802Y-72862725D01*
X186569357Y-72904016D01*
X186546459Y-72924277D01*
X186520980Y-72937291D01*
X186484706Y-72944519D01*
X186429210Y-72947630D01*
X186346069Y-72948295D01*
X186328892Y-72948345D01*
X186235759Y-72951223D01*
X186176568Y-72958661D01*
X186149694Y-72970845D01*
X186146103Y-72988682D01*
X186140888Y-73039109D01*
X186134616Y-73117697D01*
X186127503Y-73220280D01*
X186119765Y-73342691D01*
X186111615Y-73480764D01*
X186103270Y-73630334D01*
X186094945Y-73787234D01*
X186086855Y-73947299D01*
X186079214Y-74106361D01*
X186072239Y-74260255D01*
X186066145Y-74404815D01*
X186061146Y-74535875D01*
X186057458Y-74649268D01*
X186055296Y-74740829D01*
X186054876Y-74806392D01*
X185966906Y-74806392D01*
X185966447Y-74777050D01*
X185966154Y-74656624D01*
X185967581Y-74514181D01*
X185970548Y-74360020D01*
X185974871Y-74204441D01*
X185980370Y-74057741D01*
X185982849Y-74000544D01*
X185992172Y-73783512D01*
X185999886Y-73599151D01*
X186006034Y-73444743D01*
X186010660Y-73317570D01*
X186013808Y-73214913D01*
X186015523Y-73134053D01*
X186015847Y-73072274D01*
X186014824Y-73026856D01*
X186012499Y-72995081D01*
X186008915Y-72974231D01*
X186004116Y-72961587D01*
X185998146Y-72954431D01*
X185974982Y-72947482D01*
X185916854Y-72940238D01*
X185826636Y-72933622D01*
X185706422Y-72927785D01*
X185558310Y-72922877D01*
X185393642Y-72918133D01*
X184966266Y-72903074D01*
X184573116Y-72884892D01*
X184212922Y-72863441D01*
X183884413Y-72838575D01*
X183586317Y-72810147D01*
X183317365Y-72778013D01*
X183076285Y-72742027D01*
X182861806Y-72702042D01*
X182672658Y-72657914D01*
X182507569Y-72609496D01*
X182365270Y-72556642D01*
X182362678Y-72555553D01*
X182274568Y-72516077D01*
X182215411Y-72482108D01*
X182179823Y-72448621D01*
X182162418Y-72410588D01*
X182157813Y-72362983D01*
X182157817Y-72362877D01*
X182255913Y-72362877D01*
X182266425Y-72387768D01*
X182300234Y-72415785D01*
X182356250Y-72447065D01*
X182479448Y-72498244D01*
X182637796Y-72547336D01*
X182831226Y-72594243D01*
X183059974Y-72639017D01*
X183324277Y-72681708D01*
X183624368Y-72722368D01*
X183685461Y-72729841D01*
X183862296Y-72749648D01*
X184037391Y-72766212D01*
X184217048Y-72779924D01*
X184407567Y-72791173D01*
X184615251Y-72800348D01*
X184846400Y-72807839D01*
X185107315Y-72814036D01*
X185221206Y-72816323D01*
X185479055Y-72821132D01*
X185703247Y-72824705D01*
X185895494Y-72827033D01*
X186057506Y-72828110D01*
X186190995Y-72827927D01*
X186297672Y-72826478D01*
X186379249Y-72823753D01*
X186437437Y-72819747D01*
X186473948Y-72814451D01*
X186490493Y-72807857D01*
X186493231Y-72799479D01*
X186499636Y-72758828D01*
X186507929Y-72688295D01*
X186517791Y-72591742D01*
X186528901Y-72473035D01*
X186540941Y-72336036D01*
X186553590Y-72184609D01*
X186566529Y-72022617D01*
X186579439Y-71853925D01*
X186591999Y-71682395D01*
X186603890Y-71511892D01*
X186614792Y-71346278D01*
X186624386Y-71189418D01*
X186630180Y-71083288D01*
X186637780Y-70920691D01*
X186644567Y-70748104D01*
X186650487Y-70569365D01*
X186655489Y-70388309D01*
X186659519Y-70208774D01*
X186662525Y-70034596D01*
X186664454Y-69869612D01*
X186665254Y-69717659D01*
X186664872Y-69582573D01*
X186663255Y-69468191D01*
X186660351Y-69378349D01*
X186656108Y-69316884D01*
X186650472Y-69287634D01*
X186625414Y-69256555D01*
X186580212Y-69219435D01*
X186530871Y-69190049D01*
X186491405Y-69178050D01*
X186484125Y-69179495D01*
X186481243Y-69196309D01*
X186498757Y-69236612D01*
X186501286Y-69241755D01*
X186507609Y-69258386D01*
X186512781Y-69280559D01*
X186516314Y-69307226D01*
X186516857Y-69311328D01*
X186519892Y-69353746D01*
X186521939Y-69410866D01*
X186523054Y-69485741D01*
X186523290Y-69581425D01*
X186522703Y-69700971D01*
X186521347Y-69847431D01*
X186519276Y-70023860D01*
X186516545Y-70233310D01*
X186516124Y-70264527D01*
X186512402Y-70521799D01*
X186508550Y-70749149D01*
X186504376Y-70952108D01*
X186499689Y-71136208D01*
X186494298Y-71306981D01*
X186488011Y-71469958D01*
X186480636Y-71630671D01*
X186471983Y-71794653D01*
X186461860Y-71967433D01*
X186450076Y-72154545D01*
X186445595Y-72221939D01*
X186436567Y-72339926D01*
X186427202Y-72427785D01*
X186416347Y-72489540D01*
X186402848Y-72529217D01*
X186385550Y-72550838D01*
X186363299Y-72558428D01*
X186334942Y-72556012D01*
X186316847Y-72553659D01*
X186294832Y-72562996D01*
X186285786Y-72599190D01*
X186279901Y-72650639D01*
X186101093Y-72655838D01*
X186066145Y-72656564D01*
X185986721Y-72655549D01*
X185930380Y-72650650D01*
X185903558Y-72642308D01*
X185900175Y-72634515D01*
X185920166Y-72625786D01*
X185974126Y-72622312D01*
X186002566Y-72621290D01*
X186060031Y-72615700D01*
X186098828Y-72607200D01*
X186119805Y-72597323D01*
X186119186Y-72585496D01*
X186089808Y-72564265D01*
X186081369Y-72559085D01*
X186036420Y-72534966D01*
X185972680Y-72503620D01*
X185901065Y-72470473D01*
X185890474Y-72465716D01*
X185805456Y-72427085D01*
X185719074Y-72387200D01*
X185648509Y-72353984D01*
X185604048Y-72334101D01*
X185553134Y-72316710D01*
X185496114Y-72304827D01*
X185422997Y-72296474D01*
X185323793Y-72289671D01*
X185248445Y-72285218D01*
X185145891Y-72278912D01*
X185052234Y-72272901D01*
X184981037Y-72268042D01*
X184969239Y-72267369D01*
X184914475Y-72265574D01*
X184828995Y-72263815D01*
X184716701Y-72262133D01*
X184581496Y-72260570D01*
X184427284Y-72259169D01*
X184257967Y-72257971D01*
X184077448Y-72257017D01*
X183889631Y-72256350D01*
X183671898Y-72256126D01*
X183389495Y-72257204D01*
X183141289Y-72260053D01*
X182926189Y-72264809D01*
X182743105Y-72271607D01*
X182590948Y-72280583D01*
X182468628Y-72291872D01*
X182375054Y-72305611D01*
X182309137Y-72321934D01*
X182269787Y-72340978D01*
X182255913Y-72362877D01*
X182157817Y-72362877D01*
X182158486Y-72344109D01*
X182166838Y-72294716D01*
X182181673Y-72265439D01*
X182217332Y-72247214D01*
X182283860Y-72226705D01*
X182372914Y-72206670D01*
X182477536Y-72188661D01*
X182590767Y-72174229D01*
X182657686Y-72168139D01*
X182798238Y-72159198D01*
X182967440Y-72152125D01*
X183160633Y-72146892D01*
X183373157Y-72143474D01*
X183600352Y-72141845D01*
X183837560Y-72141977D01*
X184080120Y-72143846D01*
X184323372Y-72147423D01*
X184562657Y-72152684D01*
X184793315Y-72159601D01*
X185010687Y-72168148D01*
X185210112Y-72178300D01*
X185386932Y-72190029D01*
X185445461Y-72193666D01*
X185519797Y-72195699D01*
X185576255Y-72194137D01*
X185605820Y-72189022D01*
X185606880Y-72188431D01*
X185608849Y-72186030D01*
X185752249Y-72186030D01*
X185752869Y-72229732D01*
X185758115Y-72256132D01*
X185768056Y-72271290D01*
X185774532Y-72275667D01*
X185811832Y-72293037D01*
X185873957Y-72317610D01*
X185954088Y-72346767D01*
X186045405Y-72377884D01*
X186084771Y-72390788D01*
X186171462Y-72418569D01*
X186243905Y-72440917D01*
X186295450Y-72455808D01*
X186319447Y-72461222D01*
X186320732Y-72461221D01*
X186331720Y-72460403D01*
X186340825Y-72455625D01*
X186348553Y-72443328D01*
X186355409Y-72419955D01*
X186361899Y-72381947D01*
X186368526Y-72325747D01*
X186375798Y-72247797D01*
X186384217Y-72144539D01*
X186394290Y-72012416D01*
X186406522Y-71847869D01*
X186407818Y-71829185D01*
X186412556Y-71744558D01*
X186417774Y-71629793D01*
X186423333Y-71489469D01*
X186429091Y-71328159D01*
X186434910Y-71150439D01*
X186440649Y-70960886D01*
X186446167Y-70764075D01*
X186451325Y-70564582D01*
X186455983Y-70366982D01*
X186460000Y-70175851D01*
X186463237Y-69995765D01*
X186474376Y-69307226D01*
X186427412Y-69263701D01*
X186421023Y-69258074D01*
X186354917Y-69217863D01*
X186267920Y-69185913D01*
X186170546Y-69164029D01*
X186073307Y-69154016D01*
X185986713Y-69157678D01*
X185921278Y-69176820D01*
X185888283Y-69203331D01*
X185858627Y-69248044D01*
X185858054Y-69249973D01*
X185854173Y-69282760D01*
X185850202Y-69348206D01*
X185846228Y-69443341D01*
X185842336Y-69565194D01*
X185838613Y-69710794D01*
X185835145Y-69877170D01*
X185832017Y-70061352D01*
X185829316Y-70260369D01*
X185828762Y-70306069D01*
X185825204Y-70572935D01*
X185821400Y-70808201D01*
X185817209Y-71015730D01*
X185812490Y-71199387D01*
X185807103Y-71363036D01*
X185800905Y-71510540D01*
X185793755Y-71645762D01*
X185785514Y-71772568D01*
X185776039Y-71894820D01*
X185765189Y-72016382D01*
X185764615Y-72022475D01*
X185756187Y-72118964D01*
X185752249Y-72186030D01*
X185608849Y-72186030D01*
X185630322Y-72159851D01*
X185646226Y-72114445D01*
X185652311Y-72078221D01*
X185665638Y-71972938D01*
X185678025Y-71836707D01*
X185689497Y-71668885D01*
X185700085Y-71468834D01*
X185709816Y-71235912D01*
X185718718Y-70969480D01*
X185726819Y-70668896D01*
X185734147Y-70333520D01*
X185740731Y-69962713D01*
X185742189Y-69872415D01*
X185745293Y-69694716D01*
X185748524Y-69548395D01*
X185752317Y-69430202D01*
X185757104Y-69336889D01*
X185763320Y-69265206D01*
X185771397Y-69211906D01*
X185781771Y-69173740D01*
X185794873Y-69147458D01*
X185811139Y-69129812D01*
X185831001Y-69117553D01*
X185854894Y-69107432D01*
X185964794Y-69073836D01*
X186093667Y-69052485D01*
X186226021Y-69046234D01*
X186355517Y-69054299D01*
X186475817Y-69075898D01*
X186580582Y-69110248D01*
X186663476Y-69156565D01*
X186718161Y-69214067D01*
X186732033Y-69248714D01*
X186746802Y-69323056D01*
X186757568Y-69426943D01*
X186764167Y-69556779D01*
X186766433Y-69708967D01*
X186766320Y-69717659D01*
X186764201Y-69879911D01*
X186757306Y-70066014D01*
X186753366Y-70149899D01*
X186748244Y-70279161D01*
X186746523Y-70378855D01*
X186748926Y-70453154D01*
X186756178Y-70506235D01*
X186769003Y-70542273D01*
X186788124Y-70565443D01*
X186814266Y-70579920D01*
X186848153Y-70589880D01*
X186874344Y-70596280D01*
X187021210Y-70637867D01*
X187141764Y-70682410D01*
X187231124Y-70728148D01*
X187244407Y-70736847D01*
X187296544Y-70780333D01*
X187330046Y-70831138D01*
X187346901Y-70896047D01*
X187347782Y-70930523D01*
X187349093Y-70981846D01*
X187338611Y-71095319D01*
X187331820Y-71155590D01*
X187321899Y-71260824D01*
X187312843Y-71374900D01*
X187305998Y-71481863D01*
X187294119Y-71702150D01*
X187448966Y-71691222D01*
X187496285Y-71688147D01*
X187560137Y-71686545D01*
X187607525Y-71691545D01*
X187650923Y-71704991D01*
X187702804Y-71728725D01*
X187763769Y-71763921D01*
X187857969Y-71841867D01*
X187928706Y-71932474D01*
X187931626Y-71937197D01*
X187947066Y-71951680D01*
X187961288Y-71942563D01*
X187975601Y-71906781D01*
X187991317Y-71841271D01*
X188009746Y-71742971D01*
X188010054Y-71741211D01*
X188029824Y-71638172D01*
X188055715Y-71517177D01*
X188085568Y-71387125D01*
X188117219Y-71256910D01*
X188148509Y-71135431D01*
X188177275Y-71031582D01*
X188201356Y-70954261D01*
X188206889Y-70937974D01*
X188228572Y-70863239D01*
X188234902Y-70805801D01*
X188225886Y-70752651D01*
X188201533Y-70690784D01*
X188183772Y-70634400D01*
X188170612Y-70533807D01*
X188168749Y-70441054D01*
X188267638Y-70441054D01*
X188274986Y-70523560D01*
X188284732Y-70571245D01*
X188306712Y-70640465D01*
X188338678Y-70699697D01*
X188383527Y-70750181D01*
X188444156Y-70793156D01*
X188523463Y-70829862D01*
X188624345Y-70861538D01*
X188749698Y-70889423D01*
X188902421Y-70914757D01*
X189085410Y-70938779D01*
X189301563Y-70962729D01*
X189305180Y-70963105D01*
X189508017Y-70983233D01*
X189701251Y-71000236D01*
X189892495Y-71014586D01*
X190089363Y-71026754D01*
X190299468Y-71037212D01*
X190530423Y-71046430D01*
X190789844Y-71054882D01*
X190831276Y-71056150D01*
X190977168Y-71061156D01*
X191116790Y-71066728D01*
X191244185Y-71072578D01*
X191353390Y-71078418D01*
X191438447Y-71083960D01*
X191493395Y-71088914D01*
X191565148Y-71096470D01*
X191659447Y-71102526D01*
X191759603Y-71103965D01*
X191873083Y-71100682D01*
X192007355Y-71092574D01*
X192169886Y-71079537D01*
X192289318Y-71067885D01*
X192402568Y-71052514D01*
X192491032Y-71033828D01*
X192560832Y-71010125D01*
X192618094Y-70979704D01*
X192668939Y-70940862D01*
X192697738Y-70913532D01*
X192725908Y-70880462D01*
X192751637Y-70840879D01*
X192775918Y-70791563D01*
X192799744Y-70729296D01*
X192824107Y-70650857D01*
X192850000Y-70553026D01*
X192878413Y-70432583D01*
X192910342Y-70286309D01*
X192946776Y-70110984D01*
X192988710Y-69903388D01*
X193001335Y-69840174D01*
X193041943Y-69633992D01*
X193075063Y-69460536D01*
X193101006Y-69317867D01*
X193120084Y-69204042D01*
X193132609Y-69117119D01*
X193138892Y-69055158D01*
X193139245Y-69016217D01*
X193133979Y-68998354D01*
X193130547Y-68995665D01*
X193097313Y-68980846D01*
X193039469Y-68961923D01*
X192964423Y-68940663D01*
X192879582Y-68918837D01*
X192792354Y-68898213D01*
X192710147Y-68880560D01*
X192640369Y-68867648D01*
X192590427Y-68861245D01*
X192567730Y-68863122D01*
X192557552Y-68882203D01*
X192545927Y-68919233D01*
X192542906Y-68928857D01*
X192529646Y-68989400D01*
X192525008Y-69013997D01*
X192477904Y-69183614D01*
X192409618Y-69326873D01*
X192321143Y-69442434D01*
X192213471Y-69528960D01*
X192087595Y-69585115D01*
X192041439Y-69597798D01*
X191968312Y-69609047D01*
X191897299Y-69604114D01*
X191811290Y-69582860D01*
X191729850Y-69549955D01*
X191627985Y-69476593D01*
X191545117Y-69373322D01*
X191481645Y-69240834D01*
X191437963Y-69079818D01*
X191419694Y-68932969D01*
X191504783Y-68932969D01*
X191511713Y-69066928D01*
X191536878Y-69178623D01*
X191582780Y-69276249D01*
X191651919Y-69367999D01*
X191653536Y-69369806D01*
X191709745Y-69425931D01*
X191768490Y-69474381D01*
X191817310Y-69504845D01*
X191918529Y-69533845D01*
X192021738Y-69530148D01*
X192121197Y-69494580D01*
X192213943Y-69429244D01*
X192297013Y-69336242D01*
X192367442Y-69217677D01*
X192422269Y-69075650D01*
X192446091Y-68987480D01*
X192456132Y-68919233D01*
X192449138Y-68873337D01*
X192424208Y-68844440D01*
X192380441Y-68827191D01*
X192327660Y-68818956D01*
X192240000Y-68800000D01*
X191910000Y-68740000D01*
X191740000Y-68740000D01*
X191700000Y-68770000D01*
X191639662Y-68731892D01*
X191580853Y-68730304D01*
X191511435Y-68736008D01*
X191505807Y-68889347D01*
X191504783Y-68932969D01*
X191419694Y-68932969D01*
X191414468Y-68890966D01*
X191411196Y-68842740D01*
X191404319Y-68779503D01*
X191391297Y-68734369D01*
X191367139Y-68704278D01*
X191326857Y-68686169D01*
X191265463Y-68676983D01*
X191177967Y-68673658D01*
X191059382Y-68673135D01*
X190805766Y-68672869D01*
X190787255Y-68835310D01*
X190786751Y-68839737D01*
X190764526Y-68975030D01*
X190714469Y-69137431D01*
X190642012Y-69272051D01*
X190547331Y-69378585D01*
X190430601Y-69456731D01*
X190420683Y-69461546D01*
X190300396Y-69499877D01*
X190175782Y-69506410D01*
X190054820Y-69481649D01*
X189945487Y-69426097D01*
X189879084Y-69361444D01*
X189820342Y-69267120D01*
X189774664Y-69152389D01*
X189745055Y-69024856D01*
X189734517Y-68892124D01*
X189734305Y-68862171D01*
X189732674Y-68830483D01*
X189806994Y-68830483D01*
X189810007Y-68907004D01*
X189816124Y-68993344D01*
X189827286Y-69059187D01*
X189847247Y-69119439D01*
X189879778Y-69189360D01*
X189895165Y-69219159D01*
X189934108Y-69283016D01*
X189974871Y-69327874D01*
X190026911Y-69365022D01*
X190090306Y-69396638D01*
X190198257Y-69421448D01*
X190305881Y-69412753D01*
X190408991Y-69371807D01*
X190503398Y-69299861D01*
X190584915Y-69198167D01*
X190594879Y-69181878D01*
X190637381Y-69095894D01*
X190667901Y-69005868D01*
X190686341Y-68917205D01*
X190692607Y-68835310D01*
X190686603Y-68765586D01*
X190668233Y-68713437D01*
X190637403Y-68684269D01*
X190594015Y-68683485D01*
X190557197Y-68698016D01*
X190520000Y-68722836D01*
X190490000Y-68690000D01*
X190070000Y-68680000D01*
X189980000Y-68699570D01*
X189960000Y-68719141D01*
X189920355Y-68712326D01*
X189889086Y-68713098D01*
X189841564Y-68727626D01*
X189826507Y-68737052D01*
X189813839Y-68753493D01*
X189807803Y-68781974D01*
X189806994Y-68830483D01*
X189732674Y-68830483D01*
X189730718Y-68792485D01*
X189721783Y-68749430D01*
X189706320Y-68726044D01*
X189694945Y-68721427D01*
X189649051Y-68716052D01*
X189575362Y-68714600D01*
X189479094Y-68716788D01*
X189365460Y-68722338D01*
X189239674Y-68730968D01*
X189106951Y-68742399D01*
X188972504Y-68756349D01*
X188841548Y-68772539D01*
X188833583Y-68773616D01*
X188717196Y-68789673D01*
X188631189Y-68802730D01*
X188570446Y-68814185D01*
X188529849Y-68825437D01*
X188504282Y-68837884D01*
X188488628Y-68852924D01*
X188477770Y-68871956D01*
X188476672Y-68874562D01*
X188466713Y-68910526D01*
X188452739Y-68974989D01*
X188435962Y-69061733D01*
X188417592Y-69164543D01*
X188398840Y-69277202D01*
X188358426Y-69537313D01*
X188323101Y-69785197D01*
X188296409Y-69999021D01*
X188278300Y-70179277D01*
X188268726Y-70326457D01*
X188267638Y-70441054D01*
X188168749Y-70441054D01*
X188167933Y-70400440D01*
X188175758Y-70234054D01*
X188194111Y-70034408D01*
X188223016Y-69801259D01*
X188262495Y-69534364D01*
X188312571Y-69233481D01*
X188373269Y-68898366D01*
X188398261Y-68767266D01*
X188419064Y-68662169D01*
X188528677Y-68662169D01*
X188528926Y-68690892D01*
X188533560Y-68707825D01*
X188542042Y-68716825D01*
X188547140Y-68717910D01*
X188582134Y-68717301D01*
X188643341Y-68712363D01*
X188723949Y-68703711D01*
X188817149Y-68691961D01*
X188868599Y-68685334D01*
X189044217Y-68666036D01*
X189245777Y-68647934D01*
X189465680Y-68631436D01*
X189696327Y-68616947D01*
X189930118Y-68604874D01*
X190159454Y-68595623D01*
X190376737Y-68589600D01*
X190574367Y-68587213D01*
X190744744Y-68588868D01*
X190903838Y-68593543D01*
X191330920Y-68614312D01*
X191728494Y-68646586D01*
X192100152Y-68690765D01*
X192449487Y-68747252D01*
X192780092Y-68816449D01*
X192866036Y-68836315D01*
X192960903Y-68857476D01*
X193040001Y-68874275D01*
X193096896Y-68885352D01*
X193125149Y-68889347D01*
X193133454Y-68889055D01*
X193149189Y-68884382D01*
X193161448Y-68869902D01*
X193171733Y-68840406D01*
X193181544Y-68790685D01*
X193192384Y-68715530D01*
X193205754Y-68609730D01*
X193214599Y-68540179D01*
X193230012Y-68425791D01*
X193245928Y-68314179D01*
X193260031Y-68221875D01*
X193270469Y-68155104D01*
X193296325Y-67972358D01*
X193320728Y-67775836D01*
X193343405Y-67569669D01*
X193364083Y-67357984D01*
X193382487Y-67144910D01*
X193398344Y-66934576D01*
X193411379Y-66731109D01*
X193421320Y-66538638D01*
X193427891Y-66361292D01*
X193430819Y-66203199D01*
X193429830Y-66068488D01*
X193424651Y-65961287D01*
X193415007Y-65885724D01*
X193409266Y-65859515D01*
X193389840Y-65798998D01*
X193359389Y-65749881D01*
X193308810Y-65695890D01*
X193293544Y-65681395D01*
X193248136Y-65643942D01*
X193198328Y-65614226D01*
X193133895Y-65586849D01*
X193044612Y-65556412D01*
X192956447Y-65528391D01*
X192858893Y-65498724D01*
X192771588Y-65474487D01*
X192685351Y-65453479D01*
X192591004Y-65433500D01*
X192479368Y-65412351D01*
X192341264Y-65387831D01*
X192265558Y-65375459D01*
X192027538Y-65345657D01*
X191776383Y-65326176D01*
X191523860Y-65317505D01*
X191281732Y-65320135D01*
X191061764Y-65334554D01*
X190976503Y-65344204D01*
X190846917Y-65361294D01*
X190695196Y-65383212D01*
X190528602Y-65408782D01*
X190354395Y-65436833D01*
X190179836Y-65466189D01*
X190012188Y-65495678D01*
X189858710Y-65524126D01*
X189726665Y-65550358D01*
X189700574Y-65555771D01*
X189603674Y-65575632D01*
X189515694Y-65593315D01*
X189445429Y-65607068D01*
X189401673Y-65615137D01*
X189327685Y-65640785D01*
X189257329Y-65698841D01*
X189198372Y-65789241D01*
X189149749Y-65913246D01*
X189115280Y-66030237D01*
X189072295Y-66187938D01*
X189024246Y-66374415D01*
X188971949Y-66586187D01*
X188916221Y-66819778D01*
X188857878Y-67071706D01*
X188797737Y-67338494D01*
X188736614Y-67616663D01*
X188675325Y-67902734D01*
X188614687Y-68193227D01*
X188611930Y-68206622D01*
X188582228Y-68352186D01*
X188559587Y-68466664D01*
X188543471Y-68553914D01*
X188533347Y-68617796D01*
X188528677Y-68662169D01*
X188419064Y-68662169D01*
X188442640Y-68543067D01*
X188491742Y-68303895D01*
X188544599Y-68053948D01*
X188600245Y-67797426D01*
X188657712Y-67538528D01*
X188716034Y-67281454D01*
X188774243Y-67030402D01*
X188831373Y-66789572D01*
X188886457Y-66563164D01*
X188938528Y-66355375D01*
X188986619Y-66170406D01*
X189029762Y-66012456D01*
X189066991Y-65885724D01*
X189092399Y-65802335D01*
X189121055Y-65701992D01*
X189143725Y-65611308D01*
X189163914Y-65515920D01*
X189185124Y-65401460D01*
X189205242Y-65307277D01*
X189247933Y-65180907D01*
X189305483Y-65081043D01*
X189380259Y-65002844D01*
X189416959Y-64970233D01*
X189450846Y-64933434D01*
X189463920Y-64909404D01*
X189465594Y-64898965D01*
X189481960Y-64884517D01*
X189488458Y-64878430D01*
X189496755Y-64845771D01*
X189500000Y-64794318D01*
X189498783Y-64761827D01*
X189492251Y-64720344D01*
X189481960Y-64704119D01*
X189473550Y-64700937D01*
X189463920Y-64676701D01*
X189463067Y-64666987D01*
X189442821Y-64616451D01*
X189400105Y-64555118D01*
X189340879Y-64490600D01*
X189271106Y-64430507D01*
X189190239Y-64358460D01*
X189112145Y-64252498D01*
X189092726Y-64215681D01*
X189074094Y-64171251D01*
X189063648Y-64125245D01*
X189059088Y-64066168D01*
X189058316Y-64000020D01*
X189157244Y-64000020D01*
X189161010Y-64062599D01*
X189181206Y-64142937D01*
X189222314Y-64219079D01*
X189288203Y-64297632D01*
X189382742Y-64385205D01*
X189430784Y-64427632D01*
X189501024Y-64498924D01*
X189548674Y-64565581D01*
X189579401Y-64636382D01*
X189598872Y-64720107D01*
X189602863Y-64739480D01*
X189618405Y-64783987D01*
X189636213Y-64806185D01*
X189636236Y-64806194D01*
X189664393Y-64804546D01*
X189714697Y-64791279D01*
X189776274Y-64769260D01*
X189843409Y-64744527D01*
X189933790Y-64716728D01*
X190041194Y-64689194D01*
X190170327Y-64660827D01*
X190325894Y-64630527D01*
X190512597Y-64597195D01*
X190525206Y-64595025D01*
X190897836Y-64538478D01*
X191267023Y-64496726D01*
X191627933Y-64469933D01*
X191975734Y-64458266D01*
X192305592Y-64461889D01*
X192612674Y-64480970D01*
X192892148Y-64515673D01*
X193063386Y-64546718D01*
X193379105Y-64622295D01*
X193682594Y-64718706D01*
X193969463Y-64834091D01*
X194235321Y-64966590D01*
X194475775Y-65114344D01*
X194686435Y-65275494D01*
X194712545Y-65297700D01*
X194771678Y-65346115D01*
X194821082Y-65384113D01*
X194852117Y-65404944D01*
X194914298Y-65420948D01*
X194993996Y-65416327D01*
X195078779Y-65393272D01*
X195157721Y-65354786D01*
X195219895Y-65303873D01*
X195233372Y-65287556D01*
X195280260Y-65198608D01*
X195301462Y-65093330D01*
X195297733Y-64978346D01*
X195269827Y-64860280D01*
X195218498Y-64745755D01*
X195144498Y-64641396D01*
X195140887Y-64637305D01*
X195092610Y-64587454D01*
X195033946Y-64535791D01*
X194961783Y-64480241D01*
X194873009Y-64418730D01*
X194764512Y-64349185D01*
X194633179Y-64269530D01*
X194475899Y-64177693D01*
X194289560Y-64071597D01*
X194271466Y-64061385D01*
X194159323Y-63997928D01*
X194048927Y-63935213D01*
X193947705Y-63877472D01*
X193863083Y-63828942D01*
X193802486Y-63793856D01*
X193685842Y-63728317D01*
X193527648Y-63646349D01*
X193368873Y-63570969D01*
X193219553Y-63506893D01*
X193089723Y-63458839D01*
X192993151Y-63429166D01*
X192709597Y-63363737D01*
X192406077Y-63323117D01*
X192087453Y-63307616D01*
X191758590Y-63317542D01*
X191424350Y-63353203D01*
X191424014Y-63353251D01*
X191375983Y-63357911D01*
X191296898Y-63362911D01*
X191191723Y-63368051D01*
X191065424Y-63373133D01*
X190922968Y-63377954D01*
X190769320Y-63382317D01*
X190609446Y-63386020D01*
X190496841Y-63388387D01*
X190325458Y-63392463D01*
X190182779Y-63396899D01*
X190064111Y-63402217D01*
X189964764Y-63408937D01*
X189880045Y-63417580D01*
X189805261Y-63428666D01*
X189735721Y-63442717D01*
X189666734Y-63460253D01*
X189593606Y-63481795D01*
X189511646Y-63507863D01*
X189500316Y-63511619D01*
X189373346Y-63568640D01*
X189276853Y-63644187D01*
X189209538Y-63740063D01*
X189170101Y-63858073D01*
X189157244Y-64000020D01*
X189058316Y-64000020D01*
X189058112Y-63982528D01*
X189058402Y-63935072D01*
X189061301Y-63864048D01*
X189069102Y-63811612D01*
X189083966Y-63766232D01*
X189108059Y-63716375D01*
X189118694Y-63697050D01*
X189192824Y-63596222D01*
X189290934Y-63511511D01*
X189415082Y-63441953D01*
X189567324Y-63386582D01*
X189749720Y-63344433D01*
X189964325Y-63314539D01*
X189990486Y-63312109D01*
X190088981Y-63305943D01*
X190211756Y-63301410D01*
X190350007Y-63298590D01*
X190494932Y-63297564D01*
X190637728Y-63298414D01*
X190769592Y-63301222D01*
X190881720Y-63306067D01*
X190925397Y-63306994D01*
X191029910Y-63301861D01*
X191163858Y-63288206D01*
X191323695Y-63266349D01*
X191379838Y-63258397D01*
X191561585Y-63238384D01*
X191755506Y-63224454D01*
X191953664Y-63216709D01*
X192148120Y-63215251D01*
X192330937Y-63220181D01*
X192494176Y-63231602D01*
X192629901Y-63249615D01*
X192682862Y-63259421D01*
X192802076Y-63284379D01*
X192918329Y-63313479D01*
X193034665Y-63348098D01*
X193154123Y-63389612D01*
X193279746Y-63439396D01*
X193414576Y-63498827D01*
X193561653Y-63569280D01*
X193724020Y-63652131D01*
X193904718Y-63748757D01*
X194106789Y-63860532D01*
X194333275Y-63988834D01*
X194587216Y-64135038D01*
X194662074Y-64178540D01*
X194777124Y-64246461D01*
X194868818Y-64302740D01*
X194942473Y-64351121D01*
X195003408Y-64395347D01*
X195056938Y-64439163D01*
X195108380Y-64486312D01*
X195163052Y-64540540D01*
X195234446Y-64619039D01*
X195327296Y-64751035D01*
X195385261Y-64883186D01*
X195409029Y-65017282D01*
X195403654Y-65093330D01*
X195399287Y-65155114D01*
G37*
%TD*%
M02*
