M48
; DRILL file {KiCad 9.0.0} date 2025-03-28T01:16:59+0100
; FORMAT={-:-/ absolute / inch / decimal}
; #@! TF.CreationDate,2025-03-28T01:16:59+01:00
; #@! TF.GenerationSoftware,Kicad,Pcbnew,9.0.0
; #@! TF.FileFunction,MixedPlating,1,4
FMAT,2
INCH
; #@! TA.AperFunction,Plated,PTH,ViaDrill
T1C0.0118
; #@! TA.AperFunction,Plated,PTH,ComponentDrill
T2C0.0236
; #@! TA.AperFunction,Plated,PTH,ComponentDrill
T3C0.0256
; #@! TA.AperFunction,Plated,PTH,ComponentDrill
T4C0.0276
; #@! TA.AperFunction,Plated,PTH,ComponentDrill
T5C0.0299
; #@! TA.AperFunction,Plated,PTH,ComponentDrill
T6C0.0300
; #@! TA.AperFunction,Plated,PTH,ComponentDrill
T7C0.0394
; #@! TA.AperFunction,Plated,PTH,ComponentDrill
T8C0.0551
; #@! TA.AperFunction,Plated,PTH,ComponentDrill
T9C0.1260
; #@! TA.AperFunction,NonPlated,NPTH,ComponentDrill
T10C0.0256
%
G90
G05
T1
X6.7913Y-1.9685
X6.7913Y-3.3465
X6.7913Y-3.5433
X6.7913Y-3.6417
X6.8898Y-1.9685
X6.8898Y-3.5433
X6.8898Y-3.6417
X6.9882Y-1.7717
X6.9882Y-1.8701
X6.9882Y-1.9685
X6.9882Y-3.5433
X6.9882Y-3.6417
X6.9882Y-3.7402
X6.9882Y-3.8386
X7.0866Y-3.6417
X7.0866Y-3.7402
X7.0866Y-3.8386
X7.185Y-3.7402
X7.185Y-3.8386
X7.2441Y-1.8996
X7.2638Y-2.8051
X7.2835Y-1.7717
X7.2835Y-1.8701
X7.2835Y-3.7402
X7.2835Y-3.8386
X7.3819Y-2.1654
X7.3819Y-3.7402
X7.3819Y-3.8386
X7.4016Y-2.3819
X7.4016Y-2.4902
X7.4016Y-2.5984
X7.4016Y-2.7362
X7.4157Y-2.3537
X7.4311Y-3.0669
X7.4311Y-3.1201
X7.4375Y-2.0536
X7.4508Y-2.8248
X7.4516Y-2.8846
X7.4705Y-3.2972
X7.4803Y-1.7717
X7.4803Y-1.8701
X7.4803Y-3.7402
X7.4803Y-3.8386
X7.5507Y-3.0315
X7.5507Y-3.061
X7.5507Y-3.1496
X7.5507Y-3.1811
X7.5507Y-3.2913
X7.5507Y-3.3214
X7.5787Y-1.7717
X7.5787Y-1.8701
X7.5787Y-3.7402
X7.5787Y-3.8386
X7.6181Y-2.9043
X7.6181Y-2.9528
X7.6181Y-3.002
X7.6772Y-1.7717
X7.6772Y-1.8701
X7.6772Y-3.1496
X7.6772Y-3.248
X7.6772Y-3.8386
X7.6776Y-3.7391
X7.7327Y-2.0507
X7.7549Y-2.7175
X7.7559Y-2.9035
X7.7559Y-2.9528
X7.7559Y-3.002
X7.7753Y-2.7468
X7.7756Y-3.8386
X7.7782Y-2.7782
X7.7818Y-3.7391
X7.7953Y-2.8937
X7.8248Y-2.8445
X7.8346Y-2.1654
X7.8346Y-2.3031
X7.8346Y-2.5492
X7.8644Y-2.7559
X7.874Y-2.642
X7.874Y-1.7717
X7.874Y-1.8701
X7.874Y-3.7402
X7.874Y-3.8386
X7.877Y-2.7017
X7.8839Y-2.2441
X7.8839Y-2.8445
X7.8858Y-2.6712
X7.8858Y-2.9291
X7.8898Y-2.5512
X7.8959Y-2.7551
X7.9134Y-2.7283
X7.9232Y-2.3031
X7.9279Y-2.7565
X7.9445Y-2.6886
X7.9576Y-2.558
X7.9594Y-2.7565
X7.9724Y-1.7717
X7.9724Y-1.8701
X7.9724Y-3.7402
X7.9724Y-3.8386
X7.9779Y-2.6879
X7.9921Y-2.5591
X7.9961Y-3.0276
X8.0039Y-2.937
X8.0118Y-2.3031
X8.0203Y-2.5731
X8.0463Y-2.5049
X8.0659Y-2.5246
X8.0709Y-1.7717
X8.0709Y-1.8701
X8.0709Y-3.6417
X8.0709Y-3.7402
X8.0709Y-3.8386
X8.0765Y-2.8055
X8.1043Y-2.7904
X8.1201Y-2.8642
X8.1201Y-2.8937
X8.1201Y-2.9232
X8.1299Y-2.8091
X8.1325Y-2.271
X8.1561Y-2.3209
X8.1594Y-2.3622
X8.1594Y-3.0217
X8.1594Y-3.0512
X8.1594Y-3.0807
X8.1693Y-1.9685
X8.1693Y-2.4606
X8.1693Y-3.1496
X8.1693Y-3.248
X8.1693Y-3.6417
X8.189Y-2.7549
X8.1961Y-2.7205
X8.2185Y-2.6969
X8.2677Y-1.9685
X8.2677Y-2.0669
X8.2677Y-2.1654
X8.2677Y-3.4449
X8.2677Y-3.5433
X8.2677Y-3.6417
X8.3268Y-3.0217
X8.3661Y-2.1654
X8.4331Y-3.0807
T3
X6.9177Y-2.874
X6.9185Y-2.5984
X6.9185Y-2.7362
X6.9185Y-3.0118
X6.9209Y-2.0472
X6.9209Y-2.185
X6.9209Y-2.3228
X6.9209Y-2.4606
X6.9677Y-2.874
X6.9685Y-2.5984
X6.9685Y-2.7362
X6.9685Y-3.0118
X6.9709Y-2.0472
X6.9709Y-2.185
X6.9709Y-2.3228
X6.9709Y-2.4606
X7.0177Y-2.874
X7.0185Y-2.5984
X7.0185Y-2.7362
X7.0185Y-3.0118
X7.0209Y-2.0472
X7.0209Y-2.185
X7.0209Y-2.3228
X7.0209Y-2.4606
X7.0677Y-2.874
X7.0685Y-2.5984
X7.0685Y-2.7362
X7.0685Y-3.0118
X7.0709Y-2.0472
X7.0709Y-2.185
X7.0709Y-2.3228
X7.0709Y-2.4606
X7.1177Y-2.874
X7.1185Y-2.5984
X7.1185Y-2.7362
X7.1185Y-3.0118
X7.1209Y-2.0472
X7.1209Y-2.185
X7.1209Y-2.3228
X7.1209Y-2.4606
X7.1677Y-2.874
X7.1685Y-2.5984
X7.1685Y-2.7362
X7.1685Y-3.0118
X7.1709Y-2.0472
X7.1709Y-2.185
X7.1709Y-2.3228
X7.1709Y-2.4606
X7.9618Y-1.9866
X7.9618Y-2.0366
X7.9618Y-2.0866
X7.9618Y-2.1366
X8.0118Y-1.9866
X8.0118Y-2.0366
X8.0118Y-2.0866
X8.0118Y-2.1366
T4
X7.076Y-1.7709
X7.176Y-1.7709
X7.2146Y-3.1783
X7.2146Y-3.2783
X7.315Y-1.9579
X7.315Y-2.0579
X7.3228Y-3.1783
X7.3228Y-3.2783
T5
X7.2874Y-3.5039
X7.3874Y-3.5039
X7.4874Y-3.5039
X7.6874Y-3.5039
X7.7874Y-3.5039
X7.8874Y-3.5039
X7.9874Y-3.5039
T6
X7.7709Y-3.1587
X7.7709Y-3.2087
X7.8209Y-3.1587
X7.8209Y-3.2087
X7.8709Y-3.1587
X7.8709Y-3.2087
X7.9209Y-3.1587
X7.9209Y-3.2087
X7.9709Y-3.1587
X7.9709Y-3.2087
X8.0209Y-3.1587
X8.0209Y-3.2087
X8.0709Y-3.1587
X8.0709Y-3.2087
T7
X8.276Y-2.4724
X8.276Y-2.5724
X8.276Y-2.6724
X8.276Y-2.7724
X8.276Y-2.8724
X8.276Y-2.9724
X8.376Y-2.4724
X8.376Y-2.5724
X8.376Y-2.6724
X8.376Y-2.7724
X8.376Y-2.8724
X8.376Y-2.9724
T8
X6.9882Y-3.2366
X6.9882Y-3.4366
T9
X6.8307Y-1.8307
X6.8307Y-3.7992
X8.2382Y-1.8307
X8.2382Y-3.7992
T10
X7.4748Y-1.9594
X7.7024Y-1.9594
T2
G00X7.4185Y-1.8302
M15
G01X7.4185Y-1.7987
M16
G05
G00X7.4185Y-2.0007
M15
G01X7.4185Y-1.9574
M16
G05
G00X7.7587Y-1.8302
M15
G01X7.7587Y-1.7987
M16
G05
G00X7.7587Y-2.0007
M15
G01X7.7587Y-1.9574
M16
G05
M30
