%TF.GenerationSoftware,KiCad,Pcbnew,9.0.0*%
%TF.CreationDate,2025-03-28T01:16:57+01:00*%
%TF.ProjectId,pcb_odometrie,7063625f-6f64-46f6-9d65-747269652e6b,rev?*%
%TF.SameCoordinates,Original*%
%TF.FileFunction,Copper,L4,Bot*%
%TF.FilePolarity,Positive*%
%FSLAX46Y46*%
G04 Gerber Fmt 4.6, Leading zero omitted, Abs format (unit mm)*
G04 Created by KiCad (PCBNEW 9.0.0) date 2025-03-28 01:16:57*
%MOMM*%
%LPD*%
G01*
G04 APERTURE LIST*
G04 Aperture macros list*
%AMRoundRect*
0 Rectangle with rounded corners*
0 $1 Rounding radius*
0 $2 $3 $4 $5 $6 $7 $8 $9 X,Y pos of 4 corners*
0 Add a 4 corners polygon primitive as box body*
4,1,4,$2,$3,$4,$5,$6,$7,$8,$9,$2,$3,0*
0 Add four circle primitives for the rounded corners*
1,1,$1+$1,$2,$3*
1,1,$1+$1,$4,$5*
1,1,$1+$1,$6,$7*
1,1,$1+$1,$8,$9*
0 Add four rect primitives between the rounded corners*
20,1,$1+$1,$2,$3,$4,$5,0*
20,1,$1+$1,$4,$5,$6,$7,0*
20,1,$1+$1,$6,$7,$8,$9,0*
20,1,$1+$1,$8,$9,$2,$3,0*%
G04 Aperture macros list end*
%TA.AperFunction,ComponentPad*%
%ADD10R,1.000000X1.000000*%
%TD*%
%TA.AperFunction,ComponentPad*%
%ADD11O,1.000000X1.000000*%
%TD*%
%TA.AperFunction,ComponentPad*%
%ADD12C,3.600000*%
%TD*%
%TA.AperFunction,ConnectorPad*%
%ADD13C,5.500000*%
%TD*%
%TA.AperFunction,ComponentPad*%
%ADD14R,1.700000X1.700000*%
%TD*%
%TA.AperFunction,ComponentPad*%
%ADD15O,1.700000X1.700000*%
%TD*%
%TA.AperFunction,ComponentPad*%
%ADD16C,1.400000*%
%TD*%
%TA.AperFunction,ComponentPad*%
%ADD17O,1.000000X2.100000*%
%TD*%
%TA.AperFunction,ComponentPad*%
%ADD18O,1.000000X1.800000*%
%TD*%
%TA.AperFunction,ComponentPad*%
%ADD19C,1.168400*%
%TD*%
%TA.AperFunction,ComponentPad*%
%ADD20C,1.303000*%
%TD*%
%TA.AperFunction,ComponentPad*%
%ADD21RoundRect,0.249999X1.550001X-0.790001X1.550001X0.790001X-1.550001X0.790001X-1.550001X-0.790001X0*%
%TD*%
%TA.AperFunction,ComponentPad*%
%ADD22O,3.600000X2.080000*%
%TD*%
%TA.AperFunction,ViaPad*%
%ADD23C,0.600000*%
%TD*%
%TA.AperFunction,Conductor*%
%ADD24C,0.500000*%
%TD*%
%TA.AperFunction,Conductor*%
%ADD25C,0.200000*%
%TD*%
G04 APERTURE END LIST*
D10*
%TO.P,J12,1,Pin_1*%
%TO.N,VCC*%
X175710000Y-73000000D03*
D11*
%TO.P,J12,2,Pin_2*%
%TO.N,GND*%
X176980000Y-73000000D03*
%TO.P,J12,3,Pin_3*%
%TO.N,/I2C1_SDA*%
X178250000Y-73000000D03*
%TO.P,J12,4,Pin_4*%
%TO.N,/I2C1_SCL*%
X179520000Y-73000000D03*
%TO.P,J12,5,Pin_5*%
%TO.N,Net-(J12-Pin_5)*%
X180790000Y-73000000D03*
%TO.P,J12,6,Pin_6*%
%TO.N,Net-(J12-Pin_6)*%
X182060000Y-73000000D03*
%TD*%
D10*
%TO.P,J11,1,Pin_1*%
%TO.N,VCC*%
X175730000Y-69500000D03*
D11*
%TO.P,J11,2,Pin_2*%
%TO.N,GND*%
X177000000Y-69500000D03*
%TO.P,J11,3,Pin_3*%
%TO.N,/I2C1_SDA*%
X178270000Y-69500000D03*
%TO.P,J11,4,Pin_4*%
%TO.N,/I2C1_SCL*%
X179540000Y-69500000D03*
%TO.P,J11,5,Pin_5*%
%TO.N,Net-(J11-Pin_5)*%
X180810000Y-69500000D03*
%TO.P,J11,6,Pin_6*%
%TO.N,Net-(J11-Pin_6)*%
X182080000Y-69500000D03*
%TD*%
D12*
%TO.P,H4,1,1*%
%TO.N,GND*%
X173500000Y-96500000D03*
D13*
X173500000Y-96500000D03*
%TD*%
D12*
%TO.P,H1,1,1*%
%TO.N,GND*%
X173500000Y-46500000D03*
D13*
X173500000Y-46500000D03*
%TD*%
D14*
%TO.P,J4,a1,Pin_a1*%
%TO.N,+12V*%
X210210000Y-62800000D03*
D15*
%TO.P,J4,a2,Pin_a2*%
%TO.N,GND*%
X210210000Y-65340000D03*
%TO.P,J4,a3,Pin_a3*%
%TO.N,/IN1A*%
X210210000Y-67880000D03*
%TO.P,J4,a4,Pin_a4*%
%TO.N,/IN2A*%
X210210000Y-70420000D03*
%TO.P,J4,a5,Pin_a5*%
%TO.N,/ENA*%
X210210000Y-72960000D03*
%TO.P,J4,a6,Pin_a6*%
%TO.N,/CTA*%
X210210000Y-75500000D03*
%TO.P,J4,b1,Pin_b1*%
%TO.N,+12V*%
X212750000Y-62800000D03*
%TO.P,J4,b2,Pin_b2*%
%TO.N,GND*%
X212750000Y-65340000D03*
%TO.P,J4,b3,Pin_b3*%
%TO.N,/IN1B*%
X212750000Y-67880000D03*
%TO.P,J4,b4,Pin_b4*%
%TO.N,/IN2B*%
X212750000Y-70420000D03*
%TO.P,J4,b5,Pin_b5*%
%TO.N,/ENB*%
X212750000Y-72960000D03*
%TO.P,J4,b6,Pin_b6*%
%TO.N,/CTB*%
X212750000Y-75500000D03*
%TD*%
D16*
%TO.P,TP3,1,1*%
%TO.N,/I2C1_SCL*%
X185800000Y-52270000D03*
X185800000Y-49730000D03*
%TD*%
D17*
%TO.P,J1,SH,SHIELD*%
%TO.N,GND*%
X197070000Y-50267500D03*
D18*
X197070000Y-46087500D03*
D17*
X188430000Y-50267500D03*
D18*
X188430000Y-46087500D03*
%TD*%
D10*
%TO.P,J5,a1,Pin_a1*%
%TO.N,+12V*%
X202230000Y-50460000D03*
D11*
%TO.P,J5,a2,Pin_a2*%
%TO.N,GND*%
X202230000Y-51730000D03*
%TO.P,J5,a3,Pin_a3*%
%TO.N,Net-(J5-Pin_a3)*%
X202230000Y-53000000D03*
%TO.P,J5,a4,Pin_a4*%
%TO.N,Net-(J5-Pin_a4)*%
X202230000Y-54270000D03*
%TO.P,J5,b1,Pin_b1*%
%TO.N,+12V*%
X203500000Y-50460000D03*
%TO.P,J5,b2,Pin_b2*%
%TO.N,GND*%
X203500000Y-51730000D03*
%TO.P,J5,b3,Pin_b3*%
%TO.N,Net-(J5-Pin_b3)*%
X203500000Y-53000000D03*
%TO.P,J5,b4,Pin_b4*%
%TO.N,Net-(J5-Pin_b4)*%
X203500000Y-54270000D03*
%TD*%
D10*
%TO.P,J10,1,Pin_1*%
%TO.N,VCC*%
X175730000Y-66000000D03*
D11*
%TO.P,J10,2,Pin_2*%
%TO.N,GND*%
X177000000Y-66000000D03*
%TO.P,J10,3,Pin_3*%
%TO.N,/I2C1_SDA*%
X178270000Y-66000000D03*
%TO.P,J10,4,Pin_4*%
%TO.N,/I2C1_SCL*%
X179540000Y-66000000D03*
%TO.P,J10,5,Pin_5*%
%TO.N,Net-(J10-Pin_5)*%
X180810000Y-66000000D03*
%TO.P,J10,6,Pin_6*%
%TO.N,Net-(J10-Pin_6)*%
X182080000Y-66000000D03*
%TD*%
D10*
%TO.P,J8,1,Pin_1*%
%TO.N,VCC*%
X175790000Y-59000000D03*
D11*
%TO.P,J8,2,Pin_2*%
%TO.N,GND*%
X177060000Y-59000000D03*
%TO.P,J8,3,Pin_3*%
%TO.N,/I2C1_SDA*%
X178330000Y-59000000D03*
%TO.P,J8,4,Pin_4*%
%TO.N,/I2C1_SCL*%
X179600000Y-59000000D03*
%TO.P,J8,5,Pin_5*%
%TO.N,Net-(J8-Pin_5)*%
X180870000Y-59000000D03*
%TO.P,J8,6,Pin_6*%
%TO.N,Net-(J8-Pin_6)*%
X182140000Y-59000000D03*
%TD*%
D16*
%TO.P,TP4,1,1*%
%TO.N,/I2C1_SDA*%
X179730000Y-44980000D03*
X182270000Y-44980000D03*
%TD*%
%TO.P,TP2,1,1*%
%TO.N,GND*%
X183250000Y-83270000D03*
X183250000Y-80730000D03*
%TD*%
D19*
%TO.P,J2,1,NC*%
%TO.N,unconnected-(J2-NC-Pad1)*%
X197380000Y-81500000D03*
%TO.P,J2,2,NC*%
%TO.N,unconnected-(J2-NC-Pad2)*%
X197380000Y-80230000D03*
%TO.P,J2,3,VCC*%
%TO.N,+3V3*%
X198650000Y-81500000D03*
%TO.P,J2,4,JTMS/SWDIO*%
%TO.N,Net-(J2-JTMS{slash}SWDIO)*%
X198650000Y-80230000D03*
%TO.P,J2,5,GND*%
%TO.N,GND*%
X199920000Y-81500000D03*
%TO.P,J2,6,JCLK/SWCLK*%
%TO.N,Net-(J2-JCLK{slash}SWCLK)*%
X199920000Y-80230000D03*
%TO.P,J2,7,GND*%
%TO.N,GND*%
X201190000Y-81500000D03*
%TO.P,J2,8,JTDO/SWO*%
%TO.N,Net-(J2-JTDO{slash}SWO)*%
X201190000Y-80230000D03*
%TO.P,J2,9,JRCLK/NC*%
%TO.N,unconnected-(J2-JRCLK{slash}NC-Pad9)*%
X202460000Y-81500000D03*
%TO.P,J2,10,JTDI/NC*%
%TO.N,unconnected-(J2-JTDI{slash}NC-Pad10)*%
X202460000Y-80230000D03*
%TO.P,J2,11,GNDDetect*%
%TO.N,Net-(J2-GNDDetect)*%
X203730000Y-81500000D03*
%TO.P,J2,12,~{RST}*%
%TO.N,Net-(J2-~{RST})*%
X203730000Y-80230000D03*
%TO.P,J2,13,VCP_RX*%
%TO.N,Net-(J2-VCP_RX)*%
X205000000Y-81500000D03*
%TO.P,J2,14,VCP_TX*%
%TO.N,Net-(J2-VCP_TX)*%
X205000000Y-80230000D03*
%TD*%
D10*
%TO.P,J13,1,Pin_1*%
%TO.N,VCC*%
X175730000Y-76500000D03*
D11*
%TO.P,J13,2,Pin_2*%
%TO.N,GND*%
X177000000Y-76500000D03*
%TO.P,J13,3,Pin_3*%
%TO.N,/I2C1_SDA*%
X178270000Y-76500000D03*
%TO.P,J13,4,Pin_4*%
%TO.N,/I2C1_SCL*%
X179540000Y-76500000D03*
%TO.P,J13,5,Pin_5*%
%TO.N,Net-(J13-Pin_5)*%
X180810000Y-76500000D03*
%TO.P,J13,6,Pin_6*%
%TO.N,Net-(J13-Pin_6)*%
X182080000Y-76500000D03*
%TD*%
D10*
%TO.P,J9,1,Pin_1*%
%TO.N,VCC*%
X175790000Y-62500000D03*
D11*
%TO.P,J9,2,Pin_2*%
%TO.N,GND*%
X177060000Y-62500000D03*
%TO.P,J9,3,Pin_3*%
%TO.N,/I2C1_SDA*%
X178330000Y-62500000D03*
%TO.P,J9,4,Pin_4*%
%TO.N,/I2C1_SCL*%
X179600000Y-62500000D03*
%TO.P,J9,5,Pin_5*%
%TO.N,Net-(J9-Pin_5)*%
X180870000Y-62500000D03*
%TO.P,J9,6,Pin_6*%
%TO.N,Net-(J9-Pin_6)*%
X182140000Y-62500000D03*
%TD*%
D16*
%TO.P,TP1,1,1*%
%TO.N,+3V3*%
X186000000Y-80730000D03*
X186000000Y-83270000D03*
%TD*%
D10*
%TO.P,J6,1,Pin_1*%
%TO.N,VCC*%
X175790000Y-52000000D03*
D11*
%TO.P,J6,2,Pin_2*%
%TO.N,GND*%
X177060000Y-52000000D03*
%TO.P,J6,3,Pin_3*%
%TO.N,/I2C1_SDA*%
X178330000Y-52000000D03*
%TO.P,J6,4,Pin_4*%
%TO.N,/I2C1_SCL*%
X179600000Y-52000000D03*
%TO.P,J6,5,Pin_5*%
%TO.N,Net-(J6-Pin_5)*%
X180870000Y-52000000D03*
%TO.P,J6,6,Pin_6*%
%TO.N,Net-(J6-Pin_6)*%
X182140000Y-52000000D03*
%TD*%
D20*
%TO.P,PS1,1,-VIN_(GND)*%
%TO.N,GND*%
X185100000Y-89000000D03*
%TO.P,PS1,2,+VIN_(VCC)*%
%TO.N,VCC*%
X187640000Y-89000000D03*
%TO.P,PS1,3,REMOTE*%
%TO.N,unconnected-(PS1-REMOTE-Pad3)*%
X190180000Y-89000000D03*
%TO.P,PS1,5,NC_1*%
%TO.N,unconnected-(PS1-NC_1-Pad5)*%
X195260000Y-89000000D03*
%TO.P,PS1,6,+VOUT*%
%TO.N,+3V3*%
X197800000Y-89000000D03*
%TO.P,PS1,7,-VOUT*%
%TO.N,GND*%
X200340000Y-89000000D03*
%TO.P,PS1,8,NC_2*%
%TO.N,unconnected-(PS1-NC_2-Pad8)*%
X202880000Y-89000000D03*
%TD*%
D10*
%TO.P,J7,1,Pin_1*%
%TO.N,VCC*%
X175790000Y-55500000D03*
D11*
%TO.P,J7,2,Pin_2*%
%TO.N,GND*%
X177060000Y-55500000D03*
%TO.P,J7,3,Pin_3*%
%TO.N,/I2C1_SDA*%
X178330000Y-55500000D03*
%TO.P,J7,4,Pin_4*%
%TO.N,/I2C1_SCL*%
X179600000Y-55500000D03*
%TO.P,J7,5,Pin_5*%
%TO.N,Net-(J7-Pin_5)*%
X180870000Y-55500000D03*
%TO.P,J7,6,Pin_6*%
%TO.N,Net-(J7-Pin_6)*%
X182140000Y-55500000D03*
%TD*%
D12*
%TO.P,H3,1,1*%
%TO.N,GND*%
X209250000Y-96500000D03*
D13*
X209250000Y-96500000D03*
%TD*%
D12*
%TO.P,H2,1,1*%
%TO.N,GND*%
X209250000Y-46500000D03*
D13*
X209250000Y-46500000D03*
%TD*%
D21*
%TO.P,J3,1,1*%
%TO.N,VCC*%
X177500000Y-87290000D03*
D22*
%TO.P,J3,2,2*%
%TO.N,GND*%
X177500000Y-82210000D03*
%TD*%
D23*
%TO.N,+3V3*%
X207250000Y-76750000D03*
X191787500Y-80000000D03*
X207250000Y-77500000D03*
X191787500Y-77000000D03*
X191787500Y-84362500D03*
X184000000Y-48250000D03*
X191787500Y-77750000D03*
X206250000Y-73500000D03*
X207250000Y-78250000D03*
X203100000Y-76900000D03*
X191787500Y-80800000D03*
X206250000Y-74250000D03*
X191787500Y-83600000D03*
X204375000Y-63625000D03*
X204875000Y-64125000D03*
X206250000Y-72750000D03*
%TO.N,GND*%
X185000000Y-47500000D03*
X200000000Y-97500000D03*
X175000000Y-50000000D03*
X202500000Y-95000000D03*
X210000000Y-50000000D03*
X192500000Y-47500000D03*
X199000000Y-58500000D03*
X190000000Y-47500000D03*
X189750000Y-83750000D03*
X175000000Y-90000000D03*
X202500000Y-97500000D03*
X193500000Y-75000000D03*
X203500000Y-58500000D03*
X177500000Y-50000000D03*
X190000000Y-95000000D03*
X177500000Y-95000000D03*
X195000000Y-45000000D03*
X207500000Y-92500000D03*
X207500000Y-82500000D03*
X196411250Y-52088750D03*
X195000000Y-47500000D03*
X188911250Y-52161250D03*
X200400000Y-64800000D03*
X211500000Y-76750000D03*
X205000000Y-92500000D03*
X203300000Y-74600000D03*
X185000000Y-97500000D03*
X195000000Y-80000000D03*
X175000000Y-92500000D03*
X180000000Y-97500000D03*
X177500000Y-97500000D03*
X172500000Y-90000000D03*
X205000000Y-47500000D03*
X210000000Y-52500000D03*
X199000000Y-64750000D03*
X192500000Y-97500000D03*
X177500000Y-45000000D03*
X180000000Y-95000000D03*
X185000000Y-95000000D03*
X207500000Y-50000000D03*
X192500000Y-45000000D03*
X197656869Y-94974012D03*
X207500000Y-62500000D03*
X182500000Y-97500000D03*
X177500000Y-92500000D03*
X187500000Y-97500000D03*
X182500000Y-95000000D03*
X177500000Y-47500000D03*
X214200000Y-78250000D03*
X197000000Y-73750000D03*
X197000000Y-76250000D03*
X210000000Y-90000000D03*
X180000000Y-92500000D03*
X197000000Y-75000000D03*
X202500000Y-45000000D03*
X207500000Y-80000000D03*
X202500000Y-47500000D03*
X187500000Y-55000000D03*
X205000000Y-95000000D03*
X197500000Y-97500000D03*
X212500000Y-55000000D03*
X205000000Y-97500000D03*
X200000000Y-45000000D03*
X200000000Y-47500000D03*
X190000000Y-45000000D03*
X195000000Y-82500000D03*
X195011811Y-94974012D03*
X210000000Y-55000000D03*
X201250000Y-58500000D03*
X172500000Y-85000000D03*
X199000000Y-55000000D03*
X205000000Y-45000000D03*
X195000000Y-97500000D03*
X210000000Y-92500000D03*
X184500000Y-71250000D03*
X190000000Y-97500000D03*
X185000000Y-45000000D03*
X200000000Y-95000000D03*
X193500000Y-73770000D03*
X172500000Y-92500000D03*
X192500000Y-95000000D03*
X172500000Y-50000000D03*
X187500000Y-95000000D03*
X193500000Y-76250000D03*
X210000000Y-87500000D03*
X177500000Y-90000000D03*
%TO.N,Net-(J2-VCP_RX)*%
X206500000Y-71350000D03*
%TO.N,Net-(J2-JTMS{slash}SWDIO)*%
X197492567Y-69769033D03*
%TO.N,Net-(J2-JCLK{slash}SWCLK)*%
X197565687Y-70565687D03*
%TO.N,Net-(J2-VCP_TX)*%
X205850000Y-70875500D03*
%TO.N,Net-(J2-~{RST})*%
X205142589Y-71258881D03*
%TO.N,Net-(J2-JTDO{slash}SWO)*%
X199755624Y-70000262D03*
%TO.N,/IN2B*%
X202168335Y-70014120D03*
X207165687Y-58949919D03*
%TO.N,/ADC2_IN3*%
X202124265Y-64974265D03*
X207250000Y-60000000D03*
%TO.N,/I2C1_SDA*%
X188750000Y-79250000D03*
X188750000Y-77900000D03*
%TO.N,Net-(J7-Pin_6)*%
X188357773Y-59784456D03*
%TO.N,Net-(J8-Pin_6)*%
X188000000Y-60500000D03*
%TO.N,Net-(J9-Pin_6)*%
X188000000Y-63250000D03*
%TO.N,Net-(J10-Pin_6)*%
X188000000Y-66000000D03*
%TO.N,Net-(J11-Pin_6)*%
X188000000Y-69500000D03*
%TO.N,Net-(J12-Pin_6)*%
X189250000Y-71750000D03*
%TO.N,Net-(J13-Pin_6)*%
X189270000Y-73270000D03*
%TO.N,Net-(U2-\u002ARESET)*%
X198000000Y-73500000D03*
X200300000Y-74400000D03*
%TO.N,/ENA*%
X208179809Y-69100000D03*
X200076917Y-68623082D03*
%TO.N,Net-(J5-Pin_b3)*%
X202639907Y-68273528D03*
%TO.N,/ENB*%
X208000000Y-69975000D03*
X201000000Y-69300000D03*
%TO.N,/IN1A*%
X199999000Y-67105802D03*
%TO.N,Net-(J5-Pin_a3)*%
X200555385Y-69980612D03*
X200250000Y-57000000D03*
%TO.N,/EVENTOUTA*%
X196974548Y-69025452D03*
X203000000Y-65000000D03*
%TO.N,Net-(J5-Pin_a4)*%
X203715544Y-65357772D03*
X206565687Y-57684313D03*
%TO.N,/EVENTOUTB*%
X198750000Y-72250000D03*
X200250000Y-72250000D03*
%TO.N,/IN1B*%
X201368335Y-70016192D03*
%TO.N,/IN2A*%
X208750000Y-68500000D03*
X200300000Y-67849511D03*
%TO.N,Net-(J5-Pin_b4)*%
X201789923Y-68289923D03*
%TD*%
D24*
%TO.N,+3V3*%
X191787500Y-80000000D02*
X191787500Y-77750000D01*
X191787500Y-80000000D02*
X191787500Y-80800000D01*
X191787500Y-77750000D02*
X191787500Y-77000000D01*
D25*
%TO.N,GND*%
X199920000Y-81500000D02*
X199920000Y-82670000D01*
X201190000Y-81500000D02*
X201190000Y-82690000D01*
%TO.N,Net-(J2-VCP_RX)*%
X205500000Y-78750000D02*
X206250000Y-79500000D01*
X206250000Y-79500000D02*
X206250000Y-81000000D01*
X205500000Y-72533550D02*
X205500000Y-78750000D01*
X205750000Y-81500000D02*
X205000000Y-81500000D01*
X206500000Y-71533550D02*
X205500000Y-72533550D01*
X206250000Y-81000000D02*
X205750000Y-81500000D01*
X206500000Y-71350000D02*
X206500000Y-71533550D01*
%TO.N,Net-(J2-JTMS{slash}SWDIO)*%
X198650000Y-79400000D02*
X198650000Y-80230000D01*
X196000000Y-78000000D02*
X197250000Y-78000000D01*
X197386600Y-69875000D02*
X195875000Y-69875000D01*
X197250000Y-78000000D02*
X198650000Y-79400000D01*
X194750000Y-76750000D02*
X196000000Y-78000000D01*
X195875000Y-69875000D02*
X194750000Y-71000000D01*
X194750000Y-71000000D02*
X194750000Y-76750000D01*
X197492567Y-69769033D02*
X197386600Y-69875000D01*
%TO.N,Net-(J2-JCLK{slash}SWCLK)*%
X198000000Y-77500000D02*
X199920000Y-79420000D01*
X195349000Y-76382550D02*
X196466450Y-77500000D01*
X196466450Y-77500000D02*
X198000000Y-77500000D01*
X196184313Y-70565687D02*
X195349000Y-71401000D01*
X199920000Y-79420000D02*
X199920000Y-80230000D01*
X197565687Y-70565687D02*
X196184313Y-70565687D01*
X195349000Y-71401000D02*
X195349000Y-76382550D01*
%TO.N,Net-(J2-VCP_TX)*%
X205000000Y-80230000D02*
X205000000Y-72250000D01*
X205000000Y-72250000D02*
X205850000Y-71400000D01*
X205850000Y-71400000D02*
X205850000Y-70875500D01*
%TO.N,Net-(J2-~{RST})*%
X205142589Y-71258881D02*
X205142589Y-71323861D01*
X204500000Y-78750000D02*
X203730000Y-79520000D01*
X203730000Y-79520000D02*
X203730000Y-80230000D01*
X205142589Y-71323861D02*
X204500000Y-71966450D01*
X204500000Y-71966450D02*
X204500000Y-78750000D01*
%TO.N,Net-(J2-JTDO{slash}SWO)*%
X201190000Y-79190000D02*
X201190000Y-80230000D01*
X198356886Y-71399000D02*
X196351000Y-71399000D01*
X196351000Y-71399000D02*
X196000000Y-71750000D01*
X196000000Y-76250000D02*
X196750000Y-77000000D01*
X196000000Y-71750000D02*
X196000000Y-76250000D01*
X199000000Y-77000000D02*
X201190000Y-79190000D01*
X196750000Y-77000000D02*
X199000000Y-77000000D01*
X199755624Y-70000262D02*
X198356886Y-71399000D01*
%TO.N,/IN2B*%
X207571000Y-71571000D02*
X211599000Y-71571000D01*
X202168335Y-70014120D02*
X202168335Y-69831665D01*
X211699919Y-58949919D02*
X214250000Y-61500000D01*
X202182455Y-70000000D02*
X206000000Y-70000000D01*
X214250000Y-61500000D02*
X214250000Y-68920000D01*
X211599000Y-71571000D02*
X212750000Y-70420000D01*
X206000000Y-70000000D02*
X207571000Y-71571000D01*
X214250000Y-68920000D02*
X212750000Y-70420000D01*
X207165687Y-58949919D02*
X211699919Y-58949919D01*
X202168335Y-70014120D02*
X202182455Y-70000000D01*
%TO.N,/ADC2_IN3*%
X207098530Y-60000000D02*
X202124265Y-64974265D01*
X207250000Y-60000000D02*
X207098530Y-60000000D01*
%TO.N,/I2C1_SDA*%
X188750000Y-79250000D02*
X188750000Y-77900000D01*
%TO.N,Net-(J7-Pin_6)*%
X188357773Y-59784456D02*
X184073317Y-55500000D01*
X184073317Y-55500000D02*
X182140000Y-55500000D01*
%TO.N,Net-(J8-Pin_6)*%
X186500000Y-59000000D02*
X182140000Y-59000000D01*
X188000000Y-60500000D02*
X186500000Y-59000000D01*
%TO.N,Net-(J9-Pin_6)*%
X185750000Y-62500000D02*
X182140000Y-62500000D01*
X186500000Y-63250000D02*
X185750000Y-62500000D01*
X188000000Y-63250000D02*
X186500000Y-63250000D01*
%TO.N,Net-(J10-Pin_6)*%
X188000000Y-66000000D02*
X182080000Y-66000000D01*
%TO.N,Net-(J11-Pin_6)*%
X188000000Y-69500000D02*
X182080000Y-69500000D01*
%TO.N,Net-(J12-Pin_6)*%
X189250000Y-71750000D02*
X188000000Y-73000000D01*
X188000000Y-73000000D02*
X182060000Y-73000000D01*
%TO.N,Net-(J13-Pin_6)*%
X189270000Y-73270000D02*
X186040000Y-76500000D01*
X186040000Y-76500000D02*
X182080000Y-76500000D01*
%TO.N,Net-(U2-\u002ARESET)*%
X198900000Y-74400000D02*
X198000000Y-73500000D01*
X200300000Y-74400000D02*
X198900000Y-74400000D01*
%TO.N,/ENA*%
X201731317Y-67500000D02*
X200631317Y-68600000D01*
X206250000Y-67500000D02*
X201731317Y-67500000D01*
X207850000Y-69100000D02*
X206250000Y-67500000D01*
X208179809Y-69100000D02*
X207850000Y-69100000D01*
X200631317Y-68600000D02*
X200099999Y-68600000D01*
X200099999Y-68600000D02*
X200076917Y-68623082D01*
%TO.N,/ENB*%
X201409077Y-68890923D02*
X206640923Y-68890923D01*
X207725000Y-69975000D02*
X207900000Y-69975000D01*
X206640923Y-68890923D02*
X207725000Y-69975000D01*
X201000000Y-69300000D02*
X201409077Y-68890923D01*
X208000000Y-69975000D02*
X207899000Y-69975000D01*
%TO.N,/IN1A*%
X200144198Y-67105802D02*
X200750000Y-66500000D01*
X200750000Y-66500000D02*
X206750000Y-66500000D01*
X206750000Y-66500000D02*
X208130000Y-67880000D01*
X208130000Y-67880000D02*
X210210000Y-67880000D01*
X199999000Y-67105802D02*
X200144198Y-67105802D01*
%TO.N,/EVENTOUTA*%
X200250000Y-65750000D02*
X196974548Y-69025452D01*
X203000000Y-65000000D02*
X202250000Y-65750000D01*
X202250000Y-65750000D02*
X200250000Y-65750000D01*
%TO.N,/EVENTOUTB*%
X198750000Y-72250000D02*
X200250000Y-72250000D01*
%TO.N,/IN1B*%
X201983512Y-69349000D02*
X201368335Y-69964177D01*
X211380000Y-69250000D02*
X209574943Y-69250000D01*
X207359550Y-70576000D02*
X206132550Y-69349000D01*
X212750000Y-67880000D02*
X211380000Y-69250000D01*
X209574943Y-69250000D02*
X208248943Y-70576000D01*
X201368335Y-70016192D02*
X201368335Y-69881665D01*
X208248943Y-70576000D02*
X207359550Y-70576000D01*
X201368335Y-69964177D02*
X201368335Y-70016192D01*
X206132550Y-69349000D02*
X201983512Y-69349000D01*
%TO.N,/IN2A*%
X208000000Y-68500000D02*
X206500000Y-67000000D01*
X208750000Y-68500000D02*
X208000000Y-68500000D01*
X206500000Y-67000000D02*
X201149511Y-67000000D01*
X201149511Y-67000000D02*
X200300000Y-67849511D01*
%TD*%
%TA.AperFunction,Conductor*%
%TO.N,GND*%
G36*
X203239936Y-51530446D02*
G01*
X203197149Y-51604555D01*
X203175000Y-51687213D01*
X203175000Y-51772787D01*
X203197149Y-51855445D01*
X203239936Y-51929554D01*
X203290382Y-51980000D01*
X202439618Y-51980000D01*
X202490064Y-51929554D01*
X202532851Y-51855445D01*
X202555000Y-51772787D01*
X202555000Y-51687213D01*
X202532851Y-51604555D01*
X202490064Y-51530446D01*
X202439618Y-51480000D01*
X203290382Y-51480000D01*
X203239936Y-51530446D01*
G37*
%TD.AperFunction*%
%TA.AperFunction,Conductor*%
G36*
X178781425Y-44020185D02*
G01*
X178827180Y-44072989D01*
X178837124Y-44142147D01*
X178814704Y-44197386D01*
X178814313Y-44197923D01*
X178814310Y-44197927D01*
X178751874Y-44283861D01*
X178703240Y-44350800D01*
X178617454Y-44519163D01*
X178559059Y-44698881D01*
X178529500Y-44885513D01*
X178529500Y-45074486D01*
X178559059Y-45261118D01*
X178617454Y-45440836D01*
X178649279Y-45503295D01*
X178703240Y-45609199D01*
X178814310Y-45762073D01*
X178947927Y-45895690D01*
X179100801Y-46006760D01*
X179180347Y-46047290D01*
X179269163Y-46092545D01*
X179269165Y-46092545D01*
X179269168Y-46092547D01*
X179365497Y-46123846D01*
X179448881Y-46150940D01*
X179635514Y-46180500D01*
X179635519Y-46180500D01*
X179824486Y-46180500D01*
X180011118Y-46150940D01*
X180190832Y-46092547D01*
X180359199Y-46006760D01*
X180512073Y-45895690D01*
X180645690Y-45762073D01*
X180756760Y-45609199D01*
X180842547Y-45440832D01*
X180882069Y-45319195D01*
X180921507Y-45261521D01*
X180985866Y-45234323D01*
X181054712Y-45246238D01*
X181106188Y-45293482D01*
X181117930Y-45319194D01*
X181133291Y-45366472D01*
X181157454Y-45440836D01*
X181189279Y-45503295D01*
X181243240Y-45609199D01*
X181354310Y-45762073D01*
X181487927Y-45895690D01*
X181640801Y-46006760D01*
X181720347Y-46047290D01*
X181809163Y-46092545D01*
X181809165Y-46092545D01*
X181809168Y-46092547D01*
X181905497Y-46123846D01*
X181988881Y-46150940D01*
X182175514Y-46180500D01*
X182175519Y-46180500D01*
X182364486Y-46180500D01*
X182470777Y-46163665D01*
X182551118Y-46150940D01*
X182730832Y-46092547D01*
X182899199Y-46006760D01*
X183052073Y-45895690D01*
X183185690Y-45762073D01*
X183296760Y-45609199D01*
X183307050Y-45589004D01*
X187430000Y-45589004D01*
X187430000Y-45837500D01*
X188130000Y-45837500D01*
X188130000Y-46337500D01*
X187430000Y-46337500D01*
X187430000Y-46585995D01*
X187468427Y-46779181D01*
X187468430Y-46779193D01*
X187543807Y-46961171D01*
X187543814Y-46961184D01*
X187653248Y-47124962D01*
X187653251Y-47124966D01*
X187792533Y-47264248D01*
X187792537Y-47264251D01*
X187956315Y-47373685D01*
X187956328Y-47373692D01*
X188138308Y-47449069D01*
X188180000Y-47457362D01*
X188180000Y-46654488D01*
X188189940Y-46671705D01*
X188245795Y-46727560D01*
X188314204Y-46767056D01*
X188390504Y-46787500D01*
X188469496Y-46787500D01*
X188545796Y-46767056D01*
X188614205Y-46727560D01*
X188670060Y-46671705D01*
X188680000Y-46654488D01*
X188680000Y-47457362D01*
X188721690Y-47449069D01*
X188721692Y-47449069D01*
X188903671Y-47373692D01*
X188903684Y-47373685D01*
X189067462Y-47264251D01*
X189067466Y-47264248D01*
X189206748Y-47124966D01*
X189206751Y-47124962D01*
X189316185Y-46961184D01*
X189316192Y-46961171D01*
X189391569Y-46779193D01*
X189391572Y-46779181D01*
X189429999Y-46585995D01*
X189430000Y-46585992D01*
X189430000Y-46337500D01*
X188730000Y-46337500D01*
X188730000Y-45837500D01*
X189430000Y-45837500D01*
X189430000Y-45589008D01*
X189429999Y-45589004D01*
X196070000Y-45589004D01*
X196070000Y-45837500D01*
X196770000Y-45837500D01*
X196770000Y-46337500D01*
X196070000Y-46337500D01*
X196070000Y-46585995D01*
X196108427Y-46779181D01*
X196108430Y-46779193D01*
X196183807Y-46961171D01*
X196183814Y-46961184D01*
X196293248Y-47124962D01*
X196293251Y-47124966D01*
X196432533Y-47264248D01*
X196432537Y-47264251D01*
X196596315Y-47373685D01*
X196596328Y-47373692D01*
X196778308Y-47449069D01*
X196820000Y-47457362D01*
X196820000Y-46654488D01*
X196829940Y-46671705D01*
X196885795Y-46727560D01*
X196954204Y-46767056D01*
X197030504Y-46787500D01*
X197109496Y-46787500D01*
X197185796Y-46767056D01*
X197254205Y-46727560D01*
X197310060Y-46671705D01*
X197320000Y-46654488D01*
X197320000Y-47457362D01*
X197361690Y-47449069D01*
X197361692Y-47449069D01*
X197543671Y-47373692D01*
X197543684Y-47373685D01*
X197707462Y-47264251D01*
X197707466Y-47264248D01*
X197846748Y-47124966D01*
X197846751Y-47124962D01*
X197956185Y-46961184D01*
X197956192Y-46961171D01*
X198031569Y-46779193D01*
X198031572Y-46779181D01*
X198069999Y-46585995D01*
X198070000Y-46585992D01*
X198070000Y-46337500D01*
X197370000Y-46337500D01*
X197370000Y-45837500D01*
X198070000Y-45837500D01*
X198070000Y-45589008D01*
X198069999Y-45589004D01*
X198031572Y-45395818D01*
X198031569Y-45395806D01*
X197956192Y-45213828D01*
X197956185Y-45213815D01*
X197846751Y-45050037D01*
X197846748Y-45050033D01*
X197707466Y-44910751D01*
X197707462Y-44910748D01*
X197543684Y-44801314D01*
X197543671Y-44801307D01*
X197361691Y-44725929D01*
X197361683Y-44725927D01*
X197320000Y-44717635D01*
X197320000Y-45520511D01*
X197310060Y-45503295D01*
X197254205Y-45447440D01*
X197185796Y-45407944D01*
X197109496Y-45387500D01*
X197030504Y-45387500D01*
X196954204Y-45407944D01*
X196885795Y-45447440D01*
X196829940Y-45503295D01*
X196820000Y-45520511D01*
X196820000Y-44717636D01*
X196819999Y-44717635D01*
X196778316Y-44725927D01*
X196778308Y-44725929D01*
X196596328Y-44801307D01*
X196596315Y-44801314D01*
X196432537Y-44910748D01*
X196432533Y-44910751D01*
X196293251Y-45050033D01*
X196293248Y-45050037D01*
X196183814Y-45213815D01*
X196183807Y-45213828D01*
X196108430Y-45395806D01*
X196108427Y-45395818D01*
X196070000Y-45589004D01*
X189429999Y-45589004D01*
X189391572Y-45395818D01*
X189391569Y-45395806D01*
X189316192Y-45213828D01*
X189316185Y-45213815D01*
X189206751Y-45050037D01*
X189206748Y-45050033D01*
X189067466Y-44910751D01*
X189067462Y-44910748D01*
X188903684Y-44801314D01*
X188903671Y-44801307D01*
X188721691Y-44725929D01*
X188721683Y-44725927D01*
X188680000Y-44717635D01*
X188680000Y-45520511D01*
X188670060Y-45503295D01*
X188614205Y-45447440D01*
X188545796Y-45407944D01*
X188469496Y-45387500D01*
X188390504Y-45387500D01*
X188314204Y-45407944D01*
X188245795Y-45447440D01*
X188189940Y-45503295D01*
X188180000Y-45520511D01*
X188180000Y-44717636D01*
X188179999Y-44717635D01*
X188138316Y-44725927D01*
X188138308Y-44725929D01*
X187956328Y-44801307D01*
X187956315Y-44801314D01*
X187792537Y-44910748D01*
X187792533Y-44910751D01*
X187653251Y-45050033D01*
X187653248Y-45050037D01*
X187543814Y-45213815D01*
X187543807Y-45213828D01*
X187468430Y-45395806D01*
X187468427Y-45395818D01*
X187430000Y-45589004D01*
X183307050Y-45589004D01*
X183382547Y-45440832D01*
X183440940Y-45261118D01*
X183448432Y-45213815D01*
X183470500Y-45074486D01*
X183470500Y-44885513D01*
X183440940Y-44698881D01*
X183413846Y-44615497D01*
X183382547Y-44519168D01*
X183382545Y-44519165D01*
X183382545Y-44519163D01*
X183296759Y-44350800D01*
X183185690Y-44197927D01*
X183185686Y-44197923D01*
X183185296Y-44197386D01*
X183161816Y-44131580D01*
X183177641Y-44063526D01*
X183227747Y-44014831D01*
X183285614Y-44000500D01*
X207052691Y-44000500D01*
X207119730Y-44020185D01*
X207140372Y-44036819D01*
X208309301Y-45205748D01*
X208207670Y-45279588D01*
X208029588Y-45457670D01*
X207955748Y-45559301D01*
X206781418Y-44384971D01*
X206636423Y-44561650D01*
X206636422Y-44561651D01*
X206459025Y-44827144D01*
X206459014Y-44827162D01*
X206308495Y-45108762D01*
X206308493Y-45108767D01*
X206186292Y-45403786D01*
X206093594Y-45709371D01*
X206093591Y-45709382D01*
X206031301Y-46022544D01*
X206031298Y-46022561D01*
X206000000Y-46340341D01*
X206000000Y-46659658D01*
X206031298Y-46977438D01*
X206031301Y-46977455D01*
X206093591Y-47290617D01*
X206093594Y-47290628D01*
X206186292Y-47596213D01*
X206308493Y-47891232D01*
X206308495Y-47891237D01*
X206459014Y-48172837D01*
X206459025Y-48172855D01*
X206636422Y-48438348D01*
X206636432Y-48438362D01*
X206781418Y-48615027D01*
X207955747Y-47440697D01*
X208029588Y-47542330D01*
X208207670Y-47720412D01*
X208309301Y-47794251D01*
X207134971Y-48968580D01*
X207134972Y-48968581D01*
X207311637Y-49113567D01*
X207311651Y-49113577D01*
X207577144Y-49290974D01*
X207577162Y-49290985D01*
X207858762Y-49441504D01*
X207858767Y-49441506D01*
X208153786Y-49563707D01*
X208459371Y-49656405D01*
X208459382Y-49656408D01*
X208772544Y-49718698D01*
X208772561Y-49718701D01*
X209090341Y-49750000D01*
X209409659Y-49750000D01*
X209727438Y-49718701D01*
X209727455Y-49718698D01*
X210040617Y-49656408D01*
X210040628Y-49656405D01*
X210346213Y-49563707D01*
X210641232Y-49441506D01*
X210641237Y-49441504D01*
X210922837Y-49290985D01*
X210922855Y-49290974D01*
X211188348Y-49113577D01*
X211188361Y-49113567D01*
X211365026Y-48968581D01*
X211365027Y-48968580D01*
X210190698Y-47794251D01*
X210292330Y-47720412D01*
X210470412Y-47542330D01*
X210544252Y-47440698D01*
X211713181Y-48609627D01*
X211746666Y-48670950D01*
X211749500Y-48697308D01*
X211749500Y-52565891D01*
X211783608Y-52693187D01*
X211792253Y-52708160D01*
X211849500Y-52807314D01*
X211849501Y-52807315D01*
X211849502Y-52807316D01*
X214463181Y-55420994D01*
X214496666Y-55482317D01*
X214499500Y-55508675D01*
X214499500Y-60600903D01*
X214479815Y-60667942D01*
X214427011Y-60713697D01*
X214357853Y-60723641D01*
X214294297Y-60694616D01*
X214287819Y-60688584D01*
X212187509Y-58588274D01*
X212187507Y-58588271D01*
X212068636Y-58469400D01*
X212068635Y-58469399D01*
X211981823Y-58419279D01*
X211981823Y-58419278D01*
X211981819Y-58419277D01*
X211931704Y-58390342D01*
X211778976Y-58349418D01*
X211620862Y-58349418D01*
X211613266Y-58349418D01*
X211613250Y-58349419D01*
X207745453Y-58349419D01*
X207678414Y-58329734D01*
X207676562Y-58328521D01*
X207544872Y-58240528D01*
X207544859Y-58240521D01*
X207399188Y-58180183D01*
X207399181Y-58180181D01*
X207388060Y-58177969D01*
X207326150Y-58145582D01*
X207291577Y-58084866D01*
X207295318Y-58015096D01*
X207297680Y-58008930D01*
X207335424Y-57917810D01*
X207366187Y-57763155D01*
X207366187Y-57605471D01*
X207366187Y-57605468D01*
X207366186Y-57605466D01*
X207335424Y-57450816D01*
X207305751Y-57379179D01*
X207275084Y-57305140D01*
X207275077Y-57305127D01*
X207187476Y-57174024D01*
X207187473Y-57174020D01*
X207075979Y-57062526D01*
X207075975Y-57062523D01*
X206944872Y-56974922D01*
X206944859Y-56974915D01*
X206799188Y-56914577D01*
X206799176Y-56914574D01*
X206644532Y-56883813D01*
X206644529Y-56883813D01*
X206486845Y-56883813D01*
X206486842Y-56883813D01*
X206332197Y-56914574D01*
X206332185Y-56914577D01*
X206186514Y-56974915D01*
X206186501Y-56974922D01*
X206055398Y-57062523D01*
X206055394Y-57062526D01*
X205943900Y-57174020D01*
X205943897Y-57174024D01*
X205856296Y-57305127D01*
X205856289Y-57305140D01*
X205795951Y-57450811D01*
X205795948Y-57450823D01*
X205765187Y-57605466D01*
X205765187Y-57763159D01*
X205795948Y-57917802D01*
X205795951Y-57917814D01*
X205856289Y-58063485D01*
X205856296Y-58063498D01*
X205943897Y-58194601D01*
X205943900Y-58194605D01*
X206055394Y-58306099D01*
X206055398Y-58306102D01*
X206186501Y-58393703D01*
X206186514Y-58393710D01*
X206327521Y-58452116D01*
X206332190Y-58454050D01*
X206343307Y-58456261D01*
X206405219Y-58488645D01*
X206439795Y-58549360D01*
X206436057Y-58619129D01*
X206433680Y-58625331D01*
X206395951Y-58716417D01*
X206395948Y-58716429D01*
X206365187Y-58871072D01*
X206365187Y-59028765D01*
X206395948Y-59183408D01*
X206395951Y-59183420D01*
X206456289Y-59329091D01*
X206456296Y-59329104D01*
X206547282Y-59465273D01*
X206545946Y-59466165D01*
X206570210Y-59523306D01*
X206560024Y-59588754D01*
X206555815Y-59598057D01*
X206540606Y-59620821D01*
X206487168Y-59749832D01*
X206486332Y-59751681D01*
X206482491Y-59756145D01*
X206461032Y-59788261D01*
X202109604Y-64139690D01*
X202048281Y-64173175D01*
X202046115Y-64173626D01*
X201890773Y-64204526D01*
X201890763Y-64204529D01*
X201745092Y-64264867D01*
X201745079Y-64264874D01*
X201613976Y-64352475D01*
X201613972Y-64352478D01*
X201502478Y-64463972D01*
X201502475Y-64463976D01*
X201414874Y-64595079D01*
X201414867Y-64595092D01*
X201354529Y-64740763D01*
X201354526Y-64740775D01*
X201323765Y-64895418D01*
X201323765Y-65025500D01*
X201304080Y-65092539D01*
X201251276Y-65138294D01*
X201199765Y-65149500D01*
X200336670Y-65149500D01*
X200336654Y-65149499D01*
X200329058Y-65149499D01*
X200170943Y-65149499D01*
X200122465Y-65162489D01*
X200018214Y-65190423D01*
X200018209Y-65190426D01*
X199881290Y-65269475D01*
X199881282Y-65269481D01*
X196959887Y-68190877D01*
X196898564Y-68224362D01*
X196896398Y-68224813D01*
X196741056Y-68255713D01*
X196741046Y-68255716D01*
X196595375Y-68316054D01*
X196595362Y-68316061D01*
X196464259Y-68403662D01*
X196464255Y-68403665D01*
X196352761Y-68515159D01*
X196352758Y-68515163D01*
X196265157Y-68646266D01*
X196265150Y-68646279D01*
X196204812Y-68791950D01*
X196204809Y-68791962D01*
X196174048Y-68946605D01*
X196174048Y-69104293D01*
X196178427Y-69126310D01*
X196172198Y-69195902D01*
X196129335Y-69251079D01*
X196063444Y-69274322D01*
X196056809Y-69274500D01*
X195954057Y-69274500D01*
X195795942Y-69274500D01*
X195643215Y-69315423D01*
X195643214Y-69315423D01*
X195643212Y-69315424D01*
X195643209Y-69315425D01*
X195593096Y-69344359D01*
X195593095Y-69344360D01*
X195549689Y-69369420D01*
X195506285Y-69394479D01*
X195506282Y-69394481D01*
X194269479Y-70631284D01*
X194256464Y-70653828D01*
X194238031Y-70685756D01*
X194190423Y-70768215D01*
X194149499Y-70920943D01*
X194149499Y-70920945D01*
X194149499Y-71089046D01*
X194149500Y-71089059D01*
X194149500Y-76663330D01*
X194149499Y-76663348D01*
X194149499Y-76829054D01*
X194149498Y-76829054D01*
X194190424Y-76981789D01*
X194190425Y-76981790D01*
X194212186Y-77019480D01*
X194212187Y-77019482D01*
X194269475Y-77118709D01*
X194269481Y-77118717D01*
X194388349Y-77237585D01*
X194388355Y-77237590D01*
X195515139Y-78364374D01*
X195515149Y-78364385D01*
X195519479Y-78368715D01*
X195519480Y-78368716D01*
X195631284Y-78480520D01*
X195702765Y-78521789D01*
X195768215Y-78559577D01*
X195920943Y-78600501D01*
X195920946Y-78600501D01*
X196086653Y-78600501D01*
X196086669Y-78600500D01*
X196949903Y-78600500D01*
X197016942Y-78620185D01*
X197037584Y-78636819D01*
X197339603Y-78938838D01*
X197373088Y-79000161D01*
X197368104Y-79069853D01*
X197326232Y-79125786D01*
X197271320Y-79148992D01*
X197125997Y-79172009D01*
X197125994Y-79172009D01*
X196963622Y-79224767D01*
X196963619Y-79224769D01*
X196811492Y-79302281D01*
X196774932Y-79328844D01*
X196673365Y-79402637D01*
X196673363Y-79402639D01*
X196673362Y-79402639D01*
X196552639Y-79523362D01*
X196552639Y-79523363D01*
X196552637Y-79523365D01*
X196509538Y-79582685D01*
X196452281Y-79661492D01*
X196374769Y-79813619D01*
X196374767Y-79813622D01*
X196322009Y-79975994D01*
X196322009Y-79975997D01*
X196295300Y-80144632D01*
X196295300Y-80315367D01*
X196322009Y-80484002D01*
X196322009Y-80484005D01*
X196374767Y-80646377D01*
X196374769Y-80646380D01*
X196452280Y-80798506D01*
X196453326Y-80800212D01*
X196453525Y-80800948D01*
X196454493Y-80802848D01*
X196454093Y-80803051D01*
X196471568Y-80867659D01*
X196454151Y-80926977D01*
X196454493Y-80927152D01*
X196453565Y-80928972D01*
X196453326Y-80929788D01*
X196452280Y-80931493D01*
X196374769Y-81083619D01*
X196374767Y-81083622D01*
X196322009Y-81245994D01*
X196322009Y-81245997D01*
X196302572Y-81368716D01*
X196295300Y-81414632D01*
X196295300Y-81585368D01*
X196304854Y-81645687D01*
X196322009Y-81754002D01*
X196322009Y-81754005D01*
X196374767Y-81916377D01*
X196374769Y-81916380D01*
X196452281Y-82068507D01*
X196552637Y-82206635D01*
X196673365Y-82327363D01*
X196811493Y-82427719D01*
X196963620Y-82505231D01*
X196963622Y-82505232D01*
X197125995Y-82557990D01*
X197125996Y-82557990D01*
X197125999Y-82557991D01*
X197294632Y-82584700D01*
X197294633Y-82584700D01*
X197465367Y-82584700D01*
X197465368Y-82584700D01*
X197634001Y-82557991D01*
X197634004Y-82557990D01*
X197634005Y-82557990D01*
X197796377Y-82505232D01*
X197796377Y-82505231D01*
X197796380Y-82505231D01*
X197948507Y-82427719D01*
X197948523Y-82427706D01*
X197950199Y-82426681D01*
X197950934Y-82426481D01*
X197952848Y-82425507D01*
X197953052Y-82425908D01*
X198017643Y-82408430D01*
X198076976Y-82425851D01*
X198077152Y-82425507D01*
X198078987Y-82426442D01*
X198079801Y-82426681D01*
X198081481Y-82427710D01*
X198081493Y-82427719D01*
X198233620Y-82505231D01*
X198233622Y-82505232D01*
X198395995Y-82557990D01*
X198395996Y-82557990D01*
X198395999Y-82557991D01*
X198564632Y-82584700D01*
X198564633Y-82584700D01*
X198735367Y-82584700D01*
X198735368Y-82584700D01*
X198904001Y-82557991D01*
X198904004Y-82557990D01*
X198904005Y-82557990D01*
X199066377Y-82505232D01*
X199066377Y-82505231D01*
X199066380Y-82505231D01*
X199218507Y-82427719D01*
X199218522Y-82427707D01*
X199220673Y-82426390D01*
X199221615Y-82426134D01*
X199222848Y-82425507D01*
X199222979Y-82425765D01*
X199288116Y-82408136D01*
X199347208Y-82425481D01*
X199347414Y-82425079D01*
X199349556Y-82426170D01*
X199350266Y-82426379D01*
X199351749Y-82427288D01*
X199503808Y-82504766D01*
X199666115Y-82557503D01*
X199834667Y-82584200D01*
X200005333Y-82584200D01*
X200173884Y-82557503D01*
X200336191Y-82504766D01*
X200488234Y-82427296D01*
X200490194Y-82426095D01*
X200491042Y-82425865D01*
X200492586Y-82425079D01*
X200492751Y-82425402D01*
X200557637Y-82407841D01*
X200617274Y-82425351D01*
X200617414Y-82425079D01*
X200618866Y-82425819D01*
X200619806Y-82426095D01*
X200621765Y-82427296D01*
X200773808Y-82504766D01*
X200936115Y-82557503D01*
X201104667Y-82584200D01*
X201275333Y-82584200D01*
X201443884Y-82557503D01*
X201606191Y-82504766D01*
X201758237Y-82427294D01*
X201759715Y-82426389D01*
X201760354Y-82426215D01*
X201762586Y-82425079D01*
X201762824Y-82425547D01*
X201827158Y-82408136D01*
X201887045Y-82425716D01*
X201887152Y-82425507D01*
X201888265Y-82426074D01*
X201889310Y-82426381D01*
X201891493Y-82427719D01*
X202043620Y-82505231D01*
X202043622Y-82505232D01*
X202205995Y-82557990D01*
X202205996Y-82557990D01*
X202205999Y-82557991D01*
X202374632Y-82584700D01*
X202374633Y-82584700D01*
X202545367Y-82584700D01*
X202545368Y-82584700D01*
X202714001Y-82557991D01*
X202714004Y-82557990D01*
X202714005Y-82557990D01*
X202876377Y-82505232D01*
X202876377Y-82505231D01*
X202876380Y-82505231D01*
X203028507Y-82427719D01*
X203028523Y-82427706D01*
X203030199Y-82426681D01*
X203030934Y-82426481D01*
X203032848Y-82425507D01*
X203033052Y-82425908D01*
X203097643Y-82408430D01*
X203156976Y-82425851D01*
X203157152Y-82425507D01*
X203158987Y-82426442D01*
X203159801Y-82426681D01*
X203161481Y-82427710D01*
X203161493Y-82427719D01*
X203313620Y-82505231D01*
X203313622Y-82505232D01*
X203475995Y-82557990D01*
X203475996Y-82557990D01*
X203475999Y-82557991D01*
X203644632Y-82584700D01*
X203644633Y-82584700D01*
X203815367Y-82584700D01*
X203815368Y-82584700D01*
X203984001Y-82557991D01*
X203984004Y-82557990D01*
X203984005Y-82557990D01*
X204146377Y-82505232D01*
X204146377Y-82505231D01*
X204146380Y-82505231D01*
X204298507Y-82427719D01*
X204298523Y-82427706D01*
X204300199Y-82426681D01*
X204300934Y-82426481D01*
X204302848Y-82425507D01*
X204303052Y-82425908D01*
X204367643Y-82408430D01*
X204426976Y-82425851D01*
X204427152Y-82425507D01*
X204428987Y-82426442D01*
X204429801Y-82426681D01*
X204431481Y-82427710D01*
X204431493Y-82427719D01*
X204583620Y-82505231D01*
X204583622Y-82505232D01*
X204745995Y-82557990D01*
X204745996Y-82557990D01*
X204745999Y-82557991D01*
X204914632Y-82584700D01*
X204914633Y-82584700D01*
X205085367Y-82584700D01*
X205085368Y-82584700D01*
X205254001Y-82557991D01*
X205254004Y-82557990D01*
X205254005Y-82557990D01*
X205416377Y-82505232D01*
X205416377Y-82505231D01*
X205416380Y-82505231D01*
X205568507Y-82427719D01*
X205706635Y-82327363D01*
X205827363Y-82206635D01*
X205896895Y-82110930D01*
X205944141Y-82071748D01*
X205954278Y-82066947D01*
X205981785Y-82059577D01*
X206031904Y-82030639D01*
X206118716Y-81980520D01*
X206230520Y-81868716D01*
X206230521Y-81868714D01*
X206730520Y-81368716D01*
X206809577Y-81231784D01*
X206850501Y-81079057D01*
X206850501Y-80920942D01*
X206850501Y-80913347D01*
X206850500Y-80913329D01*
X206850500Y-79420945D01*
X206850500Y-79420943D01*
X206818705Y-79302281D01*
X206809577Y-79268215D01*
X206763389Y-79188216D01*
X206763389Y-79188215D01*
X206738634Y-79145338D01*
X206722161Y-79077438D01*
X206745014Y-79011411D01*
X206799935Y-78968220D01*
X206869488Y-78961579D01*
X206893473Y-78968777D01*
X207016498Y-79019735D01*
X207016503Y-79019737D01*
X207171153Y-79050499D01*
X207171156Y-79050500D01*
X207171158Y-79050500D01*
X207328844Y-79050500D01*
X207328845Y-79050499D01*
X207483497Y-79019737D01*
X207629179Y-78959394D01*
X207760289Y-78871789D01*
X207871789Y-78760289D01*
X207959394Y-78629179D01*
X208019737Y-78483497D01*
X208050500Y-78328842D01*
X208050500Y-78171158D01*
X208050500Y-78171155D01*
X208050499Y-78171153D01*
X208019737Y-78016503D01*
X207980778Y-77922449D01*
X207973310Y-77852984D01*
X207980775Y-77827556D01*
X208019737Y-77733497D01*
X208050500Y-77578842D01*
X208050500Y-77421158D01*
X208050500Y-77421155D01*
X208050499Y-77421153D01*
X208043632Y-77386632D01*
X208019737Y-77266503D01*
X207980778Y-77172449D01*
X207973310Y-77102984D01*
X207980775Y-77077556D01*
X208019737Y-76983497D01*
X208050500Y-76828842D01*
X208050500Y-76671158D01*
X208050500Y-76671155D01*
X208050499Y-76671153D01*
X208047296Y-76655051D01*
X208019737Y-76516503D01*
X208019735Y-76516498D01*
X207959397Y-76370827D01*
X207959390Y-76370814D01*
X207871789Y-76239711D01*
X207871786Y-76239707D01*
X207760292Y-76128213D01*
X207760288Y-76128210D01*
X207629185Y-76040609D01*
X207629172Y-76040602D01*
X207483501Y-75980264D01*
X207483489Y-75980261D01*
X207328845Y-75949500D01*
X207328842Y-75949500D01*
X207171158Y-75949500D01*
X207171155Y-75949500D01*
X207016510Y-75980261D01*
X207016498Y-75980264D01*
X206870827Y-76040602D01*
X206870814Y-76040609D01*
X206739711Y-76128210D01*
X206739707Y-76128213D01*
X206628213Y-76239707D01*
X206628210Y-76239711D01*
X206540609Y-76370814D01*
X206540602Y-76370827D01*
X206480264Y-76516498D01*
X206480261Y-76516510D01*
X206449500Y-76671153D01*
X206449500Y-76828846D01*
X206480261Y-76983489D01*
X206480264Y-76983501D01*
X206519219Y-77077548D01*
X206526688Y-77147018D01*
X206519219Y-77172452D01*
X206480264Y-77266498D01*
X206480261Y-77266510D01*
X206449500Y-77421153D01*
X206449500Y-77578846D01*
X206480261Y-77733489D01*
X206480264Y-77733501D01*
X206519219Y-77827548D01*
X206526688Y-77897018D01*
X206519219Y-77922452D01*
X206480264Y-78016498D01*
X206480261Y-78016510D01*
X206449500Y-78171153D01*
X206449500Y-78328846D01*
X206480261Y-78483489D01*
X206480264Y-78483501D01*
X206522798Y-78586188D01*
X206530267Y-78655657D01*
X206498991Y-78718136D01*
X206438902Y-78753788D01*
X206369077Y-78751294D01*
X206320556Y-78721321D01*
X206136819Y-78537584D01*
X206103334Y-78476261D01*
X206100500Y-78449903D01*
X206100500Y-75174500D01*
X206120185Y-75107461D01*
X206172989Y-75061706D01*
X206224500Y-75050500D01*
X206328844Y-75050500D01*
X206328845Y-75050499D01*
X206483497Y-75019737D01*
X206629179Y-74959394D01*
X206760289Y-74871789D01*
X206871789Y-74760289D01*
X206959394Y-74629179D01*
X207019737Y-74483497D01*
X207050500Y-74328842D01*
X207050500Y-74171158D01*
X207050500Y-74171155D01*
X207050499Y-74171153D01*
X207040227Y-74119514D01*
X207019737Y-74016503D01*
X206980778Y-73922449D01*
X206973310Y-73852984D01*
X206980775Y-73827556D01*
X207019737Y-73733497D01*
X207050500Y-73578842D01*
X207050500Y-73421158D01*
X207050500Y-73421155D01*
X207050499Y-73421153D01*
X207021674Y-73276243D01*
X207019737Y-73266503D01*
X206980778Y-73172449D01*
X206973310Y-73102984D01*
X206980775Y-73077556D01*
X207019737Y-72983497D01*
X207050500Y-72828842D01*
X207050500Y-72671158D01*
X207050500Y-72671155D01*
X207050499Y-72671153D01*
X207045936Y-72648213D01*
X207019737Y-72516503D01*
X207015327Y-72505857D01*
X206959397Y-72370827D01*
X206959390Y-72370814D01*
X206871789Y-72239711D01*
X206867924Y-72235001D01*
X206869352Y-72233828D01*
X206863401Y-72222929D01*
X206849321Y-72207254D01*
X206846991Y-72192876D01*
X206840012Y-72180095D01*
X206841514Y-72159080D01*
X206838145Y-72138284D01*
X206843957Y-72124931D01*
X206844996Y-72110403D01*
X206857621Y-72093537D01*
X206866030Y-72074220D01*
X206884508Y-72057622D01*
X206886868Y-72054470D01*
X206892274Y-72050644D01*
X206992974Y-71983358D01*
X207059649Y-71962481D01*
X207127030Y-71980965D01*
X207149544Y-71998780D01*
X207202284Y-72051520D01*
X207202286Y-72051521D01*
X207202290Y-72051524D01*
X207336805Y-72129185D01*
X207339216Y-72130577D01*
X207491943Y-72171501D01*
X207491945Y-72171501D01*
X207657654Y-72171501D01*
X207657670Y-72171500D01*
X208893710Y-72171500D01*
X208960749Y-72191185D01*
X209006504Y-72243989D01*
X209016448Y-72313147D01*
X209004195Y-72351793D01*
X208994008Y-72371787D01*
X208958444Y-72441585D01*
X208892753Y-72643760D01*
X208859500Y-72853713D01*
X208859500Y-73066286D01*
X208891211Y-73266506D01*
X208892754Y-73276243D01*
X208956031Y-73470990D01*
X208958444Y-73478414D01*
X209054951Y-73667820D01*
X209179890Y-73839786D01*
X209330213Y-73990109D01*
X209502182Y-74115050D01*
X209510946Y-74119516D01*
X209561742Y-74167491D01*
X209578536Y-74235312D01*
X209555998Y-74301447D01*
X209510946Y-74340484D01*
X209502182Y-74344949D01*
X209330213Y-74469890D01*
X209179890Y-74620213D01*
X209054951Y-74792179D01*
X208958444Y-74981585D01*
X208892753Y-75183760D01*
X208890102Y-75200499D01*
X208859500Y-75393713D01*
X208859500Y-75606287D01*
X208892754Y-75816243D01*
X208944747Y-75976261D01*
X208958444Y-76018414D01*
X209054951Y-76207820D01*
X209179890Y-76379786D01*
X209330213Y-76530109D01*
X209502179Y-76655048D01*
X209502181Y-76655049D01*
X209502184Y-76655051D01*
X209691588Y-76751557D01*
X209893757Y-76817246D01*
X210103713Y-76850500D01*
X210103714Y-76850500D01*
X210316286Y-76850500D01*
X210316287Y-76850500D01*
X210526243Y-76817246D01*
X210728412Y-76751557D01*
X210917816Y-76655051D01*
X210950529Y-76631284D01*
X211089786Y-76530109D01*
X211089788Y-76530106D01*
X211089792Y-76530104D01*
X211240104Y-76379792D01*
X211240106Y-76379788D01*
X211240109Y-76379786D01*
X211365048Y-76207820D01*
X211365047Y-76207820D01*
X211365051Y-76207816D01*
X211369514Y-76199054D01*
X211417488Y-76148259D01*
X211485308Y-76131463D01*
X211551444Y-76153999D01*
X211590486Y-76199056D01*
X211594951Y-76207820D01*
X211719890Y-76379786D01*
X211870213Y-76530109D01*
X212042179Y-76655048D01*
X212042181Y-76655049D01*
X212042184Y-76655051D01*
X212231588Y-76751557D01*
X212433757Y-76817246D01*
X212643713Y-76850500D01*
X212643714Y-76850500D01*
X212856286Y-76850500D01*
X212856287Y-76850500D01*
X213066243Y-76817246D01*
X213268412Y-76751557D01*
X213457816Y-76655051D01*
X213490529Y-76631284D01*
X213629786Y-76530109D01*
X213629788Y-76530106D01*
X213629792Y-76530104D01*
X213780104Y-76379792D01*
X213780106Y-76379788D01*
X213780109Y-76379786D01*
X213905048Y-76207820D01*
X213905047Y-76207820D01*
X213905051Y-76207816D01*
X214001557Y-76018412D01*
X214067246Y-75816243D01*
X214100500Y-75606287D01*
X214100500Y-75393713D01*
X214067246Y-75183757D01*
X214001557Y-74981588D01*
X213905051Y-74792184D01*
X213905049Y-74792181D01*
X213905048Y-74792179D01*
X213780109Y-74620213D01*
X213629786Y-74469890D01*
X213457820Y-74344951D01*
X213457115Y-74344591D01*
X213449054Y-74340485D01*
X213398259Y-74292512D01*
X213381463Y-74224692D01*
X213403999Y-74158556D01*
X213449054Y-74119515D01*
X213457816Y-74115051D01*
X213519136Y-74070500D01*
X213629786Y-73990109D01*
X213629788Y-73990106D01*
X213629792Y-73990104D01*
X213780104Y-73839792D01*
X213780106Y-73839788D01*
X213780109Y-73839786D01*
X213905048Y-73667820D01*
X213905047Y-73667820D01*
X213905051Y-73667816D01*
X214001557Y-73478412D01*
X214067246Y-73276243D01*
X214100500Y-73066287D01*
X214100500Y-72853713D01*
X214067246Y-72643757D01*
X214001557Y-72441588D01*
X213905051Y-72252184D01*
X213905049Y-72252181D01*
X213905048Y-72252179D01*
X213780109Y-72080213D01*
X213629786Y-71929890D01*
X213457820Y-71804951D01*
X213457115Y-71804591D01*
X213449054Y-71800485D01*
X213398259Y-71752512D01*
X213381463Y-71684692D01*
X213403999Y-71618556D01*
X213449054Y-71579515D01*
X213457816Y-71575051D01*
X213531295Y-71521666D01*
X213629786Y-71450109D01*
X213629788Y-71450106D01*
X213629792Y-71450104D01*
X213780104Y-71299792D01*
X213780106Y-71299788D01*
X213780109Y-71299786D01*
X213889086Y-71149789D01*
X213905051Y-71127816D01*
X214001557Y-70938412D01*
X214067246Y-70736243D01*
X214100500Y-70526287D01*
X214100500Y-70313713D01*
X214067246Y-70103757D01*
X214053506Y-70061473D01*
X214051512Y-69991635D01*
X214083755Y-69935478D01*
X214287820Y-69731414D01*
X214349142Y-69697930D01*
X214418834Y-69702914D01*
X214474767Y-69744786D01*
X214499184Y-69810250D01*
X214499500Y-69819096D01*
X214499500Y-81991323D01*
X214479815Y-82058362D01*
X214463181Y-82079004D01*
X211925244Y-84616940D01*
X211925245Y-84616941D01*
X211849500Y-84692686D01*
X211783608Y-84806812D01*
X211749500Y-84934108D01*
X211749500Y-94302691D01*
X211729815Y-94369730D01*
X211713181Y-94390372D01*
X210544251Y-95559301D01*
X210470412Y-95457670D01*
X210292330Y-95279588D01*
X210190698Y-95205748D01*
X211365027Y-94031418D01*
X211188362Y-93886432D01*
X211188348Y-93886422D01*
X210922855Y-93709025D01*
X210922837Y-93709014D01*
X210641237Y-93558495D01*
X210641232Y-93558493D01*
X210346213Y-93436292D01*
X210040628Y-93343594D01*
X210040617Y-93343591D01*
X209727455Y-93281301D01*
X209727438Y-93281298D01*
X209409659Y-93250000D01*
X209090341Y-93250000D01*
X208772561Y-93281298D01*
X208772544Y-93281301D01*
X208459382Y-93343591D01*
X208459371Y-93343594D01*
X208153786Y-93436292D01*
X207858767Y-93558493D01*
X207858762Y-93558495D01*
X207577162Y-93709014D01*
X207577144Y-93709025D01*
X207311651Y-93886422D01*
X207311650Y-93886423D01*
X207134971Y-94031418D01*
X208309301Y-95205748D01*
X208207670Y-95279588D01*
X208029588Y-95457670D01*
X207955748Y-95559301D01*
X206781418Y-94384971D01*
X206636423Y-94561650D01*
X206636422Y-94561651D01*
X206459025Y-94827144D01*
X206459014Y-94827162D01*
X206308495Y-95108762D01*
X206308493Y-95108767D01*
X206186292Y-95403786D01*
X206093594Y-95709371D01*
X206093591Y-95709382D01*
X206031301Y-96022544D01*
X206031298Y-96022561D01*
X206000000Y-96340341D01*
X206000000Y-96659658D01*
X206031298Y-96977438D01*
X206031301Y-96977455D01*
X206093591Y-97290617D01*
X206093594Y-97290628D01*
X206186292Y-97596213D01*
X206308493Y-97891232D01*
X206308495Y-97891237D01*
X206459014Y-98172837D01*
X206459025Y-98172855D01*
X206636422Y-98438348D01*
X206636432Y-98438362D01*
X206781418Y-98615027D01*
X207955747Y-97440697D01*
X208029588Y-97542330D01*
X208207670Y-97720412D01*
X208309301Y-97794251D01*
X207140372Y-98963181D01*
X207079049Y-98996666D01*
X207052691Y-98999500D01*
X175697308Y-98999500D01*
X175630269Y-98979815D01*
X175609627Y-98963181D01*
X174440698Y-97794252D01*
X174542330Y-97720412D01*
X174720412Y-97542330D01*
X174794251Y-97440698D01*
X175968580Y-98615027D01*
X175968581Y-98615026D01*
X176113567Y-98438361D01*
X176113577Y-98438348D01*
X176290974Y-98172855D01*
X176290985Y-98172837D01*
X176441504Y-97891237D01*
X176441506Y-97891232D01*
X176563707Y-97596213D01*
X176656405Y-97290628D01*
X176656408Y-97290617D01*
X176718698Y-96977455D01*
X176718701Y-96977438D01*
X176750000Y-96659658D01*
X176750000Y-96340341D01*
X176718701Y-96022561D01*
X176718698Y-96022544D01*
X176656408Y-95709382D01*
X176656405Y-95709371D01*
X176563707Y-95403786D01*
X176441506Y-95108767D01*
X176441504Y-95108762D01*
X176290985Y-94827162D01*
X176290974Y-94827144D01*
X176113577Y-94561651D01*
X176113567Y-94561637D01*
X175968581Y-94384972D01*
X175968580Y-94384971D01*
X174794251Y-95559300D01*
X174720412Y-95457670D01*
X174542330Y-95279588D01*
X174440698Y-95205748D01*
X175615027Y-94031418D01*
X175438362Y-93886432D01*
X175438348Y-93886422D01*
X175172855Y-93709025D01*
X175172837Y-93709014D01*
X174891237Y-93558495D01*
X174891232Y-93558493D01*
X174596213Y-93436292D01*
X174290628Y-93343594D01*
X174290617Y-93343591D01*
X173977455Y-93281301D01*
X173977438Y-93281298D01*
X173659659Y-93250000D01*
X173340341Y-93250000D01*
X173022561Y-93281298D01*
X173022544Y-93281301D01*
X172709382Y-93343591D01*
X172709371Y-93343594D01*
X172403786Y-93436292D01*
X172108767Y-93558493D01*
X172108762Y-93558495D01*
X171827162Y-93709014D01*
X171827144Y-93709025D01*
X171561651Y-93886422D01*
X171561650Y-93886423D01*
X171384971Y-94031418D01*
X172559301Y-95205748D01*
X172457670Y-95279588D01*
X172279588Y-95457670D01*
X172205747Y-95559301D01*
X171036819Y-94390373D01*
X171022115Y-94363445D01*
X171005523Y-94337627D01*
X171004631Y-94331426D01*
X171003334Y-94329050D01*
X171000500Y-94302692D01*
X171000500Y-88909370D01*
X183948500Y-88909370D01*
X183948500Y-89090629D01*
X183976852Y-89269640D01*
X184032864Y-89442025D01*
X184115150Y-89603520D01*
X184126837Y-89619606D01*
X184126838Y-89619606D01*
X184720000Y-89026445D01*
X184720000Y-89050028D01*
X184745896Y-89146675D01*
X184795924Y-89233325D01*
X184866675Y-89304076D01*
X184953325Y-89354104D01*
X185049972Y-89380000D01*
X185073553Y-89380000D01*
X184480391Y-89973160D01*
X184480392Y-89973161D01*
X184496478Y-89984848D01*
X184657974Y-90067135D01*
X184830359Y-90123147D01*
X184830358Y-90123147D01*
X185009371Y-90151500D01*
X185190629Y-90151500D01*
X185369640Y-90123147D01*
X185542025Y-90067135D01*
X185703514Y-89984853D01*
X185719607Y-89973160D01*
X185126448Y-89380000D01*
X185150028Y-89380000D01*
X185246675Y-89354104D01*
X185333325Y-89304076D01*
X185404076Y-89233325D01*
X185454104Y-89146675D01*
X185480000Y-89050028D01*
X185480000Y-89026446D01*
X186073160Y-89619606D01*
X186084853Y-89603514D01*
X186167135Y-89442025D01*
X186223147Y-89269640D01*
X186223147Y-89269639D01*
X186247273Y-89117313D01*
X186277202Y-89054178D01*
X186336513Y-89017246D01*
X186406375Y-89018244D01*
X186464608Y-89056853D01*
X186492219Y-89117311D01*
X186516365Y-89269758D01*
X186516366Y-89269761D01*
X186572400Y-89442214D01*
X186654721Y-89603779D01*
X186761304Y-89750477D01*
X186889523Y-89878696D01*
X187036221Y-89985279D01*
X187197786Y-90067600D01*
X187370239Y-90123634D01*
X187437400Y-90134271D01*
X187549331Y-90152000D01*
X187549336Y-90152000D01*
X187730669Y-90152000D01*
X187830162Y-90136241D01*
X187909761Y-90123634D01*
X188082214Y-90067600D01*
X188243779Y-89985279D01*
X188390477Y-89878696D01*
X188518696Y-89750477D01*
X188625279Y-89603779D01*
X188707600Y-89442214D01*
X188763634Y-89269761D01*
X188783129Y-89146675D01*
X188787527Y-89118910D01*
X188817456Y-89055775D01*
X188876768Y-89018844D01*
X188946631Y-89019842D01*
X189004863Y-89058452D01*
X189032473Y-89118910D01*
X189056365Y-89269757D01*
X189056365Y-89269759D01*
X189056366Y-89269761D01*
X189112400Y-89442214D01*
X189194721Y-89603779D01*
X189301304Y-89750477D01*
X189429523Y-89878696D01*
X189576221Y-89985279D01*
X189737786Y-90067600D01*
X189910239Y-90123634D01*
X189977400Y-90134271D01*
X190089331Y-90152000D01*
X190089336Y-90152000D01*
X190270669Y-90152000D01*
X190370162Y-90136241D01*
X190449761Y-90123634D01*
X190622214Y-90067600D01*
X190783779Y-89985279D01*
X190930477Y-89878696D01*
X191058696Y-89750477D01*
X191165279Y-89603779D01*
X191247600Y-89442214D01*
X191303634Y-89269761D01*
X191323129Y-89146675D01*
X191332000Y-89090669D01*
X191332000Y-88909330D01*
X194108000Y-88909330D01*
X194108000Y-89090669D01*
X194136365Y-89269757D01*
X194136365Y-89269759D01*
X194136366Y-89269761D01*
X194192400Y-89442214D01*
X194274721Y-89603779D01*
X194381304Y-89750477D01*
X194509523Y-89878696D01*
X194656221Y-89985279D01*
X194817786Y-90067600D01*
X194990239Y-90123634D01*
X195057400Y-90134271D01*
X195169331Y-90152000D01*
X195169336Y-90152000D01*
X195350669Y-90152000D01*
X195450162Y-90136241D01*
X195529761Y-90123634D01*
X195702214Y-90067600D01*
X195863779Y-89985279D01*
X196010477Y-89878696D01*
X196138696Y-89750477D01*
X196245279Y-89603779D01*
X196327600Y-89442214D01*
X196383634Y-89269761D01*
X196403129Y-89146675D01*
X196407527Y-89118910D01*
X196437456Y-89055775D01*
X196496768Y-89018844D01*
X196566631Y-89019842D01*
X196624863Y-89058452D01*
X196652473Y-89118910D01*
X196676365Y-89269757D01*
X196676365Y-89269759D01*
X196676366Y-89269761D01*
X196732400Y-89442214D01*
X196814721Y-89603779D01*
X196921304Y-89750477D01*
X197049523Y-89878696D01*
X197196221Y-89985279D01*
X197357786Y-90067600D01*
X197530239Y-90123634D01*
X197597400Y-90134271D01*
X197709331Y-90152000D01*
X197709336Y-90152000D01*
X197890669Y-90152000D01*
X197990162Y-90136241D01*
X198069761Y-90123634D01*
X198242214Y-90067600D01*
X198403779Y-89985279D01*
X198550477Y-89878696D01*
X198678696Y-89750477D01*
X198785279Y-89603779D01*
X198867600Y-89442214D01*
X198923634Y-89269761D01*
X198943129Y-89146675D01*
X198947780Y-89117312D01*
X198977709Y-89054177D01*
X199037021Y-89017246D01*
X199106883Y-89018244D01*
X199165116Y-89056854D01*
X199192726Y-89117312D01*
X199216852Y-89269640D01*
X199272864Y-89442025D01*
X199355150Y-89603520D01*
X199366837Y-89619606D01*
X199366838Y-89619606D01*
X199960000Y-89026445D01*
X199960000Y-89050028D01*
X199985896Y-89146675D01*
X200035924Y-89233325D01*
X200106675Y-89304076D01*
X200193325Y-89354104D01*
X200289972Y-89380000D01*
X200313553Y-89380000D01*
X199720391Y-89973160D01*
X199720392Y-89973161D01*
X199736478Y-89984848D01*
X199897974Y-90067135D01*
X200070359Y-90123147D01*
X200070358Y-90123147D01*
X200249371Y-90151500D01*
X200430629Y-90151500D01*
X200609640Y-90123147D01*
X200782025Y-90067135D01*
X200943514Y-89984853D01*
X200959607Y-89973160D01*
X200366448Y-89380000D01*
X200390028Y-89380000D01*
X200486675Y-89354104D01*
X200573325Y-89304076D01*
X200644076Y-89233325D01*
X200694104Y-89146675D01*
X200720000Y-89050028D01*
X200720000Y-89026446D01*
X201313160Y-89619606D01*
X201324853Y-89603514D01*
X201407135Y-89442025D01*
X201463147Y-89269640D01*
X201463147Y-89269639D01*
X201487273Y-89117313D01*
X201517202Y-89054178D01*
X201576513Y-89017246D01*
X201646375Y-89018244D01*
X201704608Y-89056853D01*
X201732219Y-89117311D01*
X201756365Y-89269758D01*
X201756366Y-89269761D01*
X201812400Y-89442214D01*
X201894721Y-89603779D01*
X202001304Y-89750477D01*
X202129523Y-89878696D01*
X202276221Y-89985279D01*
X202437786Y-90067600D01*
X202610239Y-90123634D01*
X202677400Y-90134271D01*
X202789331Y-90152000D01*
X202789336Y-90152000D01*
X202970669Y-90152000D01*
X203070162Y-90136241D01*
X203149761Y-90123634D01*
X203322214Y-90067600D01*
X203483779Y-89985279D01*
X203630477Y-89878696D01*
X203758696Y-89750477D01*
X203865279Y-89603779D01*
X203947600Y-89442214D01*
X204003634Y-89269761D01*
X204023129Y-89146675D01*
X204032000Y-89090669D01*
X204032000Y-88909330D01*
X204003634Y-88730242D01*
X204003634Y-88730241D01*
X204003634Y-88730239D01*
X203947600Y-88557786D01*
X203865279Y-88396221D01*
X203758696Y-88249523D01*
X203630477Y-88121304D01*
X203483779Y-88014721D01*
X203322214Y-87932400D01*
X203149761Y-87876366D01*
X203149759Y-87876365D01*
X203149757Y-87876365D01*
X202970669Y-87848000D01*
X202970664Y-87848000D01*
X202789336Y-87848000D01*
X202789331Y-87848000D01*
X202610242Y-87876365D01*
X202437783Y-87932401D01*
X202276220Y-88014721D01*
X202259543Y-88026838D01*
X202129523Y-88121304D01*
X202129521Y-88121306D01*
X202129520Y-88121306D01*
X202001306Y-88249520D01*
X202001306Y-88249521D01*
X202001304Y-88249523D01*
X201955531Y-88312523D01*
X201894721Y-88396220D01*
X201812401Y-88557783D01*
X201756365Y-88730241D01*
X201732219Y-88882688D01*
X201702289Y-88945822D01*
X201642977Y-88982753D01*
X201573115Y-88981755D01*
X201514882Y-88943144D01*
X201487273Y-88882686D01*
X201463147Y-88730360D01*
X201463147Y-88730359D01*
X201407135Y-88557974D01*
X201324848Y-88396478D01*
X201313161Y-88380392D01*
X201313160Y-88380391D01*
X200720000Y-88973551D01*
X200720000Y-88949972D01*
X200694104Y-88853325D01*
X200644076Y-88766675D01*
X200573325Y-88695924D01*
X200486675Y-88645896D01*
X200390028Y-88620000D01*
X200366447Y-88620000D01*
X200959606Y-88026838D01*
X200959606Y-88026837D01*
X200943520Y-88015150D01*
X200782025Y-87932864D01*
X200609640Y-87876852D01*
X200609641Y-87876852D01*
X200430629Y-87848500D01*
X200249371Y-87848500D01*
X200070359Y-87876852D01*
X199897974Y-87932864D01*
X199736484Y-88015147D01*
X199720392Y-88026837D01*
X199720392Y-88026838D01*
X200313554Y-88620000D01*
X200289972Y-88620000D01*
X200193325Y-88645896D01*
X200106675Y-88695924D01*
X200035924Y-88766675D01*
X199985896Y-88853325D01*
X199960000Y-88949972D01*
X199960000Y-88973554D01*
X199366838Y-88380392D01*
X199366837Y-88380392D01*
X199355147Y-88396484D01*
X199272864Y-88557974D01*
X199216852Y-88730359D01*
X199192726Y-88882687D01*
X199162797Y-88945822D01*
X199103485Y-88982753D01*
X199033623Y-88981755D01*
X198975390Y-88943145D01*
X198947780Y-88882687D01*
X198923634Y-88730242D01*
X198923634Y-88730241D01*
X198923634Y-88730239D01*
X198867600Y-88557786D01*
X198785279Y-88396221D01*
X198678696Y-88249523D01*
X198550477Y-88121304D01*
X198403779Y-88014721D01*
X198242214Y-87932400D01*
X198069761Y-87876366D01*
X198069759Y-87876365D01*
X198069757Y-87876365D01*
X197890669Y-87848000D01*
X197890664Y-87848000D01*
X197709336Y-87848000D01*
X197709331Y-87848000D01*
X197530242Y-87876365D01*
X197357783Y-87932401D01*
X197196220Y-88014721D01*
X197179543Y-88026838D01*
X197049523Y-88121304D01*
X197049521Y-88121306D01*
X197049520Y-88121306D01*
X196921306Y-88249520D01*
X196921306Y-88249521D01*
X196921304Y-88249523D01*
X196875531Y-88312523D01*
X196814721Y-88396220D01*
X196732401Y-88557783D01*
X196676365Y-88730242D01*
X196652473Y-88881089D01*
X196622544Y-88944224D01*
X196563232Y-88981155D01*
X196493369Y-88980157D01*
X196435137Y-88941547D01*
X196407527Y-88881089D01*
X196383634Y-88730242D01*
X196383634Y-88730241D01*
X196383634Y-88730239D01*
X196327600Y-88557786D01*
X196245279Y-88396221D01*
X196138696Y-88249523D01*
X196010477Y-88121304D01*
X195863779Y-88014721D01*
X195702214Y-87932400D01*
X195529761Y-87876366D01*
X195529759Y-87876365D01*
X195529757Y-87876365D01*
X195350669Y-87848000D01*
X195350664Y-87848000D01*
X195169336Y-87848000D01*
X195169331Y-87848000D01*
X194990242Y-87876365D01*
X194817783Y-87932401D01*
X194656220Y-88014721D01*
X194639543Y-88026838D01*
X194509523Y-88121304D01*
X194509521Y-88121306D01*
X194509520Y-88121306D01*
X194381306Y-88249520D01*
X194381306Y-88249521D01*
X194381304Y-88249523D01*
X194335531Y-88312523D01*
X194274721Y-88396220D01*
X194192401Y-88557783D01*
X194136365Y-88730242D01*
X194108000Y-88909330D01*
X191332000Y-88909330D01*
X191303634Y-88730242D01*
X191303634Y-88730241D01*
X191303634Y-88730239D01*
X191247600Y-88557786D01*
X191165279Y-88396221D01*
X191058696Y-88249523D01*
X190930477Y-88121304D01*
X190783779Y-88014721D01*
X190622214Y-87932400D01*
X190449761Y-87876366D01*
X190449759Y-87876365D01*
X190449757Y-87876365D01*
X190270669Y-87848000D01*
X190270664Y-87848000D01*
X190089336Y-87848000D01*
X190089331Y-87848000D01*
X189910242Y-87876365D01*
X189737783Y-87932401D01*
X189576220Y-88014721D01*
X189559543Y-88026838D01*
X189429523Y-88121304D01*
X189429521Y-88121306D01*
X189429520Y-88121306D01*
X189301306Y-88249520D01*
X189301306Y-88249521D01*
X189301304Y-88249523D01*
X189255531Y-88312523D01*
X189194721Y-88396220D01*
X189112401Y-88557783D01*
X189056365Y-88730242D01*
X189032473Y-88881089D01*
X189002544Y-88944224D01*
X188943232Y-88981155D01*
X188873369Y-88980157D01*
X188815137Y-88941547D01*
X188787527Y-88881089D01*
X188763634Y-88730242D01*
X188763634Y-88730241D01*
X188763634Y-88730239D01*
X188707600Y-88557786D01*
X188625279Y-88396221D01*
X188518696Y-88249523D01*
X188390477Y-88121304D01*
X188243779Y-88014721D01*
X188082214Y-87932400D01*
X187909761Y-87876366D01*
X187909759Y-87876365D01*
X187909757Y-87876365D01*
X187730669Y-87848000D01*
X187730664Y-87848000D01*
X187549336Y-87848000D01*
X187549331Y-87848000D01*
X187370242Y-87876365D01*
X187197783Y-87932401D01*
X187036220Y-88014721D01*
X187019543Y-88026838D01*
X186889523Y-88121304D01*
X186889521Y-88121306D01*
X186889520Y-88121306D01*
X186761306Y-88249520D01*
X186761306Y-88249521D01*
X186761304Y-88249523D01*
X186715531Y-88312523D01*
X186654721Y-88396220D01*
X186572401Y-88557783D01*
X186516365Y-88730241D01*
X186492219Y-88882688D01*
X186462289Y-88945822D01*
X186402977Y-88982753D01*
X186333115Y-88981755D01*
X186274882Y-88943144D01*
X186247273Y-88882686D01*
X186223147Y-88730360D01*
X186223147Y-88730359D01*
X186167135Y-88557974D01*
X186084848Y-88396478D01*
X186073161Y-88380392D01*
X186073160Y-88380391D01*
X185480000Y-88973551D01*
X185480000Y-88949972D01*
X185454104Y-88853325D01*
X185404076Y-88766675D01*
X185333325Y-88695924D01*
X185246675Y-88645896D01*
X185150028Y-88620000D01*
X185126447Y-88620000D01*
X185719606Y-88026838D01*
X185719606Y-88026837D01*
X185703520Y-88015150D01*
X185542025Y-87932864D01*
X185369640Y-87876852D01*
X185369641Y-87876852D01*
X185190629Y-87848500D01*
X185009371Y-87848500D01*
X184830359Y-87876852D01*
X184657974Y-87932864D01*
X184496484Y-88015147D01*
X184480392Y-88026837D01*
X184480392Y-88026838D01*
X185073554Y-88620000D01*
X185049972Y-88620000D01*
X184953325Y-88645896D01*
X184866675Y-88695924D01*
X184795924Y-88766675D01*
X184745896Y-88853325D01*
X184720000Y-88949972D01*
X184720000Y-88973554D01*
X184126838Y-88380392D01*
X184126837Y-88380392D01*
X184115147Y-88396484D01*
X184032864Y-88557974D01*
X183976852Y-88730359D01*
X183948500Y-88909370D01*
X171000500Y-88909370D01*
X171000500Y-86449982D01*
X175199500Y-86449982D01*
X175199500Y-88130017D01*
X175210000Y-88232796D01*
X175210001Y-88232798D01*
X175265186Y-88399335D01*
X175357288Y-88548656D01*
X175481344Y-88672712D01*
X175630665Y-88764814D01*
X175797202Y-88819999D01*
X175899990Y-88830500D01*
X175899995Y-88830500D01*
X179100005Y-88830500D01*
X179100010Y-88830500D01*
X179202798Y-88819999D01*
X179369335Y-88764814D01*
X179518656Y-88672712D01*
X179642712Y-88548656D01*
X179734814Y-88399335D01*
X179789999Y-88232798D01*
X179800500Y-88130010D01*
X179800500Y-86449990D01*
X179789999Y-86347202D01*
X179734814Y-86180665D01*
X179642712Y-86031344D01*
X179518656Y-85907288D01*
X179369335Y-85815186D01*
X179202798Y-85760001D01*
X179202796Y-85760000D01*
X179100017Y-85749500D01*
X179100010Y-85749500D01*
X175899990Y-85749500D01*
X175899982Y-85749500D01*
X175797203Y-85760000D01*
X175797202Y-85760001D01*
X175714669Y-85787349D01*
X175630667Y-85815185D01*
X175630662Y-85815187D01*
X175481342Y-85907289D01*
X175357289Y-86031342D01*
X175265187Y-86180662D01*
X175265186Y-86180665D01*
X175210001Y-86347202D01*
X175210001Y-86347203D01*
X175210000Y-86347203D01*
X175199500Y-86449982D01*
X171000500Y-86449982D01*
X171000500Y-84277882D01*
X182595669Y-84277882D01*
X182595670Y-84277883D01*
X182621059Y-84296329D01*
X182789362Y-84382085D01*
X182968997Y-84440451D01*
X183155553Y-84470000D01*
X183344447Y-84470000D01*
X183531002Y-84440451D01*
X183710637Y-84382085D01*
X183878937Y-84296331D01*
X183904328Y-84277883D01*
X183904328Y-84277882D01*
X183250001Y-83623554D01*
X183250000Y-83623554D01*
X182595669Y-84277882D01*
X171000500Y-84277882D01*
X171000500Y-81960000D01*
X175220400Y-81960000D01*
X176845879Y-81960000D01*
X176826901Y-82005818D01*
X176800000Y-82141056D01*
X176800000Y-82278944D01*
X176826901Y-82414182D01*
X176845879Y-82460000D01*
X175220400Y-82460000D01*
X175237919Y-82570618D01*
X175312827Y-82801159D01*
X175422874Y-83017136D01*
X175565356Y-83213245D01*
X175736754Y-83384643D01*
X175932863Y-83527125D01*
X176148840Y-83637172D01*
X176379381Y-83712079D01*
X176618800Y-83750000D01*
X177250000Y-83750000D01*
X177250000Y-82864120D01*
X177295818Y-82883099D01*
X177431056Y-82910000D01*
X177568944Y-82910000D01*
X177704182Y-82883099D01*
X177750000Y-82864120D01*
X177750000Y-83750000D01*
X178381200Y-83750000D01*
X178620618Y-83712079D01*
X178851159Y-83637172D01*
X179067136Y-83527125D01*
X179263245Y-83384643D01*
X179434643Y-83213245D01*
X179434643Y-83213244D01*
X179462029Y-83175552D01*
X182050000Y-83175552D01*
X182050000Y-83364447D01*
X182079548Y-83551002D01*
X182137914Y-83730637D01*
X182223666Y-83898933D01*
X182242116Y-83924328D01*
X182896446Y-83270000D01*
X182896446Y-83269999D01*
X182850369Y-83223922D01*
X182900000Y-83223922D01*
X182900000Y-83316078D01*
X182923852Y-83405095D01*
X182969930Y-83484905D01*
X183035095Y-83550070D01*
X183114905Y-83596148D01*
X183203922Y-83620000D01*
X183296078Y-83620000D01*
X183385095Y-83596148D01*
X183464905Y-83550070D01*
X183530070Y-83484905D01*
X183576148Y-83405095D01*
X183600000Y-83316078D01*
X183600000Y-83269999D01*
X183603554Y-83269999D01*
X183603554Y-83270000D01*
X184257882Y-83924328D01*
X184257883Y-83924328D01*
X184276331Y-83898937D01*
X184362085Y-83730637D01*
X184420451Y-83551002D01*
X184450000Y-83364447D01*
X184450000Y-83175552D01*
X184420451Y-82988997D01*
X184362085Y-82809362D01*
X184276329Y-82641059D01*
X184257883Y-82615670D01*
X184257882Y-82615669D01*
X183603554Y-83269999D01*
X183600000Y-83269999D01*
X183600000Y-83223922D01*
X183576148Y-83134905D01*
X183530070Y-83055095D01*
X183464905Y-82989930D01*
X183385095Y-82943852D01*
X183296078Y-82920000D01*
X183203922Y-82920000D01*
X183114905Y-82943852D01*
X183035095Y-82989930D01*
X182969930Y-83055095D01*
X182923852Y-83134905D01*
X182900000Y-83223922D01*
X182850369Y-83223922D01*
X182242116Y-82615669D01*
X182242116Y-82615670D01*
X182223669Y-82641060D01*
X182137914Y-82809362D01*
X182079548Y-82988997D01*
X182050000Y-83175552D01*
X179462029Y-83175552D01*
X179518520Y-83097800D01*
X179518521Y-83097798D01*
X179577123Y-83017139D01*
X179687172Y-82801159D01*
X179762080Y-82570618D01*
X179779600Y-82460000D01*
X178154121Y-82460000D01*
X178173099Y-82414182D01*
X178200000Y-82278944D01*
X178200000Y-82141056D01*
X178173099Y-82005818D01*
X178154121Y-81960000D01*
X179779600Y-81960000D01*
X179762080Y-81849381D01*
X179725851Y-81737882D01*
X182595669Y-81737882D01*
X182595670Y-81737883D01*
X182621059Y-81756329D01*
X182789362Y-81842085D01*
X182912420Y-81882069D01*
X182970095Y-81921506D01*
X182997294Y-81985865D01*
X182985380Y-82054711D01*
X182938136Y-82106187D01*
X182912420Y-82117931D01*
X182789362Y-82157914D01*
X182621060Y-82243669D01*
X182595670Y-82262116D01*
X182595669Y-82262116D01*
X183250000Y-82916446D01*
X183250001Y-82916446D01*
X183904328Y-82262116D01*
X183878933Y-82243666D01*
X183710637Y-82157914D01*
X183587579Y-82117931D01*
X183529904Y-82078494D01*
X183502705Y-82014135D01*
X183514619Y-81945289D01*
X183561863Y-81893813D01*
X183587579Y-81882069D01*
X183710637Y-81842085D01*
X183878937Y-81756331D01*
X183904328Y-81737883D01*
X183904328Y-81737882D01*
X183250001Y-81083554D01*
X183250000Y-81083554D01*
X182595669Y-81737882D01*
X179725851Y-81737882D01*
X179687172Y-81618840D01*
X179577125Y-81402863D01*
X179434643Y-81206754D01*
X179263245Y-81035356D01*
X179067136Y-80892874D01*
X178851159Y-80782827D01*
X178745870Y-80748617D01*
X178620618Y-80707920D01*
X178381200Y-80670000D01*
X177750000Y-80670000D01*
X177750000Y-81555879D01*
X177704182Y-81536901D01*
X177568944Y-81510000D01*
X177431056Y-81510000D01*
X177295818Y-81536901D01*
X177250000Y-81555879D01*
X177250000Y-80670000D01*
X176618800Y-80670000D01*
X176379381Y-80707920D01*
X176148840Y-80782827D01*
X175932863Y-80892874D01*
X175736754Y-81035356D01*
X175565356Y-81206754D01*
X175422874Y-81402863D01*
X175312827Y-81618840D01*
X175237919Y-81849381D01*
X175220400Y-81960000D01*
X171000500Y-81960000D01*
X171000500Y-80635552D01*
X182050000Y-80635552D01*
X182050000Y-80824447D01*
X182079548Y-81011002D01*
X182137914Y-81190637D01*
X182223666Y-81358933D01*
X182242116Y-81384328D01*
X182896446Y-80730000D01*
X182896446Y-80729999D01*
X182850369Y-80683922D01*
X182900000Y-80683922D01*
X182900000Y-80776078D01*
X182923852Y-80865095D01*
X182969930Y-80944905D01*
X183035095Y-81010070D01*
X183114905Y-81056148D01*
X183203922Y-81080000D01*
X183296078Y-81080000D01*
X183385095Y-81056148D01*
X183464905Y-81010070D01*
X183530070Y-80944905D01*
X183576148Y-80865095D01*
X183600000Y-80776078D01*
X183600000Y-80729999D01*
X183603554Y-80729999D01*
X183603554Y-80730000D01*
X184257882Y-81384328D01*
X184257883Y-81384328D01*
X184276331Y-81358937D01*
X184362085Y-81190637D01*
X184420451Y-81011002D01*
X184450000Y-80824447D01*
X184450000Y-80635552D01*
X184449994Y-80635513D01*
X184799500Y-80635513D01*
X184799500Y-80824486D01*
X184829059Y-81011118D01*
X184887454Y-81190836D01*
X184970050Y-81352939D01*
X184973240Y-81359199D01*
X185084310Y-81512073D01*
X185217927Y-81645690D01*
X185370801Y-81756760D01*
X185450347Y-81797290D01*
X185539163Y-81842545D01*
X185539165Y-81842545D01*
X185539168Y-81842547D01*
X185619701Y-81868714D01*
X185660803Y-81882069D01*
X185718478Y-81921507D01*
X185745676Y-81985866D01*
X185733761Y-82054712D01*
X185686516Y-82106188D01*
X185660803Y-82117931D01*
X185539163Y-82157454D01*
X185370800Y-82243240D01*
X185283579Y-82306610D01*
X185217927Y-82354310D01*
X185217925Y-82354312D01*
X185217924Y-82354312D01*
X185084312Y-82487924D01*
X185084312Y-82487925D01*
X185084310Y-82487927D01*
X185045333Y-82541574D01*
X184973240Y-82640800D01*
X184887454Y-82809163D01*
X184829059Y-82988881D01*
X184799500Y-83175513D01*
X184799500Y-83364486D01*
X184829059Y-83551118D01*
X184887454Y-83730836D01*
X184939759Y-83833489D01*
X184973240Y-83899199D01*
X185084310Y-84052073D01*
X185217927Y-84185690D01*
X185370801Y-84296760D01*
X185450347Y-84337290D01*
X185539163Y-84382545D01*
X185539165Y-84382545D01*
X185539168Y-84382547D01*
X185635497Y-84413846D01*
X185718881Y-84440940D01*
X185905514Y-84470500D01*
X185905519Y-84470500D01*
X186094486Y-84470500D01*
X186281118Y-84440940D01*
X186282623Y-84440451D01*
X186460832Y-84382547D01*
X186629199Y-84296760D01*
X186782073Y-84185690D01*
X186915690Y-84052073D01*
X187026760Y-83899199D01*
X187112547Y-83730832D01*
X187170940Y-83551118D01*
X187175685Y-83521153D01*
X190987000Y-83521153D01*
X190987000Y-83678846D01*
X191017761Y-83833489D01*
X191017764Y-83833501D01*
X191059308Y-83933798D01*
X191066777Y-84003267D01*
X191059308Y-84028702D01*
X191017764Y-84128998D01*
X191017761Y-84129010D01*
X190987000Y-84283653D01*
X190987000Y-84441346D01*
X191017761Y-84595989D01*
X191017764Y-84596001D01*
X191078102Y-84741672D01*
X191078109Y-84741685D01*
X191165710Y-84872788D01*
X191165713Y-84872792D01*
X191277207Y-84984286D01*
X191277211Y-84984289D01*
X191408314Y-85071890D01*
X191408327Y-85071897D01*
X191553998Y-85132235D01*
X191554003Y-85132237D01*
X191708653Y-85162999D01*
X191708656Y-85163000D01*
X191708658Y-85163000D01*
X191866344Y-85163000D01*
X191866345Y-85162999D01*
X192020997Y-85132237D01*
X192166679Y-85071894D01*
X192297789Y-84984289D01*
X192409289Y-84872789D01*
X192496894Y-84741679D01*
X192557237Y-84595997D01*
X192588000Y-84441342D01*
X192588000Y-84283658D01*
X192588000Y-84283655D01*
X192587999Y-84283653D01*
X192557238Y-84129010D01*
X192557237Y-84129003D01*
X192515690Y-84028700D01*
X192508222Y-83959234D01*
X192515691Y-83933798D01*
X192557237Y-83833497D01*
X192588000Y-83678842D01*
X192588000Y-83521158D01*
X192588000Y-83521155D01*
X192587999Y-83521153D01*
X192557238Y-83366510D01*
X192557237Y-83366503D01*
X192556402Y-83364486D01*
X192496897Y-83220827D01*
X192496890Y-83220814D01*
X192409289Y-83089711D01*
X192409286Y-83089707D01*
X192297792Y-82978213D01*
X192297788Y-82978210D01*
X192166685Y-82890609D01*
X192166672Y-82890602D01*
X192021001Y-82830264D01*
X192020989Y-82830261D01*
X191866345Y-82799500D01*
X191866342Y-82799500D01*
X191708658Y-82799500D01*
X191708655Y-82799500D01*
X191554010Y-82830261D01*
X191553998Y-82830264D01*
X191408327Y-82890602D01*
X191408314Y-82890609D01*
X191277211Y-82978210D01*
X191277207Y-82978213D01*
X191165713Y-83089707D01*
X191165710Y-83089711D01*
X191078109Y-83220814D01*
X191078102Y-83220827D01*
X191017764Y-83366498D01*
X191017761Y-83366510D01*
X190987000Y-83521153D01*
X187175685Y-83521153D01*
X187176280Y-83517396D01*
X187179723Y-83495667D01*
X187179723Y-83495666D01*
X187200500Y-83364486D01*
X187200500Y-83175513D01*
X187170940Y-82988881D01*
X187136569Y-82883099D01*
X187112547Y-82809168D01*
X187112545Y-82809165D01*
X187112545Y-82809163D01*
X187031702Y-82650501D01*
X187026760Y-82640801D01*
X186915690Y-82487927D01*
X186782073Y-82354310D01*
X186629199Y-82243240D01*
X186460836Y-82157454D01*
X186386472Y-82133291D01*
X186339195Y-82117930D01*
X186281521Y-82078493D01*
X186254323Y-82014134D01*
X186266238Y-81945288D01*
X186313482Y-81893812D01*
X186339194Y-81882069D01*
X186460832Y-81842547D01*
X186629199Y-81756760D01*
X186782073Y-81645690D01*
X186915690Y-81512073D01*
X187026760Y-81359199D01*
X187112547Y-81190832D01*
X187170940Y-81011118D01*
X187181427Y-80944905D01*
X187200500Y-80824486D01*
X187200500Y-80635513D01*
X187170940Y-80448881D01*
X187124061Y-80304604D01*
X187112547Y-80269168D01*
X187112545Y-80269165D01*
X187112545Y-80269163D01*
X187049093Y-80144632D01*
X187026760Y-80100801D01*
X186915690Y-79947927D01*
X186782073Y-79814310D01*
X186629199Y-79703240D01*
X186613804Y-79695396D01*
X186460836Y-79617454D01*
X186281118Y-79559059D01*
X186094486Y-79529500D01*
X186094481Y-79529500D01*
X185905519Y-79529500D01*
X185905514Y-79529500D01*
X185718881Y-79559059D01*
X185539163Y-79617454D01*
X185370800Y-79703240D01*
X185292280Y-79760289D01*
X185217927Y-79814310D01*
X185217925Y-79814312D01*
X185217924Y-79814312D01*
X185084312Y-79947924D01*
X185084312Y-79947925D01*
X185084310Y-79947927D01*
X185036610Y-80013579D01*
X184973240Y-80100800D01*
X184887454Y-80269163D01*
X184829059Y-80448881D01*
X184799500Y-80635513D01*
X184449994Y-80635513D01*
X184420451Y-80448997D01*
X184362085Y-80269362D01*
X184276329Y-80101059D01*
X184257883Y-80075670D01*
X184257882Y-80075669D01*
X183603554Y-80729999D01*
X183600000Y-80729999D01*
X183600000Y-80683922D01*
X183576148Y-80594905D01*
X183530070Y-80515095D01*
X183464905Y-80449930D01*
X183385095Y-80403852D01*
X183296078Y-80380000D01*
X183203922Y-80380000D01*
X183114905Y-80403852D01*
X183035095Y-80449930D01*
X182969930Y-80515095D01*
X182923852Y-80594905D01*
X182900000Y-80683922D01*
X182850369Y-80683922D01*
X182242116Y-80075669D01*
X182242116Y-80075670D01*
X182223669Y-80101060D01*
X182137914Y-80269362D01*
X182079548Y-80448997D01*
X182050000Y-80635552D01*
X171000500Y-80635552D01*
X171000500Y-79722116D01*
X182595669Y-79722116D01*
X183250000Y-80376446D01*
X183250001Y-80376446D01*
X183904328Y-79722116D01*
X183878933Y-79703666D01*
X183710637Y-79617914D01*
X183531002Y-79559548D01*
X183344447Y-79530000D01*
X183155553Y-79530000D01*
X182968997Y-79559548D01*
X182789362Y-79617914D01*
X182621060Y-79703669D01*
X182595670Y-79722116D01*
X182595669Y-79722116D01*
X171000500Y-79722116D01*
X171000500Y-77821153D01*
X187949500Y-77821153D01*
X187949500Y-77978846D01*
X187980261Y-78133489D01*
X187980264Y-78133501D01*
X188040602Y-78279172D01*
X188040609Y-78279185D01*
X188128602Y-78410874D01*
X188134252Y-78428920D01*
X188144477Y-78444830D01*
X188148928Y-78475789D01*
X188149480Y-78477551D01*
X188149500Y-78479765D01*
X188149500Y-78670234D01*
X188129815Y-78737273D01*
X188128602Y-78739125D01*
X188040609Y-78870814D01*
X188040602Y-78870827D01*
X187980264Y-79016498D01*
X187980261Y-79016510D01*
X187949500Y-79171153D01*
X187949500Y-79328846D01*
X187980261Y-79483489D01*
X187980264Y-79483501D01*
X188040602Y-79629172D01*
X188040609Y-79629185D01*
X188128210Y-79760288D01*
X188128213Y-79760292D01*
X188239707Y-79871786D01*
X188239711Y-79871789D01*
X188370814Y-79959390D01*
X188370827Y-79959397D01*
X188516498Y-80019735D01*
X188516503Y-80019737D01*
X188671153Y-80050499D01*
X188671156Y-80050500D01*
X188671158Y-80050500D01*
X188828844Y-80050500D01*
X188828845Y-80050499D01*
X188983497Y-80019737D01*
X189129179Y-79959394D01*
X189260289Y-79871789D01*
X189371789Y-79760289D01*
X189459394Y-79629179D01*
X189519737Y-79483497D01*
X189550500Y-79328842D01*
X189550500Y-79171158D01*
X189550500Y-79171155D01*
X189550499Y-79171153D01*
X189545356Y-79145300D01*
X189519737Y-79016503D01*
X189512968Y-79000161D01*
X189459397Y-78870827D01*
X189459390Y-78870814D01*
X189371398Y-78739125D01*
X189365747Y-78721078D01*
X189355523Y-78705169D01*
X189351071Y-78674207D01*
X189350520Y-78672447D01*
X189350500Y-78670234D01*
X189350500Y-78479765D01*
X189370185Y-78412726D01*
X189371398Y-78410874D01*
X189426208Y-78328846D01*
X189459394Y-78279179D01*
X189519737Y-78133497D01*
X189550500Y-77978842D01*
X189550500Y-77821158D01*
X189550500Y-77821155D01*
X189550499Y-77821153D01*
X189519738Y-77666510D01*
X189519737Y-77666503D01*
X189483427Y-77578842D01*
X189459397Y-77520827D01*
X189459390Y-77520814D01*
X189371789Y-77389711D01*
X189371786Y-77389707D01*
X189260292Y-77278213D01*
X189260288Y-77278210D01*
X189129185Y-77190609D01*
X189129172Y-77190602D01*
X188983501Y-77130264D01*
X188983489Y-77130261D01*
X188828845Y-77099500D01*
X188828842Y-77099500D01*
X188671158Y-77099500D01*
X188671155Y-77099500D01*
X188516510Y-77130261D01*
X188516498Y-77130264D01*
X188370827Y-77190602D01*
X188370814Y-77190609D01*
X188239711Y-77278210D01*
X188239707Y-77278213D01*
X188128213Y-77389707D01*
X188128210Y-77389711D01*
X188040609Y-77520814D01*
X188040602Y-77520827D01*
X187980264Y-77666498D01*
X187980261Y-77666510D01*
X187949500Y-77821153D01*
X171000500Y-77821153D01*
X171000500Y-72452135D01*
X174709500Y-72452135D01*
X174709500Y-73547870D01*
X174709501Y-73547876D01*
X174715908Y-73607483D01*
X174766202Y-73742328D01*
X174766206Y-73742335D01*
X174852452Y-73857544D01*
X174852455Y-73857547D01*
X174967664Y-73943793D01*
X174967671Y-73943797D01*
X175102517Y-73994091D01*
X175102516Y-73994091D01*
X175109444Y-73994835D01*
X175162127Y-74000500D01*
X176257872Y-74000499D01*
X176317483Y-73994091D01*
X176452331Y-73943796D01*
X176464575Y-73934629D01*
X176530035Y-73910210D01*
X176586339Y-73919333D01*
X176688308Y-73961569D01*
X176730000Y-73969862D01*
X176730000Y-73209618D01*
X176780446Y-73260064D01*
X176854555Y-73302851D01*
X176937213Y-73325000D01*
X177022787Y-73325000D01*
X177105445Y-73302851D01*
X177179554Y-73260064D01*
X177230000Y-73209618D01*
X177230000Y-73969862D01*
X177271690Y-73961569D01*
X177271692Y-73961569D01*
X177453673Y-73886191D01*
X177453676Y-73886189D01*
X177545657Y-73824729D01*
X177612334Y-73803850D01*
X177679715Y-73822334D01*
X177683440Y-73824728D01*
X177776079Y-73886628D01*
X177776092Y-73886635D01*
X177957001Y-73961569D01*
X177958165Y-73962051D01*
X177958169Y-73962051D01*
X177958170Y-73962052D01*
X178151456Y-74000500D01*
X178151459Y-74000500D01*
X178348543Y-74000500D01*
X178502567Y-73969862D01*
X178541835Y-73962051D01*
X178723914Y-73886632D01*
X178816109Y-73825029D01*
X178882786Y-73804151D01*
X178950166Y-73822635D01*
X178953891Y-73825029D01*
X179028678Y-73875000D01*
X179046086Y-73886632D01*
X179046088Y-73886633D01*
X179046092Y-73886635D01*
X179227001Y-73961569D01*
X179228165Y-73962051D01*
X179228169Y-73962051D01*
X179228170Y-73962052D01*
X179421456Y-74000500D01*
X179421459Y-74000500D01*
X179618543Y-74000500D01*
X179772567Y-73969862D01*
X179811835Y-73962051D01*
X179993914Y-73886632D01*
X180086109Y-73825029D01*
X180152786Y-73804151D01*
X180220166Y-73822635D01*
X180223891Y-73825029D01*
X180298678Y-73875000D01*
X180316086Y-73886632D01*
X180316088Y-73886633D01*
X180316092Y-73886635D01*
X180497001Y-73961569D01*
X180498165Y-73962051D01*
X180498169Y-73962051D01*
X180498170Y-73962052D01*
X180691456Y-74000500D01*
X180691459Y-74000500D01*
X180888543Y-74000500D01*
X181042567Y-73969862D01*
X181081835Y-73962051D01*
X181263914Y-73886632D01*
X181356109Y-73825029D01*
X181422786Y-73804151D01*
X181490166Y-73822635D01*
X181493891Y-73825029D01*
X181568678Y-73875000D01*
X181586086Y-73886632D01*
X181586088Y-73886633D01*
X181586092Y-73886635D01*
X181767001Y-73961569D01*
X181768165Y-73962051D01*
X181768169Y-73962051D01*
X181768170Y-73962052D01*
X181961456Y-74000500D01*
X181961459Y-74000500D01*
X182158543Y-74000500D01*
X182312567Y-73969862D01*
X182351835Y-73962051D01*
X182533914Y-73886632D01*
X182697782Y-73777139D01*
X182741432Y-73733489D01*
X182838103Y-73636819D01*
X182899426Y-73603334D01*
X182925784Y-73600500D01*
X187790902Y-73600500D01*
X187857941Y-73620185D01*
X187903696Y-73672989D01*
X187913640Y-73742147D01*
X187884615Y-73805703D01*
X187878583Y-73812181D01*
X185827584Y-75863181D01*
X185766261Y-75896666D01*
X185739903Y-75899500D01*
X182945784Y-75899500D01*
X182878745Y-75879815D01*
X182858103Y-75863181D01*
X182717785Y-75722863D01*
X182717781Y-75722860D01*
X182553920Y-75613371D01*
X182553907Y-75613364D01*
X182371839Y-75537950D01*
X182371829Y-75537947D01*
X182178543Y-75499500D01*
X182178541Y-75499500D01*
X181981459Y-75499500D01*
X181981457Y-75499500D01*
X181788170Y-75537947D01*
X181788160Y-75537950D01*
X181606089Y-75613366D01*
X181513890Y-75674971D01*
X181447213Y-75695848D01*
X181379833Y-75677363D01*
X181376110Y-75674971D01*
X181327441Y-75642452D01*
X181283914Y-75613368D01*
X181283911Y-75613366D01*
X181283910Y-75613366D01*
X181101839Y-75537950D01*
X181101829Y-75537947D01*
X180908543Y-75499500D01*
X180908541Y-75499500D01*
X180711459Y-75499500D01*
X180711457Y-75499500D01*
X180518170Y-75537947D01*
X180518160Y-75537950D01*
X180336089Y-75613366D01*
X180243890Y-75674971D01*
X180177213Y-75695848D01*
X180109833Y-75677363D01*
X180106110Y-75674971D01*
X180057441Y-75642452D01*
X180013914Y-75613368D01*
X180013911Y-75613366D01*
X180013910Y-75613366D01*
X179831839Y-75537950D01*
X179831829Y-75537947D01*
X179638543Y-75499500D01*
X179638541Y-75499500D01*
X179441459Y-75499500D01*
X179441457Y-75499500D01*
X179248170Y-75537947D01*
X179248160Y-75537950D01*
X179066089Y-75613366D01*
X178973890Y-75674971D01*
X178907213Y-75695848D01*
X178839833Y-75677363D01*
X178836110Y-75674971D01*
X178787441Y-75642452D01*
X178743914Y-75613368D01*
X178743911Y-75613366D01*
X178743910Y-75613366D01*
X178561839Y-75537950D01*
X178561829Y-75537947D01*
X178368543Y-75499500D01*
X178368541Y-75499500D01*
X178171459Y-75499500D01*
X178171457Y-75499500D01*
X177978170Y-75537947D01*
X177978160Y-75537950D01*
X177796093Y-75613364D01*
X177796082Y-75613370D01*
X177703440Y-75675271D01*
X177636762Y-75696148D01*
X177569382Y-75677663D01*
X177565659Y-75675270D01*
X177473684Y-75613814D01*
X177473671Y-75613807D01*
X177291691Y-75538429D01*
X177291683Y-75538427D01*
X177250000Y-75530135D01*
X177250000Y-76290382D01*
X177199554Y-76239936D01*
X177125445Y-76197149D01*
X177042787Y-76175000D01*
X176957213Y-76175000D01*
X176874555Y-76197149D01*
X176800446Y-76239936D01*
X176750000Y-76290382D01*
X176750000Y-75530136D01*
X176749999Y-75530135D01*
X176708316Y-75538427D01*
X176606339Y-75580666D01*
X176536870Y-75588133D01*
X176484578Y-75565372D01*
X176472330Y-75556203D01*
X176472328Y-75556202D01*
X176337482Y-75505908D01*
X176337483Y-75505908D01*
X176277883Y-75499501D01*
X176277881Y-75499500D01*
X176277873Y-75499500D01*
X176277864Y-75499500D01*
X175182129Y-75499500D01*
X175182123Y-75499501D01*
X175122516Y-75505908D01*
X174987671Y-75556202D01*
X174987664Y-75556206D01*
X174872455Y-75642452D01*
X174872452Y-75642455D01*
X174786206Y-75757664D01*
X174786202Y-75757671D01*
X174735908Y-75892517D01*
X174729501Y-75952116D01*
X174729500Y-75952135D01*
X174729500Y-77047870D01*
X174729501Y-77047876D01*
X174735908Y-77107483D01*
X174786202Y-77242328D01*
X174786206Y-77242335D01*
X174872452Y-77357544D01*
X174872455Y-77357547D01*
X174987664Y-77443793D01*
X174987671Y-77443797D01*
X175122517Y-77494091D01*
X175122516Y-77494091D01*
X175129444Y-77494835D01*
X175182127Y-77500500D01*
X176277872Y-77500499D01*
X176337483Y-77494091D01*
X176472331Y-77443796D01*
X176484575Y-77434629D01*
X176550035Y-77410210D01*
X176606339Y-77419333D01*
X176708308Y-77461569D01*
X176750000Y-77469862D01*
X176750000Y-76709618D01*
X176800446Y-76760064D01*
X176874555Y-76802851D01*
X176957213Y-76825000D01*
X177042787Y-76825000D01*
X177125445Y-76802851D01*
X177199554Y-76760064D01*
X177250000Y-76709618D01*
X177250000Y-77469862D01*
X177291690Y-77461569D01*
X177291692Y-77461569D01*
X177473673Y-77386191D01*
X177473676Y-77386189D01*
X177565657Y-77324729D01*
X177632334Y-77303850D01*
X177699715Y-77322334D01*
X177703440Y-77324728D01*
X177796079Y-77386628D01*
X177796092Y-77386635D01*
X177935213Y-77444260D01*
X177978165Y-77462051D01*
X177978169Y-77462051D01*
X177978170Y-77462052D01*
X178171456Y-77500500D01*
X178171459Y-77500500D01*
X178368543Y-77500500D01*
X178522567Y-77469862D01*
X178561835Y-77462051D01*
X178743914Y-77386632D01*
X178836109Y-77325029D01*
X178902786Y-77304151D01*
X178970166Y-77322635D01*
X178973891Y-77325029D01*
X179065423Y-77386189D01*
X179066086Y-77386632D01*
X179066088Y-77386633D01*
X179066092Y-77386635D01*
X179205213Y-77444260D01*
X179248165Y-77462051D01*
X179248169Y-77462051D01*
X179248170Y-77462052D01*
X179441456Y-77500500D01*
X179441459Y-77500500D01*
X179638543Y-77500500D01*
X179792567Y-77469862D01*
X179831835Y-77462051D01*
X180013914Y-77386632D01*
X180106109Y-77325029D01*
X180172786Y-77304151D01*
X180240166Y-77322635D01*
X180243891Y-77325029D01*
X180335423Y-77386189D01*
X180336086Y-77386632D01*
X180336088Y-77386633D01*
X180336092Y-77386635D01*
X180475213Y-77444260D01*
X180518165Y-77462051D01*
X180518169Y-77462051D01*
X180518170Y-77462052D01*
X180711456Y-77500500D01*
X180711459Y-77500500D01*
X180908543Y-77500500D01*
X181062567Y-77469862D01*
X181101835Y-77462051D01*
X181283914Y-77386632D01*
X181376109Y-77325029D01*
X181442786Y-77304151D01*
X181510166Y-77322635D01*
X181513891Y-77325029D01*
X181605423Y-77386189D01*
X181606086Y-77386632D01*
X181606088Y-77386633D01*
X181606092Y-77386635D01*
X181745213Y-77444260D01*
X181788165Y-77462051D01*
X181788169Y-77462051D01*
X181788170Y-77462052D01*
X181981456Y-77500500D01*
X181981459Y-77500500D01*
X182178543Y-77500500D01*
X182332567Y-77469862D01*
X182371835Y-77462051D01*
X182553914Y-77386632D01*
X182717782Y-77277139D01*
X182764401Y-77230520D01*
X182858103Y-77136819D01*
X182919426Y-77103334D01*
X182945784Y-77100500D01*
X185953331Y-77100500D01*
X185953347Y-77100501D01*
X185960943Y-77100501D01*
X186119054Y-77100501D01*
X186119057Y-77100501D01*
X186271785Y-77059577D01*
X186341233Y-77019481D01*
X186408716Y-76980520D01*
X186468083Y-76921153D01*
X190987000Y-76921153D01*
X190987000Y-77078846D01*
X191017761Y-77233489D01*
X191017763Y-77233497D01*
X191027561Y-77257151D01*
X191029187Y-77265328D01*
X191031977Y-77269669D01*
X191037000Y-77304604D01*
X191037000Y-77445396D01*
X191027562Y-77492844D01*
X191024392Y-77500499D01*
X191017762Y-77516506D01*
X191017760Y-77516511D01*
X190987000Y-77671153D01*
X190987000Y-77828846D01*
X191017761Y-77983489D01*
X191017763Y-77983497D01*
X191027561Y-78007151D01*
X191037000Y-78054604D01*
X191037000Y-79695396D01*
X191027562Y-79742844D01*
X191020337Y-79760289D01*
X191017762Y-79766506D01*
X191017760Y-79766511D01*
X190987000Y-79921153D01*
X190987000Y-80078846D01*
X191017761Y-80233489D01*
X191017763Y-80233497D01*
X191027561Y-80257151D01*
X191029187Y-80265328D01*
X191031977Y-80269669D01*
X191037000Y-80304604D01*
X191037000Y-80495396D01*
X191027562Y-80542844D01*
X191017763Y-80566503D01*
X191017762Y-80566506D01*
X191017760Y-80566511D01*
X190987000Y-80721153D01*
X190987000Y-80878846D01*
X191017761Y-81033489D01*
X191017764Y-81033501D01*
X191078102Y-81179172D01*
X191078109Y-81179185D01*
X191165710Y-81310288D01*
X191165713Y-81310292D01*
X191277207Y-81421786D01*
X191277211Y-81421789D01*
X191408314Y-81509390D01*
X191408327Y-81509397D01*
X191553998Y-81569735D01*
X191554003Y-81569737D01*
X191708653Y-81600499D01*
X191708656Y-81600500D01*
X191708658Y-81600500D01*
X191866344Y-81600500D01*
X191866345Y-81600499D01*
X192020997Y-81569737D01*
X192133666Y-81523067D01*
X192166672Y-81509397D01*
X192166672Y-81509396D01*
X192166679Y-81509394D01*
X192297789Y-81421789D01*
X192409289Y-81310289D01*
X192496894Y-81179179D01*
X192557237Y-81033497D01*
X192588000Y-80878842D01*
X192588000Y-80721158D01*
X192588000Y-80721155D01*
X192587999Y-80721153D01*
X192557239Y-80566511D01*
X192557238Y-80566508D01*
X192557237Y-80566503D01*
X192547437Y-80542844D01*
X192545811Y-80534670D01*
X192543023Y-80530331D01*
X192538000Y-80495396D01*
X192538000Y-80304604D01*
X192547439Y-80257151D01*
X192557237Y-80233497D01*
X192588000Y-80078842D01*
X192588000Y-79921158D01*
X192588000Y-79921155D01*
X192587999Y-79921153D01*
X192557239Y-79766511D01*
X192557238Y-79766508D01*
X192557237Y-79766503D01*
X192547437Y-79742844D01*
X192538000Y-79695396D01*
X192538000Y-78054604D01*
X192547439Y-78007151D01*
X192557237Y-77983497D01*
X192588000Y-77828842D01*
X192588000Y-77671158D01*
X192588000Y-77671155D01*
X192587999Y-77671153D01*
X192557239Y-77516511D01*
X192557238Y-77516508D01*
X192557237Y-77516503D01*
X192547437Y-77492844D01*
X192545811Y-77484670D01*
X192543023Y-77480331D01*
X192538000Y-77445396D01*
X192538000Y-77304604D01*
X192547439Y-77257151D01*
X192557237Y-77233497D01*
X192588000Y-77078842D01*
X192588000Y-76921158D01*
X192588000Y-76921155D01*
X192587999Y-76921153D01*
X192557237Y-76766503D01*
X192517655Y-76670943D01*
X192496897Y-76620827D01*
X192496890Y-76620814D01*
X192409289Y-76489711D01*
X192409286Y-76489707D01*
X192297792Y-76378213D01*
X192297788Y-76378210D01*
X192166685Y-76290609D01*
X192166672Y-76290602D01*
X192021001Y-76230264D01*
X192020989Y-76230261D01*
X191866345Y-76199500D01*
X191866342Y-76199500D01*
X191708658Y-76199500D01*
X191708655Y-76199500D01*
X191554010Y-76230261D01*
X191553998Y-76230264D01*
X191408327Y-76290602D01*
X191408314Y-76290609D01*
X191277211Y-76378210D01*
X191277207Y-76378213D01*
X191165713Y-76489707D01*
X191165710Y-76489711D01*
X191078109Y-76620814D01*
X191078102Y-76620827D01*
X191017764Y-76766498D01*
X191017761Y-76766510D01*
X190987000Y-76921153D01*
X186468083Y-76921153D01*
X186520520Y-76868716D01*
X186520520Y-76868714D01*
X186530723Y-76858512D01*
X186530727Y-76858506D01*
X189284662Y-74104572D01*
X189345983Y-74071089D01*
X189348150Y-74070638D01*
X189406085Y-74059113D01*
X189503497Y-74039737D01*
X189649179Y-73979394D01*
X189780289Y-73891789D01*
X189891789Y-73780289D01*
X189979394Y-73649179D01*
X190039737Y-73503497D01*
X190070500Y-73348842D01*
X190070500Y-73191158D01*
X190070500Y-73191155D01*
X190070499Y-73191153D01*
X190067136Y-73174245D01*
X190039737Y-73036503D01*
X190020354Y-72989707D01*
X189979397Y-72890827D01*
X189979390Y-72890814D01*
X189891789Y-72759711D01*
X189891786Y-72759707D01*
X189780292Y-72648213D01*
X189780288Y-72648210D01*
X189717745Y-72606420D01*
X189672940Y-72552808D01*
X189664233Y-72483483D01*
X189694387Y-72420455D01*
X189717744Y-72400216D01*
X189760289Y-72371789D01*
X189871789Y-72260289D01*
X189959394Y-72129179D01*
X190019737Y-71983497D01*
X190050500Y-71828842D01*
X190050500Y-71671158D01*
X190050500Y-71671155D01*
X190050499Y-71671153D01*
X190040037Y-71618556D01*
X190019737Y-71516503D01*
X190019735Y-71516498D01*
X189959397Y-71370827D01*
X189959390Y-71370814D01*
X189871789Y-71239711D01*
X189871786Y-71239707D01*
X189760292Y-71128213D01*
X189760288Y-71128210D01*
X189629185Y-71040609D01*
X189629172Y-71040602D01*
X189483501Y-70980264D01*
X189483489Y-70980261D01*
X189328845Y-70949500D01*
X189328842Y-70949500D01*
X189171158Y-70949500D01*
X189171155Y-70949500D01*
X189016510Y-70980261D01*
X189016498Y-70980264D01*
X188870827Y-71040602D01*
X188870814Y-71040609D01*
X188739711Y-71128210D01*
X188739707Y-71128213D01*
X188628213Y-71239707D01*
X188628210Y-71239711D01*
X188540609Y-71370814D01*
X188540602Y-71370827D01*
X188480264Y-71516498D01*
X188480261Y-71516508D01*
X188449361Y-71671850D01*
X188416976Y-71733761D01*
X188415425Y-71735339D01*
X187787584Y-72363181D01*
X187726261Y-72396666D01*
X187699903Y-72399500D01*
X182925784Y-72399500D01*
X182858745Y-72379815D01*
X182838103Y-72363181D01*
X182697785Y-72222863D01*
X182697781Y-72222860D01*
X182533920Y-72113371D01*
X182533907Y-72113364D01*
X182351839Y-72037950D01*
X182351829Y-72037947D01*
X182158543Y-71999500D01*
X182158541Y-71999500D01*
X181961459Y-71999500D01*
X181961457Y-71999500D01*
X181768170Y-72037947D01*
X181768160Y-72037950D01*
X181586089Y-72113366D01*
X181493890Y-72174971D01*
X181427213Y-72195848D01*
X181359833Y-72177363D01*
X181356110Y-72174971D01*
X181329740Y-72157352D01*
X181263914Y-72113368D01*
X181263911Y-72113366D01*
X181263910Y-72113366D01*
X181081839Y-72037950D01*
X181081829Y-72037947D01*
X180888543Y-71999500D01*
X180888541Y-71999500D01*
X180691459Y-71999500D01*
X180691457Y-71999500D01*
X180498170Y-72037947D01*
X180498160Y-72037950D01*
X180316089Y-72113366D01*
X180223890Y-72174971D01*
X180157213Y-72195848D01*
X180089833Y-72177363D01*
X180086110Y-72174971D01*
X180059740Y-72157352D01*
X179993914Y-72113368D01*
X179993911Y-72113366D01*
X179993910Y-72113366D01*
X179811839Y-72037950D01*
X179811829Y-72037947D01*
X179618543Y-71999500D01*
X179618541Y-71999500D01*
X179421459Y-71999500D01*
X179421457Y-71999500D01*
X179228170Y-72037947D01*
X179228160Y-72037950D01*
X179046089Y-72113366D01*
X178953890Y-72174971D01*
X178887213Y-72195848D01*
X178819833Y-72177363D01*
X178816110Y-72174971D01*
X178789740Y-72157352D01*
X178723914Y-72113368D01*
X178723911Y-72113366D01*
X178723910Y-72113366D01*
X178541839Y-72037950D01*
X178541829Y-72037947D01*
X178348543Y-71999500D01*
X178348541Y-71999500D01*
X178151459Y-71999500D01*
X178151457Y-71999500D01*
X177958170Y-72037947D01*
X177958160Y-72037950D01*
X177776093Y-72113364D01*
X177776082Y-72113370D01*
X177683440Y-72175271D01*
X177616762Y-72196148D01*
X177549382Y-72177663D01*
X177545659Y-72175270D01*
X177453684Y-72113814D01*
X177453671Y-72113807D01*
X177271691Y-72038429D01*
X177271683Y-72038427D01*
X177230000Y-72030135D01*
X177230000Y-72790382D01*
X177179554Y-72739936D01*
X177105445Y-72697149D01*
X177022787Y-72675000D01*
X176937213Y-72675000D01*
X176854555Y-72697149D01*
X176780446Y-72739936D01*
X176730000Y-72790382D01*
X176730000Y-72030136D01*
X176729999Y-72030135D01*
X176688316Y-72038427D01*
X176586339Y-72080666D01*
X176516870Y-72088133D01*
X176464578Y-72065372D01*
X176452330Y-72056203D01*
X176452328Y-72056202D01*
X176317482Y-72005908D01*
X176317483Y-72005908D01*
X176257883Y-71999501D01*
X176257881Y-71999500D01*
X176257873Y-71999500D01*
X176257864Y-71999500D01*
X175162129Y-71999500D01*
X175162123Y-71999501D01*
X175102516Y-72005908D01*
X174967671Y-72056202D01*
X174967664Y-72056206D01*
X174852455Y-72142452D01*
X174852452Y-72142455D01*
X174766206Y-72257664D01*
X174766202Y-72257671D01*
X174715908Y-72392517D01*
X174709501Y-72452116D01*
X174709500Y-72452135D01*
X171000500Y-72452135D01*
X171000500Y-68952135D01*
X174729500Y-68952135D01*
X174729500Y-70047870D01*
X174729501Y-70047876D01*
X174735908Y-70107483D01*
X174786202Y-70242328D01*
X174786206Y-70242335D01*
X174872452Y-70357544D01*
X174872455Y-70357547D01*
X174987664Y-70443793D01*
X174987671Y-70443797D01*
X175122517Y-70494091D01*
X175122516Y-70494091D01*
X175129444Y-70494835D01*
X175182127Y-70500500D01*
X176277872Y-70500499D01*
X176337483Y-70494091D01*
X176472331Y-70443796D01*
X176484575Y-70434629D01*
X176550035Y-70410210D01*
X176606339Y-70419333D01*
X176708308Y-70461569D01*
X176750000Y-70469862D01*
X176750000Y-69709618D01*
X176800446Y-69760064D01*
X176874555Y-69802851D01*
X176957213Y-69825000D01*
X177042787Y-69825000D01*
X177125445Y-69802851D01*
X177199554Y-69760064D01*
X177250000Y-69709618D01*
X177250000Y-70469862D01*
X177291690Y-70461569D01*
X177291692Y-70461569D01*
X177473673Y-70386191D01*
X177473676Y-70386189D01*
X177565657Y-70324729D01*
X177632334Y-70303850D01*
X177699715Y-70322334D01*
X177703440Y-70324728D01*
X177796079Y-70386628D01*
X177796092Y-70386635D01*
X177977001Y-70461569D01*
X177978165Y-70462051D01*
X177978169Y-70462051D01*
X177978170Y-70462052D01*
X178171456Y-70500500D01*
X178171459Y-70500500D01*
X178368543Y-70500500D01*
X178522567Y-70469862D01*
X178561835Y-70462051D01*
X178743914Y-70386632D01*
X178836109Y-70325029D01*
X178902786Y-70304151D01*
X178970166Y-70322635D01*
X178973891Y-70325029D01*
X179024105Y-70358581D01*
X179066086Y-70386632D01*
X179066088Y-70386633D01*
X179066092Y-70386635D01*
X179247001Y-70461569D01*
X179248165Y-70462051D01*
X179248169Y-70462051D01*
X179248170Y-70462052D01*
X179441456Y-70500500D01*
X179441459Y-70500500D01*
X179638543Y-70500500D01*
X179792567Y-70469862D01*
X179831835Y-70462051D01*
X180013914Y-70386632D01*
X180106109Y-70325029D01*
X180172786Y-70304151D01*
X180240166Y-70322635D01*
X180243891Y-70325029D01*
X180294105Y-70358581D01*
X180336086Y-70386632D01*
X180336088Y-70386633D01*
X180336092Y-70386635D01*
X180517001Y-70461569D01*
X180518165Y-70462051D01*
X180518169Y-70462051D01*
X180518170Y-70462052D01*
X180711456Y-70500500D01*
X180711459Y-70500500D01*
X180908543Y-70500500D01*
X181062567Y-70469862D01*
X181101835Y-70462051D01*
X181283914Y-70386632D01*
X181376109Y-70325029D01*
X181442786Y-70304151D01*
X181510166Y-70322635D01*
X181513891Y-70325029D01*
X181564105Y-70358581D01*
X181606086Y-70386632D01*
X181606088Y-70386633D01*
X181606092Y-70386635D01*
X181787001Y-70461569D01*
X181788165Y-70462051D01*
X181788169Y-70462051D01*
X181788170Y-70462052D01*
X181981456Y-70500500D01*
X181981459Y-70500500D01*
X182178543Y-70500500D01*
X182332567Y-70469862D01*
X182371835Y-70462051D01*
X182553914Y-70386632D01*
X182717782Y-70277139D01*
X182785531Y-70209390D01*
X182858103Y-70136819D01*
X182919426Y-70103334D01*
X182945784Y-70100500D01*
X187420234Y-70100500D01*
X187487273Y-70120185D01*
X187489125Y-70121398D01*
X187620814Y-70209390D01*
X187620827Y-70209397D01*
X187700348Y-70242335D01*
X187766503Y-70269737D01*
X187921153Y-70300499D01*
X187921156Y-70300500D01*
X187921158Y-70300500D01*
X188078844Y-70300500D01*
X188078845Y-70300499D01*
X188233497Y-70269737D01*
X188379179Y-70209394D01*
X188510289Y-70121789D01*
X188621789Y-70010289D01*
X188709394Y-69879179D01*
X188769737Y-69733497D01*
X188800500Y-69578842D01*
X188800500Y-69421158D01*
X188800500Y-69421155D01*
X188800499Y-69421153D01*
X188785224Y-69344360D01*
X188769737Y-69266503D01*
X188766523Y-69258744D01*
X188709397Y-69120827D01*
X188709390Y-69120814D01*
X188621789Y-68989711D01*
X188621786Y-68989707D01*
X188510292Y-68878213D01*
X188510288Y-68878210D01*
X188379185Y-68790609D01*
X188379172Y-68790602D01*
X188233501Y-68730264D01*
X188233489Y-68730261D01*
X188078845Y-68699500D01*
X188078842Y-68699500D01*
X187921158Y-68699500D01*
X187921155Y-68699500D01*
X187766510Y-68730261D01*
X187766498Y-68730264D01*
X187620827Y-68790602D01*
X187620814Y-68790609D01*
X187489125Y-68878602D01*
X187422447Y-68899480D01*
X187420234Y-68899500D01*
X182945784Y-68899500D01*
X182878745Y-68879815D01*
X182858103Y-68863181D01*
X182717785Y-68722863D01*
X182717781Y-68722860D01*
X182553920Y-68613371D01*
X182553907Y-68613364D01*
X182371839Y-68537950D01*
X182371829Y-68537947D01*
X182178543Y-68499500D01*
X182178541Y-68499500D01*
X181981459Y-68499500D01*
X181981457Y-68499500D01*
X181788170Y-68537947D01*
X181788160Y-68537950D01*
X181606089Y-68613366D01*
X181513890Y-68674971D01*
X181447213Y-68695848D01*
X181379833Y-68677363D01*
X181376110Y-68674971D01*
X181327441Y-68642452D01*
X181283914Y-68613368D01*
X181283911Y-68613366D01*
X181283910Y-68613366D01*
X181101839Y-68537950D01*
X181101829Y-68537947D01*
X180908543Y-68499500D01*
X180908541Y-68499500D01*
X180711459Y-68499500D01*
X180711457Y-68499500D01*
X180518170Y-68537947D01*
X180518160Y-68537950D01*
X180336089Y-68613366D01*
X180243890Y-68674971D01*
X180177213Y-68695848D01*
X180109833Y-68677363D01*
X180106110Y-68674971D01*
X180057441Y-68642452D01*
X180013914Y-68613368D01*
X180013911Y-68613366D01*
X180013910Y-68613366D01*
X179831839Y-68537950D01*
X179831829Y-68537947D01*
X179638543Y-68499500D01*
X179638541Y-68499500D01*
X179441459Y-68499500D01*
X179441457Y-68499500D01*
X179248170Y-68537947D01*
X179248160Y-68537950D01*
X179066089Y-68613366D01*
X178973890Y-68674971D01*
X178907213Y-68695848D01*
X178839833Y-68677363D01*
X178836110Y-68674971D01*
X178787441Y-68642452D01*
X178743914Y-68613368D01*
X178743911Y-68613366D01*
X178743910Y-68613366D01*
X178561839Y-68537950D01*
X178561829Y-68537947D01*
X178368543Y-68499500D01*
X178368541Y-68499500D01*
X178171459Y-68499500D01*
X178171457Y-68499500D01*
X177978170Y-68537947D01*
X177978160Y-68537950D01*
X177796093Y-68613364D01*
X177796082Y-68613370D01*
X177703440Y-68675271D01*
X177636762Y-68696148D01*
X177569382Y-68677663D01*
X177565659Y-68675270D01*
X177473684Y-68613814D01*
X177473671Y-68613807D01*
X177291691Y-68538429D01*
X177291683Y-68538427D01*
X177250000Y-68530135D01*
X177250000Y-69290382D01*
X177199554Y-69239936D01*
X177125445Y-69197149D01*
X177042787Y-69175000D01*
X176957213Y-69175000D01*
X176874555Y-69197149D01*
X176800446Y-69239936D01*
X176750000Y-69290382D01*
X176750000Y-68530136D01*
X176749999Y-68530135D01*
X176708316Y-68538427D01*
X176606339Y-68580666D01*
X176536870Y-68588133D01*
X176484578Y-68565372D01*
X176472330Y-68556203D01*
X176472328Y-68556202D01*
X176337482Y-68505908D01*
X176337483Y-68505908D01*
X176277883Y-68499501D01*
X176277881Y-68499500D01*
X176277873Y-68499500D01*
X176277864Y-68499500D01*
X175182129Y-68499500D01*
X175182123Y-68499501D01*
X175122516Y-68505908D01*
X174987671Y-68556202D01*
X174987664Y-68556206D01*
X174872455Y-68642452D01*
X174872452Y-68642455D01*
X174786206Y-68757664D01*
X174786202Y-68757671D01*
X174735908Y-68892517D01*
X174729501Y-68952116D01*
X174729500Y-68952135D01*
X171000500Y-68952135D01*
X171000500Y-65452135D01*
X174729500Y-65452135D01*
X174729500Y-66547870D01*
X174729501Y-66547876D01*
X174735908Y-66607483D01*
X174786202Y-66742328D01*
X174786206Y-66742335D01*
X174872452Y-66857544D01*
X174872455Y-66857547D01*
X174987664Y-66943793D01*
X174987671Y-66943797D01*
X175122517Y-66994091D01*
X175122516Y-66994091D01*
X175129444Y-66994835D01*
X175182127Y-67000500D01*
X176277872Y-67000499D01*
X176337483Y-66994091D01*
X176472331Y-66943796D01*
X176484575Y-66934629D01*
X176550035Y-66910210D01*
X176606339Y-66919333D01*
X176708308Y-66961569D01*
X176750000Y-66969862D01*
X176750000Y-66209618D01*
X176800446Y-66260064D01*
X176874555Y-66302851D01*
X176957213Y-66325000D01*
X177042787Y-66325000D01*
X177125445Y-66302851D01*
X177199554Y-66260064D01*
X177250000Y-66209618D01*
X177250000Y-66969862D01*
X177291690Y-66961569D01*
X177291692Y-66961569D01*
X177473673Y-66886191D01*
X177473676Y-66886189D01*
X177565657Y-66824729D01*
X177632334Y-66803850D01*
X177699715Y-66822334D01*
X177703440Y-66824728D01*
X177796079Y-66886628D01*
X177796092Y-66886635D01*
X177977001Y-66961569D01*
X177978165Y-66962051D01*
X177978169Y-66962051D01*
X177978170Y-66962052D01*
X178171456Y-67000500D01*
X178171459Y-67000500D01*
X178368543Y-67000500D01*
X178522567Y-66969862D01*
X178561835Y-66962051D01*
X178743914Y-66886632D01*
X178836109Y-66825029D01*
X178902786Y-66804151D01*
X178970166Y-66822635D01*
X178973891Y-66825029D01*
X179040602Y-66869604D01*
X179066086Y-66886632D01*
X179066088Y-66886633D01*
X179066092Y-66886635D01*
X179247001Y-66961569D01*
X179248165Y-66962051D01*
X179248169Y-66962051D01*
X179248170Y-66962052D01*
X179441456Y-67000500D01*
X179441459Y-67000500D01*
X179638543Y-67000500D01*
X179792567Y-66969862D01*
X179831835Y-66962051D01*
X180013914Y-66886632D01*
X180106109Y-66825029D01*
X180172786Y-66804151D01*
X180240166Y-66822635D01*
X180243891Y-66825029D01*
X180310602Y-66869604D01*
X180336086Y-66886632D01*
X180336088Y-66886633D01*
X180336092Y-66886635D01*
X180517001Y-66961569D01*
X180518165Y-66962051D01*
X180518169Y-66962051D01*
X180518170Y-66962052D01*
X180711456Y-67000500D01*
X180711459Y-67000500D01*
X180908543Y-67000500D01*
X181062567Y-66969862D01*
X181101835Y-66962051D01*
X181283914Y-66886632D01*
X181376109Y-66825029D01*
X181442786Y-66804151D01*
X181510166Y-66822635D01*
X181513891Y-66825029D01*
X181580602Y-66869604D01*
X181606086Y-66886632D01*
X181606088Y-66886633D01*
X181606092Y-66886635D01*
X181787001Y-66961569D01*
X181788165Y-66962051D01*
X181788169Y-66962051D01*
X181788170Y-66962052D01*
X181981456Y-67000500D01*
X181981459Y-67000500D01*
X182178543Y-67000500D01*
X182332567Y-66969862D01*
X182371835Y-66962051D01*
X182553914Y-66886632D01*
X182717782Y-66777139D01*
X182785531Y-66709390D01*
X182858103Y-66636819D01*
X182919426Y-66603334D01*
X182945784Y-66600500D01*
X187420234Y-66600500D01*
X187487273Y-66620185D01*
X187489125Y-66621398D01*
X187620814Y-66709390D01*
X187620827Y-66709397D01*
X187700348Y-66742335D01*
X187766503Y-66769737D01*
X187921153Y-66800499D01*
X187921156Y-66800500D01*
X187921158Y-66800500D01*
X188078844Y-66800500D01*
X188078845Y-66800499D01*
X188233497Y-66769737D01*
X188379179Y-66709394D01*
X188510289Y-66621789D01*
X188621789Y-66510289D01*
X188709394Y-66379179D01*
X188769737Y-66233497D01*
X188800500Y-66078842D01*
X188800500Y-65921158D01*
X188800500Y-65921155D01*
X188800499Y-65921153D01*
X188787980Y-65858217D01*
X188769737Y-65766503D01*
X188720241Y-65647007D01*
X188709397Y-65620827D01*
X188709390Y-65620814D01*
X188621789Y-65489711D01*
X188621786Y-65489707D01*
X188510292Y-65378213D01*
X188510288Y-65378210D01*
X188379185Y-65290609D01*
X188379172Y-65290602D01*
X188233501Y-65230264D01*
X188233489Y-65230261D01*
X188078845Y-65199500D01*
X188078842Y-65199500D01*
X187921158Y-65199500D01*
X187921155Y-65199500D01*
X187766510Y-65230261D01*
X187766498Y-65230264D01*
X187620827Y-65290602D01*
X187620814Y-65290609D01*
X187489125Y-65378602D01*
X187422447Y-65399480D01*
X187420234Y-65399500D01*
X182945784Y-65399500D01*
X182878745Y-65379815D01*
X182858103Y-65363181D01*
X182717785Y-65222863D01*
X182717781Y-65222860D01*
X182553920Y-65113371D01*
X182553907Y-65113364D01*
X182371839Y-65037950D01*
X182371829Y-65037947D01*
X182178543Y-64999500D01*
X182178541Y-64999500D01*
X181981459Y-64999500D01*
X181981457Y-64999500D01*
X181788170Y-65037947D01*
X181788160Y-65037950D01*
X181606089Y-65113366D01*
X181513890Y-65174971D01*
X181447213Y-65195848D01*
X181379833Y-65177363D01*
X181376110Y-65174971D01*
X181321218Y-65138294D01*
X181283914Y-65113368D01*
X181283911Y-65113366D01*
X181283910Y-65113366D01*
X181101839Y-65037950D01*
X181101829Y-65037947D01*
X180908543Y-64999500D01*
X180908541Y-64999500D01*
X180711459Y-64999500D01*
X180711457Y-64999500D01*
X180518170Y-65037947D01*
X180518160Y-65037950D01*
X180336089Y-65113366D01*
X180243890Y-65174971D01*
X180177213Y-65195848D01*
X180109833Y-65177363D01*
X180106110Y-65174971D01*
X180051218Y-65138294D01*
X180013914Y-65113368D01*
X180013911Y-65113366D01*
X180013910Y-65113366D01*
X179831839Y-65037950D01*
X179831829Y-65037947D01*
X179638543Y-64999500D01*
X179638541Y-64999500D01*
X179441459Y-64999500D01*
X179441457Y-64999500D01*
X179248170Y-65037947D01*
X179248160Y-65037950D01*
X179066089Y-65113366D01*
X178973890Y-65174971D01*
X178907213Y-65195848D01*
X178839833Y-65177363D01*
X178836110Y-65174971D01*
X178781218Y-65138294D01*
X178743914Y-65113368D01*
X178743911Y-65113366D01*
X178743910Y-65113366D01*
X178561839Y-65037950D01*
X178561829Y-65037947D01*
X178368543Y-64999500D01*
X178368541Y-64999500D01*
X178171459Y-64999500D01*
X178171457Y-64999500D01*
X177978170Y-65037947D01*
X177978160Y-65037950D01*
X177796093Y-65113364D01*
X177796082Y-65113370D01*
X177703440Y-65175271D01*
X177636762Y-65196148D01*
X177569382Y-65177663D01*
X177565659Y-65175270D01*
X177473684Y-65113814D01*
X177473671Y-65113807D01*
X177291691Y-65038429D01*
X177291683Y-65038427D01*
X177250000Y-65030135D01*
X177250000Y-65790382D01*
X177199554Y-65739936D01*
X177125445Y-65697149D01*
X177042787Y-65675000D01*
X176957213Y-65675000D01*
X176874555Y-65697149D01*
X176800446Y-65739936D01*
X176750000Y-65790382D01*
X176750000Y-65030136D01*
X176749999Y-65030135D01*
X176708316Y-65038427D01*
X176606339Y-65080666D01*
X176536870Y-65088133D01*
X176484578Y-65065372D01*
X176472330Y-65056203D01*
X176472328Y-65056202D01*
X176337482Y-65005908D01*
X176337483Y-65005908D01*
X176277883Y-64999501D01*
X176277881Y-64999500D01*
X176277873Y-64999500D01*
X176277864Y-64999500D01*
X175182129Y-64999500D01*
X175182123Y-64999501D01*
X175122516Y-65005908D01*
X174987671Y-65056202D01*
X174987664Y-65056206D01*
X174872455Y-65142452D01*
X174872452Y-65142455D01*
X174786206Y-65257664D01*
X174786202Y-65257671D01*
X174735908Y-65392517D01*
X174729501Y-65452116D01*
X174729500Y-65452135D01*
X171000500Y-65452135D01*
X171000500Y-61952127D01*
X174789500Y-61952127D01*
X174789500Y-63047870D01*
X174789501Y-63047876D01*
X174795908Y-63107483D01*
X174846202Y-63242328D01*
X174846206Y-63242335D01*
X174932452Y-63357544D01*
X174932455Y-63357547D01*
X175047664Y-63443793D01*
X175047671Y-63443797D01*
X175182517Y-63494091D01*
X175182516Y-63494091D01*
X175189444Y-63494835D01*
X175242127Y-63500500D01*
X176337872Y-63500499D01*
X176397483Y-63494091D01*
X176532331Y-63443796D01*
X176544575Y-63434629D01*
X176610035Y-63410210D01*
X176666339Y-63419333D01*
X176768308Y-63461569D01*
X176810000Y-63469862D01*
X176810000Y-62709618D01*
X176860446Y-62760064D01*
X176934555Y-62802851D01*
X177017213Y-62825000D01*
X177102787Y-62825000D01*
X177185445Y-62802851D01*
X177259554Y-62760064D01*
X177310000Y-62709618D01*
X177310000Y-63469862D01*
X177351690Y-63461569D01*
X177351692Y-63461569D01*
X177533673Y-63386191D01*
X177533676Y-63386189D01*
X177625657Y-63324729D01*
X177692334Y-63303850D01*
X177759715Y-63322334D01*
X177763440Y-63324728D01*
X177856079Y-63386628D01*
X177856092Y-63386635D01*
X178037001Y-63461569D01*
X178038165Y-63462051D01*
X178038169Y-63462051D01*
X178038170Y-63462052D01*
X178231456Y-63500500D01*
X178231459Y-63500500D01*
X178428543Y-63500500D01*
X178582567Y-63469862D01*
X178621835Y-63462051D01*
X178803914Y-63386632D01*
X178896109Y-63325029D01*
X178962786Y-63304151D01*
X179030166Y-63322635D01*
X179033891Y-63325029D01*
X179095024Y-63365877D01*
X179126086Y-63386632D01*
X179126088Y-63386633D01*
X179126092Y-63386635D01*
X179307001Y-63461569D01*
X179308165Y-63462051D01*
X179308169Y-63462051D01*
X179308170Y-63462052D01*
X179501456Y-63500500D01*
X179501459Y-63500500D01*
X179698543Y-63500500D01*
X179852567Y-63469862D01*
X179891835Y-63462051D01*
X180073914Y-63386632D01*
X180166109Y-63325029D01*
X180232786Y-63304151D01*
X180300166Y-63322635D01*
X180303891Y-63325029D01*
X180365024Y-63365877D01*
X180396086Y-63386632D01*
X180396088Y-63386633D01*
X180396092Y-63386635D01*
X180577001Y-63461569D01*
X180578165Y-63462051D01*
X180578169Y-63462051D01*
X180578170Y-63462052D01*
X180771456Y-63500500D01*
X180771459Y-63500500D01*
X180968543Y-63500500D01*
X181122567Y-63469862D01*
X181161835Y-63462051D01*
X181343914Y-63386632D01*
X181436109Y-63325029D01*
X181502786Y-63304151D01*
X181570166Y-63322635D01*
X181573891Y-63325029D01*
X181635024Y-63365877D01*
X181666086Y-63386632D01*
X181666088Y-63386633D01*
X181666092Y-63386635D01*
X181847001Y-63461569D01*
X181848165Y-63462051D01*
X181848169Y-63462051D01*
X181848170Y-63462052D01*
X182041456Y-63500500D01*
X182041459Y-63500500D01*
X182238543Y-63500500D01*
X182392567Y-63469862D01*
X182431835Y-63462051D01*
X182613914Y-63386632D01*
X182777782Y-63277139D01*
X182812593Y-63242328D01*
X182918103Y-63136819D01*
X182979426Y-63103334D01*
X183005784Y-63100500D01*
X185449903Y-63100500D01*
X185516942Y-63120185D01*
X185537584Y-63136819D01*
X186015139Y-63614374D01*
X186015149Y-63614385D01*
X186019479Y-63618715D01*
X186019480Y-63618716D01*
X186131284Y-63730520D01*
X186185898Y-63762051D01*
X186268215Y-63809577D01*
X186420943Y-63850500D01*
X187420234Y-63850500D01*
X187487273Y-63870185D01*
X187489125Y-63871398D01*
X187620814Y-63959390D01*
X187620827Y-63959397D01*
X187737602Y-64007766D01*
X187766503Y-64019737D01*
X187921153Y-64050499D01*
X187921156Y-64050500D01*
X187921158Y-64050500D01*
X188078844Y-64050500D01*
X188078845Y-64050499D01*
X188233497Y-64019737D01*
X188379179Y-63959394D01*
X188510289Y-63871789D01*
X188621789Y-63760289D01*
X188709394Y-63629179D01*
X188715389Y-63614707D01*
X188761571Y-63503211D01*
X188769737Y-63483497D01*
X188800500Y-63328842D01*
X188800500Y-63171158D01*
X188800500Y-63171155D01*
X188800499Y-63171153D01*
X188793861Y-63137782D01*
X188769737Y-63016503D01*
X188740248Y-62945309D01*
X188709397Y-62870827D01*
X188709390Y-62870814D01*
X188621789Y-62739711D01*
X188621786Y-62739707D01*
X188510292Y-62628213D01*
X188510288Y-62628210D01*
X188379185Y-62540609D01*
X188379172Y-62540602D01*
X188233501Y-62480264D01*
X188233489Y-62480261D01*
X188078845Y-62449500D01*
X188078842Y-62449500D01*
X187921158Y-62449500D01*
X187921155Y-62449500D01*
X187766510Y-62480261D01*
X187766498Y-62480264D01*
X187620827Y-62540602D01*
X187620814Y-62540609D01*
X187489125Y-62628602D01*
X187422447Y-62649480D01*
X187420234Y-62649500D01*
X186800097Y-62649500D01*
X186733058Y-62629815D01*
X186712416Y-62613181D01*
X186237590Y-62138355D01*
X186237588Y-62138352D01*
X186118717Y-62019481D01*
X186118709Y-62019475D01*
X186002059Y-61952128D01*
X186002056Y-61952127D01*
X185981785Y-61940423D01*
X185829057Y-61899499D01*
X185670943Y-61899499D01*
X185663347Y-61899499D01*
X185663331Y-61899500D01*
X183005784Y-61899500D01*
X182938745Y-61879815D01*
X182918103Y-61863181D01*
X182777785Y-61722863D01*
X182777781Y-61722860D01*
X182613920Y-61613371D01*
X182613907Y-61613364D01*
X182431839Y-61537950D01*
X182431829Y-61537947D01*
X182238543Y-61499500D01*
X182238541Y-61499500D01*
X182041459Y-61499500D01*
X182041457Y-61499500D01*
X181848170Y-61537947D01*
X181848160Y-61537950D01*
X181666089Y-61613366D01*
X181573890Y-61674971D01*
X181507213Y-61695848D01*
X181439833Y-61677363D01*
X181436110Y-61674971D01*
X181387441Y-61642452D01*
X181343914Y-61613368D01*
X181343911Y-61613366D01*
X181343910Y-61613366D01*
X181161839Y-61537950D01*
X181161829Y-61537947D01*
X180968543Y-61499500D01*
X180968541Y-61499500D01*
X180771459Y-61499500D01*
X180771457Y-61499500D01*
X180578170Y-61537947D01*
X180578160Y-61537950D01*
X180396089Y-61613366D01*
X180303890Y-61674971D01*
X180237213Y-61695848D01*
X180169833Y-61677363D01*
X180166110Y-61674971D01*
X180117441Y-61642452D01*
X180073914Y-61613368D01*
X180073911Y-61613366D01*
X180073910Y-61613366D01*
X179891839Y-61537950D01*
X179891829Y-61537947D01*
X179698543Y-61499500D01*
X179698541Y-61499500D01*
X179501459Y-61499500D01*
X179501457Y-61499500D01*
X179308170Y-61537947D01*
X179308160Y-61537950D01*
X179126089Y-61613366D01*
X179033890Y-61674971D01*
X178967213Y-61695848D01*
X178899833Y-61677363D01*
X178896110Y-61674971D01*
X178847441Y-61642452D01*
X178803914Y-61613368D01*
X178803911Y-61613366D01*
X178803910Y-61613366D01*
X178621839Y-61537950D01*
X178621829Y-61537947D01*
X178428543Y-61499500D01*
X178428541Y-61499500D01*
X178231459Y-61499500D01*
X178231457Y-61499500D01*
X178038170Y-61537947D01*
X178038160Y-61537950D01*
X177856093Y-61613364D01*
X177856082Y-61613370D01*
X177763440Y-61675271D01*
X177696762Y-61696148D01*
X177629382Y-61677663D01*
X177625659Y-61675270D01*
X177533684Y-61613814D01*
X177533671Y-61613807D01*
X177351691Y-61538429D01*
X177351683Y-61538427D01*
X177310000Y-61530135D01*
X177310000Y-62290382D01*
X177259554Y-62239936D01*
X177185445Y-62197149D01*
X177102787Y-62175000D01*
X177017213Y-62175000D01*
X176934555Y-62197149D01*
X176860446Y-62239936D01*
X176810000Y-62290382D01*
X176810000Y-61530136D01*
X176809999Y-61530135D01*
X176768316Y-61538427D01*
X176666339Y-61580666D01*
X176596870Y-61588133D01*
X176544578Y-61565372D01*
X176532330Y-61556203D01*
X176532328Y-61556202D01*
X176397482Y-61505908D01*
X176397483Y-61505908D01*
X176337883Y-61499501D01*
X176337881Y-61499500D01*
X176337873Y-61499500D01*
X176337864Y-61499500D01*
X175242129Y-61499500D01*
X175242123Y-61499501D01*
X175182516Y-61505908D01*
X175047671Y-61556202D01*
X175047664Y-61556206D01*
X174932455Y-61642452D01*
X174932452Y-61642455D01*
X174846206Y-61757664D01*
X174846202Y-61757671D01*
X174795908Y-61892517D01*
X174789501Y-61952116D01*
X174789500Y-61952127D01*
X171000500Y-61952127D01*
X171000500Y-54952127D01*
X174789500Y-54952127D01*
X174789500Y-56047870D01*
X174789501Y-56047876D01*
X174795908Y-56107483D01*
X174846202Y-56242328D01*
X174846206Y-56242335D01*
X174932452Y-56357544D01*
X174932455Y-56357547D01*
X175047664Y-56443793D01*
X175047671Y-56443797D01*
X175182517Y-56494091D01*
X175182516Y-56494091D01*
X175189444Y-56494835D01*
X175242127Y-56500500D01*
X176337872Y-56500499D01*
X176397483Y-56494091D01*
X176532331Y-56443796D01*
X176544575Y-56434629D01*
X176610035Y-56410210D01*
X176666339Y-56419333D01*
X176768308Y-56461569D01*
X176810000Y-56469862D01*
X176810000Y-55709618D01*
X176860446Y-55760064D01*
X176934555Y-55802851D01*
X177017213Y-55825000D01*
X177102787Y-55825000D01*
X177185445Y-55802851D01*
X177259554Y-55760064D01*
X177310000Y-55709618D01*
X177310000Y-56469862D01*
X177351690Y-56461569D01*
X177351692Y-56461569D01*
X177533673Y-56386191D01*
X177533676Y-56386189D01*
X177625657Y-56324729D01*
X177692334Y-56303850D01*
X177759715Y-56322334D01*
X177763440Y-56324728D01*
X177856079Y-56386628D01*
X177856092Y-56386635D01*
X178037001Y-56461569D01*
X178038165Y-56462051D01*
X178038169Y-56462051D01*
X178038170Y-56462052D01*
X178231456Y-56500500D01*
X178231459Y-56500500D01*
X178428543Y-56500500D01*
X178582567Y-56469862D01*
X178621835Y-56462051D01*
X178803914Y-56386632D01*
X178896109Y-56325029D01*
X178962786Y-56304151D01*
X179030166Y-56322635D01*
X179033891Y-56325029D01*
X179113482Y-56378210D01*
X179126086Y-56386632D01*
X179126088Y-56386633D01*
X179126092Y-56386635D01*
X179307001Y-56461569D01*
X179308165Y-56462051D01*
X179308169Y-56462051D01*
X179308170Y-56462052D01*
X179501456Y-56500500D01*
X179501459Y-56500500D01*
X179698543Y-56500500D01*
X179852567Y-56469862D01*
X179891835Y-56462051D01*
X180073914Y-56386632D01*
X180166109Y-56325029D01*
X180232786Y-56304151D01*
X180300166Y-56322635D01*
X180303891Y-56325029D01*
X180383482Y-56378210D01*
X180396086Y-56386632D01*
X180396088Y-56386633D01*
X180396092Y-56386635D01*
X180577001Y-56461569D01*
X180578165Y-56462051D01*
X180578169Y-56462051D01*
X180578170Y-56462052D01*
X180771456Y-56500500D01*
X180771459Y-56500500D01*
X180968543Y-56500500D01*
X181122567Y-56469862D01*
X181161835Y-56462051D01*
X181343914Y-56386632D01*
X181436109Y-56325029D01*
X181502786Y-56304151D01*
X181570166Y-56322635D01*
X181573891Y-56325029D01*
X181653482Y-56378210D01*
X181666086Y-56386632D01*
X181666088Y-56386633D01*
X181666092Y-56386635D01*
X181847001Y-56461569D01*
X181848165Y-56462051D01*
X181848169Y-56462051D01*
X181848170Y-56462052D01*
X182041456Y-56500500D01*
X182041459Y-56500500D01*
X182238543Y-56500500D01*
X182392567Y-56469862D01*
X182431835Y-56462051D01*
X182613914Y-56386632D01*
X182777782Y-56277139D01*
X182824660Y-56230261D01*
X182918103Y-56136819D01*
X182979426Y-56103334D01*
X183005784Y-56100500D01*
X183773220Y-56100500D01*
X183840259Y-56120185D01*
X183860901Y-56136819D01*
X185911900Y-58187819D01*
X185945385Y-58249142D01*
X185940401Y-58318834D01*
X185898529Y-58374767D01*
X185833065Y-58399184D01*
X185824219Y-58399500D01*
X183005784Y-58399500D01*
X182938745Y-58379815D01*
X182918103Y-58363181D01*
X182777785Y-58222863D01*
X182777781Y-58222860D01*
X182613920Y-58113371D01*
X182613907Y-58113364D01*
X182431839Y-58037950D01*
X182431829Y-58037947D01*
X182238543Y-57999500D01*
X182238541Y-57999500D01*
X182041459Y-57999500D01*
X182041457Y-57999500D01*
X181848170Y-58037947D01*
X181848160Y-58037950D01*
X181666089Y-58113366D01*
X181573890Y-58174971D01*
X181507213Y-58195848D01*
X181439833Y-58177363D01*
X181436110Y-58174971D01*
X181397868Y-58149419D01*
X181343914Y-58113368D01*
X181343911Y-58113366D01*
X181343910Y-58113366D01*
X181161839Y-58037950D01*
X181161829Y-58037947D01*
X180968543Y-57999500D01*
X180968541Y-57999500D01*
X180771459Y-57999500D01*
X180771457Y-57999500D01*
X180578170Y-58037947D01*
X180578160Y-58037950D01*
X180396089Y-58113366D01*
X180303890Y-58174971D01*
X180237213Y-58195848D01*
X180169833Y-58177363D01*
X180166110Y-58174971D01*
X180127868Y-58149419D01*
X180073914Y-58113368D01*
X180073911Y-58113366D01*
X180073910Y-58113366D01*
X179891839Y-58037950D01*
X179891829Y-58037947D01*
X179698543Y-57999500D01*
X179698541Y-57999500D01*
X179501459Y-57999500D01*
X179501457Y-57999500D01*
X179308170Y-58037947D01*
X179308160Y-58037950D01*
X179126089Y-58113366D01*
X179033890Y-58174971D01*
X178967213Y-58195848D01*
X178899833Y-58177363D01*
X178896110Y-58174971D01*
X178857868Y-58149419D01*
X178803914Y-58113368D01*
X178803911Y-58113366D01*
X178803910Y-58113366D01*
X178621839Y-58037950D01*
X178621829Y-58037947D01*
X178428543Y-57999500D01*
X178428541Y-57999500D01*
X178231459Y-57999500D01*
X178231457Y-57999500D01*
X178038170Y-58037947D01*
X178038160Y-58037950D01*
X177856093Y-58113364D01*
X177856082Y-58113370D01*
X177763440Y-58175271D01*
X177696762Y-58196148D01*
X177629382Y-58177663D01*
X177625659Y-58175270D01*
X177533684Y-58113814D01*
X177533671Y-58113807D01*
X177351691Y-58038429D01*
X177351683Y-58038427D01*
X177310000Y-58030135D01*
X177310000Y-58790382D01*
X177259554Y-58739936D01*
X177185445Y-58697149D01*
X177102787Y-58675000D01*
X177017213Y-58675000D01*
X176934555Y-58697149D01*
X176860446Y-58739936D01*
X176810000Y-58790382D01*
X176810000Y-58030136D01*
X176809999Y-58030135D01*
X176768316Y-58038427D01*
X176666339Y-58080666D01*
X176596870Y-58088133D01*
X176544578Y-58065372D01*
X176532330Y-58056203D01*
X176532328Y-58056202D01*
X176397482Y-58005908D01*
X176397483Y-58005908D01*
X176337883Y-57999501D01*
X176337881Y-57999500D01*
X176337873Y-57999500D01*
X176337864Y-57999500D01*
X175242129Y-57999500D01*
X175242123Y-57999501D01*
X175182516Y-58005908D01*
X175047671Y-58056202D01*
X175047664Y-58056206D01*
X174932455Y-58142452D01*
X174932452Y-58142455D01*
X174846206Y-58257664D01*
X174846202Y-58257671D01*
X174795908Y-58392517D01*
X174789501Y-58452116D01*
X174789500Y-58452135D01*
X174789500Y-59547870D01*
X174789501Y-59547876D01*
X174795908Y-59607483D01*
X174846202Y-59742328D01*
X174846206Y-59742335D01*
X174932452Y-59857544D01*
X174932455Y-59857547D01*
X175047664Y-59943793D01*
X175047671Y-59943797D01*
X175182517Y-59994091D01*
X175182516Y-59994091D01*
X175189444Y-59994835D01*
X175242127Y-60000500D01*
X176337872Y-60000499D01*
X176397483Y-59994091D01*
X176532331Y-59943796D01*
X176544575Y-59934629D01*
X176610035Y-59910210D01*
X176666339Y-59919333D01*
X176768308Y-59961569D01*
X176810000Y-59969862D01*
X176810000Y-59209618D01*
X176860446Y-59260064D01*
X176934555Y-59302851D01*
X177017213Y-59325000D01*
X177102787Y-59325000D01*
X177185445Y-59302851D01*
X177259554Y-59260064D01*
X177310000Y-59209618D01*
X177310000Y-59969862D01*
X177351690Y-59961569D01*
X177351692Y-59961569D01*
X177533673Y-59886191D01*
X177533676Y-59886189D01*
X177625657Y-59824729D01*
X177692334Y-59803850D01*
X177759715Y-59822334D01*
X177763440Y-59824728D01*
X177856079Y-59886628D01*
X177856092Y-59886635D01*
X178037001Y-59961569D01*
X178038165Y-59962051D01*
X178038169Y-59962051D01*
X178038170Y-59962052D01*
X178231456Y-60000500D01*
X178231459Y-60000500D01*
X178428543Y-60000500D01*
X178582567Y-59969862D01*
X178621835Y-59962051D01*
X178803914Y-59886632D01*
X178896109Y-59825029D01*
X178962786Y-59804151D01*
X179030166Y-59822635D01*
X179033891Y-59825029D01*
X179091164Y-59863298D01*
X179126086Y-59886632D01*
X179126088Y-59886633D01*
X179126092Y-59886635D01*
X179307001Y-59961569D01*
X179308165Y-59962051D01*
X179308169Y-59962051D01*
X179308170Y-59962052D01*
X179501456Y-60000500D01*
X179501459Y-60000500D01*
X179698543Y-60000500D01*
X179852567Y-59969862D01*
X179891835Y-59962051D01*
X180073914Y-59886632D01*
X180166109Y-59825029D01*
X180232786Y-59804151D01*
X180300166Y-59822635D01*
X180303891Y-59825029D01*
X180361164Y-59863298D01*
X180396086Y-59886632D01*
X180396088Y-59886633D01*
X180396092Y-59886635D01*
X180577001Y-59961569D01*
X180578165Y-59962051D01*
X180578169Y-59962051D01*
X180578170Y-59962052D01*
X180771456Y-60000500D01*
X180771459Y-60000500D01*
X180968543Y-60000500D01*
X181122567Y-59969862D01*
X181161835Y-59962051D01*
X181343914Y-59886632D01*
X181436109Y-59825029D01*
X181502786Y-59804151D01*
X181570166Y-59822635D01*
X181573891Y-59825029D01*
X181631164Y-59863298D01*
X181666086Y-59886632D01*
X181666088Y-59886633D01*
X181666092Y-59886635D01*
X181847001Y-59961569D01*
X181848165Y-59962051D01*
X181848169Y-59962051D01*
X181848170Y-59962052D01*
X182041456Y-60000500D01*
X182041459Y-60000500D01*
X182238543Y-60000500D01*
X182392567Y-59969862D01*
X182431835Y-59962051D01*
X182613914Y-59886632D01*
X182777782Y-59777139D01*
X182833049Y-59721872D01*
X182918103Y-59636819D01*
X182979426Y-59603334D01*
X183005784Y-59600500D01*
X186199903Y-59600500D01*
X186266942Y-59620185D01*
X186287584Y-59636819D01*
X187165425Y-60514660D01*
X187198910Y-60575983D01*
X187199361Y-60578149D01*
X187230261Y-60733491D01*
X187230264Y-60733501D01*
X187290602Y-60879172D01*
X187290609Y-60879185D01*
X187378210Y-61010288D01*
X187378213Y-61010292D01*
X187489707Y-61121786D01*
X187489711Y-61121789D01*
X187620814Y-61209390D01*
X187620827Y-61209397D01*
X187766498Y-61269735D01*
X187766503Y-61269737D01*
X187921153Y-61300499D01*
X187921156Y-61300500D01*
X187921158Y-61300500D01*
X188078844Y-61300500D01*
X188078845Y-61300499D01*
X188233497Y-61269737D01*
X188379179Y-61209394D01*
X188510289Y-61121789D01*
X188621789Y-61010289D01*
X188709394Y-60879179D01*
X188769737Y-60733497D01*
X188800500Y-60578842D01*
X188800500Y-60517667D01*
X188820185Y-60450628D01*
X188855606Y-60414567D01*
X188868062Y-60406245D01*
X188979562Y-60294745D01*
X189067167Y-60163635D01*
X189127510Y-60017953D01*
X189158273Y-59863298D01*
X189158273Y-59705614D01*
X189158273Y-59705611D01*
X189158272Y-59705609D01*
X189144589Y-59636819D01*
X189127510Y-59550959D01*
X189095597Y-59473914D01*
X189067170Y-59405283D01*
X189067163Y-59405270D01*
X188979562Y-59274167D01*
X188979559Y-59274163D01*
X188868065Y-59162669D01*
X188868061Y-59162666D01*
X188736958Y-59075065D01*
X188736945Y-59075058D01*
X188591274Y-59014720D01*
X188591264Y-59014717D01*
X188435924Y-58983818D01*
X188374014Y-58951433D01*
X188372435Y-58949882D01*
X187422053Y-57999500D01*
X186343706Y-56921153D01*
X199449500Y-56921153D01*
X199449500Y-57078846D01*
X199480261Y-57233489D01*
X199480264Y-57233501D01*
X199540602Y-57379172D01*
X199540609Y-57379185D01*
X199628210Y-57510288D01*
X199628213Y-57510292D01*
X199739707Y-57621786D01*
X199739711Y-57621789D01*
X199870814Y-57709390D01*
X199870827Y-57709397D01*
X200000617Y-57763157D01*
X200016503Y-57769737D01*
X200171153Y-57800499D01*
X200171156Y-57800500D01*
X200171158Y-57800500D01*
X200328844Y-57800500D01*
X200328845Y-57800499D01*
X200483497Y-57769737D01*
X200629179Y-57709394D01*
X200760289Y-57621789D01*
X200871789Y-57510289D01*
X200959394Y-57379179D01*
X201019737Y-57233497D01*
X201050500Y-57078842D01*
X201050500Y-56921158D01*
X201050500Y-56921155D01*
X201050499Y-56921153D01*
X201049190Y-56914574D01*
X201019737Y-56766503D01*
X201019735Y-56766498D01*
X200959397Y-56620827D01*
X200959390Y-56620814D01*
X200871789Y-56489711D01*
X200871786Y-56489707D01*
X200760292Y-56378213D01*
X200760288Y-56378210D01*
X200629185Y-56290609D01*
X200629172Y-56290602D01*
X200483501Y-56230264D01*
X200483489Y-56230261D01*
X200328845Y-56199500D01*
X200328842Y-56199500D01*
X200171158Y-56199500D01*
X200171155Y-56199500D01*
X200016510Y-56230261D01*
X200016498Y-56230264D01*
X199870827Y-56290602D01*
X199870814Y-56290609D01*
X199739711Y-56378210D01*
X199739707Y-56378213D01*
X199628213Y-56489707D01*
X199628210Y-56489711D01*
X199540609Y-56620814D01*
X199540602Y-56620827D01*
X199480264Y-56766498D01*
X199480261Y-56766510D01*
X199449500Y-56921153D01*
X186343706Y-56921153D01*
X184560906Y-55138354D01*
X184560905Y-55138352D01*
X184442034Y-55019481D01*
X184442026Y-55019475D01*
X184325376Y-54952128D01*
X184325373Y-54952127D01*
X184309021Y-54942686D01*
X184305102Y-54940423D01*
X184152374Y-54899499D01*
X183994260Y-54899499D01*
X183986664Y-54899499D01*
X183986648Y-54899500D01*
X183005784Y-54899500D01*
X182938745Y-54879815D01*
X182918103Y-54863181D01*
X182777785Y-54722863D01*
X182777781Y-54722860D01*
X182613920Y-54613371D01*
X182613907Y-54613364D01*
X182431839Y-54537950D01*
X182431829Y-54537947D01*
X182238543Y-54499500D01*
X182238541Y-54499500D01*
X182041459Y-54499500D01*
X182041457Y-54499500D01*
X181848170Y-54537947D01*
X181848160Y-54537950D01*
X181666089Y-54613366D01*
X181573890Y-54674971D01*
X181507213Y-54695848D01*
X181439833Y-54677363D01*
X181436110Y-54674971D01*
X181387441Y-54642452D01*
X181343914Y-54613368D01*
X181343911Y-54613366D01*
X181343910Y-54613366D01*
X181161839Y-54537950D01*
X181161829Y-54537947D01*
X180968543Y-54499500D01*
X180968541Y-54499500D01*
X180771459Y-54499500D01*
X180771457Y-54499500D01*
X180578170Y-54537947D01*
X180578160Y-54537950D01*
X180396089Y-54613366D01*
X180303890Y-54674971D01*
X180237213Y-54695848D01*
X180169833Y-54677363D01*
X180166110Y-54674971D01*
X180117441Y-54642452D01*
X180073914Y-54613368D01*
X180073911Y-54613366D01*
X180073910Y-54613366D01*
X179891839Y-54537950D01*
X179891829Y-54537947D01*
X179698543Y-54499500D01*
X179698541Y-54499500D01*
X179501459Y-54499500D01*
X179501457Y-54499500D01*
X179308170Y-54537947D01*
X179308160Y-54537950D01*
X179126089Y-54613366D01*
X179033890Y-54674971D01*
X178967213Y-54695848D01*
X178899833Y-54677363D01*
X178896110Y-54674971D01*
X178847441Y-54642452D01*
X178803914Y-54613368D01*
X178803911Y-54613366D01*
X178803910Y-54613366D01*
X178621839Y-54537950D01*
X178621829Y-54537947D01*
X178428543Y-54499500D01*
X178428541Y-54499500D01*
X178231459Y-54499500D01*
X178231457Y-54499500D01*
X178038170Y-54537947D01*
X178038160Y-54537950D01*
X177856093Y-54613364D01*
X177856082Y-54613370D01*
X177763440Y-54675271D01*
X177696762Y-54696148D01*
X177629382Y-54677663D01*
X177625659Y-54675270D01*
X177533684Y-54613814D01*
X177533671Y-54613807D01*
X177351691Y-54538429D01*
X177351683Y-54538427D01*
X177310000Y-54530135D01*
X177310000Y-55290382D01*
X177259554Y-55239936D01*
X177185445Y-55197149D01*
X177102787Y-55175000D01*
X177017213Y-55175000D01*
X176934555Y-55197149D01*
X176860446Y-55239936D01*
X176810000Y-55290382D01*
X176810000Y-54530136D01*
X176809999Y-54530135D01*
X176768316Y-54538427D01*
X176666339Y-54580666D01*
X176596870Y-54588133D01*
X176544578Y-54565372D01*
X176532330Y-54556203D01*
X176532328Y-54556202D01*
X176397482Y-54505908D01*
X176397483Y-54505908D01*
X176337883Y-54499501D01*
X176337881Y-54499500D01*
X176337873Y-54499500D01*
X176337864Y-54499500D01*
X175242129Y-54499500D01*
X175242123Y-54499501D01*
X175182516Y-54505908D01*
X175047671Y-54556202D01*
X175047664Y-54556206D01*
X174932455Y-54642452D01*
X174932452Y-54642455D01*
X174846206Y-54757664D01*
X174846202Y-54757671D01*
X174795908Y-54892517D01*
X174789501Y-54952116D01*
X174789500Y-54952127D01*
X171000500Y-54952127D01*
X171000500Y-51452135D01*
X174789500Y-51452135D01*
X174789500Y-52547870D01*
X174789501Y-52547876D01*
X174795908Y-52607483D01*
X174846202Y-52742328D01*
X174846206Y-52742335D01*
X174932452Y-52857544D01*
X174932455Y-52857547D01*
X175047664Y-52943793D01*
X175047671Y-52943797D01*
X175182517Y-52994091D01*
X175182516Y-52994091D01*
X175189444Y-52994835D01*
X175242127Y-53000500D01*
X176337872Y-53000499D01*
X176397483Y-52994091D01*
X176532331Y-52943796D01*
X176544575Y-52934629D01*
X176610035Y-52910210D01*
X176666339Y-52919333D01*
X176768308Y-52961569D01*
X176810000Y-52969862D01*
X176810000Y-52209618D01*
X176860446Y-52260064D01*
X176934555Y-52302851D01*
X177017213Y-52325000D01*
X177102787Y-52325000D01*
X177185445Y-52302851D01*
X177259554Y-52260064D01*
X177310000Y-52209618D01*
X177310000Y-52969862D01*
X177351690Y-52961569D01*
X177351692Y-52961569D01*
X177533673Y-52886191D01*
X177533676Y-52886189D01*
X177625657Y-52824729D01*
X177692334Y-52803850D01*
X177759715Y-52822334D01*
X177763440Y-52824728D01*
X177856079Y-52886628D01*
X177856092Y-52886635D01*
X178037001Y-52961569D01*
X178038165Y-52962051D01*
X178038169Y-52962051D01*
X178038170Y-52962052D01*
X178231456Y-53000500D01*
X178231459Y-53000500D01*
X178428543Y-53000500D01*
X178582567Y-52969862D01*
X178621835Y-52962051D01*
X178803914Y-52886632D01*
X178896109Y-52825029D01*
X178962786Y-52804151D01*
X179030166Y-52822635D01*
X179033891Y-52825029D01*
X179125423Y-52886189D01*
X179126086Y-52886632D01*
X179126088Y-52886633D01*
X179126092Y-52886635D01*
X179307001Y-52961569D01*
X179308165Y-52962051D01*
X179308169Y-52962051D01*
X179308170Y-52962052D01*
X179501456Y-53000500D01*
X179501459Y-53000500D01*
X179698543Y-53000500D01*
X179852567Y-52969862D01*
X179891835Y-52962051D01*
X180073914Y-52886632D01*
X180166109Y-52825029D01*
X180232786Y-52804151D01*
X180300166Y-52822635D01*
X180303891Y-52825029D01*
X180395423Y-52886189D01*
X180396086Y-52886632D01*
X180396088Y-52886633D01*
X180396092Y-52886635D01*
X180577001Y-52961569D01*
X180578165Y-52962051D01*
X180578169Y-52962051D01*
X180578170Y-52962052D01*
X180771456Y-53000500D01*
X180771459Y-53000500D01*
X180968543Y-53000500D01*
X181122567Y-52969862D01*
X181161835Y-52962051D01*
X181343914Y-52886632D01*
X181436109Y-52825029D01*
X181502786Y-52804151D01*
X181570166Y-52822635D01*
X181573891Y-52825029D01*
X181665423Y-52886189D01*
X181666086Y-52886632D01*
X181666088Y-52886633D01*
X181666092Y-52886635D01*
X181847001Y-52961569D01*
X181848165Y-52962051D01*
X181848169Y-52962051D01*
X181848170Y-52962052D01*
X182041456Y-53000500D01*
X182041459Y-53000500D01*
X182238543Y-53000500D01*
X182392567Y-52969862D01*
X182431835Y-52962051D01*
X182613914Y-52886632D01*
X182777782Y-52777139D01*
X182917139Y-52637782D01*
X183026632Y-52473914D01*
X183102051Y-52291835D01*
X183125189Y-52175513D01*
X183140500Y-52098543D01*
X183140500Y-51901456D01*
X183102052Y-51708170D01*
X183102051Y-51708169D01*
X183102051Y-51708165D01*
X183097488Y-51697149D01*
X183026635Y-51526092D01*
X183026628Y-51526079D01*
X182917139Y-51362218D01*
X182917136Y-51362214D01*
X182777785Y-51222863D01*
X182777781Y-51222860D01*
X182613920Y-51113371D01*
X182613907Y-51113364D01*
X182431839Y-51037950D01*
X182431829Y-51037947D01*
X182238543Y-50999500D01*
X182238541Y-50999500D01*
X182041459Y-50999500D01*
X182041457Y-50999500D01*
X181848170Y-51037947D01*
X181848160Y-51037950D01*
X181666089Y-51113366D01*
X181573890Y-51174971D01*
X181507213Y-51195848D01*
X181439833Y-51177363D01*
X181436110Y-51174971D01*
X181387441Y-51142452D01*
X181343914Y-51113368D01*
X181343911Y-51113366D01*
X181343910Y-51113366D01*
X181161839Y-51037950D01*
X181161829Y-51037947D01*
X180968543Y-50999500D01*
X180968541Y-50999500D01*
X180771459Y-50999500D01*
X180771457Y-50999500D01*
X180578170Y-51037947D01*
X180578160Y-51037950D01*
X180396089Y-51113366D01*
X180303890Y-51174971D01*
X180237213Y-51195848D01*
X180169833Y-51177363D01*
X180166110Y-51174971D01*
X180117441Y-51142452D01*
X180073914Y-51113368D01*
X180073911Y-51113366D01*
X180073910Y-51113366D01*
X179891839Y-51037950D01*
X179891829Y-51037947D01*
X179698543Y-50999500D01*
X179698541Y-50999500D01*
X179501459Y-50999500D01*
X179501457Y-50999500D01*
X179308170Y-51037947D01*
X179308160Y-51037950D01*
X179126089Y-51113366D01*
X179033890Y-51174971D01*
X178967213Y-51195848D01*
X178899833Y-51177363D01*
X178896110Y-51174971D01*
X178847441Y-51142452D01*
X178803914Y-51113368D01*
X178803911Y-51113366D01*
X178803910Y-51113366D01*
X178621839Y-51037950D01*
X178621829Y-51037947D01*
X178428543Y-50999500D01*
X178428541Y-50999500D01*
X178231459Y-50999500D01*
X178231457Y-50999500D01*
X178038170Y-51037947D01*
X178038160Y-51037950D01*
X177856093Y-51113364D01*
X177856082Y-51113370D01*
X177763440Y-51175271D01*
X177696762Y-51196148D01*
X177629382Y-51177663D01*
X177625659Y-51175270D01*
X177533684Y-51113814D01*
X177533671Y-51113807D01*
X177351691Y-51038429D01*
X177351683Y-51038427D01*
X177310000Y-51030135D01*
X177310000Y-51790382D01*
X177259554Y-51739936D01*
X177185445Y-51697149D01*
X177102787Y-51675000D01*
X177017213Y-51675000D01*
X176934555Y-51697149D01*
X176860446Y-51739936D01*
X176810000Y-51790382D01*
X176810000Y-51030136D01*
X176809999Y-51030135D01*
X176768316Y-51038427D01*
X176666339Y-51080666D01*
X176596870Y-51088133D01*
X176544578Y-51065372D01*
X176532330Y-51056203D01*
X176532328Y-51056202D01*
X176397482Y-51005908D01*
X176397483Y-51005908D01*
X176337883Y-50999501D01*
X176337881Y-50999500D01*
X176337873Y-50999500D01*
X176337864Y-50999500D01*
X175242129Y-50999500D01*
X175242123Y-50999501D01*
X175182516Y-51005908D01*
X175047671Y-51056202D01*
X175047664Y-51056206D01*
X174932455Y-51142452D01*
X174932452Y-51142455D01*
X174846206Y-51257664D01*
X174846202Y-51257671D01*
X174795908Y-51392517D01*
X174789501Y-51452116D01*
X174789500Y-51452135D01*
X171000500Y-51452135D01*
X171000500Y-48697307D01*
X171020185Y-48630268D01*
X171036819Y-48609626D01*
X172205747Y-47440697D01*
X172279588Y-47542330D01*
X172457670Y-47720412D01*
X172559301Y-47794251D01*
X171384971Y-48968580D01*
X171384972Y-48968581D01*
X171561637Y-49113567D01*
X171561651Y-49113577D01*
X171827144Y-49290974D01*
X171827162Y-49290985D01*
X172108762Y-49441504D01*
X172108767Y-49441506D01*
X172403786Y-49563707D01*
X172709371Y-49656405D01*
X172709382Y-49656408D01*
X173022544Y-49718698D01*
X173022561Y-49718701D01*
X173340341Y-49750000D01*
X173659659Y-49750000D01*
X173977438Y-49718701D01*
X173977455Y-49718698D01*
X174290617Y-49656408D01*
X174290628Y-49656405D01*
X174359500Y-49635513D01*
X184599500Y-49635513D01*
X184599500Y-49824486D01*
X184629059Y-50011118D01*
X184687454Y-50190836D01*
X184745003Y-50303781D01*
X184773240Y-50359199D01*
X184884310Y-50512073D01*
X185017927Y-50645690D01*
X185170801Y-50756760D01*
X185250347Y-50797290D01*
X185339163Y-50842545D01*
X185339165Y-50842545D01*
X185339168Y-50842547D01*
X185428734Y-50871649D01*
X185460803Y-50882069D01*
X185518478Y-50921507D01*
X185545676Y-50985866D01*
X185533761Y-51054712D01*
X185486516Y-51106188D01*
X185460803Y-51117931D01*
X185339163Y-51157454D01*
X185170800Y-51243240D01*
X185120146Y-51280043D01*
X185017927Y-51354310D01*
X185017925Y-51354312D01*
X185017924Y-51354312D01*
X184884312Y-51487924D01*
X184884312Y-51487925D01*
X184884310Y-51487927D01*
X184853418Y-51530446D01*
X184773240Y-51640800D01*
X184687454Y-51809163D01*
X184629059Y-51988881D01*
X184599500Y-52175513D01*
X184599500Y-52364486D01*
X184629059Y-52551118D01*
X184687454Y-52730836D01*
X184752016Y-52857544D01*
X184773240Y-52899199D01*
X184884310Y-53052073D01*
X185017927Y-53185690D01*
X185170801Y-53296760D01*
X185250347Y-53337290D01*
X185339163Y-53382545D01*
X185339165Y-53382545D01*
X185339168Y-53382547D01*
X185435497Y-53413846D01*
X185518881Y-53440940D01*
X185705514Y-53470500D01*
X185705519Y-53470500D01*
X185894486Y-53470500D01*
X186081118Y-53440940D01*
X186260832Y-53382547D01*
X186429199Y-53296760D01*
X186582073Y-53185690D01*
X186669220Y-53098543D01*
X201229499Y-53098543D01*
X201267947Y-53291829D01*
X201267950Y-53291839D01*
X201341954Y-53470500D01*
X201343368Y-53473914D01*
X201387352Y-53539740D01*
X201404971Y-53566110D01*
X201425848Y-53632787D01*
X201407363Y-53700167D01*
X201404971Y-53703890D01*
X201343366Y-53796089D01*
X201267950Y-53978160D01*
X201267947Y-53978170D01*
X201229500Y-54171456D01*
X201229500Y-54171459D01*
X201229500Y-54368541D01*
X201229500Y-54368543D01*
X201229499Y-54368543D01*
X201267947Y-54561829D01*
X201267950Y-54561839D01*
X201343364Y-54743907D01*
X201343371Y-54743920D01*
X201452860Y-54907781D01*
X201452863Y-54907785D01*
X201592214Y-55047136D01*
X201592218Y-55047139D01*
X201756079Y-55156628D01*
X201756092Y-55156635D01*
X201938160Y-55232049D01*
X201938165Y-55232051D01*
X201938169Y-55232051D01*
X201938170Y-55232052D01*
X202131456Y-55270500D01*
X202131459Y-55270500D01*
X202328543Y-55270500D01*
X202482195Y-55239936D01*
X202521835Y-55232051D01*
X202703914Y-55156632D01*
X202796109Y-55095029D01*
X202862786Y-55074151D01*
X202930166Y-55092635D01*
X202933891Y-55095029D01*
X203026086Y-55156632D01*
X203026088Y-55156633D01*
X203026092Y-55156635D01*
X203208160Y-55232049D01*
X203208165Y-55232051D01*
X203208169Y-55232051D01*
X203208170Y-55232052D01*
X203401456Y-55270500D01*
X203401459Y-55270500D01*
X203598543Y-55270500D01*
X203752195Y-55239936D01*
X203791835Y-55232051D01*
X203973914Y-55156632D01*
X204137782Y-55047139D01*
X204277139Y-54907782D01*
X204386632Y-54743914D01*
X204462051Y-54561835D01*
X204500500Y-54368541D01*
X204500500Y-54171459D01*
X204500500Y-54171456D01*
X204462052Y-53978170D01*
X204462051Y-53978169D01*
X204462051Y-53978165D01*
X204462049Y-53978160D01*
X204386635Y-53796092D01*
X204386633Y-53796088D01*
X204386632Y-53796086D01*
X204325029Y-53703891D01*
X204304151Y-53637214D01*
X204322635Y-53569834D01*
X204325029Y-53566109D01*
X204337872Y-53546887D01*
X204386632Y-53473914D01*
X204462051Y-53291835D01*
X204483165Y-53185690D01*
X204500500Y-53098543D01*
X204500500Y-52901456D01*
X204462052Y-52708170D01*
X204462051Y-52708169D01*
X204462051Y-52708165D01*
X204432897Y-52637781D01*
X204386635Y-52526092D01*
X204386628Y-52526079D01*
X204324728Y-52433440D01*
X204303850Y-52366763D01*
X204322334Y-52299383D01*
X204324729Y-52295657D01*
X204386189Y-52203676D01*
X204386191Y-52203673D01*
X204461569Y-52021692D01*
X204461569Y-52021690D01*
X204469862Y-51980000D01*
X203709618Y-51980000D01*
X203760064Y-51929554D01*
X203802851Y-51855445D01*
X203825000Y-51772787D01*
X203825000Y-51687213D01*
X203802851Y-51604555D01*
X203760064Y-51530446D01*
X203709618Y-51480000D01*
X204469862Y-51480000D01*
X204461569Y-51438309D01*
X204461569Y-51438307D01*
X204386192Y-51256328D01*
X204386188Y-51256321D01*
X204324728Y-51164341D01*
X204303850Y-51097663D01*
X204322334Y-51030283D01*
X204324704Y-51026595D01*
X204386632Y-50933914D01*
X204394056Y-50915992D01*
X204462049Y-50751839D01*
X204462051Y-50751835D01*
X204483165Y-50645690D01*
X204500500Y-50558543D01*
X204500500Y-50361456D01*
X204462052Y-50168170D01*
X204462051Y-50168169D01*
X204462051Y-50168165D01*
X204442459Y-50120865D01*
X204386635Y-49986092D01*
X204386628Y-49986079D01*
X204277139Y-49822218D01*
X204277136Y-49822214D01*
X204137785Y-49682863D01*
X204137781Y-49682860D01*
X203973920Y-49573371D01*
X203973907Y-49573364D01*
X203791839Y-49497950D01*
X203791829Y-49497947D01*
X203598543Y-49459500D01*
X203598541Y-49459500D01*
X203401459Y-49459500D01*
X203401457Y-49459500D01*
X203208171Y-49497947D01*
X203208168Y-49497948D01*
X203208166Y-49497948D01*
X203208165Y-49497949D01*
X203208163Y-49497950D01*
X203105874Y-49540318D01*
X203036404Y-49547785D01*
X202984113Y-49525023D01*
X202972335Y-49516206D01*
X202972328Y-49516202D01*
X202837482Y-49465908D01*
X202837483Y-49465908D01*
X202777883Y-49459501D01*
X202777881Y-49459500D01*
X202777873Y-49459500D01*
X202777864Y-49459500D01*
X201682129Y-49459500D01*
X201682123Y-49459501D01*
X201622516Y-49465908D01*
X201487671Y-49516202D01*
X201487664Y-49516206D01*
X201372455Y-49602452D01*
X201372452Y-49602455D01*
X201286206Y-49717664D01*
X201286202Y-49717671D01*
X201235908Y-49852517D01*
X201229501Y-49912116D01*
X201229500Y-49912135D01*
X201229500Y-51007870D01*
X201229501Y-51007876D01*
X201235908Y-51067483D01*
X201286202Y-51202328D01*
X201286203Y-51202330D01*
X201295372Y-51214578D01*
X201319788Y-51280043D01*
X201310665Y-51336340D01*
X201268432Y-51438300D01*
X201268430Y-51438307D01*
X201260138Y-51480000D01*
X202020382Y-51480000D01*
X201969936Y-51530446D01*
X201927149Y-51604555D01*
X201905000Y-51687213D01*
X201905000Y-51772787D01*
X201927149Y-51855445D01*
X201969936Y-51929554D01*
X202020382Y-51980000D01*
X201260138Y-51980000D01*
X201268430Y-52021690D01*
X201268430Y-52021692D01*
X201343807Y-52203671D01*
X201343814Y-52203684D01*
X201405270Y-52295659D01*
X201426148Y-52362337D01*
X201407663Y-52429717D01*
X201405271Y-52433440D01*
X201343370Y-52526082D01*
X201343364Y-52526093D01*
X201267950Y-52708160D01*
X201267947Y-52708170D01*
X201229500Y-52901456D01*
X201229500Y-52901459D01*
X201229500Y-53098541D01*
X201229500Y-53098543D01*
X201229499Y-53098543D01*
X186669220Y-53098543D01*
X186715690Y-53052073D01*
X186826760Y-52899199D01*
X186912547Y-52730832D01*
X186970940Y-52551118D01*
X186983169Y-52473907D01*
X187000500Y-52364486D01*
X187000500Y-52175513D01*
X186970940Y-51988881D01*
X186912545Y-51809163D01*
X186861086Y-51708170D01*
X186826760Y-51640801D01*
X186715690Y-51487927D01*
X186582073Y-51354310D01*
X186429199Y-51243240D01*
X186389201Y-51222860D01*
X186260836Y-51157454D01*
X186186472Y-51133291D01*
X186139195Y-51117930D01*
X186081521Y-51078493D01*
X186054323Y-51014134D01*
X186066238Y-50945288D01*
X186113482Y-50893812D01*
X186139194Y-50882069D01*
X186260832Y-50842547D01*
X186429199Y-50756760D01*
X186582073Y-50645690D01*
X186715690Y-50512073D01*
X186826760Y-50359199D01*
X186912547Y-50190832D01*
X186970940Y-50011118D01*
X186974906Y-49986079D01*
X187000500Y-49824486D01*
X187000500Y-49635514D01*
X186999994Y-49632321D01*
X186999994Y-49632319D01*
X186999993Y-49632315D01*
X186997885Y-49619004D01*
X187430000Y-49619004D01*
X187430000Y-50017500D01*
X188130000Y-50017500D01*
X188130000Y-50517500D01*
X187430000Y-50517500D01*
X187430000Y-50915995D01*
X187468427Y-51109181D01*
X187468430Y-51109193D01*
X187543807Y-51291171D01*
X187543814Y-51291184D01*
X187653248Y-51454962D01*
X187653251Y-51454966D01*
X187792533Y-51594248D01*
X187792537Y-51594251D01*
X187956315Y-51703685D01*
X187956328Y-51703692D01*
X188138308Y-51779069D01*
X188180000Y-51787362D01*
X188180000Y-50984488D01*
X188189940Y-51001705D01*
X188245795Y-51057560D01*
X188314204Y-51097056D01*
X188390504Y-51117500D01*
X188469496Y-51117500D01*
X188545796Y-51097056D01*
X188614205Y-51057560D01*
X188670060Y-51001705D01*
X188680000Y-50984488D01*
X188680000Y-51787362D01*
X188721690Y-51779069D01*
X188721692Y-51779069D01*
X188903671Y-51703692D01*
X188903684Y-51703685D01*
X189067462Y-51594251D01*
X189067466Y-51594248D01*
X189206748Y-51454966D01*
X189206751Y-51454962D01*
X189316185Y-51291184D01*
X189316192Y-51291171D01*
X189391569Y-51109193D01*
X189391572Y-51109181D01*
X189429999Y-50915995D01*
X189430000Y-50915992D01*
X189430000Y-50517500D01*
X188730000Y-50517500D01*
X188730000Y-50017500D01*
X189268216Y-50017500D01*
X189335255Y-50037185D01*
X189375602Y-50079499D01*
X189399485Y-50120865D01*
X189506635Y-50228015D01*
X189637865Y-50303781D01*
X189784234Y-50343000D01*
X189784236Y-50343000D01*
X189935764Y-50343000D01*
X189935766Y-50343000D01*
X190082135Y-50303781D01*
X190213365Y-50228015D01*
X190320515Y-50120865D01*
X190396281Y-49989635D01*
X190435500Y-49843266D01*
X190435500Y-49691734D01*
X195064500Y-49691734D01*
X195064500Y-49843265D01*
X195103719Y-49989636D01*
X195116122Y-50011118D01*
X195179485Y-50120865D01*
X195286635Y-50228015D01*
X195417865Y-50303781D01*
X195564234Y-50343000D01*
X195564236Y-50343000D01*
X195715763Y-50343000D01*
X195715766Y-50343000D01*
X195862135Y-50303781D01*
X195993365Y-50228015D01*
X196100515Y-50120865D01*
X196124397Y-50079499D01*
X196174964Y-50031284D01*
X196231784Y-50017500D01*
X196770000Y-50017500D01*
X196770000Y-50517500D01*
X196070000Y-50517500D01*
X196070000Y-50915995D01*
X196108427Y-51109181D01*
X196108430Y-51109193D01*
X196183807Y-51291171D01*
X196183814Y-51291184D01*
X196293248Y-51454962D01*
X196293251Y-51454966D01*
X196432533Y-51594248D01*
X196432537Y-51594251D01*
X196596315Y-51703685D01*
X196596328Y-51703692D01*
X196778308Y-51779069D01*
X196820000Y-51787362D01*
X196820000Y-50984488D01*
X196829940Y-51001705D01*
X196885795Y-51057560D01*
X196954204Y-51097056D01*
X197030504Y-51117500D01*
X197109496Y-51117500D01*
X197185796Y-51097056D01*
X197254205Y-51057560D01*
X197310060Y-51001705D01*
X197320000Y-50984488D01*
X197320000Y-51787362D01*
X197361690Y-51779069D01*
X197361692Y-51779069D01*
X197543671Y-51703692D01*
X197543684Y-51703685D01*
X197707462Y-51594251D01*
X197707466Y-51594248D01*
X197846748Y-51454966D01*
X197846751Y-51454962D01*
X197956185Y-51291184D01*
X197956192Y-51291171D01*
X198031569Y-51109193D01*
X198031572Y-51109181D01*
X198069999Y-50915995D01*
X198070000Y-50915992D01*
X198070000Y-50517500D01*
X197370000Y-50517500D01*
X197370000Y-50017500D01*
X198070000Y-50017500D01*
X198070000Y-49619008D01*
X198069999Y-49619004D01*
X198031572Y-49425818D01*
X198031569Y-49425806D01*
X197956192Y-49243828D01*
X197956185Y-49243815D01*
X197846751Y-49080037D01*
X197846748Y-49080033D01*
X197707466Y-48940751D01*
X197707462Y-48940748D01*
X197543684Y-48831314D01*
X197543671Y-48831307D01*
X197361691Y-48755929D01*
X197361683Y-48755927D01*
X197320000Y-48747635D01*
X197320000Y-49550511D01*
X197310060Y-49533295D01*
X197254205Y-49477440D01*
X197185796Y-49437944D01*
X197109496Y-49417500D01*
X197030504Y-49417500D01*
X196954204Y-49437944D01*
X196885795Y-49477440D01*
X196829940Y-49533295D01*
X196820000Y-49550511D01*
X196820000Y-48747636D01*
X196819999Y-48747635D01*
X196778316Y-48755927D01*
X196778308Y-48755929D01*
X196596328Y-48831307D01*
X196596315Y-48831314D01*
X196432537Y-48940748D01*
X196432533Y-48940751D01*
X196293251Y-49080033D01*
X196293248Y-49080037D01*
X196183814Y-49243815D01*
X196183809Y-49243824D01*
X196179866Y-49253345D01*
X196136023Y-49307747D01*
X196069728Y-49329810D01*
X196002030Y-49312529D01*
X195996597Y-49308851D01*
X195862136Y-49231219D01*
X195788950Y-49211609D01*
X195715766Y-49192000D01*
X195564234Y-49192000D01*
X195417863Y-49231219D01*
X195286635Y-49306985D01*
X195286632Y-49306987D01*
X195179487Y-49414132D01*
X195179485Y-49414135D01*
X195103719Y-49545363D01*
X195064500Y-49691734D01*
X190435500Y-49691734D01*
X190396281Y-49545365D01*
X190320515Y-49414135D01*
X190213365Y-49306985D01*
X190143406Y-49266594D01*
X190082136Y-49231219D01*
X190008950Y-49211609D01*
X189935766Y-49192000D01*
X189784234Y-49192000D01*
X189637863Y-49231219D01*
X189546428Y-49284010D01*
X189506635Y-49306985D01*
X189506633Y-49306986D01*
X189499597Y-49311049D01*
X189498327Y-49308849D01*
X189444995Y-49329460D01*
X189376552Y-49315414D01*
X189326568Y-49266594D01*
X189320131Y-49253338D01*
X189316192Y-49243828D01*
X189316185Y-49243815D01*
X189206751Y-49080037D01*
X189206748Y-49080033D01*
X189067466Y-48940751D01*
X189067462Y-48940748D01*
X188903684Y-48831314D01*
X188903671Y-48831307D01*
X188721691Y-48755929D01*
X188721683Y-48755927D01*
X188680000Y-48747635D01*
X188680000Y-49550511D01*
X188670060Y-49533295D01*
X188614205Y-49477440D01*
X188545796Y-49437944D01*
X188469496Y-49417500D01*
X188390504Y-49417500D01*
X188314204Y-49437944D01*
X188245795Y-49477440D01*
X188189940Y-49533295D01*
X188180000Y-49550511D01*
X188180000Y-48747636D01*
X188179999Y-48747635D01*
X188138316Y-48755927D01*
X188138308Y-48755929D01*
X187956328Y-48831307D01*
X187956315Y-48831314D01*
X187792537Y-48940748D01*
X187792533Y-48940751D01*
X187653251Y-49080033D01*
X187653248Y-49080037D01*
X187543814Y-49243815D01*
X187543807Y-49243828D01*
X187468430Y-49425806D01*
X187468427Y-49425818D01*
X187430000Y-49619004D01*
X186997885Y-49619004D01*
X186970940Y-49448881D01*
X186924835Y-49306987D01*
X186912547Y-49269168D01*
X186912545Y-49269165D01*
X186912545Y-49269163D01*
X186867290Y-49180347D01*
X186826760Y-49100801D01*
X186715690Y-48947927D01*
X186582073Y-48814310D01*
X186429199Y-48703240D01*
X186417555Y-48697307D01*
X186260836Y-48617454D01*
X186081118Y-48559059D01*
X185894486Y-48529500D01*
X185894481Y-48529500D01*
X185705519Y-48529500D01*
X185705514Y-48529500D01*
X185518881Y-48559059D01*
X185339163Y-48617454D01*
X185170800Y-48703240D01*
X185092280Y-48760289D01*
X185017927Y-48814310D01*
X185017925Y-48814312D01*
X185017924Y-48814312D01*
X184884312Y-48947924D01*
X184884312Y-48947925D01*
X184884310Y-48947927D01*
X184875982Y-48959390D01*
X184773240Y-49100800D01*
X184687454Y-49269163D01*
X184629059Y-49448881D01*
X184599500Y-49635513D01*
X174359500Y-49635513D01*
X174596217Y-49563706D01*
X174711180Y-49516086D01*
X174711182Y-49516086D01*
X174891232Y-49441506D01*
X174891237Y-49441504D01*
X175172837Y-49290985D01*
X175172855Y-49290974D01*
X175438348Y-49113577D01*
X175438361Y-49113567D01*
X175615026Y-48968581D01*
X175615027Y-48968580D01*
X174440698Y-47794251D01*
X174542330Y-47720412D01*
X174720412Y-47542330D01*
X174794251Y-47440698D01*
X175968580Y-48615027D01*
X175968581Y-48615026D01*
X176113567Y-48438361D01*
X176113577Y-48438348D01*
X176290974Y-48172855D01*
X176290985Y-48172837D01*
X176291885Y-48171153D01*
X183199500Y-48171153D01*
X183199500Y-48328846D01*
X183230261Y-48483489D01*
X183230264Y-48483501D01*
X183290602Y-48629172D01*
X183290609Y-48629185D01*
X183378210Y-48760288D01*
X183378213Y-48760292D01*
X183489707Y-48871786D01*
X183489711Y-48871789D01*
X183620814Y-48959390D01*
X183620827Y-48959397D01*
X183766498Y-49019735D01*
X183766503Y-49019737D01*
X183921153Y-49050499D01*
X183921156Y-49050500D01*
X183921158Y-49050500D01*
X184078844Y-49050500D01*
X184078845Y-49050499D01*
X184233497Y-49019737D01*
X184346166Y-48973067D01*
X184379172Y-48959397D01*
X184379172Y-48959396D01*
X184379179Y-48959394D01*
X184510289Y-48871789D01*
X184621789Y-48760289D01*
X184709394Y-48629179D01*
X184769737Y-48483497D01*
X184800500Y-48328842D01*
X184800500Y-48171158D01*
X184800500Y-48171155D01*
X184800499Y-48171153D01*
X184769738Y-48016510D01*
X184769737Y-48016503D01*
X184717851Y-47891237D01*
X184709397Y-47870827D01*
X184709390Y-47870814D01*
X184621789Y-47739711D01*
X184621786Y-47739707D01*
X184510292Y-47628213D01*
X184510288Y-47628210D01*
X184379185Y-47540609D01*
X184379172Y-47540602D01*
X184233501Y-47480264D01*
X184233489Y-47480261D01*
X184078845Y-47449500D01*
X184078842Y-47449500D01*
X183921158Y-47449500D01*
X183921155Y-47449500D01*
X183766510Y-47480261D01*
X183766498Y-47480264D01*
X183620827Y-47540602D01*
X183620814Y-47540609D01*
X183489711Y-47628210D01*
X183489707Y-47628213D01*
X183378213Y-47739707D01*
X183378210Y-47739711D01*
X183290609Y-47870814D01*
X183290602Y-47870827D01*
X183230264Y-48016498D01*
X183230261Y-48016510D01*
X183199500Y-48171153D01*
X176291885Y-48171153D01*
X176326383Y-48106613D01*
X176441504Y-47891237D01*
X176441506Y-47891232D01*
X176563707Y-47596213D01*
X176656405Y-47290628D01*
X176656408Y-47290617D01*
X176718698Y-46977455D01*
X176718701Y-46977438D01*
X176750000Y-46659658D01*
X176750000Y-46340341D01*
X176718701Y-46022561D01*
X176718698Y-46022544D01*
X176656408Y-45709382D01*
X176656405Y-45709371D01*
X176563707Y-45403786D01*
X176441506Y-45108767D01*
X176441504Y-45108762D01*
X176290985Y-44827162D01*
X176290974Y-44827144D01*
X176113577Y-44561651D01*
X176113567Y-44561637D01*
X175968581Y-44384972D01*
X175968580Y-44384971D01*
X174794251Y-45559300D01*
X174720412Y-45457670D01*
X174542330Y-45279588D01*
X174440697Y-45205747D01*
X175609626Y-44036819D01*
X175670949Y-44003334D01*
X175697307Y-44000500D01*
X178714386Y-44000500D01*
X178781425Y-44020185D01*
G37*
%TD.AperFunction*%
%TA.AperFunction,Conductor*%
G36*
X204397515Y-70603363D02*
G01*
X204407599Y-70602097D01*
X204430473Y-70613040D01*
X204454803Y-70620185D01*
X204461457Y-70627865D01*
X204470627Y-70632252D01*
X204483954Y-70653828D01*
X204500558Y-70672989D01*
X204502004Y-70683047D01*
X204507346Y-70691695D01*
X204506893Y-70717047D01*
X204510502Y-70742147D01*
X204506246Y-70753253D01*
X204506098Y-70761553D01*
X204490866Y-70793391D01*
X204433198Y-70879695D01*
X204433191Y-70879708D01*
X204372853Y-71025379D01*
X204372850Y-71025391D01*
X204342089Y-71180034D01*
X204342089Y-71223763D01*
X204322404Y-71290802D01*
X204305770Y-71311444D01*
X204019481Y-71597732D01*
X204019479Y-71597735D01*
X204007458Y-71618556D01*
X203977213Y-71670943D01*
X203940423Y-71734665D01*
X203899499Y-71887393D01*
X203899499Y-71887395D01*
X203899499Y-72055496D01*
X203899500Y-72055509D01*
X203899500Y-76268059D01*
X203879815Y-76335098D01*
X203827011Y-76380853D01*
X203757853Y-76390797D01*
X203694297Y-76361772D01*
X203687819Y-76355740D01*
X203610292Y-76278213D01*
X203610288Y-76278210D01*
X203479185Y-76190609D01*
X203479172Y-76190602D01*
X203333501Y-76130264D01*
X203333489Y-76130261D01*
X203178845Y-76099500D01*
X203178842Y-76099500D01*
X203021158Y-76099500D01*
X203021155Y-76099500D01*
X202866510Y-76130261D01*
X202866498Y-76130264D01*
X202720827Y-76190602D01*
X202720814Y-76190609D01*
X202589711Y-76278210D01*
X202589707Y-76278213D01*
X202478213Y-76389707D01*
X202478210Y-76389711D01*
X202390609Y-76520814D01*
X202390602Y-76520827D01*
X202330264Y-76666498D01*
X202330261Y-76666510D01*
X202299500Y-76821153D01*
X202299500Y-76978846D01*
X202330261Y-77133489D01*
X202330264Y-77133501D01*
X202390602Y-77279172D01*
X202390609Y-77279185D01*
X202478210Y-77410288D01*
X202478213Y-77410292D01*
X202589707Y-77521786D01*
X202589711Y-77521789D01*
X202720814Y-77609390D01*
X202720827Y-77609397D01*
X202858683Y-77666498D01*
X202866503Y-77669737D01*
X203021153Y-77700499D01*
X203021156Y-77700500D01*
X203021158Y-77700500D01*
X203178844Y-77700500D01*
X203178845Y-77700499D01*
X203333497Y-77669737D01*
X203479179Y-77609394D01*
X203610289Y-77521789D01*
X203647408Y-77484670D01*
X203687819Y-77444260D01*
X203749142Y-77410775D01*
X203818834Y-77415759D01*
X203874767Y-77457631D01*
X203899184Y-77523095D01*
X203899500Y-77531941D01*
X203899500Y-78449902D01*
X203879815Y-78516941D01*
X203863181Y-78537583D01*
X203249481Y-79151282D01*
X203249479Y-79151285D01*
X203199361Y-79238094D01*
X203199358Y-79238099D01*
X203190723Y-79253054D01*
X203140154Y-79301268D01*
X203071547Y-79314488D01*
X203027043Y-79301535D01*
X202876380Y-79224769D01*
X202876377Y-79224767D01*
X202714004Y-79172009D01*
X202583812Y-79151389D01*
X202545368Y-79145300D01*
X202374632Y-79145300D01*
X202336188Y-79151389D01*
X202205997Y-79172009D01*
X202205994Y-79172009D01*
X202043622Y-79224767D01*
X202043614Y-79224771D01*
X201970795Y-79261874D01*
X201902126Y-79274770D01*
X201837386Y-79248493D01*
X201797129Y-79191387D01*
X201790501Y-79151389D01*
X201790501Y-79110944D01*
X201781523Y-79077438D01*
X201749577Y-78958216D01*
X201699677Y-78871786D01*
X201670524Y-78821290D01*
X201670518Y-78821282D01*
X199487590Y-76638355D01*
X199487588Y-76638352D01*
X199368717Y-76519481D01*
X199368716Y-76519480D01*
X199268476Y-76461607D01*
X199268475Y-76461606D01*
X199231783Y-76440422D01*
X199175881Y-76425443D01*
X199079057Y-76399499D01*
X198920943Y-76399499D01*
X198913347Y-76399499D01*
X198913331Y-76399500D01*
X197050097Y-76399500D01*
X196983058Y-76379815D01*
X196962416Y-76363181D01*
X196636819Y-76037584D01*
X196603334Y-75976261D01*
X196600500Y-75949903D01*
X196600500Y-72123500D01*
X196620185Y-72056461D01*
X196672989Y-72010706D01*
X196724500Y-71999500D01*
X197832550Y-71999500D01*
X197899589Y-72019185D01*
X197945344Y-72071989D01*
X197955288Y-72141147D01*
X197954168Y-72147690D01*
X197949500Y-72171158D01*
X197949500Y-72328846D01*
X197980261Y-72483489D01*
X197980264Y-72483501D01*
X198000603Y-72532603D01*
X198008072Y-72602072D01*
X197976797Y-72664551D01*
X197916708Y-72700203D01*
X197910234Y-72701672D01*
X197766508Y-72730261D01*
X197766498Y-72730264D01*
X197620827Y-72790602D01*
X197620814Y-72790609D01*
X197489711Y-72878210D01*
X197489707Y-72878213D01*
X197378213Y-72989707D01*
X197378210Y-72989711D01*
X197290609Y-73120814D01*
X197290602Y-73120827D01*
X197230264Y-73266498D01*
X197230261Y-73266510D01*
X197199500Y-73421153D01*
X197199500Y-73578846D01*
X197230261Y-73733489D01*
X197230264Y-73733501D01*
X197290602Y-73879172D01*
X197290609Y-73879185D01*
X197378210Y-74010288D01*
X197378213Y-74010292D01*
X197489707Y-74121786D01*
X197489711Y-74121789D01*
X197620814Y-74209390D01*
X197620827Y-74209397D01*
X197715094Y-74248443D01*
X197766503Y-74269737D01*
X197831147Y-74282595D01*
X197921849Y-74300638D01*
X197983760Y-74333023D01*
X197985339Y-74334574D01*
X198415139Y-74764374D01*
X198415149Y-74764385D01*
X198419479Y-74768715D01*
X198419480Y-74768716D01*
X198531284Y-74880520D01*
X198582845Y-74910288D01*
X198618095Y-74930639D01*
X198618097Y-74930641D01*
X198667891Y-74959390D01*
X198668215Y-74959577D01*
X198820942Y-75000500D01*
X198820943Y-75000500D01*
X199720234Y-75000500D01*
X199787273Y-75020185D01*
X199789125Y-75021398D01*
X199920814Y-75109390D01*
X199920827Y-75109397D01*
X200066498Y-75169735D01*
X200066503Y-75169737D01*
X200221153Y-75200499D01*
X200221156Y-75200500D01*
X200221158Y-75200500D01*
X200378844Y-75200500D01*
X200378845Y-75200499D01*
X200533497Y-75169737D01*
X200679179Y-75109394D01*
X200810289Y-75021789D01*
X200921789Y-74910289D01*
X201009394Y-74779179D01*
X201069737Y-74633497D01*
X201100500Y-74478842D01*
X201100500Y-74321158D01*
X201100500Y-74321155D01*
X201100499Y-74321153D01*
X201082367Y-74230000D01*
X201069737Y-74166503D01*
X201051215Y-74121786D01*
X201009397Y-74020827D01*
X201009390Y-74020814D01*
X200921789Y-73889711D01*
X200921786Y-73889707D01*
X200810292Y-73778213D01*
X200810288Y-73778210D01*
X200679185Y-73690609D01*
X200679172Y-73690602D01*
X200533501Y-73630264D01*
X200533489Y-73630261D01*
X200378845Y-73599500D01*
X200378842Y-73599500D01*
X200221158Y-73599500D01*
X200221155Y-73599500D01*
X200066510Y-73630261D01*
X200066498Y-73630264D01*
X199920827Y-73690602D01*
X199920814Y-73690609D01*
X199789125Y-73778602D01*
X199722447Y-73799480D01*
X199720234Y-73799500D01*
X199200097Y-73799500D01*
X199133058Y-73779815D01*
X199112416Y-73763181D01*
X198834574Y-73485339D01*
X198826395Y-73470990D01*
X198815660Y-73461009D01*
X198805269Y-73433921D01*
X198802129Y-73428412D01*
X198800500Y-73422049D01*
X198800500Y-73421158D01*
X198769737Y-73266503D01*
X198746017Y-73209238D01*
X198743831Y-73200698D01*
X198744756Y-73174245D01*
X198741927Y-73147928D01*
X198745959Y-73139873D01*
X198746274Y-73130871D01*
X198761355Y-73109115D01*
X198773202Y-73085449D01*
X198780947Y-73080853D01*
X198786080Y-73073449D01*
X198810529Y-73063300D01*
X198833290Y-73049796D01*
X198839766Y-73048327D01*
X198983497Y-73019737D01*
X199129179Y-72959394D01*
X199231806Y-72890821D01*
X199260875Y-72871398D01*
X199327553Y-72850520D01*
X199329766Y-72850500D01*
X199670234Y-72850500D01*
X199737273Y-72870185D01*
X199739125Y-72871398D01*
X199870814Y-72959390D01*
X199870827Y-72959397D01*
X199944013Y-72989711D01*
X200016503Y-73019737D01*
X200160234Y-73048327D01*
X200171153Y-73050499D01*
X200171156Y-73050500D01*
X200171158Y-73050500D01*
X200328844Y-73050500D01*
X200328845Y-73050499D01*
X200483497Y-73019737D01*
X200629179Y-72959394D01*
X200760289Y-72871789D01*
X200871789Y-72760289D01*
X200959394Y-72629179D01*
X201019737Y-72483497D01*
X201050500Y-72328842D01*
X201050500Y-72171158D01*
X201050500Y-72171155D01*
X201050499Y-72171153D01*
X201019737Y-72016503D01*
X201015349Y-72005909D01*
X200959397Y-71870827D01*
X200959390Y-71870814D01*
X200871789Y-71739711D01*
X200871786Y-71739707D01*
X200760292Y-71628213D01*
X200760288Y-71628210D01*
X200629185Y-71540609D01*
X200629172Y-71540602D01*
X200483501Y-71480264D01*
X200483489Y-71480261D01*
X200328845Y-71449500D01*
X200328842Y-71449500D01*
X200171158Y-71449500D01*
X200171155Y-71449500D01*
X200016510Y-71480261D01*
X200016498Y-71480264D01*
X199870827Y-71540602D01*
X199870814Y-71540609D01*
X199739125Y-71628602D01*
X199672447Y-71649480D01*
X199670234Y-71649500D01*
X199329766Y-71649500D01*
X199311620Y-71644171D01*
X199292712Y-71643834D01*
X199264493Y-71630333D01*
X199262727Y-71629815D01*
X199260874Y-71628602D01*
X199260287Y-71628210D01*
X199245839Y-71618556D01*
X199216044Y-71598647D01*
X199171240Y-71545034D01*
X199162533Y-71475709D01*
X199192688Y-71412682D01*
X199197233Y-71407886D01*
X199770286Y-70834834D01*
X199831607Y-70801351D01*
X199833774Y-70800900D01*
X199891709Y-70789375D01*
X199989121Y-70769999D01*
X200131773Y-70710910D01*
X200201240Y-70703442D01*
X200226671Y-70710909D01*
X200321888Y-70750349D01*
X200476538Y-70781111D01*
X200476541Y-70781112D01*
X200476543Y-70781112D01*
X200634229Y-70781112D01*
X200634230Y-70781111D01*
X200788882Y-70750349D01*
X200874161Y-70715025D01*
X200943626Y-70707557D01*
X200983314Y-70723585D01*
X200983781Y-70722713D01*
X200989162Y-70725589D01*
X201129831Y-70783855D01*
X201134838Y-70785929D01*
X201289488Y-70816691D01*
X201289491Y-70816692D01*
X201289493Y-70816692D01*
X201447179Y-70816692D01*
X201447180Y-70816691D01*
X201601832Y-70785929D01*
X201723384Y-70735580D01*
X201792853Y-70728112D01*
X201818288Y-70735581D01*
X201928211Y-70781112D01*
X201934838Y-70783857D01*
X202089488Y-70814619D01*
X202089491Y-70814620D01*
X202089493Y-70814620D01*
X202247179Y-70814620D01*
X202247180Y-70814619D01*
X202401832Y-70783857D01*
X202518381Y-70735581D01*
X202547507Y-70723517D01*
X202547507Y-70723516D01*
X202547514Y-70723514D01*
X202678624Y-70635909D01*
X202678628Y-70635904D01*
X202683334Y-70632044D01*
X202684301Y-70633222D01*
X202739038Y-70603334D01*
X202765396Y-70600500D01*
X204387764Y-70600500D01*
X204397515Y-70603363D01*
G37*
%TD.AperFunction*%
%TA.AperFunction,Conductor*%
G36*
X211466861Y-59570104D02*
G01*
X211487503Y-59586738D01*
X213173372Y-61272607D01*
X213206857Y-61333930D01*
X213201873Y-61403622D01*
X213160001Y-61459555D01*
X213094537Y-61483972D01*
X213066294Y-61482761D01*
X212856287Y-61449500D01*
X212643713Y-61449500D01*
X212595042Y-61457208D01*
X212433760Y-61482753D01*
X212231585Y-61548444D01*
X212042179Y-61644951D01*
X211870215Y-61769889D01*
X211756673Y-61883431D01*
X211695350Y-61916915D01*
X211625658Y-61911931D01*
X211569725Y-61870059D01*
X211552810Y-61839082D01*
X211503797Y-61707671D01*
X211503793Y-61707664D01*
X211417547Y-61592455D01*
X211417544Y-61592452D01*
X211302335Y-61506206D01*
X211302328Y-61506202D01*
X211167482Y-61455908D01*
X211167483Y-61455908D01*
X211107883Y-61449501D01*
X211107881Y-61449500D01*
X211107873Y-61449500D01*
X211107864Y-61449500D01*
X209312129Y-61449500D01*
X209312123Y-61449501D01*
X209252516Y-61455908D01*
X209117671Y-61506202D01*
X209117664Y-61506206D01*
X209002455Y-61592452D01*
X209002452Y-61592455D01*
X208916206Y-61707664D01*
X208916202Y-61707671D01*
X208865908Y-61842517D01*
X208859501Y-61902116D01*
X208859500Y-61902135D01*
X208859500Y-63697870D01*
X208859501Y-63697876D01*
X208865908Y-63757483D01*
X208916202Y-63892328D01*
X208916206Y-63892335D01*
X209002452Y-64007544D01*
X209002455Y-64007547D01*
X209117664Y-64093793D01*
X209117671Y-64093797D01*
X209117674Y-64093798D01*
X209249598Y-64143002D01*
X209305531Y-64184873D01*
X209329949Y-64250337D01*
X209315098Y-64318610D01*
X209293947Y-64346865D01*
X209180271Y-64460541D01*
X209055379Y-64632442D01*
X208958904Y-64821782D01*
X208893242Y-65023870D01*
X208893242Y-65023873D01*
X208882769Y-65090000D01*
X209776988Y-65090000D01*
X209744075Y-65147007D01*
X209710000Y-65274174D01*
X209710000Y-65405826D01*
X209744075Y-65532993D01*
X209776988Y-65590000D01*
X208882769Y-65590000D01*
X208893242Y-65656126D01*
X208893242Y-65656129D01*
X208958904Y-65858217D01*
X209055379Y-66047557D01*
X209180272Y-66219459D01*
X209180276Y-66219464D01*
X209330535Y-66369723D01*
X209330540Y-66369727D01*
X209502444Y-66494622D01*
X209511495Y-66499234D01*
X209562292Y-66547208D01*
X209579087Y-66615029D01*
X209556550Y-66681164D01*
X209511499Y-66720202D01*
X209502182Y-66724949D01*
X209330213Y-66849890D01*
X209179890Y-67000213D01*
X209054948Y-67172184D01*
X209054947Y-67172185D01*
X209034765Y-67211795D01*
X208986791Y-67262591D01*
X208924281Y-67279500D01*
X208430098Y-67279500D01*
X208363059Y-67259815D01*
X208342417Y-67243181D01*
X207237590Y-66138355D01*
X207237588Y-66138352D01*
X207118717Y-66019481D01*
X207118716Y-66019480D01*
X207031904Y-65969360D01*
X207031904Y-65969359D01*
X207031900Y-65969358D01*
X206981785Y-65940423D01*
X206829057Y-65899499D01*
X206670943Y-65899499D01*
X206663347Y-65899499D01*
X206663331Y-65899500D01*
X204543187Y-65899500D01*
X204476148Y-65879815D01*
X204430393Y-65827011D01*
X204420449Y-65757853D01*
X204428626Y-65728048D01*
X204485279Y-65591273D01*
X204485281Y-65591269D01*
X204516044Y-65436614D01*
X204516044Y-65278930D01*
X204516044Y-65278927D01*
X204516043Y-65278925D01*
X204506363Y-65230261D01*
X204485281Y-65124275D01*
X204452717Y-65045659D01*
X204445249Y-64976193D01*
X204476524Y-64913713D01*
X204536613Y-64878061D01*
X204606438Y-64880554D01*
X204614731Y-64883648D01*
X204641498Y-64894735D01*
X204641503Y-64894737D01*
X204796153Y-64925499D01*
X204796156Y-64925500D01*
X204796158Y-64925500D01*
X204953844Y-64925500D01*
X204953845Y-64925499D01*
X205108497Y-64894737D01*
X205254179Y-64834394D01*
X205385289Y-64746789D01*
X205496789Y-64635289D01*
X205583216Y-64505941D01*
X205584390Y-64504185D01*
X205584390Y-64504184D01*
X205584394Y-64504179D01*
X205644737Y-64358497D01*
X205675500Y-64203842D01*
X205675500Y-64046158D01*
X205675500Y-64046155D01*
X205675499Y-64046153D01*
X205670245Y-64019738D01*
X205644737Y-63891503D01*
X205611142Y-63810396D01*
X205584397Y-63745827D01*
X205584390Y-63745814D01*
X205496789Y-63614711D01*
X205496786Y-63614707D01*
X205385292Y-63503213D01*
X205385288Y-63503210D01*
X205254185Y-63415609D01*
X205254176Y-63415604D01*
X205181574Y-63385532D01*
X205127171Y-63341691D01*
X205114470Y-63318432D01*
X205084394Y-63245821D01*
X205084391Y-63245816D01*
X205084390Y-63245814D01*
X204996790Y-63114712D01*
X204994278Y-63111651D01*
X204993464Y-63109734D01*
X204993405Y-63109646D01*
X204993421Y-63109634D01*
X204966968Y-63047339D01*
X204978763Y-62978472D01*
X205002451Y-62945312D01*
X207110945Y-60836819D01*
X207172268Y-60803334D01*
X207198626Y-60800500D01*
X207328844Y-60800500D01*
X207328845Y-60800499D01*
X207483497Y-60769737D01*
X207629179Y-60709394D01*
X207760289Y-60621789D01*
X207871789Y-60510289D01*
X207959394Y-60379179D01*
X208019737Y-60233497D01*
X208050500Y-60078842D01*
X208050500Y-59921158D01*
X208050500Y-59921155D01*
X208050499Y-59921153D01*
X208043632Y-59886632D01*
X208019737Y-59766503D01*
X208001249Y-59721870D01*
X207993781Y-59652402D01*
X208025056Y-59589923D01*
X208085145Y-59554271D01*
X208115811Y-59550419D01*
X211399822Y-59550419D01*
X211466861Y-59570104D01*
G37*
%TD.AperFunction*%
%TA.AperFunction,Conductor*%
G36*
X212284075Y-65147007D02*
G01*
X212250000Y-65274174D01*
X212250000Y-65405826D01*
X212284075Y-65532993D01*
X212316988Y-65590000D01*
X210643012Y-65590000D01*
X210675925Y-65532993D01*
X210710000Y-65405826D01*
X210710000Y-65274174D01*
X210675925Y-65147007D01*
X210643012Y-65090000D01*
X212316988Y-65090000D01*
X212284075Y-65147007D01*
G37*
%TD.AperFunction*%
%TD*%
M02*
