%TF.GenerationSoftware,KiCad,Pcbnew,9.0.0*%
%TF.CreationDate,2025-03-28T01:16:57+01:00*%
%TF.ProjectId,pcb_odometrie,7063625f-6f64-46f6-9d65-747269652e6b,rev?*%
%TF.SameCoordinates,Original*%
%TF.FileFunction,Copper,L1,Top*%
%TF.FilePolarity,Positive*%
%FSLAX46Y46*%
G04 Gerber Fmt 4.6, Leading zero omitted, Abs format (unit mm)*
G04 Created by KiCad (PCBNEW 9.0.0) date 2025-03-28 01:16:57*
%MOMM*%
%LPD*%
G01*
G04 APERTURE LIST*
G04 Aperture macros list*
%AMRoundRect*
0 Rectangle with rounded corners*
0 $1 Rounding radius*
0 $2 $3 $4 $5 $6 $7 $8 $9 X,Y pos of 4 corners*
0 Add a 4 corners polygon primitive as box body*
4,1,4,$2,$3,$4,$5,$6,$7,$8,$9,$2,$3,0*
0 Add four circle primitives for the rounded corners*
1,1,$1+$1,$2,$3*
1,1,$1+$1,$4,$5*
1,1,$1+$1,$6,$7*
1,1,$1+$1,$8,$9*
0 Add four rect primitives between the rounded corners*
20,1,$1+$1,$2,$3,$4,$5,0*
20,1,$1+$1,$4,$5,$6,$7,0*
20,1,$1+$1,$6,$7,$8,$9,0*
20,1,$1+$1,$8,$9,$2,$3,0*%
G04 Aperture macros list end*
%TA.AperFunction,SMDPad,CuDef*%
%ADD10R,1.981200X0.558800*%
%TD*%
%TA.AperFunction,ComponentPad*%
%ADD11R,1.000000X1.000000*%
%TD*%
%TA.AperFunction,ComponentPad*%
%ADD12O,1.000000X1.000000*%
%TD*%
%TA.AperFunction,ComponentPad*%
%ADD13C,3.600000*%
%TD*%
%TA.AperFunction,ConnectorPad*%
%ADD14C,5.500000*%
%TD*%
%TA.AperFunction,SMDPad,CuDef*%
%ADD15RoundRect,0.250000X-0.350000X-0.450000X0.350000X-0.450000X0.350000X0.450000X-0.350000X0.450000X0*%
%TD*%
%TA.AperFunction,SMDPad,CuDef*%
%ADD16RoundRect,0.250000X0.337500X0.475000X-0.337500X0.475000X-0.337500X-0.475000X0.337500X-0.475000X0*%
%TD*%
%TA.AperFunction,SMDPad,CuDef*%
%ADD17RoundRect,0.250000X0.475000X-0.337500X0.475000X0.337500X-0.475000X0.337500X-0.475000X-0.337500X0*%
%TD*%
%TA.AperFunction,ComponentPad*%
%ADD18R,1.700000X1.700000*%
%TD*%
%TA.AperFunction,ComponentPad*%
%ADD19O,1.700000X1.700000*%
%TD*%
%TA.AperFunction,ComponentPad*%
%ADD20C,1.400000*%
%TD*%
%TA.AperFunction,SMDPad,CuDef*%
%ADD21RoundRect,0.250000X0.450000X-0.350000X0.450000X0.350000X-0.450000X0.350000X-0.450000X-0.350000X0*%
%TD*%
%TA.AperFunction,SMDPad,CuDef*%
%ADD22R,0.600000X1.150000*%
%TD*%
%TA.AperFunction,SMDPad,CuDef*%
%ADD23R,0.300000X1.150000*%
%TD*%
%TA.AperFunction,ComponentPad*%
%ADD24O,1.000000X2.100000*%
%TD*%
%TA.AperFunction,ComponentPad*%
%ADD25O,1.000000X1.800000*%
%TD*%
%TA.AperFunction,SMDPad,CuDef*%
%ADD26RoundRect,0.250000X0.350000X0.450000X-0.350000X0.450000X-0.350000X-0.450000X0.350000X-0.450000X0*%
%TD*%
%TA.AperFunction,SMDPad,CuDef*%
%ADD27R,0.812800X0.254000*%
%TD*%
%TA.AperFunction,SMDPad,CuDef*%
%ADD28R,0.254000X0.812800*%
%TD*%
%TA.AperFunction,ComponentPad*%
%ADD29C,1.168400*%
%TD*%
%TA.AperFunction,SMDPad,CuDef*%
%ADD30RoundRect,0.250000X-0.337500X-0.475000X0.337500X-0.475000X0.337500X0.475000X-0.337500X0.475000X0*%
%TD*%
%TA.AperFunction,SMDPad,CuDef*%
%ADD31RoundRect,0.250000X-0.450000X0.350000X-0.450000X-0.350000X0.450000X-0.350000X0.450000X0.350000X0*%
%TD*%
%TA.AperFunction,ComponentPad*%
%ADD32C,1.303000*%
%TD*%
%TA.AperFunction,ComponentPad*%
%ADD33RoundRect,0.249999X1.550001X-0.790001X1.550001X0.790001X-1.550001X0.790001X-1.550001X-0.790001X0*%
%TD*%
%TA.AperFunction,ComponentPad*%
%ADD34O,3.600000X2.080000*%
%TD*%
%TA.AperFunction,ViaPad*%
%ADD35C,0.600000*%
%TD*%
%TA.AperFunction,Conductor*%
%ADD36C,0.200000*%
%TD*%
%TA.AperFunction,Conductor*%
%ADD37C,0.500000*%
%TD*%
%TA.AperFunction,Conductor*%
%ADD38C,1.000000*%
%TD*%
G04 APERTURE END LIST*
D10*
%TO.P,U2,1,GPB0*%
%TO.N,Net-(J6-Pin_5)*%
X186290000Y-59800000D03*
%TO.P,U2,2,GPB1*%
%TO.N,Net-(J7-Pin_5)*%
X186290000Y-61070000D03*
%TO.P,U2,3,GPB2*%
%TO.N,Net-(J8-Pin_5)*%
X186290000Y-62340000D03*
%TO.P,U2,4,GPB3*%
%TO.N,Net-(J9-Pin_5)*%
X186290000Y-63610000D03*
%TO.P,U2,5,GPB4*%
%TO.N,Net-(J10-Pin_5)*%
X186290000Y-64880000D03*
%TO.P,U2,6,GPB5*%
%TO.N,Net-(J11-Pin_5)*%
X186290000Y-66150000D03*
%TO.P,U2,7,GPB6*%
%TO.N,Net-(J12-Pin_5)*%
X186290000Y-67420000D03*
%TO.P,U2,8,GPB7*%
%TO.N,Net-(J13-Pin_5)*%
X186290000Y-68690000D03*
%TO.P,U2,9,VDD*%
%TO.N,+3V3*%
X186290000Y-69960000D03*
%TO.P,U2,10,VSS*%
%TO.N,GND*%
X186290000Y-71230000D03*
%TO.P,U2,11,NC*%
%TO.N,unconnected-(U2-NC-Pad11)*%
X186290000Y-72500000D03*
%TO.P,U2,12,SCL*%
%TO.N,/I2C1_SCL*%
X186290000Y-73770000D03*
%TO.P,U2,13,SDA*%
%TO.N,/I2C1_SDA*%
X186290000Y-75040000D03*
%TO.P,U2,14,NC*%
%TO.N,unconnected-(U2-NC-Pad14)*%
X186290000Y-76310000D03*
%TO.P,U2,15,A0*%
%TO.N,GND*%
X195320000Y-76310000D03*
%TO.P,U2,16,A1*%
X195320000Y-75040000D03*
%TO.P,U2,17,A2*%
X195320000Y-73770000D03*
%TO.P,U2,18,\u002ARESET*%
%TO.N,Net-(U2-\u002ARESET)*%
X195320000Y-72500000D03*
%TO.P,U2,19,INTB*%
%TO.N,/EVENTOUTB*%
X195320000Y-71230000D03*
%TO.P,U2,20,INTA*%
%TO.N,/EVENTOUTA*%
X195320000Y-69960000D03*
%TO.P,U2,21,GPA0*%
%TO.N,Net-(J13-Pin_6)*%
X195320000Y-68690000D03*
%TO.P,U2,22,GPA1*%
%TO.N,Net-(J12-Pin_6)*%
X195320000Y-67420000D03*
%TO.P,U2,23,GPA2*%
%TO.N,Net-(J11-Pin_6)*%
X195320000Y-66150000D03*
%TO.P,U2,24,GPA3*%
%TO.N,Net-(J10-Pin_6)*%
X195320000Y-64880000D03*
%TO.P,U2,25,GPA4*%
%TO.N,Net-(J9-Pin_6)*%
X195320000Y-63610000D03*
%TO.P,U2,26,GPA5*%
%TO.N,Net-(J8-Pin_6)*%
X195320000Y-62340000D03*
%TO.P,U2,27,GPA6*%
%TO.N,Net-(J7-Pin_6)*%
X195320000Y-61070000D03*
%TO.P,U2,28,GPA7*%
%TO.N,Net-(J6-Pin_6)*%
X195320000Y-59800000D03*
%TD*%
D11*
%TO.P,J12,1,Pin_1*%
%TO.N,VCC*%
X175710000Y-73000000D03*
D12*
%TO.P,J12,2,Pin_2*%
%TO.N,GND*%
X176980000Y-73000000D03*
%TO.P,J12,3,Pin_3*%
%TO.N,/I2C1_SDA*%
X178250000Y-73000000D03*
%TO.P,J12,4,Pin_4*%
%TO.N,/I2C1_SCL*%
X179520000Y-73000000D03*
%TO.P,J12,5,Pin_5*%
%TO.N,Net-(J12-Pin_5)*%
X180790000Y-73000000D03*
%TO.P,J12,6,Pin_6*%
%TO.N,Net-(J12-Pin_6)*%
X182060000Y-73000000D03*
%TD*%
D11*
%TO.P,J11,1,Pin_1*%
%TO.N,VCC*%
X175730000Y-69500000D03*
D12*
%TO.P,J11,2,Pin_2*%
%TO.N,GND*%
X177000000Y-69500000D03*
%TO.P,J11,3,Pin_3*%
%TO.N,/I2C1_SDA*%
X178270000Y-69500000D03*
%TO.P,J11,4,Pin_4*%
%TO.N,/I2C1_SCL*%
X179540000Y-69500000D03*
%TO.P,J11,5,Pin_5*%
%TO.N,Net-(J11-Pin_5)*%
X180810000Y-69500000D03*
%TO.P,J11,6,Pin_6*%
%TO.N,Net-(J11-Pin_6)*%
X182080000Y-69500000D03*
%TD*%
D13*
%TO.P,H4,1,1*%
%TO.N,GND*%
X173500000Y-96500000D03*
D14*
X173500000Y-96500000D03*
%TD*%
D15*
%TO.P,R2,1*%
%TO.N,Net-(J1-CC1)*%
X194572500Y-53500000D03*
%TO.P,R2,2*%
%TO.N,GND*%
X196572500Y-53500000D03*
%TD*%
D16*
%TO.P,C5,1*%
%TO.N,+3V3*%
X204287500Y-73250000D03*
%TO.P,C5,2*%
%TO.N,GND*%
X202212500Y-73250000D03*
%TD*%
D13*
%TO.P,H1,1,1*%
%TO.N,GND*%
X173500000Y-46500000D03*
D14*
X173500000Y-46500000D03*
%TD*%
D17*
%TO.P,C4,1*%
%TO.N,+3V3*%
X199000000Y-62037500D03*
%TO.P,C4,2*%
%TO.N,GND*%
X199000000Y-59962500D03*
%TD*%
D18*
%TO.P,J4,a1,Pin_a1*%
%TO.N,+12V*%
X210210000Y-62800000D03*
D19*
%TO.P,J4,a2,Pin_a2*%
%TO.N,GND*%
X210210000Y-65340000D03*
%TO.P,J4,a3,Pin_a3*%
%TO.N,/IN1A*%
X210210000Y-67880000D03*
%TO.P,J4,a4,Pin_a4*%
%TO.N,/IN2A*%
X210210000Y-70420000D03*
%TO.P,J4,a5,Pin_a5*%
%TO.N,/ENA*%
X210210000Y-72960000D03*
%TO.P,J4,a6,Pin_a6*%
%TO.N,/CTA*%
X210210000Y-75500000D03*
%TO.P,J4,b1,Pin_b1*%
%TO.N,+12V*%
X212750000Y-62800000D03*
%TO.P,J4,b2,Pin_b2*%
%TO.N,GND*%
X212750000Y-65340000D03*
%TO.P,J4,b3,Pin_b3*%
%TO.N,/IN1B*%
X212750000Y-67880000D03*
%TO.P,J4,b4,Pin_b4*%
%TO.N,/IN2B*%
X212750000Y-70420000D03*
%TO.P,J4,b5,Pin_b5*%
%TO.N,/ENB*%
X212750000Y-72960000D03*
%TO.P,J4,b6,Pin_b6*%
%TO.N,/CTB*%
X212750000Y-75500000D03*
%TD*%
D20*
%TO.P,TP3,1,1*%
%TO.N,/I2C1_SCL*%
X185800000Y-52270000D03*
X185800000Y-49730000D03*
%TD*%
D21*
%TO.P,R11,1*%
%TO.N,GND*%
X210300000Y-59750000D03*
%TO.P,R11,2*%
%TO.N,/ADC2_IN3*%
X210300000Y-57750000D03*
%TD*%
D22*
%TO.P,J1,A1_B12,GND*%
%TO.N,GND*%
X195950000Y-50842500D03*
%TO.P,J1,A4_B9,VBUS*%
%TO.N,unconnected-(J1-VBUS-PadA4_B9)_1*%
X195150000Y-50842500D03*
D23*
%TO.P,J1,A5,CC1*%
%TO.N,Net-(J1-CC1)*%
X194000000Y-50842500D03*
%TO.P,J1,A6,D+*%
%TO.N,/USB_DP*%
X193000000Y-50842500D03*
%TO.P,J1,A7,D-*%
%TO.N,/USB_DM*%
X192500000Y-50842500D03*
%TO.P,J1,A8,SBU1*%
%TO.N,unconnected-(J1-SBU1-PadA8)*%
X191500000Y-50842500D03*
D22*
%TO.P,J1,B1_A12,GND*%
%TO.N,GND*%
X189550000Y-50842500D03*
%TO.P,J1,B4_A9,VBUS*%
%TO.N,unconnected-(J1-VBUS-PadA4_B9)*%
X190350000Y-50842500D03*
D23*
%TO.P,J1,B5,CC2*%
%TO.N,Net-(J1-CC2)*%
X191000000Y-50842500D03*
%TO.P,J1,B6,D+*%
%TO.N,/USB_DP*%
X192000000Y-50842500D03*
%TO.P,J1,B7,D-*%
%TO.N,/USB_DM*%
X193500000Y-50842500D03*
%TO.P,J1,B8,SBU2*%
%TO.N,unconnected-(J1-SBU2-PadB8)*%
X194500000Y-50842500D03*
D24*
%TO.P,J1,SH,SHIELD*%
%TO.N,GND*%
X197070000Y-50267500D03*
D25*
X197070000Y-46087500D03*
D24*
X188430000Y-50267500D03*
D25*
X188430000Y-46087500D03*
%TD*%
D26*
%TO.P,R6,1*%
%TO.N,+3V3*%
X183000000Y-49250000D03*
%TO.P,R6,2*%
%TO.N,/I2C1_SCL*%
X181000000Y-49250000D03*
%TD*%
D27*
%TO.P,U1,1,VDD*%
%TO.N,+3V3*%
X203650363Y-70350141D03*
%TO.P,U1,2,PF0-OSC_IN*%
%TO.N,unconnected-(U1-PF0-OSC_IN-Pad2)*%
X203650363Y-69850015D03*
%TO.P,U1,3,PF1-OSC_OUT*%
%TO.N,unconnected-(U1-PF1-OSC_OUT-Pad3)*%
X203650363Y-69349889D03*
%TO.P,U1,4,PG10-NRST*%
%TO.N,Net-(J2-~{RST})*%
X203650363Y-68849763D03*
%TO.P,U1,5,PA0*%
%TO.N,Net-(J5-Pin_b3)*%
X203650363Y-68349637D03*
%TO.P,U1,6,PA1*%
%TO.N,Net-(J5-Pin_b4)*%
X203650363Y-67849511D03*
%TO.P,U1,7,PA2*%
%TO.N,Net-(J2-VCP_TX)*%
X203650363Y-67349385D03*
%TO.P,U1,8,PA3*%
%TO.N,Net-(J2-VCP_RX)*%
X203650363Y-66849259D03*
D28*
%TO.P,U1,9,PA4*%
%TO.N,Net-(J5-Pin_a4)*%
X203000504Y-66199400D03*
%TO.P,U1,10,PA5*%
%TO.N,/EVENTOUTA*%
X202500378Y-66199400D03*
%TO.P,U1,11,PA6*%
%TO.N,/ADC2_IN3*%
X202000252Y-66199400D03*
%TO.P,U1,12,PA7*%
%TO.N,/ADC2_IN4*%
X201500126Y-66199400D03*
%TO.P,U1,13,PB0*%
%TO.N,/ENB*%
X201000000Y-66199400D03*
%TO.P,U1,14,VSSA*%
%TO.N,GND*%
X200499874Y-66199400D03*
%TO.P,U1,15,VDDA*%
%TO.N,+3V3*%
X199999748Y-66199400D03*
%TO.P,U1,16,VSS*%
%TO.N,GND*%
X199499622Y-66199400D03*
D27*
%TO.P,U1,17,VDD*%
%TO.N,+3V3*%
X198849763Y-66849259D03*
%TO.P,U1,18,PA8*%
%TO.N,/IN1A*%
X198849763Y-67349385D03*
%TO.P,U1,19,PA9*%
%TO.N,/IN2A*%
X198849763Y-67849511D03*
%TO.P,U1,20,PA10*%
%TO.N,/ENA*%
X198849763Y-68349637D03*
%TO.P,U1,21,PA11*%
%TO.N,/USB_DM*%
X198849763Y-68849763D03*
%TO.P,U1,22,PA12*%
%TO.N,/USB_DP*%
X198849763Y-69349889D03*
%TO.P,U1,23,PA13*%
%TO.N,Net-(J2-JTMS{slash}SWDIO)*%
X198849763Y-69850015D03*
%TO.P,U1,24,PA14*%
%TO.N,Net-(J2-JCLK{slash}SWCLK)*%
X198849763Y-70350141D03*
D28*
%TO.P,U1,25,PA15*%
%TO.N,/I2C1_SCL*%
X199499622Y-71000000D03*
%TO.P,U1,26,PB3*%
%TO.N,Net-(J2-JTDO{slash}SWO)*%
X199999748Y-71000000D03*
%TO.P,U1,27,PB4*%
%TO.N,Net-(J5-Pin_a3)*%
X200499874Y-71000000D03*
%TO.P,U1,28,PB5*%
%TO.N,/EVENTOUTB*%
X201000000Y-71000000D03*
%TO.P,U1,29,PB6*%
%TO.N,/IN1B*%
X201500126Y-71000000D03*
%TO.P,U1,30,PB7*%
%TO.N,/I2C1_SDA*%
X202000252Y-71000000D03*
%TO.P,U1,31,PB8-BOOT0*%
%TO.N,/IN2B*%
X202500378Y-71000000D03*
%TO.P,U1,32,VSS*%
%TO.N,GND*%
X203000504Y-71000000D03*
%TD*%
D11*
%TO.P,J5,a1,Pin_a1*%
%TO.N,+12V*%
X202230000Y-50460000D03*
D12*
%TO.P,J5,a2,Pin_a2*%
%TO.N,GND*%
X202230000Y-51730000D03*
%TO.P,J5,a3,Pin_a3*%
%TO.N,Net-(J5-Pin_a3)*%
X202230000Y-53000000D03*
%TO.P,J5,a4,Pin_a4*%
%TO.N,Net-(J5-Pin_a4)*%
X202230000Y-54270000D03*
%TO.P,J5,b1,Pin_b1*%
%TO.N,+12V*%
X203500000Y-50460000D03*
%TO.P,J5,b2,Pin_b2*%
%TO.N,GND*%
X203500000Y-51730000D03*
%TO.P,J5,b3,Pin_b3*%
%TO.N,Net-(J5-Pin_b3)*%
X203500000Y-53000000D03*
%TO.P,J5,b4,Pin_b4*%
%TO.N,Net-(J5-Pin_b4)*%
X203500000Y-54270000D03*
%TD*%
D11*
%TO.P,J10,1,Pin_1*%
%TO.N,VCC*%
X175730000Y-66000000D03*
D12*
%TO.P,J10,2,Pin_2*%
%TO.N,GND*%
X177000000Y-66000000D03*
%TO.P,J10,3,Pin_3*%
%TO.N,/I2C1_SDA*%
X178270000Y-66000000D03*
%TO.P,J10,4,Pin_4*%
%TO.N,/I2C1_SCL*%
X179540000Y-66000000D03*
%TO.P,J10,5,Pin_5*%
%TO.N,Net-(J10-Pin_5)*%
X180810000Y-66000000D03*
%TO.P,J10,6,Pin_6*%
%TO.N,Net-(J10-Pin_6)*%
X182080000Y-66000000D03*
%TD*%
D11*
%TO.P,J8,1,Pin_1*%
%TO.N,VCC*%
X175790000Y-59000000D03*
D12*
%TO.P,J8,2,Pin_2*%
%TO.N,GND*%
X177060000Y-59000000D03*
%TO.P,J8,3,Pin_3*%
%TO.N,/I2C1_SDA*%
X178330000Y-59000000D03*
%TO.P,J8,4,Pin_4*%
%TO.N,/I2C1_SCL*%
X179600000Y-59000000D03*
%TO.P,J8,5,Pin_5*%
%TO.N,Net-(J8-Pin_5)*%
X180870000Y-59000000D03*
%TO.P,J8,6,Pin_6*%
%TO.N,Net-(J8-Pin_6)*%
X182140000Y-59000000D03*
%TD*%
D21*
%TO.P,R4,1*%
%TO.N,GND*%
X205750000Y-62000000D03*
%TO.P,R4,2*%
%TO.N,/IN2B*%
X205750000Y-60000000D03*
%TD*%
D26*
%TO.P,R3,1*%
%TO.N,Net-(J1-CC2)*%
X190322500Y-53500000D03*
%TO.P,R3,2*%
%TO.N,GND*%
X188322500Y-53500000D03*
%TD*%
D20*
%TO.P,TP4,1,1*%
%TO.N,/I2C1_SDA*%
X179730000Y-44980000D03*
X182270000Y-44980000D03*
%TD*%
%TO.P,TP2,1,1*%
%TO.N,GND*%
X183250000Y-83270000D03*
X183250000Y-80730000D03*
%TD*%
D29*
%TO.P,J2,1,NC*%
%TO.N,unconnected-(J2-NC-Pad1)*%
X197380000Y-81500000D03*
%TO.P,J2,2,NC*%
%TO.N,unconnected-(J2-NC-Pad2)*%
X197380000Y-80230000D03*
%TO.P,J2,3,VCC*%
%TO.N,+3V3*%
X198650000Y-81500000D03*
%TO.P,J2,4,JTMS/SWDIO*%
%TO.N,Net-(J2-JTMS{slash}SWDIO)*%
X198650000Y-80230000D03*
%TO.P,J2,5,GND*%
%TO.N,GND*%
X199920000Y-81500000D03*
%TO.P,J2,6,JCLK/SWCLK*%
%TO.N,Net-(J2-JCLK{slash}SWCLK)*%
X199920000Y-80230000D03*
%TO.P,J2,7,GND*%
%TO.N,GND*%
X201190000Y-81500000D03*
%TO.P,J2,8,JTDO/SWO*%
%TO.N,Net-(J2-JTDO{slash}SWO)*%
X201190000Y-80230000D03*
%TO.P,J2,9,JRCLK/NC*%
%TO.N,unconnected-(J2-JRCLK{slash}NC-Pad9)*%
X202460000Y-81500000D03*
%TO.P,J2,10,JTDI/NC*%
%TO.N,unconnected-(J2-JTDI{slash}NC-Pad10)*%
X202460000Y-80230000D03*
%TO.P,J2,11,GNDDetect*%
%TO.N,Net-(J2-GNDDetect)*%
X203730000Y-81500000D03*
%TO.P,J2,12,~{RST}*%
%TO.N,Net-(J2-~{RST})*%
X203730000Y-80230000D03*
%TO.P,J2,13,VCP_RX*%
%TO.N,Net-(J2-VCP_RX)*%
X205000000Y-81500000D03*
%TO.P,J2,14,VCP_TX*%
%TO.N,Net-(J2-VCP_TX)*%
X205000000Y-80230000D03*
%TD*%
D21*
%TO.P,R9,1*%
%TO.N,/ADC2_IN4*%
X212750000Y-80250000D03*
%TO.P,R9,2*%
%TO.N,GND*%
X212750000Y-78250000D03*
%TD*%
D30*
%TO.P,C6,1*%
%TO.N,GND*%
X189712500Y-82000000D03*
%TO.P,C6,2*%
%TO.N,+3V3*%
X191787500Y-82000000D03*
%TD*%
D15*
%TO.P,R5,1*%
%TO.N,Net-(U2-\u002ARESET)*%
X200000000Y-75900000D03*
%TO.P,R5,2*%
%TO.N,+3V3*%
X202000000Y-75900000D03*
%TD*%
%TO.P,R1,1*%
%TO.N,Net-(J2-GNDDetect)*%
X207400000Y-85600000D03*
%TO.P,R1,2*%
%TO.N,GND*%
X209400000Y-85600000D03*
%TD*%
D17*
%TO.P,C2,1*%
%TO.N,+3V3*%
X201250000Y-62037500D03*
%TO.P,C2,2*%
%TO.N,GND*%
X201250000Y-59962500D03*
%TD*%
D11*
%TO.P,J13,1,Pin_1*%
%TO.N,VCC*%
X175730000Y-76500000D03*
D12*
%TO.P,J13,2,Pin_2*%
%TO.N,GND*%
X177000000Y-76500000D03*
%TO.P,J13,3,Pin_3*%
%TO.N,/I2C1_SDA*%
X178270000Y-76500000D03*
%TO.P,J13,4,Pin_4*%
%TO.N,/I2C1_SCL*%
X179540000Y-76500000D03*
%TO.P,J13,5,Pin_5*%
%TO.N,Net-(J13-Pin_5)*%
X180810000Y-76500000D03*
%TO.P,J13,6,Pin_6*%
%TO.N,Net-(J13-Pin_6)*%
X182080000Y-76500000D03*
%TD*%
D11*
%TO.P,J9,1,Pin_1*%
%TO.N,VCC*%
X175790000Y-62500000D03*
D12*
%TO.P,J9,2,Pin_2*%
%TO.N,GND*%
X177060000Y-62500000D03*
%TO.P,J9,3,Pin_3*%
%TO.N,/I2C1_SDA*%
X178330000Y-62500000D03*
%TO.P,J9,4,Pin_4*%
%TO.N,/I2C1_SCL*%
X179600000Y-62500000D03*
%TO.P,J9,5,Pin_5*%
%TO.N,Net-(J9-Pin_5)*%
X180870000Y-62500000D03*
%TO.P,J9,6,Pin_6*%
%TO.N,Net-(J9-Pin_6)*%
X182140000Y-62500000D03*
%TD*%
D31*
%TO.P,R8,1*%
%TO.N,/CTA*%
X210750000Y-78250000D03*
%TO.P,R8,2*%
%TO.N,/ADC2_IN4*%
X210750000Y-80250000D03*
%TD*%
D20*
%TO.P,TP1,1,1*%
%TO.N,+3V3*%
X186000000Y-80730000D03*
X186000000Y-83270000D03*
%TD*%
D11*
%TO.P,J6,1,Pin_1*%
%TO.N,VCC*%
X175790000Y-52000000D03*
D12*
%TO.P,J6,2,Pin_2*%
%TO.N,GND*%
X177060000Y-52000000D03*
%TO.P,J6,3,Pin_3*%
%TO.N,/I2C1_SDA*%
X178330000Y-52000000D03*
%TO.P,J6,4,Pin_4*%
%TO.N,/I2C1_SCL*%
X179600000Y-52000000D03*
%TO.P,J6,5,Pin_5*%
%TO.N,Net-(J6-Pin_5)*%
X180870000Y-52000000D03*
%TO.P,J6,6,Pin_6*%
%TO.N,Net-(J6-Pin_6)*%
X182140000Y-52000000D03*
%TD*%
D32*
%TO.P,PS1,1,-VIN_(GND)*%
%TO.N,GND*%
X185100000Y-89000000D03*
%TO.P,PS1,2,+VIN_(VCC)*%
%TO.N,VCC*%
X187640000Y-89000000D03*
%TO.P,PS1,3,REMOTE*%
%TO.N,unconnected-(PS1-REMOTE-Pad3)*%
X190180000Y-89000000D03*
%TO.P,PS1,5,NC_1*%
%TO.N,unconnected-(PS1-NC_1-Pad5)*%
X195260000Y-89000000D03*
%TO.P,PS1,6,+VOUT*%
%TO.N,+3V3*%
X197800000Y-89000000D03*
%TO.P,PS1,7,-VOUT*%
%TO.N,GND*%
X200340000Y-89000000D03*
%TO.P,PS1,8,NC_2*%
%TO.N,unconnected-(PS1-NC_2-Pad8)*%
X202880000Y-89000000D03*
%TD*%
D17*
%TO.P,C1,1*%
%TO.N,+3V3*%
X203500000Y-62037500D03*
%TO.P,C1,2*%
%TO.N,GND*%
X203500000Y-59962500D03*
%TD*%
D11*
%TO.P,J7,1,Pin_1*%
%TO.N,VCC*%
X175790000Y-55500000D03*
D12*
%TO.P,J7,2,Pin_2*%
%TO.N,GND*%
X177060000Y-55500000D03*
%TO.P,J7,3,Pin_3*%
%TO.N,/I2C1_SDA*%
X178330000Y-55500000D03*
%TO.P,J7,4,Pin_4*%
%TO.N,/I2C1_SCL*%
X179600000Y-55500000D03*
%TO.P,J7,5,Pin_5*%
%TO.N,Net-(J7-Pin_5)*%
X180870000Y-55500000D03*
%TO.P,J7,6,Pin_6*%
%TO.N,Net-(J7-Pin_6)*%
X182140000Y-55500000D03*
%TD*%
D31*
%TO.P,R10,1*%
%TO.N,/ADC2_IN3*%
X212500000Y-57750000D03*
%TO.P,R10,2*%
%TO.N,/CTB*%
X212500000Y-59750000D03*
%TD*%
D16*
%TO.P,C3,1*%
%TO.N,+3V3*%
X207287500Y-75500000D03*
%TO.P,C3,2*%
%TO.N,GND*%
X205212500Y-75500000D03*
%TD*%
D13*
%TO.P,H3,1,1*%
%TO.N,GND*%
X209250000Y-96500000D03*
D14*
X209250000Y-96500000D03*
%TD*%
D13*
%TO.P,H2,1,1*%
%TO.N,GND*%
X209250000Y-46500000D03*
D14*
X209250000Y-46500000D03*
%TD*%
D33*
%TO.P,J3,1,1*%
%TO.N,VCC*%
X177500000Y-87290000D03*
D34*
%TO.P,J3,2,2*%
%TO.N,GND*%
X177500000Y-82210000D03*
%TD*%
D26*
%TO.P,R7,1*%
%TO.N,+3V3*%
X183000000Y-47250000D03*
%TO.P,R7,2*%
%TO.N,/I2C1_SDA*%
X181000000Y-47250000D03*
%TD*%
D35*
%TO.N,+3V3*%
X207250000Y-76750000D03*
X191787500Y-80000000D03*
X207250000Y-77500000D03*
X191787500Y-77000000D03*
X191787500Y-84362500D03*
X184000000Y-48250000D03*
X191787500Y-77750000D03*
X206250000Y-73500000D03*
X207250000Y-78250000D03*
X203100000Y-76900000D03*
X191787500Y-80800000D03*
X206250000Y-74250000D03*
X191787500Y-83600000D03*
X204375000Y-63625000D03*
X204875000Y-64125000D03*
X206250000Y-72750000D03*
%TO.N,GND*%
X185000000Y-47500000D03*
X200000000Y-97500000D03*
X175000000Y-50000000D03*
X202500000Y-95000000D03*
X210000000Y-50000000D03*
X192500000Y-47500000D03*
X199000000Y-58500000D03*
X190000000Y-47500000D03*
X189750000Y-83750000D03*
X175000000Y-90000000D03*
X202500000Y-97500000D03*
X193500000Y-75000000D03*
X203500000Y-58500000D03*
X177500000Y-50000000D03*
X190000000Y-95000000D03*
X177500000Y-95000000D03*
X195000000Y-45000000D03*
X207500000Y-92500000D03*
X207500000Y-82500000D03*
X196411250Y-52088750D03*
X195000000Y-47500000D03*
X188911250Y-52161250D03*
X200400000Y-64800000D03*
X211500000Y-76750000D03*
X205000000Y-92500000D03*
X203300000Y-74600000D03*
X185000000Y-97500000D03*
X195000000Y-80000000D03*
X175000000Y-92500000D03*
X180000000Y-97500000D03*
X177500000Y-97500000D03*
X172500000Y-90000000D03*
X205000000Y-47500000D03*
X210000000Y-52500000D03*
X199000000Y-64750000D03*
X192500000Y-97500000D03*
X177500000Y-45000000D03*
X180000000Y-95000000D03*
X185000000Y-95000000D03*
X207500000Y-50000000D03*
X192500000Y-45000000D03*
X197656869Y-94974012D03*
X207500000Y-62500000D03*
X182500000Y-97500000D03*
X177500000Y-92500000D03*
X187500000Y-97500000D03*
X182500000Y-95000000D03*
X177500000Y-47500000D03*
X214200000Y-78250000D03*
X197000000Y-73750000D03*
X197000000Y-76250000D03*
X210000000Y-90000000D03*
X180000000Y-92500000D03*
X197000000Y-75000000D03*
X202500000Y-45000000D03*
X207500000Y-80000000D03*
X202500000Y-47500000D03*
X187500000Y-55000000D03*
X205000000Y-95000000D03*
X197500000Y-97500000D03*
X212500000Y-55000000D03*
X205000000Y-97500000D03*
X200000000Y-45000000D03*
X200000000Y-47500000D03*
X190000000Y-45000000D03*
X195000000Y-82500000D03*
X195011811Y-94974012D03*
X210000000Y-55000000D03*
X201250000Y-58500000D03*
X172500000Y-85000000D03*
X199000000Y-55000000D03*
X205000000Y-45000000D03*
X195000000Y-97500000D03*
X210000000Y-92500000D03*
X184500000Y-71250000D03*
X190000000Y-97500000D03*
X185000000Y-45000000D03*
X200000000Y-95000000D03*
X193500000Y-73770000D03*
X172500000Y-92500000D03*
X192500000Y-95000000D03*
X172500000Y-50000000D03*
X187500000Y-95000000D03*
X193500000Y-76250000D03*
X210000000Y-87500000D03*
X177500000Y-90000000D03*
%TO.N,Net-(J2-VCP_RX)*%
X206500000Y-71350000D03*
%TO.N,Net-(J2-JTMS{slash}SWDIO)*%
X197492567Y-69769033D03*
%TO.N,Net-(J2-JCLK{slash}SWCLK)*%
X197565687Y-70565687D03*
%TO.N,Net-(J2-VCP_TX)*%
X205850000Y-70875500D03*
%TO.N,Net-(J2-~{RST})*%
X205142589Y-71258881D03*
%TO.N,Net-(J2-JTDO{slash}SWO)*%
X199755624Y-70000262D03*
%TO.N,/IN2B*%
X202168335Y-70014120D03*
X207165687Y-58949919D03*
%TO.N,/ADC2_IN3*%
X202124265Y-64974265D03*
X207250000Y-60000000D03*
%TO.N,/I2C1_SDA*%
X188750000Y-79250000D03*
X188750000Y-77900000D03*
%TO.N,Net-(J7-Pin_6)*%
X188357773Y-59784456D03*
%TO.N,Net-(J8-Pin_6)*%
X188000000Y-60500000D03*
%TO.N,Net-(J9-Pin_6)*%
X188000000Y-63250000D03*
%TO.N,Net-(J10-Pin_6)*%
X188000000Y-66000000D03*
%TO.N,Net-(J11-Pin_6)*%
X188000000Y-69500000D03*
%TO.N,Net-(J12-Pin_6)*%
X189250000Y-71750000D03*
%TO.N,Net-(J13-Pin_6)*%
X189270000Y-73270000D03*
%TO.N,Net-(U2-\u002ARESET)*%
X198000000Y-73500000D03*
X200300000Y-74400000D03*
%TO.N,/ENA*%
X208179809Y-69100000D03*
X200076917Y-68623082D03*
%TO.N,Net-(J5-Pin_b3)*%
X202639907Y-68273528D03*
%TO.N,/ENB*%
X208000000Y-69975000D03*
X201000000Y-69300000D03*
%TO.N,/IN1A*%
X199999000Y-67105802D03*
%TO.N,Net-(J5-Pin_a3)*%
X200555385Y-69980612D03*
X200250000Y-57000000D03*
%TO.N,/EVENTOUTA*%
X196974548Y-69025452D03*
X203000000Y-65000000D03*
%TO.N,Net-(J5-Pin_a4)*%
X203715544Y-65357772D03*
X206565687Y-57684313D03*
%TO.N,/EVENTOUTB*%
X198750000Y-72250000D03*
X200250000Y-72250000D03*
%TO.N,/IN1B*%
X201368335Y-70016192D03*
%TO.N,/IN2A*%
X208750000Y-68500000D03*
X200300000Y-67849511D03*
%TO.N,Net-(J5-Pin_b4)*%
X201789923Y-68289923D03*
%TD*%
D36*
%TO.N,/USB_DM*%
X192500000Y-50842500D02*
X192500000Y-52250000D01*
%TO.N,GND*%
X196572500Y-52250000D02*
X196572500Y-53500000D01*
X196411250Y-52088750D02*
X196572500Y-52250000D01*
X196411250Y-52088750D02*
X195950000Y-51627500D01*
X195950000Y-51627500D02*
X195950000Y-50842500D01*
X188911250Y-52161250D02*
X189550000Y-51522500D01*
X188911250Y-52161250D02*
X188322500Y-52750000D01*
X189550000Y-51522500D02*
X189550000Y-50842500D01*
X188322500Y-52750000D02*
X188322500Y-53500000D01*
%TO.N,/I2C1_SCL*%
X189750000Y-76500000D02*
X189750000Y-77500000D01*
X187020000Y-73770000D02*
X189750000Y-76500000D01*
X186290000Y-73770000D02*
X187020000Y-73770000D01*
X189750000Y-77500000D02*
X190750000Y-78500000D01*
X199499622Y-73250378D02*
X199499622Y-71000000D01*
X198000000Y-76750000D02*
X198000000Y-74750000D01*
X198000000Y-74750000D02*
X199499622Y-73250378D01*
X196250000Y-78500000D02*
X198000000Y-76750000D01*
X179540000Y-77290000D02*
X180750000Y-78500000D01*
X180750000Y-78500000D02*
X196250000Y-78500000D01*
X179540000Y-76500000D02*
X179540000Y-77290000D01*
%TO.N,/I2C1_SDA*%
X180250000Y-79250000D02*
X188750000Y-79250000D01*
X178270000Y-77270000D02*
X180250000Y-79250000D01*
X178270000Y-76500000D02*
X178270000Y-77270000D01*
%TO.N,+3V3*%
X204875000Y-62875000D02*
X204650000Y-62650000D01*
D37*
X207287500Y-75500000D02*
X207287500Y-75287500D01*
D36*
X201250000Y-62643750D02*
X201250000Y-62037500D01*
D37*
X191787500Y-80800000D02*
X191787500Y-82000000D01*
D36*
X206250000Y-74250000D02*
X205037500Y-74250000D01*
X198250000Y-66249496D02*
X198250000Y-64287500D01*
X201250000Y-62037500D02*
X203500000Y-62037500D01*
X199800000Y-64093750D02*
X201250000Y-62643750D01*
X199000000Y-63537500D02*
X199000000Y-62037500D01*
X203100000Y-76900000D02*
X202100000Y-75900000D01*
X199927622Y-66127274D02*
X199927622Y-65327622D01*
X184000000Y-48250000D02*
X183000000Y-47250000D01*
X199999748Y-66199400D02*
X199927622Y-66127274D01*
X205037500Y-74250000D02*
X204287500Y-73500000D01*
X204650000Y-61400000D02*
X204250000Y-61000000D01*
X199927622Y-65327622D02*
X199800000Y-65200000D01*
D37*
X188000000Y-73212500D02*
X188000000Y-71000000D01*
X206250000Y-72750000D02*
X206250000Y-73500000D01*
X191787500Y-80000000D02*
X191787500Y-80800000D01*
D36*
X204650000Y-62650000D02*
X204650000Y-61400000D01*
X198849763Y-66849259D02*
X198250000Y-66249496D01*
X204875000Y-64125000D02*
X204875000Y-62875000D01*
X202100000Y-75900000D02*
X202000000Y-75900000D01*
D37*
X188000000Y-71000000D02*
X186960000Y-69960000D01*
D36*
X204250000Y-61000000D02*
X199750000Y-61000000D01*
X203650363Y-70650363D02*
X204287500Y-71287500D01*
D37*
X191787500Y-77000000D02*
X191787500Y-76987500D01*
X191787500Y-84362500D02*
X191787500Y-83600000D01*
D36*
X204375000Y-63625000D02*
X203500000Y-62750000D01*
X199750000Y-61000000D02*
X199000000Y-61750000D01*
D37*
X207287500Y-75500000D02*
X207250000Y-75537500D01*
X191787500Y-77000000D02*
X188000000Y-73212500D01*
D36*
X203500000Y-62750000D02*
X203500000Y-62037500D01*
D37*
X206250000Y-73500000D02*
X206250000Y-74250000D01*
D36*
X199800000Y-65200000D02*
X199800000Y-64093750D01*
X204287500Y-71287500D02*
X204287500Y-73250000D01*
D37*
X191787500Y-82000000D02*
X191787500Y-83600000D01*
X207250000Y-75537500D02*
X207250000Y-78250000D01*
D36*
X203650363Y-70350141D02*
X203650363Y-70650363D01*
D37*
X191787500Y-77000000D02*
X191787500Y-77687500D01*
D36*
X183000000Y-49250000D02*
X184000000Y-48250000D01*
X204287500Y-73500000D02*
X204287500Y-73250000D01*
D37*
X207287500Y-75287500D02*
X206250000Y-74250000D01*
D36*
X198250000Y-64287500D02*
X199000000Y-63537500D01*
X186290000Y-69960000D02*
X186960000Y-69960000D01*
%TO.N,GND*%
X196960000Y-75040000D02*
X197000000Y-75000000D01*
X199000000Y-59962500D02*
X199000000Y-58500000D01*
X199499622Y-65749622D02*
X199499622Y-66199400D01*
X199000000Y-64750000D02*
X199000000Y-65250000D01*
X196940000Y-76310000D02*
X197000000Y-76250000D01*
X202800000Y-74500000D02*
X202212500Y-73912500D01*
X193560000Y-76310000D02*
X193500000Y-76250000D01*
X202212500Y-73250000D02*
X203000504Y-72461996D01*
X184520000Y-71230000D02*
X184500000Y-71250000D01*
X203500000Y-59962500D02*
X203500000Y-58500000D01*
X199000000Y-65250000D02*
X199499622Y-65749622D01*
X201190000Y-81500000D02*
X201190000Y-82690000D01*
X205750000Y-62000000D02*
X205750000Y-62500000D01*
X197000000Y-73750000D02*
X196980000Y-73770000D01*
X201250000Y-59962500D02*
X201250000Y-58500000D01*
X193540000Y-75040000D02*
X193500000Y-75000000D01*
X203000504Y-72461996D02*
X203000504Y-71000000D01*
X199920000Y-81500000D02*
X199920000Y-82670000D01*
X202212500Y-73912500D02*
X202212500Y-73250000D01*
X200499874Y-64899874D02*
X200400000Y-64800000D01*
X200499874Y-66199400D02*
X200499874Y-64899874D01*
%TO.N,Net-(J2-GNDDetect)*%
X206600000Y-85600000D02*
X207400000Y-85600000D01*
X203730000Y-81500000D02*
X203730000Y-82730000D01*
X203730000Y-82730000D02*
X206600000Y-85600000D01*
%TO.N,Net-(J2-VCP_RX)*%
X206500000Y-71350000D02*
X206500000Y-68750000D01*
X204599259Y-66849259D02*
X203664948Y-66849259D01*
X206500000Y-68750000D02*
X204599259Y-66849259D01*
%TO.N,Net-(J2-JTMS{slash}SWDIO)*%
X197573549Y-69850015D02*
X198849763Y-69850015D01*
X197492567Y-69769033D02*
X197573549Y-69850015D01*
%TO.N,Net-(J2-JCLK{slash}SWCLK)*%
X197565687Y-70565687D02*
X197781233Y-70350141D01*
X197781233Y-70350141D02*
X198849763Y-70350141D01*
%TO.N,Net-(J2-VCP_TX)*%
X204349385Y-67349385D02*
X203650363Y-67349385D01*
X205850000Y-68850000D02*
X204349385Y-67349385D01*
X205850000Y-70875500D02*
X205850000Y-68850000D01*
%TO.N,Net-(J2-~{RST})*%
X205142589Y-71258881D02*
X205142589Y-69436554D01*
X204555798Y-68849763D02*
X203650363Y-68849763D01*
X205142589Y-69436554D02*
X204555798Y-68849763D01*
%TO.N,Net-(J2-JTDO{slash}SWO)*%
X199999748Y-70244386D02*
X199999748Y-71000000D01*
X199755624Y-70000262D02*
X199999748Y-70244386D01*
D38*
%TO.N,VCC*%
X172500000Y-74000000D02*
X172500000Y-72000000D01*
D37*
X172250000Y-54800000D02*
X172250000Y-54750000D01*
X173500000Y-76500000D02*
X172500000Y-77500000D01*
X173500000Y-66000000D02*
X172500000Y-67000000D01*
D38*
X172500000Y-72000000D02*
X172500000Y-70500000D01*
D37*
X173500000Y-69500000D02*
X172500000Y-70500000D01*
D38*
X187640000Y-89000000D02*
X185390000Y-91250000D01*
D37*
X173600000Y-55500000D02*
X172600000Y-56500000D01*
D38*
X172500000Y-61500000D02*
X172500000Y-60000000D01*
X172500000Y-82290000D02*
X172500000Y-77500000D01*
X172500000Y-70500000D02*
X172500000Y-68500000D01*
X172500000Y-65000000D02*
X172500000Y-63500000D01*
D37*
X172600000Y-56500000D02*
X172500000Y-56500000D01*
X175730000Y-66000000D02*
X173500000Y-66000000D01*
X175730000Y-69500000D02*
X173500000Y-69500000D01*
X175790000Y-55500000D02*
X173600000Y-55500000D01*
D38*
X172500000Y-77500000D02*
X172500000Y-75500000D01*
X172500000Y-63500000D02*
X172500000Y-61500000D01*
D37*
X175790000Y-62500000D02*
X173500000Y-62500000D01*
X173500000Y-62500000D02*
X172500000Y-63500000D01*
D38*
X172500000Y-75500000D02*
X172500000Y-74000000D01*
D37*
X175000000Y-52000000D02*
X175790000Y-52000000D01*
D38*
X185390000Y-91250000D02*
X181460000Y-91250000D01*
X172500000Y-68500000D02*
X172500000Y-67000000D01*
D37*
X173500000Y-59000000D02*
X172500000Y-60000000D01*
D38*
X172500000Y-58000000D02*
X172500000Y-56500000D01*
X172500000Y-60000000D02*
X172500000Y-58000000D01*
D37*
X175730000Y-76500000D02*
X173500000Y-76500000D01*
X172250000Y-56500000D02*
X172250000Y-54800000D01*
X175790000Y-59000000D02*
X173500000Y-59000000D01*
X172250000Y-54750000D02*
X175000000Y-52000000D01*
D38*
X181460000Y-91250000D02*
X172500000Y-82290000D01*
D37*
X173500000Y-73000000D02*
X172500000Y-74000000D01*
D38*
X172500000Y-67000000D02*
X172500000Y-65000000D01*
D37*
X175710000Y-73000000D02*
X173500000Y-73000000D01*
D36*
%TO.N,/IN2B*%
X207165687Y-58949919D02*
X206800081Y-58949919D01*
X202184804Y-70014120D02*
X202500378Y-70329694D01*
X202500378Y-70329694D02*
X202500378Y-71000000D01*
X206800081Y-58949919D02*
X205750000Y-60000000D01*
X202168335Y-70014120D02*
X202184804Y-70014120D01*
%TO.N,/CTA*%
X210210000Y-75500000D02*
X210210000Y-77710000D01*
X210210000Y-77710000D02*
X210750000Y-78250000D01*
%TO.N,/ADC2_IN4*%
X208601000Y-78101000D02*
X208601000Y-74601000D01*
X201500126Y-64749874D02*
X201500126Y-66199400D01*
X210750000Y-80250000D02*
X208601000Y-78101000D01*
X202000000Y-64250000D02*
X201500126Y-64749874D01*
X203750000Y-64250000D02*
X202000000Y-64250000D01*
X210750000Y-80250000D02*
X212750000Y-80250000D01*
X208601000Y-74601000D02*
X207250000Y-73250000D01*
X207250000Y-67750000D02*
X203750000Y-64250000D01*
X207250000Y-73250000D02*
X207250000Y-67750000D01*
%TO.N,/CTB*%
X212750000Y-75500000D02*
X214250000Y-74000000D01*
X214250000Y-74000000D02*
X214250000Y-61500000D01*
X214250000Y-61500000D02*
X212500000Y-59750000D01*
%TO.N,/ADC2_IN3*%
X212500000Y-57750000D02*
X210300000Y-57750000D01*
X202000252Y-65098278D02*
X202000252Y-66199400D01*
X209500000Y-57750000D02*
X210300000Y-57750000D01*
X202124265Y-64974265D02*
X202000252Y-65098278D01*
X207250000Y-60000000D02*
X209500000Y-57750000D01*
%TO.N,/I2C1_SCL*%
X181000000Y-49250000D02*
X182750000Y-51000000D01*
X179520000Y-76480000D02*
X179540000Y-76500000D01*
X184530000Y-51000000D02*
X185800000Y-49730000D01*
X179600000Y-72920000D02*
X179520000Y-73000000D01*
X179600000Y-52000000D02*
X179600000Y-50400000D01*
X185800000Y-52270000D02*
X184530000Y-51000000D01*
X179600000Y-50400000D02*
X180750000Y-49250000D01*
X182750000Y-51000000D02*
X184530000Y-51000000D01*
X179520000Y-73000000D02*
X179520000Y-76480000D01*
X179600000Y-55500000D02*
X179600000Y-72920000D01*
X180750000Y-49250000D02*
X181000000Y-49250000D01*
X179600000Y-55500000D02*
X179600000Y-52000000D01*
%TO.N,/I2C1_SDA*%
X186790000Y-75040000D02*
X186290000Y-75040000D01*
X202000252Y-71000000D02*
X202000252Y-71749748D01*
X202000252Y-71749748D02*
X198750000Y-75000000D01*
X188750000Y-77900000D02*
X188750000Y-77000000D01*
X181000000Y-46250000D02*
X182270000Y-44980000D01*
X178270000Y-73020000D02*
X178250000Y-73000000D01*
X180750000Y-47250000D02*
X181000000Y-47250000D01*
X178330000Y-49670000D02*
X180750000Y-47250000D01*
X181000000Y-46250000D02*
X181000000Y-47250000D01*
X178270000Y-76500000D02*
X178270000Y-73020000D01*
X178250000Y-73000000D02*
X178250000Y-55580000D01*
X188750000Y-77000000D02*
X186790000Y-75040000D01*
X196749811Y-79250189D02*
X191500189Y-79250189D01*
X198750000Y-75000000D02*
X198750000Y-77250000D01*
X179730000Y-44980000D02*
X181000000Y-46250000D01*
X178330000Y-55500000D02*
X178330000Y-52000000D01*
X191500000Y-79250000D02*
X188750000Y-79250000D01*
X178330000Y-52000000D02*
X178330000Y-49670000D01*
X198750000Y-77250000D02*
X196749811Y-79250189D01*
X191500189Y-79250189D02*
X191500000Y-79250000D01*
X178250000Y-55580000D02*
X178330000Y-55500000D01*
%TO.N,Net-(J6-Pin_5)*%
X180870000Y-52000000D02*
X186290000Y-57420000D01*
X186290000Y-57420000D02*
X186290000Y-59800000D01*
%TO.N,Net-(J6-Pin_6)*%
X182140000Y-52000000D02*
X182140000Y-52140000D01*
X182140000Y-52140000D02*
X189800000Y-59800000D01*
X189800000Y-59800000D02*
X195320000Y-59800000D01*
%TO.N,Net-(J7-Pin_5)*%
X180870000Y-56252000D02*
X185688000Y-61070000D01*
X180870000Y-55500000D02*
X180870000Y-56252000D01*
X185688000Y-61070000D02*
X186290000Y-61070000D01*
%TO.N,Net-(J7-Pin_6)*%
X189643317Y-61070000D02*
X195320000Y-61070000D01*
X188357773Y-59784456D02*
X189643317Y-61070000D01*
%TO.N,Net-(J8-Pin_6)*%
X189840000Y-62340000D02*
X195320000Y-62340000D01*
X188000000Y-60500000D02*
X189840000Y-62340000D01*
%TO.N,Net-(J8-Pin_5)*%
X184210000Y-62340000D02*
X186290000Y-62340000D01*
X180870000Y-59000000D02*
X184210000Y-62340000D01*
%TO.N,Net-(J9-Pin_6)*%
X188360000Y-63610000D02*
X188000000Y-63250000D01*
X195320000Y-63610000D02*
X188360000Y-63610000D01*
%TO.N,Net-(J9-Pin_5)*%
X181980000Y-63610000D02*
X186290000Y-63610000D01*
X180870000Y-62500000D02*
X181980000Y-63610000D01*
%TO.N,Net-(J10-Pin_5)*%
X181930000Y-64880000D02*
X186290000Y-64880000D01*
X180810000Y-66000000D02*
X181930000Y-64880000D01*
%TO.N,Net-(J10-Pin_6)*%
X189120000Y-64880000D02*
X195320000Y-64880000D01*
X188000000Y-66000000D02*
X189120000Y-64880000D01*
%TO.N,Net-(J11-Pin_6)*%
X188000000Y-69500000D02*
X191350000Y-66150000D01*
X191350000Y-66150000D02*
X195320000Y-66150000D01*
%TO.N,Net-(J11-Pin_5)*%
X180810000Y-69500000D02*
X184160000Y-66150000D01*
X184160000Y-66150000D02*
X186290000Y-66150000D01*
%TO.N,Net-(J12-Pin_5)*%
X180750000Y-72358000D02*
X185688000Y-67420000D01*
X180750000Y-72960000D02*
X180750000Y-72358000D01*
X185688000Y-67420000D02*
X186290000Y-67420000D01*
X180790000Y-73000000D02*
X180750000Y-72960000D01*
%TO.N,Net-(J12-Pin_6)*%
X193580000Y-67420000D02*
X195320000Y-67420000D01*
X189250000Y-71750000D02*
X193580000Y-67420000D01*
%TO.N,Net-(J13-Pin_6)*%
X189270000Y-73270000D02*
X193790000Y-68750000D01*
X194540000Y-68750000D02*
X194600000Y-68690000D01*
X193790000Y-68750000D02*
X194540000Y-68750000D01*
X194600000Y-68690000D02*
X195320000Y-68690000D01*
%TO.N,Net-(J13-Pin_5)*%
X183540000Y-70240806D02*
X185090806Y-68690000D01*
X183540000Y-73770000D02*
X183540000Y-70240806D01*
X185090806Y-68690000D02*
X186290000Y-68690000D01*
X180810000Y-76500000D02*
X183540000Y-73770000D01*
%TO.N,Net-(J1-CC1)*%
X194000000Y-52427500D02*
X194572500Y-53000000D01*
X194000000Y-50842500D02*
X194000000Y-52427500D01*
%TO.N,Net-(J1-CC2)*%
X191000000Y-50842500D02*
X191000000Y-52322500D01*
X191000000Y-52322500D02*
X190322500Y-53000000D01*
%TO.N,Net-(U2-\u002ARESET)*%
X197000000Y-72500000D02*
X198000000Y-73500000D01*
X195320000Y-72500000D02*
X197000000Y-72500000D01*
X200300000Y-74400000D02*
X200000000Y-74700000D01*
X200000000Y-74700000D02*
X200000000Y-75900000D01*
%TO.N,/USB_DM*%
X193500000Y-51822500D02*
X193500000Y-50842500D01*
X192500000Y-56932900D02*
X192500000Y-52250000D01*
X197401000Y-58901000D02*
X196000000Y-57500000D01*
X193067100Y-57500000D02*
X192500000Y-56932900D01*
X198849763Y-68849763D02*
X198214489Y-68849763D01*
X197401000Y-68036274D02*
X197401000Y-58901000D01*
X192500000Y-52250000D02*
X192750000Y-52000000D01*
X198214489Y-68849763D02*
X197401000Y-68036274D01*
X196000000Y-57500000D02*
X193067100Y-57500000D01*
X193322500Y-52000000D02*
X193500000Y-51822500D01*
X192750000Y-52000000D02*
X193322500Y-52000000D01*
%TO.N,/USB_DP*%
X192000000Y-57000000D02*
X192901000Y-57901000D01*
X192822500Y-49750000D02*
X192197500Y-49750000D01*
X192000000Y-49947500D02*
X192000000Y-50842500D01*
X197000000Y-59067100D02*
X197000000Y-68202374D01*
X198147515Y-69349889D02*
X198849763Y-69349889D01*
X193000000Y-49927500D02*
X192822500Y-49750000D01*
X193000000Y-50842500D02*
X193000000Y-49927500D01*
X195833900Y-57901000D02*
X197000000Y-59067100D01*
X192000000Y-57000000D02*
X192000000Y-50842500D01*
X197000000Y-68202374D02*
X198147515Y-69349889D01*
X192901000Y-57901000D02*
X195833900Y-57901000D01*
X192197500Y-49750000D02*
X192000000Y-49947500D01*
%TO.N,/ENA*%
X208179809Y-69100000D02*
X208781714Y-69701905D01*
X208781714Y-71531714D02*
X210210000Y-72960000D01*
X200076917Y-68623082D02*
X200076917Y-68576917D01*
X199849637Y-68349637D02*
X198849763Y-68349637D01*
X200076917Y-68576917D02*
X199849637Y-68349637D01*
X208781714Y-69701905D02*
X208781714Y-71531714D01*
%TO.N,Net-(J5-Pin_b3)*%
X202639907Y-68274941D02*
X202714603Y-68349637D01*
X202714603Y-68349637D02*
X203650363Y-68349637D01*
X202639907Y-68273528D02*
X202639907Y-68274941D01*
%TO.N,/ENB*%
X208181714Y-73181714D02*
X209250000Y-74250000D01*
X201000000Y-69300000D02*
X201000000Y-66199400D01*
X208181714Y-70156714D02*
X208181714Y-73181714D01*
X209250000Y-74250000D02*
X211460000Y-74250000D01*
X211460000Y-74250000D02*
X212750000Y-72960000D01*
X208000000Y-69975000D02*
X208181714Y-70156714D01*
%TO.N,/IN1A*%
X199900615Y-67349385D02*
X198849763Y-67349385D01*
X199999000Y-67105802D02*
X200000000Y-67106802D01*
X200000000Y-67106802D02*
X200000000Y-67250000D01*
X200000000Y-67250000D02*
X199900615Y-67349385D01*
%TO.N,Net-(J5-Pin_a3)*%
X200250000Y-54625000D02*
X201875000Y-53000000D01*
X200499874Y-70036123D02*
X200555385Y-69980612D01*
X201875000Y-53000000D02*
X202230000Y-53000000D01*
X200499874Y-71000000D02*
X200499874Y-70036123D01*
X200250000Y-57000000D02*
X200250000Y-54625000D01*
%TO.N,/EVENTOUTA*%
X196974548Y-69025452D02*
X196965748Y-69025452D01*
X196965748Y-69025452D02*
X196031200Y-69960000D01*
X196031200Y-69960000D02*
X195320000Y-69960000D01*
X202500378Y-65499622D02*
X202500378Y-66199400D01*
X203000000Y-65000000D02*
X202500378Y-65499622D01*
%TO.N,Net-(J5-Pin_a4)*%
X203715544Y-65357772D02*
X203000504Y-66072812D01*
X202230000Y-55230000D02*
X202230000Y-54270000D01*
X204684313Y-57684313D02*
X202230000Y-55230000D01*
X203000504Y-66072812D02*
X203000504Y-66199400D01*
X206565687Y-57684313D02*
X204684313Y-57684313D01*
%TO.N,/EVENTOUTB*%
X200500000Y-72250000D02*
X201000000Y-71750000D01*
X196480000Y-71230000D02*
X195320000Y-71230000D01*
X200250000Y-72250000D02*
X200500000Y-72250000D01*
X197500000Y-72250000D02*
X196480000Y-71230000D01*
X201000000Y-71750000D02*
X201000000Y-71000000D01*
X198750000Y-72250000D02*
X197500000Y-72250000D01*
%TO.N,/IN1B*%
X201368335Y-70016192D02*
X201368335Y-70118083D01*
X201500126Y-70249874D02*
X201500126Y-71000000D01*
X201368335Y-70118083D02*
X201500126Y-70249874D01*
%TO.N,/IN2A*%
X200300000Y-67849511D02*
X198849763Y-67849511D01*
X208750000Y-68500000D02*
X210210000Y-69960000D01*
X210210000Y-69960000D02*
X210210000Y-70420000D01*
%TO.N,Net-(J5-Pin_b4)*%
X202839909Y-67625000D02*
X202125000Y-67625000D01*
X203064420Y-67849511D02*
X202839909Y-67625000D01*
X201789923Y-67960077D02*
X201789923Y-68289923D01*
X202125000Y-67625000D02*
X201789923Y-67960077D01*
X203650363Y-67849511D02*
X203064420Y-67849511D01*
%TD*%
%TA.AperFunction,Conductor*%
%TO.N,GND*%
G36*
X178781425Y-44020185D02*
G01*
X178827180Y-44072989D01*
X178837124Y-44142147D01*
X178814704Y-44197386D01*
X178814313Y-44197923D01*
X178814310Y-44197927D01*
X178751874Y-44283861D01*
X178703240Y-44350800D01*
X178617454Y-44519163D01*
X178559059Y-44698881D01*
X178529500Y-44885513D01*
X178529500Y-45074486D01*
X178559059Y-45261118D01*
X178617454Y-45440836D01*
X178649279Y-45503295D01*
X178703240Y-45609199D01*
X178814310Y-45762073D01*
X178947927Y-45895690D01*
X179100801Y-46006760D01*
X179180347Y-46047290D01*
X179269163Y-46092545D01*
X179269165Y-46092545D01*
X179269168Y-46092547D01*
X179365497Y-46123846D01*
X179448881Y-46150940D01*
X179635514Y-46180500D01*
X179635519Y-46180500D01*
X179824486Y-46180500D01*
X179918925Y-46165542D01*
X179988218Y-46174496D01*
X180041670Y-46219492D01*
X180062310Y-46286244D01*
X180043862Y-46353110D01*
X180013649Y-46402093D01*
X179965187Y-46480663D01*
X179965185Y-46480668D01*
X179958779Y-46500000D01*
X179910001Y-46647203D01*
X179910001Y-46647204D01*
X179910000Y-46647204D01*
X179899500Y-46749983D01*
X179899500Y-47199902D01*
X179879815Y-47266941D01*
X179863181Y-47287583D01*
X177849482Y-49301281D01*
X177849478Y-49301287D01*
X177803292Y-49381284D01*
X177770424Y-49438212D01*
X177770423Y-49438213D01*
X177754417Y-49497948D01*
X177729499Y-49590943D01*
X177729499Y-49590945D01*
X177729499Y-49759046D01*
X177729500Y-49759059D01*
X177729500Y-51012666D01*
X177709815Y-51079705D01*
X177657011Y-51125460D01*
X177587853Y-51135404D01*
X177536616Y-51115773D01*
X177533685Y-51113815D01*
X177533671Y-51113807D01*
X177351691Y-51038429D01*
X177351683Y-51038427D01*
X177310000Y-51030135D01*
X177310000Y-51790382D01*
X177259554Y-51739936D01*
X177185445Y-51697149D01*
X177102787Y-51675000D01*
X177017213Y-51675000D01*
X176934555Y-51697149D01*
X176860446Y-51739936D01*
X176810000Y-51790382D01*
X176810000Y-51030136D01*
X176809999Y-51030135D01*
X176768316Y-51038427D01*
X176666339Y-51080666D01*
X176596870Y-51088133D01*
X176544578Y-51065372D01*
X176532330Y-51056203D01*
X176532328Y-51056202D01*
X176397482Y-51005908D01*
X176397483Y-51005908D01*
X176337883Y-50999501D01*
X176337881Y-50999500D01*
X176337873Y-50999500D01*
X176337864Y-50999500D01*
X175242129Y-50999500D01*
X175242123Y-50999501D01*
X175182516Y-51005908D01*
X175047671Y-51056202D01*
X175047664Y-51056206D01*
X174932455Y-51142452D01*
X174932452Y-51142455D01*
X174867887Y-51228703D01*
X174811953Y-51270574D01*
X174792818Y-51276008D01*
X174781089Y-51278341D01*
X174781082Y-51278343D01*
X174644511Y-51334912D01*
X174644498Y-51334919D01*
X174521584Y-51417048D01*
X174521580Y-51417051D01*
X171667045Y-54271586D01*
X171656200Y-54287819D01*
X171633640Y-54321584D01*
X171609194Y-54358169D01*
X171584914Y-54394507D01*
X171528343Y-54531082D01*
X171528340Y-54531092D01*
X171499500Y-54676079D01*
X171499500Y-82388544D01*
X171537947Y-82581829D01*
X171537950Y-82581840D01*
X171549354Y-82609368D01*
X171549355Y-82609374D01*
X171549356Y-82609374D01*
X171613368Y-82763914D01*
X171613369Y-82763917D01*
X171722859Y-82927780D01*
X171722860Y-82927781D01*
X171722861Y-82927782D01*
X171862218Y-83067139D01*
X171862219Y-83067139D01*
X171869286Y-83074206D01*
X171869285Y-83074206D01*
X171869288Y-83074208D01*
X175163182Y-86368103D01*
X175196666Y-86429424D01*
X175199500Y-86455782D01*
X175199500Y-88130017D01*
X175210000Y-88232796D01*
X175210001Y-88232798D01*
X175265186Y-88399335D01*
X175357288Y-88548656D01*
X175481344Y-88672712D01*
X175630665Y-88764814D01*
X175797202Y-88819999D01*
X175899990Y-88830500D01*
X177574217Y-88830500D01*
X177641256Y-88850185D01*
X177661898Y-88866819D01*
X180822215Y-92027137D01*
X180822219Y-92027140D01*
X180986079Y-92136628D01*
X180986085Y-92136631D01*
X180986086Y-92136632D01*
X181168165Y-92212052D01*
X181361455Y-92250500D01*
X181361458Y-92250501D01*
X181361460Y-92250501D01*
X181564655Y-92250501D01*
X181564675Y-92250500D01*
X185488542Y-92250500D01*
X185519566Y-92244328D01*
X185585188Y-92231275D01*
X185681836Y-92212051D01*
X185735165Y-92189961D01*
X185863914Y-92136632D01*
X186027782Y-92027139D01*
X186167139Y-91887782D01*
X186167139Y-91887780D01*
X186177347Y-91877573D01*
X186177348Y-91877570D01*
X187920597Y-90134322D01*
X187969959Y-90104074D01*
X188082209Y-90067602D01*
X188082211Y-90067600D01*
X188082214Y-90067600D01*
X188243779Y-89985279D01*
X188390477Y-89878696D01*
X188518696Y-89750477D01*
X188625279Y-89603779D01*
X188707600Y-89442214D01*
X188763634Y-89269761D01*
X188783129Y-89146675D01*
X188787527Y-89118910D01*
X188817456Y-89055775D01*
X188876768Y-89018844D01*
X188946631Y-89019842D01*
X189004863Y-89058452D01*
X189032473Y-89118910D01*
X189056365Y-89269757D01*
X189056365Y-89269759D01*
X189056366Y-89269761D01*
X189112400Y-89442214D01*
X189194721Y-89603779D01*
X189301304Y-89750477D01*
X189429523Y-89878696D01*
X189576221Y-89985279D01*
X189737786Y-90067600D01*
X189910239Y-90123634D01*
X189977400Y-90134271D01*
X190089331Y-90152000D01*
X190089336Y-90152000D01*
X190270669Y-90152000D01*
X190370162Y-90136241D01*
X190449761Y-90123634D01*
X190622214Y-90067600D01*
X190783779Y-89985279D01*
X190930477Y-89878696D01*
X191058696Y-89750477D01*
X191165279Y-89603779D01*
X191247600Y-89442214D01*
X191303634Y-89269761D01*
X191323129Y-89146675D01*
X191332000Y-89090669D01*
X191332000Y-88909330D01*
X194108000Y-88909330D01*
X194108000Y-89090669D01*
X194136365Y-89269757D01*
X194136365Y-89269759D01*
X194136366Y-89269761D01*
X194192400Y-89442214D01*
X194274721Y-89603779D01*
X194381304Y-89750477D01*
X194509523Y-89878696D01*
X194656221Y-89985279D01*
X194817786Y-90067600D01*
X194990239Y-90123634D01*
X195057400Y-90134271D01*
X195169331Y-90152000D01*
X195169336Y-90152000D01*
X195350669Y-90152000D01*
X195450162Y-90136241D01*
X195529761Y-90123634D01*
X195702214Y-90067600D01*
X195863779Y-89985279D01*
X196010477Y-89878696D01*
X196138696Y-89750477D01*
X196245279Y-89603779D01*
X196327600Y-89442214D01*
X196383634Y-89269761D01*
X196403129Y-89146675D01*
X196407527Y-89118910D01*
X196437456Y-89055775D01*
X196496768Y-89018844D01*
X196566631Y-89019842D01*
X196624863Y-89058452D01*
X196652473Y-89118910D01*
X196676365Y-89269757D01*
X196676365Y-89269759D01*
X196676366Y-89269761D01*
X196732400Y-89442214D01*
X196814721Y-89603779D01*
X196921304Y-89750477D01*
X197049523Y-89878696D01*
X197196221Y-89985279D01*
X197357786Y-90067600D01*
X197530239Y-90123634D01*
X197597400Y-90134271D01*
X197709331Y-90152000D01*
X197709336Y-90152000D01*
X197890669Y-90152000D01*
X197990162Y-90136241D01*
X198069761Y-90123634D01*
X198242214Y-90067600D01*
X198403779Y-89985279D01*
X198550477Y-89878696D01*
X198678696Y-89750477D01*
X198785279Y-89603779D01*
X198867600Y-89442214D01*
X198923634Y-89269761D01*
X198943129Y-89146675D01*
X198947780Y-89117312D01*
X198977709Y-89054177D01*
X199037021Y-89017246D01*
X199106883Y-89018244D01*
X199165116Y-89056854D01*
X199192726Y-89117312D01*
X199216852Y-89269640D01*
X199272864Y-89442025D01*
X199355150Y-89603520D01*
X199366837Y-89619606D01*
X199366838Y-89619606D01*
X199960000Y-89026445D01*
X199960000Y-89050028D01*
X199985896Y-89146675D01*
X200035924Y-89233325D01*
X200106675Y-89304076D01*
X200193325Y-89354104D01*
X200289972Y-89380000D01*
X200313553Y-89380000D01*
X199720391Y-89973160D01*
X199720392Y-89973161D01*
X199736478Y-89984848D01*
X199897974Y-90067135D01*
X200070359Y-90123147D01*
X200070358Y-90123147D01*
X200249371Y-90151500D01*
X200430629Y-90151500D01*
X200609640Y-90123147D01*
X200782025Y-90067135D01*
X200943514Y-89984853D01*
X200959607Y-89973160D01*
X200366448Y-89380000D01*
X200390028Y-89380000D01*
X200486675Y-89354104D01*
X200573325Y-89304076D01*
X200644076Y-89233325D01*
X200694104Y-89146675D01*
X200720000Y-89050028D01*
X200720000Y-89026446D01*
X201313160Y-89619606D01*
X201324853Y-89603514D01*
X201407135Y-89442025D01*
X201463147Y-89269640D01*
X201463147Y-89269639D01*
X201487273Y-89117313D01*
X201517202Y-89054178D01*
X201576513Y-89017246D01*
X201646375Y-89018244D01*
X201704608Y-89056853D01*
X201732219Y-89117311D01*
X201756365Y-89269758D01*
X201756366Y-89269761D01*
X201812400Y-89442214D01*
X201894721Y-89603779D01*
X202001304Y-89750477D01*
X202129523Y-89878696D01*
X202276221Y-89985279D01*
X202437786Y-90067600D01*
X202610239Y-90123634D01*
X202677400Y-90134271D01*
X202789331Y-90152000D01*
X202789336Y-90152000D01*
X202970669Y-90152000D01*
X203070162Y-90136241D01*
X203149761Y-90123634D01*
X203322214Y-90067600D01*
X203483779Y-89985279D01*
X203630477Y-89878696D01*
X203758696Y-89750477D01*
X203865279Y-89603779D01*
X203947600Y-89442214D01*
X204003634Y-89269761D01*
X204023129Y-89146675D01*
X204032000Y-89090669D01*
X204032000Y-88909330D01*
X204009110Y-88764812D01*
X204003634Y-88730239D01*
X203947600Y-88557786D01*
X203865279Y-88396221D01*
X203758696Y-88249523D01*
X203630477Y-88121304D01*
X203483779Y-88014721D01*
X203322214Y-87932400D01*
X203149761Y-87876366D01*
X203149759Y-87876365D01*
X203149757Y-87876365D01*
X202970669Y-87848000D01*
X202970664Y-87848000D01*
X202789336Y-87848000D01*
X202789331Y-87848000D01*
X202610242Y-87876365D01*
X202437783Y-87932401D01*
X202276220Y-88014721D01*
X202259543Y-88026838D01*
X202129523Y-88121304D01*
X202129521Y-88121306D01*
X202129520Y-88121306D01*
X202001306Y-88249520D01*
X202001306Y-88249521D01*
X202001304Y-88249523D01*
X201955531Y-88312523D01*
X201894721Y-88396220D01*
X201812401Y-88557783D01*
X201756365Y-88730241D01*
X201732219Y-88882688D01*
X201702289Y-88945822D01*
X201642977Y-88982753D01*
X201573115Y-88981755D01*
X201514882Y-88943144D01*
X201487273Y-88882686D01*
X201463147Y-88730360D01*
X201463147Y-88730359D01*
X201407135Y-88557974D01*
X201324848Y-88396478D01*
X201313161Y-88380392D01*
X201313160Y-88380391D01*
X200720000Y-88973551D01*
X200720000Y-88949972D01*
X200694104Y-88853325D01*
X200644076Y-88766675D01*
X200573325Y-88695924D01*
X200486675Y-88645896D01*
X200390028Y-88620000D01*
X200366447Y-88620000D01*
X200959606Y-88026838D01*
X200959606Y-88026837D01*
X200943520Y-88015150D01*
X200782025Y-87932864D01*
X200609640Y-87876852D01*
X200609641Y-87876852D01*
X200430629Y-87848500D01*
X200249371Y-87848500D01*
X200070359Y-87876852D01*
X199897974Y-87932864D01*
X199736484Y-88015147D01*
X199720392Y-88026837D01*
X199720392Y-88026838D01*
X200313554Y-88620000D01*
X200289972Y-88620000D01*
X200193325Y-88645896D01*
X200106675Y-88695924D01*
X200035924Y-88766675D01*
X199985896Y-88853325D01*
X199960000Y-88949972D01*
X199960000Y-88973554D01*
X199366838Y-88380392D01*
X199366837Y-88380392D01*
X199355147Y-88396484D01*
X199272864Y-88557974D01*
X199216852Y-88730359D01*
X199192726Y-88882687D01*
X199162797Y-88945822D01*
X199103485Y-88982753D01*
X199033623Y-88981755D01*
X198975390Y-88943145D01*
X198947780Y-88882687D01*
X198929110Y-88764812D01*
X198923634Y-88730239D01*
X198867600Y-88557786D01*
X198785279Y-88396221D01*
X198678696Y-88249523D01*
X198550477Y-88121304D01*
X198403779Y-88014721D01*
X198242214Y-87932400D01*
X198069761Y-87876366D01*
X198069759Y-87876365D01*
X198069757Y-87876365D01*
X197890669Y-87848000D01*
X197890664Y-87848000D01*
X197709336Y-87848000D01*
X197709331Y-87848000D01*
X197530242Y-87876365D01*
X197357783Y-87932401D01*
X197196220Y-88014721D01*
X197179543Y-88026838D01*
X197049523Y-88121304D01*
X197049521Y-88121306D01*
X197049520Y-88121306D01*
X196921306Y-88249520D01*
X196921306Y-88249521D01*
X196921304Y-88249523D01*
X196875531Y-88312523D01*
X196814721Y-88396220D01*
X196732401Y-88557783D01*
X196676365Y-88730242D01*
X196652473Y-88881089D01*
X196622544Y-88944224D01*
X196563232Y-88981155D01*
X196493369Y-88980157D01*
X196435137Y-88941547D01*
X196407527Y-88881089D01*
X196389110Y-88764812D01*
X196383634Y-88730239D01*
X196327600Y-88557786D01*
X196245279Y-88396221D01*
X196138696Y-88249523D01*
X196010477Y-88121304D01*
X195863779Y-88014721D01*
X195702214Y-87932400D01*
X195529761Y-87876366D01*
X195529759Y-87876365D01*
X195529757Y-87876365D01*
X195350669Y-87848000D01*
X195350664Y-87848000D01*
X195169336Y-87848000D01*
X195169331Y-87848000D01*
X194990242Y-87876365D01*
X194817783Y-87932401D01*
X194656220Y-88014721D01*
X194639543Y-88026838D01*
X194509523Y-88121304D01*
X194509521Y-88121306D01*
X194509520Y-88121306D01*
X194381306Y-88249520D01*
X194381306Y-88249521D01*
X194381304Y-88249523D01*
X194335531Y-88312523D01*
X194274721Y-88396220D01*
X194192401Y-88557783D01*
X194136365Y-88730242D01*
X194108000Y-88909330D01*
X191332000Y-88909330D01*
X191309110Y-88764812D01*
X191303634Y-88730239D01*
X191247600Y-88557786D01*
X191165279Y-88396221D01*
X191058696Y-88249523D01*
X190930477Y-88121304D01*
X190783779Y-88014721D01*
X190622214Y-87932400D01*
X190449761Y-87876366D01*
X190449759Y-87876365D01*
X190449757Y-87876365D01*
X190270669Y-87848000D01*
X190270664Y-87848000D01*
X190089336Y-87848000D01*
X190089331Y-87848000D01*
X189910242Y-87876365D01*
X189737783Y-87932401D01*
X189576220Y-88014721D01*
X189559543Y-88026838D01*
X189429523Y-88121304D01*
X189429521Y-88121306D01*
X189429520Y-88121306D01*
X189301306Y-88249520D01*
X189301306Y-88249521D01*
X189301304Y-88249523D01*
X189255531Y-88312523D01*
X189194721Y-88396220D01*
X189112401Y-88557783D01*
X189056365Y-88730242D01*
X189032473Y-88881089D01*
X189002544Y-88944224D01*
X188943232Y-88981155D01*
X188873369Y-88980157D01*
X188815137Y-88941547D01*
X188787527Y-88881089D01*
X188769110Y-88764812D01*
X188763634Y-88730239D01*
X188707600Y-88557786D01*
X188625279Y-88396221D01*
X188518696Y-88249523D01*
X188390477Y-88121304D01*
X188243779Y-88014721D01*
X188082214Y-87932400D01*
X187909761Y-87876366D01*
X187909759Y-87876365D01*
X187909757Y-87876365D01*
X187730669Y-87848000D01*
X187730664Y-87848000D01*
X187549336Y-87848000D01*
X187549331Y-87848000D01*
X187370242Y-87876365D01*
X187197783Y-87932401D01*
X187036220Y-88014721D01*
X187019543Y-88026838D01*
X186889523Y-88121304D01*
X186889521Y-88121306D01*
X186889520Y-88121306D01*
X186761306Y-88249520D01*
X186761306Y-88249521D01*
X186761304Y-88249523D01*
X186715531Y-88312523D01*
X186654721Y-88396220D01*
X186572399Y-88557785D01*
X186535924Y-88670041D01*
X186528937Y-88681441D01*
X186526826Y-88691148D01*
X186505675Y-88719402D01*
X186432289Y-88792788D01*
X186370966Y-88826273D01*
X186301274Y-88821289D01*
X186245341Y-88779417D01*
X186224033Y-88734050D01*
X186223145Y-88730351D01*
X186167135Y-88557974D01*
X186084848Y-88396478D01*
X186073161Y-88380392D01*
X186073160Y-88380391D01*
X185480000Y-88973553D01*
X185480000Y-88949972D01*
X185454104Y-88853325D01*
X185404076Y-88766675D01*
X185333325Y-88695924D01*
X185246675Y-88645896D01*
X185150028Y-88620000D01*
X185126447Y-88620000D01*
X185719606Y-88026838D01*
X185719606Y-88026837D01*
X185703520Y-88015150D01*
X185542025Y-87932864D01*
X185369640Y-87876852D01*
X185369641Y-87876852D01*
X185190629Y-87848500D01*
X185009371Y-87848500D01*
X184830359Y-87876852D01*
X184657974Y-87932864D01*
X184496484Y-88015147D01*
X184480392Y-88026837D01*
X184480392Y-88026838D01*
X185073554Y-88620000D01*
X185049972Y-88620000D01*
X184953325Y-88645896D01*
X184866675Y-88695924D01*
X184795924Y-88766675D01*
X184745896Y-88853325D01*
X184720000Y-88949972D01*
X184720000Y-88973554D01*
X184126838Y-88380392D01*
X184126837Y-88380392D01*
X184115147Y-88396484D01*
X184032864Y-88557974D01*
X183976852Y-88730359D01*
X183948500Y-88909370D01*
X183948500Y-89090629D01*
X183976852Y-89269640D01*
X184032864Y-89442025D01*
X184115150Y-89603520D01*
X184126837Y-89619606D01*
X184126838Y-89619606D01*
X184720000Y-89026445D01*
X184720000Y-89050028D01*
X184745896Y-89146675D01*
X184795924Y-89233325D01*
X184866675Y-89304076D01*
X184953325Y-89354104D01*
X185049972Y-89380000D01*
X185073553Y-89380000D01*
X184480391Y-89973160D01*
X184480392Y-89973161D01*
X184496478Y-89984848D01*
X184555682Y-90015015D01*
X184606478Y-90062990D01*
X184623273Y-90130811D01*
X184600735Y-90196946D01*
X184546020Y-90240397D01*
X184499387Y-90249500D01*
X181925783Y-90249500D01*
X181858744Y-90229815D01*
X181838102Y-90213181D01*
X179836819Y-88211898D01*
X179822115Y-88184970D01*
X179805523Y-88159152D01*
X179804631Y-88152951D01*
X179803334Y-88150575D01*
X179800500Y-88124217D01*
X179800500Y-86449995D01*
X179800499Y-86449982D01*
X179792238Y-86369124D01*
X179789999Y-86347202D01*
X179734814Y-86180665D01*
X179642712Y-86031344D01*
X179518656Y-85907288D01*
X179369335Y-85815186D01*
X179202798Y-85760001D01*
X179202796Y-85760000D01*
X179100017Y-85749500D01*
X179100010Y-85749500D01*
X177425782Y-85749500D01*
X177358743Y-85729815D01*
X177338101Y-85713181D01*
X175943224Y-84318304D01*
X175902802Y-84277882D01*
X182595669Y-84277882D01*
X182595670Y-84277883D01*
X182621059Y-84296329D01*
X182789362Y-84382085D01*
X182968997Y-84440451D01*
X183155553Y-84470000D01*
X183344447Y-84470000D01*
X183531002Y-84440451D01*
X183710637Y-84382085D01*
X183878937Y-84296331D01*
X183904328Y-84277883D01*
X183904328Y-84277882D01*
X183250001Y-83623554D01*
X183250000Y-83623554D01*
X182595669Y-84277882D01*
X175902802Y-84277882D01*
X175374920Y-83750000D01*
X173584921Y-81960000D01*
X175220400Y-81960000D01*
X176845879Y-81960000D01*
X176826901Y-82005818D01*
X176800000Y-82141056D01*
X176800000Y-82278944D01*
X176826901Y-82414182D01*
X176845879Y-82460000D01*
X175220400Y-82460000D01*
X175237919Y-82570618D01*
X175312827Y-82801159D01*
X175422874Y-83017136D01*
X175565356Y-83213245D01*
X175736754Y-83384643D01*
X175932863Y-83527125D01*
X176148840Y-83637172D01*
X176379381Y-83712079D01*
X176618800Y-83750000D01*
X177250000Y-83750000D01*
X177250000Y-82864120D01*
X177295818Y-82883099D01*
X177431056Y-82910000D01*
X177568944Y-82910000D01*
X177704182Y-82883099D01*
X177750000Y-82864120D01*
X177750000Y-83750000D01*
X178381200Y-83750000D01*
X178620618Y-83712079D01*
X178851159Y-83637172D01*
X179067136Y-83527125D01*
X179263245Y-83384643D01*
X179434643Y-83213245D01*
X179434643Y-83213244D01*
X179462029Y-83175552D01*
X182050000Y-83175552D01*
X182050000Y-83364447D01*
X182079548Y-83551002D01*
X182137914Y-83730637D01*
X182223666Y-83898933D01*
X182242116Y-83924328D01*
X182896446Y-83270000D01*
X182896446Y-83269999D01*
X182850369Y-83223922D01*
X182900000Y-83223922D01*
X182900000Y-83316078D01*
X182923852Y-83405095D01*
X182969930Y-83484905D01*
X183035095Y-83550070D01*
X183114905Y-83596148D01*
X183203922Y-83620000D01*
X183296078Y-83620000D01*
X183385095Y-83596148D01*
X183464905Y-83550070D01*
X183530070Y-83484905D01*
X183576148Y-83405095D01*
X183600000Y-83316078D01*
X183600000Y-83269999D01*
X183603554Y-83269999D01*
X183603554Y-83270000D01*
X184257882Y-83924328D01*
X184257883Y-83924328D01*
X184276331Y-83898937D01*
X184362085Y-83730637D01*
X184420451Y-83551002D01*
X184450000Y-83364447D01*
X184450000Y-83175552D01*
X184420451Y-82988997D01*
X184362085Y-82809362D01*
X184276329Y-82641059D01*
X184257883Y-82615670D01*
X184257882Y-82615669D01*
X183603554Y-83269999D01*
X183600000Y-83269999D01*
X183600000Y-83223922D01*
X183576148Y-83134905D01*
X183530070Y-83055095D01*
X183464905Y-82989930D01*
X183385095Y-82943852D01*
X183296078Y-82920000D01*
X183203922Y-82920000D01*
X183114905Y-82943852D01*
X183035095Y-82989930D01*
X182969930Y-83055095D01*
X182923852Y-83134905D01*
X182900000Y-83223922D01*
X182850369Y-83223922D01*
X182242116Y-82615669D01*
X182242116Y-82615670D01*
X182223669Y-82641060D01*
X182137914Y-82809362D01*
X182079548Y-82988997D01*
X182050000Y-83175552D01*
X179462029Y-83175552D01*
X179518520Y-83097800D01*
X179518521Y-83097798D01*
X179577123Y-83017139D01*
X179687172Y-82801159D01*
X179762080Y-82570618D01*
X179779600Y-82460000D01*
X178154121Y-82460000D01*
X178173099Y-82414182D01*
X178200000Y-82278944D01*
X178200000Y-82141056D01*
X178173099Y-82005818D01*
X178154121Y-81960000D01*
X179779600Y-81960000D01*
X179762080Y-81849381D01*
X179725851Y-81737882D01*
X182595669Y-81737882D01*
X182595670Y-81737883D01*
X182621059Y-81756329D01*
X182789362Y-81842085D01*
X182912420Y-81882069D01*
X182970095Y-81921506D01*
X182997294Y-81985865D01*
X182985380Y-82054711D01*
X182938136Y-82106187D01*
X182912420Y-82117931D01*
X182789362Y-82157914D01*
X182621060Y-82243669D01*
X182595670Y-82262116D01*
X182595669Y-82262116D01*
X183250000Y-82916446D01*
X183250001Y-82916446D01*
X183904328Y-82262116D01*
X183878933Y-82243666D01*
X183710637Y-82157914D01*
X183587579Y-82117931D01*
X183529904Y-82078494D01*
X183502705Y-82014135D01*
X183514619Y-81945289D01*
X183561863Y-81893813D01*
X183587579Y-81882069D01*
X183710637Y-81842085D01*
X183878937Y-81756331D01*
X183904328Y-81737883D01*
X183904328Y-81737882D01*
X183250001Y-81083554D01*
X183250000Y-81083554D01*
X182595669Y-81737882D01*
X179725851Y-81737882D01*
X179687172Y-81618840D01*
X179577125Y-81402863D01*
X179434643Y-81206754D01*
X179263245Y-81035356D01*
X179067136Y-80892874D01*
X178851159Y-80782827D01*
X178620618Y-80707920D01*
X178381200Y-80670000D01*
X177750000Y-80670000D01*
X177750000Y-81555879D01*
X177704182Y-81536901D01*
X177568944Y-81510000D01*
X177431056Y-81510000D01*
X177295818Y-81536901D01*
X177250000Y-81555879D01*
X177250000Y-80670000D01*
X176618800Y-80670000D01*
X176379381Y-80707920D01*
X176148840Y-80782827D01*
X175932863Y-80892874D01*
X175736754Y-81035356D01*
X175565356Y-81206754D01*
X175422874Y-81402863D01*
X175312827Y-81618840D01*
X175237919Y-81849381D01*
X175220400Y-81960000D01*
X173584921Y-81960000D01*
X173536819Y-81911898D01*
X173503334Y-81850575D01*
X173500500Y-81824217D01*
X173500500Y-77612229D01*
X173520185Y-77545190D01*
X173536819Y-77524548D01*
X173774548Y-77286819D01*
X173835871Y-77253334D01*
X173862229Y-77250500D01*
X174730249Y-77250500D01*
X174797288Y-77270185D01*
X174829515Y-77300188D01*
X174868958Y-77352876D01*
X174872454Y-77357546D01*
X174901095Y-77378987D01*
X174987664Y-77443793D01*
X174987671Y-77443797D01*
X175122517Y-77494091D01*
X175122516Y-77494091D01*
X175129444Y-77494835D01*
X175182127Y-77500500D01*
X176277872Y-77500499D01*
X176337483Y-77494091D01*
X176472331Y-77443796D01*
X176484575Y-77434629D01*
X176550035Y-77410210D01*
X176606339Y-77419333D01*
X176708308Y-77461569D01*
X176750000Y-77469862D01*
X176750000Y-76709618D01*
X176800446Y-76760064D01*
X176874555Y-76802851D01*
X176957213Y-76825000D01*
X177042787Y-76825000D01*
X177125445Y-76802851D01*
X177199554Y-76760064D01*
X177250000Y-76709618D01*
X177250000Y-77469862D01*
X177291690Y-77461569D01*
X177291692Y-77461569D01*
X177473673Y-77386191D01*
X177473674Y-77386190D01*
X177504323Y-77365712D01*
X177526798Y-77358674D01*
X177547532Y-77347503D01*
X177559522Y-77348427D01*
X177571000Y-77344834D01*
X177593713Y-77351064D01*
X177617195Y-77352876D01*
X177626781Y-77360136D01*
X177638380Y-77363318D01*
X177654118Y-77380838D01*
X177672894Y-77395058D01*
X177679855Y-77409490D01*
X177685071Y-77415297D01*
X177689636Y-77426129D01*
X177691548Y-77431344D01*
X177710423Y-77501785D01*
X177724116Y-77525501D01*
X177755965Y-77580666D01*
X177789479Y-77638715D01*
X177908349Y-77757585D01*
X177908355Y-77757590D01*
X179765139Y-79614374D01*
X179765149Y-79614385D01*
X179769479Y-79618715D01*
X179769480Y-79618716D01*
X179881284Y-79730520D01*
X179910181Y-79747203D01*
X179968095Y-79780639D01*
X179968097Y-79780641D01*
X180006151Y-79802611D01*
X180018215Y-79809577D01*
X180170943Y-79850501D01*
X180170946Y-79850501D01*
X180336653Y-79850501D01*
X180336669Y-79850500D01*
X182162348Y-79850500D01*
X182229387Y-79870185D01*
X182275142Y-79922989D01*
X182285086Y-79992147D01*
X182262667Y-80047385D01*
X182223667Y-80101063D01*
X182137914Y-80269362D01*
X182079548Y-80448997D01*
X182050000Y-80635552D01*
X182050000Y-80824447D01*
X182079548Y-81011002D01*
X182137914Y-81190637D01*
X182223666Y-81358933D01*
X182242116Y-81384328D01*
X182900000Y-80726444D01*
X182900000Y-80776078D01*
X182923852Y-80865095D01*
X182969930Y-80944905D01*
X183035095Y-81010070D01*
X183114905Y-81056148D01*
X183203922Y-81080000D01*
X183296078Y-81080000D01*
X183385095Y-81056148D01*
X183464905Y-81010070D01*
X183530070Y-80944905D01*
X183576148Y-80865095D01*
X183600000Y-80776078D01*
X183600000Y-80726446D01*
X184257882Y-81384328D01*
X184257883Y-81384328D01*
X184276331Y-81358937D01*
X184362085Y-81190637D01*
X184420451Y-81011002D01*
X184450000Y-80824447D01*
X184450000Y-80635552D01*
X184420451Y-80448997D01*
X184362085Y-80269362D01*
X184276332Y-80101063D01*
X184237333Y-80047385D01*
X184213854Y-79981578D01*
X184229680Y-79913524D01*
X184279786Y-79864830D01*
X184337652Y-79850500D01*
X184911731Y-79850500D01*
X184978770Y-79870185D01*
X185024525Y-79922989D01*
X185034469Y-79992147D01*
X185012049Y-80047384D01*
X185009787Y-80050499D01*
X184973240Y-80100800D01*
X184887454Y-80269163D01*
X184829059Y-80448881D01*
X184799500Y-80635513D01*
X184799500Y-80824486D01*
X184829059Y-81011118D01*
X184887454Y-81190836D01*
X184963457Y-81339998D01*
X184973240Y-81359199D01*
X185084310Y-81512073D01*
X185217927Y-81645690D01*
X185370801Y-81756760D01*
X185450347Y-81797290D01*
X185539163Y-81842545D01*
X185539165Y-81842545D01*
X185539168Y-81842547D01*
X185628734Y-81871649D01*
X185660803Y-81882069D01*
X185718478Y-81921507D01*
X185745676Y-81985866D01*
X185733761Y-82054712D01*
X185686516Y-82106188D01*
X185660803Y-82117931D01*
X185539163Y-82157454D01*
X185370800Y-82243240D01*
X185294115Y-82298956D01*
X185217927Y-82354310D01*
X185217925Y-82354312D01*
X185217924Y-82354312D01*
X185084312Y-82487924D01*
X185084312Y-82487925D01*
X185084310Y-82487927D01*
X185067824Y-82510618D01*
X184973240Y-82640800D01*
X184887454Y-82809163D01*
X184829059Y-82988881D01*
X184799500Y-83175513D01*
X184799500Y-83364486D01*
X184829059Y-83551118D01*
X184887454Y-83730836D01*
X184973104Y-83898933D01*
X184973240Y-83899199D01*
X185084310Y-84052073D01*
X185217927Y-84185690D01*
X185370801Y-84296760D01*
X185413084Y-84318304D01*
X185539163Y-84382545D01*
X185539165Y-84382545D01*
X185539168Y-84382547D01*
X185635497Y-84413846D01*
X185718881Y-84440940D01*
X185905514Y-84470500D01*
X185905519Y-84470500D01*
X186094486Y-84470500D01*
X186281118Y-84440940D01*
X186282623Y-84440451D01*
X186460832Y-84382547D01*
X186629199Y-84296760D01*
X186782073Y-84185690D01*
X186915690Y-84052073D01*
X187026760Y-83899199D01*
X187112547Y-83730832D01*
X187170940Y-83551118D01*
X187181427Y-83484905D01*
X187200500Y-83364486D01*
X187200500Y-83175513D01*
X187170940Y-82988881D01*
X187136340Y-82882396D01*
X187112547Y-82809168D01*
X187112545Y-82809165D01*
X187112545Y-82809163D01*
X187034618Y-82656224D01*
X187026760Y-82640801D01*
X186942615Y-82524986D01*
X188625001Y-82524986D01*
X188635494Y-82627697D01*
X188690641Y-82794119D01*
X188690643Y-82794124D01*
X188782684Y-82943345D01*
X188906654Y-83067315D01*
X189055875Y-83159356D01*
X189055880Y-83159358D01*
X189222302Y-83214505D01*
X189222309Y-83214506D01*
X189325019Y-83224999D01*
X189462499Y-83224999D01*
X189462500Y-83224998D01*
X189462500Y-82250000D01*
X188625001Y-82250000D01*
X188625001Y-82524986D01*
X186942615Y-82524986D01*
X186915690Y-82487927D01*
X186782073Y-82354310D01*
X186629199Y-82243240D01*
X186460836Y-82157454D01*
X186386472Y-82133291D01*
X186339195Y-82117930D01*
X186281521Y-82078493D01*
X186254323Y-82014134D01*
X186266238Y-81945288D01*
X186313482Y-81893812D01*
X186339194Y-81882069D01*
X186460832Y-81842547D01*
X186629199Y-81756760D01*
X186782073Y-81645690D01*
X186915690Y-81512073D01*
X186942616Y-81475013D01*
X188625000Y-81475013D01*
X188625000Y-81750000D01*
X189462500Y-81750000D01*
X189462500Y-80775000D01*
X189325027Y-80775000D01*
X189325012Y-80775001D01*
X189222302Y-80785494D01*
X189055880Y-80840641D01*
X189055875Y-80840643D01*
X188906654Y-80932684D01*
X188782684Y-81056654D01*
X188690643Y-81205875D01*
X188690641Y-81205880D01*
X188635494Y-81372302D01*
X188635493Y-81372309D01*
X188625000Y-81475013D01*
X186942616Y-81475013D01*
X187026760Y-81359199D01*
X187112547Y-81190832D01*
X187170940Y-81011118D01*
X187183363Y-80932684D01*
X187200500Y-80824486D01*
X187200500Y-80635513D01*
X187170940Y-80448881D01*
X187124061Y-80304604D01*
X187112547Y-80269168D01*
X187112545Y-80269165D01*
X187112545Y-80269163D01*
X187026759Y-80100800D01*
X186987950Y-80047384D01*
X186964471Y-79981580D01*
X186980296Y-79913526D01*
X187030401Y-79864831D01*
X187088269Y-79850500D01*
X188170234Y-79850500D01*
X188237273Y-79870185D01*
X188239125Y-79871398D01*
X188370814Y-79959390D01*
X188370827Y-79959397D01*
X188516498Y-80019735D01*
X188516503Y-80019737D01*
X188655498Y-80047385D01*
X188671153Y-80050499D01*
X188671156Y-80050500D01*
X188671158Y-80050500D01*
X188828844Y-80050500D01*
X188828845Y-80050499D01*
X188983497Y-80019737D01*
X189129179Y-79959394D01*
X189146341Y-79947927D01*
X189260875Y-79871398D01*
X189327553Y-79850520D01*
X189329766Y-79850500D01*
X190863000Y-79850500D01*
X190930039Y-79870185D01*
X190975794Y-79922989D01*
X190987000Y-79974500D01*
X190987000Y-80078846D01*
X191017761Y-80233489D01*
X191017763Y-80233497D01*
X191027561Y-80257151D01*
X191029187Y-80265328D01*
X191031977Y-80269669D01*
X191037000Y-80304604D01*
X191037000Y-80495396D01*
X191027562Y-80542844D01*
X191017763Y-80566503D01*
X191017762Y-80566506D01*
X191017760Y-80566511D01*
X190987000Y-80721153D01*
X190987000Y-80875270D01*
X190978787Y-80903238D01*
X190973327Y-80931873D01*
X190968389Y-80938648D01*
X190967315Y-80942309D01*
X190952911Y-80960663D01*
X190951814Y-80961817D01*
X190857288Y-81056344D01*
X190848487Y-81070612D01*
X190839617Y-81079952D01*
X190820081Y-81091282D01*
X190803291Y-81106383D01*
X190790440Y-81108473D01*
X190779177Y-81115006D01*
X190756617Y-81113975D01*
X190734328Y-81117602D01*
X190722386Y-81112412D01*
X190709381Y-81111819D01*
X190690959Y-81098755D01*
X190670247Y-81089755D01*
X190657467Y-81075005D01*
X190652387Y-81071403D01*
X190650686Y-81067179D01*
X190644168Y-81059656D01*
X190642319Y-81056659D01*
X190642316Y-81056655D01*
X190518345Y-80932684D01*
X190369124Y-80840643D01*
X190369119Y-80840641D01*
X190202697Y-80785494D01*
X190202690Y-80785493D01*
X190099986Y-80775000D01*
X189962500Y-80775000D01*
X189962500Y-83224999D01*
X190099972Y-83224999D01*
X190099986Y-83224998D01*
X190202697Y-83214505D01*
X190369119Y-83159358D01*
X190369124Y-83159356D01*
X190518345Y-83067315D01*
X190642318Y-82943342D01*
X190644165Y-82940348D01*
X190645969Y-82938724D01*
X190646798Y-82937677D01*
X190646976Y-82937818D01*
X190696110Y-82893621D01*
X190765073Y-82882396D01*
X190829156Y-82910236D01*
X190838054Y-82918431D01*
X190847888Y-82928416D01*
X190857288Y-82943656D01*
X190981344Y-83067712D01*
X190990839Y-83073568D01*
X191001348Y-83084239D01*
X191011065Y-83102362D01*
X191024820Y-83117654D01*
X191028907Y-83135638D01*
X191034364Y-83145816D01*
X191033551Y-83156073D01*
X191037000Y-83171248D01*
X191037000Y-83295396D01*
X191027562Y-83342844D01*
X191017763Y-83366503D01*
X191017762Y-83366506D01*
X191017760Y-83366511D01*
X190987000Y-83521153D01*
X190987000Y-83678846D01*
X191017761Y-83833489D01*
X191017763Y-83833497D01*
X191027561Y-83857151D01*
X191029187Y-83865328D01*
X191031977Y-83869669D01*
X191037000Y-83904604D01*
X191037000Y-84057896D01*
X191027562Y-84105344D01*
X191017763Y-84129003D01*
X191017762Y-84129006D01*
X191017760Y-84129011D01*
X190987000Y-84283653D01*
X190987000Y-84441346D01*
X191017761Y-84595989D01*
X191017764Y-84596001D01*
X191078102Y-84741672D01*
X191078109Y-84741685D01*
X191165710Y-84872788D01*
X191165713Y-84872792D01*
X191277207Y-84984286D01*
X191277211Y-84984289D01*
X191408314Y-85071890D01*
X191408327Y-85071897D01*
X191553998Y-85132235D01*
X191554003Y-85132237D01*
X191708653Y-85162999D01*
X191708656Y-85163000D01*
X191708658Y-85163000D01*
X191866344Y-85163000D01*
X191866345Y-85162999D01*
X192020997Y-85132237D01*
X192166679Y-85071894D01*
X192297789Y-84984289D01*
X192409289Y-84872789D01*
X192496894Y-84741679D01*
X192557237Y-84595997D01*
X192588000Y-84441342D01*
X192588000Y-84283658D01*
X192588000Y-84283655D01*
X192587999Y-84283653D01*
X192557239Y-84129011D01*
X192557238Y-84129008D01*
X192557237Y-84129003D01*
X192547437Y-84105344D01*
X192545811Y-84097170D01*
X192543023Y-84092831D01*
X192538000Y-84057896D01*
X192538000Y-83904604D01*
X192547439Y-83857151D01*
X192557237Y-83833497D01*
X192588000Y-83678842D01*
X192588000Y-83521158D01*
X192588000Y-83521155D01*
X192587999Y-83521153D01*
X192557239Y-83366511D01*
X192557238Y-83366508D01*
X192557237Y-83366503D01*
X192547437Y-83342844D01*
X192545811Y-83334670D01*
X192543023Y-83330331D01*
X192538000Y-83295396D01*
X192538000Y-83171248D01*
X192557685Y-83104209D01*
X192588996Y-83073471D01*
X192587987Y-83072195D01*
X192593654Y-83067713D01*
X192593653Y-83067713D01*
X192593656Y-83067712D01*
X192717712Y-82943656D01*
X192809814Y-82794334D01*
X192864999Y-82627797D01*
X192875500Y-82525009D01*
X192875499Y-81474992D01*
X192864999Y-81372203D01*
X192809814Y-81205666D01*
X192717712Y-81056344D01*
X192624318Y-80962950D01*
X192590834Y-80901626D01*
X192588000Y-80875269D01*
X192588000Y-80721155D01*
X192587999Y-80721153D01*
X192557239Y-80566511D01*
X192557238Y-80566508D01*
X192557237Y-80566503D01*
X192547437Y-80542844D01*
X192545811Y-80534670D01*
X192543023Y-80530331D01*
X192538000Y-80495396D01*
X192538000Y-80304604D01*
X192547439Y-80257151D01*
X192557237Y-80233497D01*
X192588000Y-80078842D01*
X192588000Y-79974689D01*
X192607685Y-79907650D01*
X192660489Y-79861895D01*
X192712000Y-79850689D01*
X196196671Y-79850689D01*
X196263710Y-79870374D01*
X196309465Y-79923178D01*
X196319409Y-79992336D01*
X196319144Y-79994087D01*
X196295300Y-80144632D01*
X196295300Y-80315367D01*
X196322009Y-80484002D01*
X196322009Y-80484005D01*
X196374767Y-80646377D01*
X196374769Y-80646380D01*
X196452280Y-80798506D01*
X196453326Y-80800212D01*
X196453525Y-80800948D01*
X196454493Y-80802848D01*
X196454093Y-80803051D01*
X196471568Y-80867659D01*
X196454151Y-80926977D01*
X196454493Y-80927152D01*
X196453565Y-80928972D01*
X196453326Y-80929788D01*
X196452280Y-80931493D01*
X196374769Y-81083619D01*
X196374767Y-81083622D01*
X196322009Y-81245994D01*
X196322009Y-81245997D01*
X196305071Y-81352939D01*
X196295300Y-81414632D01*
X196295300Y-81585368D01*
X196304854Y-81645687D01*
X196322009Y-81754002D01*
X196322009Y-81754005D01*
X196374767Y-81916377D01*
X196374769Y-81916380D01*
X196452281Y-82068507D01*
X196552637Y-82206635D01*
X196673365Y-82327363D01*
X196811493Y-82427719D01*
X196963620Y-82505231D01*
X196963622Y-82505232D01*
X197125995Y-82557990D01*
X197125996Y-82557990D01*
X197125999Y-82557991D01*
X197294632Y-82584700D01*
X197294633Y-82584700D01*
X197465367Y-82584700D01*
X197465368Y-82584700D01*
X197634001Y-82557991D01*
X197634004Y-82557990D01*
X197634005Y-82557990D01*
X197796377Y-82505232D01*
X197796377Y-82505231D01*
X197796380Y-82505231D01*
X197948507Y-82427719D01*
X197948523Y-82427706D01*
X197950199Y-82426681D01*
X197950934Y-82426481D01*
X197952848Y-82425507D01*
X197953052Y-82425908D01*
X198017643Y-82408430D01*
X198076976Y-82425851D01*
X198077152Y-82425507D01*
X198078987Y-82426442D01*
X198079801Y-82426681D01*
X198081481Y-82427710D01*
X198081493Y-82427719D01*
X198233620Y-82505231D01*
X198233622Y-82505232D01*
X198395995Y-82557990D01*
X198395996Y-82557990D01*
X198395999Y-82557991D01*
X198564632Y-82584700D01*
X198564633Y-82584700D01*
X198735367Y-82584700D01*
X198735368Y-82584700D01*
X198904001Y-82557991D01*
X198904004Y-82557990D01*
X198904005Y-82557990D01*
X199066377Y-82505232D01*
X199066377Y-82505231D01*
X199066380Y-82505231D01*
X199218507Y-82427719D01*
X199218522Y-82427707D01*
X199220673Y-82426390D01*
X199221615Y-82426134D01*
X199222848Y-82425507D01*
X199222979Y-82425765D01*
X199288116Y-82408136D01*
X199347208Y-82425481D01*
X199347414Y-82425079D01*
X199349556Y-82426170D01*
X199350266Y-82426379D01*
X199351749Y-82427288D01*
X199503808Y-82504766D01*
X199666115Y-82557503D01*
X199834667Y-82584200D01*
X200005333Y-82584200D01*
X200173884Y-82557503D01*
X200336191Y-82504766D01*
X200488234Y-82427296D01*
X200490194Y-82426095D01*
X200491042Y-82425865D01*
X200492586Y-82425079D01*
X200492751Y-82425402D01*
X200557637Y-82407841D01*
X200617274Y-82425351D01*
X200617414Y-82425079D01*
X200618866Y-82425819D01*
X200619806Y-82426095D01*
X200621765Y-82427296D01*
X200773808Y-82504766D01*
X200936115Y-82557503D01*
X201104667Y-82584200D01*
X201275333Y-82584200D01*
X201443884Y-82557503D01*
X201606191Y-82504766D01*
X201758237Y-82427294D01*
X201759715Y-82426389D01*
X201760354Y-82426215D01*
X201762586Y-82425079D01*
X201762824Y-82425547D01*
X201827158Y-82408136D01*
X201887045Y-82425716D01*
X201887152Y-82425507D01*
X201888265Y-82426074D01*
X201889310Y-82426381D01*
X201891493Y-82427719D01*
X202043620Y-82505231D01*
X202043622Y-82505232D01*
X202205995Y-82557990D01*
X202205996Y-82557990D01*
X202205999Y-82557991D01*
X202374632Y-82584700D01*
X202374633Y-82584700D01*
X202545367Y-82584700D01*
X202545368Y-82584700D01*
X202714001Y-82557991D01*
X202714004Y-82557990D01*
X202714005Y-82557990D01*
X202876377Y-82505232D01*
X202876377Y-82505231D01*
X202876380Y-82505231D01*
X202949205Y-82468124D01*
X202951910Y-82467616D01*
X202953989Y-82465816D01*
X202986038Y-82461207D01*
X203017874Y-82455229D01*
X203020423Y-82456263D01*
X203023147Y-82455872D01*
X203052605Y-82469325D01*
X203082615Y-82481505D01*
X203084200Y-82483754D01*
X203086703Y-82484897D01*
X203104211Y-82512140D01*
X203122872Y-82538612D01*
X203123444Y-82542068D01*
X203124477Y-82543675D01*
X203129500Y-82578610D01*
X203129500Y-82643330D01*
X203129499Y-82643348D01*
X203129499Y-82809054D01*
X203129498Y-82809054D01*
X203129499Y-82809057D01*
X203170423Y-82961785D01*
X203170425Y-82961788D01*
X203177766Y-82974503D01*
X203249477Y-83098712D01*
X203249481Y-83098717D01*
X203368349Y-83217585D01*
X203368355Y-83217590D01*
X206119478Y-85968713D01*
X206119480Y-85968716D01*
X206231284Y-86080520D01*
X206258627Y-86096306D01*
X206268724Y-86105600D01*
X206279938Y-86124257D01*
X206294961Y-86140013D01*
X206300393Y-86158290D01*
X206304718Y-86165485D01*
X206304517Y-86172163D01*
X206308104Y-86184230D01*
X206310000Y-86202795D01*
X206310001Y-86202797D01*
X206365186Y-86369334D01*
X206457288Y-86518656D01*
X206581344Y-86642712D01*
X206730666Y-86734814D01*
X206897203Y-86789999D01*
X206999991Y-86800500D01*
X207800008Y-86800499D01*
X207800016Y-86800498D01*
X207800019Y-86800498D01*
X207856302Y-86794748D01*
X207902797Y-86789999D01*
X208069334Y-86734814D01*
X208218656Y-86642712D01*
X208312675Y-86548692D01*
X208373994Y-86515210D01*
X208443686Y-86520194D01*
X208488034Y-86548695D01*
X208581654Y-86642315D01*
X208730875Y-86734356D01*
X208730880Y-86734358D01*
X208897302Y-86789505D01*
X208897309Y-86789506D01*
X209000019Y-86799999D01*
X209149999Y-86799999D01*
X209650000Y-86799999D01*
X209799972Y-86799999D01*
X209799986Y-86799998D01*
X209902697Y-86789505D01*
X210069119Y-86734358D01*
X210069124Y-86734356D01*
X210218345Y-86642315D01*
X210342315Y-86518345D01*
X210434356Y-86369124D01*
X210434358Y-86369119D01*
X210489505Y-86202697D01*
X210489506Y-86202690D01*
X210499999Y-86099986D01*
X210500000Y-86099973D01*
X210500000Y-85850000D01*
X209650000Y-85850000D01*
X209650000Y-86799999D01*
X209149999Y-86799999D01*
X209150000Y-86799998D01*
X209150000Y-85350000D01*
X209650000Y-85350000D01*
X210499999Y-85350000D01*
X210499999Y-85100028D01*
X210499998Y-85100013D01*
X210489505Y-84997302D01*
X210434358Y-84830880D01*
X210434356Y-84830875D01*
X210342315Y-84681654D01*
X210218345Y-84557684D01*
X210069124Y-84465643D01*
X210069119Y-84465641D01*
X209902697Y-84410494D01*
X209902690Y-84410493D01*
X209799986Y-84400000D01*
X209650000Y-84400000D01*
X209650000Y-85350000D01*
X209150000Y-85350000D01*
X209150000Y-84400000D01*
X209000027Y-84400000D01*
X209000012Y-84400001D01*
X208897302Y-84410494D01*
X208730880Y-84465641D01*
X208730875Y-84465643D01*
X208581657Y-84557682D01*
X208488034Y-84651305D01*
X208426710Y-84684789D01*
X208357019Y-84679805D01*
X208312672Y-84651304D01*
X208218657Y-84557289D01*
X208218656Y-84557288D01*
X208125888Y-84500069D01*
X208069336Y-84465187D01*
X208069331Y-84465185D01*
X208067862Y-84464698D01*
X207902797Y-84410001D01*
X207902795Y-84410000D01*
X207800010Y-84399500D01*
X206999998Y-84399500D01*
X206999980Y-84399501D01*
X206897203Y-84410000D01*
X206897200Y-84410001D01*
X206730668Y-84465185D01*
X206730663Y-84465187D01*
X206581336Y-84557293D01*
X206575672Y-84561772D01*
X206574840Y-84560720D01*
X206520265Y-84590507D01*
X206450574Y-84585508D01*
X206406251Y-84557016D01*
X204609391Y-82760156D01*
X204575906Y-82698833D01*
X204580890Y-82629141D01*
X204622762Y-82573208D01*
X204688226Y-82548791D01*
X204735392Y-82554544D01*
X204739849Y-82555992D01*
X204745998Y-82557991D01*
X204825722Y-82570618D01*
X204914632Y-82584700D01*
X204914633Y-82584700D01*
X205085367Y-82584700D01*
X205085368Y-82584700D01*
X205254001Y-82557991D01*
X205254004Y-82557990D01*
X205254005Y-82557990D01*
X205416377Y-82505232D01*
X205416377Y-82505231D01*
X205416380Y-82505231D01*
X205568507Y-82427719D01*
X205706635Y-82327363D01*
X205827363Y-82206635D01*
X205927719Y-82068507D01*
X206005231Y-81916380D01*
X206010248Y-81900940D01*
X206057990Y-81754005D01*
X206057990Y-81754004D01*
X206057991Y-81754001D01*
X206084700Y-81585368D01*
X206084700Y-81414632D01*
X206057991Y-81245999D01*
X206057990Y-81245995D01*
X206057990Y-81245994D01*
X206005232Y-81083622D01*
X206005230Y-81083619D01*
X206005197Y-81083554D01*
X205927719Y-80931493D01*
X205927710Y-80931481D01*
X205926681Y-80929801D01*
X205926481Y-80929065D01*
X205925507Y-80927152D01*
X205925908Y-80926947D01*
X205908430Y-80862357D01*
X205925851Y-80803023D01*
X205925507Y-80802848D01*
X205926442Y-80801012D01*
X205926681Y-80800199D01*
X205927706Y-80798523D01*
X205927719Y-80798507D01*
X206005231Y-80646380D01*
X206017890Y-80607419D01*
X206057990Y-80484005D01*
X206057990Y-80484004D01*
X206057991Y-80484001D01*
X206084700Y-80315368D01*
X206084700Y-80144632D01*
X206057991Y-79975999D01*
X206057990Y-79975995D01*
X206057990Y-79975994D01*
X206005232Y-79813622D01*
X206005230Y-79813619D01*
X206003170Y-79809575D01*
X205927719Y-79661493D01*
X205827363Y-79523365D01*
X205706635Y-79402637D01*
X205568507Y-79302281D01*
X205416380Y-79224769D01*
X205416377Y-79224767D01*
X205254004Y-79172009D01*
X205111892Y-79149501D01*
X205085368Y-79145300D01*
X204914632Y-79145300D01*
X204858421Y-79154203D01*
X204745997Y-79172009D01*
X204745994Y-79172009D01*
X204583622Y-79224767D01*
X204583619Y-79224769D01*
X204431493Y-79302280D01*
X204429788Y-79303326D01*
X204429051Y-79303525D01*
X204427152Y-79304493D01*
X204426948Y-79304093D01*
X204362341Y-79321568D01*
X204303022Y-79304151D01*
X204302848Y-79304493D01*
X204301027Y-79303565D01*
X204300212Y-79303326D01*
X204298506Y-79302280D01*
X204146380Y-79224769D01*
X204146377Y-79224767D01*
X203984004Y-79172009D01*
X203841892Y-79149501D01*
X203815368Y-79145300D01*
X203644632Y-79145300D01*
X203588421Y-79154203D01*
X203475997Y-79172009D01*
X203475994Y-79172009D01*
X203313622Y-79224767D01*
X203313619Y-79224769D01*
X203161493Y-79302280D01*
X203159788Y-79303326D01*
X203159051Y-79303525D01*
X203157152Y-79304493D01*
X203156948Y-79304093D01*
X203092341Y-79321568D01*
X203033022Y-79304151D01*
X203032848Y-79304493D01*
X203031027Y-79303565D01*
X203030212Y-79303326D01*
X203028506Y-79302280D01*
X202876380Y-79224769D01*
X202876377Y-79224767D01*
X202714004Y-79172009D01*
X202571892Y-79149501D01*
X202545368Y-79145300D01*
X202374632Y-79145300D01*
X202318421Y-79154203D01*
X202205997Y-79172009D01*
X202205994Y-79172009D01*
X202043622Y-79224767D01*
X202043619Y-79224769D01*
X201891493Y-79302280D01*
X201889788Y-79303326D01*
X201889051Y-79303525D01*
X201887152Y-79304493D01*
X201886948Y-79304093D01*
X201822341Y-79321568D01*
X201763022Y-79304151D01*
X201762848Y-79304493D01*
X201761027Y-79303565D01*
X201760212Y-79303326D01*
X201758506Y-79302280D01*
X201606380Y-79224769D01*
X201606377Y-79224767D01*
X201444004Y-79172009D01*
X201301892Y-79149501D01*
X201275368Y-79145300D01*
X201104632Y-79145300D01*
X201048421Y-79154203D01*
X200935997Y-79172009D01*
X200935994Y-79172009D01*
X200773622Y-79224767D01*
X200773619Y-79224769D01*
X200621493Y-79302280D01*
X200619788Y-79303326D01*
X200619051Y-79303525D01*
X200617152Y-79304493D01*
X200616948Y-79304093D01*
X200552341Y-79321568D01*
X200493022Y-79304151D01*
X200492848Y-79304493D01*
X200491027Y-79303565D01*
X200490212Y-79303326D01*
X200488506Y-79302280D01*
X200336380Y-79224769D01*
X200336377Y-79224767D01*
X200174004Y-79172009D01*
X200031892Y-79149501D01*
X200005368Y-79145300D01*
X199834632Y-79145300D01*
X199778421Y-79154203D01*
X199665997Y-79172009D01*
X199665994Y-79172009D01*
X199503622Y-79224767D01*
X199503619Y-79224769D01*
X199351493Y-79302280D01*
X199349788Y-79303326D01*
X199349051Y-79303525D01*
X199347152Y-79304493D01*
X199346948Y-79304093D01*
X199282341Y-79321568D01*
X199223022Y-79304151D01*
X199222848Y-79304493D01*
X199221027Y-79303565D01*
X199220212Y-79303326D01*
X199218506Y-79302280D01*
X199066380Y-79224769D01*
X199066377Y-79224767D01*
X198904004Y-79172009D01*
X198761892Y-79149501D01*
X198735368Y-79145300D01*
X198564632Y-79145300D01*
X198508421Y-79154203D01*
X198395997Y-79172009D01*
X198395994Y-79172009D01*
X198233622Y-79224767D01*
X198233619Y-79224769D01*
X198081493Y-79302280D01*
X198079788Y-79303326D01*
X198079051Y-79303525D01*
X198077152Y-79304493D01*
X198076948Y-79304093D01*
X198069533Y-79306099D01*
X198061190Y-79312673D01*
X198036390Y-79315063D01*
X198012341Y-79321568D01*
X198000376Y-79318535D01*
X197991642Y-79319377D01*
X197968826Y-79310537D01*
X197958279Y-79307864D01*
X197951129Y-79304186D01*
X197948507Y-79302281D01*
X197834443Y-79244163D01*
X197834136Y-79244005D01*
X197809034Y-79220113D01*
X197783766Y-79196248D01*
X197783705Y-79196005D01*
X197783526Y-79195834D01*
X197775315Y-79162123D01*
X197766971Y-79128427D01*
X197767051Y-79128191D01*
X197766992Y-79127949D01*
X197778300Y-79095180D01*
X197789508Y-79062292D01*
X197789749Y-79062005D01*
X197789785Y-79061902D01*
X197789937Y-79061781D01*
X197803170Y-79046063D01*
X199108506Y-77740728D01*
X199108511Y-77740724D01*
X199118714Y-77730520D01*
X199118716Y-77730520D01*
X199230520Y-77618716D01*
X199309577Y-77481784D01*
X199343416Y-77355494D01*
X199350500Y-77329058D01*
X199350500Y-77207955D01*
X199350756Y-77203980D01*
X199361422Y-77174750D01*
X199370185Y-77144909D01*
X199373296Y-77142213D01*
X199374708Y-77138344D01*
X199399484Y-77119520D01*
X199422989Y-77099154D01*
X199427064Y-77098568D01*
X199430343Y-77096077D01*
X199461352Y-77093637D01*
X199490453Y-77089453D01*
X199490468Y-77089311D01*
X199491038Y-77089369D01*
X199492147Y-77089210D01*
X199495701Y-77089845D01*
X199497200Y-77089998D01*
X199497203Y-77089999D01*
X199599991Y-77100500D01*
X200400008Y-77100499D01*
X200400016Y-77100498D01*
X200400019Y-77100498D01*
X200467183Y-77093637D01*
X200502797Y-77089999D01*
X200669334Y-77034814D01*
X200818656Y-76942712D01*
X200912319Y-76849049D01*
X200973642Y-76815564D01*
X201043334Y-76820548D01*
X201087681Y-76849049D01*
X201181344Y-76942712D01*
X201330666Y-77034814D01*
X201497203Y-77089999D01*
X201599991Y-77100500D01*
X202233740Y-77100499D01*
X202300779Y-77120183D01*
X202346534Y-77172987D01*
X202348301Y-77177046D01*
X202390604Y-77279176D01*
X202390609Y-77279185D01*
X202478210Y-77410288D01*
X202478213Y-77410292D01*
X202589707Y-77521786D01*
X202589711Y-77521789D01*
X202720814Y-77609390D01*
X202720827Y-77609397D01*
X202858683Y-77666498D01*
X202866503Y-77669737D01*
X203021153Y-77700499D01*
X203021156Y-77700500D01*
X203021158Y-77700500D01*
X203178844Y-77700500D01*
X203178845Y-77700499D01*
X203333497Y-77669737D01*
X203456674Y-77618716D01*
X203479172Y-77609397D01*
X203479172Y-77609396D01*
X203479179Y-77609394D01*
X203610289Y-77521789D01*
X203721789Y-77410289D01*
X203809394Y-77279179D01*
X203869737Y-77133497D01*
X203900500Y-76978842D01*
X203900500Y-76821158D01*
X203900500Y-76821155D01*
X203900499Y-76821153D01*
X203889627Y-76766498D01*
X203869737Y-76666503D01*
X203867346Y-76660730D01*
X203809397Y-76520827D01*
X203809390Y-76520814D01*
X203721789Y-76389711D01*
X203721786Y-76389707D01*
X203610292Y-76278213D01*
X203610288Y-76278210D01*
X203479185Y-76190609D01*
X203479172Y-76190602D01*
X203333501Y-76130264D01*
X203333491Y-76130261D01*
X203200307Y-76103769D01*
X203138396Y-76071384D01*
X203111975Y-76024986D01*
X204125001Y-76024986D01*
X204135494Y-76127697D01*
X204190641Y-76294119D01*
X204190643Y-76294124D01*
X204282684Y-76443345D01*
X204406654Y-76567315D01*
X204555875Y-76659356D01*
X204555880Y-76659358D01*
X204722302Y-76714505D01*
X204722309Y-76714506D01*
X204825019Y-76724999D01*
X204962499Y-76724999D01*
X204962500Y-76724998D01*
X204962500Y-75750000D01*
X204125001Y-75750000D01*
X204125001Y-76024986D01*
X203111975Y-76024986D01*
X203103822Y-76010668D01*
X203100499Y-75982152D01*
X203100499Y-75399998D01*
X203100498Y-75399981D01*
X203089999Y-75297203D01*
X203089998Y-75297200D01*
X203052408Y-75183762D01*
X203034814Y-75130666D01*
X202942712Y-74981344D01*
X202818656Y-74857288D01*
X202698076Y-74782914D01*
X202669336Y-74765187D01*
X202669331Y-74765185D01*
X202667348Y-74764528D01*
X202523025Y-74716704D01*
X202465582Y-74676932D01*
X202438759Y-74612417D01*
X202451074Y-74543641D01*
X202498617Y-74492441D01*
X202562031Y-74474999D01*
X202599971Y-74474999D01*
X202599987Y-74474998D01*
X202702697Y-74464505D01*
X202869119Y-74409358D01*
X202869124Y-74409356D01*
X203018345Y-74317315D01*
X203142318Y-74193342D01*
X203144165Y-74190348D01*
X203145969Y-74188724D01*
X203146798Y-74187677D01*
X203146976Y-74187818D01*
X203196110Y-74143621D01*
X203265073Y-74132396D01*
X203329156Y-74160236D01*
X203355243Y-74190341D01*
X203357288Y-74193656D01*
X203481344Y-74317712D01*
X203630666Y-74409814D01*
X203797203Y-74464999D01*
X203899991Y-74475500D01*
X204110567Y-74475499D01*
X204177605Y-74495183D01*
X204223360Y-74547987D01*
X204233304Y-74617145D01*
X204216105Y-74664595D01*
X204190645Y-74705871D01*
X204190641Y-74705880D01*
X204135494Y-74872302D01*
X204135493Y-74872309D01*
X204125000Y-74975013D01*
X204125000Y-75250000D01*
X205088500Y-75250000D01*
X205155539Y-75269685D01*
X205201294Y-75322489D01*
X205212500Y-75374000D01*
X205212500Y-75500000D01*
X205338500Y-75500000D01*
X205405539Y-75519685D01*
X205451294Y-75572489D01*
X205462500Y-75624000D01*
X205462500Y-76724999D01*
X205599972Y-76724999D01*
X205599986Y-76724998D01*
X205702697Y-76714505D01*
X205869119Y-76659358D01*
X205869124Y-76659356D01*
X206018345Y-76567315D01*
X206142318Y-76443342D01*
X206144165Y-76440348D01*
X206145969Y-76438724D01*
X206146798Y-76437677D01*
X206146976Y-76437818D01*
X206196110Y-76393621D01*
X206265073Y-76382396D01*
X206329156Y-76410236D01*
X206340236Y-76420704D01*
X206348725Y-76429774D01*
X206357288Y-76443656D01*
X206426523Y-76512891D01*
X206427928Y-76514392D01*
X206442763Y-76543833D01*
X206458564Y-76572770D01*
X206458585Y-76575234D01*
X206459369Y-76576788D01*
X206458660Y-76583550D01*
X206459015Y-76623319D01*
X206449500Y-76671153D01*
X206449500Y-76828846D01*
X206480261Y-76983489D01*
X206480263Y-76983497D01*
X206490061Y-77007151D01*
X206491687Y-77015328D01*
X206494477Y-77019669D01*
X206499500Y-77054604D01*
X206499500Y-77195396D01*
X206490062Y-77242844D01*
X206480263Y-77266503D01*
X206480262Y-77266506D01*
X206480260Y-77266511D01*
X206449500Y-77421153D01*
X206449500Y-77578846D01*
X206480261Y-77733489D01*
X206480263Y-77733497D01*
X206490061Y-77757151D01*
X206491687Y-77765328D01*
X206494477Y-77769669D01*
X206499500Y-77804604D01*
X206499500Y-77945396D01*
X206490062Y-77992844D01*
X206480263Y-78016503D01*
X206480262Y-78016506D01*
X206480260Y-78016511D01*
X206449500Y-78171153D01*
X206449500Y-78328846D01*
X206480261Y-78483489D01*
X206480264Y-78483501D01*
X206540602Y-78629172D01*
X206540609Y-78629185D01*
X206628210Y-78760288D01*
X206628213Y-78760292D01*
X206739707Y-78871786D01*
X206739711Y-78871789D01*
X206870814Y-78959390D01*
X206870827Y-78959397D01*
X207016498Y-79019735D01*
X207016503Y-79019737D01*
X207148822Y-79046057D01*
X207171153Y-79050499D01*
X207171156Y-79050500D01*
X207171158Y-79050500D01*
X207328844Y-79050500D01*
X207328845Y-79050499D01*
X207483497Y-79019737D01*
X207629179Y-78959394D01*
X207760289Y-78871789D01*
X207871789Y-78760289D01*
X207959394Y-78629179D01*
X207982263Y-78573967D01*
X208002861Y-78548406D01*
X208022512Y-78522155D01*
X208024660Y-78521353D01*
X208026101Y-78519566D01*
X208057243Y-78509200D01*
X208087976Y-78497737D01*
X208090217Y-78498224D01*
X208092395Y-78497500D01*
X208124183Y-78505612D01*
X208156249Y-78512588D01*
X208158698Y-78514421D01*
X208160094Y-78514778D01*
X208184503Y-78533739D01*
X208232284Y-78581520D01*
X208232285Y-78581520D01*
X208239353Y-78588588D01*
X209513181Y-79862416D01*
X209546666Y-79923739D01*
X209549500Y-79950097D01*
X209549500Y-80650001D01*
X209549501Y-80650019D01*
X209560000Y-80752796D01*
X209560001Y-80752799D01*
X209601768Y-80878842D01*
X209615186Y-80919334D01*
X209707288Y-81068656D01*
X209831344Y-81192712D01*
X209980666Y-81284814D01*
X210147203Y-81339999D01*
X210249991Y-81350500D01*
X211250008Y-81350499D01*
X211250016Y-81350498D01*
X211250019Y-81350498D01*
X211306302Y-81344748D01*
X211352797Y-81339999D01*
X211519334Y-81284814D01*
X211668656Y-81192712D01*
X211668664Y-81192703D01*
X211673085Y-81189209D01*
X211737879Y-81163066D01*
X211806522Y-81176103D01*
X211826915Y-81189209D01*
X211831339Y-81192707D01*
X211831344Y-81192712D01*
X211980666Y-81284814D01*
X212147203Y-81339999D01*
X212249991Y-81350500D01*
X213250008Y-81350499D01*
X213250016Y-81350498D01*
X213250019Y-81350498D01*
X213306302Y-81344748D01*
X213352797Y-81339999D01*
X213519334Y-81284814D01*
X213668656Y-81192712D01*
X213792712Y-81068656D01*
X213884814Y-80919334D01*
X213939999Y-80752797D01*
X213950500Y-80650009D01*
X213950499Y-79849992D01*
X213946783Y-79813619D01*
X213939999Y-79747203D01*
X213939998Y-79747200D01*
X213911597Y-79661492D01*
X213884814Y-79580666D01*
X213792712Y-79431344D01*
X213698695Y-79337327D01*
X213665210Y-79276004D01*
X213670194Y-79206312D01*
X213698695Y-79161964D01*
X213792317Y-79068342D01*
X213884356Y-78919124D01*
X213884358Y-78919119D01*
X213939505Y-78752697D01*
X213939506Y-78752690D01*
X213949999Y-78649986D01*
X213950000Y-78649973D01*
X213950000Y-78500000D01*
X212874000Y-78500000D01*
X212806961Y-78480315D01*
X212761206Y-78427511D01*
X212750000Y-78376000D01*
X212750000Y-78250000D01*
X212624000Y-78250000D01*
X212556961Y-78230315D01*
X212511206Y-78177511D01*
X212500000Y-78126000D01*
X212500000Y-78000000D01*
X213000000Y-78000000D01*
X213949999Y-78000000D01*
X213949999Y-77850028D01*
X213949998Y-77850013D01*
X213939505Y-77747302D01*
X213884358Y-77580880D01*
X213884356Y-77580875D01*
X213792315Y-77431654D01*
X213668345Y-77307684D01*
X213519124Y-77215643D01*
X213519119Y-77215641D01*
X213352697Y-77160494D01*
X213352690Y-77160493D01*
X213249986Y-77150000D01*
X213000000Y-77150000D01*
X213000000Y-78000000D01*
X212500000Y-78000000D01*
X212500000Y-77150000D01*
X212250029Y-77150000D01*
X212250012Y-77150001D01*
X212147302Y-77160494D01*
X211980880Y-77215641D01*
X211980875Y-77215643D01*
X211831649Y-77307687D01*
X211827305Y-77311122D01*
X211762507Y-77337255D01*
X211693866Y-77324207D01*
X211673497Y-77311116D01*
X211668660Y-77307292D01*
X211668656Y-77307288D01*
X211519334Y-77215186D01*
X211352797Y-77160001D01*
X211352795Y-77160000D01*
X211250016Y-77149500D01*
X211250009Y-77149500D01*
X210934500Y-77149500D01*
X210925814Y-77146949D01*
X210916853Y-77148238D01*
X210892812Y-77137259D01*
X210867461Y-77129815D01*
X210861533Y-77122974D01*
X210853297Y-77119213D01*
X210839007Y-77096978D01*
X210821706Y-77077011D01*
X210819418Y-77066496D01*
X210815523Y-77060435D01*
X210810500Y-77025500D01*
X210810500Y-76785718D01*
X210830185Y-76718679D01*
X210878207Y-76675233D01*
X210917815Y-76655052D01*
X210917815Y-76655051D01*
X210917816Y-76655051D01*
X211025915Y-76576513D01*
X211089786Y-76530109D01*
X211089788Y-76530106D01*
X211089792Y-76530104D01*
X211240104Y-76379792D01*
X211240106Y-76379788D01*
X211240109Y-76379786D01*
X211365048Y-76207820D01*
X211365047Y-76207820D01*
X211365051Y-76207816D01*
X211369514Y-76199054D01*
X211417488Y-76148259D01*
X211485308Y-76131463D01*
X211551444Y-76153999D01*
X211590486Y-76199056D01*
X211594951Y-76207820D01*
X211719890Y-76379786D01*
X211870213Y-76530109D01*
X212042179Y-76655048D01*
X212042181Y-76655049D01*
X212042184Y-76655051D01*
X212231588Y-76751557D01*
X212433757Y-76817246D01*
X212643713Y-76850500D01*
X212643714Y-76850500D01*
X212856286Y-76850500D01*
X212856287Y-76850500D01*
X213066243Y-76817246D01*
X213268412Y-76751557D01*
X213457816Y-76655051D01*
X213482349Y-76637227D01*
X213629786Y-76530109D01*
X213629788Y-76530106D01*
X213629792Y-76530104D01*
X213780104Y-76379792D01*
X213780106Y-76379788D01*
X213780109Y-76379786D01*
X213905048Y-76207820D01*
X213905047Y-76207820D01*
X213905051Y-76207816D01*
X214001557Y-76018412D01*
X214067246Y-75816243D01*
X214100500Y-75606287D01*
X214100500Y-75393713D01*
X214067246Y-75183757D01*
X214053506Y-75141473D01*
X214051512Y-75071635D01*
X214083755Y-75015478D01*
X214287820Y-74811414D01*
X214349142Y-74777930D01*
X214418834Y-74782914D01*
X214474767Y-74824786D01*
X214499184Y-74890250D01*
X214499500Y-74899096D01*
X214499500Y-81991323D01*
X214479815Y-82058362D01*
X214463181Y-82079004D01*
X211925244Y-84616940D01*
X211925245Y-84616941D01*
X211849500Y-84692686D01*
X211783608Y-84806812D01*
X211749500Y-84934108D01*
X211749500Y-94302691D01*
X211729815Y-94369730D01*
X211713181Y-94390372D01*
X210544251Y-95559301D01*
X210470412Y-95457670D01*
X210292330Y-95279588D01*
X210190698Y-95205748D01*
X211365027Y-94031418D01*
X211188362Y-93886432D01*
X211188348Y-93886422D01*
X210922855Y-93709025D01*
X210922837Y-93709014D01*
X210641237Y-93558495D01*
X210641232Y-93558493D01*
X210346213Y-93436292D01*
X210040628Y-93343594D01*
X210040617Y-93343591D01*
X209727455Y-93281301D01*
X209727438Y-93281298D01*
X209409659Y-93250000D01*
X209090341Y-93250000D01*
X208772561Y-93281298D01*
X208772544Y-93281301D01*
X208459382Y-93343591D01*
X208459371Y-93343594D01*
X208153786Y-93436292D01*
X207858767Y-93558493D01*
X207858762Y-93558495D01*
X207577162Y-93709014D01*
X207577144Y-93709025D01*
X207311651Y-93886422D01*
X207311650Y-93886423D01*
X207134971Y-94031418D01*
X208309301Y-95205748D01*
X208207670Y-95279588D01*
X208029588Y-95457670D01*
X207955748Y-95559301D01*
X206781418Y-94384971D01*
X206636423Y-94561650D01*
X206636422Y-94561651D01*
X206459025Y-94827144D01*
X206459014Y-94827162D01*
X206308495Y-95108762D01*
X206308493Y-95108767D01*
X206186292Y-95403786D01*
X206093594Y-95709371D01*
X206093591Y-95709382D01*
X206031301Y-96022544D01*
X206031298Y-96022561D01*
X206000000Y-96340341D01*
X206000000Y-96659658D01*
X206031298Y-96977438D01*
X206031301Y-96977455D01*
X206093591Y-97290617D01*
X206093594Y-97290628D01*
X206186292Y-97596213D01*
X206308493Y-97891232D01*
X206308495Y-97891237D01*
X206459014Y-98172837D01*
X206459025Y-98172855D01*
X206636422Y-98438348D01*
X206636432Y-98438362D01*
X206781418Y-98615027D01*
X207955747Y-97440697D01*
X208029588Y-97542330D01*
X208207670Y-97720412D01*
X208309301Y-97794251D01*
X207140372Y-98963181D01*
X207079049Y-98996666D01*
X207052691Y-98999500D01*
X175697308Y-98999500D01*
X175630269Y-98979815D01*
X175609627Y-98963181D01*
X174440698Y-97794252D01*
X174542330Y-97720412D01*
X174720412Y-97542330D01*
X174794251Y-97440698D01*
X175968580Y-98615027D01*
X175968581Y-98615026D01*
X176113567Y-98438361D01*
X176113577Y-98438348D01*
X176290974Y-98172855D01*
X176290985Y-98172837D01*
X176441504Y-97891237D01*
X176441506Y-97891232D01*
X176563707Y-97596213D01*
X176656405Y-97290628D01*
X176656408Y-97290617D01*
X176718698Y-96977455D01*
X176718701Y-96977438D01*
X176750000Y-96659658D01*
X176750000Y-96340341D01*
X176718701Y-96022561D01*
X176718698Y-96022544D01*
X176656408Y-95709382D01*
X176656405Y-95709371D01*
X176563707Y-95403786D01*
X176441506Y-95108767D01*
X176441504Y-95108762D01*
X176290985Y-94827162D01*
X176290974Y-94827144D01*
X176113577Y-94561651D01*
X176113567Y-94561637D01*
X175968581Y-94384972D01*
X175968580Y-94384971D01*
X174794251Y-95559300D01*
X174720412Y-95457670D01*
X174542330Y-95279588D01*
X174440698Y-95205748D01*
X175615027Y-94031418D01*
X175438362Y-93886432D01*
X175438348Y-93886422D01*
X175172855Y-93709025D01*
X175172837Y-93709014D01*
X174891237Y-93558495D01*
X174891232Y-93558493D01*
X174596213Y-93436292D01*
X174290628Y-93343594D01*
X174290617Y-93343591D01*
X173977455Y-93281301D01*
X173977438Y-93281298D01*
X173659659Y-93250000D01*
X173340341Y-93250000D01*
X173022561Y-93281298D01*
X173022544Y-93281301D01*
X172709382Y-93343591D01*
X172709371Y-93343594D01*
X172403786Y-93436292D01*
X172108767Y-93558493D01*
X172108762Y-93558495D01*
X171827162Y-93709014D01*
X171827144Y-93709025D01*
X171561651Y-93886422D01*
X171561650Y-93886423D01*
X171384971Y-94031418D01*
X172559301Y-95205748D01*
X172457670Y-95279588D01*
X172279588Y-95457670D01*
X172205747Y-95559301D01*
X171036819Y-94390373D01*
X171022115Y-94363445D01*
X171005523Y-94337627D01*
X171004631Y-94331426D01*
X171003334Y-94329050D01*
X171000500Y-94302692D01*
X171000500Y-48697307D01*
X171020185Y-48630268D01*
X171036819Y-48609626D01*
X172205747Y-47440697D01*
X172279588Y-47542330D01*
X172457670Y-47720412D01*
X172559301Y-47794251D01*
X171384971Y-48968580D01*
X171384972Y-48968581D01*
X171561637Y-49113567D01*
X171561651Y-49113577D01*
X171827144Y-49290974D01*
X171827162Y-49290985D01*
X172108762Y-49441504D01*
X172108767Y-49441506D01*
X172403786Y-49563707D01*
X172709371Y-49656405D01*
X172709382Y-49656408D01*
X173022544Y-49718698D01*
X173022561Y-49718701D01*
X173340341Y-49750000D01*
X173659659Y-49750000D01*
X173977438Y-49718701D01*
X173977455Y-49718698D01*
X174290617Y-49656408D01*
X174290628Y-49656405D01*
X174596213Y-49563707D01*
X174891232Y-49441506D01*
X174891237Y-49441504D01*
X175172837Y-49290985D01*
X175172855Y-49290974D01*
X175438348Y-49113577D01*
X175438361Y-49113567D01*
X175615026Y-48968581D01*
X175615027Y-48968580D01*
X174440698Y-47794251D01*
X174542330Y-47720412D01*
X174720412Y-47542330D01*
X174794251Y-47440698D01*
X175968580Y-48615027D01*
X175968581Y-48615026D01*
X176113567Y-48438361D01*
X176113577Y-48438348D01*
X176290974Y-48172855D01*
X176290985Y-48172837D01*
X176441504Y-47891237D01*
X176441506Y-47891232D01*
X176563707Y-47596213D01*
X176656405Y-47290628D01*
X176656408Y-47290617D01*
X176718698Y-46977455D01*
X176718701Y-46977438D01*
X176750000Y-46659658D01*
X176750000Y-46340341D01*
X176718701Y-46022561D01*
X176718698Y-46022544D01*
X176656408Y-45709382D01*
X176656405Y-45709371D01*
X176563707Y-45403786D01*
X176441506Y-45108767D01*
X176441504Y-45108762D01*
X176290985Y-44827162D01*
X176290974Y-44827144D01*
X176113577Y-44561651D01*
X176113567Y-44561637D01*
X175968581Y-44384972D01*
X175968580Y-44384971D01*
X174794251Y-45559300D01*
X174720412Y-45457670D01*
X174542330Y-45279588D01*
X174440697Y-45205747D01*
X175609626Y-44036819D01*
X175670949Y-44003334D01*
X175697307Y-44000500D01*
X178714386Y-44000500D01*
X178781425Y-44020185D01*
G37*
%TD.AperFunction*%
%TA.AperFunction,Conductor*%
G36*
X184718233Y-70014319D02*
G01*
X184774167Y-70056190D01*
X184798584Y-70121655D01*
X184798900Y-70130500D01*
X184798900Y-70287269D01*
X184798901Y-70287276D01*
X184805308Y-70346883D01*
X184855602Y-70481728D01*
X184855604Y-70481731D01*
X184881294Y-70516049D01*
X184885079Y-70521104D01*
X184909497Y-70586568D01*
X184894646Y-70654841D01*
X184885080Y-70669726D01*
X184856049Y-70708506D01*
X184856045Y-70708513D01*
X184805803Y-70843220D01*
X184805801Y-70843227D01*
X184799400Y-70902755D01*
X184799400Y-70980000D01*
X186166000Y-70980000D01*
X186233039Y-70999685D01*
X186278794Y-71052489D01*
X186290000Y-71104000D01*
X186290000Y-71356000D01*
X186270315Y-71423039D01*
X186217511Y-71468794D01*
X186166000Y-71480000D01*
X184799400Y-71480000D01*
X184799400Y-71557244D01*
X184805801Y-71616772D01*
X184805803Y-71616779D01*
X184856045Y-71751486D01*
X184856046Y-71751488D01*
X184885080Y-71790273D01*
X184909496Y-71855738D01*
X184894644Y-71924011D01*
X184885080Y-71938892D01*
X184855605Y-71978265D01*
X184855602Y-71978271D01*
X184805310Y-72113113D01*
X184805309Y-72113117D01*
X184798900Y-72172727D01*
X184798900Y-72172734D01*
X184798900Y-72172735D01*
X184798900Y-72827270D01*
X184798901Y-72827276D01*
X184805308Y-72886883D01*
X184855602Y-73021728D01*
X184855603Y-73021730D01*
X184884768Y-73060690D01*
X184909184Y-73126155D01*
X184894332Y-73194428D01*
X184884768Y-73209310D01*
X184855603Y-73248269D01*
X184855602Y-73248271D01*
X184807345Y-73377658D01*
X184805309Y-73383117D01*
X184798900Y-73442727D01*
X184798900Y-73442734D01*
X184798900Y-73442735D01*
X184798900Y-74097270D01*
X184798901Y-74097276D01*
X184805308Y-74156883D01*
X184855602Y-74291728D01*
X184855603Y-74291730D01*
X184884768Y-74330690D01*
X184909184Y-74396155D01*
X184894332Y-74464428D01*
X184884768Y-74479310D01*
X184855603Y-74518269D01*
X184855602Y-74518271D01*
X184805310Y-74653113D01*
X184805309Y-74653117D01*
X184798900Y-74712727D01*
X184798900Y-74712734D01*
X184798900Y-74712735D01*
X184798900Y-75367270D01*
X184798901Y-75367276D01*
X184805308Y-75426883D01*
X184855602Y-75561728D01*
X184855603Y-75561730D01*
X184884768Y-75600690D01*
X184909184Y-75666155D01*
X184894332Y-75734428D01*
X184884768Y-75749310D01*
X184855603Y-75788269D01*
X184855602Y-75788271D01*
X184805310Y-75923113D01*
X184805309Y-75923117D01*
X184798900Y-75982727D01*
X184798900Y-75982734D01*
X184798900Y-75982735D01*
X184798900Y-76637270D01*
X184798901Y-76637276D01*
X184805308Y-76696883D01*
X184855602Y-76831728D01*
X184855606Y-76831735D01*
X184941852Y-76946944D01*
X184941855Y-76946947D01*
X185057064Y-77033193D01*
X185057071Y-77033197D01*
X185191917Y-77083491D01*
X185191916Y-77083491D01*
X185198844Y-77084235D01*
X185251527Y-77089900D01*
X187328472Y-77089899D01*
X187388083Y-77083491D01*
X187522931Y-77033196D01*
X187638146Y-76946946D01*
X187642104Y-76941658D01*
X187698034Y-76899787D01*
X187767726Y-76894801D01*
X187829047Y-76928282D01*
X187829052Y-76928287D01*
X188113181Y-77212416D01*
X188127884Y-77239343D01*
X188144477Y-77265162D01*
X188145368Y-77271362D01*
X188146666Y-77273739D01*
X188149500Y-77300097D01*
X188149500Y-77320234D01*
X188129815Y-77387273D01*
X188128602Y-77389125D01*
X188040609Y-77520814D01*
X188040602Y-77520827D01*
X187980264Y-77666498D01*
X187980261Y-77666508D01*
X187953769Y-77799692D01*
X187921384Y-77861603D01*
X187860668Y-77896177D01*
X187832152Y-77899500D01*
X181050097Y-77899500D01*
X181020656Y-77890855D01*
X180990670Y-77884332D01*
X180985654Y-77880577D01*
X180983058Y-77879815D01*
X180962416Y-77863181D01*
X180811416Y-77712181D01*
X180777931Y-77650858D01*
X180782915Y-77581166D01*
X180824787Y-77525233D01*
X180890251Y-77500816D01*
X180899097Y-77500500D01*
X180908543Y-77500500D01*
X181062567Y-77469862D01*
X181101835Y-77462051D01*
X181276481Y-77389711D01*
X181283907Y-77386635D01*
X181283907Y-77386634D01*
X181283914Y-77386632D01*
X181370079Y-77329058D01*
X181376109Y-77325029D01*
X181442786Y-77304151D01*
X181510166Y-77322635D01*
X181513891Y-77325029D01*
X181605426Y-77386191D01*
X181606086Y-77386632D01*
X181606088Y-77386633D01*
X181606092Y-77386635D01*
X181747956Y-77445396D01*
X181788165Y-77462051D01*
X181788169Y-77462051D01*
X181788170Y-77462052D01*
X181981456Y-77500500D01*
X181981459Y-77500500D01*
X182178543Y-77500500D01*
X182332567Y-77469862D01*
X182371835Y-77462051D01*
X182546481Y-77389711D01*
X182553907Y-77386635D01*
X182553907Y-77386634D01*
X182553914Y-77386632D01*
X182717782Y-77277139D01*
X182857139Y-77137782D01*
X182966632Y-76973914D01*
X183042051Y-76791835D01*
X183060960Y-76696776D01*
X183080500Y-76598543D01*
X183080500Y-76401456D01*
X183042052Y-76208170D01*
X183042051Y-76208169D01*
X183042051Y-76208165D01*
X183041908Y-76207820D01*
X182966635Y-76026092D01*
X182966628Y-76026079D01*
X182857139Y-75862218D01*
X182857136Y-75862214D01*
X182717782Y-75722860D01*
X182674719Y-75694087D01*
X182629914Y-75640475D01*
X182621207Y-75571150D01*
X182651361Y-75508123D01*
X182655910Y-75503323D01*
X183898506Y-74260728D01*
X183898511Y-74260724D01*
X183908714Y-74250520D01*
X183908716Y-74250520D01*
X184020520Y-74138716D01*
X184077665Y-74039737D01*
X184099577Y-74001785D01*
X184140501Y-73849057D01*
X184140501Y-73690943D01*
X184140501Y-73683348D01*
X184140500Y-73683330D01*
X184140500Y-70540902D01*
X184160185Y-70473863D01*
X184176815Y-70453225D01*
X184587221Y-70042818D01*
X184648542Y-70009335D01*
X184718233Y-70014319D01*
G37*
%TD.AperFunction*%
%TA.AperFunction,Conductor*%
G36*
X193748234Y-69743513D02*
G01*
X193804167Y-69785385D01*
X193828584Y-69850849D01*
X193828900Y-69859695D01*
X193828900Y-70287270D01*
X193828901Y-70287276D01*
X193835308Y-70346883D01*
X193885602Y-70481728D01*
X193885603Y-70481730D01*
X193914768Y-70520690D01*
X193939184Y-70586155D01*
X193924332Y-70654428D01*
X193914768Y-70669310D01*
X193885603Y-70708269D01*
X193885602Y-70708271D01*
X193835310Y-70843113D01*
X193835309Y-70843117D01*
X193828900Y-70902727D01*
X193828900Y-70902734D01*
X193828900Y-70902735D01*
X193828900Y-71557270D01*
X193828901Y-71557276D01*
X193835308Y-71616883D01*
X193885602Y-71751728D01*
X193885603Y-71751730D01*
X193914768Y-71790690D01*
X193939184Y-71856155D01*
X193924332Y-71924428D01*
X193914768Y-71939310D01*
X193885603Y-71978269D01*
X193885602Y-71978271D01*
X193835310Y-72113113D01*
X193835309Y-72113117D01*
X193828900Y-72172727D01*
X193828900Y-72172734D01*
X193828900Y-72172735D01*
X193828900Y-72827270D01*
X193828901Y-72827276D01*
X193835308Y-72886883D01*
X193885602Y-73021728D01*
X193885604Y-73021731D01*
X193907140Y-73050500D01*
X193915079Y-73061104D01*
X193939497Y-73126568D01*
X193924646Y-73194841D01*
X193915080Y-73209726D01*
X193886049Y-73248506D01*
X193886045Y-73248513D01*
X193835803Y-73383220D01*
X193835801Y-73383227D01*
X193829400Y-73442755D01*
X193829400Y-73520000D01*
X196810600Y-73520000D01*
X196810600Y-73459197D01*
X196816838Y-73437951D01*
X196818418Y-73415863D01*
X196826490Y-73405079D01*
X196830285Y-73392158D01*
X196847018Y-73377658D01*
X196860290Y-73359930D01*
X196872910Y-73355222D01*
X196883089Y-73346403D01*
X196905006Y-73343251D01*
X196925754Y-73335513D01*
X196938914Y-73338375D01*
X196952247Y-73336459D01*
X196972390Y-73345658D01*
X196994027Y-73350365D01*
X197011752Y-73363633D01*
X197015803Y-73365484D01*
X197022281Y-73371516D01*
X197165425Y-73514660D01*
X197198910Y-73575983D01*
X197199361Y-73578149D01*
X197230261Y-73733491D01*
X197230264Y-73733501D01*
X197290602Y-73879172D01*
X197290609Y-73879185D01*
X197378210Y-74010288D01*
X197378213Y-74010292D01*
X197489708Y-74121787D01*
X197489711Y-74121789D01*
X197537482Y-74153709D01*
X197582286Y-74207319D01*
X197590995Y-74276644D01*
X197569360Y-74329071D01*
X197563446Y-74337317D01*
X197519480Y-74381284D01*
X197471148Y-74464999D01*
X197468097Y-74470282D01*
X197468090Y-74470293D01*
X197440423Y-74518214D01*
X197440423Y-74518215D01*
X197399499Y-74670943D01*
X197399499Y-74670945D01*
X197399499Y-74839046D01*
X197399500Y-74839059D01*
X197399500Y-76449902D01*
X197379815Y-76516941D01*
X197363181Y-76537583D01*
X196969448Y-76931315D01*
X196908125Y-76964800D01*
X196838433Y-76959816D01*
X196782500Y-76917944D01*
X196758083Y-76852480D01*
X196765585Y-76800300D01*
X196804197Y-76696776D01*
X196804198Y-76696772D01*
X196810599Y-76637244D01*
X196810600Y-76637227D01*
X196810600Y-76560000D01*
X195570000Y-76560000D01*
X195570000Y-77089400D01*
X196358428Y-77089400D01*
X196358444Y-77089399D01*
X196417972Y-77082998D01*
X196417976Y-77082997D01*
X196521501Y-77044385D01*
X196591193Y-77039401D01*
X196652516Y-77072886D01*
X196686001Y-77134209D01*
X196681017Y-77203901D01*
X196652516Y-77248248D01*
X196037584Y-77863181D01*
X195976261Y-77896666D01*
X195949903Y-77899500D01*
X192712000Y-77899500D01*
X192644961Y-77879815D01*
X192599206Y-77827011D01*
X192588000Y-77775500D01*
X192588000Y-77671155D01*
X192587999Y-77671153D01*
X192557239Y-77516511D01*
X192557238Y-77516508D01*
X192557237Y-77516503D01*
X192547437Y-77492844D01*
X192545811Y-77484670D01*
X192543023Y-77480331D01*
X192538000Y-77445396D01*
X192538000Y-77304604D01*
X192547439Y-77257151D01*
X192549020Y-77253334D01*
X192557237Y-77233497D01*
X192588000Y-77078842D01*
X192588000Y-76921158D01*
X192588000Y-76921155D01*
X192587999Y-76921153D01*
X192582757Y-76894801D01*
X192557237Y-76766503D01*
X192542190Y-76730176D01*
X192503697Y-76637244D01*
X193829400Y-76637244D01*
X193835801Y-76696772D01*
X193835803Y-76696779D01*
X193886045Y-76831486D01*
X193886049Y-76831493D01*
X193972209Y-76946587D01*
X193972212Y-76946590D01*
X194087306Y-77032750D01*
X194087313Y-77032754D01*
X194222020Y-77082996D01*
X194222027Y-77082998D01*
X194281555Y-77089399D01*
X194281572Y-77089400D01*
X195070000Y-77089400D01*
X195070000Y-76560000D01*
X193829400Y-76560000D01*
X193829400Y-76637244D01*
X192503697Y-76637244D01*
X192496897Y-76620827D01*
X192496890Y-76620814D01*
X192467968Y-76577529D01*
X192409289Y-76489711D01*
X192409286Y-76489707D01*
X192297792Y-76378213D01*
X192297788Y-76378210D01*
X192166685Y-76290609D01*
X192166675Y-76290604D01*
X192143023Y-76280807D01*
X192102795Y-76253927D01*
X191216112Y-75367244D01*
X193829400Y-75367244D01*
X193835801Y-75426772D01*
X193835803Y-75426779D01*
X193886045Y-75561486D01*
X193886047Y-75561489D01*
X193915392Y-75600689D01*
X193939809Y-75666154D01*
X193924957Y-75734426D01*
X193915392Y-75749311D01*
X193886047Y-75788510D01*
X193886045Y-75788513D01*
X193835803Y-75923220D01*
X193835801Y-75923227D01*
X193829400Y-75982755D01*
X193829400Y-76060000D01*
X195070000Y-76060000D01*
X195570000Y-76060000D01*
X196810600Y-76060000D01*
X196810600Y-75982772D01*
X196810599Y-75982755D01*
X196804198Y-75923227D01*
X196804197Y-75923223D01*
X196753952Y-75788511D01*
X196753951Y-75788510D01*
X196724607Y-75749312D01*
X196700189Y-75683848D01*
X196715040Y-75615575D01*
X196724607Y-75600688D01*
X196753951Y-75561489D01*
X196753952Y-75561488D01*
X196804197Y-75426776D01*
X196804198Y-75426772D01*
X196810599Y-75367244D01*
X196810600Y-75367227D01*
X196810600Y-75290000D01*
X195570000Y-75290000D01*
X195570000Y-76060000D01*
X195070000Y-76060000D01*
X195070000Y-75290000D01*
X193829400Y-75290000D01*
X193829400Y-75367244D01*
X191216112Y-75367244D01*
X189946112Y-74097244D01*
X193829400Y-74097244D01*
X193835801Y-74156772D01*
X193835803Y-74156779D01*
X193886045Y-74291486D01*
X193886047Y-74291489D01*
X193915392Y-74330689D01*
X193939809Y-74396154D01*
X193924957Y-74464426D01*
X193915392Y-74479311D01*
X193886047Y-74518510D01*
X193886045Y-74518513D01*
X193835803Y-74653220D01*
X193835801Y-74653227D01*
X193829400Y-74712755D01*
X193829400Y-74790000D01*
X195070000Y-74790000D01*
X195570000Y-74790000D01*
X196810600Y-74790000D01*
X196810600Y-74712772D01*
X196810599Y-74712755D01*
X196804198Y-74653227D01*
X196804197Y-74653223D01*
X196753952Y-74518511D01*
X196753951Y-74518510D01*
X196724607Y-74479312D01*
X196700189Y-74413848D01*
X196715040Y-74345575D01*
X196724607Y-74330688D01*
X196753951Y-74291489D01*
X196753952Y-74291488D01*
X196804197Y-74156776D01*
X196804198Y-74156772D01*
X196810599Y-74097244D01*
X196810600Y-74097227D01*
X196810600Y-74020000D01*
X195570000Y-74020000D01*
X195570000Y-74790000D01*
X195070000Y-74790000D01*
X195070000Y-74020000D01*
X193829400Y-74020000D01*
X193829400Y-74097244D01*
X189946112Y-74097244D01*
X189848154Y-73999286D01*
X189814669Y-73937963D01*
X189819653Y-73868271D01*
X189848155Y-73823923D01*
X189891786Y-73780292D01*
X189891789Y-73780289D01*
X189979394Y-73649179D01*
X190039737Y-73503497D01*
X190067558Y-73363633D01*
X190070638Y-73348150D01*
X190103023Y-73286239D01*
X190104519Y-73284715D01*
X193617221Y-69772012D01*
X193678542Y-69738529D01*
X193748234Y-69743513D01*
G37*
%TD.AperFunction*%
%TA.AperFunction,Conductor*%
G36*
X177230000Y-73969862D02*
G01*
X177271690Y-73961569D01*
X177271692Y-73961569D01*
X177453673Y-73886191D01*
X177453676Y-73886189D01*
X177476608Y-73870867D01*
X177543285Y-73849988D01*
X177610665Y-73868472D01*
X177657356Y-73920450D01*
X177669500Y-73973968D01*
X177669500Y-75512666D01*
X177649815Y-75579705D01*
X177597011Y-75625460D01*
X177527853Y-75635404D01*
X177476616Y-75615773D01*
X177473685Y-75613815D01*
X177473671Y-75613807D01*
X177291691Y-75538429D01*
X177291683Y-75538427D01*
X177250000Y-75530135D01*
X177250000Y-76290382D01*
X177199554Y-76239936D01*
X177125445Y-76197149D01*
X177042787Y-76175000D01*
X176957213Y-76175000D01*
X176874555Y-76197149D01*
X176800446Y-76239936D01*
X176750000Y-76290382D01*
X176750000Y-75530136D01*
X176749999Y-75530135D01*
X176708316Y-75538427D01*
X176606339Y-75580666D01*
X176536870Y-75588133D01*
X176484578Y-75565372D01*
X176472330Y-75556203D01*
X176472328Y-75556202D01*
X176337482Y-75505908D01*
X176337483Y-75505908D01*
X176277883Y-75499501D01*
X176277881Y-75499500D01*
X176277873Y-75499500D01*
X176277864Y-75499500D01*
X175182129Y-75499500D01*
X175182123Y-75499501D01*
X175122516Y-75505908D01*
X174987671Y-75556202D01*
X174987664Y-75556206D01*
X174872457Y-75642451D01*
X174872451Y-75642457D01*
X174829515Y-75699812D01*
X174773581Y-75741682D01*
X174730249Y-75749500D01*
X173624500Y-75749500D01*
X173557461Y-75729815D01*
X173511706Y-75677011D01*
X173500500Y-75625500D01*
X173500500Y-74112229D01*
X173520185Y-74045190D01*
X173536819Y-74024548D01*
X173774548Y-73786819D01*
X173835871Y-73753334D01*
X173862229Y-73750500D01*
X174710249Y-73750500D01*
X174777288Y-73770185D01*
X174809515Y-73800188D01*
X174846097Y-73849054D01*
X174852454Y-73857546D01*
X174852457Y-73857548D01*
X174967664Y-73943793D01*
X174967671Y-73943797D01*
X175102517Y-73994091D01*
X175102516Y-73994091D01*
X175109444Y-73994835D01*
X175162127Y-74000500D01*
X176257872Y-74000499D01*
X176317483Y-73994091D01*
X176452331Y-73943796D01*
X176464575Y-73934629D01*
X176530035Y-73910210D01*
X176586339Y-73919333D01*
X176688308Y-73961569D01*
X176730000Y-73969862D01*
X176730000Y-73209618D01*
X176780446Y-73260064D01*
X176854555Y-73302851D01*
X176937213Y-73325000D01*
X177022787Y-73325000D01*
X177105445Y-73302851D01*
X177179554Y-73260064D01*
X177230000Y-73209618D01*
X177230000Y-73969862D01*
G37*
%TD.AperFunction*%
%TA.AperFunction,Conductor*%
G36*
X177250000Y-70469862D02*
G01*
X177291690Y-70461569D01*
X177291692Y-70461569D01*
X177478048Y-70384379D01*
X177547517Y-70376910D01*
X177609996Y-70408185D01*
X177645648Y-70468274D01*
X177649500Y-70498940D01*
X177649500Y-72012666D01*
X177629815Y-72079705D01*
X177577011Y-72125460D01*
X177507853Y-72135404D01*
X177456616Y-72115773D01*
X177453685Y-72113815D01*
X177453671Y-72113807D01*
X177271691Y-72038429D01*
X177271683Y-72038427D01*
X177230000Y-72030135D01*
X177230000Y-72790382D01*
X177179554Y-72739936D01*
X177105445Y-72697149D01*
X177022787Y-72675000D01*
X176937213Y-72675000D01*
X176854555Y-72697149D01*
X176780446Y-72739936D01*
X176730000Y-72790382D01*
X176730000Y-72030136D01*
X176729999Y-72030135D01*
X176688316Y-72038427D01*
X176586339Y-72080666D01*
X176516870Y-72088133D01*
X176464578Y-72065372D01*
X176452330Y-72056203D01*
X176452328Y-72056202D01*
X176317482Y-72005908D01*
X176317483Y-72005908D01*
X176257883Y-71999501D01*
X176257881Y-71999500D01*
X176257873Y-71999500D01*
X176257864Y-71999500D01*
X175162129Y-71999500D01*
X175162123Y-71999501D01*
X175102516Y-72005908D01*
X174967671Y-72056202D01*
X174967664Y-72056206D01*
X174852457Y-72142451D01*
X174852451Y-72142457D01*
X174809515Y-72199812D01*
X174753581Y-72241682D01*
X174710249Y-72249500D01*
X173624500Y-72249500D01*
X173557461Y-72229815D01*
X173511706Y-72177011D01*
X173500500Y-72125500D01*
X173500500Y-70612229D01*
X173520185Y-70545190D01*
X173536819Y-70524548D01*
X173774548Y-70286819D01*
X173835871Y-70253334D01*
X173862229Y-70250500D01*
X174730249Y-70250500D01*
X174797288Y-70270185D01*
X174829515Y-70300188D01*
X174860921Y-70342140D01*
X174872454Y-70357546D01*
X174872457Y-70357548D01*
X174987664Y-70443793D01*
X174987671Y-70443797D01*
X175122517Y-70494091D01*
X175122516Y-70494091D01*
X175129444Y-70494835D01*
X175182127Y-70500500D01*
X176277872Y-70500499D01*
X176337483Y-70494091D01*
X176472331Y-70443796D01*
X176484575Y-70434629D01*
X176550035Y-70410210D01*
X176606339Y-70419333D01*
X176708308Y-70461569D01*
X176750000Y-70469862D01*
X176750000Y-69709618D01*
X176800446Y-69760064D01*
X176874555Y-69802851D01*
X176957213Y-69825000D01*
X177042787Y-69825000D01*
X177125445Y-69802851D01*
X177199554Y-69760064D01*
X177250000Y-69709618D01*
X177250000Y-70469862D01*
G37*
%TD.AperFunction*%
%TA.AperFunction,Conductor*%
G36*
X177250000Y-66969862D02*
G01*
X177291690Y-66961569D01*
X177291692Y-66961569D01*
X177478048Y-66884379D01*
X177547517Y-66876910D01*
X177609996Y-66908185D01*
X177645648Y-66968274D01*
X177649500Y-66998940D01*
X177649500Y-68501059D01*
X177629815Y-68568098D01*
X177577011Y-68613853D01*
X177507853Y-68623797D01*
X177478048Y-68615620D01*
X177291691Y-68538429D01*
X177291683Y-68538427D01*
X177250000Y-68530135D01*
X177250000Y-69290382D01*
X177199554Y-69239936D01*
X177125445Y-69197149D01*
X177042787Y-69175000D01*
X176957213Y-69175000D01*
X176874555Y-69197149D01*
X176800446Y-69239936D01*
X176750000Y-69290382D01*
X176750000Y-68530136D01*
X176749999Y-68530135D01*
X176708316Y-68538427D01*
X176606339Y-68580666D01*
X176536870Y-68588133D01*
X176484578Y-68565372D01*
X176472330Y-68556203D01*
X176472328Y-68556202D01*
X176337482Y-68505908D01*
X176337483Y-68505908D01*
X176277883Y-68499501D01*
X176277881Y-68499500D01*
X176277873Y-68499500D01*
X176277864Y-68499500D01*
X175182129Y-68499500D01*
X175182123Y-68499501D01*
X175122516Y-68505908D01*
X174987671Y-68556202D01*
X174987664Y-68556206D01*
X174872457Y-68642451D01*
X174872451Y-68642457D01*
X174829515Y-68699812D01*
X174773581Y-68741682D01*
X174730249Y-68749500D01*
X173624500Y-68749500D01*
X173557461Y-68729815D01*
X173511706Y-68677011D01*
X173500500Y-68625500D01*
X173500500Y-67112229D01*
X173520185Y-67045190D01*
X173536819Y-67024548D01*
X173774548Y-66786819D01*
X173835871Y-66753334D01*
X173862229Y-66750500D01*
X174730249Y-66750500D01*
X174797288Y-66770185D01*
X174829515Y-66800188D01*
X174850114Y-66827704D01*
X174872454Y-66857546D01*
X174898321Y-66876910D01*
X174987664Y-66943793D01*
X174987671Y-66943797D01*
X175122517Y-66994091D01*
X175122516Y-66994091D01*
X175129444Y-66994835D01*
X175182127Y-67000500D01*
X176277872Y-67000499D01*
X176337483Y-66994091D01*
X176472331Y-66943796D01*
X176484575Y-66934629D01*
X176550035Y-66910210D01*
X176606339Y-66919333D01*
X176708308Y-66961569D01*
X176750000Y-66969862D01*
X176750000Y-66209618D01*
X176800446Y-66260064D01*
X176874555Y-66302851D01*
X176957213Y-66325000D01*
X177042787Y-66325000D01*
X177125445Y-66302851D01*
X177199554Y-66260064D01*
X177250000Y-66209618D01*
X177250000Y-66969862D01*
G37*
%TD.AperFunction*%
%TA.AperFunction,Conductor*%
G36*
X208982944Y-59174311D02*
G01*
X209011161Y-59173154D01*
X209017331Y-59176770D01*
X209024465Y-59177281D01*
X209047072Y-59194204D01*
X209071438Y-59208487D01*
X209074673Y-59214865D01*
X209080399Y-59219152D01*
X209090268Y-59245614D01*
X209103043Y-59270800D01*
X209103460Y-59280983D01*
X209104816Y-59284617D01*
X209104490Y-59306064D01*
X209100000Y-59350009D01*
X209100000Y-59500000D01*
X210176000Y-59500000D01*
X210243039Y-59519685D01*
X210288794Y-59572489D01*
X210300000Y-59624000D01*
X210300000Y-59750000D01*
X210426000Y-59750000D01*
X210493039Y-59769685D01*
X210538794Y-59822489D01*
X210550000Y-59874000D01*
X210550000Y-60849999D01*
X210799972Y-60849999D01*
X210799986Y-60849998D01*
X210902697Y-60839505D01*
X211069119Y-60784358D01*
X211069124Y-60784356D01*
X211218342Y-60692317D01*
X211311964Y-60598695D01*
X211373287Y-60565210D01*
X211442979Y-60570194D01*
X211487327Y-60598695D01*
X211581344Y-60692712D01*
X211730666Y-60784814D01*
X211897203Y-60839999D01*
X211999991Y-60850500D01*
X212699901Y-60850499D01*
X212766940Y-60870183D01*
X212787582Y-60886818D01*
X213173372Y-61272608D01*
X213206857Y-61333930D01*
X213201873Y-61403621D01*
X213160002Y-61459555D01*
X213094537Y-61483972D01*
X213066294Y-61482761D01*
X212856287Y-61449500D01*
X212643713Y-61449500D01*
X212597099Y-61456883D01*
X212433760Y-61482753D01*
X212231585Y-61548444D01*
X212042179Y-61644951D01*
X211870215Y-61769889D01*
X211756673Y-61883431D01*
X211695350Y-61916915D01*
X211625658Y-61911931D01*
X211569725Y-61870059D01*
X211552810Y-61839082D01*
X211503797Y-61707671D01*
X211503793Y-61707664D01*
X211417547Y-61592455D01*
X211417544Y-61592452D01*
X211302335Y-61506206D01*
X211302328Y-61506202D01*
X211167482Y-61455908D01*
X211167483Y-61455908D01*
X211107883Y-61449501D01*
X211107881Y-61449500D01*
X211107873Y-61449500D01*
X211107864Y-61449500D01*
X209312129Y-61449500D01*
X209312123Y-61449501D01*
X209252516Y-61455908D01*
X209117671Y-61506202D01*
X209117664Y-61506206D01*
X209002455Y-61592452D01*
X209002452Y-61592455D01*
X208916206Y-61707664D01*
X208916202Y-61707671D01*
X208865908Y-61842517D01*
X208859501Y-61902116D01*
X208859500Y-61902135D01*
X208859500Y-63697870D01*
X208859501Y-63697876D01*
X208865908Y-63757483D01*
X208916202Y-63892328D01*
X208916206Y-63892335D01*
X209002452Y-64007544D01*
X209002455Y-64007547D01*
X209117664Y-64093793D01*
X209117671Y-64093797D01*
X209117674Y-64093798D01*
X209249598Y-64143002D01*
X209305531Y-64184873D01*
X209329949Y-64250337D01*
X209315098Y-64318610D01*
X209293947Y-64346865D01*
X209180271Y-64460541D01*
X209055379Y-64632442D01*
X208958904Y-64821782D01*
X208893242Y-65023870D01*
X208893242Y-65023873D01*
X208882769Y-65090000D01*
X209776988Y-65090000D01*
X209744075Y-65147007D01*
X209710000Y-65274174D01*
X209710000Y-65405826D01*
X209744075Y-65532993D01*
X209776988Y-65590000D01*
X208882769Y-65590000D01*
X208893242Y-65656126D01*
X208893242Y-65656129D01*
X208958904Y-65858217D01*
X209055379Y-66047557D01*
X209180272Y-66219459D01*
X209180276Y-66219464D01*
X209330535Y-66369723D01*
X209330540Y-66369727D01*
X209502444Y-66494622D01*
X209511495Y-66499234D01*
X209562292Y-66547208D01*
X209579087Y-66615029D01*
X209556550Y-66681164D01*
X209511499Y-66720202D01*
X209502182Y-66724949D01*
X209330213Y-66849890D01*
X209179890Y-67000213D01*
X209054951Y-67172179D01*
X208958444Y-67361585D01*
X208892753Y-67563760D01*
X208887821Y-67594899D01*
X208857891Y-67658034D01*
X208798579Y-67694964D01*
X208765348Y-67699500D01*
X208671155Y-67699500D01*
X208516510Y-67730261D01*
X208516498Y-67730264D01*
X208370827Y-67790602D01*
X208370814Y-67790609D01*
X208239711Y-67878210D01*
X208239707Y-67878213D01*
X208128213Y-67989707D01*
X208128210Y-67989711D01*
X208077602Y-68065451D01*
X208023989Y-68110256D01*
X207954664Y-68118963D01*
X207891637Y-68088808D01*
X207854918Y-68029365D01*
X207850500Y-67996560D01*
X207850500Y-67670944D01*
X207850500Y-67670943D01*
X207849747Y-67668134D01*
X207829176Y-67591361D01*
X207809577Y-67518216D01*
X207775887Y-67459863D01*
X207730524Y-67381290D01*
X207730521Y-67381286D01*
X207730520Y-67381284D01*
X207618716Y-67269480D01*
X207618715Y-67269479D01*
X207614385Y-67265149D01*
X207614374Y-67265139D01*
X205318727Y-64969492D01*
X205285242Y-64908169D01*
X205290226Y-64838477D01*
X205332098Y-64782544D01*
X205337502Y-64778718D01*
X205385289Y-64746789D01*
X205496789Y-64635289D01*
X205584394Y-64504179D01*
X205644737Y-64358497D01*
X205675500Y-64203842D01*
X205675500Y-64046158D01*
X205675500Y-64046155D01*
X205675499Y-64046153D01*
X205673916Y-64038195D01*
X205644737Y-63891503D01*
X205611142Y-63810396D01*
X205584397Y-63745827D01*
X205584390Y-63745814D01*
X205496398Y-63614125D01*
X205475520Y-63547447D01*
X205475500Y-63545234D01*
X205475500Y-63175861D01*
X205495185Y-63108822D01*
X205500000Y-63102846D01*
X205500000Y-63099999D01*
X206000000Y-63099999D01*
X206249972Y-63099999D01*
X206249986Y-63099998D01*
X206352697Y-63089505D01*
X206519119Y-63034358D01*
X206519124Y-63034356D01*
X206668345Y-62942315D01*
X206792315Y-62818345D01*
X206884356Y-62669124D01*
X206884358Y-62669119D01*
X206939505Y-62502697D01*
X206939506Y-62502690D01*
X206949999Y-62399986D01*
X206950000Y-62399973D01*
X206950000Y-62250000D01*
X206000000Y-62250000D01*
X206000000Y-63099999D01*
X205500000Y-63099999D01*
X205500000Y-62124000D01*
X205519685Y-62056961D01*
X205572489Y-62011206D01*
X205624000Y-62000000D01*
X205750000Y-62000000D01*
X205750000Y-61874000D01*
X205769685Y-61806961D01*
X205822489Y-61761206D01*
X205874000Y-61750000D01*
X206949999Y-61750000D01*
X206949999Y-61600028D01*
X206949998Y-61600013D01*
X206939505Y-61497302D01*
X206884358Y-61330880D01*
X206884356Y-61330875D01*
X206792315Y-61181654D01*
X206698695Y-61088034D01*
X206695883Y-61082885D01*
X206691013Y-61079612D01*
X206679325Y-61052561D01*
X206665210Y-61026711D01*
X206665628Y-61020859D01*
X206663301Y-61015473D01*
X206668092Y-60986405D01*
X206670194Y-60957019D01*
X206673958Y-60950821D01*
X206674665Y-60946533D01*
X206687823Y-60927990D01*
X206694352Y-60917241D01*
X206696450Y-60914917D01*
X206792712Y-60818656D01*
X206812789Y-60786105D01*
X206820366Y-60777716D01*
X206840888Y-60765115D01*
X206858796Y-60749008D01*
X206870127Y-60747163D01*
X206879909Y-60741158D01*
X206903986Y-60741652D01*
X206927758Y-60737784D01*
X206945629Y-60742509D01*
X206949764Y-60742594D01*
X206952236Y-60744255D01*
X206959837Y-60746265D01*
X207016503Y-60769737D01*
X207171153Y-60800499D01*
X207171156Y-60800500D01*
X207171158Y-60800500D01*
X207328844Y-60800500D01*
X207328845Y-60800499D01*
X207483497Y-60769737D01*
X207629179Y-60709394D01*
X207760289Y-60621789D01*
X207871789Y-60510289D01*
X207959394Y-60379179D01*
X208019737Y-60233497D01*
X208036348Y-60149986D01*
X209100001Y-60149986D01*
X209110494Y-60252697D01*
X209165641Y-60419119D01*
X209165643Y-60419124D01*
X209257684Y-60568345D01*
X209381654Y-60692315D01*
X209530875Y-60784356D01*
X209530880Y-60784358D01*
X209697302Y-60839505D01*
X209697309Y-60839506D01*
X209800019Y-60849999D01*
X210049999Y-60849999D01*
X210050000Y-60849998D01*
X210050000Y-60000000D01*
X209100001Y-60000000D01*
X209100001Y-60149986D01*
X208036348Y-60149986D01*
X208050500Y-60078842D01*
X208050638Y-60078150D01*
X208059402Y-60061393D01*
X208063423Y-60042914D01*
X208082167Y-60017875D01*
X208083023Y-60016239D01*
X208084520Y-60014714D01*
X208893454Y-59205780D01*
X208918236Y-59192247D01*
X208941350Y-59176018D01*
X208948496Y-59175724D01*
X208954774Y-59172297D01*
X208982944Y-59174311D01*
G37*
%TD.AperFunction*%
%TA.AperFunction,Conductor*%
G36*
X177310000Y-63469862D02*
G01*
X177351689Y-63461570D01*
X177478047Y-63409231D01*
X177547516Y-63401762D01*
X177609996Y-63433037D01*
X177645648Y-63493126D01*
X177649500Y-63523792D01*
X177649500Y-65001059D01*
X177629815Y-65068098D01*
X177577011Y-65113853D01*
X177507853Y-65123797D01*
X177478048Y-65115620D01*
X177291691Y-65038429D01*
X177291683Y-65038427D01*
X177250000Y-65030135D01*
X177250000Y-65790382D01*
X177199554Y-65739936D01*
X177125445Y-65697149D01*
X177042787Y-65675000D01*
X176957213Y-65675000D01*
X176874555Y-65697149D01*
X176800446Y-65739936D01*
X176750000Y-65790382D01*
X176750000Y-65030136D01*
X176749999Y-65030135D01*
X176708316Y-65038427D01*
X176606339Y-65080666D01*
X176536870Y-65088133D01*
X176484578Y-65065372D01*
X176472330Y-65056203D01*
X176472328Y-65056202D01*
X176337482Y-65005908D01*
X176337483Y-65005908D01*
X176277883Y-64999501D01*
X176277881Y-64999500D01*
X176277873Y-64999500D01*
X176277864Y-64999500D01*
X175182129Y-64999500D01*
X175182123Y-64999501D01*
X175122516Y-65005908D01*
X174987671Y-65056202D01*
X174987664Y-65056206D01*
X174872457Y-65142451D01*
X174872451Y-65142457D01*
X174829515Y-65199812D01*
X174773581Y-65241682D01*
X174730249Y-65249500D01*
X173624500Y-65249500D01*
X173557461Y-65229815D01*
X173511706Y-65177011D01*
X173500500Y-65125500D01*
X173500500Y-63612229D01*
X173520185Y-63545190D01*
X173536819Y-63524548D01*
X173774548Y-63286819D01*
X173835871Y-63253334D01*
X173862229Y-63250500D01*
X174790249Y-63250500D01*
X174857288Y-63270185D01*
X174889515Y-63300188D01*
X174930925Y-63355504D01*
X174932454Y-63357546D01*
X174932457Y-63357548D01*
X175047664Y-63443793D01*
X175047671Y-63443797D01*
X175182517Y-63494091D01*
X175182516Y-63494091D01*
X175189444Y-63494835D01*
X175242127Y-63500500D01*
X176337872Y-63500499D01*
X176397483Y-63494091D01*
X176532331Y-63443796D01*
X176544575Y-63434629D01*
X176610035Y-63410210D01*
X176666339Y-63419333D01*
X176768308Y-63461569D01*
X176810000Y-63469862D01*
X176810000Y-62709618D01*
X176860446Y-62760064D01*
X176934555Y-62802851D01*
X177017213Y-62825000D01*
X177102787Y-62825000D01*
X177185445Y-62802851D01*
X177259554Y-62760064D01*
X177310000Y-62709618D01*
X177310000Y-63469862D01*
G37*
%TD.AperFunction*%
%TA.AperFunction,Conductor*%
G36*
X212284075Y-65147007D02*
G01*
X212250000Y-65274174D01*
X212250000Y-65405826D01*
X212284075Y-65532993D01*
X212316988Y-65590000D01*
X210643012Y-65590000D01*
X210675925Y-65532993D01*
X210710000Y-65405826D01*
X210710000Y-65274174D01*
X210675925Y-65147007D01*
X210643012Y-65090000D01*
X212316988Y-65090000D01*
X212284075Y-65147007D01*
G37*
%TD.AperFunction*%
%TA.AperFunction,Conductor*%
G36*
X199118834Y-64370415D02*
G01*
X199174767Y-64412287D01*
X199199184Y-64477751D01*
X199199500Y-64486597D01*
X199199500Y-65120939D01*
X199199499Y-65120943D01*
X199199499Y-65177011D01*
X199199499Y-65238417D01*
X199179814Y-65305456D01*
X199179798Y-65305469D01*
X199134932Y-65347245D01*
X199130532Y-65349647D01*
X199048810Y-65410824D01*
X198983346Y-65435241D01*
X198915073Y-65420389D01*
X198865668Y-65370984D01*
X198850500Y-65311557D01*
X198850500Y-64587597D01*
X198859144Y-64558156D01*
X198865668Y-64528170D01*
X198869422Y-64523154D01*
X198870185Y-64520558D01*
X198886819Y-64499916D01*
X198987819Y-64398916D01*
X199049142Y-64365431D01*
X199118834Y-64370415D01*
G37*
%TD.AperFunction*%
%TA.AperFunction,Conductor*%
G36*
X202418334Y-62845548D02*
G01*
X202462681Y-62874049D01*
X202556344Y-62967712D01*
X202705666Y-63059814D01*
X202872203Y-63114999D01*
X202974991Y-63125500D01*
X202975004Y-63125499D01*
X202978140Y-63125660D01*
X202978131Y-63125820D01*
X202978133Y-63125821D01*
X202978130Y-63125844D01*
X202978099Y-63126448D01*
X203004320Y-63134138D01*
X203034327Y-63140666D01*
X203039319Y-63144403D01*
X203041906Y-63145162D01*
X203062576Y-63161812D01*
X203131284Y-63230520D01*
X203131286Y-63230521D01*
X203138356Y-63237591D01*
X203338584Y-63437819D01*
X203372069Y-63499142D01*
X203367085Y-63568834D01*
X203325213Y-63624767D01*
X203259749Y-63649184D01*
X203250903Y-63649500D01*
X202086670Y-63649500D01*
X202086654Y-63649499D01*
X202079058Y-63649499D01*
X201920943Y-63649499D01*
X201844579Y-63669961D01*
X201768214Y-63690423D01*
X201768209Y-63690426D01*
X201631290Y-63769475D01*
X201631282Y-63769481D01*
X201124343Y-64276420D01*
X201124340Y-64276422D01*
X201124341Y-64276423D01*
X201019604Y-64381159D01*
X200996474Y-64421223D01*
X200989602Y-64433127D01*
X200963838Y-64477751D01*
X200948577Y-64504185D01*
X200940549Y-64518089D01*
X200899625Y-64670817D01*
X200899625Y-64670819D01*
X200899625Y-64838920D01*
X200899626Y-64838933D01*
X200899626Y-65173107D01*
X200898979Y-65175309D01*
X200899547Y-65177535D01*
X200889181Y-65208676D01*
X200879941Y-65240146D01*
X200878206Y-65241648D01*
X200877481Y-65243829D01*
X200851915Y-65264430D01*
X200827137Y-65285901D01*
X200824307Y-65286677D01*
X200823077Y-65287669D01*
X200788879Y-65296397D01*
X200760840Y-65299411D01*
X200734332Y-65299410D01*
X200674720Y-65293001D01*
X200674702Y-65293000D01*
X200635177Y-65293000D01*
X200568138Y-65273315D01*
X200522383Y-65220511D01*
X200515405Y-65201103D01*
X200487199Y-65095838D01*
X200435279Y-65005909D01*
X200417112Y-64974442D01*
X200400500Y-64912443D01*
X200400500Y-64393847D01*
X200420185Y-64326808D01*
X200436819Y-64306166D01*
X201581167Y-63161818D01*
X201642490Y-63128333D01*
X201668848Y-63125499D01*
X201775002Y-63125499D01*
X201775008Y-63125499D01*
X201877797Y-63114999D01*
X202044334Y-63059814D01*
X202193656Y-62967712D01*
X202287319Y-62874049D01*
X202348642Y-62840564D01*
X202418334Y-62845548D01*
G37*
%TD.AperFunction*%
%TA.AperFunction,Conductor*%
G36*
X177310000Y-59969862D02*
G01*
X177351689Y-59961570D01*
X177478047Y-59909231D01*
X177547516Y-59901762D01*
X177609996Y-59933037D01*
X177645648Y-59993126D01*
X177649500Y-60023792D01*
X177649500Y-61476206D01*
X177629815Y-61543245D01*
X177577011Y-61589000D01*
X177507853Y-61598944D01*
X177478048Y-61590767D01*
X177351691Y-61538429D01*
X177351683Y-61538427D01*
X177310000Y-61530135D01*
X177310000Y-62290382D01*
X177259554Y-62239936D01*
X177185445Y-62197149D01*
X177102787Y-62175000D01*
X177017213Y-62175000D01*
X176934555Y-62197149D01*
X176860446Y-62239936D01*
X176810000Y-62290382D01*
X176810000Y-61530136D01*
X176809999Y-61530135D01*
X176768316Y-61538427D01*
X176666339Y-61580666D01*
X176596870Y-61588133D01*
X176544578Y-61565372D01*
X176532330Y-61556203D01*
X176532328Y-61556202D01*
X176397482Y-61505908D01*
X176397483Y-61505908D01*
X176337883Y-61499501D01*
X176337881Y-61499500D01*
X176337873Y-61499500D01*
X176337864Y-61499500D01*
X175242129Y-61499500D01*
X175242123Y-61499501D01*
X175182516Y-61505908D01*
X175047671Y-61556202D01*
X175047664Y-61556206D01*
X174932457Y-61642451D01*
X174932451Y-61642457D01*
X174889515Y-61699812D01*
X174833581Y-61741682D01*
X174790249Y-61749500D01*
X173624500Y-61749500D01*
X173557461Y-61729815D01*
X173511706Y-61677011D01*
X173500500Y-61625500D01*
X173500500Y-60112229D01*
X173520185Y-60045190D01*
X173536819Y-60024548D01*
X173774548Y-59786819D01*
X173835871Y-59753334D01*
X173862229Y-59750500D01*
X174790249Y-59750500D01*
X174857288Y-59770185D01*
X174889515Y-59800188D01*
X174906210Y-59822489D01*
X174932454Y-59857546D01*
X174932457Y-59857548D01*
X175047664Y-59943793D01*
X175047671Y-59943797D01*
X175182517Y-59994091D01*
X175182516Y-59994091D01*
X175189444Y-59994835D01*
X175242127Y-60000500D01*
X176337872Y-60000499D01*
X176397483Y-59994091D01*
X176532331Y-59943796D01*
X176544575Y-59934629D01*
X176610035Y-59910210D01*
X176666339Y-59919333D01*
X176768308Y-59961569D01*
X176810000Y-59969862D01*
X176810000Y-59209618D01*
X176860446Y-59260064D01*
X176934555Y-59302851D01*
X177017213Y-59325000D01*
X177102787Y-59325000D01*
X177185445Y-59302851D01*
X177259554Y-59260064D01*
X177310000Y-59209618D01*
X177310000Y-59969862D01*
G37*
%TD.AperFunction*%
%TA.AperFunction,Conductor*%
G36*
X207119730Y-44020185D02*
G01*
X207140372Y-44036819D01*
X208309301Y-45205748D01*
X208207670Y-45279588D01*
X208029588Y-45457670D01*
X207955748Y-45559301D01*
X206781418Y-44384971D01*
X206636423Y-44561650D01*
X206636422Y-44561651D01*
X206459025Y-44827144D01*
X206459014Y-44827162D01*
X206308495Y-45108762D01*
X206308493Y-45108767D01*
X206186292Y-45403786D01*
X206093594Y-45709371D01*
X206093591Y-45709382D01*
X206031301Y-46022544D01*
X206031298Y-46022561D01*
X206000000Y-46340341D01*
X206000000Y-46659658D01*
X206031298Y-46977438D01*
X206031301Y-46977455D01*
X206093591Y-47290617D01*
X206093594Y-47290628D01*
X206186292Y-47596213D01*
X206308493Y-47891232D01*
X206308495Y-47891237D01*
X206459014Y-48172837D01*
X206459025Y-48172855D01*
X206636422Y-48438348D01*
X206636432Y-48438362D01*
X206781418Y-48615027D01*
X207955747Y-47440697D01*
X208029588Y-47542330D01*
X208207670Y-47720412D01*
X208309301Y-47794251D01*
X207134971Y-48968580D01*
X207134972Y-48968581D01*
X207311637Y-49113567D01*
X207311651Y-49113577D01*
X207577144Y-49290974D01*
X207577162Y-49290985D01*
X207858762Y-49441504D01*
X207858767Y-49441506D01*
X208153786Y-49563707D01*
X208459371Y-49656405D01*
X208459382Y-49656408D01*
X208772544Y-49718698D01*
X208772561Y-49718701D01*
X209090341Y-49750000D01*
X209409659Y-49750000D01*
X209727438Y-49718701D01*
X209727455Y-49718698D01*
X210040617Y-49656408D01*
X210040628Y-49656405D01*
X210346213Y-49563707D01*
X210641232Y-49441506D01*
X210641237Y-49441504D01*
X210922837Y-49290985D01*
X210922855Y-49290974D01*
X211188348Y-49113577D01*
X211188361Y-49113567D01*
X211365026Y-48968581D01*
X211365027Y-48968580D01*
X210190698Y-47794251D01*
X210292330Y-47720412D01*
X210470412Y-47542330D01*
X210544252Y-47440698D01*
X211713181Y-48609627D01*
X211746666Y-48670950D01*
X211749500Y-48697307D01*
X211749500Y-52434108D01*
X211749500Y-52565892D01*
X211757225Y-52594722D01*
X211783608Y-52693187D01*
X211816554Y-52750250D01*
X211849500Y-52807314D01*
X211849501Y-52807315D01*
X211849502Y-52807316D01*
X214463181Y-55420994D01*
X214496666Y-55482317D01*
X214499500Y-55508675D01*
X214499500Y-60600902D01*
X214479815Y-60667941D01*
X214427011Y-60713696D01*
X214357853Y-60723640D01*
X214294297Y-60694615D01*
X214287819Y-60688583D01*
X213736818Y-60137582D01*
X213703333Y-60076259D01*
X213700499Y-60049901D01*
X213700499Y-59349998D01*
X213700498Y-59349981D01*
X213689999Y-59247203D01*
X213689998Y-59247200D01*
X213675410Y-59203176D01*
X213634814Y-59080666D01*
X213542712Y-58931344D01*
X213449049Y-58837681D01*
X213415564Y-58776358D01*
X213420548Y-58706666D01*
X213449049Y-58662319D01*
X213492551Y-58618817D01*
X213542712Y-58568656D01*
X213634814Y-58419334D01*
X213689999Y-58252797D01*
X213700500Y-58150009D01*
X213700499Y-57349992D01*
X213698141Y-57326912D01*
X213689999Y-57247203D01*
X213689998Y-57247200D01*
X213665750Y-57174024D01*
X213634814Y-57080666D01*
X213542712Y-56931344D01*
X213418656Y-56807288D01*
X213325888Y-56750069D01*
X213269336Y-56715187D01*
X213269331Y-56715185D01*
X213252081Y-56709469D01*
X213102797Y-56660001D01*
X213102795Y-56660000D01*
X213000010Y-56649500D01*
X211999998Y-56649500D01*
X211999980Y-56649501D01*
X211897203Y-56660000D01*
X211897200Y-56660001D01*
X211730668Y-56715185D01*
X211730663Y-56715187D01*
X211581342Y-56807289D01*
X211487681Y-56900951D01*
X211426358Y-56934436D01*
X211356666Y-56929452D01*
X211312319Y-56900951D01*
X211218657Y-56807289D01*
X211218656Y-56807288D01*
X211125888Y-56750069D01*
X211069336Y-56715187D01*
X211069331Y-56715185D01*
X211052081Y-56709469D01*
X210902797Y-56660001D01*
X210902795Y-56660000D01*
X210800010Y-56649500D01*
X209799998Y-56649500D01*
X209799980Y-56649501D01*
X209697203Y-56660000D01*
X209697200Y-56660001D01*
X209530668Y-56715185D01*
X209530663Y-56715187D01*
X209381342Y-56807289D01*
X209257289Y-56931342D01*
X209165187Y-57080663D01*
X209165185Y-57080668D01*
X209110001Y-57247201D01*
X209109999Y-57247214D01*
X209109526Y-57251842D01*
X209083125Y-57316532D01*
X209073850Y-57326912D01*
X207961986Y-58438777D01*
X207900663Y-58472262D01*
X207830971Y-58467278D01*
X207786624Y-58438777D01*
X207675979Y-58328132D01*
X207675975Y-58328129D01*
X207544872Y-58240528D01*
X207544859Y-58240521D01*
X207399188Y-58180183D01*
X207399181Y-58180181D01*
X207388060Y-58177969D01*
X207326150Y-58145582D01*
X207291577Y-58084866D01*
X207295318Y-58015096D01*
X207297680Y-58008930D01*
X207335424Y-57917810D01*
X207366187Y-57763155D01*
X207366187Y-57605471D01*
X207366187Y-57605468D01*
X207366186Y-57605466D01*
X207335424Y-57450816D01*
X207305751Y-57379179D01*
X207275084Y-57305140D01*
X207275077Y-57305127D01*
X207187476Y-57174024D01*
X207187473Y-57174020D01*
X207075979Y-57062526D01*
X207075975Y-57062523D01*
X206944872Y-56974922D01*
X206944859Y-56974915D01*
X206799188Y-56914577D01*
X206799176Y-56914574D01*
X206644532Y-56883813D01*
X206644529Y-56883813D01*
X206486845Y-56883813D01*
X206486842Y-56883813D01*
X206332197Y-56914574D01*
X206332185Y-56914577D01*
X206186514Y-56974915D01*
X206186501Y-56974922D01*
X206054812Y-57062915D01*
X205988134Y-57083793D01*
X205985921Y-57083813D01*
X204984411Y-57083813D01*
X204917372Y-57064128D01*
X204896730Y-57047494D01*
X204119421Y-56270185D01*
X203331415Y-55482180D01*
X203297931Y-55420858D01*
X203302915Y-55351166D01*
X203344787Y-55295233D01*
X203410251Y-55270816D01*
X203419097Y-55270500D01*
X203598543Y-55270500D01*
X203752195Y-55239936D01*
X203791835Y-55232051D01*
X203973914Y-55156632D01*
X204137782Y-55047139D01*
X204277139Y-54907782D01*
X204386632Y-54743914D01*
X204462051Y-54561835D01*
X204480806Y-54467548D01*
X204500500Y-54368543D01*
X204500500Y-54171456D01*
X204462052Y-53978170D01*
X204462051Y-53978169D01*
X204462051Y-53978165D01*
X204462049Y-53978160D01*
X204386635Y-53796092D01*
X204386633Y-53796088D01*
X204386632Y-53796086D01*
X204325029Y-53703891D01*
X204304151Y-53637214D01*
X204322635Y-53569834D01*
X204325029Y-53566109D01*
X204337872Y-53546887D01*
X204386632Y-53473914D01*
X204462051Y-53291835D01*
X204483165Y-53185690D01*
X204500500Y-53098543D01*
X204500500Y-52901456D01*
X204462052Y-52708170D01*
X204462051Y-52708169D01*
X204462051Y-52708165D01*
X204443136Y-52662499D01*
X204386635Y-52526092D01*
X204386628Y-52526079D01*
X204324728Y-52433440D01*
X204303850Y-52366763D01*
X204322334Y-52299383D01*
X204324729Y-52295657D01*
X204386189Y-52203676D01*
X204386191Y-52203673D01*
X204461569Y-52021692D01*
X204461569Y-52021690D01*
X204469862Y-51980000D01*
X203709618Y-51980000D01*
X203760064Y-51929554D01*
X203802851Y-51855445D01*
X203825000Y-51772787D01*
X203825000Y-51687213D01*
X203802851Y-51604555D01*
X203760064Y-51530446D01*
X203709618Y-51480000D01*
X204469862Y-51480000D01*
X204461569Y-51438309D01*
X204461569Y-51438307D01*
X204386192Y-51256328D01*
X204386188Y-51256321D01*
X204324728Y-51164341D01*
X204303850Y-51097663D01*
X204322334Y-51030283D01*
X204324704Y-51026595D01*
X204386632Y-50933914D01*
X204386879Y-50933319D01*
X204424478Y-50842545D01*
X204462051Y-50751835D01*
X204483165Y-50645690D01*
X204500500Y-50558543D01*
X204500500Y-50361456D01*
X204462052Y-50168170D01*
X204462051Y-50168169D01*
X204462051Y-50168165D01*
X204442459Y-50120865D01*
X204386635Y-49986092D01*
X204386628Y-49986079D01*
X204277139Y-49822218D01*
X204277136Y-49822214D01*
X204137785Y-49682863D01*
X204137781Y-49682860D01*
X203973920Y-49573371D01*
X203973907Y-49573364D01*
X203791839Y-49497950D01*
X203791829Y-49497947D01*
X203598543Y-49459500D01*
X203598541Y-49459500D01*
X203401459Y-49459500D01*
X203401457Y-49459500D01*
X203208171Y-49497947D01*
X203208168Y-49497948D01*
X203208166Y-49497948D01*
X203208165Y-49497949D01*
X203208163Y-49497950D01*
X203105874Y-49540318D01*
X203036404Y-49547785D01*
X202984113Y-49525023D01*
X202972335Y-49516206D01*
X202972328Y-49516202D01*
X202837482Y-49465908D01*
X202837483Y-49465908D01*
X202777883Y-49459501D01*
X202777881Y-49459500D01*
X202777873Y-49459500D01*
X202777864Y-49459500D01*
X201682129Y-49459500D01*
X201682123Y-49459501D01*
X201622516Y-49465908D01*
X201487671Y-49516202D01*
X201487664Y-49516206D01*
X201372455Y-49602452D01*
X201372452Y-49602455D01*
X201286206Y-49717664D01*
X201286202Y-49717671D01*
X201235908Y-49852517D01*
X201229501Y-49912116D01*
X201229500Y-49912135D01*
X201229500Y-51007870D01*
X201229501Y-51007876D01*
X201235908Y-51067483D01*
X201286202Y-51202328D01*
X201286203Y-51202330D01*
X201295372Y-51214578D01*
X201319788Y-51280043D01*
X201310665Y-51336340D01*
X201268432Y-51438300D01*
X201268430Y-51438307D01*
X201260138Y-51480000D01*
X202020382Y-51480000D01*
X201969936Y-51530446D01*
X201927149Y-51604555D01*
X201905000Y-51687213D01*
X201905000Y-51772787D01*
X201927149Y-51855445D01*
X201969936Y-51929554D01*
X202020382Y-51980000D01*
X201260138Y-51980000D01*
X201268430Y-52021690D01*
X201268430Y-52021692D01*
X201343807Y-52203671D01*
X201343814Y-52203684D01*
X201405270Y-52295659D01*
X201426148Y-52362337D01*
X201407663Y-52429717D01*
X201405271Y-52433440D01*
X201343370Y-52526082D01*
X201343364Y-52526093D01*
X201267949Y-52708162D01*
X201267947Y-52708168D01*
X201262958Y-52733253D01*
X201230572Y-52795163D01*
X201229022Y-52796741D01*
X199881286Y-54144478D01*
X199769481Y-54256282D01*
X199769479Y-54256285D01*
X199760645Y-54271586D01*
X199731780Y-54321584D01*
X199719361Y-54343094D01*
X199719359Y-54343096D01*
X199690425Y-54393209D01*
X199690424Y-54393210D01*
X199684529Y-54415210D01*
X199649499Y-54545943D01*
X199649499Y-54545945D01*
X199649499Y-54714046D01*
X199649500Y-54714059D01*
X199649500Y-56420234D01*
X199629815Y-56487273D01*
X199628602Y-56489125D01*
X199540609Y-56620814D01*
X199540602Y-56620827D01*
X199480264Y-56766498D01*
X199480261Y-56766510D01*
X199449500Y-56921153D01*
X199449500Y-57078846D01*
X199480261Y-57233489D01*
X199480264Y-57233501D01*
X199540602Y-57379172D01*
X199540609Y-57379185D01*
X199628210Y-57510288D01*
X199628213Y-57510292D01*
X199739707Y-57621786D01*
X199739711Y-57621789D01*
X199870814Y-57709390D01*
X199870827Y-57709397D01*
X200000617Y-57763157D01*
X200016503Y-57769737D01*
X200171153Y-57800499D01*
X200171156Y-57800500D01*
X200171158Y-57800500D01*
X200328844Y-57800500D01*
X200328845Y-57800499D01*
X200483497Y-57769737D01*
X200596166Y-57723067D01*
X200629172Y-57709397D01*
X200629172Y-57709396D01*
X200629179Y-57709394D01*
X200760289Y-57621789D01*
X200871789Y-57510289D01*
X200959394Y-57379179D01*
X200963728Y-57368717D01*
X200973067Y-57346166D01*
X201019737Y-57233497D01*
X201050500Y-57078842D01*
X201050500Y-56921158D01*
X201050500Y-56921155D01*
X201050499Y-56921153D01*
X201048943Y-56913330D01*
X201019737Y-56766503D01*
X201019735Y-56766498D01*
X200959397Y-56620827D01*
X200959390Y-56620814D01*
X200871398Y-56489125D01*
X200850520Y-56422447D01*
X200850500Y-56420234D01*
X200850500Y-54925096D01*
X200870185Y-54858057D01*
X200886815Y-54837419D01*
X201105811Y-54618422D01*
X201167132Y-54584939D01*
X201236823Y-54589923D01*
X201292757Y-54631794D01*
X201308051Y-54658652D01*
X201343366Y-54743910D01*
X201343371Y-54743920D01*
X201452860Y-54907781D01*
X201452863Y-54907785D01*
X201593181Y-55048103D01*
X201607884Y-55075030D01*
X201624477Y-55100849D01*
X201625368Y-55107049D01*
X201626666Y-55109426D01*
X201629500Y-55135784D01*
X201629500Y-55143330D01*
X201629499Y-55143348D01*
X201629499Y-55309054D01*
X201629498Y-55309054D01*
X201670423Y-55461787D01*
X201670424Y-55461788D01*
X201692198Y-55499501D01*
X201749475Y-55598709D01*
X201749481Y-55598717D01*
X201868349Y-55717585D01*
X201868354Y-55717589D01*
X204315597Y-58164833D01*
X204315599Y-58164834D01*
X204315603Y-58164837D01*
X204446706Y-58240528D01*
X204452529Y-58243890D01*
X204605256Y-58284814D01*
X204605258Y-58284814D01*
X204770967Y-58284814D01*
X204770983Y-58284813D01*
X205985921Y-58284813D01*
X206001700Y-58289102D01*
X206016034Y-58288525D01*
X206042150Y-58300099D01*
X206048703Y-58301881D01*
X206054695Y-58305399D01*
X206055398Y-58306102D01*
X206186508Y-58393707D01*
X206249646Y-58419859D01*
X206257046Y-58424204D01*
X206275328Y-58443660D01*
X206296120Y-58460415D01*
X206298889Y-58468734D01*
X206304891Y-58475122D01*
X206309751Y-58501371D01*
X206318185Y-58526709D01*
X206316016Y-58535204D01*
X206317613Y-58543824D01*
X206307508Y-58568539D01*
X206300906Y-58594409D01*
X206292518Y-58605206D01*
X206291173Y-58608497D01*
X206288513Y-58610361D01*
X206281945Y-58618817D01*
X206037582Y-58863181D01*
X205976259Y-58896666D01*
X205949901Y-58899500D01*
X205249998Y-58899500D01*
X205249980Y-58899501D01*
X205147203Y-58910000D01*
X205147200Y-58910001D01*
X204980668Y-58965185D01*
X204980663Y-58965187D01*
X204831345Y-59057287D01*
X204737327Y-59151305D01*
X204676003Y-59184789D01*
X204606312Y-59179805D01*
X204561965Y-59151304D01*
X204443345Y-59032684D01*
X204294124Y-58940643D01*
X204294119Y-58940641D01*
X204127697Y-58885494D01*
X204127690Y-58885493D01*
X204024986Y-58875000D01*
X203750000Y-58875000D01*
X203750000Y-59838500D01*
X203730315Y-59905539D01*
X203677511Y-59951294D01*
X203626000Y-59962500D01*
X203500000Y-59962500D01*
X203500000Y-60088500D01*
X203480315Y-60155539D01*
X203427511Y-60201294D01*
X203376000Y-60212500D01*
X199124000Y-60212500D01*
X199056961Y-60192815D01*
X199011206Y-60140011D01*
X199000000Y-60088500D01*
X199000000Y-59962500D01*
X198874000Y-59962500D01*
X198806961Y-59942815D01*
X198761206Y-59890011D01*
X198750000Y-59838500D01*
X198750000Y-59712500D01*
X199250000Y-59712500D01*
X201000000Y-59712500D01*
X201500000Y-59712500D01*
X203250000Y-59712500D01*
X203250000Y-58875000D01*
X202975029Y-58875000D01*
X202975012Y-58875001D01*
X202872302Y-58885494D01*
X202705880Y-58940641D01*
X202705875Y-58940643D01*
X202556654Y-59032684D01*
X202462681Y-59126658D01*
X202401358Y-59160143D01*
X202331666Y-59155159D01*
X202287319Y-59126658D01*
X202193345Y-59032684D01*
X202044124Y-58940643D01*
X202044119Y-58940641D01*
X201877697Y-58885494D01*
X201877690Y-58885493D01*
X201774986Y-58875000D01*
X201500000Y-58875000D01*
X201500000Y-59712500D01*
X201000000Y-59712500D01*
X201000000Y-58875000D01*
X200725029Y-58875000D01*
X200725012Y-58875001D01*
X200622302Y-58885494D01*
X200455880Y-58940641D01*
X200455875Y-58940643D01*
X200306654Y-59032684D01*
X200212681Y-59126658D01*
X200151358Y-59160143D01*
X200081666Y-59155159D01*
X200037319Y-59126658D01*
X199943345Y-59032684D01*
X199794124Y-58940643D01*
X199794119Y-58940641D01*
X199627697Y-58885494D01*
X199627690Y-58885493D01*
X199524986Y-58875000D01*
X199250000Y-58875000D01*
X199250000Y-59712500D01*
X198750000Y-59712500D01*
X198750000Y-58875000D01*
X198475029Y-58875000D01*
X198475012Y-58875001D01*
X198372302Y-58885494D01*
X198205880Y-58940641D01*
X198205875Y-58940644D01*
X198190594Y-58950069D01*
X198123201Y-58968507D01*
X198056538Y-58947582D01*
X198011770Y-58893939D01*
X198001500Y-58844528D01*
X198001500Y-58821943D01*
X198001499Y-58821939D01*
X197999398Y-58814099D01*
X197991552Y-58784814D01*
X197960577Y-58669215D01*
X197926597Y-58610361D01*
X197925799Y-58608978D01*
X197925798Y-58608977D01*
X197888128Y-58543730D01*
X197881520Y-58532284D01*
X197769716Y-58420480D01*
X197769715Y-58420479D01*
X197765385Y-58416149D01*
X197765374Y-58416139D01*
X196487590Y-57138355D01*
X196487588Y-57138352D01*
X196368717Y-57019481D01*
X196368716Y-57019480D01*
X196281904Y-56969360D01*
X196281904Y-56969359D01*
X196281900Y-56969358D01*
X196231785Y-56940423D01*
X196079057Y-56899499D01*
X195920943Y-56899499D01*
X195913347Y-56899499D01*
X195913331Y-56899500D01*
X193367198Y-56899500D01*
X193337757Y-56890855D01*
X193307771Y-56884332D01*
X193302755Y-56880577D01*
X193300159Y-56879815D01*
X193279517Y-56863181D01*
X193136819Y-56720483D01*
X193103334Y-56659160D01*
X193100500Y-56632802D01*
X193100500Y-52724500D01*
X193120185Y-52657461D01*
X193172989Y-52611706D01*
X193224500Y-52600500D01*
X193235831Y-52600500D01*
X193235847Y-52600501D01*
X193334893Y-52600501D01*
X193346410Y-52603882D01*
X193358358Y-52602742D01*
X193379312Y-52613544D01*
X193401932Y-52620186D01*
X193411343Y-52630056D01*
X193420462Y-52634757D01*
X193442279Y-52662499D01*
X193458857Y-52691212D01*
X193458858Y-52691216D01*
X193458859Y-52691216D01*
X193489426Y-52744161D01*
X193505897Y-52812062D01*
X193499744Y-52845163D01*
X193482501Y-52897199D01*
X193472000Y-52999983D01*
X193472000Y-54000001D01*
X193472001Y-54000019D01*
X193482500Y-54102796D01*
X193482501Y-54102799D01*
X193537685Y-54269331D01*
X193537687Y-54269336D01*
X193569913Y-54321582D01*
X193629788Y-54418656D01*
X193753844Y-54542712D01*
X193903166Y-54634814D01*
X194069703Y-54689999D01*
X194172491Y-54700500D01*
X194972508Y-54700499D01*
X194972516Y-54700498D01*
X194972519Y-54700498D01*
X195028802Y-54694748D01*
X195075297Y-54689999D01*
X195241834Y-54634814D01*
X195391156Y-54542712D01*
X195485175Y-54448692D01*
X195546494Y-54415210D01*
X195616186Y-54420194D01*
X195660534Y-54448695D01*
X195754154Y-54542315D01*
X195903375Y-54634356D01*
X195903380Y-54634358D01*
X196069802Y-54689505D01*
X196069809Y-54689506D01*
X196172519Y-54699999D01*
X196322499Y-54699999D01*
X196822500Y-54699999D01*
X196972472Y-54699999D01*
X196972486Y-54699998D01*
X197075197Y-54689505D01*
X197241619Y-54634358D01*
X197241624Y-54634356D01*
X197390845Y-54542315D01*
X197514815Y-54418345D01*
X197606856Y-54269124D01*
X197606858Y-54269119D01*
X197662005Y-54102697D01*
X197662006Y-54102690D01*
X197672499Y-53999986D01*
X197672500Y-53999973D01*
X197672500Y-53750000D01*
X196822500Y-53750000D01*
X196822500Y-54699999D01*
X196322499Y-54699999D01*
X196322500Y-54699998D01*
X196322500Y-53250000D01*
X196822500Y-53250000D01*
X197672499Y-53250000D01*
X197672499Y-53000028D01*
X197672498Y-53000013D01*
X197662005Y-52897302D01*
X197606858Y-52730880D01*
X197606856Y-52730875D01*
X197514815Y-52581654D01*
X197390845Y-52457684D01*
X197241624Y-52365643D01*
X197241619Y-52365641D01*
X197075197Y-52310494D01*
X197075190Y-52310493D01*
X196972486Y-52300000D01*
X196822500Y-52300000D01*
X196822500Y-53250000D01*
X196322500Y-53250000D01*
X196322500Y-52300000D01*
X196172527Y-52300000D01*
X196172512Y-52300001D01*
X196069802Y-52310494D01*
X195903380Y-52365641D01*
X195903375Y-52365643D01*
X195754157Y-52457682D01*
X195660534Y-52551305D01*
X195599210Y-52584789D01*
X195529519Y-52579805D01*
X195485172Y-52551304D01*
X195391157Y-52457289D01*
X195391156Y-52457288D01*
X195241834Y-52365186D01*
X195075297Y-52310001D01*
X195075295Y-52310000D01*
X194972516Y-52299500D01*
X194972509Y-52299500D01*
X194772597Y-52299500D01*
X194743156Y-52290855D01*
X194713170Y-52284332D01*
X194708154Y-52280577D01*
X194705558Y-52279815D01*
X194684916Y-52263181D01*
X194636819Y-52215084D01*
X194603334Y-52153761D01*
X194600500Y-52127403D01*
X194600500Y-52039851D01*
X194620185Y-51972812D01*
X194672989Y-51927057D01*
X194711243Y-51916562D01*
X194736744Y-51913820D01*
X194763252Y-51913820D01*
X194802127Y-51918000D01*
X195497872Y-51917999D01*
X195511240Y-51916562D01*
X195539094Y-51913568D01*
X195565606Y-51913568D01*
X195602166Y-51917499D01*
X195602182Y-51917500D01*
X195700000Y-51917500D01*
X195700051Y-51917448D01*
X195719685Y-51850584D01*
X195749686Y-51818359D01*
X195807546Y-51775046D01*
X195893796Y-51659831D01*
X195944091Y-51524983D01*
X195950500Y-51465373D01*
X195950499Y-50966497D01*
X195953049Y-50957813D01*
X195951761Y-50948853D01*
X195962738Y-50924816D01*
X195970183Y-50899461D01*
X195977025Y-50893532D01*
X195980786Y-50885297D01*
X196003017Y-50871010D01*
X196022987Y-50853706D01*
X196033502Y-50851418D01*
X196039564Y-50847523D01*
X196074499Y-50842500D01*
X196076000Y-50842500D01*
X196143039Y-50862185D01*
X196188794Y-50914989D01*
X196200000Y-50966500D01*
X196200000Y-51917500D01*
X196297828Y-51917500D01*
X196297844Y-51917499D01*
X196357372Y-51911098D01*
X196357379Y-51911096D01*
X196492086Y-51860854D01*
X196492089Y-51860852D01*
X196607849Y-51774194D01*
X196673313Y-51749776D01*
X196729615Y-51758900D01*
X196778303Y-51779068D01*
X196778308Y-51779069D01*
X196820000Y-51787362D01*
X196820000Y-50984488D01*
X196829940Y-51001705D01*
X196885795Y-51057560D01*
X196954204Y-51097056D01*
X197030504Y-51117500D01*
X197109496Y-51117500D01*
X197185796Y-51097056D01*
X197254205Y-51057560D01*
X197310060Y-51001705D01*
X197320000Y-50984488D01*
X197320000Y-51787362D01*
X197361690Y-51779069D01*
X197361692Y-51779069D01*
X197543671Y-51703692D01*
X197543684Y-51703685D01*
X197707462Y-51594251D01*
X197707466Y-51594248D01*
X197846748Y-51454966D01*
X197846751Y-51454962D01*
X197956185Y-51291184D01*
X197956192Y-51291171D01*
X198031569Y-51109193D01*
X198031572Y-51109181D01*
X198069999Y-50915995D01*
X198070000Y-50915992D01*
X198070000Y-50517500D01*
X197370000Y-50517500D01*
X197370000Y-50017500D01*
X198070000Y-50017500D01*
X198070000Y-49619008D01*
X198069999Y-49619004D01*
X198031572Y-49425818D01*
X198031569Y-49425806D01*
X197956192Y-49243828D01*
X197956185Y-49243815D01*
X197846751Y-49080037D01*
X197846748Y-49080033D01*
X197707466Y-48940751D01*
X197707462Y-48940748D01*
X197543684Y-48831314D01*
X197543671Y-48831307D01*
X197361691Y-48755929D01*
X197361683Y-48755927D01*
X197320000Y-48747635D01*
X197320000Y-49550511D01*
X197310060Y-49533295D01*
X197254205Y-49477440D01*
X197185796Y-49437944D01*
X197109496Y-49417500D01*
X197030504Y-49417500D01*
X196954204Y-49437944D01*
X196885795Y-49477440D01*
X196829940Y-49533295D01*
X196820000Y-49550511D01*
X196820000Y-48747636D01*
X196819999Y-48747635D01*
X196778316Y-48755927D01*
X196778308Y-48755929D01*
X196596328Y-48831307D01*
X196596315Y-48831314D01*
X196432537Y-48940748D01*
X196432533Y-48940751D01*
X196293251Y-49080033D01*
X196293248Y-49080037D01*
X196183814Y-49243815D01*
X196183809Y-49243824D01*
X196179866Y-49253345D01*
X196136023Y-49307747D01*
X196069728Y-49329810D01*
X196002030Y-49312529D01*
X195996597Y-49308851D01*
X195862136Y-49231219D01*
X195788950Y-49211609D01*
X195715766Y-49192000D01*
X195564234Y-49192000D01*
X195417863Y-49231219D01*
X195286635Y-49306985D01*
X195286632Y-49306987D01*
X195179487Y-49414132D01*
X195179485Y-49414135D01*
X195103719Y-49545363D01*
X195068959Y-49675093D01*
X195055228Y-49697620D01*
X195044861Y-49721879D01*
X195037329Y-49726984D01*
X195032594Y-49734754D01*
X195008864Y-49746280D01*
X194987028Y-49761084D01*
X194974292Y-49763074D01*
X194969747Y-49765283D01*
X194952227Y-49766963D01*
X194950701Y-49767000D01*
X194802128Y-49767001D01*
X194758165Y-49771726D01*
X194753045Y-49771852D01*
X194750526Y-49771179D01*
X194736748Y-49771179D01*
X194697874Y-49767000D01*
X194302130Y-49767000D01*
X194302119Y-49767001D01*
X194263253Y-49771179D01*
X194236748Y-49771179D01*
X194197874Y-49767000D01*
X193802130Y-49767000D01*
X193802119Y-49767001D01*
X193763253Y-49771179D01*
X193742249Y-49771646D01*
X193739469Y-49771471D01*
X193697873Y-49767000D01*
X193668084Y-49767000D01*
X193664205Y-49766757D01*
X193634864Y-49756107D01*
X193604919Y-49747315D01*
X193602295Y-49744287D01*
X193598528Y-49742920D01*
X193579598Y-49718093D01*
X193565417Y-49701728D01*
X193563641Y-49702754D01*
X193552156Y-49682863D01*
X193530639Y-49645595D01*
X193480520Y-49558784D01*
X193368716Y-49446980D01*
X193368715Y-49446979D01*
X193364385Y-49442649D01*
X193364374Y-49442639D01*
X193310090Y-49388355D01*
X193310088Y-49388352D01*
X193191217Y-49269481D01*
X193191216Y-49269480D01*
X193104404Y-49219360D01*
X193104404Y-49219359D01*
X193104400Y-49219358D01*
X193054285Y-49190423D01*
X192901557Y-49149499D01*
X192743443Y-49149499D01*
X192735847Y-49149499D01*
X192735831Y-49149500D01*
X192276557Y-49149500D01*
X192118443Y-49149500D01*
X191965715Y-49190423D01*
X191965714Y-49190423D01*
X191965712Y-49190424D01*
X191965709Y-49190425D01*
X191915596Y-49219359D01*
X191915595Y-49219360D01*
X191873237Y-49243815D01*
X191828785Y-49269479D01*
X191828782Y-49269481D01*
X191519481Y-49578782D01*
X191519479Y-49578785D01*
X191496259Y-49619004D01*
X191469360Y-49665595D01*
X191447906Y-49702754D01*
X191446609Y-49705001D01*
X191396041Y-49753216D01*
X191339225Y-49767000D01*
X191302132Y-49767000D01*
X191302118Y-49767001D01*
X191263253Y-49771179D01*
X191236748Y-49771179D01*
X191197874Y-49767000D01*
X190802130Y-49767000D01*
X190802119Y-49767001D01*
X190763253Y-49771179D01*
X190746959Y-49771852D01*
X190741835Y-49771726D01*
X190697873Y-49767000D01*
X190549280Y-49767000D01*
X190547773Y-49766963D01*
X190515876Y-49756740D01*
X190483777Y-49747315D01*
X190482742Y-49746121D01*
X190481237Y-49745639D01*
X190459932Y-49719797D01*
X190438022Y-49694511D01*
X190437198Y-49692221D01*
X190436792Y-49691728D01*
X190436678Y-49690774D01*
X190431041Y-49675093D01*
X190428496Y-49665594D01*
X190396281Y-49545365D01*
X190320515Y-49414135D01*
X190213365Y-49306985D01*
X190143406Y-49266594D01*
X190082136Y-49231219D01*
X190008950Y-49211609D01*
X189935766Y-49192000D01*
X189784234Y-49192000D01*
X189637863Y-49231219D01*
X189546428Y-49284010D01*
X189506635Y-49306985D01*
X189506633Y-49306986D01*
X189499597Y-49311049D01*
X189498327Y-49308849D01*
X189444995Y-49329460D01*
X189376552Y-49315414D01*
X189326568Y-49266594D01*
X189320131Y-49253338D01*
X189316192Y-49243828D01*
X189316185Y-49243815D01*
X189206751Y-49080037D01*
X189206748Y-49080033D01*
X189067466Y-48940751D01*
X189067462Y-48940748D01*
X188903684Y-48831314D01*
X188903671Y-48831307D01*
X188721691Y-48755929D01*
X188721683Y-48755927D01*
X188680000Y-48747635D01*
X188680000Y-49550511D01*
X188670060Y-49533295D01*
X188614205Y-49477440D01*
X188545796Y-49437944D01*
X188469496Y-49417500D01*
X188390504Y-49417500D01*
X188314204Y-49437944D01*
X188245795Y-49477440D01*
X188189940Y-49533295D01*
X188180000Y-49550511D01*
X188180000Y-48747636D01*
X188179999Y-48747635D01*
X188138316Y-48755927D01*
X188138308Y-48755929D01*
X187956328Y-48831307D01*
X187956315Y-48831314D01*
X187792537Y-48940748D01*
X187792533Y-48940751D01*
X187653251Y-49080033D01*
X187653248Y-49080037D01*
X187543814Y-49243815D01*
X187543807Y-49243828D01*
X187468430Y-49425806D01*
X187468427Y-49425818D01*
X187430000Y-49619004D01*
X187430000Y-50017500D01*
X188130000Y-50017500D01*
X188130000Y-50517500D01*
X187430000Y-50517500D01*
X187430000Y-50915995D01*
X187468427Y-51109181D01*
X187468430Y-51109193D01*
X187543807Y-51291171D01*
X187543814Y-51291184D01*
X187653248Y-51454962D01*
X187653251Y-51454966D01*
X187792533Y-51594248D01*
X187792537Y-51594251D01*
X187956315Y-51703685D01*
X187956328Y-51703692D01*
X188138308Y-51779069D01*
X188180000Y-51787362D01*
X188180000Y-50984488D01*
X188189940Y-51001705D01*
X188245795Y-51057560D01*
X188314204Y-51097056D01*
X188390504Y-51117500D01*
X188469496Y-51117500D01*
X188545796Y-51097056D01*
X188614205Y-51057560D01*
X188670060Y-51001705D01*
X188680000Y-50984488D01*
X188680000Y-51787362D01*
X188721691Y-51779069D01*
X188721696Y-51779068D01*
X188770385Y-51758900D01*
X188839854Y-51751430D01*
X188892151Y-51774194D01*
X189007910Y-51860852D01*
X189007913Y-51860854D01*
X189142620Y-51911096D01*
X189142627Y-51911098D01*
X189202155Y-51917499D01*
X189202172Y-51917500D01*
X189300000Y-51917500D01*
X189300000Y-50966500D01*
X189302550Y-50957814D01*
X189301262Y-50948853D01*
X189312240Y-50924812D01*
X189319685Y-50899461D01*
X189326525Y-50893533D01*
X189330287Y-50885297D01*
X189352521Y-50871007D01*
X189372489Y-50853706D01*
X189383003Y-50851418D01*
X189389065Y-50847523D01*
X189424000Y-50842500D01*
X189425500Y-50842500D01*
X189492539Y-50862185D01*
X189538294Y-50914989D01*
X189549500Y-50966500D01*
X189549500Y-51465370D01*
X189549501Y-51465376D01*
X189555908Y-51524983D01*
X189606202Y-51659828D01*
X189606203Y-51659829D01*
X189606204Y-51659831D01*
X189692454Y-51775046D01*
X189750311Y-51818358D01*
X189792182Y-51874289D01*
X189799972Y-51917472D01*
X189800000Y-51917500D01*
X189897819Y-51917500D01*
X189897833Y-51917499D01*
X189934395Y-51913568D01*
X189939157Y-51914427D01*
X189960905Y-51913568D01*
X190002127Y-51918000D01*
X190255903Y-51917999D01*
X190322941Y-51937683D01*
X190368696Y-51990487D01*
X190378640Y-52059646D01*
X190349615Y-52123201D01*
X190343586Y-52129677D01*
X190273709Y-52199554D01*
X190210081Y-52263182D01*
X190208493Y-52264048D01*
X190207583Y-52265610D01*
X190177954Y-52280723D01*
X190148758Y-52296666D01*
X190146153Y-52296946D01*
X190145344Y-52297359D01*
X190143772Y-52297202D01*
X190122401Y-52299500D01*
X189922499Y-52299500D01*
X189922480Y-52299501D01*
X189819703Y-52310000D01*
X189819700Y-52310001D01*
X189653168Y-52365185D01*
X189653163Y-52365187D01*
X189503845Y-52457287D01*
X189409827Y-52551305D01*
X189348503Y-52584789D01*
X189278812Y-52579805D01*
X189234465Y-52551304D01*
X189140845Y-52457684D01*
X188991624Y-52365643D01*
X188991619Y-52365641D01*
X188825197Y-52310494D01*
X188825190Y-52310493D01*
X188722486Y-52300000D01*
X188572500Y-52300000D01*
X188572500Y-54699999D01*
X188722472Y-54699999D01*
X188722486Y-54699998D01*
X188825197Y-54689505D01*
X188991619Y-54634358D01*
X188991624Y-54634356D01*
X189140842Y-54542317D01*
X189234464Y-54448695D01*
X189295787Y-54415210D01*
X189365479Y-54420194D01*
X189409827Y-54448695D01*
X189503844Y-54542712D01*
X189653166Y-54634814D01*
X189819703Y-54689999D01*
X189922491Y-54700500D01*
X190722508Y-54700499D01*
X190722516Y-54700498D01*
X190722519Y-54700498D01*
X190778802Y-54694748D01*
X190825297Y-54689999D01*
X190991834Y-54634814D01*
X191141156Y-54542712D01*
X191187819Y-54496049D01*
X191249142Y-54462564D01*
X191318834Y-54467548D01*
X191374767Y-54509420D01*
X191399184Y-54574884D01*
X191399500Y-54583730D01*
X191399500Y-56913330D01*
X191399499Y-56913348D01*
X191399499Y-57079054D01*
X191399498Y-57079054D01*
X191440424Y-57231789D01*
X191440425Y-57231790D01*
X191462280Y-57269643D01*
X191462281Y-57269644D01*
X191519477Y-57368712D01*
X191519481Y-57368717D01*
X191638349Y-57487585D01*
X191638355Y-57487590D01*
X192416139Y-58265374D01*
X192416149Y-58265385D01*
X192420479Y-58269715D01*
X192420480Y-58269716D01*
X192532284Y-58381520D01*
X192532286Y-58381521D01*
X192532290Y-58381524D01*
X192654582Y-58452128D01*
X192669216Y-58460577D01*
X192781019Y-58490534D01*
X192821942Y-58501500D01*
X192821943Y-58501500D01*
X195533803Y-58501500D01*
X195600842Y-58521185D01*
X195621484Y-58537819D01*
X195892084Y-58808419D01*
X195925569Y-58869742D01*
X195920585Y-58939434D01*
X195878713Y-58995367D01*
X195813249Y-59019784D01*
X195804403Y-59020100D01*
X194281529Y-59020100D01*
X194281523Y-59020101D01*
X194221916Y-59026508D01*
X194087071Y-59076802D01*
X194087069Y-59076804D01*
X193971850Y-59163056D01*
X193971726Y-59163181D01*
X193971571Y-59163265D01*
X193964754Y-59168369D01*
X193964020Y-59167388D01*
X193910403Y-59196666D01*
X193884045Y-59199500D01*
X190100097Y-59199500D01*
X190033058Y-59179815D01*
X190012416Y-59163181D01*
X184849221Y-53999986D01*
X187222501Y-53999986D01*
X187232994Y-54102697D01*
X187288141Y-54269119D01*
X187288143Y-54269124D01*
X187380184Y-54418345D01*
X187504154Y-54542315D01*
X187653375Y-54634356D01*
X187653380Y-54634358D01*
X187819802Y-54689505D01*
X187819809Y-54689506D01*
X187922519Y-54699999D01*
X188072499Y-54699999D01*
X188072500Y-54699998D01*
X188072500Y-53750000D01*
X187222501Y-53750000D01*
X187222501Y-53999986D01*
X184849221Y-53999986D01*
X183155391Y-52306156D01*
X183121906Y-52244833D01*
X183121455Y-52194282D01*
X183125188Y-52175519D01*
X183140500Y-52098541D01*
X183140500Y-51901459D01*
X183140500Y-51901456D01*
X183140499Y-51901454D01*
X183110113Y-51748691D01*
X183116340Y-51679100D01*
X183159203Y-51623922D01*
X183225093Y-51600678D01*
X183231730Y-51600500D01*
X184229903Y-51600500D01*
X184296942Y-51620185D01*
X184317584Y-51636819D01*
X184589933Y-51909168D01*
X184623418Y-51970491D01*
X184624725Y-52016247D01*
X184599500Y-52175513D01*
X184599500Y-52364486D01*
X184629059Y-52551118D01*
X184687454Y-52730836D01*
X184745707Y-52845163D01*
X184773240Y-52899199D01*
X184884310Y-53052073D01*
X185017927Y-53185690D01*
X185170801Y-53296760D01*
X185250347Y-53337290D01*
X185339163Y-53382545D01*
X185339165Y-53382545D01*
X185339168Y-53382547D01*
X185435497Y-53413846D01*
X185518881Y-53440940D01*
X185705514Y-53470500D01*
X185705519Y-53470500D01*
X185894486Y-53470500D01*
X186081118Y-53440940D01*
X186260832Y-53382547D01*
X186429199Y-53296760D01*
X186582073Y-53185690D01*
X186715690Y-53052073D01*
X186753514Y-53000013D01*
X187222500Y-53000013D01*
X187222500Y-53250000D01*
X188072500Y-53250000D01*
X188072500Y-52300000D01*
X187922527Y-52300000D01*
X187922512Y-52300001D01*
X187819802Y-52310494D01*
X187653380Y-52365641D01*
X187653375Y-52365643D01*
X187504154Y-52457684D01*
X187380184Y-52581654D01*
X187288143Y-52730875D01*
X187288141Y-52730880D01*
X187232994Y-52897302D01*
X187232993Y-52897309D01*
X187222500Y-53000013D01*
X186753514Y-53000013D01*
X186826760Y-52899199D01*
X186912547Y-52730832D01*
X186970940Y-52551118D01*
X186983168Y-52473914D01*
X187000500Y-52364486D01*
X187000500Y-52175513D01*
X186970940Y-51988881D01*
X186933706Y-51874289D01*
X186912547Y-51809168D01*
X186912545Y-51809165D01*
X186912545Y-51809163D01*
X186867290Y-51720347D01*
X186826760Y-51640801D01*
X186715690Y-51487927D01*
X186582073Y-51354310D01*
X186429199Y-51243240D01*
X186417225Y-51237139D01*
X186260836Y-51157454D01*
X186162368Y-51125460D01*
X186139195Y-51117930D01*
X186081521Y-51078493D01*
X186054323Y-51014134D01*
X186066238Y-50945288D01*
X186113482Y-50893812D01*
X186139194Y-50882069D01*
X186260832Y-50842547D01*
X186429199Y-50756760D01*
X186582073Y-50645690D01*
X186715690Y-50512073D01*
X186797479Y-50399500D01*
X186802019Y-50393252D01*
X186802020Y-50393250D01*
X186826760Y-50359199D01*
X186910379Y-50195084D01*
X186912545Y-50190836D01*
X186912545Y-50190835D01*
X186912547Y-50190832D01*
X186970940Y-50011118D01*
X186974906Y-49986079D01*
X187000500Y-49824486D01*
X187000500Y-49635514D01*
X186999994Y-49632321D01*
X186999994Y-49632319D01*
X186999993Y-49632315D01*
X186970940Y-49448881D01*
X186924835Y-49306987D01*
X186912547Y-49269168D01*
X186912545Y-49269165D01*
X186912545Y-49269163D01*
X186851573Y-49149499D01*
X186826760Y-49100801D01*
X186715690Y-48947927D01*
X186582073Y-48814310D01*
X186429199Y-48703240D01*
X186417555Y-48697307D01*
X186260836Y-48617454D01*
X186081118Y-48559059D01*
X185894486Y-48529500D01*
X185894481Y-48529500D01*
X185705519Y-48529500D01*
X185705514Y-48529500D01*
X185518881Y-48559059D01*
X185339163Y-48617454D01*
X185170800Y-48703240D01*
X185092280Y-48760289D01*
X185017927Y-48814310D01*
X185017925Y-48814312D01*
X185017924Y-48814312D01*
X184884312Y-48947924D01*
X184884312Y-48947925D01*
X184884310Y-48947927D01*
X184875982Y-48959390D01*
X184773240Y-49100800D01*
X184687454Y-49269163D01*
X184629059Y-49448881D01*
X184599500Y-49635513D01*
X184599500Y-49824486D01*
X184624725Y-49983751D01*
X184615770Y-50053045D01*
X184589933Y-50090830D01*
X184317582Y-50363182D01*
X184290651Y-50377888D01*
X184264838Y-50394477D01*
X184258638Y-50395368D01*
X184256262Y-50396666D01*
X184229903Y-50399500D01*
X184011230Y-50399500D01*
X183944191Y-50379815D01*
X183898436Y-50327011D01*
X183888492Y-50257853D01*
X183917517Y-50194297D01*
X183923549Y-50187819D01*
X183942712Y-50168656D01*
X184034814Y-50019334D01*
X184089999Y-49852797D01*
X184100500Y-49750009D01*
X184100499Y-49147955D01*
X184120183Y-49080917D01*
X184172987Y-49035162D01*
X184200308Y-49026339D01*
X184211079Y-49024196D01*
X184233497Y-49019737D01*
X184379179Y-48959394D01*
X184510289Y-48871789D01*
X184621789Y-48760289D01*
X184709394Y-48629179D01*
X184769737Y-48483497D01*
X184800500Y-48328842D01*
X184800500Y-48171158D01*
X184800500Y-48171155D01*
X184800499Y-48171153D01*
X184769738Y-48016510D01*
X184769737Y-48016503D01*
X184717851Y-47891237D01*
X184709397Y-47870827D01*
X184709390Y-47870814D01*
X184621789Y-47739711D01*
X184621786Y-47739707D01*
X184510292Y-47628213D01*
X184510288Y-47628210D01*
X184379185Y-47540609D01*
X184379172Y-47540602D01*
X184233498Y-47480263D01*
X184233493Y-47480262D01*
X184200305Y-47473660D01*
X184138395Y-47441274D01*
X184103822Y-47380557D01*
X184100499Y-47352043D01*
X184100499Y-46749998D01*
X184100498Y-46749981D01*
X184089999Y-46647203D01*
X184089998Y-46647200D01*
X184082947Y-46625923D01*
X184034814Y-46480666D01*
X183942712Y-46331344D01*
X183818656Y-46207288D01*
X183711163Y-46140986D01*
X183669336Y-46115187D01*
X183669331Y-46115185D01*
X183667862Y-46114698D01*
X183502797Y-46060001D01*
X183502795Y-46060000D01*
X183400016Y-46049500D01*
X183400009Y-46049500D01*
X183197625Y-46049500D01*
X183130586Y-46029815D01*
X183084831Y-45977011D01*
X183074887Y-45907853D01*
X183103912Y-45844297D01*
X183109944Y-45837819D01*
X183110263Y-45837500D01*
X183185690Y-45762073D01*
X183296760Y-45609199D01*
X183307050Y-45589004D01*
X187430000Y-45589004D01*
X187430000Y-45837500D01*
X188130000Y-45837500D01*
X188130000Y-46337500D01*
X187430000Y-46337500D01*
X187430000Y-46585995D01*
X187468427Y-46779181D01*
X187468430Y-46779193D01*
X187543807Y-46961171D01*
X187543814Y-46961184D01*
X187653248Y-47124962D01*
X187653251Y-47124966D01*
X187792533Y-47264248D01*
X187792537Y-47264251D01*
X187956315Y-47373685D01*
X187956328Y-47373692D01*
X188138308Y-47449069D01*
X188180000Y-47457362D01*
X188180000Y-46654488D01*
X188189940Y-46671705D01*
X188245795Y-46727560D01*
X188314204Y-46767056D01*
X188390504Y-46787500D01*
X188469496Y-46787500D01*
X188545796Y-46767056D01*
X188614205Y-46727560D01*
X188670060Y-46671705D01*
X188680000Y-46654488D01*
X188680000Y-47457362D01*
X188721690Y-47449069D01*
X188721692Y-47449069D01*
X188903671Y-47373692D01*
X188903684Y-47373685D01*
X189067462Y-47264251D01*
X189067466Y-47264248D01*
X189206748Y-47124966D01*
X189206751Y-47124962D01*
X189316185Y-46961184D01*
X189316192Y-46961171D01*
X189391569Y-46779193D01*
X189391572Y-46779181D01*
X189429999Y-46585995D01*
X189430000Y-46585992D01*
X189430000Y-46337500D01*
X188730000Y-46337500D01*
X188730000Y-45837500D01*
X189430000Y-45837500D01*
X189430000Y-45589008D01*
X189429999Y-45589004D01*
X196070000Y-45589004D01*
X196070000Y-45837500D01*
X196770000Y-45837500D01*
X196770000Y-46337500D01*
X196070000Y-46337500D01*
X196070000Y-46585995D01*
X196108427Y-46779181D01*
X196108430Y-46779193D01*
X196183807Y-46961171D01*
X196183814Y-46961184D01*
X196293248Y-47124962D01*
X196293251Y-47124966D01*
X196432533Y-47264248D01*
X196432537Y-47264251D01*
X196596315Y-47373685D01*
X196596328Y-47373692D01*
X196778308Y-47449069D01*
X196820000Y-47457362D01*
X196820000Y-46654488D01*
X196829940Y-46671705D01*
X196885795Y-46727560D01*
X196954204Y-46767056D01*
X197030504Y-46787500D01*
X197109496Y-46787500D01*
X197185796Y-46767056D01*
X197254205Y-46727560D01*
X197310060Y-46671705D01*
X197320000Y-46654488D01*
X197320000Y-47457362D01*
X197361690Y-47449069D01*
X197361692Y-47449069D01*
X197543671Y-47373692D01*
X197543684Y-47373685D01*
X197707462Y-47264251D01*
X197707466Y-47264248D01*
X197846748Y-47124966D01*
X197846751Y-47124962D01*
X197956185Y-46961184D01*
X197956192Y-46961171D01*
X198031569Y-46779193D01*
X198031572Y-46779181D01*
X198069999Y-46585995D01*
X198070000Y-46585992D01*
X198070000Y-46337500D01*
X197370000Y-46337500D01*
X197370000Y-45837500D01*
X198070000Y-45837500D01*
X198070000Y-45589008D01*
X198069999Y-45589004D01*
X198031572Y-45395818D01*
X198031569Y-45395806D01*
X197956192Y-45213828D01*
X197956185Y-45213815D01*
X197846751Y-45050037D01*
X197846748Y-45050033D01*
X197707466Y-44910751D01*
X197707462Y-44910748D01*
X197543684Y-44801314D01*
X197543671Y-44801307D01*
X197361691Y-44725929D01*
X197361683Y-44725927D01*
X197320000Y-44717635D01*
X197320000Y-45520511D01*
X197310060Y-45503295D01*
X197254205Y-45447440D01*
X197185796Y-45407944D01*
X197109496Y-45387500D01*
X197030504Y-45387500D01*
X196954204Y-45407944D01*
X196885795Y-45447440D01*
X196829940Y-45503295D01*
X196820000Y-45520511D01*
X196820000Y-44717636D01*
X196819999Y-44717635D01*
X196778316Y-44725927D01*
X196778308Y-44725929D01*
X196596328Y-44801307D01*
X196596315Y-44801314D01*
X196432537Y-44910748D01*
X196432533Y-44910751D01*
X196293251Y-45050033D01*
X196293248Y-45050037D01*
X196183814Y-45213815D01*
X196183807Y-45213828D01*
X196108430Y-45395806D01*
X196108427Y-45395818D01*
X196070000Y-45589004D01*
X189429999Y-45589004D01*
X189391572Y-45395818D01*
X189391569Y-45395806D01*
X189316192Y-45213828D01*
X189316185Y-45213815D01*
X189206751Y-45050037D01*
X189206748Y-45050033D01*
X189067466Y-44910751D01*
X189067462Y-44910748D01*
X188903684Y-44801314D01*
X188903671Y-44801307D01*
X188721691Y-44725929D01*
X188721683Y-44725927D01*
X188680000Y-44717635D01*
X188680000Y-45520511D01*
X188670060Y-45503295D01*
X188614205Y-45447440D01*
X188545796Y-45407944D01*
X188469496Y-45387500D01*
X188390504Y-45387500D01*
X188314204Y-45407944D01*
X188245795Y-45447440D01*
X188189940Y-45503295D01*
X188180000Y-45520511D01*
X188180000Y-44717636D01*
X188179999Y-44717635D01*
X188138316Y-44725927D01*
X188138308Y-44725929D01*
X187956328Y-44801307D01*
X187956315Y-44801314D01*
X187792537Y-44910748D01*
X187792533Y-44910751D01*
X187653251Y-45050033D01*
X187653248Y-45050037D01*
X187543814Y-45213815D01*
X187543807Y-45213828D01*
X187468430Y-45395806D01*
X187468427Y-45395818D01*
X187430000Y-45589004D01*
X183307050Y-45589004D01*
X183382547Y-45440832D01*
X183440940Y-45261118D01*
X183448432Y-45213815D01*
X183470500Y-45074486D01*
X183470500Y-44885513D01*
X183440940Y-44698881D01*
X183413846Y-44615497D01*
X183382547Y-44519168D01*
X183382545Y-44519165D01*
X183382545Y-44519163D01*
X183296759Y-44350800D01*
X183185690Y-44197927D01*
X183185686Y-44197923D01*
X183185296Y-44197386D01*
X183161816Y-44131580D01*
X183177641Y-44063526D01*
X183227747Y-44014831D01*
X183285614Y-44000500D01*
X207052691Y-44000500D01*
X207119730Y-44020185D01*
G37*
%TD.AperFunction*%
%TA.AperFunction,Conductor*%
G36*
X177310000Y-56469862D02*
G01*
X177351689Y-56461570D01*
X177478047Y-56409231D01*
X177547516Y-56401762D01*
X177609996Y-56433037D01*
X177645648Y-56493126D01*
X177649500Y-56523792D01*
X177649500Y-57976206D01*
X177629815Y-58043245D01*
X177577011Y-58089000D01*
X177507853Y-58098944D01*
X177478048Y-58090767D01*
X177351691Y-58038429D01*
X177351683Y-58038427D01*
X177310000Y-58030135D01*
X177310000Y-58790382D01*
X177259554Y-58739936D01*
X177185445Y-58697149D01*
X177102787Y-58675000D01*
X177017213Y-58675000D01*
X176934555Y-58697149D01*
X176860446Y-58739936D01*
X176810000Y-58790382D01*
X176810000Y-58030136D01*
X176809999Y-58030135D01*
X176768316Y-58038427D01*
X176666339Y-58080666D01*
X176596870Y-58088133D01*
X176544578Y-58065372D01*
X176532330Y-58056203D01*
X176532328Y-58056202D01*
X176397482Y-58005908D01*
X176397483Y-58005908D01*
X176337883Y-57999501D01*
X176337881Y-57999500D01*
X176337873Y-57999500D01*
X176337864Y-57999500D01*
X175242129Y-57999500D01*
X175242123Y-57999501D01*
X175182516Y-58005908D01*
X175047671Y-58056202D01*
X175047664Y-58056206D01*
X174932457Y-58142451D01*
X174932451Y-58142457D01*
X174889515Y-58199812D01*
X174833581Y-58241682D01*
X174790249Y-58249500D01*
X173624500Y-58249500D01*
X173557461Y-58229815D01*
X173511706Y-58177011D01*
X173500500Y-58125500D01*
X173500500Y-56712229D01*
X173520185Y-56645190D01*
X173536819Y-56624548D01*
X173874548Y-56286819D01*
X173935871Y-56253334D01*
X173962229Y-56250500D01*
X174790249Y-56250500D01*
X174857288Y-56270185D01*
X174889515Y-56300188D01*
X174912624Y-56331057D01*
X174932454Y-56357546D01*
X174932457Y-56357548D01*
X175047664Y-56443793D01*
X175047671Y-56443797D01*
X175182517Y-56494091D01*
X175182516Y-56494091D01*
X175189444Y-56494835D01*
X175242127Y-56500500D01*
X176337872Y-56500499D01*
X176397483Y-56494091D01*
X176532331Y-56443796D01*
X176544575Y-56434629D01*
X176610035Y-56410210D01*
X176666339Y-56419333D01*
X176768308Y-56461569D01*
X176810000Y-56469862D01*
X176810000Y-55709618D01*
X176860446Y-55760064D01*
X176934555Y-55802851D01*
X177017213Y-55825000D01*
X177102787Y-55825000D01*
X177185445Y-55802851D01*
X177259554Y-55760064D01*
X177310000Y-55709618D01*
X177310000Y-56469862D01*
G37*
%TD.AperFunction*%
%TA.AperFunction,Conductor*%
G36*
X177310000Y-52969862D02*
G01*
X177351690Y-52961569D01*
X177351692Y-52961569D01*
X177533672Y-52886191D01*
X177536607Y-52884231D01*
X177538378Y-52883676D01*
X177539045Y-52883320D01*
X177539112Y-52883446D01*
X177603284Y-52863352D01*
X177670665Y-52881835D01*
X177717356Y-52933813D01*
X177729500Y-52987332D01*
X177729500Y-54512666D01*
X177709815Y-54579705D01*
X177657011Y-54625460D01*
X177587853Y-54635404D01*
X177536616Y-54615773D01*
X177533685Y-54613815D01*
X177533671Y-54613807D01*
X177351691Y-54538429D01*
X177351683Y-54538427D01*
X177310000Y-54530135D01*
X177310000Y-55290382D01*
X177259554Y-55239936D01*
X177185445Y-55197149D01*
X177102787Y-55175000D01*
X177017213Y-55175000D01*
X176934555Y-55197149D01*
X176860446Y-55239936D01*
X176810000Y-55290382D01*
X176810000Y-54530136D01*
X176809999Y-54530135D01*
X176768316Y-54538427D01*
X176666339Y-54580666D01*
X176596870Y-54588133D01*
X176544578Y-54565372D01*
X176532330Y-54556203D01*
X176532328Y-54556202D01*
X176397482Y-54505908D01*
X176397483Y-54505908D01*
X176337883Y-54499501D01*
X176337881Y-54499500D01*
X176337873Y-54499500D01*
X176337864Y-54499500D01*
X175242129Y-54499500D01*
X175242123Y-54499501D01*
X175182516Y-54505908D01*
X175047671Y-54556202D01*
X175047664Y-54556206D01*
X174932457Y-54642451D01*
X174932451Y-54642457D01*
X174889515Y-54699812D01*
X174833581Y-54741682D01*
X174790249Y-54749500D01*
X173611228Y-54749500D01*
X173544189Y-54729815D01*
X173498434Y-54677011D01*
X173488490Y-54607853D01*
X173517515Y-54544297D01*
X173523547Y-54537819D01*
X174265286Y-53796080D01*
X175042233Y-53019132D01*
X175103554Y-52985649D01*
X175173245Y-52990633D01*
X175182517Y-52994091D01*
X175182516Y-52994091D01*
X175189444Y-52994835D01*
X175242127Y-53000500D01*
X176337872Y-53000499D01*
X176397483Y-52994091D01*
X176532331Y-52943796D01*
X176544575Y-52934629D01*
X176610035Y-52910210D01*
X176666339Y-52919333D01*
X176768308Y-52961569D01*
X176810000Y-52969862D01*
X176810000Y-52209618D01*
X176860446Y-52260064D01*
X176934555Y-52302851D01*
X177017213Y-52325000D01*
X177102787Y-52325000D01*
X177185445Y-52302851D01*
X177259554Y-52260064D01*
X177310000Y-52209618D01*
X177310000Y-52969862D01*
G37*
%TD.AperFunction*%
%TA.AperFunction,Conductor*%
G36*
X203239936Y-51530446D02*
G01*
X203197149Y-51604555D01*
X203175000Y-51687213D01*
X203175000Y-51772787D01*
X203197149Y-51855445D01*
X203239936Y-51929554D01*
X203290382Y-51980000D01*
X202439618Y-51980000D01*
X202490064Y-51929554D01*
X202532851Y-51855445D01*
X202555000Y-51772787D01*
X202555000Y-51687213D01*
X202532851Y-51604555D01*
X202490064Y-51530446D01*
X202439618Y-51480000D01*
X203290382Y-51480000D01*
X203239936Y-51530446D01*
G37*
%TD.AperFunction*%
%TD*%
M02*
