%TF.GenerationSoftware,KiCad,Pcbnew,9.0.0*%
%TF.CreationDate,2025-03-28T01:16:57+01:00*%
%TF.ProjectId,pcb_odometrie,7063625f-6f64-46f6-9d65-747269652e6b,rev?*%
%TF.SameCoordinates,Original*%
%TF.FileFunction,Paste,Top*%
%TF.FilePolarity,Positive*%
%FSLAX46Y46*%
G04 Gerber Fmt 4.6, Leading zero omitted, Abs format (unit mm)*
G04 Created by KiCad (PCBNEW 9.0.0) date 2025-03-28 01:16:57*
%MOMM*%
%LPD*%
G01*
G04 APERTURE LIST*
G04 Aperture macros list*
%AMRoundRect*
0 Rectangle with rounded corners*
0 $1 Rounding radius*
0 $2 $3 $4 $5 $6 $7 $8 $9 X,Y pos of 4 corners*
0 Add a 4 corners polygon primitive as box body*
4,1,4,$2,$3,$4,$5,$6,$7,$8,$9,$2,$3,0*
0 Add four circle primitives for the rounded corners*
1,1,$1+$1,$2,$3*
1,1,$1+$1,$4,$5*
1,1,$1+$1,$6,$7*
1,1,$1+$1,$8,$9*
0 Add four rect primitives between the rounded corners*
20,1,$1+$1,$2,$3,$4,$5,0*
20,1,$1+$1,$4,$5,$6,$7,0*
20,1,$1+$1,$6,$7,$8,$9,0*
20,1,$1+$1,$8,$9,$2,$3,0*%
G04 Aperture macros list end*
%ADD10R,1.981200X0.558800*%
%ADD11RoundRect,0.250000X-0.350000X-0.450000X0.350000X-0.450000X0.350000X0.450000X-0.350000X0.450000X0*%
%ADD12RoundRect,0.250000X0.337500X0.475000X-0.337500X0.475000X-0.337500X-0.475000X0.337500X-0.475000X0*%
%ADD13RoundRect,0.250000X0.475000X-0.337500X0.475000X0.337500X-0.475000X0.337500X-0.475000X-0.337500X0*%
%ADD14RoundRect,0.250000X0.450000X-0.350000X0.450000X0.350000X-0.450000X0.350000X-0.450000X-0.350000X0*%
%ADD15R,0.600000X1.150000*%
%ADD16R,0.300000X1.150000*%
%ADD17RoundRect,0.250000X0.350000X0.450000X-0.350000X0.450000X-0.350000X-0.450000X0.350000X-0.450000X0*%
%ADD18R,0.812800X0.254000*%
%ADD19R,0.254000X0.812800*%
%ADD20RoundRect,0.250000X-0.337500X-0.475000X0.337500X-0.475000X0.337500X0.475000X-0.337500X0.475000X0*%
%ADD21RoundRect,0.250000X-0.450000X0.350000X-0.450000X-0.350000X0.450000X-0.350000X0.450000X0.350000X0*%
G04 APERTURE END LIST*
D10*
%TO.C,U2*%
X186290000Y-59800000D03*
X186290000Y-61070000D03*
X186290000Y-62340000D03*
X186290000Y-63610000D03*
X186290000Y-64880000D03*
X186290000Y-66150000D03*
X186290000Y-67420000D03*
X186290000Y-68690000D03*
X186290000Y-69960000D03*
X186290000Y-71230000D03*
X186290000Y-72500000D03*
X186290000Y-73770000D03*
X186290000Y-75040000D03*
X186290000Y-76310000D03*
X195320000Y-76310000D03*
X195320000Y-75040000D03*
X195320000Y-73770000D03*
X195320000Y-72500000D03*
X195320000Y-71230000D03*
X195320000Y-69960000D03*
X195320000Y-68690000D03*
X195320000Y-67420000D03*
X195320000Y-66150000D03*
X195320000Y-64880000D03*
X195320000Y-63610000D03*
X195320000Y-62340000D03*
X195320000Y-61070000D03*
X195320000Y-59800000D03*
%TD*%
D11*
%TO.C,R2*%
X194572500Y-53500000D03*
X196572500Y-53500000D03*
%TD*%
D12*
%TO.C,C5*%
X204287500Y-73250000D03*
X202212500Y-73250000D03*
%TD*%
D13*
%TO.C,C4*%
X199000000Y-62037500D03*
X199000000Y-59962500D03*
%TD*%
D14*
%TO.C,R11*%
X210300000Y-59750000D03*
X210300000Y-57750000D03*
%TD*%
D15*
%TO.C,J1*%
X195950000Y-50842500D03*
X195150000Y-50842500D03*
D16*
X194000000Y-50842500D03*
X193000000Y-50842500D03*
X192500000Y-50842500D03*
X191500000Y-50842500D03*
D15*
X189550000Y-50842500D03*
X190350000Y-50842500D03*
D16*
X191000000Y-50842500D03*
X192000000Y-50842500D03*
X193500000Y-50842500D03*
X194500000Y-50842500D03*
%TD*%
D17*
%TO.C,R6*%
X183000000Y-49250000D03*
X181000000Y-49250000D03*
%TD*%
D18*
%TO.C,U1*%
X203650363Y-70350141D03*
X203650363Y-69850015D03*
X203650363Y-69349889D03*
X203650363Y-68849763D03*
X203650363Y-68349637D03*
X203650363Y-67849511D03*
X203650363Y-67349385D03*
X203650363Y-66849259D03*
D19*
X203000504Y-66199400D03*
X202500378Y-66199400D03*
X202000252Y-66199400D03*
X201500126Y-66199400D03*
X201000000Y-66199400D03*
X200499874Y-66199400D03*
X199999748Y-66199400D03*
X199499622Y-66199400D03*
D18*
X198849763Y-66849259D03*
X198849763Y-67349385D03*
X198849763Y-67849511D03*
X198849763Y-68349637D03*
X198849763Y-68849763D03*
X198849763Y-69349889D03*
X198849763Y-69850015D03*
X198849763Y-70350141D03*
D19*
X199499622Y-71000000D03*
X199999748Y-71000000D03*
X200499874Y-71000000D03*
X201000000Y-71000000D03*
X201500126Y-71000000D03*
X202000252Y-71000000D03*
X202500378Y-71000000D03*
X203000504Y-71000000D03*
%TD*%
D14*
%TO.C,R4*%
X205750000Y-62000000D03*
X205750000Y-60000000D03*
%TD*%
D17*
%TO.C,R3*%
X190322500Y-53500000D03*
X188322500Y-53500000D03*
%TD*%
D14*
%TO.C,R9*%
X212750000Y-80250000D03*
X212750000Y-78250000D03*
%TD*%
D20*
%TO.C,C6*%
X189712500Y-82000000D03*
X191787500Y-82000000D03*
%TD*%
D11*
%TO.C,R5*%
X200000000Y-75900000D03*
X202000000Y-75900000D03*
%TD*%
%TO.C,R1*%
X207400000Y-85600000D03*
X209400000Y-85600000D03*
%TD*%
D13*
%TO.C,C2*%
X201250000Y-62037500D03*
X201250000Y-59962500D03*
%TD*%
D21*
%TO.C,R8*%
X210750000Y-78250000D03*
X210750000Y-80250000D03*
%TD*%
D13*
%TO.C,C1*%
X203500000Y-62037500D03*
X203500000Y-59962500D03*
%TD*%
D21*
%TO.C,R10*%
X212500000Y-57750000D03*
X212500000Y-59750000D03*
%TD*%
D12*
%TO.C,C3*%
X207287500Y-75500000D03*
X205212500Y-75500000D03*
%TD*%
D17*
%TO.C,R7*%
X183000000Y-47250000D03*
X181000000Y-47250000D03*
%TD*%
M02*
