%TF.GenerationSoftware,KiCad,Pcbnew,9.0.0*%
%TF.CreationDate,2025-03-28T01:16:57+01:00*%
%TF.ProjectId,pcb_odometrie,7063625f-6f64-46f6-9d65-747269652e6b,rev?*%
%TF.SameCoordinates,Original*%
%TF.FileFunction,Soldermask,Top*%
%TF.FilePolarity,Negative*%
%FSLAX46Y46*%
G04 Gerber Fmt 4.6, Leading zero omitted, Abs format (unit mm)*
G04 Created by KiCad (PCBNEW 9.0.0) date 2025-03-28 01:16:57*
%MOMM*%
%LPD*%
G01*
G04 APERTURE LIST*
G04 Aperture macros list*
%AMRoundRect*
0 Rectangle with rounded corners*
0 $1 Rounding radius*
0 $2 $3 $4 $5 $6 $7 $8 $9 X,Y pos of 4 corners*
0 Add a 4 corners polygon primitive as box body*
4,1,4,$2,$3,$4,$5,$6,$7,$8,$9,$2,$3,0*
0 Add four circle primitives for the rounded corners*
1,1,$1+$1,$2,$3*
1,1,$1+$1,$4,$5*
1,1,$1+$1,$6,$7*
1,1,$1+$1,$8,$9*
0 Add four rect primitives between the rounded corners*
20,1,$1+$1,$2,$3,$4,$5,0*
20,1,$1+$1,$4,$5,$6,$7,0*
20,1,$1+$1,$6,$7,$8,$9,0*
20,1,$1+$1,$8,$9,$2,$3,0*%
G04 Aperture macros list end*
%ADD10C,0.010000*%
%ADD11R,1.981200X0.558800*%
%ADD12R,1.000000X1.000000*%
%ADD13O,1.000000X1.000000*%
%ADD14C,3.600000*%
%ADD15C,5.500000*%
%ADD16RoundRect,0.250000X-0.350000X-0.450000X0.350000X-0.450000X0.350000X0.450000X-0.350000X0.450000X0*%
%ADD17RoundRect,0.250000X0.337500X0.475000X-0.337500X0.475000X-0.337500X-0.475000X0.337500X-0.475000X0*%
%ADD18RoundRect,0.250000X0.475000X-0.337500X0.475000X0.337500X-0.475000X0.337500X-0.475000X-0.337500X0*%
%ADD19R,1.700000X1.700000*%
%ADD20O,1.700000X1.700000*%
%ADD21C,1.400000*%
%ADD22RoundRect,0.250000X0.450000X-0.350000X0.450000X0.350000X-0.450000X0.350000X-0.450000X-0.350000X0*%
%ADD23C,0.650000*%
%ADD24O,1.204000X2.304000*%
%ADD25O,1.204000X2.004000*%
%ADD26RoundRect,0.250000X0.350000X0.450000X-0.350000X0.450000X-0.350000X-0.450000X0.350000X-0.450000X0*%
%ADD27R,0.812800X0.254000*%
%ADD28R,0.254000X0.812800*%
%ADD29C,1.168400*%
%ADD30RoundRect,0.250000X-0.337500X-0.475000X0.337500X-0.475000X0.337500X0.475000X-0.337500X0.475000X0*%
%ADD31RoundRect,0.250000X-0.450000X0.350000X-0.450000X-0.350000X0.450000X-0.350000X0.450000X0.350000X0*%
%ADD32C,1.303000*%
%ADD33RoundRect,0.249999X1.550001X-0.790001X1.550001X0.790001X-1.550001X0.790001X-1.550001X-0.790001X0*%
%ADD34O,3.600000X2.080000*%
G04 APERTURE END LIST*
D10*
%TO.C,J1*%
X189900000Y-51467500D02*
X189200000Y-51467500D01*
X189200000Y-50217500D01*
X189900000Y-50217500D01*
X189900000Y-51467500D01*
G36*
X189900000Y-51467500D02*
G01*
X189200000Y-51467500D01*
X189200000Y-50217500D01*
X189900000Y-50217500D01*
X189900000Y-51467500D01*
G37*
X190700000Y-51467500D02*
X190000000Y-51467500D01*
X190000000Y-50217500D01*
X190700000Y-50217500D01*
X190700000Y-51467500D01*
G36*
X190700000Y-51467500D02*
G01*
X190000000Y-51467500D01*
X190000000Y-50217500D01*
X190700000Y-50217500D01*
X190700000Y-51467500D01*
G37*
X191200000Y-51467500D02*
X190800000Y-51467500D01*
X190800000Y-50217500D01*
X191200000Y-50217500D01*
X191200000Y-51467500D01*
G36*
X191200000Y-51467500D02*
G01*
X190800000Y-51467500D01*
X190800000Y-50217500D01*
X191200000Y-50217500D01*
X191200000Y-51467500D01*
G37*
X191700000Y-51467500D02*
X191300000Y-51467500D01*
X191300000Y-50217500D01*
X191700000Y-50217500D01*
X191700000Y-51467500D01*
G36*
X191700000Y-51467500D02*
G01*
X191300000Y-51467500D01*
X191300000Y-50217500D01*
X191700000Y-50217500D01*
X191700000Y-51467500D01*
G37*
X192200000Y-51467500D02*
X191800000Y-51467500D01*
X191800000Y-50217500D01*
X192200000Y-50217500D01*
X192200000Y-51467500D01*
G36*
X192200000Y-51467500D02*
G01*
X191800000Y-51467500D01*
X191800000Y-50217500D01*
X192200000Y-50217500D01*
X192200000Y-51467500D01*
G37*
X192700000Y-51467500D02*
X192300000Y-51467500D01*
X192300000Y-50217500D01*
X192700000Y-50217500D01*
X192700000Y-51467500D01*
G36*
X192700000Y-51467500D02*
G01*
X192300000Y-51467500D01*
X192300000Y-50217500D01*
X192700000Y-50217500D01*
X192700000Y-51467500D01*
G37*
X193200000Y-51467500D02*
X192800000Y-51467500D01*
X192800000Y-50217500D01*
X193200000Y-50217500D01*
X193200000Y-51467500D01*
G36*
X193200000Y-51467500D02*
G01*
X192800000Y-51467500D01*
X192800000Y-50217500D01*
X193200000Y-50217500D01*
X193200000Y-51467500D01*
G37*
X193700000Y-51467500D02*
X193300000Y-51467500D01*
X193300000Y-50217500D01*
X193700000Y-50217500D01*
X193700000Y-51467500D01*
G36*
X193700000Y-51467500D02*
G01*
X193300000Y-51467500D01*
X193300000Y-50217500D01*
X193700000Y-50217500D01*
X193700000Y-51467500D01*
G37*
X194200000Y-51467500D02*
X193800000Y-51467500D01*
X193800000Y-50217500D01*
X194200000Y-50217500D01*
X194200000Y-51467500D01*
G36*
X194200000Y-51467500D02*
G01*
X193800000Y-51467500D01*
X193800000Y-50217500D01*
X194200000Y-50217500D01*
X194200000Y-51467500D01*
G37*
X194700000Y-51467500D02*
X194300000Y-51467500D01*
X194300000Y-50217500D01*
X194700000Y-50217500D01*
X194700000Y-51467500D01*
G36*
X194700000Y-51467500D02*
G01*
X194300000Y-51467500D01*
X194300000Y-50217500D01*
X194700000Y-50217500D01*
X194700000Y-51467500D01*
G37*
X195500000Y-51467500D02*
X194800000Y-51467500D01*
X194800000Y-50217500D01*
X195500000Y-50217500D01*
X195500000Y-51467500D01*
G36*
X195500000Y-51467500D02*
G01*
X194800000Y-51467500D01*
X194800000Y-50217500D01*
X195500000Y-50217500D01*
X195500000Y-51467500D01*
G37*
X196300000Y-51467500D02*
X195600000Y-51467500D01*
X195600000Y-50217500D01*
X196300000Y-50217500D01*
X196300000Y-51467500D01*
G36*
X196300000Y-51467500D02*
G01*
X195600000Y-51467500D01*
X195600000Y-50217500D01*
X196300000Y-50217500D01*
X196300000Y-51467500D01*
G37*
%TD*%
D11*
%TO.C,U2*%
X186290000Y-59800000D03*
X186290000Y-61070000D03*
X186290000Y-62340000D03*
X186290000Y-63610000D03*
X186290000Y-64880000D03*
X186290000Y-66150000D03*
X186290000Y-67420000D03*
X186290000Y-68690000D03*
X186290000Y-69960000D03*
X186290000Y-71230000D03*
X186290000Y-72500000D03*
X186290000Y-73770000D03*
X186290000Y-75040000D03*
X186290000Y-76310000D03*
X195320000Y-76310000D03*
X195320000Y-75040000D03*
X195320000Y-73770000D03*
X195320000Y-72500000D03*
X195320000Y-71230000D03*
X195320000Y-69960000D03*
X195320000Y-68690000D03*
X195320000Y-67420000D03*
X195320000Y-66150000D03*
X195320000Y-64880000D03*
X195320000Y-63610000D03*
X195320000Y-62340000D03*
X195320000Y-61070000D03*
X195320000Y-59800000D03*
%TD*%
D12*
%TO.C,J12*%
X175710000Y-73000000D03*
D13*
X176980000Y-73000000D03*
X178250000Y-73000000D03*
X179520000Y-73000000D03*
X180790000Y-73000000D03*
X182060000Y-73000000D03*
%TD*%
D12*
%TO.C,J11*%
X175730000Y-69500000D03*
D13*
X177000000Y-69500000D03*
X178270000Y-69500000D03*
X179540000Y-69500000D03*
X180810000Y-69500000D03*
X182080000Y-69500000D03*
%TD*%
D14*
%TO.C,H4*%
X173500000Y-96500000D03*
D15*
X173500000Y-96500000D03*
%TD*%
D16*
%TO.C,R2*%
X194572500Y-53500000D03*
X196572500Y-53500000D03*
%TD*%
D17*
%TO.C,C5*%
X204287500Y-73250000D03*
X202212500Y-73250000D03*
%TD*%
D14*
%TO.C,H1*%
X173500000Y-46500000D03*
D15*
X173500000Y-46500000D03*
%TD*%
D18*
%TO.C,C4*%
X199000000Y-62037500D03*
X199000000Y-59962500D03*
%TD*%
D19*
%TO.C,J4*%
X210210000Y-62800000D03*
D20*
X210210000Y-65340000D03*
X210210000Y-67880000D03*
X210210000Y-70420000D03*
X210210000Y-72960000D03*
X210210000Y-75500000D03*
X212750000Y-62800000D03*
X212750000Y-65340000D03*
X212750000Y-67880000D03*
X212750000Y-70420000D03*
X212750000Y-72960000D03*
X212750000Y-75500000D03*
%TD*%
D21*
%TO.C,TP3*%
X185800000Y-52270000D03*
X185800000Y-49730000D03*
%TD*%
D22*
%TO.C,R11*%
X210300000Y-59750000D03*
X210300000Y-57750000D03*
%TD*%
D23*
%TO.C,J1*%
X195640000Y-49767500D03*
X189860000Y-49767500D03*
D24*
X197070000Y-50267500D03*
D25*
X197070000Y-46087500D03*
D24*
X188430000Y-50267500D03*
D25*
X188430000Y-46087500D03*
%TD*%
D26*
%TO.C,R6*%
X183000000Y-49250000D03*
X181000000Y-49250000D03*
%TD*%
D27*
%TO.C,U1*%
X203650363Y-70350141D03*
X203650363Y-69850015D03*
X203650363Y-69349889D03*
X203650363Y-68849763D03*
X203650363Y-68349637D03*
X203650363Y-67849511D03*
X203650363Y-67349385D03*
X203650363Y-66849259D03*
D28*
X203000504Y-66199400D03*
X202500378Y-66199400D03*
X202000252Y-66199400D03*
X201500126Y-66199400D03*
X201000000Y-66199400D03*
X200499874Y-66199400D03*
X199999748Y-66199400D03*
X199499622Y-66199400D03*
D27*
X198849763Y-66849259D03*
X198849763Y-67349385D03*
X198849763Y-67849511D03*
X198849763Y-68349637D03*
X198849763Y-68849763D03*
X198849763Y-69349889D03*
X198849763Y-69850015D03*
X198849763Y-70350141D03*
D28*
X199499622Y-71000000D03*
X199999748Y-71000000D03*
X200499874Y-71000000D03*
X201000000Y-71000000D03*
X201500126Y-71000000D03*
X202000252Y-71000000D03*
X202500378Y-71000000D03*
X203000504Y-71000000D03*
%TD*%
D12*
%TO.C,J5*%
X202230000Y-50460000D03*
D13*
X202230000Y-51730000D03*
X202230000Y-53000000D03*
X202230000Y-54270000D03*
X203500000Y-50460000D03*
X203500000Y-51730000D03*
X203500000Y-53000000D03*
X203500000Y-54270000D03*
%TD*%
D12*
%TO.C,J10*%
X175730000Y-66000000D03*
D13*
X177000000Y-66000000D03*
X178270000Y-66000000D03*
X179540000Y-66000000D03*
X180810000Y-66000000D03*
X182080000Y-66000000D03*
%TD*%
D12*
%TO.C,J8*%
X175790000Y-59000000D03*
D13*
X177060000Y-59000000D03*
X178330000Y-59000000D03*
X179600000Y-59000000D03*
X180870000Y-59000000D03*
X182140000Y-59000000D03*
%TD*%
D22*
%TO.C,R4*%
X205750000Y-62000000D03*
X205750000Y-60000000D03*
%TD*%
D26*
%TO.C,R3*%
X190322500Y-53500000D03*
X188322500Y-53500000D03*
%TD*%
D21*
%TO.C,TP4*%
X179730000Y-44980000D03*
X182270000Y-44980000D03*
%TD*%
%TO.C,TP2*%
X183250000Y-83270000D03*
X183250000Y-80730000D03*
%TD*%
D29*
%TO.C,J2*%
X197380000Y-81500000D03*
X197380000Y-80230000D03*
X198650000Y-81500000D03*
X198650000Y-80230000D03*
X199920000Y-81500000D03*
X199920000Y-80230000D03*
X201190000Y-81500000D03*
X201190000Y-80230000D03*
X202460000Y-81500000D03*
X202460000Y-80230000D03*
X203730000Y-81500000D03*
X203730000Y-80230000D03*
X205000000Y-81500000D03*
X205000000Y-80230000D03*
%TD*%
D22*
%TO.C,R9*%
X212750000Y-80250000D03*
X212750000Y-78250000D03*
%TD*%
D30*
%TO.C,C6*%
X189712500Y-82000000D03*
X191787500Y-82000000D03*
%TD*%
D16*
%TO.C,R5*%
X200000000Y-75900000D03*
X202000000Y-75900000D03*
%TD*%
%TO.C,R1*%
X207400000Y-85600000D03*
X209400000Y-85600000D03*
%TD*%
D18*
%TO.C,C2*%
X201250000Y-62037500D03*
X201250000Y-59962500D03*
%TD*%
D12*
%TO.C,J13*%
X175730000Y-76500000D03*
D13*
X177000000Y-76500000D03*
X178270000Y-76500000D03*
X179540000Y-76500000D03*
X180810000Y-76500000D03*
X182080000Y-76500000D03*
%TD*%
D12*
%TO.C,J9*%
X175790000Y-62500000D03*
D13*
X177060000Y-62500000D03*
X178330000Y-62500000D03*
X179600000Y-62500000D03*
X180870000Y-62500000D03*
X182140000Y-62500000D03*
%TD*%
D31*
%TO.C,R8*%
X210750000Y-78250000D03*
X210750000Y-80250000D03*
%TD*%
D21*
%TO.C,TP1*%
X186000000Y-80730000D03*
X186000000Y-83270000D03*
%TD*%
D12*
%TO.C,J6*%
X175790000Y-52000000D03*
D13*
X177060000Y-52000000D03*
X178330000Y-52000000D03*
X179600000Y-52000000D03*
X180870000Y-52000000D03*
X182140000Y-52000000D03*
%TD*%
D32*
%TO.C,PS1*%
X185100000Y-89000000D03*
X187640000Y-89000000D03*
X190180000Y-89000000D03*
X195260000Y-89000000D03*
X197800000Y-89000000D03*
X200340000Y-89000000D03*
X202880000Y-89000000D03*
%TD*%
D18*
%TO.C,C1*%
X203500000Y-62037500D03*
X203500000Y-59962500D03*
%TD*%
D12*
%TO.C,J7*%
X175790000Y-55500000D03*
D13*
X177060000Y-55500000D03*
X178330000Y-55500000D03*
X179600000Y-55500000D03*
X180870000Y-55500000D03*
X182140000Y-55500000D03*
%TD*%
D31*
%TO.C,R10*%
X212500000Y-57750000D03*
X212500000Y-59750000D03*
%TD*%
D17*
%TO.C,C3*%
X207287500Y-75500000D03*
X205212500Y-75500000D03*
%TD*%
D14*
%TO.C,H3*%
X209250000Y-96500000D03*
D15*
X209250000Y-96500000D03*
%TD*%
D14*
%TO.C,H2*%
X209250000Y-46500000D03*
D15*
X209250000Y-46500000D03*
%TD*%
D33*
%TO.C,J3*%
X177500000Y-87290000D03*
D34*
X177500000Y-82210000D03*
%TD*%
D26*
%TO.C,R7*%
X183000000Y-47250000D03*
X181000000Y-47250000D03*
%TD*%
M02*
