%TF.GenerationSoftware,KiCad,Pcbnew,9.0.0*%
%TF.CreationDate,2025-03-28T01:16:57+01:00*%
%TF.ProjectId,pcb_odometrie,7063625f-6f64-46f6-9d65-747269652e6b,rev?*%
%TF.SameCoordinates,Original*%
%TF.FileFunction,Soldermask,Bot*%
%TF.FilePolarity,Negative*%
%FSLAX46Y46*%
G04 Gerber Fmt 4.6, Leading zero omitted, Abs format (unit mm)*
G04 Created by KiCad (PCBNEW 9.0.0) date 2025-03-28 01:16:57*
%MOMM*%
%LPD*%
G01*
G04 APERTURE LIST*
G04 Aperture macros list*
%AMRoundRect*
0 Rectangle with rounded corners*
0 $1 Rounding radius*
0 $2 $3 $4 $5 $6 $7 $8 $9 X,Y pos of 4 corners*
0 Add a 4 corners polygon primitive as box body*
4,1,4,$2,$3,$4,$5,$6,$7,$8,$9,$2,$3,0*
0 Add four circle primitives for the rounded corners*
1,1,$1+$1,$2,$3*
1,1,$1+$1,$4,$5*
1,1,$1+$1,$6,$7*
1,1,$1+$1,$8,$9*
0 Add four rect primitives between the rounded corners*
20,1,$1+$1,$2,$3,$4,$5,0*
20,1,$1+$1,$4,$5,$6,$7,0*
20,1,$1+$1,$6,$7,$8,$9,0*
20,1,$1+$1,$8,$9,$2,$3,0*%
G04 Aperture macros list end*
%ADD10C,0.100000*%
%ADD11R,1.000000X1.000000*%
%ADD12O,1.000000X1.000000*%
%ADD13C,3.600000*%
%ADD14C,5.500000*%
%ADD15R,1.700000X1.700000*%
%ADD16O,1.700000X1.700000*%
%ADD17C,1.400000*%
%ADD18C,0.650000*%
%ADD19O,1.000000X2.100000*%
%ADD20O,1.000000X1.800000*%
%ADD21C,1.168400*%
%ADD22C,1.303000*%
%ADD23RoundRect,0.249999X1.550001X-0.790001X1.550001X0.790001X-1.550001X0.790001X-1.550001X-0.790001X0*%
%ADD24O,3.600000X2.080000*%
G04 APERTURE END LIST*
D10*
%TO.C,G\u002A\u002A\u002A*%
X192210000Y-68850000D02*
X192200000Y-68870000D01*
X192170000Y-69020000D01*
X192130000Y-69110000D01*
X192060000Y-69190000D01*
X192010000Y-69230000D01*
X191970000Y-69230000D01*
X191930000Y-69220000D01*
X191870000Y-69180000D01*
X191850000Y-69150000D01*
X191810000Y-69090000D01*
X191790000Y-69010000D01*
X191770000Y-68860000D01*
X191760000Y-68800000D01*
X191820000Y-68800000D01*
X191910000Y-68800000D01*
X192210000Y-68850000D01*
G36*
X192210000Y-68850000D02*
G01*
X192200000Y-68870000D01*
X192170000Y-69020000D01*
X192130000Y-69110000D01*
X192060000Y-69190000D01*
X192010000Y-69230000D01*
X191970000Y-69230000D01*
X191930000Y-69220000D01*
X191870000Y-69180000D01*
X191850000Y-69150000D01*
X191810000Y-69090000D01*
X191790000Y-69010000D01*
X191770000Y-68860000D01*
X191760000Y-68800000D01*
X191820000Y-68800000D01*
X191910000Y-68800000D01*
X192210000Y-68850000D01*
G37*
X190470000Y-68750000D02*
X190460000Y-68800000D01*
X190420000Y-68970000D01*
X190380000Y-69050000D01*
X190340000Y-69110000D01*
X190290000Y-69150000D01*
X190220000Y-69160000D01*
X190170000Y-69150000D01*
X190120000Y-69110000D01*
X190090000Y-69070000D01*
X190070000Y-69040000D01*
X190030000Y-68940000D01*
X190010000Y-68780000D01*
X190010000Y-68750000D01*
X190080000Y-68740000D01*
X190210000Y-68740000D01*
X190470000Y-68750000D01*
G36*
X190470000Y-68750000D02*
G01*
X190460000Y-68800000D01*
X190420000Y-68970000D01*
X190380000Y-69050000D01*
X190340000Y-69110000D01*
X190290000Y-69150000D01*
X190220000Y-69160000D01*
X190170000Y-69150000D01*
X190120000Y-69110000D01*
X190090000Y-69070000D01*
X190070000Y-69040000D01*
X190030000Y-68940000D01*
X190010000Y-68780000D01*
X190010000Y-68750000D01*
X190080000Y-68740000D01*
X190210000Y-68740000D01*
X190470000Y-68750000D01*
G37*
%TD*%
D11*
%TO.C,J12*%
X175710000Y-73000000D03*
D12*
X176980000Y-73000000D03*
X178250000Y-73000000D03*
X179520000Y-73000000D03*
X180790000Y-73000000D03*
X182060000Y-73000000D03*
%TD*%
D11*
%TO.C,J11*%
X175730000Y-69500000D03*
D12*
X177000000Y-69500000D03*
X178270000Y-69500000D03*
X179540000Y-69500000D03*
X180810000Y-69500000D03*
X182080000Y-69500000D03*
%TD*%
D13*
%TO.C,H4*%
X173500000Y-96500000D03*
D14*
X173500000Y-96500000D03*
%TD*%
D13*
%TO.C,H1*%
X173500000Y-46500000D03*
D14*
X173500000Y-46500000D03*
%TD*%
D15*
%TO.C,J4*%
X210210000Y-62800000D03*
D16*
X210210000Y-65340000D03*
X210210000Y-67880000D03*
X210210000Y-70420000D03*
X210210000Y-72960000D03*
X210210000Y-75500000D03*
X212750000Y-62800000D03*
X212750000Y-65340000D03*
X212750000Y-67880000D03*
X212750000Y-70420000D03*
X212750000Y-72960000D03*
X212750000Y-75500000D03*
%TD*%
D17*
%TO.C,TP3*%
X185800000Y-52270000D03*
X185800000Y-49730000D03*
%TD*%
D18*
%TO.C,J1*%
X195640000Y-49767500D03*
X189860000Y-49767500D03*
D19*
X197070000Y-50267500D03*
D20*
X197070000Y-46087500D03*
D19*
X188430000Y-50267500D03*
D20*
X188430000Y-46087500D03*
%TD*%
D11*
%TO.C,J5*%
X202230000Y-50460000D03*
D12*
X202230000Y-51730000D03*
X202230000Y-53000000D03*
X202230000Y-54270000D03*
X203500000Y-50460000D03*
X203500000Y-51730000D03*
X203500000Y-53000000D03*
X203500000Y-54270000D03*
%TD*%
D11*
%TO.C,J10*%
X175730000Y-66000000D03*
D12*
X177000000Y-66000000D03*
X178270000Y-66000000D03*
X179540000Y-66000000D03*
X180810000Y-66000000D03*
X182080000Y-66000000D03*
%TD*%
D11*
%TO.C,J8*%
X175790000Y-59000000D03*
D12*
X177060000Y-59000000D03*
X178330000Y-59000000D03*
X179600000Y-59000000D03*
X180870000Y-59000000D03*
X182140000Y-59000000D03*
%TD*%
D17*
%TO.C,TP4*%
X179730000Y-44980000D03*
X182270000Y-44980000D03*
%TD*%
%TO.C,TP2*%
X183250000Y-83270000D03*
X183250000Y-80730000D03*
%TD*%
D21*
%TO.C,J2*%
X197380000Y-81500000D03*
X197380000Y-80230000D03*
X198650000Y-81500000D03*
X198650000Y-80230000D03*
X199920000Y-81500000D03*
X199920000Y-80230000D03*
X201190000Y-81500000D03*
X201190000Y-80230000D03*
X202460000Y-81500000D03*
X202460000Y-80230000D03*
X203730000Y-81500000D03*
X203730000Y-80230000D03*
X205000000Y-81500000D03*
X205000000Y-80230000D03*
%TD*%
D11*
%TO.C,J13*%
X175730000Y-76500000D03*
D12*
X177000000Y-76500000D03*
X178270000Y-76500000D03*
X179540000Y-76500000D03*
X180810000Y-76500000D03*
X182080000Y-76500000D03*
%TD*%
D11*
%TO.C,J9*%
X175790000Y-62500000D03*
D12*
X177060000Y-62500000D03*
X178330000Y-62500000D03*
X179600000Y-62500000D03*
X180870000Y-62500000D03*
X182140000Y-62500000D03*
%TD*%
D17*
%TO.C,TP1*%
X186000000Y-80730000D03*
X186000000Y-83270000D03*
%TD*%
D11*
%TO.C,J6*%
X175790000Y-52000000D03*
D12*
X177060000Y-52000000D03*
X178330000Y-52000000D03*
X179600000Y-52000000D03*
X180870000Y-52000000D03*
X182140000Y-52000000D03*
%TD*%
D22*
%TO.C,PS1*%
X185100000Y-89000000D03*
X187640000Y-89000000D03*
X190180000Y-89000000D03*
X195260000Y-89000000D03*
X197800000Y-89000000D03*
X200340000Y-89000000D03*
X202880000Y-89000000D03*
%TD*%
D11*
%TO.C,J7*%
X175790000Y-55500000D03*
D12*
X177060000Y-55500000D03*
X178330000Y-55500000D03*
X179600000Y-55500000D03*
X180870000Y-55500000D03*
X182140000Y-55500000D03*
%TD*%
D13*
%TO.C,H3*%
X209250000Y-96500000D03*
D14*
X209250000Y-96500000D03*
%TD*%
D13*
%TO.C,H2*%
X209250000Y-46500000D03*
D14*
X209250000Y-46500000D03*
%TD*%
D23*
%TO.C,J3*%
X177500000Y-87290000D03*
D24*
X177500000Y-82210000D03*
%TD*%
M02*
